<svg id="Layer_1" data-name="Layer 1" xmlns="http://www.w3.org/2000/svg" viewBox="0 0 800 800"><defs><style>.cls-1{fill:#fff;}.cls-2{fill:#5bb951;}.cls-3{fill:#fefefe;}.cls-4{fill:#003846;}.cls-5{fill:#652300;}.cls-6{fill:#1c4d5a;}.cls-7{fill:#1a4c59;}.cls-8{fill:#e7eced;}.cls-9{fill:#194b58;}.cls-10{fill:#763c1d;}.cls-11{fill:#e3d8d3;}.cls-12{fill:#719098;}.cls-13{fill:#134753;}.cls-14{fill:#774b4b;}.cls-15{fill:#724343;}.cls-16{fill:#6f3f3f;}.cls-17{fill:#865d59;}.cls-18{fill:#773d1f;}.cls-19{fill:#21515d;}.cls-20{fill:#2e5b67;}.cls-21{fill:#896262;}.cls-22{fill:#8a6464;}.cls-23{fill:#8e6969;}.cls-24{fill:#814b2f;}.cls-25{fill:#7f482b;}.cls-26{fill:#c3ada5;}.cls-27{fill:#3f6974;}.cls-28{fill:#79979e;}.cls-29{fill:#2b5965;}.cls-30{fill:#053c49;}.cls-31{fill:#9f8080;}.cls-32{fill:#48707a;}.cls-33{fill:#5f818a;}.cls-34{fill:#dbcbc3;}.cls-35{fill:#6d3d3d;}.cls-36{fill:#6e300f;}.cls-37{fill:#eee8e8;}.cls-38{fill:#3d6872;}.cls-39{fill:#906b6b;}.cls-40{fill:#7c5151;}.cls-41{fill:#60828b;}.cls-42{fill:#704141;}.cls-43{fill:#724444;}.cls-44{fill:#855136;}.cls-45{fill:#85a0a6;}.cls-46{fill:#a7826f;}.cls-47{fill:#815757;}.cls-48{fill:#34616b;}.cls-49{fill:#804c2f;}.cls-50{fill:#295864;}.cls-51{fill:#7d4629;}.cls-52{fill:#8ea7ad;}.cls-53{fill:#783e1f;}.cls-54{fill:#a48686;}.cls-55{fill:#9a7979;}.cls-56{fill:#0f4451;}.cls-57{fill:#ba9d8e;}.cls-58{fill:#91634a;}.cls-59{fill:#b1907f;}.cls-60{fill:#aec0c4;}.cls-61{fill:#2f5d68;}.cls-62{fill:#22535f;}.cls-63{fill:#c2aeae;}.cls-64{fill:#c4ab9e;}.cls-65{fill:#597e85;}.cls-66{fill:#865f5f;}.cls-67{fill:#ced9db;}.cls-68{fill:#2b5a65;}.cls-69{fill:#986c55;}.cls-70{fill:#c6b3b3;}.cls-71{fill:#eae3e3;}.cls-72{fill:#285763;}.cls-73{fill:#5f2a2a;}.cls-74{fill:#ceb9ae;}.cls-75{fill:#c9d5d8;}.cls-76{fill:#d7e0e2;}.cls-77{fill:#ddd2d2;}.cls-78{fill:#34606b;}.cls-79{fill:#f4f0ee;}.cls-80{fill:#446d77;}.cls-81{fill:#698a92;}.cls-82{fill:#7b4326;}.cls-83{fill:#683737;}.cls-84{fill:#7f9aa1;}.cls-85{fill:#a58888;}.cls-86{fill:#e1d5ce;}.cls-87{fill:#ebe2de;}.cls-88{fill:#d6c9c9;}.cls-89{fill:#4f767f;}.cls-90{fill:#9eb3b8;}.cls-91{fill:#6f8e96;}.cls-92{fill:#8a593f;}.cls-93{fill:#cbb;}.cls-94{fill:#e0d6d6;}.cls-95{fill:#bdcbcf;}.cls-96{fill:#94674f;}.cls-97{fill:#ae9393;}.cls-98{fill:#9c7b7b;}.cls-99{fill:#245460;}.cls-100{fill:#cbd6d9;}.cls-101{fill:#beccd0;}.cls-102{fill:#906c6c;}.cls-103{fill:#1f505c;}.cls-104{fill:#d9e1e3;}.cls-105{fill:#753b1c;}.cls-106{fill:#4e757e;}.cls-107{fill:#e2e8ea;}.cls-108{fill:#dee5e7;}.cls-109{fill:#eef2f2;}.cls-110{fill:#dbe3e4;}.cls-111{fill:#124653;}.cls-112{fill:#eef2f3;}.cls-113{fill:#e9eeef;}.cls-114{fill:#eef1f2;}.cls-115{fill:#d4dde0;}.cls-116{fill:#74929a;}.cls-117{fill:#f4f6f6;}.cls-118{fill:#b0c1c5;}.cls-119{fill:#144854;}.cls-120{fill:#cbd7d9;}.cls-121{fill:#22525e;}.cls-122{fill:#e8dfda;}.cls-123{fill:#93664e;}.cls-124{fill:#c0a597;}.cls-125{fill:#a57f6b;}.cls-126{fill:#a57e6a;}.cls-127{fill:#9d755f;}.cls-128{fill:#d7c7be;}.cls-129{fill:#d8cbc9;}.cls-130{fill:#977166;}.cls-131{fill:#b4c4c8;}.cls-132{fill:#d8cbcb;}.cls-133{fill:#6c2d0c;}.cls-134{fill:#dfe6e7;}.cls-135{fill:#976b53;}</style></defs><ellipse class="cls-1" cx="407.7" cy="408.03" rx="390.18" ry="391.89"/><path class="cls-2" d="M400,0C179.08,0,0,179.09,0,400S179.08,800,400,800,800,620.91,800,400,620.92,0,400,0Zm0,776.2C192.24,776.2,23.8,607.77,23.8,400S192.24,23.79,400,23.79,776.2,192.23,776.2,400,607.77,776.2,400,776.2Z"/><path class="cls-3" d="M704.34,400c0,154.16-114.06,281.51-262,301.57-.76.1-1.56.19-2.37.34-1.7.28-3.36.52-5.06.76a40.29,40.29,0,0,1-7.44.52c-.05,0-.05,0-.05,0-8.56.76-17.28,1.14-26,1.14-7.34,0-14.59-.24-21.78-.81-16.48,1.81-32.29-4-48.2-6.32a134.23,134.23,0,0,1-31.58-8.51c-10.08-4.14-20-8.66-29.87-13.32-26.37-12.46-51.13-27.48-72-48.22-17-16.88-35.51-32.52-48.25-53-10.74-17.3-22.25-34.09-30-53.44-6.54-16.31-10.28-33.34-16.57-49.65-3.89-10.17-5.78-21.63-6.21-32.62-.94-23.49-2.51-47.26.29-70.47A281,281,0,0,1,120,285.73c21.83-48.45,35.61-69,56.82-90.11.09-.09.14-.19.23-.28,55.44-61.2,135.4-99.67,224.32-99.67C568.7,95.67,704.34,231.9,704.34,400Z"/><path class="cls-4" d="M700.26,436.42c-3.36,31.53-13,62.54-26.79,92.26-20,42.89-48.77,78.46-84.18,108.6-28,23.92-60.65,41-96.49,51.6-16.71,4.89-33.42,9.79-50.51,12.69-.76.1-1.56.19-2.37.34-1.7.28-3.36.52-5.06.76a40.29,40.29,0,0,1-7.44.52c-.05,0-.05,0-.05,0-4.54-.29-4.68-2.9-4.73-10.65-.09-20.4.1-40.85-.14-61.25A32.68,32.68,0,0,1,427,614.22c2.41-4.42-5.07-8.08-4.78-14.36a31.61,31.61,0,0,1,7.15-18.21c4.59-5.76,7-9.7,3-16.46-.95-1.52,1.51-4.13,4.5-3.61l1.89.43.14.47.33,1.38s.19-.81.34-1.38c0-.28.09-.52.09-.52l1.89-.38c11.27,8.7,23.68,15.93,33.52,26.34,2.51,2.62,5.68,3.19,7.86.43,1.8-2.23-2.13-3-2.74-4.8-1.38-3.95-1.8-7.7,4.07-7.8,6.25-.14,12.5,0,18.75,0,1.13-1,1.51-2.09,1.13-3.13s-.76-1.57-1.13-1.57c-3.18-2.86-6.3-3-9.47,0-3.36-.62-8.24,2.09-9.33-3.48-1-5.18,2.32-6.8,6.77-5.89,5.82,1.23,8.33-3.19,11.13-6.47,3-3.57,6.58-3,10.32-3l1.61.47a2.92,2.92,0,0,0,2,.57,2.67,2.67,0,0,0,1.09-.24s0,0,0,0,.24-.29.33-.43.19-.24.24-.33c.33-.43.71-.86,1-1.29s.43-.52.62-.76a18.66,18.66,0,0,1,2.51-2.66c6.62,4.28,13.82,8,19.83,13.07,4.41,3.71,6.39,6,11.79.58,10-10.18,17.71-1.62,25,5.18,7.48,1.85,10.22,6.85,9.46,14.12,11.46.86,13.88-4.33,9.43-14.12-3.27.14-4.83-1.43-4.74-4.71,6-5.13,2-12.65,4.41-18.64a2.72,2.72,0,0,1,.23-.57c.43-.86.9-1.76,1.33-2.62l.09-.09c.43-.57.85-1.09,1.28-1.62a6.68,6.68,0,0,1,.47-.62,11.21,11.21,0,0,1,1.8-1.09,10.53,10.53,0,0,1,3.36-1.19h1.23a2.81,2.81,0,0,0,.67.05h.9a8.57,8.57,0,0,1,3.07,1.43A8.1,8.1,0,0,1,613,537.8a.67.67,0,0,0,.1.29,2.53,2.53,0,0,0,2.89,2.28,12,12,0,0,1,4.07-.62l1-.61.71-.48-.71,0-1.33,0a10.31,10.31,0,0,1-2.6-3.43c-.85-1.23-1.61-2.47-2.46-3.71,0,0-1.33-1.85-1.37-1.85a36.6,36.6,0,0,1-2.8-3.85c-.09-.19-.14-.34-.23-.53l-.57-1.28c0-.14-.14-.29-.19-.43a7,7,0,0,1,.66-4.28,2.27,2.27,0,0,1,.19-.43,1.71,1.71,0,0,1,.38-.38c1.66-1.61,4.07-2.18,5.59-3.9H621a6.38,6.38,0,0,1,2.23,3.24,13.51,13.51,0,0,0,.75,1.47l.57.86a.57.57,0,0,0,.19.24,1.82,1.82,0,0,0,.24.38,2.77,2.77,0,0,0,.38-1.19v-.15a.17.17,0,0,0,0-.14,2.11,2.11,0,0,0-1.09-1.52,3,3,0,0,1,1.52-3.19c2.27.1,5-.57,3.64-3.13-1.7-3.28-5.59-1.48-8.47-1.48-4.55-.09-4.93-3-4.55-6.08.33-2.38,2-3.76,4.83-3.52,3.08.28,6.15,0,9.28,0,1.14-1,1.51-2.09,1.14-3.13s-.76-1.57-1.14-1.57c-7.34.76-12.36-1.95-14.2-9.42a5.06,5.06,0,0,1-2.13-4.66,40.49,40.49,0,0,1,1.13-4.75c.1-.43.24-.81.33-1.24l.57-1.71a21.4,21.4,0,0,1,2.94-6.47c.09-.14.23-.33.33-.47a5.23,5.23,0,0,0,.47-.48,1.87,1.87,0,0,0,.43-2.47,5,5,0,0,0-.85-1.19,5.41,5.41,0,0,1-1.24-1.86,14.65,14.65,0,0,1-.14-10.51,12.58,12.58,0,0,1,1.19-1.94,9.12,9.12,0,0,1,.9-1.15,13.65,13.65,0,0,1,1.18-1.23c.05-.05.09-.15.14-.19a7.64,7.64,0,0,0,1.28-2.05,5.75,5.75,0,0,0,.61-1.95,17.56,17.56,0,0,0-1.23-2.76,13.84,13.84,0,0,0-.94-1.33,1.71,1.71,0,0,0-.38-.38,27.77,27.77,0,0,0-2.89-2.85c-.57-.52-1.14-1-1.7-1.47s-.86-.76-1.28-1.15-.71-.57-1.09-.9a19.77,19.77,0,0,1-2.37-2.47,21,21,0,0,1-2.7-4.23,19.6,19.6,0,0,1-.94-8.71,2.12,2.12,0,0,1,.23-.8,16.88,16.88,0,0,1,3.41-7,11.6,11.6,0,0,1,1.75-1.62,20.92,20.92,0,0,1,2.61-1.76c.38-.14.75-.28,1.13-.38,2.75-.9,5.59-1.57,8.29-2.57.19,0,.33-.14.52-.19a47.89,47.89,0,0,0,4.54-1.85c.38-2.76-1.23-.33-1.27-.29-3,1,1.18-.71-1.9.1-3.55-.57-6.91-1.71-10.41-2.38-.38-.05-.76-.05-1.19-.09h-.14a21.64,21.64,0,0,0-3.6,0,.2.2,0,0,0-.23,0,17.39,17.39,0,0,0-5.5,1.28c-1.61.76-3.26,1.43-4.92,2.14A57.46,57.46,0,0,0,594.4,404a34.46,34.46,0,0,1-6.58,4.33s-.09.05-.14.05a12.65,12.65,0,0,1-3.41.76,7.3,7.3,0,0,1-1,.09h-.43c-.8-.14-1.65-.33-2.41-.43l-1.75-.85c-.14-.05-.24-.14-.38-.19a5.46,5.46,0,0,1-1.18-1.62,4.3,4.3,0,0,1-.48-1.57,2,2,0,0,1-.14-.71s.76-1.76.76-1.76-1.71-.81-1.8-.81a6.09,6.09,0,0,1,.76,3.23v1.62a8.27,8.27,0,0,0,0,1.86,7.25,7.25,0,0,1-1.7,3.66c-.24.24-.47.47-.76.71,0,.1-.14.14-.24.24a18.28,18.28,0,0,1-2.69.33,10.82,10.82,0,0,1-1.8,0c-.48,0-.95-.05-1.38-.09-3.22-1.24-5.11-3.09-3.31-6.71-3.36-7.18,12.21-14.17.14-21.4,2.94-3.66,7.1-1.47,10.65-2.28,1.19-.24,2.13-1.57,3.18-2.42-1.23-.72-2.47-2-3.74-2.05-3.55-.19-5.68-1.19-5.54-5.23.14-4.42,3.17-4.33,6.29-4.33a18,18,0,0,0,2.32,0c9.76-1,9.76-1,10.32-14.12,0,0,.9-1.52.9-1.62a7.47,7.47,0,0,0,.81-.14,3.39,3.39,0,0,0,1-.19s.43.14.81.29a8.18,8.18,0,0,0,.85.28,12.1,12.1,0,0,1,.33-1.52.79.79,0,0,0,.05-.24l-.05.05c-.19.05-.85.24-1.28.38a2.1,2.1,0,0,1-.47.14,8.2,8.2,0,0,1-1.18-.24,6.14,6.14,0,0,1-1.76-1,5,5,0,0,1-1.08-.95,7.6,7.6,0,0,1,.61-5.09c2.94-4.75,10.09-4.23,12.17-9.93.05-.1.05-.19.09-.29a10.45,10.45,0,0,1,.48-1.57,12,12,0,0,1,2.65-4.28,14.82,14.82,0,0,1-.43-2s-.9,1.9-.94,1.95c-1,.81-2.09,1.57-3.08,2.42a25.78,25.78,0,0,0-2.09,1.86,2.4,2.4,0,0,0-.42.38c-1.23,1.33-2.51,2.61-3.84,3.9a14.26,14.26,0,0,1-3.17,2.56,7.19,7.19,0,0,1-1.51,1c-8.43.29-10.47-10-18.23-10.79,0-.05-.1-.05-.14-.1-.57-.28-1.14-.66-1.71-1a21.44,21.44,0,0,1-3-2.52c1-10.55,3.6-13.17,14.16-14.12,1-1,2-2.09,2.93-3.14.52-.52,1-1,1.52-1.57a.82.82,0,0,1,.28-.28,9.27,9.27,0,0,1,1.28-1.19.56.56,0,0,1,.28-.29,11,11,0,0,1,1.33-1.14,3.54,3.54,0,0,1,.8-.61,7.88,7.88,0,0,1,1-.86,2.91,2.91,0,0,1,.43-.33c.71-.53,1.42-1,2.13-1.43s1.42-.76,2.13-1.09a1,1,0,0,1,.33-.19,5.91,5.91,0,0,1,1.33-.43.43.43,0,0,1,.33-.1,7.91,7.91,0,0,1,1.8-.52,6.61,6.61,0,0,1,.95-.24,6.85,6.85,0,0,1,.9-.19,28.55,28.55,0,0,1,4-.33,20.24,20.24,0,0,1,2.46-.1h1.61a1.51,1.51,0,0,1,.47.05,24.67,24.67,0,0,1,7.2,1.24,2.84,2.84,0,0,0,2.23.38,2.21,2.21,0,0,0,.9-.57l.28-.29H617a3.78,3.78,0,0,1-.75.05,3.28,3.28,0,0,1-2.65-.43,16.93,16.93,0,0,1-6.78-3.9,3.49,3.49,0,0,1-.56-.62c-.15-.09-.19-.14-.19-.23a1.72,1.72,0,0,1-.52-.53,5.68,5.68,0,0,1-.48-.52c-1.09-1.52-1.94-3.19-2.93-4.8a13.11,13.11,0,0,0-.95-1.43v-.05a13.68,13.68,0,0,0-1.51-1.71,12.84,12.84,0,0,1-1.71-.52c0-.05,0-.1-.09-.05l-.29-.09a.93.93,0,0,0-.23,0,14.14,14.14,0,0,0-1.95.38c-.94.57-1.84,1-2.79,1.53a15.61,15.61,0,0,1-1.47.76,13,13,0,0,1-1.27.47,23.76,23.76,0,0,1-5,1.29,1.11,1.11,0,0,1-.38,0,4.4,4.4,0,0,1-1.14.1.08.08,0,0,1-.14,0,10.2,10.2,0,0,1-2.08.09c-.9,0-1.75-.14-2.65-.23h-4.74c-2.32-1.24-2.37-3.38-2.22-5.57a3.07,3.07,0,0,1,1.61-2.9c-.29.1-1.57.33-1.57.33s-.37,1.67-.37,1.72a4.34,4.34,0,0,1-2,3l-.23,0-1.52.14.71,1.62a15.83,15.83,0,0,1,.76,1.57,0,0,0,0,0,0,0c-.57,2.85,1.51,6.27-1.56,8.6-7.39,5.61-20.46,1.86-23.91,14.27-.19.57-3.7,1.14-4.08.62-5.39-8-17.61-7.42-21.73-17.12-1.23-2.86,1.28-4.76,1.85-1.67a10.26,10.26,0,0,0,2.23,0,41.66,41.66,0,0,0,3.31-4.7c.05,0,.05-.1.09-.15s.43-.28.62-.42.47-.34.66-.48c.38-.29.76-.52,1.09-.81l.71-.28c.81-.34,1.61-.67,2.37-1.05a12,12,0,0,0,2.27-1.52,6.77,6.77,0,0,0,1.42-1.76,51.24,51.24,0,0,0,2.37-7.75v-.05l.28-.9a15.37,15.37,0,0,1,1.8-3.66c0-.05,0-.05,0-.1a8,8,0,0,1,1.85-1.28,6.35,6.35,0,0,1,1.7-.67,4.67,4.67,0,0,1,.71-.19,2.17,2.17,0,0,1,.62,2.05,3.49,3.49,0,0,1,.61-.53.56.56,0,0,0,.24-.24c.8-.71.47-1.56-.43-1.85a3.17,3.17,0,0,0-1.75.1s0,0-.09,0-1-.33-1.61-.52a6.83,6.83,0,0,0-.71-.24,10.55,10.55,0,0,1-1-1.28,10.32,10.32,0,0,1-1.37-2.71c-.1-.29-.19-.53-.29-.81a13.75,13.75,0,0,1,.85-8.28c-.56-1.42,2.51-1,2.18-2.33a.67.67,0,0,0-.14-.33,2.42,2.42,0,0,0-.33-.47c-.05,0-.1,0-.14.09a6.34,6.34,0,0,0-1,.71,15.4,15.4,0,0,0-2.84,2.38,1.13,1.13,0,0,1-.38.19,33.61,33.61,0,0,1-4.26,2.09l-.33.15c-1.37.57-2.75,1.14-4.07,1.71-.33.14-.62.28-.9.38a6.58,6.58,0,0,1-1,.43c-1.23.52-2.51,1-3.79,1.47a.35.35,0,0,1-.24.05,5.53,5.53,0,0,1-.85.33c-1,.1-2,.19-3,.24h-4.73l-2.7-.14a10.09,10.09,0,0,1-2-.48,1.06,1.06,0,0,1-.38-.09l-.52-.15c-.47-.19-.94-.33-1.42-.57a5.28,5.28,0,0,1-.85-.38,16.57,16.57,0,0,1-1.51-1.09,6,6,0,0,1-.76-.52,6,6,0,0,1-.9-1.29,6.78,6.78,0,0,1-.85-1.9,10.56,10.56,0,0,1-.38-1.81c.66-3.52.09-7.46,2.89-10.41,7.05-.43,4-5.85,4.68-9.42,2.42-1.56,3.51-3.13,0-4.7h-4.68c-1.61-3.76-3.18-2.29-4.74,0h-4.73c-2.28-1.91-4.83-3.43-6.92-5.28-3.78-.71.34,1.33-.42,1.62A2.7,2.7,0,0,1,484,227.2c-.66,5-6.87,8.08-4.78,14.17.71,2.09-.38,4.75-3,3.56-1.19-.57-1.14-3.94-1.61-6a11.58,11.58,0,0,1,0-2.28c-3.6-6.27-3.46-12.55,0-18.83v-9.41c-1.66-1.05-2.18-2.1-1.66-3.14s1.09-1.57,1.66-1.57c1.32-2.24,4.07-3.81,4.12-6.47v-.05a5.32,5.32,0,0,0-.53-2.09c0-.05,0-.05,0-.09a18.8,18.8,0,0,0-1.9-.76,3.71,3.71,0,0,0-.71-.24c0-.05-.14-.05-.23-.05a1.66,1.66,0,0,0-.71-.24c-.24-.09-.48-.14-.71-.23h-.05c-.14,0-2.08-.81-2.23-.81,0,0,0,0,0,0s-.05,0-.1-.05c-.57-.33-1.09-.66-1.61-1-.09,0-.19-.14-.28-.19a5.14,5.14,0,0,1-1.42-1.85,4.26,4.26,0,0,1-.38-1.57,3.44,3.44,0,0,1-.05-.71c-.61-1.34,1.28-1.62,2.13-2.29a.81.81,0,0,0,.24-.19v0h.05c0-.05,0-.05,0-.1.19-.28.15-.71-.33-1.33-.09-.1-.19-.24-.28-.33a34.44,34.44,0,0,1-3.84-2.24,9.43,9.43,0,0,1-1.18-.62c-.85-.42-1.7-.85-2.51-1.28a1.12,1.12,0,0,0-.33-.19,12.64,12.64,0,0,1-1.28-.57l-.8-.43c-.15,0-1.94-1-2.09-1-.85-.38-1.7-.81-2.51-1.23l-1.56-.86-.95-.57a6.08,6.08,0,0,0-.52-.38l-.42-.24s-.29-.24-.62-.57-1-.9-1-.9a5.35,5.35,0,0,1-.61-1.19,4.87,4.87,0,0,1-.43-1.62,4.4,4.4,0,0,1-.1-1.14l-.14-.57h-.05l-.33-1.24s0,.62,0,1.19a6.66,6.66,0,0,0,0,.76,6.77,6.77,0,0,1,0,1,4.69,4.69,0,0,1-.29,1.62,5.87,5.87,0,0,1-.76,1.47c-1.51,1.71-4.07,1.62-5.68,3.24a11.55,11.55,0,0,0-9.42,9.41c-3.17,2.71-6.3,2.85-9.47,0-.61-3.33,2.18-8.18-3.55-9.32-3-.57-6.15-.05-9.28-.09s-6.06-.05-6.1-4.57,2.6-4.61,5.87-4.94c2.41-.24,4.16-1.72,3.64-4.62-1.7-1.47-3.17-3.14-4.73-4.71-3.36-.61-8.71,2.14-9.19-3.51-.28-3.62-3.31-9.85,4.36-10.56,2.27-.19,5-.62,3.79-3.14-1.61-3.33-5.54-1-8.43-1.62-9.33-12.55-8.85-25.1,0-37.66,35.22-1.09,64.15,4.09,107.71,19.4a263,263,0,0,1,73.14,40.14c15.39,11.89,29.88,24.53,42.71,38.8,34.18,37.85,56.81,81.46,70.11,131.2C702.16,365.29,704.05,401.14,700.26,436.42Z"/><path class="cls-5" d="M375.39,142.46a30.2,30.2,0,0,0,0,4.66c-1.89,4.14-4.16,7.47-9.47,4.71h-4.73a13.74,13.74,0,0,1-3,2.18s-1.52-.8-1.52-.8l-.24.57-.42,1,.42,1.71c.57,2.91-1.23,4.43-3.64,4.66-4.93.48-7.81,1.34-2.37,5.85,1.19,1,2.13,3.05,3.32,3.14,5.2.38,9.8,1.95,6.67,7.9-2,3.8-5.92,9.79-11.5,2.18-.71-.95-4.5-.9-6.06,1.62,6,3-2.47,9.65,3,12.13,2.7,1.23,6.25.38,5.92,4.94a6,6,0,0,1-3.08,3,10,10,0,0,1-4.17,1.53l-.71,0-1.23.1h-.28c-3.27.09-4.83-1.48-4.74-4.71a3.75,3.75,0,0,1-2.17-3.57l.19-1.18.19-.91-.34.91-.42,1.09a4.77,4.77,0,0,1-2.13,3.66c-.67.48-1.33,1-2,1.52-.52,0-1.09,0-1.61,0h-.85c-.1-.05-.19-.15-.29-.19a13,13,0,0,1-1.61-1.38,10.88,10.88,0,0,1-1.46-1.86c-.43-.71-.86-1.38-1.33-2a8.42,8.42,0,0,0-.47-.76c-.81-1.19-1.66-2.38-2.61-3.52-.94-.91-1.8-1.81-2.7-2.57-.33-.33-.61-.57-.9-.86a10.45,10.45,0,0,1-2-.61,4.45,4.45,0,0,0-.48.14,12.23,12.23,0,0,0-1.6.57,34.94,34.94,0,0,1-6.4,2,24.82,24.82,0,0,0-4.16,1c0,.1-1.71,1.1-1.71,1.15.15,3.61,3.46-.62,4.17,1.75a2.06,2.06,0,0,1,.24.39,4.7,4.7,0,0,1,.38.57,9.78,9.78,0,0,1,1.18,4.23c-1.23,6.56,1.94,13.69-2.13,19.83a7.62,7.62,0,0,1-.76,1,6.14,6.14,0,0,1-.9.34h-.05a6.85,6.85,0,0,1-7.76-1.86c-1.37.24-20.07.19-20.55,0-4.78-1.95-2.55-6.13-3.07-9.41-2.23-2.81-.34-7.71-4.69-9.42-8.57-4.61-8.57-4.52-9.57,3.66-.47,3.76,3.08,9.7-4.63,10.46l-1.66-.8a3.47,3.47,0,0,1-.24-.77,4.81,4.81,0,0,1-.09-2.71c0,.05-1.61.72-1.61.72s1.23,1.19,1.23,1.23a3.49,3.49,0,0,1,0,.72c0,.52-.05,1.09-.09,1.61s-.1,1-.19,1.43a11.21,11.21,0,0,1-2,3.28,3.62,3.62,0,0,1-4.22,1.81c-.19-.1-.33-.14-.52-.24s-.66-.33-1-.47a11.44,11.44,0,0,1-4.07-3.48.93.93,0,0,1-.19-.23c-.24-.38-.52-.76-.81-1.14a1.86,1.86,0,0,0-.28-.43,2.44,2.44,0,0,0-.43-.53,18.41,18.41,0,0,0-2.84-2.94l-1.09-1.43a16.53,16.53,0,0,0,.48,1.85,10.07,10.07,0,0,1,2.32,2.52,5.46,5.46,0,0,1,.47.67s0,.24.1.52c0,.1,0,.24,0,.38.05.57.14,1.24.14,1.24s-.28,1.14-.37,1.66v.05c-.05.19-.1.29-.1.33s-.66,1.81-.66,1.81,1.89-.43,2-.47a9.94,9.94,0,0,1,5,1.23,9.46,9.46,0,0,1,1.27.76l.43.29c.05.09.14.19.14.28a2.28,2.28,0,0,1,.38.67,6.93,6.93,0,0,1,.52,4.37c-1.42,3.9-4,6.9-6.53,9.94l-.71,1c-.57.86-1.14,1.71-1.66,2.62-.19.28-.33.61-.52.9s-.14.33-.24.48-.14.23-.19.38a15.2,15.2,0,0,0-.66,1.47c-.14.43-.28.81-.42,1.24a.63.63,0,0,1-.1.28,27.82,27.82,0,0,1-1.37,3.24,9.12,9.12,0,0,1-.48.85c-.23.43-.47.86-.75,1.28,0,.05-.1.15-.19.19a16.92,16.92,0,0,1-3.55,3.14,21.67,21.67,0,0,0-3,2.81c-.23.24-.42.43-.61.66-.48.43-1,.86-1.47,1.29,0,.05-.14.09-.19.14s-.14.19-.24.24c-.71.43-1.46.76-2.22,1.14-8.33.81-15-7.13-23.63-4.71-5.39,3.43-.56,10.27-4.73,14.13-2.32,0-5.54-1-6.86.19-4.22,3.66-.71,4.75,2.46,4.42,7.34-.72,1.61,10.46,9.8,9.89,4.12-.29,7.9,4,8.8,9-1.27,2.19-3.36,2.43-5.54,2.33a6.28,6.28,0,0,1-3.59-.8s-.15.09-.34.19a9.48,9.48,0,0,0-1.18.57,11.05,11.05,0,0,1,1.18,0,17.48,17.48,0,0,1,2.61.38,4.82,4.82,0,0,1,3.55,2l0,.05a17.1,17.1,0,0,1,.66,1.62,13.9,13.9,0,0,1,.57,2.8,1.2,1.2,0,0,1,0,.29c0,.28.1.71.15,1.09a8.91,8.91,0,0,0,.14,1c0,.14,0,.33-.1.47a2,2,0,0,1-.09.53c-.1.47-.14.9-.24,1.38,0,.09,0,.14,0,.23-.34,1.53-.67,3.05-.9,4.57V312c0,.19,0,.33,0,.52v1.15c0,1,.1,1.9.19,2.85v.28a22.3,22.3,0,0,1-.09,5,17.53,17.53,0,0,0,.66,4.9,14.86,14.86,0,0,1,.52,4.09c0,.33-.05.62-.05.95s-.19.72-.28,1.05l-.28,1-.15.43-1,1.28c-.19.29-.43.52-.62.81a3.57,3.57,0,0,1-.61.19,5.15,5.15,0,0,1-1.47.33,7.4,7.4,0,0,1-2.89,0,10,10,0,0,1-1.13-.47c-.05,0-.1-.05-.15-.05a9.11,9.11,0,0,1-1.42-.81,9.36,9.36,0,0,1-2.41-1.9,4.84,4.84,0,0,1-.85-.91,7.89,7.89,0,0,0-2.89-3.23c-.43.52-.8.95-1,1.24-.05,0-.05,0-.05,0a0,0,0,0,0,0,.05,2.78,2.78,0,0,1-.24.29c.1,0,.24-.05.34-.05a2.55,2.55,0,0,1,3,2.19,18,18,0,0,1,1.7,3,12.73,12.73,0,0,1,1,2.71.59.59,0,0,1,0,.29,2.55,2.55,0,0,1,.19.66v.29a8.39,8.39,0,0,1-1.94,6.46,4.68,4.68,0,0,0-1.8,3.95,11.22,11.22,0,0,0,2.51,3.71c3.12,0,6.3-.24,9.42,0,2.94.33,7.62-1.81,8.38,1.61s-3.79,5.66-6.67,7.71c-1.76,1.19-7-1.71-4.74,3.71.52,1.23,4.22.85,6.06,1.9,1,.57,1.18,2.52,1.75,3.85,3.27-.09,4.83,1.47,4.69,4.71,3.55,2,7,4,7,8.8a2.29,2.29,0,0,1-.1.61,4.57,4.57,0,0,1-.23,1.19,8.37,8.37,0,0,1-1.95,3.52c-5.39,0-10.84.05-16.23,0-8.86-.09-8.81-.09-8.29-10.84.24-5.28-5.44-3.66-5.87-3.09-4.45,6.37-10.94,4.23-16.85,4.52a19.73,19.73,0,0,0-3.37-2.24L162.91,379l-.09.33-.43,1.48.43,1.81v4.7c-3.93,5.9,1,7.33,4.69,9.42,3.26-.1,4.87,1.47,4.73,4.71,1.56,4.66,3.17.66,4.73,0,8.34,4.61,8.15,9.7.05,13.88-1.94,1-4.07,1.71-5.44,3.38s-6.16,3.37-1.42,6.13c1.7,1,4.49.19,6.81.19,1.19,1.05,1.61,2.09,1.19,3.14s-.81,1.57-1.19,1.57c-6.72,8.13-8.42,16.6-4.73,23.54-.19,1-.33,2-.47,3-.24,3.76.23,7.56.09,11.32a20.09,20.09,0,0,1-1.09,6.42,8.72,8.72,0,0,1-1.84,2.81c-.15.19-.34.38-.48.57a6.51,6.51,0,0,0-1.51,2.75,25.52,25.52,0,0,0,1.61,4.24s.38,1.23.61,1.85a3.87,3.87,0,0,1,.14.38,5,5,0,0,1,0,.86,10.58,10.58,0,0,1-.52,3.47,1,1,0,0,1-.09.33c0,.05-.05.1-.1.14a.44.44,0,0,1-.14.29,5.37,5.37,0,0,1-.76,1.33,8.67,8.67,0,0,1-3.64,3.42,3.73,3.73,0,0,1-1.28,0,2.59,2.59,0,0,1-.62-.29,1,1,0,0,0-.23-.19h-.05c.05.14.09.33.14.52s.05.15.05.24c0,.29.33.43.71.48a5.39,5.39,0,0,0,3.5-.86,26.81,26.81,0,0,1,3.08-1.19c.52-.14,1-.28,1.56-.38a1,1,0,0,1,.33,0,3.14,3.14,0,0,1,1-.15,7.08,7.08,0,0,1,1.37-.14,6.74,6.74,0,0,1,3.08,1.24c.1,0,.19.09.28.19a5.73,5.73,0,0,1,1.19,1c1.75,3.57,1,6.76-1.56,9.66-1.24,1.14-2.61,2.23-3.93,3.28-.1.09-.19.14-.29.23l-.14.15-.57.43a10,10,0,0,0-.76.66,9.6,9.6,0,0,0-1.61,3.23,6.43,6.43,0,0,0-.23,1v.19c.14,1.18.19,2.37.33,3.56a9.1,9.1,0,0,0,.09,1,2.2,2.2,0,0,0,0,.57,17,17,0,0,1-.28,3.09,11.29,11.29,0,0,1-.19,1.14c0,.1,0,.14,0,.24s-.05.33-.09.47a10.71,10.71,0,0,1-.34,1.38,1.37,1.37,0,0,1-.09.48,5.51,5.51,0,0,1-.19,1v0a.76.76,0,0,1-.09.33l-.57,3.14a2.36,2.36,0,0,0-.05,1.14s0,.09,0,.09a2.52,2.52,0,0,0,1.75,2h.05a9.06,9.06,0,0,1,1.23.19,8.33,8.33,0,0,1,1.61.29,13.83,13.83,0,0,1,1.47.38c2.36.57,4.68,1.09,7,1.47.33,0,.62,0,1,.09h.19a8.78,8.78,0,0,0,1.13.1l1.24.14c1,.1,1.94.19,2.93.38a28.72,28.72,0,0,1,3.93.76h.05a15,15,0,0,1,4.64,2.71c0,.05,0,.05,0,.1a1.62,1.62,0,0,1,.34.47,1,1,0,0,1,.14.2s0,0,0,.09a7.11,7.11,0,0,1,.89,4.09,5.1,5.1,0,0,1-.94,1.09,1.3,1.3,0,0,1-.48.43,8.33,8.33,0,0,1-5.11,1.33c-1.51,0-3.08-.09-4.35.57a3.13,3.13,0,0,0-1,.67,3.45,3.45,0,0,0-.71.86c.05,0,.14.14.29.38s.23.38.37.61c.24.43.48.81.48.81s-.05-.47-.14-1c0-.19-.05-.33-.05-.47,0-.38-.1-.72-.1-.72a.24.24,0,0,1,.15-.09,6.7,6.7,0,0,1,.71-.62,5.32,5.32,0,0,1,3.31-.81,22.17,22.17,0,0,0,6.15-.62,4.79,4.79,0,0,0,.9-.24,1.33,1.33,0,0,0,.19-.14,25.23,25.23,0,0,0,2.61-2.47,9,9,0,0,1,1-.9,7.46,7.46,0,0,1,1.8-1,12.21,12.21,0,0,1,4.26-.86c1.23-.09,2.51-.14,3.69-.33a4.67,4.67,0,0,0,.66-.81,3.43,3.43,0,0,0,.52-.67,6.31,6.31,0,0,0,.72-1.42,3.56,3.56,0,0,1,2.5-2.43c4.08-.43,10.47,2,9.28-5.75-1-7.18,2.75-12.65,4.88-18.78,1.47-4.28,3.65-5,4.59-.19,1.75,9.08,5.54,7.75,10.42,2.66,2.6-2.76,5.77-.9,8.62-1.48l2,1.43c0,.43,0,.81,0,1.24s0,.81,0,1.19a7.24,7.24,0,0,1-.52.8c-.71,1.05-1.71,2.1-1.14,3.1a1.16,1.16,0,0,0,.19.28,2.19,2.19,0,0,1,1.42-.95,6.22,6.22,0,0,1,4,2.33s0,.05.09.09c.05.2.09.43.14.62a8.24,8.24,0,0,1-.23,4c-.05.09-.05.19-.1.28l-.28.34a.79.79,0,0,1-.15.19,4.23,4.23,0,0,1-.61.66c-1.14,1.38-2.37,2.66-3.5,3.9a4,4,0,0,1-1.23.9,3.8,3.8,0,0,1-1,.34c.1,0,0,1.14.24,1.14a5.11,5.11,0,0,1,.81-.91,5.76,5.76,0,0,1,2-1.23,16.2,16.2,0,0,1,2.7-2.19,6.4,6.4,0,0,1,.71-.52,3.4,3.4,0,0,1,.71,0,6,6,0,0,1,3.31.67h.05c.1,0,.57.09,1,.14.1.05.24.05.33.09l.52.1.24-.57v0c.24-.52.47-1.19.52-1.24a6.83,6.83,0,0,1,1.56-2c.1-.1.15-.15.24-.15l.05,0a.26.26,0,0,1,.19-.15,4.34,4.34,0,0,1,1.28-.76,14.69,14.69,0,0,1,3.41-.71.54.54,0,0,1,.37-.05,2.49,2.49,0,0,1,.81-.09.76.76,0,0,1,.33,0l2.79-.14c2.61-.1,5.16-.24,7.77-.1a18.29,18.29,0,0,1,6.67,2.24,0,0,0,0,1,.05,0s.1,0,.14,0c.33.15.62.34.95.53a11.63,11.63,0,0,1,1.89,1.56,10.92,10.92,0,0,1,1.85,2.52v14.13l-1,1.66-.76,1.1-.29.47h.52c.57,0,1.38,0,1.42,0l.1,0,1.51,1.09c.1.1.15.19.24.29a5.08,5.08,0,0,1,.9,1.56,6.37,6.37,0,0,1,.38,1.62l.05,1.52v.19a8.83,8.83,0,0,1,0,1.1v.57c.09,0,1,1.33,1,1.33l.61,1.52c2.23,6.66-5.77,10.27-5.11,16.64,0,.53-3.74,1.95-5.82,2.1-5.73.42-.24-9.75-6.73-7.85-4.11,1.19-5.3,7.61-10.69,7.94-1.14,1.05-1.52,2.09-1.14,3.14s.76,1.57,1.14,1.57c6.48,2.57,10.84,7.56,14,13.41.9,1.71.57,4.09,2.79,5.23a53.89,53.89,0,0,1,2.13-6c3.41-6.52,9.47-1.9,14.16-3.24,1.56,1.72,3.12,1.72,4.73,0,3.41-8.41,9-5,14-2,.71.47-6.87,2.81-2.51,6.09,3.74,2.85,7.53-.48,9.28-3.76,4.26-7.89,8.24-.38,12.31-.29,3.17,4.38,6.3,4.85,9.47,0,7.05-.38,4-5.84,4.68-9.41-1.7-1-2.32-2.09-1.7-3.14s1.14-1.57,1.7-1.57c0-6.28.19-12.55,0-18.83-.15-3,1.32-4.37,3.78-4.66,3.51-.38,6.16.81,5.73,5-.85,8.47,5.92,14.79,5.45,24-.38,7.94,5.44,16.21,8.8,24.25,1.09,2.66,4.45,5,4.45,7.51,0,26.87,8.1,53.26,5,80.36-.47,4.47-2.89,4.33-6.06,4.9-1.37.24-2.7.43-4,.57-16.48,1.81-32.29-4-48.2-6.32a134.23,134.23,0,0,1-31.58-8.51c-10.08-4.14-20-8.66-29.87-13.32-26.37-12.46-51.13-27.48-72-48.22-17-16.88-35.51-32.52-48.25-53-10.74-17.3-22.25-34.09-30-53.44-6.54-16.31-10.28-33.34-16.57-49.65-3.89-10.17-5.78-21.63-6.21-32.62-.94-23.49-2.51-47.26.29-70.47A281,281,0,0,1,120,285.73c21.83-48.45,35.61-69,56.82-90.11.09-.09.14-.19.23-.28,7.39-7.28,15.72-14.65,25.57-23.35,35.55-31.24,77.07-53.88,124.8-62.53,9.89-9.8,23.38-1.67,34.75-7.37s24.52-1,36.83-2V137.7c-5.73,2.91-11.51,9.23-17.09-.42-.95-1.57-4-3.76-4.78-3.28C373.69,135.85,375.87,139.56,375.39,142.46Z"/><path class="cls-6" d="M621,448.55v14.13a12.41,12.41,0,0,1-5.49,6.31c-3.94.64-7.67-.45-11.44-1.36a43.46,43.46,0,0,1-8.47-2.76c-4.57-2.23-9.06-4.59-12.4-8.58-1.72-2.49-2.49-5.55-4.71-7.74-.54-2.9,1.29-4.66,3.6-4.59,7.93.22,5.44-5.45,5.84-9.54.32-.87.64-1.73.95-2.6a11.86,11.86,0,0,1,4.47-3.12c3.95-.59,7.11,1.16,10.13,3.36a40.07,40.07,0,0,1,4,3.56c.65.6,1.26,1.26,1.92,1.86,1.34,1.16,2.62,2.39,3.94,3.58.72.54,1.38,1.13,2.1,1.67A17.59,17.59,0,0,1,621,448.55Z"/><path class="cls-7" d="M484,373.19c-7.07-.4-4-5.85-4.72-9.42a3.09,3.09,0,0,1,4.72,0h9.45q4.72-4.06,9.44,0c6.65,4.11,10.8,10.38,9.12,17.78-1.55,6.86-4.4,14-10.47,18.66a6.93,6.93,0,0,1-6.11.6c-3.66-2,0-3.41,1.09-4.7,6.22-7.34-7.38-11.27-3.07-18.21a11,11,0,0,1,2-4c-1.45-1-1.6,1-2.61,1.07l-2.34.42-2.36,0A7.75,7.75,0,0,1,484,373.19Z"/><path class="cls-8" d="M569.05,326.09c7.93-3.88,11.78-2.66,14.18,4.41,1,3-2.52,7.14,3,9.22,2.69,1,4.87-1.84,1.72-1.87s2.56-4.17,0-2.34c1.69-1.46,3.17-3.12,4.73-4.71,5.37-2.86,7.13,1.48,9.45,4.71,4.61-.36,5.38,3,4.57,6-1.61,5.93-3.82,1.45-5.76-.1-3.28,4.38-11.69.73-13,8.24,1.66,1.05,2.21,2.09,1.66,3.14s-1.1,1.57-1.66,1.57h-4.72a10.18,10.18,0,0,0-4.11-2.55l-2-1.41a42.72,42.72,0,0,0-3.94-2.88,12.75,12.75,0,0,1-4.11-2.58q-4.9.18-4.73-4.71a7.12,7.12,0,0,0,2.35-4.42c.06-1.73.12-3.46.16-5.19A6.72,6.72,0,0,1,569.05,326.09Z"/><path class="cls-9" d="M436.78,509.77c4.69-11.32,18.36-12.36,25-22,3.74-5.39,7.89.85,11,3.84,3.86,3.73,2.15,7.56-1.55,9.5-9.63,5-17.91,13.21-29.75,13.38A5.5,5.5,0,0,1,436.78,509.77Z"/><path class="cls-10" d="M285.62,528.61c-1.76,1-3.6,1.84-5.27,2.94-4.27,2.8-7.75,3.53-8.91-2.94,0,0,.39-2,.38-2.05a12,12,0,0,1,2.31-3.45s1.45-1.48,1.42-1.51a23.85,23.85,0,0,1,3-2.82s1.73-1.14,1.71-1.16a3.42,3.42,0,0,0,3.29-2s-1.8,1-1.83,1a3.5,3.5,0,0,1-2.75-3,6.17,6.17,0,0,1,1.88-3.79q11.6,2.14,9.45-9.41a12.8,12.8,0,0,1,7.94-4.16,22.9,22.9,0,0,1,6.12.5,12.13,12.13,0,0,1,4.84,3.66c-.52,7-11,8.23-9.45,16.38-8.35,4,.36,7.92,0,11.87-2.47,2.33-5.57,2.26-8.65,2.24A8,8,0,0,1,285.62,528.61Z"/><path class="cls-11" d="M304.51,217.77q-9.11-11.78,0-23.55c3.48-4,7.9-4.24,12.65-3.25,4.44,1.58,7.64,4.86,11,8,1.2,1,1.6,2.09,1.2,3.14s-.8,1.57-1.2,1.57v4.71a5.16,5.16,0,0,1-4.56,1.39c-1.57.37-3.08-4.69-4.74,0-1.59.73-3.14,1.46-4.68,2.25-4.07,5.92,1.91,7.49,4.53,10.51-2.21,9.07-9.52,2.91-14.17,4.71a7.7,7.7,0,0,1-2.6-4.75A6.65,6.65,0,0,1,304.51,217.77Z"/><path class="cls-12" d="M602.12,542.74c2,3.81-8.28,5.33-1.61,11.08,2.12,1.83-3.4,6.7-7.84,7.76-.53-13.6-.54-13.37-12.92-14.26-3.82-.28-9.9,3.23-10.7-4.58,0,0,1-1.73,1-1.73a4.49,4.49,0,0,1,3.65-1s.47-1.84.47-1.84-1.89,0-1.92-.05-1-1.73-1-1.76a5.41,5.41,0,0,1,.32-4.14,12.5,12.5,0,0,1,2.24-3.64h4.73a13.93,13.93,0,0,0,5.21,3.09c.94.42,1.87.85,2.81,1.26C592.19,535.48,597.83,538,602.12,542.74Z"/><path class="cls-13" d="M422.61,283.71c-.29,5.21-5.19,6.9-8,10.17-5.59,6.59-5.17,2.13-6.56-2.95-1.26-4.59-8.22-6.19-9.1-11.93,2.17-3.52,6.86-2,9.45-4.71a35.32,35.32,0,0,0,3.79-1.46c2.71-1.43-1.73-8,4.36-6.46,1,.26.89,5.16,1.29,7.92C421.48,276.42,425.39,278.4,422.61,283.71Z"/><path class="cls-14" d="M290.34,283.71c5.52,1.62,9.52,4.68,9.41,11-.13,6.85-.53,13.69-.92,20.53,0,.46-1,1.19-1.59,1.23-3.14.21-1.19.66-1.32-1.61-.62-10.58-7.66-10.26-15-10v-7c3.06-2.57,1.46-6.65,3.15-9.67a13.39,13.39,0,0,1,3.69-3.81Z"/><path class="cls-15" d="M384.82,344.93v14.13c-1.58,2.14-3.15,2.14-4.73,0a46.64,46.64,0,0,0-4.72-4.71c-4.15-7.56-8.52-14.83-18.9-14.13a4.08,4.08,0,0,1-1.58-3.25c.05-1.27.21-1.9.48-1.91,2.75-3.31,6.45-4.29,10.55-4.26,3.58,4.86,12.7,1.43,14.17,9.42C381.8,341.67,383,343.57,384.82,344.93Z"/><path class="cls-16" d="M365.92,330.8c-.4,7.05-5.86,4-9.45,4.71-6.93,5-10.93,1.31-14.17-4.71.42-4.07-2.08-9.51,5.81-9.53S363.38,321.28,365.92,330.8Z"/><path class="cls-17" d="M200.59,330.8v-4.71c-1.18-1-1.57-2.09-1.18-3.14s.78-1.57,1.18-1.57v-4.71c.21-.9.42-1.81.62-2.73a10.92,10.92,0,0,1,4-3.76A4.42,4.42,0,0,1,210,312c2,8.08,11.09,10.51,14.07,17.71.47,1.15-.2,3-.78,4.29-.9,2-1.79,1.53-3.37-.17a69.3,69.3,0,0,0-8.31-6.92,4.36,4.36,0,0,0-1.54,1.61,6.39,6.39,0,0,0-.07,2.32,7.47,7.47,0,0,1-4.72,2.68A7.35,7.35,0,0,1,200.59,330.8Z"/><path class="cls-18" d="M195.86,542.74h-4.72a39.28,39.28,0,0,1-3.52-3.66,24.54,24.54,0,0,1-3.44-7.07,13.22,13.22,0,0,1,0-5.46,11.45,11.45,0,0,1,3.36-4.46,14.62,14.62,0,0,1,5.46-1.7,9.7,9.7,0,0,1,7.59,3.51q11.6-2.13,9.44,9.42c-.63.51-1.27,1-1.88,1.54a20.27,20.27,0,0,0-5.75,4.43,14.71,14.71,0,0,1-4,3C197.54,542.48,196.7,542.61,195.86,542.74Z"/><path class="cls-19" d="M564.32,406.16q-.18,4.89,4.73,4.71c1.6,1.05,2.14,2.09,1.6,3.14s-1.06,1.57-1.6,1.57c-8.6,0-17.22.28-25.79-.19-2.22-.12-3-3.3-2.46-5.65.32-1.31,1.54-3.39,2.42-3.42C550.25,406,557.29,406.16,564.32,406.16Z"/><path class="cls-20" d="M597.39,462.68h9.45c2.39,3.08,4.13,6.55,6.17,9.86a9.57,9.57,0,0,1-.63,5.78c-2.75,3.2-5.75,5.63-10.26,3.2q2.14-11.56-9.45-9.42c-1.68,1.84-3.52,2.12-5.57.61l-1.23-3.11c.28-1.08.57-2.16.84-3.24a13,13,0,0,1,4.7-4.61A5.05,5.05,0,0,1,597.39,462.68Z"/><path class="cls-4" d="M502.91,279v4.71a35.6,35.6,0,0,0-4.72,4.71c-7.07-.41-4-5.85-4.72-9.42-2.86-3.14-2.67-6.28,0-9.42,1.66-2,1.59-4.45,1.5-6.88a37.39,37.39,0,0,1,1-4.91,6.91,6.91,0,0,1,2.75-4.15,3.47,3.47,0,0,1,4.22,1.81,11.84,11.84,0,0,1,3.25,5.3,28.62,28.62,0,0,1-.72,6.26C504.77,271,506.27,275.53,502.91,279Z"/><path class="cls-21" d="M210,425c-8,2.35-13.92-4.22-21.25-5-1-.1-2.27-3.76-2.19-5.72.09-2.33,2-3.62,4.77-3.48,4.64.25,9.3.07,13.95.07a4.46,4.46,0,0,1,1.55,3.9A2.81,2.81,0,0,0,209.1,418a4.36,4.36,0,0,1,3,3.29A2.82,2.82,0,0,1,210,425Z"/><path class="cls-22" d="M257.27,415.58c-3.93-6-5.15-13.52-11.13-18.3-1.25-1-4.55-2.49-1.1-4.69a5.58,5.58,0,0,1,4.31-.48c11.55,4.17,12.37,5.81,12.65,23.47l-1.39,1.35h-1.94Z"/><path class="cls-23" d="M389.54,231.9c6.81,1.29,8.93,8.21,14,11.59-5.23,4.7-11.61,2.17-17.4,2.3-3.74.09-9.94,3.38-10.76-4.47l.79-2.21a10.44,10.44,0,0,0,3.93-2.5h4.73C387.85,236.49,387.42,232.93,389.54,231.9Z"/><path class="cls-24" d="M172.24,505.07c7.07-.41,4-5.85,4.73-9.42l2.42-1.35a14.91,14.91,0,0,1,5.46.81,14.07,14.07,0,0,1,6.29,5.25l4.72,9.41c-.51.62-1,1.23-1.52,1.86a15.32,15.32,0,0,1-4.55,1.6,36.12,36.12,0,0,1-4.88.44,41.38,41.38,0,0,1-5,0,22.78,22.78,0,0,1-5-.88,9.56,9.56,0,0,1-4-3.06A5,5,0,0,1,172.24,505.07Z"/><path class="cls-25" d="M280.89,509.77v4.71c1.35,1,1.8,2.1,1.35,3.14s-.9,1.57-1.35,1.57q-2.43,2.29-4.72,4.71a8.67,8.67,0,0,1-4.87,2.19,15.88,15.88,0,0,1-5.41-1,13.36,13.36,0,0,1-5.74-5.9,4.38,4.38,0,0,1,1.85-4.73v-4.71a3.42,3.42,0,0,1,4.72,0c1.37,1.78,3.28,3,4.72,4.71Z"/><path class="cls-4" d="M526.53,279q-4.9.18-4.72-4.71c-3-3-2.08-6.84-2.26-10.44a8.18,8.18,0,0,1,2-4.94,8.37,8.37,0,0,1,5.23-.71c2.56.67,5.07,1.53,7.6,2.33a13.53,13.53,0,0,1,6.38,4.34c1.55,1,2.06,2.09,1.55,3.14s-1,1.57-1.55,1.57c-1.14,1.19-2.29,2.35-3.48,3.49a29.72,29.72,0,0,1-3.88,3.09A13.48,13.48,0,0,1,526.53,279Z"/><path class="cls-26" d="M233.65,236.61l9.45-14.13c1.58-2,3.15-2,4.73,0,3.26-.12,4.84,1.45,4.72,4.71a23,23,0,0,1-1.42,7.5c-.37.78-.78,1.54-1.16,2.33s-1.07,1.38-1.6,2.09a16.37,16.37,0,0,1-4.34,3,10.94,10.94,0,0,1-5.3.27,12.13,12.13,0,0,1-4.24-3.24C234.2,238.32,233.93,237.46,233.65,236.61Z"/><path class="cls-27" d="M597.39,566.29c7.84-.1,2.61,10.09,8.89,11.22-4.2,3-9.92,4.61-10.11,11.2-4.85-.69-7.19-3.84-8.23-8.29C595.4,578.58,598.15,573.6,597.39,566.29Z"/><path class="cls-28" d="M427.33,246c-7.06-.4-4-5.85-4.72-9.42-1.58-1.64-3.15-1.64-4.73,0-4.52.35-5-2.78-4.62-5.93.28-2.38,1.93-3.79,4.78-3.55,3.08.26,6.19.06,9.29.06l1.93,1.29a8.12,8.12,0,0,1,1.5,4.32,14,14,0,0,1-.32,4.52,3.92,3.92,0,0,0,1.62,4V246C430.48,248,428.91,248,427.33,246Z"/><path class="cls-29" d="M455.68,184.8c.29,4.71-6.72,6.47-4.94,11.89a11.09,11.09,0,0,1-3.14,1.16c-.37.06-1.3-1-1.31-1.63-.1-5.38-.06-10.75-.06-16.13,1.6-2,2.14-4.73,4.44-6.23a15.87,15.87,0,0,1,5.13-.66,9,9,0,0,1,4.6,2.18l1.87,2.72c-.35,1-.7,2.09-1,3.13A28.22,28.22,0,0,1,455.68,184.8Z"/><path class="cls-4" d="M583.22,528.61h4.72c1.74-1.88,2.52-4.45,4.53-6.13a14.81,14.81,0,0,1,5.07-.82,16.14,16.14,0,0,1,5.11.84,12.15,12.15,0,0,1,5.58,5.37,9,9,0,0,1-.18,5.15c-1.53,2.18-4,3.31-5.93,5a4.38,4.38,0,0,1-4.61,1.5c-2.46-.91-5-1.64-7.44-2.54s-4.88-1.87-6.85-3.67a3,3,0,0,1-1.06-3.14C582.52,529.14,582.87,528.61,583.22,528.61Z"/><path class="cls-4" d="M540.71,382.61c3.58.71,9-2.34,9.44,4.71,1.51,12.46-11.48,3.24-14.17,9.42a3.44,3.44,0,0,1-4.72,0c.71-3.57-2.35-9,4.72-9.42C537.54,385.73,539.29,384.34,540.71,382.61Z"/><path class="cls-30" d="M436.78,509.77q4.91-.16,4.72,4.71c-1.91,1.23-3,3.33-4.72,4.71l-4.72,9.42c-8.55.34-7.78-4-4.73-9.42A11.58,11.58,0,0,1,436.78,509.77Z"/><path class="cls-31" d="M186.41,344.93q4.91.18,4.73-4.71l1.57-1.94a9.08,9.08,0,0,1,4.89-.56,30.33,30.33,0,0,0,5-.15,6.47,6.47,0,0,1,4,2.76,5.16,5.16,0,0,1-1.37,4.6,9.73,9.73,0,0,1-4.79,2.29,7.84,7.84,0,0,0-4.66,2.42q-4.91-.18-4.72,4.71c-3.58-.71-9,2.34-9.45-4.71A35,35,0,0,0,186.41,344.93Z"/><path class="cls-27" d="M479.3,189.51a68.21,68.21,0,0,1,6.86.05c2.13.22,5.09.17,6.12,1.47,1.77,2.25-1.47,3.35-2.74,4.63-4.13,4.15-7.53,9.92-15,8v-4.71s.07-2.2.05-2.2a9.94,9.94,0,0,1,1.63-4.06A25.28,25.28,0,0,1,479.3,189.51Z"/><path class="cls-32" d="M422.61,283.71l-4.73-9.42c4,.24,7.64-8,12.13.09C433.75,281.06,433.22,282.14,422.61,283.71Z"/><path class="cls-33" d="M502.91,255.45h-4.72c-1.57,2.26-3.15,2.26-4.72,0a28.45,28.45,0,0,1-4.62-.06,22.7,22.7,0,0,1-4-1.47c.55-1.06,1.51-3.08,1.57-3,9.93,4.32,9.94-8.29,16.49-9.55Z"/><path class="cls-34" d="M351.75,594.55c.56,2.83-1.13,5.88,1.36,8.63,1,1.08,5.32,1.89,1.7,4.66a4.9,4.9,0,0,1-4.15.73c-5.89-2.72-9.59-7-8.36-14Z"/><path class="cls-35" d="M318.68,222.48c-6.29.85-10.06-.27-9.66-8.24s5.51-5.52,9.66-5.89c1.37,1.05,1.82,2.09,1.37,3.14s-.91,1.57-1.37,1.57q-8.78,2.35,0,4.71T318.68,222.48Z"/><path class="cls-36" d="M195.86,486.23q-4.91-.18-4.72,4.71a7,7,0,0,1-5.65,1.37c-4-1.25-7.8-2.75-9.86-6.79-.46-4.74,1.84-7.95,5.76-10.26l3.13-.49,3.06.82a28.85,28.85,0,0,0,5.16,3.59C195.58,480.73,198.31,482.34,195.86,486.23Z"/><path class="cls-32" d="M587.94,472.1h4.73c.18,4.69-4.56,5.77-6.55,8.88-4.57-3.33-10.2-6.5-11.07-12.11-.39-2.57,5.3-.89,8.17-1.48l2.23.75A26.32,26.32,0,0,0,587.94,472.1Z"/><path class="cls-37" d="M342.3,330.8c5,.68,8.16,7,14.17,4.71v4.71L347,344.93a9,9,0,0,0-6.65-2.55A6.38,6.38,0,0,1,336.2,340a5.08,5.08,0,0,1,1.38-4.51Q342.49,335.69,342.3,330.8Z"/><path class="cls-38" d="M474.57,439.13l4.73,9.42a35.09,35.09,0,0,0-4.73,4.71c-2.9.53-4.67-1.29-4.6-3.6.22-7.9-5.47-5.42-9.57-5.82a4.44,4.44,0,0,1-1.49-3.28c0-1.26.15-1.88.4-1.89a11.42,11.42,0,0,1,4.92-2.91,16.75,16.75,0,0,1,5.78,0c.88.38,1.77.78,2.65,1.18C473.3,437.67,473.93,438.4,474.57,439.13Z"/><path class="cls-39" d="M243.1,429.71c-.69,3.35,2.24,8.24-3.69,9.37-4.72.9-7-3.12-9.13-5.95s1.17-2.76,3-3.49c3.35-1.33,6.55-3.07,9.81-4.64,1.44,1.05,1.92,2.09,1.44,3.14S243.58,429.71,243.1,429.71Z"/><path class="cls-40" d="M290.34,415.58c-.27,4,2.59,3.82,5.38,4.9,5.78,2.24,5.51,3.85-.66,9.23-1.57-1.66-3.15-1.66-4.72,0-4.82,1.67-5.84-.46-4.72-4.71v-9.42C287.19,413.44,288.77,413.44,290.34,415.58Z"/><path class="cls-41" d="M427.33,519.19c.71,3.57-2.34,9,4.73,9.42.56,3.71-3,4.71-4.64,6.95-1.41,1.92-4.86,2.2-4.36.32C424.53,530.34,417.21,522.35,427.33,519.19Z"/><path class="cls-42" d="M257.27,241.32a11.55,11.55,0,0,1,9.45,9.42c1.31,1,1.74,2.09,1.31,3.14s-.87,1.57-1.31,1.57q-11.6,2.13-9.45-9.42l-1.81-2.36Z"/><path class="cls-43" d="M351.75,401.45q-11.6,2.15-9.45-9.42c-1.73-4.87.16-6.12,4.73-4.71q-.18,4.89,4.72,4.71l1.86,1.28a17.24,17.24,0,0,1,.46,4.47A4.11,4.11,0,0,1,351.75,401.45Z"/><path class="cls-44" d="M200.59,523.9h-9.45c-2.73-2.21-3-5.07-2.17-8.23,1.5-2.89,4.73-3.77,6.89-5.9C205,512,198.79,519.27,200.59,523.9Z"/><path class="cls-45" d="M554.88,354.35c-9.11-2.21-2.93-9.49-4.73-14.13a6.62,6.62,0,0,1-2.61-4.67c.22-.91.45-1.81.67-2.72.65-.68,1.3-1.35,1.94-2,4.1-.29,4.75,2.33,4.73,5.54,0,4.43,0,8.87,0,13.3,1.35,1.05,1.79,2.1,1.35,3.14S555.33,354.35,554.88,354.35Z"/><path class="cls-46" d="M167.52,396.74c-3.15,1.57-6.19,3.44-9.49,4.6-2.09.74-4.75-2.39-3.77-2.68,6-1.76.53-11.69,8.54-11.34Z"/><path class="cls-47" d="M210,425v-4.71l-2-2.36c.67-.78,1.33-1.57,2-2.35,4.42,1.37,12-3.45,12.77,3.12C223.23,422.43,216.28,426.55,210,425Z"/><path class="cls-48" d="M422.61,184.8h9.45c-.54,1.32-.77,3.51-1.66,3.82-7.21,2.53,1.07,14.39-6.22,13.16C420,201.09,423.59,190.72,422.61,184.8Z"/><path class="cls-40" d="M214.76,387.32,210,377.9a46.34,46.34,0,0,0,5.14-2.82c4.12-3,4,.25,4.31,2.82a20,20,0,0,0,3.9,2.53s.83,2.18.83,2.18q.18,4.89-4.73,4.71C217.91,389,216.33,389,214.76,387.32Z"/><path class="cls-49" d="M365.92,151.83l9.45-4.71c5.61.18,6.25,5.44,4,7.21C375.09,157.6,368.93,160.2,365.92,151.83Z"/><path class="cls-50" d="M536,396.74c0-6.3,4.84-4.42,8.25-4.67,3.19-.23,6.27-.27,5.92-4.75,4.55-.35,5,2.8,4.62,5.95-.28,2.39-2,3.69-4.81,3.54C545.31,396.56,540.64,396.74,536,396.74Z"/><path class="cls-51" d="M309.24,500.36h-4.73c-2-2.22-4.83-2.43-7.51-3-2.4-1.62-4.5-3.32-1.94-6.42,6.75,0,14.18-1.36,17.92,6.3C314.21,499.76,311.53,500.51,309.24,500.36Z"/><path class="cls-52" d="M592.67,523.9q.18,4.89-4.73,4.71c-.56-2.83,1.15-5.89-1.36-8.64-1-1.07-5.59-2.33-1.64-4.58,3.38-1.92,7.41-2,7.73,3.8q2.6,1.57,1.73,3.14C593.83,523.38,593.25,523.9,592.67,523.9Z"/><path class="cls-53" d="M224.21,250.74h4.72l2.36-1.81c.79.6,1.58,1.2,2.36,1.81-4.86,3.56-1.42,12.65-9.44,14.13a9.63,9.63,0,0,1-2.19-4.51c-.08-1.7-.08-3.4,0-5.11A9.4,9.4,0,0,1,224.21,250.74Z"/><path class="cls-43" d="M290.34,415.58h-4.72V401.45a3,3,0,0,1-1.07-3.14c.36-1.05.71-1.57,1.07-1.57,4.09-.29,4.74,2.32,4.73,5.54C290.33,406.71,290.34,411.15,290.34,415.58Z"/><path class="cls-54" d="M243.1,429.71V425a11.55,11.55,0,0,1,9.45-9.42q4.14,4.71,0,9.42Z"/><path class="cls-55" d="M285.62,425q-.18,4.89,4.72,4.71.18,4.89-4.72,4.71a4.46,4.46,0,0,1-4.66,1.37,12.72,12.72,0,0,1-4.79-6.08C276.57,422.66,282,425.71,285.62,425Z"/><path class="cls-56" d="M432.06,250.74c3.85-.57,5.13,2.87,7.1,4.88,3.85,3.92.4,4.36-2.65,4.51s-6.12,0-9.18,0c-.62-.66-1.23-1.32-1.86-2,.07-.9.14-1.8.2-2.71a18.9,18.9,0,0,1,3.84-3.79Z"/><path class="cls-57" d="M266.72,198.93c-.2-2.29,1.49-5.12,2.83-3.71,1.94,2.05,7.66,2.65,4.94,7.65-1,1.83-3.74,2.68-3.05,5.48C264.38,208,267.43,202.5,266.72,198.93Z"/><path class="cls-58" d="M347,198.93h4.72c1.35,1,1.8,2.09,1.35,3.14s-.9,1.57-1.35,1.57c-.52,1.3-.67,3.07-1.63,3.81-2.08,1.6-3.16,5.92-6.28,4.48s-1-5.47-1.54-8.29C343.88,202.07,345.72,200.77,347,198.93Z"/><path class="cls-59" d="M191.14,269.58c0-2.2.94-5.25-.15-6.45-8.35-9.11-.52-7.54,4.87-7.68C194.06,260.08,200.24,267.37,191.14,269.58Z"/><path class="cls-60" d="M540.71,340.22c0-3.09.2-6.2-.06-9.26-.24-2.85,1.17-4.48,3.56-4.77,3.16-.37,6.29.1,5.94,4.61a7.61,7.61,0,0,0-2.41,4.69,7,7,0,0,1-2.31,4.73Q543.06,342.7,540.71,340.22Z"/><path class="cls-61" d="M451,462.68c-1.48,0-3-.07-4.45,0-3.78.2-5.1-1.8-5-5.28.07-2.6,1.45-4,3.91-4.12,3.21-.18,5.84.59,5.55,4.68,1.31,1,1.74,2.09,1.31,3.14S451.39,462.68,451,462.68Z"/><path class="cls-62" d="M487.46,312.71c1.85,2.26,5.49,4.88,5.12,6.69-.52,2.54-4.32,6.58-6.15,6.31-5.74-.87-1.11-5.94-2.29-9C483.3,314.52,484.39,312.64,487.46,312.71Z"/><path class="cls-63" d="M361.2,203.64c5.78-.28,4.24,4.45,5.14,7.49.63,2.14,6.53,3.11,2.21,6-2.87,1.9-7.21,1.49-7.35-4.05a7.41,7.41,0,0,1-2.2-4.82A4.86,4.86,0,0,1,361.2,203.64Z"/><path class="cls-4" d="M602.12,481.52l9.44-4.71c2.92,3.14,2.73,6.28,0,9.42-1.52,1.62-3.44,2.85-4.72,4.71h-4.72C599.44,487.8,599.48,484.66,602.12,481.52Z"/><path class="cls-64" d="M186.41,490.94h4.73a45.4,45.4,0,0,0,2.83,5.12c3,4.11-.26,3.94-2.83,4.3-3.58-.71-9,2.33-9.45-4.71,0,0,.46-1.74.44-1.75a7.65,7.65,0,0,1,2.51-2.58S186.41,490.94,186.41,490.94Z"/><path class="cls-65" d="M474.57,217.77v18.84q-4.9.18-4.72-4.71c-1.18-1.05-1.57-2.1-1.18-3.14s.78-1.57,1.18-1.57C470.56,223.62,467.5,218.17,474.57,217.77Z"/><path class="cls-66" d="M252.55,246h-4.72l-1.94-1.19a4.93,4.93,0,0,1-.36-4.39,9.94,9.94,0,0,1,2.3-3.84c1.78-1.93,2.6-4.61,4.88-6.14a3.93,3.93,0,0,1,4.56,1.43v9.42A65.54,65.54,0,0,1,252.55,246Z"/><path class="cls-66" d="M347,387.32q-4.9-.18-4.73,4.71c-6.67-1.25-6.37-5.58-2.54-8.75C342.26,381.22,346.9,381.79,347,387.32Z"/><path class="cls-67" d="M451,175.38q.18,4.89-4.72,4.71.18-4.89-4.73-4.71-.18-4.89,4.73-4.71c1.57-2.27,3.15-2.27,4.72,0,1.66,1.05,2.21,2.09,1.66,3.14S451.51,175.38,451,175.38Z"/><path class="cls-68" d="M502.91,279V264.87l2.37-1.78,2.36,1.78C505.84,269.5,512,276.79,502.91,279Z"/><path class="cls-69" d="M262,514.48v4.71a3.18,3.18,0,0,1,1,3.11c-.28,1.06-.58,1.6-.89,1.6a3.82,3.82,0,0,1-4.88,0h-4.72a3.25,3.25,0,0,1-.92-3.14c.31-1,.61-1.57.92-1.57a65.54,65.54,0,0,1,4.72-4.71Z"/><path class="cls-70" d="M228.93,396.74c1.26-6.65,5.6-6.35,8.77-2.53,2.07,2.48,1.5,7.11-4,7.24a8.35,8.35,0,0,0-3.93-2.49S228.93,396.74,228.93,396.74Z"/><path class="cls-27" d="M432.06,227.19c1.3.52,3.08.67,3.82,1.62,1.6,2.08,5.93,3.15,4.49,6.26s-5.48,1-8.31,1.54c0,0-1.87-1.32-1.87-1.31a15.4,15.4,0,0,1-.34-4.54l.33-2.26Z"/><path class="cls-27" d="M408.44,274.29c-.41,7-5.87,4-9.45,4.71C399.36,269.73,399.8,269.51,408.44,274.29Z"/><path class="cls-71" d="M389.54,231.9a26.89,26.89,0,0,1-.06,4.58c-.23,1.37-.69,3.61-1.49,3.82-2.92.76-3.31-1.4-3.17-3.69a28.09,28.09,0,0,1,.05-4.59c.24-1.37.7-3.6,1.5-3.81C389.29,227.44,389.68,229.61,389.54,231.9Z"/><path class="cls-68" d="M493.47,269.58V279c-2.83-.55-7.82,1.5-8.11-1.48C485,273.33,488.91,270.41,493.47,269.58Z"/><path class="cls-72" d="M521.81,260.16v14.13c-9.1-2.21-2.93-9.5-4.72-14.13C518.66,258.31,520.24,258.31,521.81,260.16Z"/><path class="cls-73" d="M257.27,231.9h-4.72q-2.37,2.49-4.72,0-.18-4.89,4.72-4.71a27.13,27.13,0,0,1,4.6.06c1.37.23,3.61.69,3.82,1.48C261.74,231.65,259.57,232,257.27,231.9Z"/><path class="cls-33" d="M507.64,227.19c1.31-.53,2.6-1.11,3.94-1.56,1.6-.53,2.21-5,4.78-1.38a5.69,5.69,0,0,1,.64,4.23c-1.41,5.43-6,2.82-9.36,3.42Z"/><path class="cls-73" d="M233.65,283.71c1-1.77,1.59-4,3.06-5.17s3.14-6.43,5.82-2.08c1.77,2.86,1.34,7.16-4.15,7.25C236.8,285.35,235.23,285.35,233.65,283.71Z"/><path class="cls-72" d="M526.53,279q-.18-4.89,4.73-4.71c1.68-1.77,3.49-1.83,5.42-.44,1.48,4.82-.78,8.18-4.33,11l-3.15.62-2.67-1.79Z"/><path class="cls-74" d="M304.51,222.48v4.71c.34,4.42-2.69,5-5.86,4.62-2.36-.27-4.12-1.75-3.59-4.62C297.79,224.78,299,219.32,304.51,222.48Z"/><path class="cls-75" d="M498.19,227.19c.6-3.33-2-7.93,3.43-9.34a5.71,5.71,0,0,1,4.24.64c3.63,2.56-.85,3.17-1.39,4.77-.45,1.33-1,2.62-1.56,3.93Z"/><path class="cls-67" d="M484,217.77a11.55,11.55,0,0,1,9.45,9.42H484v-4.71c-1.31-1-1.74-2.09-1.31-3.14S483.58,217.77,484,217.77Z"/><path class="cls-76" d="M602.12,523.9h-4.73c-1.21-1-1.61-2.09-1.21-3.14s.81-1.57,1.21-1.57h9.45c1.57-1.78,3.15-1.78,4.72,0v4.71a5.14,5.14,0,0,1-4.61,2.27A8,8,0,0,1,602.12,523.9Z"/><path class="cls-39" d="M276.17,283.71c4.75-6.46,9.42-6.46,14.17,0a14.25,14.25,0,0,1-4.61,2.62,11,11,0,0,1-5.28.5A11.72,11.72,0,0,1,276.17,283.71Z"/><path class="cls-36" d="M304.51,222.48l-9.45,4.71v-9.42h9.45Z"/><path class="cls-66" d="M233.65,283.71h4.73c-.71,3.57,2.34,9-4.73,9.41-2.82-.32-3-3.27-4.72-4.7a3.26,3.26,0,0,1-.92-3.14c.31-1,.61-1.57.92-1.57Z"/><path class="cls-77" d="M408.44,575.71c-1.26,6.66-5.6,6.35-8.78,2.53-2.06-2.48-1.49-7.11,4-7.24,0,0,2.2.85,2.21.84A8.08,8.08,0,0,1,408.44,575.71Z"/><path class="cls-66" d="M252.55,425v-9.42h4.72c1.76,1.89,4.53,2.5,6,4.74A4.94,4.94,0,0,1,262,425Z"/><path class="cls-78" d="M583.22,425H578.5s-1.76-.43-1.77-.41a7.77,7.77,0,0,1-2.57-2.53s-.39-1.77-.39-1.77v-4.71l2.06-2a8.52,8.52,0,0,1,8.21,1.1,10.14,10.14,0,0,1,1.86,5.39c-.23.93-.47,1.88-.7,2.82Z"/><path class="cls-33" d="M460.4,429.71c-.34-4.42,2.7-5,5.87-4.62,2.36.26,4.11,1.75,3.58,4.62a3.55,3.55,0,0,1,1.18,3.08c-.18,1.12-.4,1.67-.68,1.68L468,435.88l-2.74-.08a10.24,10.24,0,0,1-4.21-3.41C460.83,431.5,460.62,430.6,460.4,429.71Z"/><path class="cls-66" d="M399,213.06q-.18-4.89,4.72-4.71a3.1,3.1,0,0,1,4.73,0,11.58,11.58,0,0,1-9.45,9.42c-1.38-1.05-1.83-2.09-1.38-3.14S398.53,213.06,399,213.06Z"/><path class="cls-43" d="M408.44,208.35h-4.73a11.85,11.85,0,0,0,0-2.15c-.46-2.43-6-2.86-3.21-6,1.38-1.56,5.23-.94,8-1.31Q412.42,203.64,408.44,208.35Z"/><path class="cls-79" d="M295.06,490.94q-.18,4.89,4.73,4.71a3,3,0,0,1,1,3.14c-.35,1-.7,1.57-1,1.57h-9.45C291.05,496.79,288,491.34,295.06,490.94Z"/><path class="cls-30" d="M578.5,448.55q4.9-.18,4.72,4.71a7.25,7.25,0,0,1,2,7.51l-2,1.91C574.12,460.47,580.3,453.18,578.5,448.55Z"/><path class="cls-5" d="M172.24,453.26c7.07.4,4,5.85,4.73,9.42a4.09,4.09,0,0,1-1.44,5.48,4.41,4.41,0,0,1-5.26-2.46C170.17,461.43,168.43,456.91,172.24,453.26Z"/><path class="cls-80" d="M602.12,481.52v9.42q.18,4.89-4.73,4.71C599.19,491,593,483.72,602.12,481.52Z"/><path class="cls-81" d="M474.57,203.64v4.71c-1.31.52-2.6,1.11-3.94,1.55-1.6.54-2.21,5-4.78,1.39a5.69,5.69,0,0,1-.64-4.23C466.62,201.62,471.23,204.24,474.57,203.64Z"/><path class="cls-82" d="M195.86,486.23q.18-4.89-4.72-4.71l-1.8-2.36,1.8-2.35c3.35.63,8.23-2.14,9.33,3.53C201.08,483.42,200.35,486.57,195.86,486.23Z"/><path class="cls-4" d="M578.5,302.54v-4.71a12.47,12.47,0,0,1,4.68-3.25,16.62,16.62,0,0,1,5.8,0c.91.34,1.82.71,2.73,1.06.73.64,1.46,1.3,2.19,1.95a3.93,3.93,0,0,1-1.23,5,13.27,13.27,0,0,1-4.62,2.63,11.37,11.37,0,0,1-5.3.53A9.59,9.59,0,0,1,578.5,302.54Z"/><path class="cls-53" d="M214.76,302.54q.18,4.89-4.73,4.71c-1.53,1.78-3.28,2.12-5.28.79l-1.23-2.9c.6-.86,1.19-1.73,1.79-2.6H210l2.37-1.94Z"/><path class="cls-4" d="M578.5,302.54h4.72a3.65,3.65,0,0,1,1.54,3.48c-.23,1.29-.53,1.93-.9,1.94a3.62,3.62,0,0,1-5.36-.71c-2.3.17-4.39-.3-3.75-3.12C574.93,303.36,577.19,303.06,578.5,302.54Z"/><path class="cls-59" d="M181.69,467.39c3.58.71,9.05-2.34,9.45,4.71a5.52,5.52,0,0,1-4.93,2.3,8.84,8.84,0,0,1-5.38-1.8c-.26-.93-.52-1.87-.77-2.81Z"/><path class="cls-5" d="M205.31,307.25H210V312h-4.72l-2.42,1.91-2.84-1.24a4,4,0,0,1,.54-5.38C202.16,305,203.74,305,205.31,307.25Z"/><path class="cls-60" d="M578.5,307.25h4.72c.79-.71,1.58-1.42,2.36-2.14l2.36,2.14c-.4,7.05-5.86,4-9.44,4.71Z"/><path class="cls-83" d="M304.51,552.16c0-1.54.06-3.08,0-4.62-.1-2.29.25-4.46,3.15-3.81.78.18,1.29,2.45,1.53,3.82a27.25,27.25,0,0,1,.06,4.61C307.66,553.82,306.09,553.82,304.51,552.16Z"/><path class="cls-40" d="M304.51,552.16h4.73q.18,4.89-4.73,4.71a3.23,3.23,0,0,1-4.79.35l-1.27-2.55c.45-.83.89-1.67,1.34-2.51Z"/><path class="cls-43" d="M370.65,231.9q4.91-.18,4.72,4.71c1.2,1,1.6,2.09,1.2,3.14s-.8,1.57-1.2,1.57q-4.9.18-4.72-4.71c-1.31-1.05-1.74-2.1-1.31-3.14S370.21,231.9,370.65,231.9Z"/><path class="cls-33" d="M611.56,486.23v-9.42a4.5,4.5,0,0,1,5.53-.72,4.15,4.15,0,0,1-.8,5.43v4.71Z"/><path class="cls-4" d="M427.33,255.45v4.71c.17,2.29-.3,4.37-3.13,3.73-.77-.17-1.07-2.43-1.59-3.73a3.63,3.63,0,0,1-1.49-3.4q.33-1.89.84-1.89A4,4,0,0,1,427.33,255.45Z"/><path class="cls-73" d="M318.68,213.06v-4.71a3.09,3.09,0,0,1,4.73,0h4.72C327.73,215.39,322.26,212.35,318.68,213.06Z"/><path class="cls-84" d="M484,297.83c.12,3.26-1.46,4.83-4.72,4.71a3,3,0,0,1-1.07-3.14c.35-1,.71-1.57,1.07-1.57q-.18-4.87,4.72-4.71,2.48,1.58,1.65,3.15T484,297.83Z"/><path class="cls-85" d="M408.44,208.35v-9.42c4.43-.34,5,2.69,4.63,5.85C412.81,207.13,411.32,208.88,408.44,208.35Z"/><path class="cls-86" d="M214.76,297.83c-.3-2.27.53-4,2.91-4,.63,0,1.61,2.16,1.73,3.4.31,3.2-.8,5.53-4.64,5.28-1.2-1-1.6-2.09-1.2-3.14S214.36,297.83,214.76,297.83Z"/><path class="cls-87" d="M195.86,293.12h9.45v4.71c-1.57,2.27-3.15,2.27-4.72,0h-4.73c-1.2-1-1.6-2.09-1.2-3.14S195.46,293.12,195.86,293.12Z"/><path class="cls-4" d="M583.22,297.83H578.5v-9.41a4.66,4.66,0,0,1,5.32-1,9.53,9.53,0,0,1,2.17,5.37A8.23,8.23,0,0,1,583.22,297.83Z"/><path class="cls-88" d="M280.89,335.51c-.34-4.42,2.7-5,5.87-4.62,2.36.27,4.11,1.75,3.58,4.62C287.19,338,284,338.45,280.89,335.51Z"/><path class="cls-88" d="M285.62,288.42c-.72,3.57,2.34,9-4.73,9.41v-4.71L279,290.68l1.26-2.83,2.85-1.23Z"/><path class="cls-73" d="M228.93,288.42q4.9-.18,4.72,4.7c.14,2.3-.25,4.46-3.17,3.69-.8-.21-1.26-2.44-1.49-3.81A26.89,26.89,0,0,1,228.93,288.42Z"/><path class="cls-89" d="M498.19,439.13c2.28-.3,4,.53,4,2.9,0,.63-2.17,1.61-3.41,1.73-3.21.3-5.55-.8-5.3-4.63C495,437.34,496.62,437.34,498.19,439.13Z"/><path class="cls-89" d="M484,330.8c4.43-.34,5,2.69,4.63,5.85-.26,2.35-1.75,4.11-4.63,3.57a9.6,9.6,0,0,1-2.44-4.83c.12-.92.25-1.83.37-2.74Z"/><path class="cls-33" d="M498.19,439.13h-4.72q-4.91.18-4.73-4.71c1.58-2.27,3.15-2.27,4.73,0Q498.38,434.24,498.19,439.13Z"/><path class="cls-55" d="M403.71,571v-9.42c1.58-1.66,3.15-1.66,4.73,0V571C406.86,572.65,405.29,572.65,403.71,571Z"/><path class="cls-90" d="M460.4,439.13v4.71c-7.07-.4-4-5.85-4.72-9.42a3.64,3.64,0,0,1,5.05-.16C462.06,436,462,437.61,460.4,439.13Z"/><path class="cls-66" d="M280.89,434.42h4.73c.34,4.42-2.7,5-5.87,4.62-2.36-.27-4.12-1.75-3.58-4.62C277.74,432.62,279.32,432.62,280.89,434.42Z"/><path class="cls-91" d="M587.94,500.36c-3.84.24-5-2.09-4.64-5.29.12-1.24,1.11-3.39,1.73-3.4,2.38,0,3.21,1.7,2.91,4q2.49,1.56,1.66,3.14C589.05,499.83,588.5,500.36,587.94,500.36Z"/><path class="cls-92" d="M205.31,340.22h-4.72c-1.61-1-2.14-2.09-1.61-3.14s1.07-1.57,1.61-1.57a6.3,6.3,0,0,1,4.71-2.17,6.46,6.46,0,0,1,4.73,2.17v4.71Q207.68,342.7,205.31,340.22Z"/><path class="cls-40" d="M280.89,434.42h-4.72c-2.3.17-4.39-.3-3.75-3.12.18-.77,2.44-1.07,3.75-1.59Q281.08,429.53,280.89,434.42Z"/><path class="cls-66" d="M280.89,335.51h9.45q.18,4.89-4.72,4.71a3.81,3.81,0,0,1-5.28.66A4,4,0,0,1,280.89,335.51Z"/><path class="cls-93" d="M337.58,335.51v4.71q2.48,1.57,1.65,3.14c-.54,1.05-1.09,1.57-1.65,1.57-4.43.34-5-2.68-4.63-5.85C333.21,336.73,334.7,335,337.58,335.51Z"/><path class="cls-6" d="M587.94,434.42c-7.06-.4-4-5.85-4.72-9.42a3.93,3.93,0,0,1,5.08-1.11,8.05,8.05,0,0,1,2.17,5.32A9.35,9.35,0,0,1,587.94,434.42Z"/><path class="cls-4" d="M488.74,429.71c-2.3.14-4.47-.25-3.7-3.16.21-.8,2.45-1.26,3.83-1.49a27.11,27.11,0,0,1,4.6-.06c1.2,1.05,1.6,2.09,1.2,3.14s-.8,1.57-1.2,1.57C491.89,431.56,490.32,431.56,488.74,429.71Z"/><path class="cls-94" d="M280.89,340.22h4.73c.34,4.42-2.7,5-5.87,4.62-2.36-.26-4.12-1.75-3.58-4.62C277.74,338.56,279.32,338.56,280.89,340.22Z"/><path class="cls-95" d="M493.47,571c-.34-4.42,2.69-5,5.86-4.62,2.36.27,4.12,1.75,3.58,4.62Z"/><path class="cls-84" d="M569.05,425c-2.3.14-4.47-.25-3.7-3.16.21-.8,2.45-1.26,3.82-1.49a27.14,27.14,0,0,1,4.6-.06l1.8,2.51c-.4.94-.81,1.89-1.22,2.83A3.81,3.81,0,0,1,569.05,425Z"/><path class="cls-56" d="M493.47,429.71v-9.42a3.44,3.44,0,0,1,4.72,0C497.48,423.86,500.53,429.31,493.47,429.71Z"/><path class="cls-96" d="M177,429.71V425c-.3-2.27.53-4,2.91-4,.63,0,1.61,2.16,1.73,3.4C181.92,427.62,180.81,430,177,429.71Z"/><path class="cls-73" d="M399,213.06v4.71a3.09,3.09,0,0,1-4.72,0c-2.3.14-4.47-.25-3.7-3.16.21-.8,2.45-1.26,3.82-1.49A27.11,27.11,0,0,1,399,213.06Z"/><path class="cls-88" d="M262,425v-4.71c-1.21-1.05-1.61-2.09-1.21-3.14s.8-1.57,1.21-1.57c4.43-.34,5,2.69,4.63,5.85C266.37,423.78,264.88,425.53,262,425Z"/><path class="cls-83" d="M399,556.87q-4.9.18-4.72-4.71l-1.95-2.35c.64-.79,1.29-1.57,1.95-2.36,3.26-.12,4.84,1.45,4.72,4.71,1.35,1.05,1.8,2.1,1.35,3.14S399.44,556.87,399,556.87Z"/><path class="cls-87" d="M290.34,528.61h9.45q.18,4.89-4.73,4.71h-4.72a3,3,0,0,1-1.06-3.14C289.64,529.14,290,528.61,290.34,528.61Z"/><path class="cls-73" d="M403.71,571h4.73c2.29-.17,4.38.3,3.74,3.12-.17.77-2.44,1.07-3.74,1.59Q403.54,575.89,403.71,571Z"/><path class="cls-40" d="M347,585.13c-4.44.34-5-2.69-4.64-5.85.27-2.35,1.76-4.1,4.64-3.57C349.58,578.85,349.93,582,347,585.13Z"/><path class="cls-84" d="M573.77,279v9.42h-4.72q-2.49-1.57-1.66-3.14c.55-1,1.1-1.57,1.66-1.57V279l2.36-1.8C572.2,277.79,573,278.4,573.77,279Z"/><path class="cls-90" d="M422.61,255.45v4.71c-4.43.34-5-2.69-4.63-5.85.26-2.35,1.75-4.11,4.63-3.57q2.44,1.56,1.63,3.14C423.7,254.92,423.16,255.45,422.61,255.45Z"/><path class="cls-86" d="M177,401.45c.25,3.83-2.1,4.94-5.31,4.63-1.24-.12-3.39-1.1-3.41-1.72,0-2.38,1.71-3.21,4-2.91Z"/><path class="cls-97" d="M337.58,368.48c-4.43.34-5-2.69-4.63-5.85.26-2.35,1.75-4.1,4.63-3.57a9.37,9.37,0,0,1,2.26,4.87A4.77,4.77,0,0,1,337.58,368.48Z"/><path class="cls-88" d="M266.72,255.45v-4.71c3.85-.25,4.95,2.08,4.65,5.29-.12,1.23-1.11,3.38-1.73,3.39C267.26,259.47,266.42,257.72,266.72,255.45Z"/><path class="cls-98" d="M380.09,359.06h4.73c0,1.54-.06,3.08,0,4.62.1,2.29-.25,4.46-3.15,3.81-.78-.17-1.29-2.44-1.53-3.82A27.23,27.23,0,0,1,380.09,359.06Z"/><path class="cls-83" d="M228.93,401.45q.18,4.89-4.72,4.71-4-4.71,0-9.42h4.72c1.2,1.05,1.6,2.09,1.2,3.14S229.33,401.45,228.93,401.45Z"/><path class="cls-99" d="M502.91,363.77h-9.44c-.34-4.42,2.69-5,5.86-4.62C501.69,359.42,503.45,360.9,502.91,363.77Z"/><path class="cls-66" d="M224.21,396.74v9.42c-4.44.34-5-2.69-4.64-5.85C219.84,398,221.33,396.21,224.21,396.74Z"/><path class="cls-54" d="M347,585.13v-9.42q4.91-.18,4.72,4.71c1.35,1.05,1.8,2.09,1.35,3.14s-.9,1.57-1.35,1.57Z"/><path class="cls-52" d="M564.32,538c-3.84.25-5-2.08-4.64-5.29.12-1.23,1.11-3.38,1.73-3.39,2.38-.05,3.21,1.7,2.91,4a3,3,0,0,1,1.06,3.14C565,537.51,564.68,538,564.32,538Z"/><path class="cls-54" d="M370.65,231.9v4.71c-3.85.25-5-2.09-4.65-5.29.12-1.24,1.11-3.39,1.73-3.4C370.11,227.88,370.94,229.63,370.65,231.9Z"/><path class="cls-67" d="M488.74,373.19h4.73a3.09,3.09,0,0,1,4.72,0q.18,4.89-4.72,4.71h-4.73a3,3,0,0,1-1.05-3.14C488,373.71,488.39,373.19,488.74,373.19Z"/><path class="cls-99" d="M611.56,519.19h-4.72c.4-7,5.87-4,9.45-4.71Q616.47,519.37,611.56,519.19Z"/><path class="cls-46" d="M214.76,538v4.71c-8.72.42-7.32-4.2-4.73-9.42Q214.94,533.14,214.76,538Z"/><path class="cls-50" d="M540.71,382.61q.18,4.89-4.73,4.71Q535.8,382.43,540.71,382.61Z"/><path class="cls-83" d="M224.21,377.9c2.29-.17,4.38.3,3.74,3.12-.17.77-2.44,1.07-3.74,1.59a3,3,0,0,1-1.06-3.14C223.5,378.42,223.85,377.9,224.21,377.9Z"/><path class="cls-73" d="M224.21,377.9v4.71q-4.91.18-4.73-4.71Z"/><path class="cls-5" d="M214.76,387.32h4.72q.18,4.89-4.72,4.71Z"/><path class="cls-3" d="M162.8,377.9c3.26-.12,4.84,1.45,4.72,4.71H162.8c-1.21-1.05-1.61-2.09-1.21-3.14S162.39,377.9,162.8,377.9Z"/><path class="cls-54" d="M351.75,392c-.17-2.29.3-4.37,3.13-3.73.77.17,1.08,2.43,1.59,3.73Q354.11,395.24,351.75,392Z"/><path class="cls-99" d="M488.74,373.19v4.71q-4.9.18-4.72-4.71Z"/><path class="cls-94" d="M347,368.48c2.29-.17,4.38.3,3.74,3.12-.17.77-2.44,1.07-3.74,1.59-1.21-1.05-1.61-2.09-1.21-3.14S346.62,368.48,347,368.48Z"/><path class="cls-43" d="M351.75,392h4.72v4.71q-2.36,2.79-4.72,0Z"/><path class="cls-97" d="M347,368.48v4.71q-4.9.18-4.73-4.71C343.88,366.82,345.45,366.82,347,368.48Z"/><path class="cls-40" d="M347,368.48H342.3c-1.35-1.05-1.79-2.09-1.35-3.14s.9-1.57,1.35-1.57Q347.21,363.59,347,368.48Z"/><path class="cls-83" d="M342.3,363.77v4.71h-4.72v-4.71A3.09,3.09,0,0,1,342.3,363.77Z"/><path class="cls-99" d="M484,363.77H479.3c-.17-2.29.3-4.37,3.12-3.73C483.2,360.21,483.5,362.47,484,363.77Z"/><path class="cls-73" d="M228.93,401.45v-4.71q4.9-.18,4.72,4.71Z"/><path class="cls-83" d="M285.62,396.74v4.71c-2.3.17-4.39-.3-3.75-3.12C282.05,397.56,284.31,397.26,285.62,396.74Z"/><path class="cls-43" d="M342.3,363.77h-4.72v-4.71Q342.49,358.88,342.3,363.77Z"/><path class="cls-73" d="M351.75,396.74h4.72a3.23,3.23,0,0,1,.92,3.14c-.3,1.05-.61,1.57-.92,1.57h-4.72Z"/><path class="cls-88" d="M356.47,401.45v-4.71c2.3-.17,4.39.3,3.75,3.12C360,400.63,357.78,400.93,356.47,401.45Z"/><path class="cls-91" d="M531.26,396.74H536c.17,2.29-.3,4.37-3.13,3.73C532.08,400.3,531.78,398,531.26,396.74Z"/><path class="cls-84" d="M563.94,357.09c-.55.55-1.32,1.55-1.5,1.45-1-.55-2.29-1.17-2.76-2.13-1-2,0-2.94,2-2C562.63,354.9,563.2,356.18,563.94,357.09Z"/><path class="cls-98" d="M375.37,354.35q4.9-.18,4.72,4.71Q375.19,359.24,375.37,354.35Z"/><path class="cls-91" d="M578.5,349.64q4.9-.18,4.72,4.71H578.5c-1.35-1-1.8-2.09-1.35-3.14S578,349.64,578.5,349.64Z"/><path class="cls-83" d="M205.31,415.58v-4.71q4.91-.18,4.72,4.71l-2.36,2Z"/><path class="cls-100" d="M569.05,415.58v-4.71h4.72C575,411.92,575.35,413,575,414s-.79,1.57-1.19,1.57Z"/><path class="cls-4" d="M578.5,349.64v4.71q-4.9.18-4.73-4.71c.79-.59,1.58-1.18,2.36-1.78Z"/><path class="cls-33" d="M554.88,354.35v-4.71q4.9-.18,4.72,4.71Z"/><path class="cls-52" d="M569.05,344.93h4.72a3,3,0,0,1,1.06,3.14c-.35,1.05-.7,1.57-1.06,1.57Q568.87,349.82,569.05,344.93Z"/><path class="cls-43" d="M200.59,344.93h4.72q.18,4.89-4.72,4.71a3,3,0,0,1-1.06-3.14C199.88,345.46,200.23,344.93,200.59,344.93Z"/><path class="cls-101" d="M498.19,420.29h-4.72c-.17-2.29.3-4.38,3.13-3.74C497.37,416.73,497.67,419,498.19,420.29Z"/><path class="cls-74" d="M200.59,344.93v4.71h-4.73Q195.68,344.75,200.59,344.93Z"/><path class="cls-61" d="M540.71,340.22h4.72c.12,3.26-1.46,4.83-4.72,4.71a3.22,3.22,0,0,1-.92-3.14C540.09,340.75,540.4,340.22,540.71,340.22Z"/><path class="cls-27" d="M540.71,340.22v4.71c-2.3.17-4.39-.3-3.75-3.12C537.14,341,539.4,340.74,540.71,340.22Z"/><path class="cls-98" d="M384.82,344.93q-4.9.18-4.73-4.71Q385,340,384.82,344.93Z"/><path class="cls-55" d="M342.3,340.22q4.9-.18,4.73,4.71H342.3c-1.21-1-1.61-2.09-1.21-3.14S341.9,340.22,342.3,340.22Z"/><ellipse class="cls-102" cx="339.94" cy="342.58" rx="3.34" ry="3.33"/><path class="cls-83" d="M290.34,429.71c-.17-2.29.3-4.38,3.13-3.74.77.18,1.08,2.44,1.59,3.74Z"/><path class="cls-43" d="M205.31,340.22H210q.18,4.89-4.72,4.71Z"/><path class="cls-33" d="M569.05,335.51q.18,4.89-4.73,4.71v-4.71C565.9,333.39,567.47,333.39,569.05,335.51Z"/><path class="cls-27" d="M569.05,425h4.72c1.21,1.05,1.61,2.09,1.21,3.14s-.8,1.57-1.21,1.57Q568.87,429.89,569.05,425Z"/><path class="cls-56" d="M573.77,429.71V425a3.12,3.12,0,0,1,4.73,0Q578.68,429.89,573.77,429.71Z"/><path class="cls-61" d="M545.43,340.22v-4.71a3.12,3.12,0,0,1,4.72,0v4.71Z"/><path class="cls-27" d="M484,335.51v4.71q-4.9.18-4.72-4.71l2.36-1.95Z"/><path class="cls-43" d="M280.89,340.22h-4.72q-.18-4.89,4.72-4.71Z"/><path class="cls-33" d="M460.4,434.42h-4.72q-.18-4.89,4.72-4.71c.6.78,1.19,1.57,1.8,2.35Z"/><path class="cls-84" d="M469.85,434.42v-4.71q4.9-.18,4.72,4.71s-1.26,1.81-1.25,1.81H471.1Z"/><ellipse class="cls-56" cx="491.1" cy="432.06" rx="3.34" ry="3.33"/><path class="cls-103" d="M569.05,335.51h-4.73V330.8c1.58-1.66,3.15-1.66,4.73,0Z"/><path class="cls-103" d="M474.57,434.42c2.3-.17,4.39.3,3.75,3.12-.18.77-2.44,1.07-3.75,1.59C473,438.08,472.51,437,473,436S474.05,434.42,474.57,434.42Z"/><path class="cls-4" d="M479.3,335.51c-2.3.17-4.39-.3-3.75-3.12.18-.77,2.44-1.07,3.75-1.59.66.79,1.32,1.57,2,2.36Z"/><path class="cls-53" d="M210,335.51h-4.72c-1.21-1-1.61-2.09-1.21-3.14s.8-1.57,1.21-1.57H210Z"/><path class="cls-4" d="M474.57,453.26q-.18-4.89,4.73-4.71Q479.48,453.44,474.57,453.26Z"/><ellipse class="cls-4" cx="566.69" cy="328.45" rx="3.34" ry="3.33"/><path class="cls-61" d="M484,326.09v4.71q-2.37,2.49-4.72,0Q479.12,325.91,484,326.09Z"/><path class="cls-91" d="M451,462.68V458q4.91-.18,4.73,4.71A3.45,3.45,0,0,1,451,462.68Z"/><path class="cls-103" d="M474.57,462.68c-2.29.16-4.39-.3-3.74-3.12.17-.78,2.44-1.08,3.74-1.59a3.25,3.25,0,0,1,.92,3.14C475.18,462.15,474.88,462.68,474.57,462.68Z"/><path class="cls-4" d="M474.57,462.68V458c2.3-.17,4.39.3,3.75,3.12C478.14,461.86,475.88,462.16,474.57,462.68Z"/><path class="cls-3" d="M177,467.39v-4.71q4.91-.18,4.72,4.71l-2.36,1.77Z"/><path class="cls-60" d="M451,462.68h4.73c.16,2.29-.3,4.37-3.13,3.73C451.77,466.24,451.47,464,451,462.68Z"/><path class="cls-3" d="M583.22,467.39v-4.71a3.75,3.75,0,0,1,5.3-.79,4.16,4.16,0,0,1-.58,5.5A3.12,3.12,0,0,1,583.22,467.39Z"/><path class="cls-53" d="M186.41,472.1h4.73v4.71a3.13,3.13,0,0,1-4.73,0q-2.31-1.57-1.55-3.14C185.38,472.62,185.89,472.1,186.41,472.1Z"/><path class="cls-91" d="M479.3,297.83v4.71c-2.3.17-4.39-.3-3.75-3.12C475.73,298.65,478,298.35,479.3,297.83Z"/><path class="cls-49" d="M214.76,297.83v4.71H210C209.91,299.28,211.49,297.72,214.76,297.83Z"/><path class="cls-3" d="M200.59,297.83h4.72v4.71c-1.57,1.66-3.15,1.66-4.72,0Z"/><path class="cls-52" d="M488.74,293.12c2.3-.16,4.39.3,3.75,3.13-.18.77-2.44,1.07-3.75,1.58-1.21-1-1.61-2.09-1.21-3.14S488.34,293.12,488.74,293.12Z"/><path class="cls-80" d="M606.84,490.94q-.18-4.89,4.72-4.71Q611.74,491.12,606.84,490.94Z"/><ellipse class="cls-4" cx="486.38" cy="295.48" rx="3.34" ry="3.33"/><path class="cls-4" d="M526.53,288.42q.18,4.88-4.72,4.7v-4.7C523.38,286.77,525,286.77,526.53,288.42Z"/><path class="cls-63" d="M280.89,288.42v4.7q-4.9.18-4.72-4.7C277.74,286.55,279.32,286.55,280.89,288.42Z"/><path class="cls-4" d="M587.94,500.36v-4.71h4.73a3,3,0,0,1,1.05,3.14c-.35,1-.7,1.57-1.05,1.57Z"/><path class="cls-103" d="M592.67,500.36v-4.71h4.72C597.51,498.91,595.94,500.47,592.67,500.36Z"/><path class="cls-104" d="M630.46,495.65c2.3-.17,4.39.3,3.74,3.12-.17.77-2.44,1.07-3.74,1.59Z"/><path class="cls-27" d="M526.53,288.42h-4.72q-.18-4.89,4.72-4.71c1.61,1,2.14,2.09,1.61,3.14S527.07,288.42,526.53,288.42Z"/><path class="cls-68" d="M498.19,288.42c-.12-3.26,1.46-4.83,4.72-4.71C503,287,501.46,288.53,498.19,288.42Z"/><path class="cls-69" d="M266.72,509.77H262c-.17-2.28.3-4.37,3.13-3.73C265.9,506.22,266.2,508.47,266.72,509.77Z"/><path class="cls-69" d="M271.44,514.48c-3.26.12-4.84-1.45-4.72-4.71Q271.63,509.61,271.44,514.48Z"/><path class="cls-73" d="M280.89,288.42h-4.72v-4.71h4.72q2.33,1.56,1.55,3.14C281.93,287.89,281.41,288.42,280.89,288.42Z"/><path class="cls-93" d="M228.93,283.71v4.71c-2.3.16-4.39-.3-3.75-3.12C225.36,284.52,227.62,284.22,228.93,283.71Z"/><path class="cls-97" d="M276.17,269.58c.17,2.29-.3,4.37-3.13,3.73-.78-.17-1.08-2.43-1.6-3.73C273,267.92,274.59,267.92,276.17,269.58Z"/><path class="cls-3" d="M257.27,514.48q.18,4.89-4.72,4.71v-4.71Z"/><path class="cls-9" d="M436.78,519.19q-.18-4.89,4.72-4.71Q441.68,519.37,436.78,519.19Z"/><path class="cls-68" d="M498.19,264.87q.18,4.89-4.72,4.71v-4.71l2.36-2Z"/><path class="cls-43" d="M276.17,269.58h-4.73a3.25,3.25,0,0,1-.91-3.14c.3-1.05.61-1.57.91-1.57Q276.34,264.69,276.17,269.58Z"/><path class="cls-99" d="M625.74,514.48v4.71L623.37,521,621,519.19v-4.71Z"/><path class="cls-83" d="M271.44,264.87v4.71c-2.29.16-4.38-.3-3.74-3.12C267.87,265.68,270.14,265.38,271.44,264.87Z"/><ellipse class="cls-103" cx="595.03" cy="521.55" rx="3.34" ry="3.33"/><path class="cls-52" d="M512.36,260.16q.18,4.89-4.72,4.71l-2-2.39c.42-.94.85-1.88,1.28-2.83A4.07,4.07,0,0,1,512.36,260.16Z"/><path class="cls-45" d="M493.47,264.87c-2.3.16-4.39-.3-3.75-3.12.18-.78,2.44-1.08,3.75-1.59.66.78,1.32,1.57,2,2.35C494.81,263.3,494.14,264.08,493.47,264.87Z"/><path class="cls-53" d="M224.21,260.16v4.71q-4.91.18-4.73-4.71C221.06,258,222.63,258,224.21,260.16Z"/><path class="cls-56" d="M493.47,255.45h4.72v4.71c-1.57,1.66-3.15,1.66-4.72,0Z"/><path class="cls-61" d="M422.61,255.45v-4.71h4.72l1.79,2.35c-.59.79-1.19,1.57-1.79,2.36Z"/><path class="cls-27" d="M573.77,528.61v4.71l-2.36,1.78-2.36-1.78Q568.87,528.43,573.77,528.61Z"/><path class="cls-27" d="M583.22,528.61v4.71q-4.9.18-4.72-4.71Z"/><path class="cls-3" d="M427.33,246h4.73v4.71a3.13,3.13,0,0,1-4.73,0Z"/><path class="cls-92" d="M247.83,246c.16,2.29-.31,4.37-3.13,3.73-.78-.17-1.08-2.43-1.6-3.73l2.36-1.95Z"/><path class="cls-84" d="M564.32,538v-4.71h4.73a3.24,3.24,0,0,1,1.2,3.21c-.29,1.13-.6,1.69-.93,1.69A3.58,3.58,0,0,1,564.32,538Z"/><path class="cls-3" d="M238.38,246q.18,4.89-4.73,4.71a3.8,3.8,0,0,1-1.58-3.41c.15-1.29.39-1.94.71-1.94l2.95-1Z"/><path class="cls-73" d="M252.55,246q-.18-4.89,4.72-4.71V246Z"/><path class="cls-5" d="M238.38,241.32h4.72l2,2.35c-.66.79-1.33,1.57-2,2.36h-4.72l-1.8-2.36Z"/><path class="cls-33" d="M564.32,538h4.73l2,2.36-2,2.35Q564.15,542.92,564.32,538Z"/><path class="cls-56" d="M432.06,241.32q-4.9.18-4.73-4.71c1.58-2.12,3.15-2.12,4.73,0Z"/><path class="cls-73" d="M375.37,241.32v-4.71h4.72Q380.27,241.5,375.37,241.32Z"/><path class="cls-27" d="M417.88,236.61c-.16-2.29.31-4.38,3.13-3.74.78.18,1.08,2.44,1.6,3.74Z"/><path class="cls-94" d="M389.54,547.45c-.17-2.29.3-4.37,3.13-3.73.78.17,1.08,2.43,1.6,3.73A3.12,3.12,0,0,1,389.54,547.45Z"/><path class="cls-89" d="M469.85,227.19v4.71c-2.3.17-4.39-.3-3.75-3.12C466.28,228,468.54,227.71,469.85,227.19Z"/><path class="cls-27" d="M427.33,227.19c-.17-2.29.3-4.38,3.13-3.74.78.18,1.08,2.44,1.6,3.74C430.48,229.31,428.91,229.31,427.33,227.19Z"/><path class="cls-54" d="M394.27,217.77H399c.17,2.29-.3,4.37-3.13,3.73C395.08,221.33,394.78,219.07,394.27,217.77Z"/><path class="cls-5" d="M247.83,222.48H243.1c-1.19-1-1.58-2.09-1.19-3.14s.79-1.57,1.19-1.57h4.73Z"/><path class="cls-49" d="M295.06,547.45q4.9-.18,4.73,4.71c-1.58,2.22-3.15,2.22-4.73,0q-2.4-1.56-1.6-3.14C294,548,294.52,547.45,295.06,547.45Z"/><path class="cls-93" d="M389.54,547.45h4.73v4.71Q389.37,552.34,389.54,547.45Z"/><path class="cls-89" d="M512.36,552.16q-.18-4.89,4.73-4.71c.66.84,1.32,1.67,2,2.5-.39,1-.79,2-1.19,3A4.17,4.17,0,0,1,512.36,552.16Z"/><path class="cls-4" d="M517.09,552.16v-4.71h4.72v4.71C520.24,553.79,518.66,553.79,517.09,552.16Z"/><path class="cls-3" d="M247.83,217.77v-4.71q2.35-3.21,4.72,0C252.67,216.32,251.09,217.89,247.83,217.77Z"/><path class="cls-40" d="M361.2,208.35v4.71q-4.9.18-4.73-4.71C358.05,206.45,359.62,206.45,361.2,208.35Z"/><ellipse class="cls-102" cx="358.84" cy="205.99" rx="3.34" ry="3.33"/><path class="cls-83" d="M399,556.87v-4.71q4.9-.18,4.72,4.71Z"/><path class="cls-36" d="M351.75,203.64v-4.71q4.9-.18,4.72,4.71Z"/><path class="cls-105" d="M328.13,203.64v-4.71h4.73Q333,203.82,328.13,203.64Z"/><path class="cls-66" d="M299.79,556.87h4.72q.18,4.89-4.72,4.71l-2.15-2.35Z"/><path class="cls-56" d="M474.57,198.93h-4.72c-.6-.85-1.2-1.69-1.81-2.53.4-1,.81-1.91,1.21-2.87l2.89-1.19,2.91,1.16A4,4,0,0,1,474.57,198.93Z"/><path class="cls-73" d="M408.44,561.58h-4.73v-4.71Q408.62,556.69,408.44,561.58Z"/><path class="cls-56" d="M436.78,561.58c-.17-2.29.3-4.37,3.13-3.73.77.17,1.08,2.43,1.59,3.73A3.42,3.42,0,0,1,436.78,561.58Z"/><path class="cls-4" d="M469.85,194.22v4.71q-4.91.18-4.73-4.71C466.7,192.43,468.27,192.43,469.85,194.22Z"/><path class="cls-105" d="M337.58,194.22v4.71h-4.72v-4.71A3.4,3.4,0,0,1,337.58,194.22Z"/><path class="cls-4" d="M469.85,194.22h-4.73v-4.71l2.37-1.8,2.36,1.8c1.55,1.05,2.06,2.09,1.55,3.14S470.37,194.22,469.85,194.22Z"/><path class="cls-95" d="M502.91,571c2.3-.17,4.39.3,3.75,3.12-.18.77-2.44,1.07-3.75,1.59Z"/><path class="cls-3" d="M465.12,189.51q-4.9.18-4.72-4.71l3.25-.68a3.61,3.61,0,0,1,2.14,3.28C465.73,188.81,465.51,189.51,465.12,189.51Z"/><path class="cls-106" d="M455.68,184.8q-.18-4.89,4.72-4.71a3,3,0,0,1,1.05,3.14c-.35,1.05-.7,1.57-1.05,1.57Z"/><path class="cls-3" d="M271.44,585.13c-2.29.17-4.38-.3-3.74-3.12.17-.77,2.44-1.07,3.74-1.59Z"/><ellipse class="cls-3" cx="354.11" cy="582.78" rx="3.34" ry="3.33"/><path class="cls-3" d="M408.44,156.54q4.9-.18,4.72,4.71Q408.26,161.43,408.44,156.54Z"/><path class="cls-3" d="M309.24,594.55c.16,2.29-.3,4.38-3.13,3.74-.78-.18-1.08-2.44-1.6-3.74Z"/><path class="cls-3" d="M356.47,151.83h4.73q.18,4.89-4.73,4.71a3.24,3.24,0,0,1-.91-3.14C355.86,152.36,356.17,151.83,356.47,151.83Z"/><path class="cls-3" d="M573.77,415.58v-9.42c1.58-2.12,3.15-2.12,4.73,0a7.14,7.14,0,0,0,4.71,2.28,7.6,7.6,0,0,0,4.73-2.28q-.18-4.89,4.73-4.71c1.45-1.7,3.36-2.93,4.72-4.71h4.73c5.17-6,13.53.58,18.89-4.71l9.45,4.71a3.25,3.25,0,0,1,.92,3.14c-.31,1.05-.62,1.57-.92,1.57-3.76,4.47-10,1.55-14.17,4.71-2.72,2.57-8.17,3.78-4.73,9.42V425c1.88,1.55,2,4.08,3.32,5.93a14.21,14.21,0,0,0,3.69,2.64,18.47,18.47,0,0,1,3.87,2.42,17.53,17.53,0,0,1,3.3,3.14q3,3.19-.34,6.05c-4.75,1-9.51,2.09-13.84-1.34q-2.29-2.43-4.72-4.71c-1.49-1.66-3.23-3.06-4.72-4.71l-9.45-4.71L590.72,428a10.53,10.53,0,0,0-1.79-4.61,35.24,35.24,0,0,1-3.19-3.71,17.34,17.34,0,0,0-2.52-4.1Z"/><path class="cls-107" d="M545.43,166c1.61,5.5,4.69,9.19,11,9.54,1,.05,1.94,1.66,2.9,2.55a19.44,19.44,0,0,1-3.8,2c-3.23.89-8-2.09-9.41,2.87-.53,1.84,8.28,5.06-.46,6.43-4.55.71-7,3.88-8.62,6.72s-.91,7.35-1,11.11c0,2.37-.37,4.42-2.47,5.83-.77-2-1.43-4-2.32-6-2.58-5.58,5.42-14-4.71-17.51,0,0-2.22-.78-2.22-.77a9.93,9.93,0,0,0-2.5-3.94c-.75-7.71-6.84-3.52-10.51-4.76a18.21,18.21,0,0,1-3.66-2.3,17.82,17.82,0,0,1,3.66-2.31c3.67-1.24,10.54,2.92,10.29-4.75s15.87-3,9.79-14.15c-1-1.83.45-4.92,3-3.67,3.33,1.64,1,5.54,1.62,8.39C538.38,164.32,543.11,162.73,545.43,166Z"/><path class="cls-108" d="M616.29,476.81h-4.73c-.68-5-7-8.13-4.72-14.13l9.45,4.71c1.57-1.79,3.15-1.79,4.72,0v9.42C619.44,478.45,617.86,478.45,616.29,476.81Z"/><path class="cls-3" d="M606.84,523.9h4.72c1.29,1.86,3.21,3.09,4.73,4.71a65.54,65.54,0,0,0,4.72,4.71V538q2.49,1.58,1.66,3.14c-.55,1.05-1.1,1.57-1.66,1.57h-4.72c-2.81-.33-3.09-3.2-4.73-4.71a13.19,13.19,0,0,0-3.9-2.52s-.82-2.19-.82-2.19v-4.71c-1.2-1-1.6-2.09-1.2-3.14S606.44,523.9,606.84,523.9Z"/><path class="cls-109" d="M540.71,264.87h-9.45a44.75,44.75,0,0,0-4.73-4.71c-2.94-9.22,7.38-5.21,9.45-9.42.79-.6,1.58-1.19,2.36-1.8l2.37,1.8Z"/><path class="cls-110" d="M536,250.74c.34,4.42-2.69,4.42-5.86,4.8-2.37.27-4.12,1.75-3.59,4.62h-9.44C519.73,249.73,527.92,250.36,536,250.74Z"/><path class="cls-111" d="M592.67,283.71V279a4.51,4.51,0,0,1,4.83-1.15,15.08,15.08,0,0,1,3.06,4.39,23.78,23.78,0,0,1,1.51,5.17c.49,2.69,1.78,5.2,1.84,8-1,3.07-3.31,4.27-6.29,4.6a6.28,6.28,0,0,1-5-2.17,11.92,11.92,0,0,1-3.21-4.35,14.22,14.22,0,0,1,0-5.44A11.57,11.57,0,0,1,592.67,283.71Z"/><path class="cls-52" d="M597.39,283.71V279c1.58-1.79,3.15-1.79,4.73,0,9.1,2.2,2.92,9.49,4.72,14.12l-2.36,1.61-2.36-1.61q-4.9.18-4.73-4.7c1.25-1.05,1.67-2.1,1.25-3.14S597.81,283.71,597.39,283.71Z"/><path class="cls-112" d="M597.39,538h4.73v4.71c-8.07.38-16.25,1-18.9-9.42h9.45C594.08,535.06,595.84,536.44,597.39,538Z"/><path class="cls-113" d="M526.53,288.42v-4.71h4.73c3.15-2.7,6.3-2.79,9.45,0C539.64,295.36,538.81,295.64,526.53,288.42Z"/><path class="cls-114" d="M621,392c.29,4.08-2.33,4.73-5.55,4.71H602.12c2.31-6.29,4.51-12.39,12.5-4.86C615.77,393,618.83,392,621,392Z"/><path class="cls-60" d="M578.5,406.16h-4.73c0-3.09.2-6.2-.06-9.27-.24-2.84,1.18-4.48,3.56-4.76,3.16-.37,6.3.1,6,4.61-1.89,1.25-3,3.28-4.72,4.71Z"/><path class="cls-114" d="M616.29,406.16c2.21-9.08,9.52-2.92,14.17-4.71C628.11,410.13,623.31,411.45,616.29,406.16Z"/><path class="cls-75" d="M602.12,335.51l-9.45-4.71c.4-7,5.87-4,9.45-4.71,1.57-1.82,3.15-1.82,4.72,0Z"/><path class="cls-3" d="M616.29,302.54h-9.45c-2.81-3.14-2.74-6.28,0-9.42,3.58.71,9-2.33,9.45,4.71a3,3,0,0,1,1.06,3.14C617,302,616.64,302.54,616.29,302.54Z"/><path class="cls-52" d="M540.71,283.71h-9.45l4.72-9.42c-1.2-1.05-1.6-2.1-1.2-3.14s.8-1.57,1.2-1.57h4.73Z"/><path class="cls-115" d="M606.84,326.09h-4.72c.38-2.73-.09-7.19,1.31-7.89,4.08-2,5.25,3.09,7.3,5.19C611.8,324.49,609.12,326.37,606.84,326.09Z"/><path class="cls-84" d="M545.43,166c-3.58-.71-9,2.34-9.45-4.71,3.86,0,7.74-.15,11.58.14.68.05,1.23,1.93,1.84,3Z"/><path class="cls-109" d="M460.4,184.8v-4.71a6.27,6.27,0,0,1,4.67-2.16,8.57,8.57,0,0,1,4.78,2.16,3,3,0,0,1,1.06,3.14c-.35,1.05-.71,1.57-1.06,1.57v4.71h-4.73Q465.3,184.62,460.4,184.8Z"/><path class="cls-60" d="M597.39,349.64c6.68,1.25,6.37,5.59,2.54,8.75-2.49,2.06-7.13,1.49-7.26-4C593,351.51,596.08,351.47,597.39,349.64Z"/><path class="cls-114" d="M611.56,415.58c-4.48.34-5.21-2.81-4.61-5.89,1.11-5.66,6-2.89,9.34-3.53Z"/><path class="cls-116" d="M592.67,283.71v4.71a7.66,7.66,0,0,1-4.74,2.68,7.18,7.18,0,0,1-4.71-2.68H578.5C580.71,279.34,588,285.5,592.67,283.71Z"/><path class="cls-101" d="M625.74,439.13H621a38.89,38.89,0,0,0-4.72-4.71c-1.21-1.05-1.61-2.09-1.21-3.14s.8-1.57,1.21-1.57Q627.89,427.56,625.74,439.13Z"/><path class="cls-117" d="M625.74,443.84v-4.71c1.3.52,3.08.67,3.82,1.62,1.6,2.08,5.93,3.15,4.49,6.26s-5.48,1-8.31,1.54c-1.66-1.05-2.21-2.09-1.66-3.14S625.18,443.84,625.74,443.84Z"/><path class="cls-52" d="M625.74,519.19c1.77,1,4,1.59,5.18,3s6.45,3.13,2.09,5.81c-2.88,1.76-7.19,1.33-7.27-4.15-1.21-1-1.61-2.09-1.21-3.14S625.33,519.19,625.74,519.19Z"/><path class="cls-114" d="M625.74,443.84v4.71H621c-3.58-.71-9,2.33-9.45-4.71Z"/><path class="cls-118" d="M606.84,293.12v9.42h-9.45c-1.21-1-1.61-2.09-1.21-3.14s.81-1.57,1.21-1.57q4.9.18,4.73-4.71Z"/><path class="cls-119" d="M517.09,552.16h4.72c-.64,3.34,2.14,8.21-3.54,9.31-3.09.6-6.25-.12-5.91-4.6Q514.66,554.45,517.09,552.16Z"/><path class="cls-120" d="M621,467.39h-4.72q-.18-4.89,4.72-4.71c1.55,0,3.09.05,4.63,0,2.3-.09,4.48.25,3.82,3.15-.17.77-2.45,1.28-3.82,1.52A27.47,27.47,0,0,1,621,467.39Z"/><path class="cls-108" d="M621,542.74V538c1.55,0,3.09.06,4.63,0,2.3-.1,4.48.25,3.82,3.15-.17.77-2.45,1.28-3.82,1.51A27.47,27.47,0,0,1,621,542.74Z"/><path class="cls-76" d="M611.56,538q4.91-.18,4.73,4.71c.14,2.29-.25,4.46-3.18,3.69-.79-.21-1.26-2.44-1.49-3.81A28.09,28.09,0,0,1,611.56,538Z"/><path class="cls-101" d="M569.05,283.71v4.71c-1.55,0-3.09-.06-4.63,0-2.3.1-4.48-.25-3.82-3.15.17-.77,2.45-1.28,3.83-1.52A28.45,28.45,0,0,1,569.05,283.71Z"/><path class="cls-114" d="M616.29,429.71v4.71c-7.07-.4-4-5.85-4.73-9.42Q616.47,424.82,616.29,429.71Z"/><path class="cls-61" d="M526.53,189.51c.25,3.83-2.09,4.94-5.3,4.63-1.24-.12-3.4-1.1-3.41-1.72,0-2.38,1.71-3.21,4-2.91C523.38,187.86,525,187.86,526.53,189.51Z"/><path class="cls-101" d="M578.44,570.45c.4,2.52-.49,4.09-2.71,4.86-.65-1.92-1.7-3.83-1.8-5.78a4,4,0,0,1,2.39-3.1C580.75,565.71,577.41,569.39,578.44,570.45Z"/><path class="cls-90" d="M484,217.77v4.71c-3.85.25-4.95-2.09-4.65-5.29.12-1.24,1.11-3.39,1.73-3.4C483.48,213.75,484.32,215.5,484,217.77Z"/><path class="cls-84" d="M602.12,279h-9.45c-.34-4.42,2.69-5,5.86-4.62C600.89,274.64,602.65,276.13,602.12,279Z"/><path class="cls-52" d="M493.47,589.84q-4.91.18-4.73-4.71a3.1,3.1,0,0,1,4.73,0q4.9-.18,4.72,4.71A3.09,3.09,0,0,1,493.47,589.84Z"/><path class="cls-89" d="M446.23,166c-2.28.3-4-.53-4-2.91,0-.62,2.17-1.6,3.41-1.72,3.21-.31,5.55.8,5.3,4.63C449.38,167.81,447.8,167.81,446.23,166Z"/><path class="cls-101" d="M578.5,401.45q-.18-4.89,4.72-4.71Q583.4,401.63,578.5,401.45Z"/><path class="cls-114" d="M597.39,396.74q.18,4.89-4.72,4.71Q592.49,396.56,597.39,396.74Z"/><path class="cls-114" d="M630.46,401.45v-4.71c2.3-.17,4.39.3,3.74,3.12C634,400.63,631.76,400.93,630.46,401.45Z"/><path class="cls-101" d="M597.39,349.64q.18,4.89-4.72,4.71c-1.21-1-1.62-2.09-1.21-3.14s.8-1.57,1.21-1.57Z"/><path class="cls-100" d="M583.22,410.87q-4.9.18-4.72-4.71h4.72a3,3,0,0,1,1.06,3.14C583.93,410.35,583.57,410.87,583.22,410.87Z"/><path class="cls-114" d="M583.22,410.87v-4.71h4.72Q588.12,411.05,583.22,410.87Z"/><ellipse class="cls-3" cx="590.31" cy="352" rx="3.34" ry="3.33"/><path class="cls-4" d="M592.67,330.8q.18,4.89-4.73,4.71Q587.76,330.62,592.67,330.8Z"/><path class="cls-60" d="M602.8,310.29c.54-1,1.11-2,1.68-3,.52.53,1.56,1.17,1.47,1.55a14.34,14.34,0,0,1-1.47,3.16Z"/><path class="cls-121" d="M587.94,302.54h4.73q.18,4.89-4.73,4.71c-1.21-1-1.61-2.09-1.21-3.14S587.54,302.54,587.94,302.54Z"/><path class="cls-118" d="M616.29,302.54v-4.71c2.29-.16,4.39.3,3.74,3.12C619.86,301.73,617.59,302,616.29,302.54Z"/><ellipse class="cls-121" cx="595.03" cy="300.19" rx="3.34" ry="3.33"/><path class="cls-120" d="M616.29,476.81H621q.18,4.89-4.72,4.71Z"/><path class="cls-60" d="M573.77,274.29c2.3-.17,4.39.3,3.75,3.12-.18.77-2.44,1.07-3.75,1.59a3,3,0,0,1-1-3.14C573.07,274.81,573.42,274.29,573.77,274.29Z"/><path class="cls-90" d="M573.77,274.29V279h-4.72Q568.87,274.11,573.77,274.29Z"/><path class="cls-27" d="M545.43,264.87c2.3-.17,4.39.3,3.75,3.12-.18.77-2.44,1.07-3.75,1.59-1.21-1.05-1.62-2.1-1.21-3.14S545,264.87,545.43,264.87Z"/><ellipse class="cls-61" cx="543.07" cy="267.22" rx="3.34" ry="3.33"/><path class="cls-60" d="M625.74,519.19v4.71q-4.9.18-4.73-4.71Z"/><path class="cls-109" d="M512.36,260.16h-4.72c-1.35-1.05-1.8-2.1-1.35-3.14s.9-1.57,1.35-1.57Q512.55,255.27,512.36,260.16Z"/><path class="cls-61" d="M507.64,255.45v4.71c-1.58,1.66-3.15,1.66-4.73,0v-4.71Z"/><path class="cls-76" d="M616.29,528.61q-4.9.18-4.73-4.71Q616.47,523.72,616.29,528.61Z"/><path class="cls-27" d="M540.71,246c2.29-.17,4.38.3,3.74,3.12-.17.77-2.44,1.07-3.74,1.59a3,3,0,0,1-1.06-3.14C540,246.55,540.35,246,540.71,246Z"/><path class="cls-99" d="M621,533.32q-4.9.18-4.72-4.71Q621.19,528.43,621,533.32Z"/><path class="cls-89" d="M540.71,246v4.71H536Q535.8,245.85,540.71,246Z"/><path class="cls-4" d="M602.12,538q-.18-4.89,4.72-4.71a3,3,0,0,1,1.06,3.14c-.36,1-.71,1.57-1.06,1.57Z"/><path class="cls-76" d="M606.84,538v-4.71q4.9-.18,4.72,4.71Z"/><path class="cls-109" d="M517.09,552.16q.18,4.89-4.73,4.71v-4.71Z"/><path class="cls-4" d="M436.78,561.58h4.72c.17,2.29-.3,4.38-3.13,3.74C437.6,565.14,437.3,562.88,436.78,561.58Z"/><path class="cls-3" d="M479.3,189.51v4.71a3.12,3.12,0,0,1-4.73,0c-1.21-1.05-1.61-2.09-1.21-3.14s.81-1.57,1.21-1.57Z"/><ellipse class="cls-108" cx="472.21" cy="191.86" rx="3.34" ry="3.33"/><path class="cls-3" d="M526.53,189.51h-4.72V184.8Q526.72,184.62,526.53,189.51Z"/><path class="cls-108" d="M469.85,184.8v-4.71c2.29-.17,4.39.3,3.74,3.12C473.42,184,471.15,184.28,469.85,184.8Z"/><path class="cls-27" d="M493.47,585.13h-4.73c-.17-2.29.3-4.37,3.13-3.73C492.65,581.57,493,583.83,493.47,585.13Z"/><path class="cls-108" d="M469.85,180.09h-4.73c-1.21-1.05-1.61-2.09-1.21-3.14s.81-1.57,1.21-1.57Q470,175.2,469.85,180.09Z"/><ellipse class="cls-106" cx="462.76" cy="177.74" rx="3.34" ry="3.33"/><path class="cls-52" d="M460.4,175.38h-4.72c-1.22-1-1.62-2.09-1.22-3.14s.81-1.57,1.22-1.57Q460.59,170.49,460.4,175.38Z"/><path class="cls-60" d="M493.47,589.84h4.72c.17,2.29-.3,4.38-3.13,3.74C494.29,593.4,494,591.14,493.47,589.84Z"/><ellipse class="cls-101" cx="453.31" cy="173.03" rx="3.34" ry="3.33"/><ellipse class="cls-90" cx="448.59" cy="168.32" rx="3.34" ry="3.33"/><path class="cls-122" d="M210,533.32c.72,3.57-2.34,9,4.73,9.42v4.71H200.59a5.28,5.28,0,0,1-2.2-4.62,7.5,7.5,0,0,1,2.2-4.8C201,528.77,201.4,528.55,210,533.32Z"/><path class="cls-123" d="M318.68,194.22H299.79a3.25,3.25,0,0,1-.92-3.14c.31-1.05.61-1.57.92-1.57a47.69,47.69,0,0,0,4.72-4.71H314a7.2,7.2,0,0,0,4.72,0q4.9-.18,4.73,4.71a3.61,3.61,0,0,1,1.47,3.42c-.22,1.27-.5,1.9-.85,1.9A3.81,3.81,0,0,1,318.68,194.22Z"/><path class="cls-59" d="M172.24,453.26v14.13a7.7,7.7,0,0,1,2.77,4.87,9.51,9.51,0,0,1-2.12,5.26,5.36,5.36,0,0,1-5.37-.71c-.33-5.83-.36-11.7-1.16-17.46-.28-2-5.55-3.54-.77-6C167.38,452.5,170,453.26,172.24,453.26Z"/><path class="cls-124" d="M167.52,476.81h4.72a6.5,6.5,0,0,1,2.51,5,9.65,9.65,0,0,1-2.06,5.39,4.19,4.19,0,0,1-5.17-1c-1.4-1.75-3.18-3.12-4.72-4.71-2.3.14-4.47-.25-3.7-3.17.21-.79,2.45-1.25,3.82-1.49A28.2,28.2,0,0,1,167.52,476.81Z"/><path class="cls-125" d="M177,486.23c3.58.71,9-2.34,9.44,4.71a10.26,10.26,0,0,1-4.8,2.29,7.65,7.65,0,0,0-4.64,2.42h-4.73l-1.84-1.33a4.56,4.56,0,0,1-.52-4.36,5.3,5.3,0,0,1,2.36-3.73C173.82,484,175.39,484,177,486.23Z"/><path class="cls-87" d="M177,542.74q-4.91.18-4.73-4.71a3.73,3.73,0,0,1-1.68-3.2c.09-1.27.28-1.91.6-1.91a10.56,10.56,0,0,1,5.29-2.54l3,.21,2.72,1.2a6.77,6.77,0,0,1,1.39,5.42C182,539.83,179,540.72,177,542.74Z"/><path class="cls-64" d="M266.72,533.32c.53,1.31,1.11,2.6,1.56,3.93.54,1.6,5,2.21,1.39,4.77a5.72,5.72,0,0,1-4.24.64c-5.46-1.41-2.83-6-3.43-9.34l2.36-1.56Z"/><path class="cls-126" d="M295.06,547.45v4.71c-1.31.53-2.6,1.11-3.94,1.56-1.6.53-2.21,5-4.78,1.38a5.69,5.69,0,0,1-.64-4.23C287.12,545.44,291.72,548.06,295.06,547.45Z"/><path class="cls-74" d="M243.1,217.77v4.71h-9.45a3.24,3.24,0,0,1-.91-3.14c.3-1.05.61-1.57.91-1.57a12.45,12.45,0,0,0,2.5-3.94s2.23-.77,2.23-.77Q243.29,212.88,243.1,217.77Z"/><path class="cls-127" d="M177,542.74q-.18-4.89,4.72-4.71a5,5,0,0,1,4.57-2.39,9.3,9.3,0,0,1,4.88,2.39v4.71Z"/><path class="cls-96" d="M195.86,293.12v4.71c-3.35-.63-8.23,2.14-9.33-3.53-.6-3.08.12-6.23,4.61-5.88A28.36,28.36,0,0,0,195.86,293.12Z"/><path class="cls-128" d="M247.63,540.83l-7.49,6c-.59-1.22-1.59-2.41-1.69-3.67-.45-5.47,3.43-5,7.16-5.26C247.86,537.78,248.56,538,247.63,540.83Z"/><path class="cls-59" d="M172.24,495.65c-.4,7-5.86,4-9.44,4.71a3,3,0,0,1-1.07-3.14c.36-1.05.71-1.57,1.07-1.57q-.18-4.89,4.72-4.71s2.17.86,2.18.85A8.11,8.11,0,0,0,172.24,495.65Z"/><path class="cls-57" d="M191.14,340.22c-7.07-.4-4-5.85-4.73-9.42a3,3,0,0,1-1.06-3.14c.35-1,.71-1.57,1.06-1.57q4.91-.18,4.73,4.71a8.06,8.06,0,0,1,2.4,4.8A5.51,5.51,0,0,1,191.14,340.22Z"/><path class="cls-128" d="M167.52,538l-1.61,4c-1-.61-2.92-1.15-3-1.84-.3-3.82-.14-7.69-.14-11.54a4.06,4.06,0,0,1,4.94-.25,7.24,7.24,0,0,1,2.06,4.93A6,6,0,0,1,167.52,538Z"/><path class="cls-86" d="M233.65,208.35q4.9-.18,4.73,4.71c-1.58,1.66-3.15,1.66-4.73,0q-4.91.18-4.72-4.71A3.09,3.09,0,0,1,233.65,208.35Z"/><path class="cls-3" d="M195.86,246c-1.54,0-3.09-.06-4.63,0-2.3.1-4.47-.25-3.82-3.15.17-.77,2.45-1.28,3.83-1.51a27.36,27.36,0,0,1,4.62-.06,3.25,3.25,0,0,1,.92,3.14C196.47,245.5,196.17,246,195.86,246Z"/><path class="cls-57" d="M233.65,246v4.71h-4.72v-9.42l2.57-1.81,2.87,1.3C235.77,242.77,235.44,244.5,233.65,246Z"/><path class="cls-105" d="M318.68,194.22h4.73c1.57-1.66,3.15-1.66,4.72,0v4.71C324.55,198.22,319.09,201.27,318.68,194.22Z"/><path class="cls-126" d="M172.24,505.07v4.7a3.79,3.79,0,0,1-.26,5.06,4.68,4.68,0,0,1-5.33,0,3.79,3.79,0,0,1,.87-5.06Q167.34,504.9,172.24,505.07Z"/><path class="cls-86" d="M257.27,533.32q.18,4.89-4.72,4.71c-1.2-1-1.6-2.09-1.2-3.14s.8-1.57,1.2-1.57q-.18-4.89,4.72-4.71l1.82,2.36Z"/><path class="cls-96" d="M186.41,547.45h9.45c1.21,1,1.61,2.1,1.21,3.14s-.8,1.57-1.21,1.57h-9.45c-1.2-1-1.6-2.09-1.2-3.14S186,547.45,186.41,547.45Z"/><path class="cls-64" d="M167.52,514.48h4.72l1.16,2a4.32,4.32,0,0,1-2.16,3.87L169,521l-1.49-1.77q-4.91.18-4.72-4.71Q165.16,512,167.52,514.48Z"/><path class="cls-86" d="M162.8,377.9v4.71c-3.85.25-5-2.09-4.65-5.29.12-1.23,1.11-3.38,1.73-3.4C162.26,373.88,163.09,375.63,162.8,377.9Z"/><path class="cls-86" d="M318.68,184.8c.17,2.29-.3,4.37-3.13,3.73-.77-.17-1.07-2.43-1.59-3.73-.17-2.29.3-4.37,3.13-3.73C317.86,181.24,318.16,183.5,318.68,184.8Z"/><path class="cls-64" d="M195.86,552.16v-9.42a3.13,3.13,0,0,1,4.73,0v4.71Q200.77,552.34,195.86,552.16Z"/><path class="cls-64" d="M205.31,375.29c-.93.73-2.11,2.23-2.75,2-1.83-.57-2.14-2-.89-2.77a18.43,18.43,0,0,1,3.64-1.36Z"/><path class="cls-74" d="M186.41,344.93c.13,3.26-1.45,4.83-4.72,4.71C181.57,346.38,183.15,344.81,186.41,344.93Z"/><path class="cls-129" d="M200.59,335.51v4.71h-4.73c-.67-.78-1.33-1.57-2-2.35.66-.79,1.34-1.57,2-2.36Z"/><ellipse class="cls-5" cx="202.95" cy="333.16" rx="3.34" ry="3.33"/><path class="cls-87" d="M191.14,335.51V330.8q4.91-.18,4.72,4.71C194.29,337.17,192.71,337.17,191.14,335.51Z"/><path class="cls-128" d="M186.41,326.09v4.71c-2.29.17-4.38-.3-3.74-3.12C182.85,326.91,185.11,326.61,186.41,326.09Z"/><path class="cls-127" d="M200.59,321.38v4.71c-2.3.17-4.39-.3-3.75-3.12C197,322.2,199.28,321.9,200.59,321.38Z"/><path class="cls-92" d="M200.59,316.67q-4.91.18-4.73-4.71a3.13,3.13,0,0,1,4.73,0,3,3,0,0,1,1,3.14C201.29,316.15,200.94,316.67,200.59,316.67Z"/><path class="cls-3" d="M200.59,312h-4.73q-.18-4.89,4.73-4.71Z"/><ellipse class="cls-3" cx="202.95" cy="304.9" rx="3.34" ry="3.33"/><path class="cls-5" d="M162.8,481.52c3.26-.12,4.84,1.45,4.72,4.71Q162.62,486.41,162.8,481.52Z"/><path class="cls-5" d="M172.24,486.23v4.71a3.12,3.12,0,0,1-4.72,0v-4.71Z"/><path class="cls-46" d="M195.86,293.12q-4.91.18-4.72-4.7Q196,288.24,195.86,293.12Z"/><path class="cls-64" d="M162.8,495.65v4.71c-2.3.16-4.39-.3-3.75-3.12C159.23,496.46,161.49,496.16,162.8,495.65Z"/><path class="cls-128" d="M167.52,514.48H162.8q-.18-4.87,4.72-4.71Z"/><path class="cls-5" d="M167.52,519.19h4.72l1.44,2-.24,2.42-1.73,1.72-2.42.3-1.77-1.69Z"/><path class="cls-87" d="M252.55,519.19v4.71c-2.3.17-4.39-.3-3.75-3.12C249,520,251.24,519.71,252.55,519.19Z"/><path class="cls-74" d="M167.52,528.61H162.8q-.18-4.89,4.72-4.71l1.78,2.36Z"/><path class="cls-3" d="M233,526.94l-1.68,1.67a14.85,14.85,0,0,1-1.48-3.16c-.08-.39,1-1,1.48-1.55C231.86,524.93,232.43,526,233,526.94Z"/><path class="cls-64" d="M257.27,523.9H262c.58.87,1.16,1.73,1.75,2.59-.4,1-.8,1.93-1.21,2.89l-2.87,1.28-2.4-2Z"/><path class="cls-59" d="M266.72,523.9h4.72A3,3,0,0,1,272.5,527c-.35,1.05-.7,1.57-1.06,1.57h-4.72l-1.85-1.23s0-2.21,0-2.21Z"/><path class="cls-5" d="M224.21,260.16h-4.73v-4.71a3.12,3.12,0,0,1,4.73,0Z"/><path class="cls-87" d="M257.27,528.61H262c1.35,1,1.79,2.1,1.35,3.14s-.9,1.57-1.35,1.57h-4.73Z"/><path class="cls-86" d="M262,533.32v-4.71c1.57-2.14,3.15-2.14,4.72,0v4.71Z"/><path class="cls-86" d="M290.34,528.61v4.71q-4.9.18-4.72-4.71Z"/><path class="cls-3" d="M224.21,255.45h-4.73q-.18-4.89,4.73-4.71Z"/><path class="cls-3" d="M167.52,538v-4.71c1.57-1.62,3.15-1.62,4.72,0V538Z"/><path class="cls-86" d="M252.55,533.32V538h-4.72Q247.65,533.14,252.55,533.32Z"/><path class="cls-3" d="M214.08,249.06c-.63.63-1.16,1.15-1.68,1.68a14.82,14.82,0,0,1-1.48-3.16c-.09-.39,1-1,1.48-1.55Z"/><path class="cls-92" d="M195.86,246v-4.71c2.3-.17,4.39.3,3.75,3.12C199.43,245.21,197.17,245.51,195.86,246Z"/><path class="cls-46" d="M233.65,241.32h-4.72q-.18-4.89,4.72-4.71c1.21,1,1.61,2.09,1.21,3.14S234.06,241.32,233.65,241.32Z"/><path class="cls-127" d="M186.41,547.45v4.71a3.42,3.42,0,0,1-4.72,0C181.57,548.9,183.15,547.33,186.41,547.45Z"/><path class="cls-127" d="M219.1,550.19c-.55.55-1.32,1.55-1.5,1.45-1-.55-2.29-1.17-2.76-2.13-1-2,0-2.94,2-2C217.79,548,218.36,549.28,219.1,550.19Z"/><path class="cls-86" d="M233.65,217.77v4.71c-2.29.17-4.38-.3-3.74-3.12C230.08,218.59,232.35,218.29,233.65,217.77Z"/><path class="cls-3" d="M233.65,213.06h4.73q.18,4.89-4.73,4.71Z"/><path class="cls-86" d="M252.55,213.06h-4.72v-4.71a3.4,3.4,0,0,1,4.72,0Z"/><path class="cls-57" d="M181.69,552.16h4.72c.17,2.29-.3,4.38-3.12,3.74C182.51,555.72,182.21,553.46,181.69,552.16Z"/><path class="cls-46" d="M295.06,552.16h4.73v4.71c-1.58,1.91-3.15,1.91-4.73,0Z"/><path class="cls-57" d="M252.55,208.35h-4.72c-.17-2.29.3-4.38,3.12-3.74C251.73,204.79,252,207.05,252.55,208.35Z"/><path class="cls-59" d="M233.65,208.35h-4.72c-.17-2.29.3-4.38,3.13-3.74C232.83,204.79,233.14,207.05,233.65,208.35Z"/><path class="cls-79" d="M347,198.93q.18,4.89-4.73,4.71Q342.12,198.75,347,198.93Z"/><ellipse class="cls-130" cx="297.43" cy="559.23" rx="3.34" ry="3.33"/><path class="cls-92" d="M295.06,563.68c-.93.73-2.1,2.23-2.75,2-1.82-.57-2.13-2-.89-2.77a18.43,18.43,0,0,1,3.64-1.36Z"/><path class="cls-64" d="M337.58,194.22h-4.72c-.17-2.29.3-4.37,3.12-3.73C336.76,190.66,337.06,192.92,337.58,194.22Z"/><path class="cls-46" d="M328.13,194.22h-4.72v-4.71Q328.32,189.33,328.13,194.22Z"/><path class="cls-46" d="M299.79,189.51v4.71c-2.3.17-4.39-.3-3.75-3.12C296.22,190.33,298.48,190,299.79,189.51Z"/><path class="cls-74" d="M304.51,184.8q.18,4.89-4.72,4.71Q299.61,184.62,304.51,184.8Z"/><path class="cls-46" d="M356.47,151.83v4.71c-2.29.17-4.38-.3-3.74-3.12C352.9,152.65,355.17,152.35,356.47,151.83Z"/><path class="cls-53" d="M393.58,131.32,391.9,133a14.34,14.34,0,0,1-1.47-3.16c-.09-.39.95-1,1.47-1.55Z"/><path class="cls-131" d="M587.94,462.68h-4.72v-9.42c3.58,4.85,12.7,1.42,14.17,9.42h-4.72C591.09,464.46,589.52,464.46,587.94,462.68Z"/><path class="cls-4" d="M587.94,434.42v-4.71c1.58-2.12,3.15-2.12,4.73,0Q592.85,434.6,587.94,434.42Z"/><path class="cls-114" d="M602.12,434.42q4.9-.18,4.72,4.71Q601.94,439.31,602.12,434.42Z"/><path class="cls-114" d="M606.84,439.13q4.9-.18,4.72,4.71Q606.66,444,606.84,439.13Z"/><path class="cls-99" d="M498.19,373.19h-4.72c-.17-2.29.3-4.37,3.13-3.73C497.37,369.63,497.67,371.89,498.19,373.19Z"/><path class="cls-33" d="M573.77,349.64v-4.71q4.9-.18,4.73,4.71Z"/><path class="cls-3" d="M299.79,500.36v-4.71q4.9-.18,4.72,4.71Z"/><path class="cls-86" d="M280.89,519.19v-4.71q4.91-.18,4.73,4.71Z"/><path class="cls-128" d="M276.17,523.9q-.18-4.89,4.72-4.71Q281.07,524.08,276.17,523.9Z"/><path class="cls-49" d="M290,521.93c-.54.55-1.31,1.55-1.49,1.46-1-.56-2.3-1.18-2.76-2.13-1-2,0-3,2-2C288.65,519.74,289.21,521,290,521.93Z"/><path class="cls-128" d="M271.44,528.61V523.9h4.73Q276.35,528.79,271.44,528.61Z"/><path class="cls-102" d="M323.41,208.35h-4.73c-.16-2.29.3-4.38,3.13-3.74C322.59,204.79,322.89,207.05,323.41,208.35Z"/><path class="cls-101" d="M569.05,538v-4.71h4.72V538C572.2,539.88,570.62,539.88,569.05,538Z"/><path class="cls-56" d="M569.05,538h4.72a3.26,3.26,0,0,1,.92,3.14c-.31,1.05-.61,1.57-.92,1.57h-4.72Z"/><path class="cls-27" d="M573.77,542.74V538c2.3-.16,4.39.3,3.75,3.12C577.34,541.93,575.08,542.23,573.77,542.74Z"/><path class="cls-73" d="M285.62,283.71h4.72c.12,3.26-1.45,4.82-4.72,4.71-1.22-1.05-1.62-2.1-1.22-3.14S285.21,283.71,285.62,283.71Z"/><path class="cls-5" d="M200.59,316.67V312h4.72Q205.49,316.85,200.59,316.67Z"/><path class="cls-86" d="M191.14,514.48v9.42h-4.73s-1.8-1.48-1.81-1.47a9.11,9.11,0,0,1-1.46-4.43,10.91,10.91,0,0,1,.34-4.65,7.56,7.56,0,0,1,2.93-3.58h4.73c1.2,1.05,1.6,2.1,1.2,3.14S191.54,514.48,191.14,514.48Z"/><path class="cls-44" d="M186.41,523.9v4.71a3.54,3.54,0,0,1-4.87,1.21,5.46,5.46,0,0,1-.18-5.43A3.79,3.79,0,0,1,186.41,523.9Z"/><path class="cls-79" d="M181.69,528.61h4.72v4.71l-2.36,2-2.36-2c-1.2-1-1.6-2.09-1.2-3.14S181.29,528.61,181.69,528.61Z"/><path class="cls-86" d="M191.14,538h-4.73c-1.21-1-1.61-2.09-1.21-3.14s.81-1.57,1.21-1.57Q191.32,533.14,191.14,538Z"/><path class="cls-44" d="M200.59,542.74h-4.73q-.18-4.89,4.73-4.71Z"/><path class="cls-108" d="M587.94,462.68h4.73q.18,4.89-4.73,4.71Z"/><path class="cls-90" d="M583.22,467.39h4.72v4.71Q583,472.28,583.22,467.39Z"/><ellipse class="cls-4" cx="505.28" cy="262.51" rx="3.34" ry="3.33"/><ellipse class="cls-101" cx="495.83" cy="262.51" rx="3.34" ry="3.33"/><path class="cls-132" d="M205.31,420.29c-2.3.17-4.39-.3-3.75-3.12.18-.77,2.44-1.07,3.75-1.59,1.21,1.05,1.62,2.09,1.21,3.14S205.72,420.29,205.31,420.29Z"/><ellipse class="cls-40" cx="207.67" cy="417.93" rx="3.34" ry="3.33"/><path class="cls-73" d="M262,415.58v4.71q-4.9.18-4.73-4.71Z"/><path class="cls-5" d="M177,495.65q-.18-4.89,4.72-4.71a3,3,0,0,1,1.06,3.14c-.35,1-.71,1.57-1.06,1.57Z"/><path class="cls-36" d="M172.24,514.48v-4.71H177a3.34,3.34,0,0,1,.93,3.16c-.29,1.06-.59,1.59-.89,1.6A3.51,3.51,0,0,1,172.24,514.48Z"/><path class="cls-87" d="M177,514.48v-4.71h4.72l2,2.37c-.33,1-.68,1.92-1,2.89l-2.95.86Z"/><path class="cls-3" d="M181.69,514.48v-4.71h4.72v4.71Q184.06,516.92,181.69,514.48Z"/><path class="cls-5" d="M191.14,514.48v-4.71h4.72Q196,514.66,191.14,514.48Z"/><path class="cls-59" d="M262,523.9v-4.71q4.9-.18,4.72,4.71C265.15,525.58,263.57,525.58,262,523.9Z"/><path class="cls-90" d="M536,269.58v4.71h-4.72Q531.08,269.4,536,269.58Z"/><path class="cls-110" d="M526.53,260.16q4.9-.18,4.73,4.71Q526.36,265.05,526.53,260.16Z"/><path class="cls-53" d="M247.83,236.61v4.71c-1.58,1.67-3.15,1.67-4.73,0Q242.92,236.43,247.83,236.61Z"/><path class="cls-36" d="M233.65,241.32v-4.71q4.9-.18,4.73,4.71C236.8,243,235.23,243,233.65,241.32Z"/><path class="cls-73" d="M247.83,231.9h4.72c.12,3.26-1.46,4.83-4.72,4.71Z"/><path class="cls-4" d="M432.06,236.61h-4.73V231.9c1.58-1.66,3.15-1.66,4.73,0Z"/><ellipse class="cls-103" cx="429.69" cy="229.54" rx="3.34" ry="3.33"/><path class="cls-103" d="M606.84,523.9v4.71q-4.9.18-4.72-4.71Z"/><path class="cls-103" d="M597.39,538q-4.9.18-4.72-4.71Q597.58,533.14,597.39,538Z"/><ellipse class="cls-86" cx="193.5" cy="337.87" rx="3.34" ry="3.33"/><path class="cls-108" d="M474.57,194.22h4.73q.18,4.89-4.73,4.71Z"/><path class="cls-133" d="M177,486.23h-4.73V472.1a3.73,3.73,0,0,1,4.5-.94,11.29,11.29,0,0,1,4.95,5.65Z"/><path class="cls-127" d="M181.69,476.81q-4.91.18-4.72-4.71l2.36-2.13c.79.7,1.57,1.41,2.36,2.13h4.72v4.71Z"/><path class="cls-79" d="M186.41,476.81h4.73v4.71Q186.24,481.7,186.41,476.81Z"/><path class="cls-109" d="M460.4,439.13v-4.71a3.1,3.1,0,0,1,4.72,0q2.33,1.56,1.55,3.14c-.51,1-1,1.57-1.55,1.57Z"/><path class="cls-3" d="M465.12,439.13v-4.71h4.73c1.21,1,1.61,2.09,1.21,3.14s-.81,1.57-1.21,1.57Z"/><ellipse class="cls-90" cx="472.21" cy="436.77" rx="3.34" ry="3.33"/><path class="cls-4" d="M550.15,335.51h-4.72q-.18-4.89,4.72-4.71Z"/><path class="cls-3" d="M427.33,250.74h4.73q.18,4.89-4.73,4.71Z"/><path class="cls-36" d="M181.69,495.65v-4.71h4.72C186.54,494.2,185,495.77,181.69,495.65Z"/><ellipse class="cls-96" cx="245.46" cy="243.67" rx="3.34" ry="3.33"/><ellipse class="cls-54" cx="283.25" cy="286.06" rx="3.34" ry="3.33"/><path class="cls-114" d="M583.22,415.58q4.9-.18,4.72,4.71-2.36,2.77-4.72,0Z"/><path class="cls-134" d="M578.5,425h-4.73v-4.71Q578.67,420.11,578.5,425Z"/><path class="cls-4" d="M583.22,420.29h4.72c1.21,1,1.61,2.09,1.21,3.14s-.8,1.57-1.21,1.57h-4.72Z"/><path class="cls-56" d="M465.12,434.42H460.4v-4.71Q465.31,429.53,465.12,434.42Z"/><path class="cls-86" d="M177,472.1h-4.73v-4.71H177c1.21,1,1.61,2.09,1.21,3.14S177.37,472.1,177,472.1Z"/><ellipse class="cls-52" cx="585.58" cy="304.9" rx="3.34" ry="3.33"/><path class="cls-121" d="M592.67,293.12v4.71h-4.73l-2-2.44,1.35-2.85A3.73,3.73,0,0,1,592.67,293.12Z"/><path class="cls-3" d="M587.94,293.12v4.71h-4.72v-4.71Q585.59,290.36,587.94,293.12Z"/><ellipse class="cls-87" cx="179.33" cy="469.74" rx="3.34" ry="3.33"/><path class="cls-56" d="M587.94,293.12h-4.72v-4.7h4.72c1.22,1,1.62,2.09,1.22,3.14S588.35,293.12,587.94,293.12Z"/><ellipse class="cls-52" cx="481.66" cy="333.16" rx="3.34" ry="3.33"/><path class="cls-114" d="M587.94,425v-4.71c7.07.4,4,5.85,4.73,9.42h-4.73Z"/><ellipse class="cls-64" cx="236.02" cy="243.67" rx="3.34" ry="3.33"/><path class="cls-114" d="M616.29,434.42q4.9-.18,4.72,4.71Q616.11,439.31,616.29,434.42Z"/><ellipse class="cls-90" cx="590.31" cy="290.77" rx="3.34" ry="3.33"/><path class="cls-109" d="M597.39,283.71c2.3-.17,4.39.3,3.75,3.12-.18.77-2.44,1.07-3.75,1.59Z"/><path class="cls-87" d="M167.52,490.94h4.72v4.71Q167.33,495.83,167.52,490.94Z"/><path class="cls-135" d="M172.24,533.32h-4.72v-4.71a63.56,63.56,0,0,1,4.72-4.71,4.76,4.76,0,0,1,5.65.82c1.46,3.06,1.89,6-.92,8.6Z"/><path class="cls-128" d="M177,533.32V523.9l1.39-1.35h1.94l1.39,1.36v9.42Z"/><ellipse class="cls-3" cx="184.05" cy="535.68" rx="3.34" ry="3.33"/><path class="cls-92" d="M172.24,514.48H177a4,4,0,0,1,.17,5,3.45,3.45,0,0,1-4.9-.34Z"/><path class="cls-59" d="M172.24,519.19H177l1.77,2.36L177,523.9h-4.73Z"/><path class="cls-57" d="M172.24,523.9q.18,4.89-4.72,4.71V523.9Z"/><ellipse class="cls-92" cx="264.36" cy="526.26" rx="3.34" ry="3.33"/><path class="cls-74" d="M181.69,514.48h4.72v4.71a3.35,3.35,0,1,1-4.72-4.71Z"/><path class="cls-86" d="M181.69,519.19h4.72v4.71h-4.72l-2-2.35C180.34,520.76,181,520,181.69,519.19Z"/><path class="cls-96" d="M181.69,514.48v4.71c-1.57,1.66-3.15,1.66-4.72,0v-4.71Z"/><ellipse class="cls-79" cx="179.33" cy="521.55" rx="3.34" ry="3.33"/><path class="cls-1" d="M400,55.05c-100.78,0-191.41,43.58-254.25,113-.1.09-.15.19-.3.34A344.6,344.6,0,0,0,56.56,400c0,182.16,140.55,331.37,318.75,344.05,8.14.64,16.38.88,24.67.88q14.91,0,29.54-1.27h.05c4.73-.39,9.51-.88,14.14-1.47.92-.15,1.85-.24,2.68-.39C614.15,719.1,743.44,574.74,743.44,400,743.44,209.44,589.68,55.05,400,55.05Zm37.73,643.14c-.73.1-1.51.19-2.34.34-4,.49-8.14.93-12.24,1.23h-.05c-8.38.78-17,1.12-25.54,1.12-7.17,0-14.29-.24-21.36-.78-154.11-11-275.75-140.05-275.75-297.63a297.82,297.82,0,0,1,76.94-200.42,1,1,0,0,1,.19-.3,296,296,0,0,1,220-97.74c164.15,0,297.15,133.59,297.15,298.46C694.69,553.64,582.85,678.5,437.71,698.19Z"/></svg>