<?xml version="1.0" encoding="UTF-8"?><svg id="Layer_1" xmlns="http://www.w3.org/2000/svg" viewBox="0 0 400 181.96"><defs><style>.cls-1{fill:#221f20;}.cls-2{fill:#5aa552;}</style></defs><path class="cls-1" d="m131.13,56.23c-34.67,0-62.78,28.11-62.78,62.78s28.1,62.78,62.78,62.78,62.78-28.11,62.78-62.78-28.11-62.78-62.78-62.78Zm0,112.64c-27.54,0-49.87-22.33-49.87-49.87s22.33-49.87,49.87-49.87,49.87,22.33,49.87,49.87-22.33,49.87-49.87,49.87Z"/><path class="cls-2" d="m337.22.18c-34.67,0-62.78,28.11-62.78,62.78s28.11,62.78,62.78,62.78,62.78-28.11,62.78-62.78S371.89.18,337.22.18Zm0,112.64c-27.54,0-49.87-22.33-49.87-49.87s22.33-49.87,49.87-49.87,49.87,22.33,49.87,49.87-22.33,49.87-49.87,49.87Z"/><path class="cls-1" d="m331.06,112.44c-3.21-31.66-29.95-56.03-62.45-56.03-34.67,0-62.78,28.11-62.78,62.78s28.11,62.78,62.78,62.78c32.5,0,59.24-24.7,62.45-56.36l-2.15-.41c-5.29-.46-10.56-2.36-10.56-2.36-1.87,25.84-23.42,46.22-49.74,46.22s-49.87-22.33-49.87-49.87,22.33-49.87,49.87-49.87c23.95,0,43.95,16.88,48.77,39.39,0,0-1.55.04,10.9,3.31l2.79.42Z"/><path class="cls-2" d="m62.78,112.64c-24.71,0-45.22-17.97-49.17-41.55h57.13v-14.86H13.34c3.2-24.45,24.12-43.32,49.44-43.32,16.15,0,30.5,7.67,39.62,19.57l14.93-.27C106.52,13.29,86.14,0,62.78,0,28.11,0,0,28.11,0,62.78s28.11,62.78,62.78,62.78c20.42,0,38.57-10.28,50.03-25.38l-16.6-.39c-8.84,7.99-20.57,12.86-33.43,12.86Z"/><path class="cls-2" d="m233.43,99.78c-8.85,7.99-20.57,12.86-33.43,12.86-27.54,0-49.87-22.33-49.87-49.87s22.33-49.87,49.87-49.87c16.15,0,30.5,7.67,39.62,19.57l14.93-.27C243.74,13.29,223.36,0,200,0c-34.67,0-62.78,28.11-62.78,62.78s28.11,62.78,62.78,62.78c20.42,0,38.57-10.28,50.03-25.38l-16.6-.39Z"/></svg>