<?xml version="1.0" encoding="UTF-8"?><svg id="Layer_1" xmlns="http://www.w3.org/2000/svg" viewBox="0 0 800 800"><defs><style>.cls-1{fill:#fff;}.cls-2{fill:#a6192e;}.cls-3{fill:#231f20;}.cls-4{fill:#5bb951;}</style></defs><circle class="cls-1" cx="400" cy="400" r="400"/><path class="cls-4" d="m400,0C179.08,0,0,179.09,0,400s179.08,400,400,400,400-179.09,400-400S620.92,0,400,0Zm0,776.2c-207.76,0-376.2-168.43-376.2-376.2S192.24,23.79,400,23.79s376.2,168.44,376.2,376.21-168.43,376.2-376.2,376.2Z"/><g><g><path class="cls-3" d="m470.64,415.74c-1.97-.93-3.2-2.09-4.04-2.94l-27.79-27.81c1.91-.52,5.92-1.97,9.78-3.22,6.52-2.37,10.12-4.73,14.99-9.72,14.18-15.39,13.84-42.13-3.76-53.6-6.5-4.41-11.47-5.67-19.44-5.63h-60.46v5.63c1.97.16,3.2.42,5.03.97,2.21.72,3.86,1.55,5.19,3.44,1.49,2.13,1.69,3.22,1.73,5.71l-.04,77.96c-.04,2.49-.18,3.58-1.67,5.71-1.33,1.91-2.98,2.72-5.19,3.44-1.83.56-3.1.7-5.07.87v5.63h41.23l.06-5.65c-1.97-.16-3.24-.3-5.07-.87-2.21-.74-3.86-1.55-5.19-3.44-1.49-2.13-1.69-3.22-1.73-5.71v-19.74h8.81l35.73,35.43h30.1l.04-5.65h-5.01c-2.86,0-5.65.32-8.23-.82h0Zm-61.61-36.74v-58.35h20.06c11.65-.04,19.82,5.55,24.53,16.32,2.41,5.31,2.84,8.99,2.15,14.75-1.15,8.67-5.09,14.2-11.93,19.6-7.12,5.96-13.64,7.71-22.92,7.69,0,.1-6.9-.08-11.89,0h0Z"/><path class="cls-3" d="m261.03,353.25c6.54-2.64,10.14-6.94,11.91-13.8,1.25-5.31.89-8.87-1.25-13.8-3.3-7.36-8.95-10.34-16.92-12.23-2.68-.52-4.31-.5-7.2-.62h-55.79v5.63c1.97.16,3.24.3,5.07.87,2.21.72,3.86,1.55,5.19,3.44,1.49,2.13,1.61,3.22,1.67,5.71l.04,77.96c-.04,2.49-.24,3.58-1.73,5.71-1.33,1.91-2.98,2.72-5.19,3.44-1.83.56-3.1.76-5.07.93l.04,5.67h61.12c7.97.02,12.94-1.25,19.44-5.63,17.6-11.49,17.95-38.23,3.76-53.6-4.87-4.99-8.53-7.34-15.05-9.72l-.04.04Zm-39.49-32.59h24.3c3.26-.06,5.39.44,8.15,2.19,4.1,3.02,5.71,6.66,5.63,11.59.08,8.41-7.48,13.92-15.67,14.02-2.25,0-3.48.04-5.63,0h-16.78v-27.83.02Zm44.59,77.42c-4.71,10.76-12.86,16.36-24.53,16.32h-20.06v-58.35c4.97.08,11.89-.1,11.89,0,9.28,0,15.77,1.75,22.92,7.69,6.86,5.37,10.8,10.9,11.93,19.6.68,5.75.26,9.44-2.15,14.75h0Z"/><path class="cls-3" d="m131.42,425.66c32.03-.08,58.11-26.44,58.01-58.93.12-32.33-25.97-58.69-58.01-58.63-32.15-.06-58.25,26.28-58.31,58.63.06,32.49,26.16,58.85,58.31,58.93Zm0-110.03c22.51-.12,38.77,22.88,38.65,51.1.12,28.27-16.14,51.22-38.65,51.1-22.65.14-38.89-22.84-38.95-51.1.06-28.23,16.32-51.22,38.95-51.1Z"/><path class="cls-3" d="m610.94,416.57c-1.97-.16-3.24-.3-5.07-.87-2.21-.72-3.86-1.55-5.19-3.44-1.49-2.13-1.69-3.22-1.73-5.71v-78.06c.04-2.49.24-3.58,1.73-5.71,1.33-1.91,2.96-2.72,5.19-3.44,1.83-.56,3.1-.7,5.07-.87v-5.63h-41.12v5.63c1.95.16,3.18.32,5.01.89,2.21.72,3.86,1.55,5.19,3.44,1.49,2.13,1.75,3.22,1.79,5.71l-.06,78.06c-.04,2.49-.24,3.58-1.73,5.71-1.33,1.91-2.98,2.72-5.19,3.44-1.83.56-3.1.7-5.07.87v5.63h41.19v-5.65Z"/><path class="cls-3" d="m621.6,319.31c2.21.72,3.86,1.55,5.19,3.44,1.49,2.13,1.69,3.22,1.73,5.71v77.88c-.02,2.49-.2,3.76-1.69,5.9-1.33,1.91-2.98,2.72-5.19,3.44-1.83.56-3.1.7-5.07.87v5.63h32.47l.02-5.63c-1.97-.16-3.24-.3-5.07-.87-2.21-.72-3.86-1.55-5.19-3.44-1.49-2.13-1.69-3.22-1.73-5.71l-.1-70.96,67.52,55.87v15.05c-.04,2.49-.12,3.62-1.61,5.75-1.33,1.91-2.98,2.72-5.19,3.44-1.83.56-3.1.7-5.07.87v5.63h32.49v-5.63c-1.97-.16-3.24-.3-5.07-.87-2.21-.72-3.86-1.55-5.19-3.44-1.49-2.13-1.65-3.22-1.69-5.71l-.04-78.08c.04-2.49.3-3.58,1.79-5.71,1.33-1.89,2.98-2.72,5.19-3.44,1.83-.56,3.04-.7,5.01-.85v-5.63h-32.65l.04,5.61c1.97.16,3.24.3,5.07.87,2.21.74,4.06,1.55,5.39,3.44,1.49,2.13,1.49,3.22,1.53,5.71v40.66l-68.51-56.32h-19.5v5.63c1.97.16,3.24.3,5.07.87l.04.02Z"/><path class="cls-3" d="m497.96,322.75c1.49,2.13,1.69,3.22,1.73,5.71l.06,78.04c-.04,2.49-.24,3.58-1.73,5.71-1.33,1.91-2.98,2.72-5.19,3.44-1.83.56-3.1.7-5.07.87l.04,5.65h78.04v-23h-4.29s-.87,3.6-2.07,5.94c-1.39,2.7-2.62,4-4.93,5.67-3.7,2.7-6.58,3.48-10.97,3.44h-26.68v-85.75c.06-2.49.24-3.58,1.73-5.71,1.33-1.91,2.96-2.72,5.19-3.44,1.83-.56,3.1-.7,5.07-.87v-5.63h-41.12v5.63c1.95.16,3.18.32,5.01.89,2.21.72,3.86,1.55,5.19,3.44l-.02-.04Z"/><path class="cls-3" d="m375.7,399.23h-4.29s-.87,3.6-2.07,5.94c-1.39,2.7-2.62,4-4.93,5.67-3.7,2.7-6.38,3.48-10.78,3.44l-35.33.12v-58.31h22.76c2.09,0,3.02.14,4.83,1.41,1.61,1.13,2.29,2.49,2.9,4.37.46,1.55.6,2.62.72,4.27l4.75-.04.1-27.42-4.85-.14c-.12,1.65-.26,2.74-.72,4.27-.62,1.87-1.31,3.26-2.9,4.37-1.79,1.25-2.72,1.39-4.83,1.43h-22.76v-27.93l37-.06c2.49.04,3.58.2,5.71,1.69,1.91,1.33,2.72,2.98,3.44,5.19.56,1.83.7,3.1.87,5.07l4.93-.14v-19.58h-80.76v5.63c1.97.16,3.24.3,5.07.87,2.21.72,3.86,1.55,5.19,3.44,1.49,2.13,1.69,3.22,1.73,5.71l.08,78.06c-.04,2.49-.24,3.58-1.73,5.71-1.33,1.91-2.98,2.72-5.19,3.44-1.83.56-3.1.7-5.07.87l.04,5.63h86.09v-23,.02Z"/></g><g><path class="cls-2" d="m338.43,471.01h-2.23v.26c-.04,2.54-.2,3.8-.46,3.8,0,0-.18-.02-.8-.42-.26-.18-.56-.4-.91-.62-1.43-1.03-3.38-2.43-5.47-2.43-1.55,0-6.9,3.24-6.9,6.68,0,1.53,1.09,2.88,2.33,2.88.91,0,2.51-1.05,2.51-2.05,0-.24-.18-.44-.42-.72-.4-.44-.95-1.07-.95-2.01,0-.44.28-.91.93-.91.95,0,2.01.48,3.34,1.51-2.19,6.38-5.81,9.62-10.74,9.62-2.68,0-6-1.45-6.9-4.97,4.16-2.72,17.06-11.71,17.06-18.59,0-1.99-.89-3.3-2.23-3.3-1.65,0-3.34,1.47-3.34,2.51,0,.24.12.52.28.87.24.52.54,1.25.54,2.15,0,2.66-2.45,5.39-4.08,7.08v-.16c0-2.35-1.61-4.12-3.74-4.12-1.33,0-4.55,1.73-6.42,3.74-2.51,2.7-3.74,5.71-3.74,9.26,0,6.38,4.27,10.84,10.38,10.84,10,0,13.96-9.92,15.07-13.52.38.24.72.48,1.05.7,1.37.93,2.35,1.61,3.24,1.61,1.09,0,2.92-.8,2.92-6.14,0-.42,0-1.95-.24-3.3l-.04-.22-.02-.02Zm-27.42,8.83s.02-2.17.04-2.35c.06-.8.18-1.61.32-2.41.04-.22.08-.42.14-.64.06-.2.08-.46.18-.66.26-.8.66-1.67,1.37-2.25.26-.2.58-.36.91-.34.97.06,1.61.87,1.89,1.73.34,1.07.26,2.25-.26,3.26-.26.5-.66.89-1.09,1.27-.64.58-1.11.87-1.69,1.29-.46.32-.95.64-1.45.93l-.38.22.02-.02Z"/><path class="cls-2" d="m88.49,483.69c-3.8,0-6.48-3.18-6.48-7.24v-.08c0-3.94,2.68-7.2,6.48-7.2,2.6,0,4.39,1.29,5.94,3.18l5.65-4.39c-2.39-3.3-5.96-5.61-11.51-5.61-8.21,0-14.26,6.2-14.26,14.1v.08c0,8.09,6.24,14.02,13.98,14.02,5.96,0,9.42-2.6,11.97-6.12l-5.65-4.02c-1.63,1.97-3.3,3.3-6.12,3.3v-.02Z"/><path class="cls-2" d="m120.2,462.34c-8.37,0-14.65,6.32-14.65,14.1v.08c0,7.79,6.2,14.02,14.57,14.02s14.65-6.32,14.65-14.1v-.08c0-7.79-6.2-14.02-14.57-14.02Zm6.86,14.18c0,3.9-2.76,7.24-6.86,7.24s-6.98-3.4-6.98-7.32v-.08c0-3.92,2.76-7.24,6.9-7.24s6.94,3.36,6.94,7.32c0,0,0,.08,0,.08Z"/><polygon class="cls-2" points="149.21 462.88 141.7 462.88 141.7 490.01 162.35 490.01 162.35 483.41 149.21 483.41 149.21 462.88"/><polygon class="cls-2" points="176.93 462.88 169.43 462.88 169.43 490.01 190.07 490.01 190.07 483.41 176.93 483.41 176.93 462.88"/><polygon class="cls-2" points="204.6 479.3 217.62 479.3 217.62 473.39 204.6 473.39 204.6 469.24 218.96 469.24 218.96 462.88 197.15 462.88 197.15 490.01 219.16 490.01 219.16 483.61 204.6 483.61 204.6 479.3"/><path class="cls-2" d="m240.23,479.66h5.31v3.3c-1.09.74-2.47,1.13-4.35,1.13-4.31,0-7.36-3.14-7.36-7.54v-.08c0-4.14,3.02-7.4,6.94-7.4,2.72,0,4.61.93,6.54,2.56l4.43-5.35c-2.86-2.47-6.24-3.9-11.01-3.9-8.37,0-14.57,6.2-14.57,14.1v.08c0,8.21,6.28,14.02,14.73,14.02,4.95,0,8.91-1.83,11.77-4.23v-12.17h-12.43v5.49h0Z"/><polygon class="cls-2" points="268.5 479.3 281.52 479.3 281.52 473.39 268.5 473.39 268.5 469.24 282.88 469.24 282.88 462.88 261.05 462.88 261.05 490.01 283.06 490.01 283.06 483.61 268.5 483.61 268.5 479.3"/><path class="cls-2" d="m368.11,483.69c-3.8,0-6.48-3.18-6.48-7.24v-.08c0-3.94,2.68-7.2,6.48-7.2,2.6,0,4.39,1.29,5.94,3.18l5.65-4.39c-2.39-3.3-5.96-5.61-11.51-5.61-8.21,0-14.26,6.2-14.26,14.1v.08c0,8.09,6.24,14.02,13.98,14.02,5.96,0,9.42-2.6,11.97-6.12l-5.65-4.02c-1.63,1.97-3.3,3.3-6.12,3.3v-.02Z"/><path class="cls-2" d="m399.94,462.34c-8.37,0-14.65,6.32-14.65,14.1v.08c0,7.79,6.2,14.02,14.57,14.02s14.65-6.32,14.65-14.1v-.08c0-7.79-6.2-14.02-14.57-14.02Zm6.86,14.18c0,3.9-2.76,7.24-6.86,7.24s-6.98-3.4-6.98-7.32v-.08c0-3.92,2.76-7.24,6.9-7.24s6.94,3.36,6.94,7.32v.08h0Z"/><polygon class="cls-2" points="439.92 477.21 428.77 462.88 421.75 462.88 421.75 490.01 429.19 490.01 429.19 475.12 440.8 490.01 447.36 490.01 447.36 462.88 439.92 462.88 439.92 477.21"/><path class="cls-2" d="m468.27,473.11c-3.8-.85-4.73-1.39-4.73-2.64v-.08c0-1.01.89-1.75,2.72-1.75,2.39,0,5.11.89,7.59,2.68l3.76-5.31c-2.94-2.35-6.54-3.6-11.17-3.6-6.52,0-10.5,3.64-10.5,8.67v.08c0,5.53,4.45,7.16,10.22,8.49,3.72.89,4.61,1.47,4.61,2.64v.08c0,1.17-1.09,1.85-3.14,1.85-3.14,0-6.08-1.13-8.79-3.26l-4.18,4.99c3.38,2.98,7.91,4.49,12.72,4.49,6.58,0,10.97-3.3,10.97-8.83v-.08c0-5.07-3.88-7.08-10.08-8.45l.02.04Z"/><polygon class="cls-2" points="493.84 479.3 506.86 479.3 506.86 473.39 493.84 473.39 493.84 469.24 508.2 469.24 508.2 462.88 486.39 462.88 486.39 490.01 508.41 490.01 508.41 483.61 493.84 483.61 493.84 479.3"/><path class="cls-2" d="m541.9,472.18v-.08c0-2.68-.8-4.73-2.39-6.32-1.81-1.83-4.69-2.9-8.83-2.9h-12.82v27.12h7.52v-8.21h3.34l5.45,8.21h8.63l-6.48-9.46c3.38-1.43,5.57-4.18,5.57-8.37h0Zm-7.52.5c0,1.97-1.51,3.22-4.02,3.22h-4.99v-6.54h4.95c2.47,0,4.06,1.09,4.06,3.26v.08-.02Z"/><polygon class="cls-2" points="560.96 480.05 554.8 462.88 546.43 462.88 557.4 490.19 564.36 490.19 575.36 462.88 567.15 462.88 560.96 480.05"/><path class="cls-2" d="m587.33,462.68l-11.51,27.32h7.87l1.93-4.89h10.5l1.93,4.89h8.05l-11.55-27.32h-7.24.02Zm.5,16.58l3.06-7.67,3.02,7.67h-6.08Z"/><polygon class="cls-2" points="607.66 469.46 615.74 469.46 615.74 490.01 623.27 490.01 623.27 469.46 631.4 469.46 631.4 462.88 607.66 462.88 607.66 469.46"/><path class="cls-2" d="m649.91,462.34c-8.37,0-14.65,6.32-14.65,14.1v.08c0,7.79,6.2,14.02,14.57,14.02s14.65-6.32,14.65-14.1v-.08c0-7.79-6.2-14.02-14.57-14.02Zm6.86,14.18c0,3.9-2.76,7.24-6.86,7.24s-6.98-3.4-6.98-7.32v-.08c0-3.92,2.76-7.24,6.9-7.24s6.94,3.36,6.94,7.32v.08Z"/><path class="cls-2" d="m695.04,472.18v-.08c0-2.68-.8-4.73-2.39-6.32-1.81-1.83-4.69-2.9-8.83-2.9h-12.82v27.12h7.52v-8.21h3.34l5.45,8.21h8.63l-6.48-9.46c3.38-1.43,5.57-4.18,5.57-8.37h0Zm-7.52.5c0,1.97-1.51,3.22-4.02,3.22h-4.99v-6.54h4.95c2.47,0,4.06,1.09,4.06,3.26v.08-.02Z"/><polygon class="cls-2" points="718.48 462.88 712.86 472.76 707.27 462.88 698.72 462.88 709.06 479.85 709.06 490.01 716.56 490.01 716.56 479.72 726.89 462.88 718.48 462.88"/></g></g></svg>