<svg id="Layer_1" data-name="Layer 1" xmlns="http://www.w3.org/2000/svg" viewBox="0 0 800 800"><defs><style>.cls-1{fill:#fff;}.cls-2{fill:#5bb951;}.cls-3{fill:#2b3040;}.cls-4{fill:#c8353b;}.cls-5{fill:#2a3044;}</style></defs><circle class="cls-1" cx="399.12" cy="398.12" r="384.5"/><path class="cls-2" d="M400,0C179.08,0,0,179.09,0,400S179.08,800,400,800,800,620.91,800,400,620.92,0,400,0Zm0,776.2C192.24,776.2,23.8,607.77,23.8,400S192.24,23.79,400,23.79,776.2,192.23,776.2,400,607.77,776.2,400,776.2Z"/><path class="cls-3" d="M301.23,126.75H401.39V81.2H284.5L172.37,191.46v412l113,115.33h116V675.62H306.93l-89.22-91.23V210.63Z"/><path class="cls-1" d="M308.39,141.14h93V126.75H301.23l-83.52,83.88V584.39l89.22,91.23h94.46V658.86H309l-77-78.44v-365Z"/><path class="cls-4" d="M348.93,196.24h52.46v-55.1h-93L232,215.42v365l77,78.44h92.43V603.71H351.71L306,557.93V239.42Z"/><path class="cls-1" d="M354.92,209.45h46.47V196.24H348.93L306,239.42V557.93l45.72,45.78h49.68V590.55H358.22l-39.13-40.34V245.38Z"/><path class="cls-5" d="M401.39,251.4v-42H354.92l-35.83,35.93V550.21l39.13,40.34h43.17V546.76l-40.53-.57V251.4Z"/><polygon class="cls-1" points="401.39 251.4 401.39 546.76 360.86 546.19 360.86 251.4 401.39 251.4"/><path class="cls-3" d="M582.29,210.63V584.39l-89.22,91.23H398.61V718.8h116l113-115.33v-412L515.5,81.2H398.61v45.55H498.77Z"/><path class="cls-1" d="M568,215.42v365l-77,78.44H398.61v16.76h94.46l89.22-91.23V210.63l-83.52-83.88H398.61v14.39h93Z"/><path class="cls-4" d="M494,239.42V557.93l-45.72,45.78H398.61v55.15H491l77-78.44v-365l-76.4-74.28h-93v55.1h52.46Z"/><path class="cls-1" d="M480.91,245.38V550.21l-39.13,40.34H398.61v13.16h49.68L494,557.93V239.42l-42.94-43.18H398.61v13.21h46.47Z"/><path class="cls-5" d="M439.14,251.4V546.19l-40.53.57v43.79h43.17l39.13-40.34V245.38l-35.83-35.93H398.61v42Z"/><polygon class="cls-1" points="398.61 251.4 398.61 546.76 439.14 546.19 439.14 251.4 398.61 251.4"/></svg>