<?xml version="1.0" standalone="no"?>
<!DOCTYPE svg PUBLIC "-//W3C//DTD SVG 20010904//EN"
 "http://www.w3.org/TR/2001/REC-SVG-20010904/DTD/svg10.dtd">
<svg version="1.0" xmlns="http://www.w3.org/2000/svg"
 width="648.000000pt" height="648.000000pt" viewBox="0 0 648.000000 648.000000"
 preserveAspectRatio="xMidYMid meet">
<metadata>
Created by potrace 1.11, written by Peter Selinger 2001-2013
</metadata>
<g transform="translate(0.000000,648.000000) scale(0.100000,-0.100000)"
fill="#000000" stroke="none">
<path d="M3238 5935 c-2 -1 -66 -5 -143 -9 -77 -3 -149 -8 -160 -10 -11 -2
-45 -7 -75 -11 -30 -4 -62 -9 -70 -10 -207 -38 -336 -73 -520 -142 -160 -60
-389 -179 -547 -284 -307 -206 -622 -538 -810 -854 -182 -307 -314 -673 -359
-1000 -3 -27 -8 -59 -10 -70 -17 -85 -22 -374 -11 -532 6 -91 33 -292 43 -325
3 -10 7 -30 10 -45 21 -117 94 -347 160 -498 56 -131 68 -155 75 -155 4 0 12
36 18 79 7 44 14 90 17 103 16 79 15 91 -20 189 -72 201 -127 454 -142 644 -4
60 -4 385 1 420 2 17 6 54 9 84 6 51 19 138 32 206 10 58 53 221 78 295 61
187 141 358 261 558 170 284 478 596 778 790 296 191 679 340 977 378 25 3 52
7 60 9 44 12 166 19 340 20 215 0 312 -7 430 -30 14 -3 39 -8 55 -10 25 -5 44
-9 95 -20 3 -1 21 -5 40 -9 76 -17 211 -60 320 -103 587 -231 1069 -671 1351
-1233 133 -266 231 -595 255 -850 3 -36 7 -76 10 -90 5 -28 5 -354 0 -416 -4
-46 -16 -137 -22 -169 -3 -11 -6 -33 -9 -50 -8 -56 -36 -180 -56 -249 -11 -38
-22 -76 -24 -85 -2 -9 -13 -43 -25 -76 -13 -33 -27 -71 -32 -85 -5 -14 -9 -27
-10 -30 0 -3 -6 -16 -13 -30 -7 -14 -20 -46 -29 -71 -9 -26 -34 -75 -55 -110
l-39 -64 4 -144 c1 -79 5 -145 7 -148 8 -7 116 173 179 297 130 256 225 554
263 825 4 28 9 58 11 67 22 128 22 520 -1 678 -48 325 -127 584 -262 857 -128
261 -295 495 -503 704 -192 193 -294 274 -550 435 -194 121 -566 268 -799 314
-25 5 -55 11 -66 14 -21 4 -143 22 -210 31 -22 3 -92 8 -155 11 -63 3 -123 7
-132 8 -9 2 -18 3 -20 1z"/>
<path d="M3217 5588 c-58 -79 -55 -162 8 -243 21 -26 43 -12 73 45 28 55 28
111 1 167 -31 63 -52 71 -82 31z"/>
<path d="M3489 4775 c-1 -13 -1 -1735 0 -1757 1 -13 9 -18 30 -18 16 0 31 -6
34 -12 2 -7 4 -91 3 -186 l-1 -173 63 -65 c42 -44 63 -73 61 -87 -4 -56 0 -63
34 -62 17 0 37 3 42 7 7 4 10 101 10 269 0 288 0 291 58 288 18 -1 38 -1 45 0
9 1 12 189 12 904 l0 903 -195 -1 c-125 0 -195 -3 -196 -10z"/>
<path d="M1427 4774 c-8 -8 3 -63 19 -95 28 -57 104 -99 169 -96 28 2 30 4 28
41 -4 55 -45 113 -96 137 -41 18 -107 25 -120 13z"/>
<path d="M4955 4765 c-47 -21 -87 -69 -100 -122 -15 -58 -6 -67 60 -58 79 12
155 92 155 163 0 31 -1 32 -42 31 -24 0 -56 -7 -73 -14z"/>
<path d="M2930 4463 c-41 -36 -109 -96 -150 -133 -41 -37 -103 -91 -137 -121
l-62 -54 2 -160 2 -160 165 0 c91 0 170 -3 176 -7 8 -5 11 -160 10 -528 -1
-286 0 -520 1 -520 1 0 51 50 112 110 60 61 115 110 121 110 7 0 59 -47 116
-105 118 -119 104 -123 108 30 1 64 3 70 24 73 12 2 22 9 23 15 1 16 1 1107 0
1128 -1 9 -72 79 -158 155 -87 77 -180 160 -208 186 -27 26 -54 48 -60 48 -5
0 -44 -30 -85 -67z"/>
<path d="M2336 3430 c1 -199 3 -362 5 -364 2 -1 94 -58 204 -126 280 -172 254
-149 252 -221 -1 -33 1 -63 5 -65 4 -3 26 14 48 38 l41 43 0 475 c0 261 0 499
0 528 l-1 52 -277 0 -278 0 1 -360z"/>
<path d="M2089 3557 c-8 -12 -30 -43 -48 -68 l-32 -46 -2 -173 -2 -173 -220
-133 c-121 -73 -224 -137 -230 -141 -5 -5 -31 -21 -57 -36 l-48 -28 0 -69 c0
-39 3 -70 8 -70 4 0 25 5 47 10 36 9 61 13 155 26 37 5 229 4 270 -1 202 -27
437 -100 550 -170 l35 -22 0 -324 c0 -178 2 -326 5 -328 3 -2 37 2 75 9 l70
12 0 338 0 339 43 41 c23 23 42 51 43 63 4 81 -1 141 -13 153 -7 7 -128 83
-268 170 -140 86 -257 159 -260 161 -2 2 -4 81 -5 176 l-1 172 -48 68 c-26 37
-48 67 -49 67 -1 0 -9 -11 -18 -23z"/>
<path d="M4162 3451 c-5 -3 -8 -113 -8 -244 1 -131 -2 -246 -6 -257 -6 -17
-18 -19 -120 -18 -62 0 -137 -1 -165 -1 l-53 -1 0 -258 0 -257 118 0 117 0 5
55 5 55 317 3 318 2 4 -22 c3 -13 4 -90 3 -171 l-2 -149 55 -46 c30 -26 60
-52 65 -57 6 -6 18 -17 28 -25 17 -12 17 -11 12 21 -22 116 -6 258 38 345 24
48 25 54 24 277 0 214 -1 227 -18 228 -11 0 -48 1 -84 1 -36 1 -68 5 -72 11
-3 5 -5 122 -5 261 l0 251 -74 1 -74 0 0 -257 c0 -237 -1 -258 -17 -262 -41
-11 -252 -6 -261 6 -5 7 -10 118 -10 252 0 132 -1 245 -1 250 -1 10 -125 16
-139 6z"/>
<path d="M1949 3386 c-2 -2 -42 -6 -89 -9 -196 -13 -438 -95 -572 -194 -113
-83 -182 -186 -249 -376 -59 -166 -78 -261 -77 -394 1 -146 19 -243 68 -353
21 -48 44 -107 50 -131 30 -112 94 -215 151 -245 28 -14 32 -13 72 14 23 16
65 41 93 55 90 46 184 153 217 247 26 74 17 218 -18 305 -31 75 -97 178 -151
235 -36 37 -36 38 -35 184 0 32 1 59 3 61 2 2 126 78 276 170 149 92 272 173
273 181 1 8 2 64 2 125 2 101 -2 136 -14 125z"/>
<path d="M2250 3249 c0 -95 3 -121 16 -134 9 -9 18 -14 20 -12 2 2 5 48 5 103
1 163 2 163 -21 161 -19 -1 -20 -8 -20 -118z"/>
<path d="M4349 3332 c-1 -56 -1 -293 0 -327 l1 -30 87 2 c49 1 93 2 99 2 7 1
10 64 9 188 0 213 14 189 -117 197 l-78 5 -1 -37z"/>
<path d="M5493 3348 c-49 -24 -71 -46 -94 -91 l-20 -37 28 -11 c94 -37 208 19
237 118 6 18 2 22 -26 29 -55 13 -86 11 -125 -8z"/>
<path d="M4023 3349 c-108 -14 -98 5 -98 -188 0 -93 3 -172 7 -176 5 -5 119
-9 166 -6 9 1 12 46 12 190 0 175 -1 190 -17 188 -10 -1 -42 -4 -70 -8z"/>
<path d="M878 3328 c-27 -11 -48 -24 -48 -29 0 -5 14 -24 30 -43 53 -60 144
-75 219 -36 35 17 40 23 31 39 -25 47 -106 91 -165 91 -11 -1 -41 -10 -67 -22z"/>
<path d="M4785 3130 l0 -150 35 -1 c19 0 56 -1 82 -1 26 1 50 -4 54 -9 3 -6 6
-122 6 -257 0 -242 0 -248 -24 -297 -23 -46 -32 -72 -44 -130 -10 -47 -4 -157
12 -223 l17 -72 124 -117 c150 -141 152 -142 183 -143 47 0 115 65 135 131 16
50 74 169 93 189 27 29 69 119 83 176 29 128 3 259 -87 438 -124 247 -345 459
-616 593 -27 13 -49 23 -51 23 -1 0 -2 -67 -2 -150z"/>
<path d="M3439 2943 c-1 -10 -1 -64 -2 -120 0 -77 -4 -103 -14 -107 -8 -3 -59
40 -129 109 -64 63 -120 115 -125 115 -4 0 -110 -102 -234 -226 l-225 -226 0
-332 c0 -327 0 -332 20 -333 47 -4 129 -34 168 -62 44 -33 122 -125 122 -145
0 -9 17 -13 53 -12 78 0 163 -31 205 -75 l36 -37 33 35 c44 45 122 80 171 78
l40 -2 -9 31 c-31 102 -14 202 47 282 l36 47 0 261 1 261 -61 61 -60 61 0 165
c1 91 -2 170 -6 177 -12 19 -66 14 -67 -6z"/>
<path d="M1690 2613 c-137 -18 -188 -26 -199 -33 -10 -6 0 -25 38 -74 165
-216 192 -457 70 -626 -17 -23 -29 -43 -27 -45 2 -2 17 2 33 10 82 37 307 107
362 112 153 13 286 -56 349 -179 13 -27 24 -50 24 -53 0 -3 0 -9 0 -15 0 -5
29 9 65 32 l65 42 0 331 0 331 -52 23 c-165 73 -298 112 -458 136 -50 8 -231
13 -270 8z"/>
<path d="M4088 2430 l-3 -55 -202 -3 c-112 -1 -203 -6 -204 -10 -5 -46 -2
-345 4 -349 4 -2 23 5 42 17 107 66 237 59 349 -20 62 -44 71 -47 63 -25 -9
22 19 106 52 155 17 25 52 59 78 77 97 64 203 74 315 29 34 -14 64 -24 66 -22
3 4 5 141 3 231 l-1 30 -280 0 -279 0 -3 -55z"/>
<path d="M913 2257 c0 -18 -13 -110 -18 -127 -2 -8 -7 -33 -10 -55 -4 -22 -8
-47 -10 -55 -5 -26 -18 -174 -18 -205 2 -110 28 -226 70 -310 74 -146 250
-311 399 -375 27 -12 82 -30 122 -41 l73 -19 79 40 c198 100 500 298 623 409
70 63 90 168 49 247 -45 88 -139 141 -260 148 -51 3 -83 -4 -189 -39 -246 -82
-424 -159 -514 -224 -40 -30 -42 -30 -77 -15 -69 28 -125 99 -167 210 -15 38
-49 126 -76 195 -27 70 -52 147 -55 173 -6 42 -20 72 -21 43z"/>
<path d="M4344 2210 c-102 -40 -164 -134 -164 -246 0 -49 4 -57 62 -131 211
-266 487 -565 603 -653 101 -77 234 -70 375 21 79 50 162 136 192 197 20 42
22 60 21 226 0 100 -2 201 -2 226 l-2 45 -27 -55 c-41 -85 -71 -121 -116 -141
-68 -30 -98 -20 -185 63 -42 40 -81 78 -87 83 -6 6 -51 46 -100 91 -202 184
-242 216 -311 251 -93 46 -181 54 -259 23z"/>
<path d="M3799 2016 c-126 -45 -221 -164 -221 -276 1 -96 17 -128 116 -229 50
-52 102 -106 116 -121 32 -33 174 -190 231 -255 24 -27 67 -74 94 -105 28 -31
83 -95 124 -142 40 -48 80 -89 87 -92 30 -11 191 3 246 22 73 26 93 37 153 83
73 55 95 89 101 157 l6 58 -48 39 c-86 68 -254 246 -469 495 -12 14 -71 87
-132 161 -113 137 -161 180 -230 205 -48 17 -127 17 -174 0z"/>
<path d="M2615 1778 c-91 -13 -187 -59 -252 -121 -18 -17 -33 -37 -33 -45 0
-8 -12 -36 -26 -63 -21 -38 -53 -67 -153 -142 -188 -140 -372 -257 -530 -337
-34 -16 -61 -36 -61 -43 0 -30 53 -120 93 -161 54 -54 119 -88 207 -109 71
-16 71 -16 177 -17 136 -2 146 2 272 105 64 52 125 102 136 112 11 10 56 47
100 83 133 108 347 291 391 334 35 35 42 49 48 96 13 102 -14 174 -86 235 -69
58 -183 88 -283 73z"/>
<path d="M3030 1509 c0 -95 -13 -120 -103 -202 -45 -41 -98 -88 -117 -103 -19
-16 -40 -33 -46 -39 -34 -30 -140 -118 -323 -268 -113 -93 -210 -172 -214
-177 -11 -10 100 -73 163 -93 103 -34 204 -39 290 -14 58 17 51 11 425 402 32
33 91 94 132 136 72 73 75 79 78 129 12 166 -68 265 -222 278 l-63 5 0 -54z"/>
<path d="M3445 1546 c-35 -15 -84 -63 -95 -91 -4 -11 -3 -33 1 -50 5 -16 10
-56 13 -87 6 -85 85 -225 235 -418 28 -36 77 -100 108 -143 49 -65 68 -82 123
-110 59 -29 73 -32 155 -32 108 0 169 24 253 99 57 52 61 63 34 92 -9 10 -48
55 -86 99 -86 100 -192 219 -231 260 -16 17 -45 49 -64 71 -91 105 -250 270
-285 295 -44 33 -108 38 -161 15z"/>
<path d="M3335 1191 c-3 -6 4 -15 15 -21 20 -11 21 -10 10 9 -12 23 -16 25
-25 12z"/>
<path d="M3168 1017 c-70 -73 -183 -190 -252 -262 -69 -71 -126 -133 -126
-136 0 -10 98 -47 145 -55 64 -12 111 -8 152 12 85 42 275 333 290 444 6 46
-17 94 -55 114 l-28 15 -126 -132z"/>
<path d="M3435 1022 c-6 -4 -16 -25 -23 -47 -18 -54 -29 -78 -75 -158 l-39
-68 23 -71 c32 -98 90 -132 215 -127 79 3 137 51 149 121 6 35 2 43 -62 125
-38 49 -92 121 -122 161 -29 39 -54 72 -54 72 -1 0 -7 -4 -12 -8z"/>
</g>
</svg>
