<svg xmlns="http://www.w3.org/2000/svg" xmlns:xlink="http://www.w3.org/1999/xlink" viewBox="0 0 910 1051.2"><defs><style>.cls-1{isolation:isolate;}.cls-2{fill:url(#radial-gradient);}.cls-3{fill:none;stroke:#000;stroke-miterlimit:10;stroke-width:13px;}.cls-14,.cls-4,.cls-5{mix-blend-mode:soft-light;}.cls-4{fill:url(#linear-gradient);}.cls-5{fill:url(#linear-gradient-2);}.cls-6{fill:url(#linear-gradient-3);}.cls-7{fill:url(#radial-gradient-2);}.cls-8{fill:#00a1ec;}.cls-9{fill:#00b4ff;}.cls-10{fill:#4ab349;}.cls-11{fill:#72c059;}.cls-12{fill:#b6ffff;}.cls-13{fill:#a4e8e5;}.cls-14,.cls-16{fill:#fff;}.cls-14{opacity:0.55;}.cls-15{opacity:0.75;mix-blend-mode:overlay;fill:url(#linear-gradient-4);}.cls-17{fill:#f04e5c;}</style><radialGradient id="radial-gradient" cx="455" cy="455" r="455" gradientUnits="userSpaceOnUse"><stop offset="0" stop-color="#9e76b4" stop-opacity="0.9"/><stop offset="0.49" stop-color="#535a87" stop-opacity="0.95"/><stop offset="1" stop-color="#003c56"/><stop offset="1" stop-color="#003951"/><stop offset="1" stop-color="#002f44"/><stop offset="1" stop-color="#001f2d"/><stop offset="1" stop-color="#00090e"/><stop offset="1"/></radialGradient><linearGradient id="linear-gradient" x1="165.67" y1="142.47" x2="231.42" y2="256.36" gradientUnits="userSpaceOnUse"><stop offset="0" stop-color="#cdd5d5" stop-opacity="0.4"/><stop offset="0.28" stop-color="#c6cdcc" stop-opacity="0.46"/><stop offset="0.59" stop-color="#b0b5b1" stop-opacity="0.63"/><stop offset="0.92" stop-color="#8d8d86" stop-opacity="0.91"/><stop offset="1" stop-color="#828178"/></linearGradient><linearGradient id="linear-gradient-2" x1="172.21" y1="153.8" x2="224.88" y2="245.03" xlink:href="#linear-gradient"/><linearGradient id="linear-gradient-3" x1="178.74" y1="165.11" x2="218.35" y2="233.72" gradientUnits="userSpaceOnUse"><stop offset="0" stop-color="#cdd5d5"/><stop offset="0.19" stop-color="#c9d1d0"/><stop offset="0.41" stop-color="#bec4c3"/><stop offset="0.64" stop-color="#acb0ac"/><stop offset="0.87" stop-color="#93948d"/><stop offset="1" stop-color="#828178"/></linearGradient><radialGradient id="radial-gradient-2" cx="455" cy="455" r="306.96" gradientUnits="userSpaceOnUse"><stop offset="0" stop-color="#00addc"/><stop offset="0.19" stop-color="#00a8d7"/><stop offset="0.4" stop-color="#009bca"/><stop offset="0.63" stop-color="#0084b3"/><stop offset="0.86" stop-color="#006493"/><stop offset="1" stop-color="#004e7d"/></radialGradient><linearGradient id="linear-gradient-4" x1="277.84" y1="153.89" x2="656.3" y2="809.42" gradientUnits="userSpaceOnUse"><stop offset="0" stop-color="#cdd5d5" stop-opacity="0.4"/><stop offset="0.23" stop-color="#c9cdd1" stop-opacity="0.44"/><stop offset="0.49" stop-color="#bcb5c4" stop-opacity="0.56"/><stop offset="0.76" stop-color="#a88db0" stop-opacity="0.77"/><stop offset="1" stop-color="#905f98"/></linearGradient></defs><g class="cls-1"><g id="Climate"><circle class="cls-2" cx="455" cy="455" r="455"/><path class="cls-3" d="M455,892.58A437.7,437.7,0,0,1,284.68,51.8,437.7,437.7,0,0,1,625.32,858.2,434.68,434.68,0,0,1,455,892.58Z"/><circle class="cls-4" cx="198.55" cy="199.42" r="65.75"/><circle class="cls-5" cx="198.55" cy="199.42" r="52.68"/><circle class="cls-6" cx="198.55" cy="199.42" r="39.62"/><path class="cls-7" d="M455,762a305.78,305.78,0,1,1,119.47-24.1A305.09,305.09,0,0,1,455,762Z"/><path class="cls-8" d="M662,675.74a28.92,28.92,0,0,1,5.7.58l.61-.58Zm-501.3-308.3c-.14.44-.27.89-.4,1.34h28.08c.14-.45.29-.9.44-1.34Zm23.09-56.36c-.48.89-.95,1.78-1.41,2.68H213c.52-.9,1.05-1.79,1.59-2.68Zm554.07,24.45A308.2,308.2,0,0,0,574.47,172.15q-7.2-3.06-14.51-5.71a28.83,28.83,0,0,1-8.43,18.75,29.48,29.48,0,0,1-6,4.62,28.74,28.74,0,0,1-14.37,3.85h25q4,1.53,7.92,3.2a281.14,281.14,0,0,1,27.46,13.42,28.88,28.88,0,0,1-26.11,41.09H458a28.86,28.86,0,0,1,0-57.71H378.18a28.9,28.9,0,0,1-28.79-27q-7,2.55-13.86,5.47A305.67,305.67,0,0,0,238,238q-8.77,8.76-16.74,18.11h68.4a28.86,28.86,0,0,1,12.12,55H282.9a28.58,28.58,0,0,0-12.11,2.68h-1.28l.64.31a28.82,28.82,0,0,0,0,51.72,28.4,28.4,0,0,1-4.07,1.65h8.14a28.7,28.7,0,0,0,8.68,1.34h48.93a28.85,28.85,0,0,1-8.67,56.36H149.46Q148,439.95,148,455a307.11,307.11,0,0,0,7.16,66.31,28.16,28.16,0,0,1,3.57-.22h41.78a28.85,28.85,0,0,1,10.56-55.69h173.1a28.85,28.85,0,0,1,0,57.7H342.43a28.85,28.85,0,0,1-10.55,55.69H174A308.26,308.26,0,0,0,331.83,736.26,28.91,28.91,0,0,1,356,723.05H463.39a28.83,28.83,0,0,1,27.72,36.82,303.31,303.31,0,0,0,83.36-22q6-2.51,11.75-5.27a28.67,28.67,0,0,1-23.59-18.87,28.55,28.55,0,0,1,26.9-38h-2.69a28.17,28.17,0,0,1-7-.88,28.51,28.51,0,0,0,0-55.26,28.18,28.18,0,0,1,7-.89H564a28.52,28.52,0,0,1,0-57H726.4a28.27,28.27,0,0,1,14.92,4.24,303.33,303.33,0,0,0,13-42.48h-32a28.33,28.33,0,0,1-9.73-1.72,28.68,28.68,0,0,0,10.41-6.66,28.48,28.48,0,0,0-10.41-46.94,28.56,28.56,0,0,1,9.73-1.71h39.37c0-.23,0-.45,0-.67q.19-5.36.19-10.74A304.88,304.88,0,0,0,737.85,335.53Zm-2.93,130.21H547.26a28.49,28.49,0,0,1-20.49-48.31l.34-.35a28.44,28.44,0,0,1,20.15-8.38h97a28.48,28.48,0,0,0-20.48-48.3H621.4v-.34H571.08a28.52,28.52,0,0,1,0-57H690.39a278.71,278.71,0,0,1,44.73,152C735.12,458.59,735.06,462.17,734.92,465.74Z"/><path class="cls-9" d="M556.1,193.66h-25a28.74,28.74,0,0,0,14.37-3.85Q550.85,191.61,556.1,193.66Z"/><path class="cls-9" d="M722.38,466.41a28.56,28.56,0,0,0-9.73,1.71,28.54,28.54,0,0,1,0,53.6,28.33,28.33,0,0,0,9.73,1.72h4.36a279.61,279.61,0,0,1-12.62,38.24H564a28.52,28.52,0,1,0,0,57h22.81a28.18,28.18,0,0,0-7,.89,28.53,28.53,0,0,1,0,55.26,28.17,28.17,0,0,0,7,.88h2.69a28.5,28.5,0,0,0-26.9,38,276.8,276.8,0,0,1-77.07,19.78,28.84,28.84,0,0,0-22.17-10.44H373.3A281.15,281.15,0,0,1,203.63,578.79H331.88a28.84,28.84,0,0,0,10.55-55.69h41.78a28.85,28.85,0,1,0,0-57.7H211.11a28.85,28.85,0,0,0-10.56,55.69H182.68a280.78,280.78,0,0,1-7.8-66.09,284.57,284.57,0,0,1,1.56-29.86H323.16a28.85,28.85,0,0,0,8.67-56.36H282.9a28.7,28.7,0,0,1-8.68-1.34h-8.14a28.4,28.4,0,0,0,4.07-1.65,28.85,28.85,0,0,1,0-51.72l-.64-.31h1.28a28.58,28.58,0,0,1,12.11-2.68h18.83a29.17,29.17,0,0,0,8.26-5.79,28.82,28.82,0,0,0-20.38-49.23H257.79A279.34,279.34,0,0,1,346,196.86q8.94-3.78,18.08-6.91a28.64,28.64,0,0,0,14.12,3.71H458a28.86,28.86,0,0,0,0,57.71H565.37a28.82,28.82,0,0,0,26.11-41.09A282.4,282.4,0,0,1,690.39,303H571.08a28.52,28.52,0,1,0,0,57H621.4v.34h2.35a28.48,28.48,0,0,1,20.48,48.3h-97a28.44,28.44,0,0,0-20.15,8.38l-.34.35a28.49,28.49,0,0,0,20.49,48.31H734.92c0,.22,0,.44,0,.67Z"/><path class="cls-10" d="M761.75,466.41a305.91,305.91,0,0,1-7.42,57H726.74a279.73,279.73,0,0,0,8.16-57Z"/><path class="cls-11" d="M734.9,465.74a279.73,279.73,0,0,1-8.16,57h-4.36a28.33,28.33,0,0,1-9.73-1.72,28.51,28.51,0,0,0,0-53.6,28.56,28.56,0,0,1,9.73-1.71Z"/><path class="cls-11" d="M735.12,455c0,3.59-.06,7.17-.2,10.74H547.26a28.49,28.49,0,0,1-20.49-48.31l.34-.35a28.44,28.44,0,0,1,20.15-8.38h97a28.48,28.48,0,0,0-20.48-48.3H621.4v-.34H571.08a28.52,28.52,0,0,1,0-57H690.39a278.71,278.71,0,0,1,44.73,152Z"/><path class="cls-10" d="M762,455q0,5.38-.19,10.74H734.92c.14-3.57.2-7.15.2-10.74a278.71,278.71,0,0,0-44.73-152h31.4A305.92,305.92,0,0,1,762,455Z"/><path class="cls-10" d="M741.32,565.92c-1.11,2.87-2.26,5.71-3.47,8.55a304.1,304.1,0,0,1-23.12,44.24H682.36A278.59,278.59,0,0,0,713.14,564l1-2.34H726.4A28.27,28.27,0,0,1,741.32,565.92Z"/><path class="cls-11" d="M714.12,561.68l-1,2.34a278.59,278.59,0,0,1-30.78,54.69,283.76,283.76,0,0,1-54.84,57H586.84a28.17,28.17,0,0,1-7-.88,28.51,28.51,0,0,0,0-55.26,28.18,28.18,0,0,1,7-.89H564a28.52,28.52,0,0,1,0-57Z"/><path class="cls-10" d="M714.73,618.71a306.21,306.21,0,0,1-42.68,53.34q-1.86,1.88-3.75,3.69H627.52a283.76,283.76,0,0,0,54.84-57Z"/><path class="cls-11" d="M627.52,675.74a279.12,279.12,0,0,1-63.5,37.4l-1.39.57a28.55,28.55,0,0,1,26.9-38Z"/><path class="cls-10" d="M667.69,676.32a305,305,0,0,1-81.46,56.26h0a28.67,28.67,0,0,1-23.59-18.87l1.39-.57a279.12,279.12,0,0,0,63.5-37.4H662A28.92,28.92,0,0,1,667.69,676.32Z"/><path class="cls-10" d="M256.45,256.06c-.29.28.09,3.26-.2,3.54-16.41,16.42-31.24,33.87-43,53.49H182.44c10.42-19.64,23.61-40,38.09-57Z"/><path class="cls-11" d="M352,396.29a28.94,28.94,0,0,1-28.85,28.85H176.44a276.37,276.37,0,0,1,11.93-56.36c.14-.45.29-.9.44-1.34q3.57-10.86,8.05-21.46A280,280,0,0,1,213,313.76c.52-.9,1.05-1.79,1.59-2.68,11.76-19.63,25.25-38.42,41.66-54.83.29-.29,1.25.09,1.54-.19h31.82a28.86,28.86,0,0,1,12.12,55H282.9a28.58,28.58,0,0,0-12.11,2.68h-1.28l.64.31a28.82,28.82,0,0,0,0,51.72,28.4,28.4,0,0,1-4.07,1.65h8.14a28.7,28.7,0,0,0,8.68,1.34h48.93A29,29,0,0,1,352,396.29Z"/><path class="cls-11" d="M301.73,311.08a28.62,28.62,0,0,1-12.12,2.68H270.79a28.58,28.58,0,0,1,12.11-2.68Z"/><path class="cls-10" d="M213,313.09A289.58,289.58,0,0,0,196.86,346c-3,7.07-6.34,15.56-8.72,22.8H160a333.49,333.49,0,0,1,12.14-33.25c3.13-7.41,6.54-15.34,10.22-22.44Z"/><path class="cls-10" d="M188.37,368.78a276.37,276.37,0,0,0-11.93,56.36h-27a304.17,304.17,0,0,1,10.83-56.36Z"/><path class="cls-11" d="M331.83,368.78H282.9a28.7,28.7,0,0,1-8.68-1.34h48.94A28.59,28.59,0,0,1,331.83,368.78Z"/><path class="cls-11" d="M203.63,578.79H174q-1-2.14-1.87-4.32a304,304,0,0,1-17-53.16,28.16,28.16,0,0,1,3.57-.22h23.91A278.08,278.08,0,0,0,196.86,564Q200,571.52,203.63,578.79Z"/><path class="cls-11" d="M413.07,494.25a28.94,28.94,0,0,1-28.86,28.85H342.43a28.85,28.85,0,0,1-10.55,55.69H203.63q-3.6-7.26-6.77-14.77a278.08,278.08,0,0,1-14.18-42.93h17.87a28.85,28.85,0,0,1,10.56-55.69h173.1A28.94,28.94,0,0,1,413.07,494.25Z"/><rect class="cls-11" x="285.58" y="596.91" width="82.53" height="57.7" rx="27.63"/><path class="cls-12" d="M594.22,222.51a28.94,28.94,0,0,1-28.85,28.86H458a28.86,28.86,0,0,1,0-57.71H378.18A28.64,28.64,0,0,1,364.06,190a281.9,281.9,0,0,1,181.46-.14,28.74,28.74,0,0,1-14.37,3.85h25q4,1.53,7.92,3.2a281.14,281.14,0,0,1,27.46,13.42A28.53,28.53,0,0,1,594.22,222.51Z"/><path class="cls-13" d="M560,166.44a28.83,28.83,0,0,1-8.43,18.75,29.48,29.48,0,0,1-6,4.62,281.9,281.9,0,0,0-181.46.14,28.91,28.91,0,0,1-14.67-23.27A308.53,308.53,0,0,1,560,166.44Z"/><path class="cls-13" d="M591.48,210.28A281.14,281.14,0,0,0,564,196.86q-3.94-1.67-7.92-3.2h9.27A29,29,0,0,1,591.48,210.28Z"/><path class="cls-13" d="M492.24,751.9a28.8,28.8,0,0,1-1.13,8A311.29,311.29,0,0,1,455,762a304.88,304.88,0,0,1-119.47-24.11c-1.24-.52-2.48-1.05-3.7-1.59A28.91,28.91,0,0,1,356,723.05H373.3A279.44,279.44,0,0,0,455,735.12a284.38,284.38,0,0,0,30.56-1.63A28.73,28.73,0,0,1,492.24,751.9Z"/><path class="cls-12" d="M485.56,733.49A284.38,284.38,0,0,1,455,735.12a279.44,279.44,0,0,1-81.7-12.07h90.09A28.84,28.84,0,0,1,485.56,733.49Z"/><path class="cls-14" d="M455,698.22A243.23,243.23,0,1,1,627,627,241.6,241.6,0,0,1,455,698.22Z"/><path class="cls-15" d="M871.25,445.73a68.79,68.79,0,0,1-17.21,46c-10.62,11.81-25.28,19.14-41.4,19.14H661.53c15.88,11.69,26.41,31.73,26.41,54.38a68.76,68.76,0,0,1-17.21,46,56.91,56.91,0,0,1-31.27,18.16H728c32.24,0,58.61,29.32,58.61,65.16a68.81,68.81,0,0,1-17.22,46c-10.62,11.81-25.27,19.13-41.39,19.13H411.66c-32.24,0-58.61-29.31-58.61-65.16a68.79,68.79,0,0,1,17.22-46,56.88,56.88,0,0,1,31.26-18.16H149c-32.24,0-58.61-29.32-58.61-65.16a68.81,68.81,0,0,1,17.21-46c10.62-11.8,25.28-19.13,41.4-19.13H300.15c-15.88-11.69-26.41-31.74-26.41-54.39a68.78,68.78,0,0,1,17.21-46,56.94,56.94,0,0,1,31.27-18.16H123.48c-32.24,0-58.6-29.31-58.6-65.16a68.76,68.76,0,0,1,17.21-46c10.62-11.81,25.27-19.14,41.39-19.14H507.72c32.24,0,58.61,29.32,58.61,65.16a68.81,68.81,0,0,1-17.22,46,56.87,56.87,0,0,1-31.26,18.15H812.64C844.88,380.57,871.25,409.89,871.25,445.73Z"/><path class="cls-16" d="M737.29,591.84a61.29,61.29,0,0,0,.39-6.94V328.46a63.3,63.3,0,1,0-126.6,0V584.9a61.29,61.29,0,0,0,.39,6.94,101.82,101.82,0,1,0,125.82,0ZM674.65,757.56a85.66,85.66,0,0,1-52.92-153l7.08-5.57-1-9a47.92,47.92,0,0,1-.28-5.12V328.46a47.14,47.14,0,0,1,94.28,0V584.9a45.43,45.43,0,0,1-.29,5.12l-1,9,7.08,5.57a85.67,85.67,0,0,1-52.92,153Z"/><path class="cls-17" d="M717.57,617.24,703.41,606.1l2-17.91a29.42,29.42,0,0,0,.18-3.29V368.6h-62V584.9a29.73,29.73,0,0,0,.18,3.3l2,17.9-14.15,11.14a69.49,69.49,0,1,0,85.84,0Z"/><path class="cls-16" d="M271.53,1046.57a33.28,33.28,0,0,1-12.19-12.67,36,36,0,0,1-4.46-17.74,35.57,35.57,0,0,1,4.46-17.61,33.71,33.71,0,0,1,12.19-12.67,32.35,32.35,0,0,1,17.08-4.68A33.78,33.78,0,0,1,300.1,983a34.46,34.46,0,0,1,9.83,5.77,4,4,0,0,1,1.4,1.62,4.9,4.9,0,0,1,.35,2,3.72,3.72,0,0,1-1.26,2.89,4.31,4.31,0,0,1-2.93,1.13,4.77,4.77,0,0,1-3.06-1.13,25.65,25.65,0,0,0-7-4.42,24.32,24.32,0,0,0-8.83-1.35A23.18,23.18,0,0,0,276.07,993a25.92,25.92,0,0,0-9.09,9.74,28.56,28.56,0,0,0,0,26.88,26,26,0,0,0,9.09,9.7,23.18,23.18,0,0,0,12.54,3.58,26.42,26.42,0,0,0,16.08-5.77,5,5,0,0,1,2.88-1.05,3.63,3.63,0,0,1,2.76,1.18,4.68,4.68,0,0,1-.31,6.34,33.2,33.2,0,0,1-21.41,7.6A32.58,32.58,0,0,1,271.53,1046.57Z"/><path class="cls-16" d="M327.19,1049a4.49,4.49,0,0,1-1.26-3.23V986.62a4.36,4.36,0,0,1,1.31-3.23,4.25,4.25,0,0,1,3.14-1.31,4.47,4.47,0,0,1,4.55,4.54v54.62h31.63a4.55,4.55,0,1,1,0,9.09H330.38A4.28,4.28,0,0,1,327.19,1049Z"/><path class="cls-16" d="M383.34,1049a4.41,4.41,0,0,1-1.31-3.23V986.62a4.38,4.38,0,0,1,1.31-3.28,4.5,4.5,0,0,1,3.24-1.26,4.34,4.34,0,0,1,4.54,4.54v59.17a4.46,4.46,0,0,1-1.27,3.23,4.35,4.35,0,0,1-3.27,1.31A4.42,4.42,0,0,1,383.34,1049Z"/><path class="cls-16" d="M475.62,983.39a4.36,4.36,0,0,1,1.31,3.23v59.17a4.33,4.33,0,0,1-1.35,3.23,4.45,4.45,0,0,1-3.19,1.31,4.47,4.47,0,0,1-4.54-4.54v-43.44l-21.15,43.09a4.52,4.52,0,0,1-3.93,2.27,4.38,4.38,0,0,1-4.2-2.71l-20.88-41.86v42.65a4.55,4.55,0,1,1-9.09,0V986.62a4.54,4.54,0,0,1,8.56-2.1l26,52,25.25-52a4.57,4.57,0,0,1,7.25-1.13Z"/><path class="cls-16" d="M545.88,1045.87a4.29,4.29,0,0,1-1.31,3.15,4.4,4.4,0,0,1-3.23,1.31,4.66,4.66,0,0,1-2.49-.74,4.22,4.22,0,0,1-1.71-2.06l-4.89-12.23H500.88l-5,12.23a4.84,4.84,0,0,1-1.75,2.06,4.43,4.43,0,0,1-2.45.74,4.17,4.17,0,0,1-3.19-1.36,4.51,4.51,0,0,1-1.26-3.18,5.74,5.74,0,0,1,.43-2l24.56-58.63a4.43,4.43,0,0,1,4.28-3.06,4.23,4.23,0,0,1,4.28,3.06L545.45,1044A5.57,5.57,0,0,1,545.88,1045.87Zm-41.94-18.09h25.25L516.7,996.67Z"/><path class="cls-16" d="M595.39,983.26a4.2,4.2,0,0,1-3,7.21H573.59v55.32a4.55,4.55,0,1,1-9.09,0V990.47H545.62a4.2,4.2,0,1,1,0-8.39h46.76A4.05,4.05,0,0,1,595.39,983.26Z"/><path class="cls-16" d="M607.93,1049a4.41,4.41,0,0,1-1.31-3.23V986.62a4.38,4.38,0,0,1,1.31-3.28,4.47,4.47,0,0,1,3.23-1.26h39.5a4.47,4.47,0,0,1,3.24,1.18,4.12,4.12,0,0,1,1.22,3.1,3.87,3.87,0,0,1-1.22,3,4.58,4.58,0,0,1-3.24,1.14H615.71v21.23h25.08a4.54,4.54,0,0,1,3.19,1.18,4.21,4.21,0,0,1,0,6,4.5,4.5,0,0,1-3.19,1.18H615.71v21.85h34.95a4.62,4.62,0,0,1,3.24,1.13,3.9,3.9,0,0,1,1.22,3,4.13,4.13,0,0,1-1.22,3.1,4.47,4.47,0,0,1-3.24,1.18h-39.5A4.4,4.4,0,0,1,607.93,1049Z"/></g></g></svg>