<svg id="Air_Quality" data-name="Air Quality" xmlns="http://www.w3.org/2000/svg" xmlns:xlink="http://www.w3.org/1999/xlink" viewBox="0 0 910 1051.2"><defs><style>.cls-1{fill:url(#New_Gradient_Swatch_3);}.cls-2{fill:#ecf4ff;}.cls-3{fill:#e6e6e6;}.cls-4{fill:#fff;}.cls-5{fill:#f3f1f0;}.cls-6{fill:#e7e7e7;}.cls-7{fill:#8cc63f;}.cls-8{fill:#fcee21;}.cls-9{fill:#ea5e2f;}.cls-10{fill:#ea3a00;}.cls-11{fill:#9e005d;}.cls-12{fill:#510833;}.cls-13{fill:url(#New_Gradient_Swatch_3-2);}</style><linearGradient id="New_Gradient_Swatch_3" x1="457.56" y1="126.38" x2="452.86" y2="729.85" gradientUnits="userSpaceOnUse"><stop offset="0.11" stop-color="#768fd3"/><stop offset="0.3" stop-color="#7d91d6"/><stop offset="0.58" stop-color="#9097de"/><stop offset="0.63" stop-color="#9598e0"/></linearGradient><linearGradient id="New_Gradient_Swatch_3-2" x1="458.54" y1="0.01" x2="451.46" y2="909.99" xlink:href="#New_Gradient_Swatch_3"/></defs><path class="cls-1" d="M910,455c0,251.29-203.71,455-455,455S0,706.29,0,455A453.21,453.21,0,0,1,110.71,157.52C194.14,61,317.45,0,455,0,706.29,0,910,203.71,910,455Z" transform="translate(0 0)"/><path class="cls-2" d="M256.62,284.11a38.44,38.44,0,0,1-38.44,38.44H19.58a454.13,454.13,0,0,1,91.13-165,61.52,61.52,0,0,1,43.21,54.17,38.26,38.26,0,0,1,48.84,34h15.42a38.44,38.44,0,0,1,38.44,38.45Z" transform="translate(0 0)"/><path class="cls-3" d="M544.9,512.19h19A47.15,47.15,0,0,1,624,470.34a75.75,75.75,0,0,1,149.14-12.23,42.17,42.17,0,0,1,52.27,54.25,47.34,47.34,0,0,1,43.42,47.17h0a47.35,47.35,0,0,1-47.34,47.34H544.9a47.35,47.35,0,0,1-47.34-47.34h0A47.34,47.34,0,0,1,544.9,512.19Z" transform="translate(0 0)"/><path class="cls-4" d="M870.29,268.46a37.86,37.86,0,0,1-8.5,1H577.32a37.4,37.4,0,1,1,0-74.79h.23a41.62,41.62,0,0,1,35-25,65,65,0,0,1,124.8-9,31.08,31.08,0,0,1,37.17,8.15,40.89,40.89,0,0,1,20-16.73A455.21,455.21,0,0,1,870.29,268.46Z" transform="translate(0 0)"/><path class="cls-5" d="M696.21,594.57a68.38,68.38,0,0,0,4.94-25.64c0-36.22-27.9-65.58-62.32-65.58-28.9,0-53.21,20.69-60.26,48.77a34.24,34.24,0,0,0-49.21,18.15,24.66,24.66,0,0,0-6.91-1,24.41,24.41,0,0,0-10.19,2.22A42.29,42.29,0,0,0,433,592c0,.58,0,1.16,0,1.74h-9.48a24.82,24.82,0,0,0-24.82,24.82h0a24.81,24.81,0,0,0,24.82,24.81h266.3a24.81,24.81,0,0,0,24.81-24.81h0A24.82,24.82,0,0,0,696.21,594.57Z" transform="translate(0 0)"/><path class="cls-2" d="M442.87,769.5H427.15a36,36,0,0,0-52-26.71A30.2,30.2,0,0,0,338.27,729,55,55,0,0,0,232.1,746.14a25.22,25.22,0,0,0-23.51,25.16c0,.17,0,.33,0,.5a29.73,29.73,0,0,0,9,58.07l225.27-.9a29.74,29.74,0,0,0,0-59.47Z" transform="translate(0 0)"/><path class="cls-6" d="M183.64,192.92a48.82,48.82,0,0,1-3.54-18.34c0-25.9,20-46.9,44.57-46.9,20.67,0,38.05,14.8,43.09,34.88a24.51,24.51,0,0,1,35.2,13,17.52,17.52,0,0,1,12.23.88,30.24,30.24,0,0,1,56.69,14.66c0,.42,0,.83,0,1.25h6.78a17.74,17.74,0,0,1,17.74,17.74h0a17.75,17.75,0,0,1-17.74,17.75H188.19a17.75,17.75,0,0,1-17.75-17.75h0A17.73,17.73,0,0,1,183.64,192.92Z" transform="translate(0 0)"/><rect class="cls-7" x="159.91" y="201.78" width="80.05" height="80.05"/><rect class="cls-8" x="160.16" y="282.08" width="80.05" height="80.05"/><rect class="cls-9" x="160.16" y="362.62" width="80.05" height="80.05"/><rect class="cls-10" x="160.16" y="441.17" width="80.05" height="80.05"/><rect class="cls-11" x="160.16" y="521.22" width="80.05" height="80.05"/><rect class="cls-12" x="160.16" y="601.26" width="80.05" height="80.05"/><path class="cls-4" d="M374.3,395a47.13,47.13,0,0,0-70.15-34.53,63.65,63.65,0,0,0-62.92-24.41,58.4,58.4,0,0,0-114.56,16c0,1.27,0,2.52.13,3.77a33.22,33.22,0,0,0-32.28,33.2,34,34,0,0,0,.52,5.83H92.11A42.39,42.39,0,0,0,49.72,437.3h0a42.39,42.39,0,0,0,42.39,42.39H371.26a42.39,42.39,0,0,0,42.39-42.39h0A42.38,42.38,0,0,0,374.3,395Z" transform="translate(0 0)"/><path class="cls-13" d="M455,20A435.12,435.12,0,0,1,624.32,855.82,435,435,0,0,1,74.26,244.44,436.77,436.77,0,0,1,271,60.7a431.72,431.72,0,0,1,88.26-30.14A437.41,437.41,0,0,1,455,20m0-20C317.45,0,194.14,61,110.71,157.52A453.21,453.21,0,0,0,0,455C0,706.29,203.71,910,455,910S910,706.29,910,455,706.29,0,455,0Z" transform="translate(0 0)"/><path d="M455,26.58A428.54,428.54,0,0,1,621.76,849.76,428.46,428.46,0,0,1,80,247.62a427.72,427.72,0,0,1,375-221m0-14c-133.75,0-253.65,59.35-334.77,153.16A440.56,440.56,0,0,0,12.58,455c0,244.34,198.08,442.42,442.42,442.42S897.42,699.34,897.42,455,699.34,12.58,455,12.58Z" transform="translate(0 0)"/><path class="cls-4" d="M225.89,1045.39a4.29,4.29,0,0,1-1.3,3.12,4.36,4.36,0,0,1-3.21,1.3,4.52,4.52,0,0,1-2.48-.74,4.21,4.21,0,0,1-1.69-2l-4.85-12.15H181.22L176.27,1047a4.78,4.78,0,0,1-1.73,2,4.29,4.29,0,0,1-2.43.74,4.15,4.15,0,0,1-3.17-1.34,4.47,4.47,0,0,1-1.25-3.17,5.59,5.59,0,0,1,.43-2l24.37-58.2a4.41,4.41,0,0,1,4.25-3,4.21,4.21,0,0,1,4.25,3l24.46,58.37A5.52,5.52,0,0,1,225.89,1045.39Zm-41.64-18h25.07l-12.4-30.87Z" transform="translate(0 0)"/><path class="cls-4" d="M237.08,1048.51a4.37,4.37,0,0,1-1.31-3.21V986.58a4.32,4.32,0,0,1,1.31-3.25,4.48,4.48,0,0,1,7.71,3.25v58.72a4.48,4.48,0,0,1-1.25,3.21,4.66,4.66,0,0,1-6.46,0Z" transform="translate(0 0)"/><path class="cls-4" d="M307,1045.73a4,4,0,0,1-1.17,2.91,4.28,4.28,0,0,1-3.16,1.17,4.39,4.39,0,0,1-3.91-2.17l-14.92-23.94H271.16v21.6a4.44,4.44,0,0,1-1.26,3.21,4.31,4.31,0,0,1-3.25,1.3,4.44,4.44,0,0,1-4.51-4.51V986.58a4.31,4.31,0,0,1,1.3-3.25,4.44,4.44,0,0,1,3.21-1.26h15.61a24.24,24.24,0,0,1,11.5,2.69,19.46,19.46,0,0,1,7.89,7.55,21.66,21.66,0,0,1,2.82,11.1,19.36,19.36,0,0,1-11.63,18.12l13.28,21.34A5.41,5.41,0,0,1,307,1045.73Zm-24.72-30.35A14.27,14.27,0,0,0,292,1012a11,11,0,0,0,3.81-8.63A12.39,12.39,0,0,0,292,994a13.52,13.52,0,0,0-9.72-3.64h-11.1v25Z" transform="translate(0 0)"/><path class="cls-4" d="M403.52,1042.35a4.36,4.36,0,0,1,1.3,3,4.12,4.12,0,0,1-1.3,3,4.2,4.2,0,0,1-3,1.39,4.73,4.73,0,0,1-3.13-1.39l-3.55-3.55a35.35,35.35,0,0,1-20.13,5.81,35.87,35.87,0,0,1-17.91-4.43,30.86,30.86,0,0,1-12.18-12.35,39.41,39.41,0,0,1,0-36,31,31,0,0,1,12.18-12.31,38.26,38.26,0,0,1,35.74,0,31.34,31.34,0,0,1,12.23,12.31,36.38,36.38,0,0,1,4.38,18,38.73,38.73,0,0,1-2,12.75,32.24,32.24,0,0,1-5.86,10.41Zm-16-3.73-8.32-8.32a4.75,4.75,0,0,1-1.39-3.13,4.19,4.19,0,0,1,1.39-3,4.28,4.28,0,0,1,3.12-1.39,4,4,0,0,1,3,1.39l8.59,8.67a27.21,27.21,0,0,0,5.47-16.91,27.82,27.82,0,0,0-3.3-13.53,24.41,24.41,0,0,0-9.15-9.54,27.28,27.28,0,0,0-26.63,0,24.41,24.41,0,0,0-9.15,9.54,29.39,29.39,0,0,0,0,27.06,24.61,24.61,0,0,0,9.19,9.58,25.37,25.37,0,0,0,13.27,3.52A25,25,0,0,0,387.56,1038.62Z" transform="translate(0 0)"/><path class="cls-4" d="M435.92,1048.12a24.09,24.09,0,0,1-10.06-8.54,22.21,22.21,0,0,1-3.6-12.49V986.58a4.31,4.31,0,0,1,1.3-3.25,4.49,4.49,0,0,1,7.72,3.25v40.51a14.33,14.33,0,0,0,2.47,8.24,16.45,16.45,0,0,0,6.85,5.68,23.48,23.48,0,0,0,10,2,22,22,0,0,0,9.63-2,16,16,0,0,0,6.63-5.68,14.73,14.73,0,0,0,2.39-8.24V986.58a4.31,4.31,0,0,1,1.3-3.25,4.41,4.41,0,0,1,3.21-1.26,4.28,4.28,0,0,1,3.16,1.26,4.39,4.39,0,0,1,1.26,3.25v40.51a22.65,22.65,0,0,1-3.51,12.44,23.67,23.67,0,0,1-9.8,8.59,32.1,32.1,0,0,1-14.27,3.08A33.76,33.76,0,0,1,435.92,1048.12Z" transform="translate(0 0)"/><path class="cls-4" d="M544,1045.39a4.25,4.25,0,0,1-1.3,3.12,4.33,4.33,0,0,1-3.21,1.3,4.51,4.51,0,0,1-2.47-.74,4.21,4.21,0,0,1-1.69-2l-4.86-12.15H499.36L494.42,1047a4.85,4.85,0,0,1-1.73,2,4.33,4.33,0,0,1-2.43.74,4.13,4.13,0,0,1-3.17-1.34,4.48,4.48,0,0,1-1.26-3.17,5.62,5.62,0,0,1,.44-2l24.37-58.2a4.4,4.4,0,0,1,4.25-3,4.21,4.21,0,0,1,4.25,3l24.46,58.37A5.48,5.48,0,0,1,544,1045.39Zm-41.63-18h25.07l-12.41-30.87Z" transform="translate(0 0)"/><path class="cls-4" d="M555.18,1048.51a4.44,4.44,0,0,1-1.26-3.21V986.58a4.4,4.4,0,0,1,1.3-3.21,4.25,4.25,0,0,1,3.12-1.3,4.44,4.44,0,0,1,4.52,4.51v54.21h31.4a4.51,4.51,0,1,1,0,9H558.34A4.2,4.2,0,0,1,555.18,1048.51Z" transform="translate(0 0)"/><path class="cls-4" d="M610.91,1048.51a4.36,4.36,0,0,1-1.3-3.21V986.58a4.31,4.31,0,0,1,1.3-3.25,4.49,4.49,0,0,1,7.72,3.25v58.72a4.44,4.44,0,0,1-1.26,3.21,4.66,4.66,0,0,1-6.46,0Z" transform="translate(0 0)"/><path class="cls-4" d="M682.16,983.24a4.17,4.17,0,0,1-3,7.16H660.52v54.9a4.51,4.51,0,1,1-9,0V990.4H632.76a4.17,4.17,0,1,1,0-8.33h46.41A4.05,4.05,0,0,1,682.16,983.24Z" transform="translate(0 0)"/><path class="cls-4" d="M741.23,983.28a4.31,4.31,0,0,1,1.08,3,5.41,5.41,0,0,1-.86,2.87l-23.34,36v20.21a4.44,4.44,0,0,1-4.51,4.51,4.25,4.25,0,0,1-3.12-1.3,4.36,4.36,0,0,1-1.3-3.21v-20.21L686,989.1a5.15,5.15,0,0,1-.95-2.78,3.93,3.93,0,0,1,1.34-3,4.57,4.57,0,0,1,3.17-1.21,3.81,3.81,0,0,1,2.25.61,7,7,0,0,1,1.74,1.91l20.29,32.18,20.65-32.53a4.44,4.44,0,0,1,4-2.17A3.49,3.49,0,0,1,741.23,983.28Z" transform="translate(0 0)"/></svg>