<svg id="Layer_1" data-name="Layer 1" xmlns="http://www.w3.org/2000/svg" xmlns:xlink="http://www.w3.org/1999/xlink" viewBox="0 0 910 1051.44"><defs><style>.cls-1{fill:#c16266;}.cls-2,.cls-7{fill:none;stroke-miterlimit:10;}.cls-2{stroke:#000;stroke-width:13px;}.cls-3{fill:url(#radial-gradient);}.cls-4{fill:#999;}.cls-5{opacity:0.49;fill:url(#linear-gradient);}.cls-5,.cls-7,.cls-8{isolation:isolate;}.cls-6{fill:url(#radial-gradient-2);}.cls-7{stroke:#fff;stroke-linecap:round;stroke-width:22px;opacity:0.83;}.cls-8{opacity:0.04;fill:url(#radial-gradient-3);}.cls-9{fill:#ff0;}.cls-10{fill:#ffffa6;}.cls-11{fill:#fff;}</style><radialGradient id="radial-gradient" cx="455.78" cy="605.4" r="234.86" gradientTransform="matrix(1, 0, 0, -1, -0.06, 1028.07)" gradientUnits="userSpaceOnUse"><stop offset="0" stop-color="#f2f2f2" stop-opacity="0.1"/><stop offset="1" stop-color="#fff"/></radialGradient><linearGradient id="linear-gradient" x1="354.47" y1="757.95" x2="661.49" y2="361.29" gradientTransform="matrix(1, 0, 0, -1, 0, 1028)" gradientUnits="userSpaceOnUse"><stop offset="0" stop-color="#cce0f4"/><stop offset="0.36" stop-color="#cadef2"/><stop offset="0.49" stop-color="#c5d8eb"/><stop offset="0.59" stop-color="#bbcddf"/><stop offset="0.67" stop-color="#acbdce"/><stop offset="0.74" stop-color="#99a8b8"/><stop offset="0.8" stop-color="#828f9c"/><stop offset="0.86" stop-color="#67717b"/><stop offset="0.91" stop-color="#474e55"/><stop offset="0.95" stop-color="#24272b"/><stop offset="0.99"/></linearGradient><radialGradient id="radial-gradient-2" cx="454.57" cy="629.21" r="199.39" gradientTransform="matrix(1, 0, 0, -1, -0.06, 1028.07)" gradientUnits="userSpaceOnUse"><stop offset="0" stop-color="#fcee21" stop-opacity="0.4"/><stop offset="0.16" stop-color="#fcee25" stop-opacity="0.35"/><stop offset="0.29" stop-color="#fbee2f" stop-opacity="0.31"/><stop offset="0.43" stop-color="#faef42" stop-opacity="0.27"/><stop offset="0.56" stop-color="#f9ef5b" stop-opacity="0.23"/><stop offset="0.68" stop-color="#f8f07d" stop-opacity="0.19"/><stop offset="0.81" stop-color="#f6f1a5" stop-opacity="0.16"/><stop offset="0.93" stop-color="#f3f1d5" stop-opacity="0.12"/><stop offset="0.99" stop-color="#f2f2f2" stop-opacity="0.1"/></radialGradient><radialGradient id="radial-gradient-3" cx="455" cy="609.62" r="90.99" gradientTransform="matrix(1, 0, 0, -1, -0.06, 1028.07)" gradientUnits="userSpaceOnUse"><stop offset="0" stop-color="#1ce273"/><stop offset="0.16" stop-color="#1fe272"/><stop offset="0.3" stop-color="#2ae36e"/><stop offset="0.43" stop-color="#3be468"/><stop offset="0.55" stop-color="#53e55f"/><stop offset="0.66" stop-color="#73e753"/><stop offset="0.78" stop-color="#9ae945"/><stop offset="0.89" stop-color="#c7eb34"/><stop offset="0.99" stop-color="#fbee22"/><stop offset="0.99" stop-color="#fcee21"/></radialGradient></defs><circle class="cls-1" cx="455" cy="455" r="455"/><path class="cls-2" d="M457.18,895.58A437.7,437.7,0,0,1,286.85,54.81,437.69,437.69,0,0,1,627.51,861.18,434.82,434.82,0,0,1,457.18,895.58Z"/><path class="cls-3" d="M679.23,402.26a225.14,225.14,0,0,1-124.17,200.9v39.71a25.4,25.4,0,0,1-25.34,25.51h-152A21.31,21.31,0,0,1,356.51,647v-43.8A225.1,225.1,0,0,1,232.33,401.65c0-124.26,100.15-225,223.71-224.84C580,176.81,679.58,277.47,679.23,402.26Z"/><path class="cls-4" d="M518,752.68H391.6c-4.44,0-8.09-4.36-8.09-9.76h0c0-5.39,3.65-9.75,8.09-9.75H518c4.44,0,8.1,4.36,8.1,9.75h0C526.06,748.32,522.4,752.68,518,752.68Z"/><path class="cls-4" d="M535.64,724.2H373.93c-5.75,0-10.37-4.26-10.37-9.49h0c0-5.22,4.71-9.49,10.37-9.49H535.55c5.75,0,10.36,4.27,10.36,9.49h0C546,719.94,541.3,724.2,535.64,724.2Z"/><path class="cls-4" d="M535.64,696.34H373.93c-5.75,0-10.37-4.27-10.37-9.5h0c0-5.22,4.71-9.49,10.37-9.49H535.55c5.75,0,10.36,4.27,10.36,9.49h0C546,692.07,541.3,696.34,535.64,696.34Z"/><path class="cls-5" d="M678.36,400.35c0,124.44-99.79,225.28-223,225.28-102.67,0-189.06-70-215-165.37,38.15,49.11,97.45,80.64,164,80.64,115,0,208.3-94.23,208.3-210.39a210.73,210.73,0,0,0-37-119.74A225.28,225.28,0,0,1,678.36,400.35Z"/><circle class="cls-6" cx="454.56" cy="398.78" r="199.42"/><path class="cls-7" d="M322.81,267a185,185,0,0,1,131.75-54.6"/><path class="cls-7" d="M273.35,355a183.49,183.49,0,0,1,18.46-47.2"/><circle class="cls-8" cx="455" cy="418.37" r="91"/><polygon class="cls-9" points="425.39 647.83 425.39 465.92 373.14 471.32 488.96 269.73 488.96 451.55 541.21 446.15 425.39 647.83"/><polygon class="cls-10" points="425.39 647.83 425.39 465.92 373.14 471.32 488.96 269.73 488.96 451.55 541.21 446.15 425.39 647.83"/><polygon class="cls-9" points="438.45 451.46 397.18 455.73 475.9 318.66 475.9 466.09 517.18 461.74 438.45 598.89 438.45 451.46"/><path class="cls-11" d="M166.17,1048.75a4.36,4.36,0,0,1-1.3-3.21V986.82a4.29,4.29,0,0,1,1.3-3.25,4.41,4.41,0,0,1,3.21-1.26h39.2a4.43,4.43,0,0,1,3.21,1.17,4.08,4.08,0,0,1,1.21,3.08,3.84,3.84,0,0,1-1.21,3,4.54,4.54,0,0,1-3.21,1.13H173.89v21.07h24.89a4.48,4.48,0,0,1,3.17,1.17,4.21,4.21,0,0,1,0,6,4.48,4.48,0,0,1-3.17,1.17H173.89v21.68h34.69a4.54,4.54,0,0,1,3.21,1.13,3.84,3.84,0,0,1,1.21,3,4.08,4.08,0,0,1-1.21,3.08,4.43,4.43,0,0,1-3.21,1.17h-39.2A4.33,4.33,0,0,1,166.17,1048.75Z"/><path class="cls-11" d="M226.84,1048.79a4.38,4.38,0,0,1-1.26-3.25V986.82a4.38,4.38,0,0,1,1.26-3.25,4.29,4.29,0,0,1,3.17-1.26,4.18,4.18,0,0,1,1.9.48,4.85,4.85,0,0,1,1.57,1.17l37.81,50.3V986.82a4.33,4.33,0,0,1,1.3-3.25,4.44,4.44,0,0,1,3.21-1.26,4.3,4.3,0,0,1,3.17,1.26,4.38,4.38,0,0,1,1.26,3.25v58.72a4.38,4.38,0,0,1-1.26,3.25,4.3,4.3,0,0,1-3.17,1.26,5.37,5.37,0,0,1-1.95-.39,3.17,3.17,0,0,1-1.52-1.17l-37.81-50.31v47.36a4.44,4.44,0,0,1-1.26,3.21,4.67,4.67,0,0,1-6.42,0Z"/><path class="cls-11" d="M298.87,1048.75a4.4,4.4,0,0,1-1.3-3.21V986.82a4.33,4.33,0,0,1,1.3-3.25,4.44,4.44,0,0,1,3.21-1.26h39.21a4.43,4.43,0,0,1,3.21,1.17,4.08,4.08,0,0,1,1.21,3.08,3.84,3.84,0,0,1-1.21,3,4.54,4.54,0,0,1-3.21,1.13h-34.7v21.07h24.9a4.46,4.46,0,0,1,3.16,1.17,4.19,4.19,0,0,1,0,6,4.46,4.46,0,0,1-3.16,1.17h-24.9v21.68h34.7a4.54,4.54,0,0,1,3.21,1.13,3.84,3.84,0,0,1,1.21,3,4.08,4.08,0,0,1-1.21,3.08,4.43,4.43,0,0,1-3.21,1.17H302.08A4.36,4.36,0,0,1,298.87,1048.75Z"/><path class="cls-11" d="M403.13,1046a4,4,0,0,1-1.17,2.91,4.29,4.29,0,0,1-3.17,1.17,4.39,4.39,0,0,1-3.9-2.17L380,1023.94H367.31v21.6a4.44,4.44,0,0,1-1.26,3.21,4.31,4.31,0,0,1-3.25,1.3,4.44,4.44,0,0,1-4.51-4.51V986.82a4.29,4.29,0,0,1,1.3-3.25,4.44,4.44,0,0,1,3.21-1.26h15.61a24.13,24.13,0,0,1,11.5,2.69,19.5,19.5,0,0,1,7.89,7.54,21.72,21.72,0,0,1,2.82,11.11A19.36,19.36,0,0,1,389,1021.77l13.27,21.34A5.33,5.33,0,0,1,403.13,1046Zm-24.72-30.36a14.22,14.22,0,0,0,9.72-3.34,10.93,10.93,0,0,0,3.81-8.62,12.39,12.39,0,0,0-3.81-9.37,13.52,13.52,0,0,0-9.72-3.64h-11.1v25Z"/><path class="cls-11" d="M464.84,1016.18a4.39,4.39,0,0,1,1.26,3.25v20.73a3.88,3.88,0,0,1-1.39,3.21,33.61,33.61,0,0,1-38.2,3,33,33,0,0,1-12.1-12.58,35.65,35.65,0,0,1-4.43-17.61,35.28,35.28,0,0,1,4.43-17.47,33.53,33.53,0,0,1,12.1-12.58,32.16,32.16,0,0,1,16.95-4.64,33.59,33.59,0,0,1,11.41,1.74,34.06,34.06,0,0,1,9.76,5.72,4.22,4.22,0,0,1,1.39,1.61,5,5,0,0,1,.34,2,3.68,3.68,0,0,1-1.26,2.86,4.32,4.32,0,0,1-3,1.13,4.63,4.63,0,0,1-2.95-1.13,25.34,25.34,0,0,0-6.94-4.38,23.91,23.91,0,0,0-8.76-1.35A23,23,0,0,0,431,993.15a25.62,25.62,0,0,0-9,9.67,28.29,28.29,0,0,0,0,26.67,25.72,25.72,0,0,0,9,9.63,23,23,0,0,0,12.44,3.56,25.31,25.31,0,0,0,14-4.34V1022.9h-12a4.63,4.63,0,0,1-3.25-1.13,3.88,3.88,0,0,1,0-5.72,4.68,4.68,0,0,1,3.25-1.13h16.22A4.27,4.27,0,0,1,464.84,1016.18Z"/><path class="cls-11" d="M528.42,983.52a4.26,4.26,0,0,1,1.09,3,5.28,5.28,0,0,1-.87,2.86l-23.33,36v20.21a4.44,4.44,0,0,1-4.51,4.51,4.26,4.26,0,0,1-3.13-1.3,4.4,4.4,0,0,1-1.3-3.21v-20.21l-23.15-36a5.11,5.11,0,0,1-1-2.77,3.91,3.91,0,0,1,1.35-3,4.55,4.55,0,0,1,3.16-1.21,3.82,3.82,0,0,1,2.26.61,7.26,7.26,0,0,1,1.73,1.9l20.3,32.18,20.64-32.52a4.46,4.46,0,0,1,4-2.17A3.49,3.49,0,0,1,528.42,983.52Z"/><path class="cls-11" d="M577.69,1048.36a24.15,24.15,0,0,1-10.06-8.54,22.22,22.22,0,0,1-3.6-12.5v-40.5a4.29,4.29,0,0,1,1.3-3.25,4.44,4.44,0,0,1,3.21-1.26,4.32,4.32,0,0,1,4.51,4.51v40.5a14.34,14.34,0,0,0,2.47,8.25,16.52,16.52,0,0,0,6.85,5.68,23.63,23.63,0,0,0,10,2,22.1,22.1,0,0,0,9.63-2,16.15,16.15,0,0,0,6.64-5.68,14.81,14.81,0,0,0,2.38-8.25v-40.5a4.29,4.29,0,0,1,1.3-3.25,4.44,4.44,0,0,1,3.21-1.26,4.3,4.3,0,0,1,3.17,1.26,4.41,4.41,0,0,1,1.25,3.25v40.5a22.66,22.66,0,0,1-3.51,12.45,23.67,23.67,0,0,1-9.8,8.59,32.07,32.07,0,0,1-14.27,3.08A33.82,33.82,0,0,1,577.69,1048.36Z"/><path class="cls-11" d="M643.52,1047.1a20.69,20.69,0,0,1-9.5-10,4.75,4.75,0,0,1-.43-1.74,3.23,3.23,0,0,1,1-2.3,4.87,4.87,0,0,1,2.6-1.34,2.92,2.92,0,0,1,.87-.09,4.75,4.75,0,0,1,2.64.83,4.89,4.89,0,0,1,1.86,2.21q1.58,3.38,6.16,5.72a22.08,22.08,0,0,0,10.15,2.35,19.46,19.46,0,0,0,11-3,9.36,9.36,0,0,0,4.51-8.19,11.1,11.1,0,0,0-3.82-8.46c-2.54-2.34-6.42-3.78-11.62-4.29q-10.75-1.05-16.92-6.29a16.57,16.57,0,0,1-6.15-13.14,15.08,15.08,0,0,1,3.16-9.59,19.76,19.76,0,0,1,8.68-6.16,34.24,34.24,0,0,1,12.36-2.12,24.28,24.28,0,0,1,12.57,3,26.08,26.08,0,0,1,8.68,8.68,5.93,5.93,0,0,1,1,3.12,3.67,3.67,0,0,1-1.74,3.12,4,4,0,0,1-2.25.61,4.81,4.81,0,0,1-2.43-.65,4.58,4.58,0,0,1-1.74-1.78,16.5,16.5,0,0,0-5.85-5.94,17.51,17.51,0,0,0-8.89-2q-6.6,0-10.67,2.56a8.23,8.23,0,0,0-4.08,7.42,9.44,9.44,0,0,0,3.65,7.54q3.63,3,13,4,10.41,1,16.13,6.29t5.73,13.83a17.22,17.22,0,0,1-3.39,10.72,20.49,20.49,0,0,1-9,6.68,32.5,32.5,0,0,1-12,2.21A31,31,0,0,1,643.52,1047.1Z"/><path class="cls-11" d="M698.3,1048.75a4.36,4.36,0,0,1-1.3-3.21V986.82a4.29,4.29,0,0,1,1.3-3.25,4.41,4.41,0,0,1,3.21-1.26h39.2a4.43,4.43,0,0,1,3.21,1.17,4.08,4.08,0,0,1,1.21,3.08,3.84,3.84,0,0,1-1.21,3,4.54,4.54,0,0,1-3.21,1.13H706v21.07h24.89a4.48,4.48,0,0,1,3.17,1.17,4.21,4.21,0,0,1,0,6,4.48,4.48,0,0,1-3.17,1.17H706v21.68h34.69a4.54,4.54,0,0,1,3.21,1.13,3.84,3.84,0,0,1,1.21,3,4.08,4.08,0,0,1-1.21,3.08,4.43,4.43,0,0,1-3.21,1.17h-39.2A4.33,4.33,0,0,1,698.3,1048.75Z"/></svg>