<svg id="Layer_1" data-name="Layer 1" xmlns="http://www.w3.org/2000/svg" xmlns:xlink="http://www.w3.org/1999/xlink" viewBox="0 0 1080 215.8"><defs><style>.cls-1{fill:none;}.cls-2{fill:#fff;}.cls-3{fill:#296260;}.cls-4{fill:#d5d8d4;}.cls-5{fill:#bdccd4;}.cls-6{fill:#8c776e;}.cls-7{fill:#a76b72;}.cls-8{fill:#966866;}.cls-26,.cls-36,.cls-9{isolation:isolate;}.cls-9{opacity:0.3;}.cls-10{fill:#ef6f73;}.cls-11{fill:gray;}.cls-12{fill:#498f3c;}.cls-13{fill:#6eb744;}.cls-14{fill:#75bb4d;}.cls-15{fill:#65a15b;}.cls-16{fill:#ddeadb;}.cls-17{fill:#5bb951;}.cls-18{fill:#2b3040;}.cls-19{fill:#c8353b;}.cls-20{fill:#2a3044;}.cls-21{clip-path:url(#clip-path);}.cls-22{fill:#393939;}.cls-23{fill:#6da695;}.cls-24{fill:#368380;}.cls-25{fill:#da9368;}.cls-26{opacity:0.4;}.cls-27{fill:#e6e6e6;}.cls-28{fill:#1b1464;}.cls-29{fill:#a5bfd3;}.cls-30{fill:#bdc2c4;}.cls-31{fill:#a36e4e;}.cls-32{fill:#eff0f0;}.cls-33{fill:#e6f1fa;}.cls-34{fill:#006837;}.cls-35{fill:#009245;}</style><clipPath id="clip-path"><ellipse class="cls-1" cx="951.8" cy="117.4" rx="82.7" ry="83.1"/></clipPath></defs><g id="AJLC"><rect class="cls-2" y="141.6" width="1080" height="23"/><rect class="cls-3" width="1080" height="141.1"/><circle class="cls-2" cx="952.9" cy="117.1" r="98.7" transform="translate(196.3 708.1) rotate(-45)"/><path class="cls-2" d="M951.6,92.8A23.4,23.4,0,1,0,975,116.2,23.4,23.4,0,0,0,951.6,92.8Zm.1,45.8a22.7,22.7,0,1,1,22.7-22.7,22.7,22.7,0,0,1-22.7,22.7Z"/><ellipse class="cls-2" cx="952.3" cy="117" rx="83.8" ry="84.2"/><polygon class="cls-4" points="870.7 106.4 987.4 55.4 987.4 61.4 870.7 109.6 870.7 106.4"/><path d="M930.6,89.7"/><polygon class="cls-5" points="987.4 55.4 1033.4 103 1033.4 134.5 987.4 125.4 987.4 55.4"/><polygon class="cls-4" points="987.4 125.4 870.7 137.2 870.7 133.8 987.4 118.5 987.4 125.4"/><polygon class="cls-5" points="870.7 109.6 870.7 133.8 931.3 125.9 930.6 84.9 870.7 109.6"/><polygon class="cls-6" points="930.6 84.9 944.5 90 981.8 77.2 987.4 61.4 930.6 84.9"/><polygon class="cls-7" points="981.8 77.2 982.8 119.1 987.4 118.5 987.4 61.4 981.8 77.2"/><polygon class="cls-8" points="930.6 84.9 931.3 125.9 944.6 124.1 944.5 90 930.6 84.9"/><polygon class="cls-9" points="992.1 63.9 1033.4 106.4 1033.4 104.7 992.1 62 992.1 63.9"/><polygon class="cls-10" points="944.5 90 944.6 124.1 982.8 119.1 981.8 77.2 944.5 90"/><polygon class="cls-4" points="992.1 126.3 992.1 60.3 987.4 55.4 987.4 125.4 992.1 126.3"/><polygon class="cls-4" points="992.1 62.2 1033.4 104.6 1033.4 103 992.1 60.3 992.1 62.2"/><polygon class="cls-4" points="992.1 124.4 992.1 126.3 1033.4 134.5 1033.4 133.3 992.1 124.4"/><polygon class="cls-11" points="1033.4 134.5 895.9 134.7 987.4 125.4 1033.4 134.5"/><path class="cls-12" d="M959.2,166.9c-4.3-2.6.1-4.8.7-6.8,3.1-9.2,9.2-17.2,10.8-27.1,3.4-9.6,4.1-20.8,15.4-25.6,1.5,9.2,4.9,17.4,4.2,27.7-1.6,22.6-14.9,32-33,38.6-1.8,1.2-1.8,0-1.7-1.4,1.2-1,2.4-2,3.5-3,2-2,3.7-4.3,5.8-6.2C963.2,164.5,962.1,167.1,959.2,166.9Z"/><path class="cls-13" d="M986.2,107.4c-6.5,3.3-6,10.8-9.5,15.9-2.1,3.1-3.9,6.4-5.9,9.7-8.5,7.6-11.3,19.2-19.1,27.4l.1.2c-4.7-15.8-1.2-30,7.7-43.5,3.7,2.2,0,5.6,2.9,7.1,3-2.4,2.7-6.3,4.3-9.4,1.5-2.9,2.6-6.4,6.2-2,1.8,2.2,1.7,0,2-.8,2.5-7.2,9.2-10.3,15.5-16.9C989.2,100.8,985.6,103.5,986.2,107.4Z"/><path class="cls-14" d="M951.7,160.4c-5.9,3.1-8.6-.4-10.7-5.2-4.5-10.2-2.3-19.3,4.3-27.8,1.9-2.4,2.2-6,7.2-9.8a78.85,78.85,0,0,0-4.9,32.8c.2,4,.3,7.8,4.2,10.2Z"/><path class="cls-15" d="M955.7,172.4l1.7,1.4c-4.9,3.3-9.7,6.7-16.8,11.5C944.1,176.1,951,175.6,955.7,172.4Z"/><path class="cls-16" d="M959.2,166.9c3.3-3.9,6.6-7.7,9.9-11.6.7.6,1.3,1.3,2,1.9a31,31,0,0,1-11.9,12.2Z"/><path class="cls-17" d="M952.9,31a85.9,85.9,0,1,0,85.9,85.9A85.9,85.9,0,0,0,952.9,31Zm0,166.7a80.8,80.8,0,1,1,80.8-80.8A80.81,80.81,0,0,1,952.9,197.7Z"/><ellipse class="cls-2" cx="952.3" cy="118.3" rx="84.8" ry="85.2"/><path class="cls-18" d="M931.4,59.4h21.8V49.5H927.8l-24.4,24V163l24.5,25.1h25.2v-9.4H932.6l-19.4-19.8V77.6Z"/><path class="cls-2" d="M932.9,62.5h20.2V59.4H931.3L913.2,77.6v81.2l19.4,19.8h20.5V175H933l-16.7-17V78.7Z"/><path class="cls-19" d="M941.7,74.5h11.4v-12H932.9L916.3,78.7V158L933,175h20.1V163H942.3l-9.9-9.9V83.9Z"/><path class="cls-2" d="M943,77.4h10.1V74.5H941.7l-9.3,9.4v69.2l9.9,9.9h10.8v-2.9h-9.4l-8.5-8.8V85.2Z"/><path class="cls-20" d="M953.1,86.5V77.4H943l-7.8,7.8v66.2l8.5,8.8h9.4v-9.5l-8.8-.1V86.5Z"/><polygon class="cls-2" points="953.1 86.5 953.1 150.7 944.3 150.6 944.3 86.5 953.1 86.5"/><path class="cls-18" d="M992.4,77.6v81.2L973,178.7H952.5v9.4h25.2l24.5-25.1V73.5l-24.4-24H952.4v9.9h21.8Z"/><path class="cls-2" d="M989.3,78.7V158l-16.7,17H952.5v3.6H973l19.4-19.8V77.6L974.3,59.4H952.5v3.1h20.2Z"/><path class="cls-19" d="M973.2,83.9v69.2l-9.9,9.9H952.5v12h20.1l16.7-17V78.7L972.7,62.6H952.5v12h11.4Z"/><path class="cls-2" d="M970.4,85.2v66.2l-8.5,8.8h-9.4v2.9h10.8l9.9-9.9V83.9l-9.3-9.4H952.5v2.9h10.1Z"/><path class="cls-20" d="M961.3,86.5v64.1l-8.8.1v9.5h9.4l8.5-8.8V85.2l-7.8-7.8H952.5v9.1Z"/><polygon class="cls-2" points="952.5 86.5 952.5 150.7 961.3 150.6 961.3 86.5 952.5 86.5"/><ellipse class="cls-2" cx="952.5" cy="117.7" rx="82.7" ry="83.1"/><ellipse class="cls-1" cx="952.2" cy="119.2" rx="82.7" ry="83.1"/><g class="cls-21"><polygon class="cls-22" points="961.4 84.9 961.6 89.5 969 87.3 961.4 84.9"/><path class="cls-23" d="M904.4,144.4c.1.9,6.9.5,18.9,3.6,8.2,2.1,8.6,3.2,14.2,3.8,7.1.8,8.6-.7,19.4-.7,8.9,0,10.2,1,18.9,1.2,14.9.2,18.6-.8,19.9-1.4.8-.4,4.3-1.9,3.7-3.6-1.2-3.4-18.4-4.8-26.7-5.5C938,139,904.2,142.4,904.4,144.4Z"/><polygon class="cls-24" points="877.9 100.9 910.6 86.9 910.6 138.7 878 138.8 877.9 100.9"/><path class="cls-1" d="M910.5,128V88c6.8-3.2,19.3-5.9,35-4.7,6.3.5,11.7-.3,16.1,1.2v54.2H910.5Z"/><polygon class="cls-25" points="888.8 96.8 878 101.8 878 138.8 858 138.7 858.2 109.4 888.8 96.8"/><polygon class="cls-26" points="858.2 111.5 858.2 109.1 910.6 86.9 910.6 90.2 858.2 111.5"/><polygon class="cls-1" points="962.7 110.7 962.7 138.4 1005.8 138.4 1005.8 104.7 962.7 110.7"/><polygon class="cls-1" points="1005.8 104.7 1039.2 107.7 1039.2 138.8 1005.8 138.8 1005.8 104.7"/><polygon class="cls-1" points="961.6 111.1 961.6 109 1005.7 102.2 1005.7 104.7 961.6 111.1"/><polygon class="cls-1" points="1005.7 102.2 1040.7 105.6 1039.2 107.7 1005.7 104.7 1005.7 102.2"/><polygon class="cls-27" points="962.7 110.3 962.7 138 1005.8 138 1005.8 104.2 962.7 110.3"/><polyline class="cls-24" points="963.9 138.4 963.9 115 1004 110.5 1004.2 138.4 963.9 138.4"/><polygon class="cls-1" points="963.8 108.7 963.8 102 1005.7 93.4 1005.7 102.2 963.8 108.7"/><polygon class="cls-1" points="1005.7 93.4 1038.6 98.7 1038.6 105.4 1005.7 102.2 1005.7 93.4"/><polygon class="cls-1" points="962.6 101.4 971.5 98.7 1005.7 91.5 1005.7 93.8 962.4 102.3 962.6 101.4"/><polygon class="cls-1" points="1005.7 91.5 1039.1 97.7 1039 99 1005.7 93.8 1005.7 91.5"/><path class="cls-3" d="M910.5,128V88c6.8-3.2,19.3-5.9,35-4.7,6.3.5,11.7-.3,16.1,1.2v54.2H910.5Z"/><polygon class="cls-28" points="901.3 89.3 901.3 90.5 853.9 111.1 853.9 109.9 901.3 89.3"/><polygon class="cls-5" points="901.3 90.5 901.3 92 853.9 111.9 853.9 111.1 901.3 90.5"/><polygon class="cls-29" points="1005.8 104.7 1039.2 107.7 1039.2 138.8 1005.8 138.8 1005.8 104.7"/><polygon class="cls-27" points="961.6 111.1 961.6 109 1005.7 102.2 1005.7 104.7 961.6 111.1"/><polygon class="cls-30" points="1005.7 102.2 1040.7 105.6 1039.2 107.7 1005.7 104.7 1005.7 102.2"/><polygon class="cls-3" points="1007.7 110.2 1039.2 113 1039.2 138.8 1007.7 138.8 1007.7 110.2"/><polygon class="cls-25" points="963.8 108.7 963.8 102 1005.7 93.4 1005.7 102.2 963.8 108.7"/><polygon class="cls-31" points="1005.7 93.4 1038.6 98.7 1038.6 105.4 1005.7 102.2 1005.7 93.4"/><polygon class="cls-27" points="961.8 101.6 970.9 98.9 1005.7 91.4 1005.7 93.8 961.6 102.6 961.8 101.6"/><polygon class="cls-30" points="1005.7 91.5 1039.1 97.7 1039 99 1005.7 93.8 1005.7 91.5"/><polygon class="cls-29" points="910.5 93.2 961.6 98 961.6 99.8 910.5 94.9 910.5 93.2"/><polygon class="cls-29" points="910.5 99.1 961.6 103.9 961.6 104.7 910.5 99.7 910.5 99.1"/><polygon class="cls-29" points="910.5 113.3 961.6 116.1 961.6 116.8 910.5 113.9 910.5 113.3"/><polyline class="cls-29" points="910.5 119.4 961.6 122.1 961.6 122.9 910.5 120"/><polygon class="cls-29" points="919.7 86.1 919.3 138.7 919.7 138.7 920.5 85.9 919.7 86.1"/><polyline class="cls-29" points="937 83.4 936.2 138.6 936.6 138.6 937.8 83.2"/><polyline class="cls-29" points="952.8 83.5 952.4 138.7 952.9 138.7 953.7 83.3"/><polygon class="cls-32" points="910.5 93.2 877.8 105 878 106.3 910.5 94.9 910.5 93.2"/><polygon class="cls-32" points="910.5 98.9 877.8 109.1 878 109.5 910.5 99.8 910.5 98.9"/><polygon class="cls-32" points="910.5 113.2 877.8 118.8 878 119.3 910.5 114 910.5 113.2"/><polygon class="cls-32" points="910.5 119.3 877.8 123.5 878 124 910.5 120.1 910.5 119.3"/><polygon class="cls-33" points="974.9 113.3 974.9 138.4 975.8 138.4 975.8 113.2 974.9 113.3"/><polygon class="cls-33" points="988.5 111.9 988.7 138.4 989.6 138.4 989.4 111.8 988.5 111.9"/><path class="cls-26" d="M912.4,89.8a112.7,112.7,0,0,1,27.5-4.1,105,105,0,0,1,21.6,1.7V83.9l-23.4-2.4c-8.4,1.5-16.8,2.9-25.2,4.4C912.7,87.2,912.6,88.5,912.4,89.8Z"/><polygon class="cls-33" points="963.7 120.9 1004.5 117.7 1004.5 118.6 963.6 121.6 963.7 120.9"/><polygon class="cls-33" points="963.5 134.3 1004.8 133.8 1004.8 134.3 963.5 134.8 963.5 134.3"/><polygon class="cls-32" points="910.5 86.9 910.7 138.7 909.1 138.6 908.8 87.6 910.5 86.9"/><path class="cls-30" d="M969.6,85.3a89.87,89.87,0,0,0-68.3,4v2.8a101.72,101.72,0,0,1,40.4-8.4A99.25,99.25,0,0,1,969,87.5C969.2,86.7,969.4,86,969.6,85.3Z"/><polygon class="cls-30" points="912.5 87.1 912.4 138.6 910.5 138.7 910.4 87.4 912.5 87.1"/><path class="cls-34" d="M915.6,139.8c-.3-.3-.7-.6-1-.9a5.81,5.81,0,0,0,.3-1.9,6.27,6.27,0,0,0-6.24-6.3h-.06a6.48,6.48,0,0,0-3.1.8,7.57,7.57,0,0,0-6.4-3.4,7.65,7.65,0,0,0-7.3,5.3,3.18,3.18,0,0,0-1.4-.2,4.27,4.27,0,0,0-4.3,4.24v.06a4.62,4.62,0,0,0,.6,2.3,7.58,7.58,0,0,0-3.8,6.6,7.7,7.7,0,0,0,7.7,7.7h0a7.89,7.89,0,0,0,5.5-2.3,7.19,7.19,0,0,0,8.9-.3,7.85,7.85,0,0,0,10.6-.5A8.09,8.09,0,0,0,915.6,139.8Z"/><path class="cls-35" d="M931.2,145.8a4.84,4.84,0,0,0-.8-.7,7.52,7.52,0,0,0,.2-1.5,5,5,0,0,0-5-5,4.25,4.25,0,0,0-2.5.7,6.13,6.13,0,0,0-10.9,1.5,3.75,3.75,0,0,0-1.1-.2,3.37,3.37,0,0,0-3.4,3.34V144a3.47,3.47,0,0,0,.5,1.8,6.07,6.07,0,1,0,6.19,10.45,6.18,6.18,0,0,0,1.21-.95,5.69,5.69,0,0,0,7.1-.3,6.27,6.27,0,0,0,8.4-.4,6,6,0,0,0,.42-8.47A3.34,3.34,0,0,0,931.2,145.8Z"/><path class="cls-35" d="M1017.8,142.2c-.3-.3-.6-.5-.9-.8a4.69,4.69,0,0,0,.3-1.7,5.59,5.59,0,0,0-5.58-5.6h0a6.51,6.51,0,0,0-2.8.7,6.84,6.84,0,0,0-5.7-3,6.69,6.69,0,0,0-6.4,4.7,4.86,4.86,0,0,0-1.2-.2,3.8,3.8,0,0,0-3.8,3.8,3.64,3.64,0,0,0,.6,2,6.82,6.82,0,1,0,7,11.7,7,7,0,0,0,1.29-1,6.28,6.28,0,0,0,7.9-.2,7,7,0,0,0,9.3-10.4Z"/><polygon class="cls-29" points="1023.1 111.1 1023.3 138.7 1024.4 138.7 1024.5 110.9 1023.1 111.1"/><polygon class="cls-29" points="1007.7 117.8 1039.2 120.1 1039.2 121.1 1007.7 118.8 1007.7 117.8"/><polyline class="cls-29" points="1007.5 133.5 1039 134.2 1039 135.1 1007.5 134.3 1007.5 133.5"/></g><g class="cls-36"><path class="cls-2" d="M63.38,106.86c-2.64-1.48-4.29-4.45-2.64-7.92L84.41,52.66c2.23-4.37,8.17-4.53,10.23,0L117.9,98.94c3.39,6.44-6.59,11.55-9.56,5.12l-3.63-7.26H74.27l-3.55,7.26C69.4,106.86,66.35,107.44,63.38,106.86Zm35.47-21L89.53,65.53,79.38,85.91Z"/><path class="cls-2" d="M151.48,54.73c0-6.93,10.89-6.93,10.89,0V87.31c0,13-6.19,20.79-20.46,20.79-7,0-12.87-1.9-18-8.5-4.21-5,3.71-12.29,8-7,3.46,4.29,7.17,5.28,10.8,5.11,4.62-.16,8.67-2.22,8.75-10.39Z"/><path class="cls-2" d="M174.41,54.73a5.14,5.14,0,0,1,5.2-5,5,5,0,0,1,4.86,5V96.05h22.44c8.08,0,8.25,10.81,0,10.81h-27.3a5,5,0,0,1-5.2-5Z"/><path class="cls-2" d="M219.45,77.91c0-15.92,10-29.62,29-29.62,7.18,0,12.87,2.15,18.89,7.34A5.35,5.35,0,1,1,260,63.39c-3.38-3.55-6.85-4.54-11.55-4.54-12.7,0-18.81,9-18.81,19.06,0,10.23,6,19.63,18.81,19.63a19.22,19.22,0,0,0,12.87-5.28,5.55,5.55,0,0,1,7.59,1c1.32,1.81,2,4.87-.91,7.75-5.77,5.36-12.7,6.44-19.55,6.44C228.44,107.44,219.45,93.83,219.45,77.91Z"/></g><path class="cls-17" d="M952.8,31.9a86.9,86.9,0,1,0,86.9,86.9,86.9,86.9,0,0,0-86.9-86.9Zm0,168.6a81.7,81.7,0,1,1,81.7-81.7h0A81.74,81.74,0,0,1,952.8,200.5Z"/></g></svg>