<?xml version="1.0" encoding="utf-8"?>
<!-- Generator: Adobe Illustrator 25.3.1, SVG Export Plug-In . SVG Version: 6.00 Build 0)  -->
<svg version="1.1" id="Layer_1" xmlns="http://www.w3.org/2000/svg" xmlns:xlink="http://www.w3.org/1999/xlink" x="0px" y="0px"
	 viewBox="0 0 1080.2 215.9" style="enable-background:new 0 0 1080.2 215.9;" xml:space="preserve">
<style type="text/css">
	.st0{fill:#FFFFFF;}
	.st1{fill:#C8353B;}
	.st2{fill:#5BB951;}
	.st3{fill:#2B3040;}
	.st4{fill:#2A3044;}
	.st5{fill:#B42717;}
	.st6{fill:#A85D39;}
	.st7{fill:#BD6840;}
	.st8{fill:#7E462C;}
	.st9{fill:#935233;}
	.st10{fill:#7F462C;}
	.st11{fill:#7D452A;}
	.st12{fill:#6A3A25;}
	.st13{fill:#D27447;}
	.st14{fill:#935133;}
	.st15{fill:#7E462B;}
</style>
<g id="Ben_Franklin">
	<rect y="141.1" class="st0" width="1080" height="23"/>
	<rect class="st1" width="1080" height="141.1"/>
	
		<ellipse transform="matrix(0.7071 -0.7071 0.7071 0.7071 196.6398 708.5704)" class="st0" cx="953.6" cy="116.9" rx="98.7" ry="98.7"/>
	<path class="st2" d="M953.6,29.9c-47.5,0-85.9,38.5-85.9,85.9s38.5,85.9,85.9,85.9c47.5,0,85.9-38.5,85.9-85.9
		S1001.1,29.9,953.6,29.9L953.6,29.9z M953.6,196.6c-44.6,0-80.8-36.2-80.8-80.8c0-44.6,36.2-80.8,80.8-80.8
		c44.6,0,80.8,36.2,80.8,80.8c0,0,0,0,0,0C1034.5,160.4,998.3,196.6,953.6,196.6C953.7,196.6,953.6,196.6,953.6,196.6z"/>
	<path class="st3" d="M932.4,57.1h21.5v-9.8h-25.1L904.7,71v88.5l24.3,24.8h24.9V175h-20.3l-19.2-19.6V75.1L932.4,57.1z"/>
	<path class="st0" d="M934,60.2h20v-3.1h-21.6l-17.9,18v80.3l19.2,19.6h20.3v-3.6h-19.9l-16.5-16.9V76.2L934,60.2z"/>
	<path class="st1" d="M942.7,72h11.3V60.2H934l-16.4,16v78.3l16.5,16.9H954v-11.9h-10.7l-9.8-9.8V81.3L942.7,72z"/>
	<path class="st0" d="M944,74.9h10V72h-11.3l-9.2,9.3v68.4l9.8,9.8h10.7v-2.8h-9.3l-8.4-8.7V82.6L944,74.9z"/>
	<path class="st4" d="M953.9,83.9v-9H944l-7.7,7.7v65.5l8.4,8.7h9.3v-9.4l-8.7-0.1V83.9H953.9z"/>
	<polygon class="st0" points="953.9,83.9 953.9,147.3 945.2,147.2 945.2,83.9 	"/>
	<path class="st3" d="M992.8,75.1v80.3L973.6,175h-20.3v9.3h24.9l24.3-24.8V71l-24.1-23.7h-25.1v9.8h21.5L992.8,75.1z"/>
	<path class="st0" d="M989.7,76.2v78.4l-16.5,16.9h-19.9v3.6h20.3l19.2-19.6V75.1l-18-18h-21.5v3.1h20L989.7,76.2z"/>
	<path class="st1" d="M973.8,81.3v68.4l-9.8,9.8h-10.7v11.9h19.9l16.5-16.9V76.2l-16.4-16h-20V72h11.3L973.8,81.3z"/>
	<path class="st0" d="M971,82.6v65.5l-8.4,8.7h-9.3v2.8H964l9.8-9.8V81.3l-9.2-9.3h-11.2v2.8h10L971,82.6z"/>
	<path class="st4" d="M962,83.9v63.3l-8.7,0.1v9.4h9.3l8.4-8.7V82.6l-7.7-7.7h-10v9L962,83.9z"/>
	<path class="st0" d="M80.5,99c-14.8,0.6-30.2-9.2-30.2-28.8s15.4-29.4,30.2-29.4c14,0.7,28.6,10.4,28.6,29.4S94.5,99,80.5,99z
		 M79.7,51.3c-9,0-18.7,6.3-18.7,19s9.8,19,18.7,19c9.2,0,19-6.4,19-19S88.9,51.3,79.7,51.3z"/>
	<path class="st0" d="M119,47.7c0-3,2.4-5.5,5.4-5.5h18.5c10.4,0,19.8,7,19.8,20.3c0,12.6-9.4,19.7-19.8,19.7h-13.3v10.6
		c0,3.5-2.2,5.5-5.1,5.5c-3,0-5.4-2.4-5.5-5.3c0-0.1,0-0.1,0-0.2V47.7z M129.6,52.2v19.9h13.4c5.3-0.1,9.5-4.4,9.6-9.7
		c0-5.6-4.2-10.2-9.6-10.2L129.6,52.2z"/>
	<path class="st0" d="M170.2,54.9c1.8-15.5,25.3-18.3,36.3-9.8c5.4,4.4-0.3,11.4-5.1,7.8c-5.9-3.8-19.4-5.5-21,2.8
		c-2.2,13.1,32.6,5.6,32,26.9c-0.6,20.3-30,20.8-41,11.7c-2.3-1.9-2.8-5.3-1.1-7.8c2.1-2.1,4.4-2.8,7.1-0.6
		c6.6,4.5,23.4,7.8,24.6-3.5C201,70.5,167.7,77.6,170.2,54.9z"/>
	<rect x="0.2" y="141.6" class="st0" width="1080" height="23"/>
	<rect x="0.2" y="0" class="st5" width="1080" height="141.1"/>
	
		<ellipse transform="matrix(0.7071 -0.7071 0.7071 0.7071 196.3219 708.2629)" class="st0" cx="953.1" cy="117.2" rx="98.7" ry="98.7"/>
	<path class="st0" d="M60.8,96.4c-2.6,0.1-4.8-2-4.9-4.7c0-0.1,0-0.2,0-0.3V46c-0.2-2.6,1.8-4.8,4.4-5c0.1,0,0.3,0,0.4,0h22.5
		c10.5,0,16.2,7.1,16.2,15.3c0.1,3.9-1.5,7.6-4.4,10.1c6.3,2.5,9.1,7.4,9.1,13.3c0,9.2-6.2,16.7-18.2,16.7H60.8z M83.3,50.8H66.4
		v11.9h16.9c3.4,0,5.6-2.2,5.6-6.4C88.8,53.2,86.3,50.7,83.3,50.8z M66.4,86.6h19.5c9.3,0,9.3-14.2,0-14.2H66.4V86.6z"/>
	<path class="st0" d="M118.5,96.4c-2.7,0.1-4.9-2.1-5-4.8c0-0.1,0-0.2,0-0.2V46c-0.1-2.7,2-4.9,4.7-5c0.1,0,0.2,0,0.3,0h28.7
		c7.4,0,7.2,10.4,0,10.4h-23v12h20.1c7.1,0,7.1,10.5,0,10.5h-20.2v12h24.4c7.3,0,7.8,10.5,0,10.5L118.5,96.4z"/>
	<path class="st0" d="M162.9,46.5c0-2.9,0.6-5.7,4.8-5.7c2.9,0,3.5,0.7,5.7,2.8l26.5,33.1v-31c0-2.6,2.3-5.5,5-5.5
		c3,0.2,5.4,2.5,5.7,5.5v45c0,3.5-2.2,4.9-4.2,5.5c-2.8,0-4.2-0.6-6.5-2.8L173.3,60v30.9c0,3.5-2.2,5.5-5,5.5
		c-2.9,0.1-5.3-2.2-5.4-5.1c0-0.1,0-0.3,0-0.4L162.9,46.5z"/>
	<path class="st0" d="M255.4,51.4v12.7h20.4c3.1,0.2,5.5,2.6,5.8,5.7c0,2.6-2.9,4.8-5.8,4.8h-20.4v16.8c0.1,2.6-1.9,4.9-4.5,5
		c-0.1,0-0.2,0-0.3,0c-3.5,0-5.7-2.2-5.7-5V46c0-2.9,2.2-5,5.7-5h28.1c3.5,0,5.6,2.1,5.6,5c0,3-2.6,5.5-5.6,5.4c0,0,0,0,0,0H255.4z"
		/>
	<path class="st0" d="M303.8,91.2c0,7-10.6,7.2-10.6,0.2V45.9c-0.1-2.6,2-4.8,4.7-4.9c0,0,0.1,0,0.1,0h21.3c20.3,0,24.5,27.2,7.5,34
		l10.6,13c4.2,6.2-4.2,12.1-9,6l-12-17.3h-12.6V91.2z M303.8,67.5h15.4c10.4,0,11-16.8,0-16.8h-15.4V67.5z"/>
	<path class="st0" d="M346.1,96.4c-2.8-1.4-4-4.7-2.6-7.5c0-0.1,0-0.1,0.1-0.2l23-44.9c2.2-4.2,7.9-4.4,9.9,0L399,88.7
		c3.3,6.2-6.4,11.2-9.3,5l-3.5-7h-29.5l-3.4,7C352,96.4,349,96.9,346.1,96.4z M380.5,76l-9-19.8L361.7,76H380.5z"/>
	<path class="st0" d="M406.4,46.5c0-2.9,0.6-5.7,4.8-5.7c2.9,0,3.5,0.7,5.7,2.8l26.5,33.1v-31c0-2.6,2.3-5.5,5-5.5
		c3,0.2,5.4,2.5,5.7,5.5v45c0,3.5-2.2,4.9-4.2,5.5c-2.8,0-4.2-0.6-6.5-2.8L416.9,60v30.9c0,3.5-2.2,5.5-5,5.5
		c-2.9,0.1-5.3-2.2-5.4-5.1c0-0.1,0-0.3,0-0.4L406.4,46.5z"/>
	<path class="st0" d="M483.3,71.9l-7.6,8.4v11.2c0,6.6-10.6,6.7-10.6,0V45.8c0-6.8,10.6-7,10.6,0v20.3l23.1-23.8
		c2.8-2.6,5.6-2,7.6,0c2,1.6,2.2,4.5,0.6,6.5c-0.2,0.2-0.4,0.4-0.6,0.6c-4.7,5.6-10.2,10.6-15.4,16.2l18.7,22.6
		c4.8,6.6-5.4,11.4-8.6,6.3L483.3,71.9z"/>
	<path class="st0" d="M518.9,45.8c0.1-2.7,2.3-4.9,5-4.9c2.6,0.1,4.7,2.2,4.7,4.9v40.1h21.8c7.8,0,8,10.5,0,10.5h-26.4
		c-2.7,0.1-4.9-2-5-4.7c0-0.1,0-0.1,0-0.2L518.9,45.8z"/>
	<path class="st0" d="M565.1,45.8c0-6.6,10.6-6.8,10.6,0v45.7c0,6.6-10.6,6.8-10.6,0V45.8z"/>
	<path class="st0" d="M587.6,46.5c0-2.9,0.6-5.7,4.8-5.7c2.9,0,3.5,0.7,5.7,2.8l26.5,33.1v-31c0-2.6,2.3-5.5,5-5.5
		c3,0.2,5.4,2.5,5.7,5.5v45c0,3.5-2.2,4.9-4.2,5.5c-2.8,0-4.2-0.6-6.5-2.8L598,60v30.9c0,3.5-2.2,5.5-5,5.5
		c-2.9,0.1-5.3-2.2-5.4-5.1c0-0.1,0-0.3,0-0.4L587.6,46.5z"/>
	<path class="st0" d="M1013.5,127.9h1.9h15.2h8.1c0.5-3.6,0.7-7.3,0.7-11c0-3.3-0.2-6.6-0.6-9.8h-8.2c-5.1,0-10.1,0-15.2,0h-1.7
		c-1.6,0-2.2-0.4-2.2-2.1c0-0.4,0-0.9,0-1.3c0-1,0-1.9,0-2.9c0-2.2,0-4.4-0.1-6.6c0-1.4,0.3-2,1.8-2c5.7,0,11.4,0,17.1,0h5.3
		c-0.3-1-0.6-2-0.9-3h-5.4c-6.5,0-12.9,0-19.3,0s-12.6,0-18.9,0h-7c-0.3,0-0.5,0-0.8,0c-0.2,0-0.3-0.1-0.5-0.1l-0.2-0.1
		c-0.5-0.2-0.8-0.7-0.8-1.7c0-0.1,0-0.2,0-0.2c0-0.4,0-0.8,0-1.2s0-0.8,0-1.2c0.1-2.8,0-5.6,0-8.3c0-0.3,0-0.7,0.1-1
		c0-0.1,0.1-0.2,0.1-0.3c0-0.1,0.1-0.2,0.2-0.2c0.1-0.1,0.2-0.1,0.2-0.2c0.4-0.2,0.8-0.3,1.2-0.2c12.8,0,25.6,0,38.4,0h5.9
		c-0.6-1-1.2-2-1.8-3h-6.1c-2.4,0-4.8,0-7.3,0c-1.2,0-1.5-0.5-1.5-1.6c0-3.1,0.1-6.1,0-9.2c0-0.7,0-1.5,0-2.2
		c-0.1-1.6,0.6-1.8,2-1.8h1.3c-1-1-2-2-3-3h-20.1c-2.6,0-5.1,0-7.7,0c-0.2,0-0.5,0-0.7,0c-0.2,0-0.4-0.1-0.6-0.2c0,0-0.1,0-0.1-0.1
		c-0.1-0.1-0.2-0.2-0.3-0.4c0-0.1-0.1-0.2-0.1-0.3c0-0.1,0-0.3,0-0.4c0-0.1,0-0.3,0-0.4c0-0.9,0-1.9,0-2.8c0-1.8,0-3.7,0-5.5v-2.3
		c0-0.3,0-0.5,0-0.8c0-0.2,0-0.4,0-0.6c0-0.1,0-0.1,0-0.2c0-0.2,0.1-0.3,0.3-0.5l0.1-0.1c0.1-0.1,0.2-0.1,0.4-0.2
		c0.2-0.1,0.5-0.1,0.7-0.1h6c-2.3-1.1-4.7-2.1-7.2-3h-2.1c-8.6,0-17.1,0-25.7,0c-0.2,0-0.4,0-0.6,0c-0.2,0-0.4,0-0.6-0.1
		c-0.1,0-0.1,0-0.2-0.1c-0.1,0-0.1,0-0.2-0.1c-0.1-0.1-0.2-0.2-0.3-0.3c-0.1-0.1-0.1-0.1-0.1-0.2c0-0.1-0.1-0.2-0.1-0.2
		c0-0.1,0-0.2,0-0.3c0-0.1,0-0.3,0-0.4c0-0.1,0-0.3,0-0.4c0-0.2,0-0.4,0-0.6s0-0.4,0-0.6l0,0c0-0.4,0-0.8,0-1.3c0-0.1,0-0.3,0-0.4
		c-1,0-2,0-3,0.1c0,1.1,0,2.3,0,3.4c0,0.2,0,0.4,0,0.6c0,0,0,0.1,0,0.2c-0.2,0.8-0.9,0.8-1.8,0.8h-23.2c-2.4,0.9-4.8,1.8-7.2,2.9
		h0.8c1.4,0,2,0.3,1.9,1.9c0,0.8,0,1.7,0,2.5c0,3,0,5.9,0,8.9c0,1.2-0.3,1.6-1.5,1.6h-15.5h-7.8c-1.6,1.5-3.1,3-4.6,4.6v0.2
		c-0.1,2.6-0.1,5.1-0.1,7.7c0,1.1,0,2.2,0.1,3.3c0,1.6-0.5,2-2,2h-2c-2,0-4,0-6.1,0c-0.6,1-1.2,2-1.8,3c2,0,4,0,5.9,0
		c11.2,0,22.4,0,33.7,0c0.3,0,0.5,0,0.8,0.1h0.1l0.1,0.1c0,0,0.1,0,0.1,0.1c0.1,0,0.2,0.1,0.2,0.2c0,0,0.1,0.1,0.1,0.1l0,0
		c0.1,0.1,0.1,0.2,0.1,0.2c0,0.1,0.1,0.2,0.1,0.3c0,0.1,0,0.1,0,0.2c0,0.2,0,0.4,0,0.6c0,2.8-0.1,5.5,0,8.3v0.2c0,0.8,0,1.7,0,2.5
		c0,0.2,0,0.4,0,0.7c0,0.2,0,0.4-0.1,0.6c0,0.1-0.1,0.2-0.1,0.3c-0.2,0.3-0.6,0.5-1,0.6c-0.3,0-0.5,0-0.8,0h-6.5c-6.5,0-13,0-19.6,0
		h-19.8c-0.3,1-0.7,2-0.9,3h5.3c4,0,8,0,11.9,0c1.5,0,2.2,0.3,2.2,2c0,0.7,0,1.4,0,2.2c0,0.4,0,0.9,0,1.3c0,1,0,2,0,3
		c0,1.6,0,3.1,0.1,4.7c0,1.2-0.3,1.6-1.5,1.6h-12h-9c-0.1,1-0.2,2-0.3,3h25.2c8.5,0,17,0,25.5,0c1.2,0,1.5,0.5,1.5,1.6s0,2.1,0,3.1
		c0,1.8,0,3.6,0,5.4v0.2c0,0.8,0,1.6,0,2.3c0,0.1,0,0.2,0,0.3c0,0.2,0,0.5,0,0.7c0,0.1,0,0.1-0.1,0.2c0,0.1-0.1,0.2-0.1,0.3
		c0,0.1-0.1,0.1-0.1,0.1l-0.1,0.1l-0.1,0.1c-0.1,0.1-0.2,0.1-0.3,0.2c-0.4,0.1-0.8,0.2-1.3,0.2c-4.3,0-8.7-0.1-13-0.1h-31.8H868l0,0
		c0.1,1,0.2,2,0.3,3h8.8h11.8c1.5,0,1.8,0.6,1.8,1.9c0,0.8,0,1.6,0,2.4c0,0.6,0,1.2,0,1.8c0,2.3,0,4.5,0.1,6.8c0,1.6-0.5,2-2,2
		c-3.9,0-7.8,0-11.7,0h-5.4c0.3,1,0.6,2,1,3h20.1c8.6,0,17.2,0,25.7,0c0.3,0,0.6,0,0.9,0.1h0.2l0.2,0.1c0.1,0,0.2,0.1,0.2,0.2
		c0.1,0.1,0.1,0.1,0.2,0.2c0.1,0.4,0.2,0.8,0.2,1.2c-0.1,3.7-0.1,7.3,0,11c0,0.3,0,0.6,0,0.9c0,0.1,0,0.1,0,0.2c0,0.1,0,0.1,0,0.2
		c-0.1,0.1-0.2,0.3-0.3,0.4l-0.2,0.1c-0.1,0.1-0.2,0.1-0.3,0.1c-0.1,0-0.3,0.1-0.4,0.1c-0.3,0-0.5,0-0.8,0c-8.7-0.1-17.4,0-26.1,0
		h-12.8c0.6,1,1.2,2,1.8,3h6.1h1.5c1.5,0,1.7,0.6,1.7,1.9c0,0.8,0,1.6,0,2.4c0,2.6,0,5.2,0,7.9c1.9,2,3.8,3.9,5.9,5.8h8
		c4.7,0,9.3,0,14,0c1.4,0,1.6,0.6,1.6,1.8c0,2.5-0.1,5.1,0,7.6c0,1.2,0,2.4,0.1,3.6c0,1-0.2,1.5-0.7,1.7c2.8,1.2,5.6,2.3,8.5,3.1
		h20.2c1.1,0,1.5,0.4,1.4,1.5c0,0.8,0,1.5,0,2.3c1,0.1,2,0.1,3,0.1c0-0.6,0-1.3,0-1.9c0-1.6,0.3-2,2-2c8.2,0.1,16.4,0,24.6,0
		c2.7-0.9,5.4-1.8,8-2.9h-3.4c-1.5,0-1.7-0.6-1.7-1.9c0-0.5,0-1.1,0-1.6c0.1-3.1,0.1-6.3,0-9.4c0-1.6,0.5-2,2-2
		c6.1,0.1,12.2,0.1,18.4,0.1h8c1.1-1,2.1-1.9,3.2-3h-0.2c-1.5,0-1.9-0.4-1.9-1.9c0-1.1,0-2.2,0-3.3c0-2.6,0-5.3,0-7.9
		c0-1.2,0.2-1.8,1.6-1.8h6.4h6.1c0.6-1,1.2-2,1.8-3H1010c-8.5,0-17.1-0.1-25.7,0c-0.3,0-0.6,0-0.9,0c-0.1,0-0.3,0-0.4-0.1
		c-0.1,0-0.1,0-0.2-0.1l-0.1-0.1l-0.2-0.1c-0.1,0-0.1-0.1-0.2-0.1c-0.1-0.1-0.2-0.2-0.2-0.4c0,0,0-0.1,0-0.1c0-0.1,0-0.1-0.1-0.2
		v-0.1c0-0.2,0-0.4,0-0.7v-0.2c0-0.9,0.1-1.7,0.1-2.5c0-1.9,0-3.8,0-5.6c0-0.9,0-1.9-0.1-2.8c0-0.3,0-0.6,0.1-0.9
		c0-0.1,0.1-0.2,0.1-0.3l0,0c0-0.1,0.1-0.1,0.2-0.2c0.1-0.1,0.1-0.1,0.2-0.1l0,0c0.1,0,0.2-0.1,0.3-0.1l0,0c0.1,0,0.2-0.1,0.3-0.1
		h0.4c15.1,0,30.2,0,45.2,0h5.4c0.4-1,0.7-2,1-3h-5.5c-5.4,0-10.8,0-16.3,0.1c-1.7,0-2.4-0.3-2.3-2.2c0.1-2.2,0.1-4.4,0.1-6.6
		c0-1.3,0-2.6-0.1-3.9v-0.1C1011.5,128.5,1011.8,127.9,1013.5,127.9z M1015.4,110.2h15.4h5.5c0.1,0,0.3,0,0.4,0c0.1,0,0.2,0,0.3,0
		h0.2c0.1,0,0.1,0,0.2,0.1l0.1,0.1c0,0,0.1,0,0.1,0.1l0.2,0.2l0,0c0,0,0.1,0.1,0.1,0.2c0,0,0,0.1,0,0.1c0,0.1,0.1,0.2,0.1,0.2v0.2
		c0,0.1,0,0.2,0,0.3c0,0.1,0,0.2,0,0.3c-0.1,3.7-0.1,7.3,0,11c0,0.2,0,0.5,0,0.7c0,0.1,0,0.2-0.1,0.3c0,0.1,0,0.2-0.1,0.2
		c0,0.1,0,0.1-0.1,0.2l0,0c0,0.1-0.1,0.1-0.1,0.2c0,0.1-0.1,0.1-0.2,0.1l0,0l-0.3,0.1l0,0c-0.1,0-0.2,0.1-0.3,0.1h-0.2H1010
		c-8.5,0-17-0.1-25.5,0h-0.6c-0.1,0-0.2,0-0.3,0h-0.3c-0.2,0-0.3-0.1-0.5-0.2c-0.1,0-0.1-0.1-0.1-0.1c-0.1,0-0.2-0.1-0.2-0.2
		c0,0-0.1-0.1-0.1-0.1c-0.1-0.2-0.2-0.4-0.3-0.7v-0.2c0-0.3,0-0.7,0-1c0.2-3.5,0.1-7,0-10.6c0-0.1,0-0.2,0-0.2c0-0.1,0-0.1,0-0.2
		c0-0.1,0-0.2,0-0.2c0-0.1,0-0.2,0.1-0.2c0-0.1,0.1-0.2,0.2-0.3h0.1c0.1-0.1,0.3-0.2,0.5-0.3l0,0c0.1,0,0.2,0,0.3,0
		c0.2,0,0.3,0,0.5,0c4.4,0,8.8,0,13.1,0L1015.4,110.2z M999.4,92.4c2.5,0,5,0.1,7.6,0h0.4h0.1l0,0c0.1,0,0.2,0,0.3,0.1
		c0.1,0,0.2,0.1,0.3,0.1l0,0c0.1,0,0.1,0.1,0.2,0.2l0,0l0,0c0,0.1,0.1,0.1,0.1,0.2c0.1,0.4,0.2,0.7,0.2,1.1c0,2-0.1,4-0.1,6v0.9
		c0,0.3,0,0.5,0,0.8s0,0.5,0,0.8c0,0.4,0,0.9,0,1.3s0,0.9,0,1.3c0,0.2,0,0.4,0,0.6c0,0.1,0,0.1,0,0.2c0,0.2,0,0.3-0.1,0.5
		c0,0,0,0.1-0.1,0.1c0,0,0,0.1,0,0.1c0,0,0,0.1-0.1,0.1c0,0,0,0.1-0.1,0.1l-0.2,0.1c-0.1,0.1-0.2,0.1-0.3,0.2l-0.3,0.1h-0.1h-0.2
		c-0.2,0-0.4,0-0.5,0h-5.7c-4.2,0-8.4,0-12.6,0h-7.5c-8.6,0-17.2-0.1-25.9,0c-0.2,0-0.4,0-0.6,0h-0.3c-0.1,0-0.1,0-0.2,0l-0.2-0.1
		c-0.1,0-0.2-0.1-0.3-0.2l-0.1-0.1c-0.1-0.1-0.1-0.1-0.2-0.2c-0.1-0.1-0.1-0.2-0.1-0.2c0-0.1,0-0.2-0.1-0.2c0,0,0-0.1,0-0.1
		c0-0.1,0-0.2,0-0.3c0-0.1,0-0.3,0-0.4c0-0.1,0-0.2,0-0.3c0-0.4,0-0.8,0-1.2c0-1,0-1.9,0-2.9c0-2.1,0-4.2-0.1-6.3c0-0.1,0-0.2,0-0.3
		c0-0.2,0-0.4,0-0.5c0-0.1,0.1-0.3,0.1-0.4l0,0l0,0c0-0.1,0.1-0.2,0.1-0.3l0,0c0.1-0.2,0.3-0.3,0.5-0.4l0.2-0.1l0.3-0.1
		c0.3-0.1,0.7-0.1,1-0.1C969.6,92.4,984.5,92.4,999.4,92.4L999.4,92.4z M977.5,125h-0.4h-7c-6.4,0-12.7,0-19.1,0s-12.6,0-18.9,0
		c-2.3,0-4.7,0-7,0c-0.2,0-0.4,0-0.6,0h-0.2c-0.1,0-0.1,0-0.2,0c-0.1,0-0.2-0.1-0.3-0.1l-0.1-0.1l-0.1-0.1c-0.1,0-0.1-0.1-0.2-0.2
		c0,0-0.1-0.1-0.1-0.1l-0.1-0.1c0,0,0-0.1,0-0.1c0,0,0-0.1,0-0.1c0-0.1,0-0.1,0-0.2c0-0.3-0.1-0.5,0-0.8c0.1-3.7,0.1-7.3,0-11
		c0-0.2,0-0.3,0-0.5c0-0.1,0-0.2,0-0.2c0-0.1,0-0.1,0-0.2c0-0.1,0-0.1,0-0.2c0-0.1,0-0.1,0-0.2c0-0.1,0.1-0.2,0.2-0.2
		c0,0,0.1-0.1,0.1-0.1c0.1-0.1,0.2-0.2,0.4-0.2c0.1,0,0.2,0,0.3-0.1l0,0h0.1h10.4c10.3,0,20.7,0,31,0c3.9,0,7.9,0,11.8,0
		c0.5-0.1,1,0.1,1.4,0.4l0.1,0.1v0.1c0.1,0.2,0.2,0.5,0.2,0.7c0,0.1,0,0.2,0,0.3c0,0.1,0,0.2,0,0.3l0,0c-0.1,2.8-0.1,5.7,0,8.5
		c0,0.8,0,1.6,0.1,2.5c0,0.2,0,0.4,0,0.6c0,0.1,0,0.2,0,0.3l0,0c0,0.1,0,0.2-0.1,0.3c0,0.1,0,0.1-0.1,0.2c0,0,0,0.1-0.1,0.1
		c0,0.1-0.1,0.2-0.2,0.2c-0.1,0.1-0.1,0.1-0.2,0.1h-0.1h-0.1l-0.3,0.1h-0.2L977.5,125z M923,76.4c0-0.2,0-0.4,0-0.6v-0.1v-0.1v-0.1
		c0,0,0,0,0-0.1c0-0.1,0-0.2,0.1-0.2v-0.1c0,0,0-0.1,0.1-0.1c0-0.1,0.1-0.1,0.2-0.2c0.1-0.1,0.1-0.1,0.2-0.1l0,0h0.1l0.4-0.1
		c0.2,0,0.3,0,0.5,0h9.8c14.3,0,28.5,0,42.8,0c0.2,0,0.4,0,0.7,0c0.1,0,0.2,0,0.3,0.1l0.2,0.1l0,0l0.1,0.1l0,0c0,0,0.1,0,0.1,0.1
		l0,0l0,0l0.1,0.1c0.3,0.4,0.4,0.9,0.3,1.3c-0.1,3.7-0.1,7.5,0,11.2c0,0.2,0,0.4,0,0.6c0,0.1,0,0.1,0,0.2c0.1,0.1,0.1,0.2,0.1,0.3
		c0,0.1-0.1,0.2-0.1,0.3c0,0.1-0.1,0.1-0.1,0.2l-0.2,0.1c-0.1,0-0.1,0.1-0.2,0.1l-0.2,0.1H978c-0.3,0-0.5,0.1-0.8,0.1h-4.9H964
		h-13.1c-8.6,0-17.2,0-25.9,0c-0.2,0-0.3,0-0.5,0h-0.3h-0.2c-0.1,0-0.2,0-0.3-0.1c-0.1,0-0.1-0.1-0.2-0.1c-0.1-0.1-0.2-0.1-0.3-0.2
		l-0.1-0.1c0,0,0-0.1,0-0.1l0,0c0-0.1-0.1-0.1-0.1-0.2c0,0,0-0.1,0-0.1c0-0.1,0-0.1,0-0.2c0-0.2,0-0.5,0-0.7c0-0.8,0-1.7,0.1-2.5
		s0-1.9,0-2.8C923.1,80.2,923.1,78.3,923,76.4z M1006.8,56.8c0.2,0,0.3,0,0.5,0h0.1c0.1,0,0.2,0,0.3,0c0,0,0.1,0,0.1,0h0.1
		c0.1,0,0.1,0.1,0.2,0.1h0.1c0,0,0.1,0,0.1,0.1c0,0,0.1,0.1,0.1,0.1c0.1,0.1,0.1,0.2,0.2,0.3c0,0.1,0.1,0.2,0.1,0.3l0,0l0,0
		c0,0.2,0,0.5,0,0.7c0,2-0.1,4-0.1,6c0,1.7,0,3.3,0.1,5c0,0.2,0,0.5,0,0.7c0,0.1,0,0.1,0,0.2l0,0c0,0,0,0.1,0,0.2
		c0,0.1-0.1,0.2-0.2,0.3l-0.1,0.1l-0.1,0.1c-0.1,0.1-0.2,0.1-0.3,0.2c-0.1,0-0.3,0.1-0.4,0.1c-0.1,0-0.2,0-0.3,0c-0.2,0-0.3,0-0.5,0
		c-5.6-0.1-11.2,0-16.8,0h-9.3c-8.6,0-17.2,0-25.9,0c-0.2,0-0.4,0-0.7,0c-0.1,0-0.3,0-0.4-0.1c-0.1,0-0.2-0.1-0.3-0.1l-0.2-0.1
		c-0.1-0.1-0.2-0.1-0.2-0.2l-0.1-0.1c0,0,0-0.1,0-0.1c0,0-0.1-0.1-0.1-0.1c0-0.1,0-0.1,0-0.2c0,0,0-0.1,0-0.1c0,0,0,0,0-0.1
		c0,0,0,0,0-0.1c0-0.1,0-0.1,0-0.2c0-0.2,0-0.5,0-0.7c0.1-1.7,0.1-3.4,0.1-5c0-2,0-4-0.1-6c0,0,0-0.1,0-0.1v0.2c0-0.1,0-0.2,0-0.3
		l0,0c0-0.1,0-0.1,0-0.2l0,0c0,0,0,0,0-0.1c0-0.1,0.1-0.2,0.1-0.3c0-0.1,0.1-0.1,0.1-0.2l0,0c0.2-0.1,0.3-0.2,0.5-0.3
		c0.3-0.1,0.5-0.1,0.8-0.1c4.1,0,8.1,0,12.2,0C979.9,56.9,993.3,56.8,1006.8,56.8z M923.1,40.6L923.1,40.6L923.1,40.6L923.1,40.6
		L923.1,40.6c0-0.1,0-0.2,0-0.2c0-0.2,0-0.3,0.1-0.5v-0.1c0-0.1,0.1-0.1,0.1-0.2c0,0,0,0,0-0.1l0,0c0.1-0.1,0.1-0.1,0.2-0.2
		c0.1-0.1,0.2-0.1,0.3-0.2l0.2-0.1c0.1,0,0.1,0,0.2,0c0.1,0,0.2,0,0.3,0c0.2,0,0.3,0,0.5,0l6.8,0h19.3c7.9,0,15.7,0,23.6,0h2.3
		c0.2,0,0.4,0,0.5,0h0.2l0.3,0.1l0.2,0.1c0,0,0.1,0,0.1,0.1c0.1,0,0.2,0.1,0.2,0.2c0.1,0.1,0.1,0.2,0.2,0.3l0,0
		c0,0.1,0.1,0.2,0.1,0.3l0,0c0,0.1,0,0.1,0,0.2c0,0.2,0,0.4,0,0.6c-0.1,3.7-0.1,7.5,0,11.2c0,0.1,0,0.2,0,0.3c0,0.1,0,0.2,0,0.3
		c0,0.2,0,0.3-0.1,0.5c0,0.1,0,0.1-0.1,0.2l-0.1,0.2h0c-0.1,0.1-0.3,0.2-0.5,0.2l0,0c-0.1,0-0.2,0-0.2,0c-0.2,0-0.4,0-0.5,0h-23
		h-18.2h-11.3h-0.4h-0.1c-0.1,0-0.2,0-0.4-0.1c-0.1,0-0.2-0.1-0.2-0.1l-0.1-0.1c-0.1,0-0.1-0.1-0.2-0.1c-0.1-0.1-0.1-0.1-0.1-0.2
		c0-0.1-0.1-0.1-0.1-0.2c0-0.1-0.1-0.2-0.1-0.3c0-0.1,0-0.2,0-0.2c0-0.1,0-0.3,0-0.5c0-2.8,0.1-5.6,0-8.4c0-0.5,0-1,0-1.4
		c0-0.3,0-0.6,0-0.9c0-0.1,0-0.2,0-0.2C923.1,40.8,923.1,40.7,923.1,40.6z M904.1,71.6c-2.9,0-5.8,0-8.8,0c-0.1,0-0.3,0-0.4,0h-0.1
		c-0.2,0-0.4-0.1-0.6-0.2l-0.1-0.1c0,0-0.1,0-0.1-0.1c-0.1,0-0.1-0.1-0.1-0.2l0,0l-0.1-0.2c0-0.1,0-0.1,0-0.2c0-0.1,0-0.1,0-0.2
		c0-0.1,0-0.2,0-0.3c0-0.2,0-0.3,0-0.6c0-2.3,0.1-4.7,0-7c0-0.5,0-1,0-1.6c0-0.8,0-1.6,0-2.4c0-0.1,0-0.1,0-0.2c0-0.1,0-0.2,0-0.3
		c0-0.1,0-0.2,0-0.2c0-0.1,0-0.1,0-0.2c0-0.2,0.1-0.4,0.3-0.6c0.1-0.1,0.2-0.2,0.4-0.3l0.3-0.1c0.3-0.1,0.7-0.1,1.1-0.1
		c1.3,0,2.7,0,4,0h0.6c1.7,0,3.3,0,5,0h16.6c8.6,0,17.3,0,25.9,0c0.3,0,0.5,0,0.8,0c0.1,0,0.2,0,0.3,0.1l0.2,0.1
		c0.1,0,0.1,0.1,0.2,0.1c0,0,0.1,0,0.1,0.1c0.1,0,0.1,0.1,0.1,0.1c0.1,0.1,0.1,0.2,0.2,0.3c0,0.1,0.1,0.1,0.1,0.2
		c0.1,0.3,0.1,0.7,0.1,1.1c0,0.9,0,1.7-0.1,2.6c0,2.8,0,5.6,0,8.4c0,0.4,0,0.8-0.2,1.1c-0.1,0.2-0.1,0.3-0.3,0.4l-0.2,0.1l-0.3,0.1
		c0,0-0.1,0-0.1,0h-0.2h-0.1c-0.1,0-0.3,0-0.4,0c-2.9,0-5.9,0-8.8,0C927.5,71.6,915.7,71.6,904.1,71.6L904.1,71.6z M904.4,107.2H895
		c-0.2,0-0.5,0-0.7-0.1c-0.1,0-0.1,0-0.2-0.1c-0.1,0-0.1-0.1-0.2-0.1c0,0,0,0,0,0l-0.1-0.1c-0.1-0.1-0.1-0.2-0.2-0.3
		c-0.1-0.2-0.1-0.3-0.1-0.5c0,0,0-0.1,0-0.1c0-0.2,0-0.4,0-0.5c0-0.5,0-1,0-1.6v-0.1c0-0.4,0-0.9,0-1.4s0-1,0-1.4c0-2.3,0-4.5,0-6.8
		c0-0.1,0-0.3,0-0.4c0-0.1,0-0.2,0-0.2l0,0c0-0.1,0-0.2,0-0.2c0-0.1,0-0.1,0.1-0.2c0-0.1,0.1-0.2,0.1-0.2c0-0.1,0.1-0.1,0.1-0.1
		c0,0,0.1-0.1,0.1-0.1c0,0,0.1-0.1,0.2-0.1l0.2-0.1h0.2l0,0h0.2h0.2c17.7,0,35.3,0,53,0c0.1,0,0.2,0,0.4,0h0.3
		c0.2,0,0.3,0.1,0.5,0.2l0,0c0.1,0.1,0.2,0.2,0.2,0.4l0,0c0,0,0,0.1,0,0.1c0,0.1,0,0.1,0,0.2c0,0,0,0,0,0.1c0,0.1,0,0.2,0,0.4
		c0,2.4,0,4.7,0,7.1c0,0.7,0,1.3,0,2c0,0.3,0,0.6,0,0.9c0,0.6,0,1.1,0,1.7c0,0.3,0,0.6-0.1,0.9c0,0.1-0.1,0.2-0.1,0.3
		c-0.1,0.1-0.1,0.1-0.2,0.2l-0.1,0.1c0,0,0,0-0.1,0.1h-0.1c0,0-0.1,0-0.1,0.1c-0.3,0.1-0.7,0.1-1,0.1c-8.8-0.1-17.5,0-26.3,0
		L904.4,107.2z M893.6,129.2c0-0.1,0-0.1,0-0.2c0-0.1,0-0.1,0.1-0.2c0-0.1,0-0.1,0.1-0.1c0-0.1,0.1-0.1,0.1-0.1l0.1-0.1l0.1-0.1
		c0,0,0.1-0.1,0.2-0.1c0.1-0.1,0.3-0.1,0.5-0.1h0.2h0.5c13.1,0,26.2,0,39.3,0h13.1h0.5h0.2h0.2c0.3,0,0.5,0.2,0.7,0.4l0,0.1l0,0
		c0.1,0.2,0.2,0.4,0.2,0.6c0,0,0,0.1,0,0.1c0,0.2,0,0.3,0,0.5c0,0.1,0,0.2,0,0.4c0,0.8,0,1.6,0,2.4c0,0.5,0,1,0,1.5
		c0,1.4,0,2.8,0,4.2c0,0.9,0,1.8,0,2.7c0,0.2,0,0.4,0,0.6l0,0c0,0.1,0,0.1,0,0.2c0,0,0,0.1,0,0.1c0,0.1-0.1,0.2-0.1,0.3
		c0,0.1-0.1,0.1-0.2,0.2c0,0-0.1,0.1-0.1,0.1c-0.1,0.1-0.2,0.1-0.4,0.2c-0.1,0-0.2,0-0.3,0.1h-0.2c-0.2,0-0.4,0-0.6,0
		c-6,0-12,0-18.1,0h-8c-8.6,0-17.3-0.1-25.9,0l0,0c-0.3,0-0.5,0-0.8,0h-0.2h-0.2c-0.1,0-0.1,0-0.2-0.1l-0.1-0.1
		c-0.2-0.1-0.3-0.2-0.4-0.4c-0.1-0.1-0.1-0.2-0.1-0.2c-0.1-0.1-0.1-0.3-0.1-0.4c0-0.1,0-0.1,0-0.2c0-0.2,0-0.4,0-0.6l0,0
		c0.1-2.2,0.1-4.5,0.1-6.7c0-1.3,0-2.6,0-3.9V130c0-0.1,0-0.2,0-0.3s0,0,0,0l0,0c0,0,0-0.1,0-0.1c0-0.1,0-0.2,0-0.3 M977.3,145.7
		c0.3,0,0.6,0,0.8,0.1l0,0h0.1l0,0l0.3,0.1c0.1,0.1,0.2,0.1,0.3,0.2c0,0,0.1,0.1,0.1,0.1c0,0,0.1,0.1,0.1,0.1
		c0.1,0.3,0.2,0.7,0.2,1.1c-0.1,3.7-0.1,7.5,0,11.2c0,0.2,0,0.4,0,0.7c0,0.1,0,0.2-0.1,0.3c-0.1,0.2-0.2,0.4-0.3,0.6l-0.2,0.1
		c-0.1,0-0.1,0.1-0.2,0.1l0,0c-0.1,0-0.2,0.1-0.4,0.1c-0.2,0-0.5,0-0.7,0c-4.9,0-9.8,0-14.6,0h-11.7c-8.5,0-17.1,0-25.7,0h-0.7h-0.2
		h-0.2h-0.2c-0.1,0-0.2-0.1-0.3-0.1c-0.5-0.3-0.6-0.8-0.6-1.8c0.1-3.6,0.1-7.2,0-10.8c0-0.1,0-0.2,0-0.3c0-0.3,0-0.6,0.1-0.9
		c0-0.1,0-0.1,0.1-0.1c0-0.1,0.1-0.1,0.1-0.2c0-0.1,0.1-0.1,0.1-0.1c0.1-0.1,0.2-0.2,0.3-0.2l0.3-0.1h0.2h0.5H938
		C951.1,145.8,964.2,145.7,977.3,145.7L977.3,145.7z M901.6,178.3h-0.8h-5.3c-0.2,0-0.4,0-0.6,0c-0.1,0-0.3,0-0.4-0.1h-0.1h-0.1
		c-0.1,0-0.2-0.1-0.3-0.2l-0.2-0.2c-0.1-0.1-0.1-0.2-0.1-0.3c0-0.1,0-0.2-0.1-0.3c0-0.1,0-0.1,0-0.2c0-0.1,0-0.3,0-0.4
		c0,0,0-0.1,0-0.1c0-0.2,0-0.5,0-0.7c0,0,0,0,0-0.1c0-1.5,0-2.9,0-4.4c0-2,0-4,0-6c0-0.2,0-0.3,0-0.5c0-0.1,0-0.2,0.1-0.3
		c0-0.1,0.1-0.2,0.1-0.3c0-0.1,0.1-0.2,0.2-0.2c0.1-0.1,0.1-0.1,0.2-0.2c0.1,0,0.1-0.1,0.2-0.1c0.1,0,0.2-0.1,0.2-0.1
		c0.2,0,0.4-0.1,0.6-0.1l0,0c17.6,0,35.2,0,52.8,0c0.2,0,0.5,0,0.7,0.1c0.1,0,0.2,0,0.3,0.1c0.1,0,0.2,0.1,0.2,0.1
		c0.1,0.1,0.1,0.1,0.2,0.2c0,0.1,0.1,0.2,0.1,0.3c0,0.1,0.1,0.2,0.1,0.3c0,0.1,0,0.2,0,0.3c0,0.1,0,0.2,0,0.3c0,0,0,0.1,0,0.1
		c0,3.7-0.1,7.5,0,11.2c0,0,0,0.1,0,0.1c0,0.2,0,0.4,0,0.5c0,0.2-0.1,0.3-0.1,0.4c0,0.1-0.1,0.2-0.2,0.3c-0.1,0.1-0.1,0.1-0.2,0.2
		l-0.2,0.1c-0.1,0-0.1,0-0.2,0.1h-0.2h-0.1h-0.7h-11.2h-14.9C914.9,178.3,908.3,178.2,901.6,178.3L901.6,178.3z M979,195.4
		c0,0.1-0.1,0.1-0.1,0.2v0.1c0,0-0.1,0.1-0.1,0.1c-0.1,0.1-0.1,0.1-0.2,0.1c-0.1,0-0.1,0-0.2,0.1c-0.1,0-0.2,0-0.3,0.1H978
		c-0.1,0-0.2,0-0.3,0h-0.5h-6.9h-0.1c-6.3,0-12.7,0-19,0h-6.8h-7.6c-3.8,0-7.6,0-11.4,0.1c-0.4,0-0.7,0-1.1-0.1
		c-0.1,0-0.2-0.1-0.4-0.1l-0.2-0.1c-0.1-0.1-0.2-0.1-0.2-0.2c0,0-0.1-0.1-0.1-0.2c-0.1-0.1-0.1-0.2-0.1-0.3l-0.1-0.3v-0.4
		c0-0.2,0-0.4,0-0.6c0-0.1,0-0.2,0-0.2c0-0.5,0-1,0-1.4v-0.3l0,0c0-1.1,0-2.2,0-3.3c0-1.9,0-3.7-0.1-5.5c0-0.2,0-0.4,0-0.6
		c0-0.1,0-0.2,0-0.3c0-0.1,0-0.1,0.1-0.2c0-0.1,0.1-0.1,0.1-0.2c0,0,0,0,0-0.1l0,0c0.1-0.1,0.1-0.1,0.2-0.2c0,0,0.1-0.1,0.1-0.1
		l0.2-0.1l0,0l0.4-0.1c0.2,0,0.3,0,0.5,0h4.1c13.3,0,26.5,0,39.7,0c2.9,0,5.8,0,8.8,0c0.2,0,0.3,0,0.5,0h0.2c0.1,0,0.1,0,0.2,0
		c0.1,0,0.1,0,0.2,0.1l0.2,0.1c0.2,0.1,0.3,0.3,0.4,0.5c0,0.1,0.1,0.1,0.1,0.2c0,0,0,0.1,0,0.1c0,0.1,0,0.2,0,0.3c0,0.2,0,0.4,0,0.5
		c-0.1,2.9-0.1,5.7-0.1,8.6c0,0.7,0,1.4,0,2.1c0,0.2,0,0.4,0,0.6c0,0.2,0,0.4,0,0.6c0,0.1,0,0.2,0,0.2
		C978.9,195.2,978.9,195.3,979,195.4L979,195.4z M998.1,163.4h8.8c0.3,0,0.6,0,0.9,0.1c0.2,0,0.3,0.1,0.4,0.2c0,0,0.1,0,0.1,0.1l0,0
		c0,0,0.1,0.1,0.1,0.1l0.1,0.1l0,0c0.1,0.4,0.2,0.8,0.2,1.2c0,2-0.1,4-0.1,6c0,1.6,0,3.2,0.1,4.8v0.2c0,0.2,0,0.4,0,0.6
		c0,0.1,0,0.2,0,0.3c0,0.1,0,0.1,0,0.2v0.1c0,0.1-0.1,0.2-0.1,0.2c0,0.1-0.1,0.2-0.2,0.2c-0.1,0.1-0.2,0.1-0.2,0.1
		c0,0-0.1,0.1-0.1,0.1c-0.1,0-0.1,0-0.2,0.1h-0.3c-0.2,0-0.5,0-0.7,0h-0.5c-4.2,0-8.4,0-12.6,0h-13h-6.4c-6.4,0-12.8,0-19.3,0.1
		c-0.2,0-0.4,0-0.6,0c-0.2,0-0.4,0-0.6-0.1l0,0h-0.1l-0.1-0.1l0,0c-0.1,0-0.2-0.1-0.3-0.2c0,0-0.1-0.1-0.1-0.1l-0.1-0.1l-0.1-0.1
		c-0.1-0.1-0.1-0.2-0.1-0.3c-0.1-0.3-0.1-0.7-0.1-1v-0.2c0.2-3.6,0.1-7.2,0-10.7l0,0c0-0.2,0-0.4,0-0.5s0-0.2,0-0.3
		c0-0.1,0-0.1,0-0.2v-0.1c0-0.1,0-0.1,0.1-0.2l0,0c0,0,0.1-0.1,0.1-0.1c0,0,0.1-0.1,0.1-0.1l0,0l0.1-0.1c0.1-0.1,0.2-0.1,0.3-0.1
		c0.1,0,0.2-0.1,0.4-0.1c0.2,0,0.3,0,0.5,0h8.8C974.7,163.6,986.4,163.5,998.1,163.4L998.1,163.4z M1008.6,130.9c0,1,0,2,0,3.1
		c0,1.5,0,3,0,4.4c0,0.9,0,1.8,0,2.7c0,0.2,0,0.4,0,0.6l0,0c0,0.1,0,0.1,0,0.2c0,0.1,0,0.1-0.1,0.2c0,0.1-0.1,0.1-0.1,0.2
		c0,0.1-0.1,0.1-0.1,0.1c0,0-0.1,0.1-0.1,0.1c-0.1,0.1-0.2,0.1-0.3,0.2h-0.2h-0.2h-0.2h-0.6c-8.8,0-17.5,0-26.3,0h-7.1
		c-6.2,0-12.4,0-18.6,0c-0.2,0-0.5,0-0.7,0h-0.3c-0.1,0-0.2,0-0.2-0.1l0,0c-0.1,0-0.1,0-0.2-0.1l0,0c-0.1,0-0.2-0.1-0.2-0.1l0,0
		c-0.1-0.1-0.1-0.1-0.2-0.2c0-0.1-0.1-0.1-0.1-0.2c0-0.1-0.1-0.1-0.1-0.2c0-0.1,0-0.1-0.1-0.2c0-0.1,0-0.1,0-0.2c0-0.1,0-0.2,0-0.3
		c0-0.1,0-0.3,0-0.4v-0.1c0-0.2,0-0.4,0-0.6c0-0.1,0-0.1,0-0.2c0-0.6,0-1.2,0-1.8c0-1.4,0-2.7,0-4c0-0.5,0-1,0-1.5
		c0-0.7,0-1.4,0-2.1c0-0.1,0-0.3,0-0.4s0-0.4,0-0.5c0-0.4,0-0.7,0.2-1.1c0-0.1,0.1-0.1,0.1-0.2l0,0l0,0c0,0,0.1-0.1,0.1-0.1h0.1l0,0
		c0.1,0,0.1-0.1,0.2-0.1l0,0c0.1,0,0.2-0.1,0.3-0.1l0,0c0.1,0,0.3,0,0.4,0h13.3h39.8c0.1,0,0.3,0,0.4,0c0.1,0,0.2,0,0.3,0
		c0.2,0,0.3,0.1,0.4,0.3c0.1,0.1,0.1,0.1,0.1,0.2c0,0.1,0.1,0.1,0.1,0.2c0,0.1,0,0.1,0,0.2c0,0,0,0,0,0.1c0,0.1,0,0.2,0,0.3
		c0,0.1,0,0.2,0,0.2c0,0.2,0,0.4,0,0.6L1008.6,130.9z"/>
	<path class="st6" d="M949.6,34.5c0,0.2,0,0.4,0,0.6c0,0,0,0.1,0,0.2c-0.2,0.8-0.9,0.8-1.8,0.8h-23.2c8-2.9,16.5-4.5,25-4.9
		C949.6,32.3,949.6,33.4,949.6,34.5z"/>
	<path class="st7" d="M953.5,31.1c9.8,0,19.6,1.7,28.9,5h-2c-8.6,0-17.1,0-25.7,0c-0.2,0-0.4,0-0.6,0c-0.2,0-0.4,0-0.6-0.1l-0.2-0.1
		c-0.1,0-0.1,0-0.2-0.1c-0.1-0.1-0.2-0.2-0.3-0.3c-0.1-0.1-0.1-0.1-0.1-0.2c-0.2-0.4-0.2-0.9-0.2-1.3c0-0.8,0.1-1.7,0.1-2.5
		c0-0.1,0-0.3,0-0.4L953.5,31.1z"/>
	<path class="st8" d="M920.1,52.3c0,1.2-0.3,1.6-1.5,1.6h-15.5h-7.8c6.6-6.1,14-11.1,22.1-14.8h0.8c1.4,0,2,0.3,1.9,1.9
		c0,0.8,0,1.7,0,2.5C920,46.4,920.1,49.3,920.1,52.3z"/>
	<path class="st9" d="M951.3,39.1c8.6,0,17.3,0,25.9,0c1.5,0,2,0.4,1.9,1.9c-0.1,3.7-0.1,7.5,0,11.2c0,1.3-0.4,1.7-1.7,1.7
		c-17.5,0-35.1,0-52.7,0c-1.5,0-1.7-0.6-1.7-1.9c0.1-3.6,0.1-7.2,0-10.8c0-1.7,0.4-2.2,2.1-2.1C933.9,39.1,942.6,39.1,951.3,39.1z"
		/>
	<path class="st10" d="M1011.7,53.8h-20.1h-7.6c-0.2,0-0.5,0-0.7,0c-0.2,0-0.4-0.1-0.6-0.2c0,0-0.1,0-0.1-0.1
		c-0.1-0.1-0.2-0.2-0.3-0.4c0-0.1-0.1-0.2-0.1-0.3c0-0.1,0-0.3,0-0.4c0-0.1,0-0.3,0-0.4c0-0.9,0-1.9,0-2.8c0-1.8,0-3.7,0-5.5v-2.3
		c0-0.3,0-0.5,0-0.8c0-0.2,0-0.4,0-0.6c0-0.1,0-0.1,0-0.2c0-0.2,0.1-0.3,0.3-0.5l0.1-0.1c0.1-0.1,0.2-0.1,0.4-0.2
		c0.2-0.1,0.5-0.1,0.7-0.1h6C997.6,42.8,1005.1,47.8,1011.7,53.8L1011.7,53.8z"/>
	<path class="st6" d="M890.7,69.7c0,1.6-0.5,2-2,2h-2c-2,0-4,0-6.1,0c2.9-4.7,6.3-9.1,10.1-13.2v0.2c-0.1,2.5-0.1,5.1-0.1,7.7
		C890.6,67.4,890.6,68.6,890.7,69.7z"/>
	<path class="st6" d="M921.7,56.8c8.6,0,17.3,0,25.9,0c1.5,0,2.1,0.3,2,2c-0.1,3.7-0.1,7.3,0,11c0,1.3-0.2,1.9-1.7,1.9
		c-17.5,0-35.1,0-52.6,0c-1.5,0-1.7-0.6-1.7-1.9c0.1-3.7,0.1-7.3,0-11c-0.1-1.6,0.5-2,2-2C904.3,56.9,913,56.8,921.7,56.8z"/>
	<path class="st7" d="M980.5,71.6c-8.6,0-17.2,0-25.9,0c-1.7,0-2.1-0.5-2.1-2.2c0.1-3.7,0.1-7.3,0-11c0-1.3,0.4-1.7,1.7-1.7
		c17.5,0,35.1,0,52.6,0c1.4,0,1.8,0.5,1.8,1.8c-0.1,3.7-0.1,7.3,0,11c0,1.6-0.4,2-2,2C997.9,71.6,989.2,71.6,980.5,71.6z"/>
	<path class="st10" d="M1026.4,71.6h-6.1c-2.4,0-4.8,0-7.3,0c-1.2,0-1.5-0.5-1.5-1.6c0-3.1,0.1-6.1,0-9.2c0-0.7,0-1.5,0-2.2
		c-0.1-1.6,0.6-1.8,2-1.8h1.3C1019.2,61.3,1023.1,66.3,1026.4,71.6z"/>
	<path class="st7" d="M920.1,87.5c0,0.4,0,0.7-0.1,1.1c0,0.1-0.1,0.2-0.1,0.3c-0.2,0.3-0.6,0.5-1,0.6c-0.3,0-0.5,0-0.8,0h-6.5
		c-6.5,0-13,0-19.6,0h-19.8c1.7-5.2,4-10.1,6.6-14.9c2,0,4,0,5.9,0c11.2,0,22.4,0,33.7,0c0.3,0,0.5,0,0.8,0.1c0,0,0.1,0,0.1,0h0.1
		l0.1,0.1c0.1,0.1,0.2,0.1,0.2,0.2c0,0,0.1,0.1,0.1,0.1l0,0c0,0.1,0.1,0.2,0.1,0.2c0,0.1,0.1,0.2,0.1,0.3c0,0.1,0,0.1,0,0.2
		c0,0.2,0,0.4,0,0.6c0,2.8-0.1,5.6,0,8.3v0.2C920.1,85.7,920.1,86.6,920.1,87.5z"/>
	<path class="st11" d="M950.9,89.4c-8.6,0-17.2,0-25.9,0c-1.6,0-2-0.4-2-2c0.1-3.7,0.1-7.3,0-11c0-1.3,0.2-1.9,1.7-1.9
		c17.5,0,35,0,52.6,0c1.4,0,1.8,0.4,1.8,1.8c-0.1,3.7-0.1,7.5,0,11.2c0,1.5-0.5,1.9-1.9,1.9C968.4,89.4,959.7,89.4,950.9,89.4z"/>
	<path class="st6" d="M1028.2,74.6c2.7,4.7,4.9,9.7,6.7,14.8h-5.4c-6.5,0-12.9,0-19.3,0c-6.3,0-12.6,0-18.9,0c-2.3,0-4.7,0-7,0
		c-0.3,0-0.5,0-0.8,0c-0.2,0-0.3,0-0.5-0.1l-0.2-0.1c-0.5-0.2-0.8-0.7-0.8-1.7v-0.2c0-0.4,0-0.8,0-1.2s0-0.8,0-1.2
		c0-2.8,0-5.6,0-8.3c0-0.3,0-0.7,0.1-1c0-0.1,0.1-0.2,0.1-0.3c0-0.1,0.1-0.2,0.2-0.2c0.1-0.1,0.2-0.1,0.2-0.2
		c0.4-0.2,0.8-0.3,1.2-0.2c12.8,0,25.6,0,38.4,0L1028.2,74.6z"/>
	<path class="st10" d="M890.7,105.6c0,1.2-0.3,1.6-1.5,1.6h-15.8h-5.1c0.6-5,1.6-10,3-14.8h5.3c4,0,8,0,11.9,0c1.5,0,2.2,0.3,2.2,2
		C890.5,98.1,890.6,101.9,890.7,105.6z"/>
	<path class="st12" d="M921.5,107.2c-8.7,0-17.4,0-26.1,0c-1.5,0-1.9-0.4-1.9-1.9c0.1-3.7,0.1-7.5,0-11.2c0-1.2,0.2-1.8,1.6-1.8
		c17.7,0,35.3,0,53,0c1.1,0,1.5,0.3,1.5,1.4c-0.1,3.9-0.1,7.8,0,11.6c0,1.4-0.4,1.8-1.8,1.8C939.1,107.2,930.3,107.2,921.5,107.2z"
		/>
	<path class="st13" d="M980.6,107.2c-8.6,0-17.2,0-25.9,0c-1.8,0-2.3-0.5-2.2-2.3c0.1-3.4,0.1-6.9,0-10.3c-0.1-1.8,0.4-2.3,2.2-2.3
		c14.9,0.1,29.7,0,44.6,0c2.5,0,5,0.1,7.6,0c1.3,0,1.7,0.4,1.7,1.7c-0.1,3.7-0.1,7.3,0,11c0,1.6-0.4,2.2-2.1,2.2
		C997.8,107.1,989.2,107.2,980.6,107.2z"/>
	<path class="st7" d="M1038.8,107.2h-5.1c-6.7,0-13.3,0-20,0c-1.6,0-2.2-0.3-2.2-2.1c0.1-3.6,0.1-7.2,0-10.8c0-1.4,0.3-2,1.8-2
		c5.7,0,11.4,0,17.1,0h5.3C1037.2,97.2,1038.2,102.1,1038.8,107.2z"/>
	<path class="st12" d="M979.1,199c-8.3,2.6-16.9,3.9-25.6,3.9h-0.9c0-0.6,0-1.3,0-1.9c0-1.6,0.3-2.1,2-2
		C962.7,199.1,970.9,199.1,979.1,199z"/>
	<path class="st14" d="M949.6,200.6c0,0.8,0,1.6,0,2.3c-7.3-0.3-14.6-1.6-21.6-3.8h20.2C949.2,199.1,949.6,199.4,949.6,200.6z"/>
	<path class="st15" d="M920.1,122.7v0.3c0,0.2,0,0.5,0,0.7c0,0.1,0,0.1-0.1,0.2c0,0.1-0.1,0.2-0.1,0.3c0,0.1-0.1,0.1-0.1,0.1
		l-0.1,0.1l-0.1,0.1c-0.1,0.1-0.2,0.1-0.3,0.2c-0.4,0.1-0.8,0.2-1.3,0.2c-4.3,0-8.7-0.1-13-0.1h-31.9H868l0,0
		c-0.2-2.6-0.4-5.3-0.4-8c0-2.3,0.1-4.6,0.3-6.9h25.2c8.5,0,17,0,25.5,0c1.2,0,1.5,0.5,1.5,1.6s0,2.1,0,3.1c0,1.8,0,3.6,0,5.4v0.2
		C920.1,121.2,920.1,122,920.1,122.7z"/>
	<path class="st6" d="M951,125c-8.6,0-17.3,0-25.9,0c-1.5,0-2.1-0.3-2-2c0.1-3.7,0.1-7.3,0-11c0-1.3,0.2-1.9,1.7-1.9
		c17.5,0.1,35.1,0.1,52.6,0c1.5,0,1.7,0.6,1.7,1.9c-0.1,3.7-0.1,7.3,0,11c0,1.6-0.5,2-2,2C968.4,124.9,959.7,125,951,125z"/>
	<path class="st7" d="M1010,125c-8.5,0-17-0.1-25.5,0c-2.1,0-2.6-0.6-2.5-2.6c0.2-3.5,0.1-7,0-10.6c0-1.3,0.4-1.7,1.7-1.7
		c17.5,0,35.1,0,52.6,0c1.4,0,1.8,0.5,1.7,1.8c-0.1,3.7-0.1,7.3,0,11c0,1.6-0.4,2-2,2C1027.3,124.9,1018.7,125,1010,125z"/>
	<path class="st7" d="M890.7,140.8c0,1.6-0.5,2-2,2c-3.9,0-7.8-0.1-11.7-0.1h-5.4c-1.5-4.8-2.6-9.8-3.2-14.8c1.7,0,3.4,0,5.2,0H889
		c1.5,0,1.8,0.5,1.8,1.9C890.6,133.4,890.5,137.1,890.7,140.8z"/>
	<path class="st13" d="M921.6,142.7c-8.6,0-17.2,0-25.9,0c-1.6,0-2.2-0.3-2.2-2.1c0.1-3.6,0.1-7.2,0-10.8c0-1.4,0.3-2,1.8-2
		c17.5,0,34.9,0,52.4,0c1.3,0,1.9,0.3,1.8,1.8c-0.1,3.7-0.1,7.5,0,11.2c0,1.5-0.5,1.9-2,1.9C939,142.7,930.3,142.7,921.6,142.7z"/>
	<path class="st10" d="M980.4,142.7c-8.6,0-17.1-0.1-25.7,0c-1.8,0-2.2-0.5-2.2-2.3c0.1-3.7,0.1-7.3,0-11c0-1.2,0.3-1.6,1.5-1.6
		c17.7,0,35.4,0,53.1,0c1.1,0,1.4,0.4,1.4,1.5c0,3.9-0.1,7.8,0,11.6c0,1.5-0.6,1.7-1.9,1.7C997.9,142.7,989.2,142.7,980.4,142.7z"/>
	<path class="st9" d="M1038.6,128c-0.6,5-1.7,9.9-3.2,14.7h-5.4c-5.4,0-10.8,0-16.3,0.1c-1.7,0-2.4-0.3-2.3-2.2
		c0.1-3.5,0.1-7,0-10.6c0-1.5,0.3-2.1,2-2.1c6.7,0,13.3,0,20,0L1038.6,128z"/>
	<path class="st7" d="M1010.4,181.3c-6.9,6.2-14.8,11.2-23.3,14.8h-3.4c-1.5,0-1.7-0.6-1.7-1.9c0-0.5,0-1.1,0-1.6
		c0.1-3.1,0.1-6.3,0-9.4c0-1.6,0.5-2,2-2c6.1,0.1,12.2,0.1,18.4,0.1L1010.4,181.3L1010.4,181.3z"/>
	<path class="st14" d="M920.1,158.6c0,0.3,0,0.6,0,0.9c0,0.1,0,0.1,0,0.2c0,0.1,0,0.1,0,0.2c-0.1,0.1-0.2,0.3-0.3,0.4l-0.2,0.1
		c-0.1,0-0.2,0.1-0.3,0.1c-0.1,0-0.3,0.1-0.4,0.1c-0.3,0-0.5,0-0.8,0c-8.7-0.1-17.4,0-26.1,0h-12.7c-2.8-4.7-5.1-9.6-6.9-14.8h20.1
		c8.6,0,17.2,0,25.7,0c0.3,0,0.6,0,0.9,0.1h0.2l0.2,0.1c0.1,0,0.2,0.1,0.2,0.2c0.1,0.1,0.1,0.1,0.2,0.2c0.1,0.4,0.2,0.8,0.2,1.2
		C920,151.2,920,154.9,920.1,158.6z"/>
	<path class="st6" d="M950.9,160.6c-8.6,0-17.1,0-25.7,0c-1.6,0-2.2-0.4-2.1-2.1c0.1-3.6,0.1-7.2,0-10.8c0-1.4,0.3-2,1.8-2
		c17.5,0.1,35,0.1,52.4,0c1.3,0,1.8,0.4,1.8,1.8c-0.1,3.7-0.1,7.5,0,11.2c0,1.5-0.5,1.9-1.9,1.9
		C968.4,160.5,959.6,160.6,950.9,160.6z"/>
	<path class="st14" d="M1029,145.7h5.4c-1.8,5.2-4.1,10.1-6.9,14.8H1010c-8.5,0-17.1-0.1-25.7,0c-0.3,0-0.6,0-0.9,0
		c-0.4,0-0.7-0.2-1-0.4c-0.1-0.1-0.2-0.2-0.2-0.4c0,0,0-0.1,0-0.1c0-0.1-0.1-0.1-0.1-0.2v-0.1c0-0.2,0-0.4,0-0.7c0-0.1,0-0.1,0-0.2
		c0-0.9,0.1-1.7,0.1-2.6c0-1.9,0-3.8,0-5.6c0-0.9,0-1.9,0-2.8c0-0.3,0-0.6,0.1-0.9c0-0.1,0.1-0.2,0.1-0.3l0,0
		c0.1-0.1,0.1-0.1,0.2-0.2c0.1-0.1,0.1-0.1,0.2-0.1l0,0c0.1,0,0.2-0.1,0.3-0.1l0,0l0.3-0.1h0.4C998.8,145.8,1013.9,145.7,1029,145.7
		z"/>
	<path class="st8" d="M951.1,196.1c-8.6,0-17.2-0.1-25.9,0c-1.8,0-2.2-0.5-2.2-2.3c0.1-3.6,0.1-7.2,0-10.8c0-1.3,0.3-1.8,1.7-1.8
		c17.5,0.1,35.1,0.1,52.6,0c1.4,0,1.8,0.5,1.7,1.8c-0.1,3.7-0.1,7.5,0,11.2c0,1.6-0.5,1.8-1.9,1.8
		C968.5,196.1,959.8,196.1,951.1,196.1z"/>
	<path class="st12" d="M920.1,194.2c0,1-0.2,1.5-0.7,1.7c-8.4-3.6-16.1-8.6-22.9-14.6h8c4.7,0,9.3,0,14,0c1.4,0,1.6,0.6,1.6,1.8
		c0,2.5-0.1,5.1,0,7.6C920.1,191.8,920.1,193,920.1,194.2z"/>
	<path class="st6" d="M890.6,175.6c-3.5-3.7-6.6-7.7-9.4-12h6.1h1.5c1.5,0,1.7,0.6,1.7,1.9c0,0.8,0,1.6,0,2.4
		C890.6,170.3,890.6,172.9,890.6,175.6z"/>
	<path class="st9" d="M921.6,178.3c-8.7,0-17.4,0-26.1,0c-1.4,0-2-0.3-1.9-1.9c0.1-3.7,0.1-7.5,0-11.2c0-1.2,0.3-1.7,1.6-1.7
		c17.6,0,35.2,0,52.8,0c1.4,0,1.6,0.6,1.6,1.8c0,3.7-0.1,7.5,0,11.2c0,1.6-0.6,1.8-2,1.8C939,178.2,930.3,178.3,921.6,178.3z"/>
	<path class="st6" d="M980.5,178.3c-8.6,0-17.1,0-25.7,0c-1.7,0-2.3-0.4-2.3-2.2c0.2-3.6,0.1-7.2,0-10.8c0-1.3,0.2-1.9,1.7-1.9
		c17.5,0,35.1,0,52.6,0c1.5,0,1.8,0.5,1.7,1.9c-0.1,3.7-0.1,7.3,0,11c0,1.6-0.5,2-2,2C997.9,178.2,989.2,178.3,980.5,178.3z"/>
	<path class="st12" d="M1025.7,163.5c-3.5,5.4-7.5,10.4-12.1,14.8h-0.2c-1.5,0-1.9-0.4-1.9-1.9c0-1.1,0-2.2,0-3.3c0-2.6,0-5.3,0-7.9
		c0-1.2,0.2-1.8,1.6-1.8h6.5L1025.7,163.5z"/>
	<path class="st2" d="M1038.5,107.2c-0.6-5-1.6-10-3-14.8c-0.3-1-0.6-2-0.9-3c-1.7-5.1-4-10.1-6.7-14.8c-0.6-1-1.2-2-1.8-3
		c-3.3-5.4-7.2-10.3-11.7-14.8c-1-1-2-2-3-3l0,0c-6.5-6.1-14-11.1-22.1-14.8l0,0c-2.3-1.1-4.7-2.1-7.2-3c-3.7-1.3,0,0,0,0
		c-9.3-3.3-19-5-28.9-5h-0.9c-1,0-2,0-3,0.1c-8.5,0.4-17,2-25,4.9l0,0c-2.4,0.9-4.8,1.8-7.2,2.9c-8.1,3.8-15.6,8.8-22.1,14.8
		c-1.6,1.5-3.1,3-4.6,4.6c-3.8,4.1-7.1,8.5-10.1,13.2c-0.6,1-1.2,2-1.8,3c-2.7,4.7-5,9.7-6.7,14.9l0,0c-0.3,1-0.7,2-0.9,3
		c-1.4,4.8-2.4,9.8-3,14.8c-0.1,1-0.2,2-0.3,3c-0.2,2.3-0.3,4.6-0.3,6.9c0,2.7,0.1,5.3,0.4,8l0,0c0.1,1,0.2,2,0.3,3
		c0.6,5,1.7,10,3.2,14.8c0.3,1,0.6,2,1,3l0,0c1.8,5.1,4.1,10.1,6.9,14.8c0.6,1,1.2,2,1.8,3c2.7,4.3,5.9,8.3,9.3,12
		c1.9,2,3.8,3.9,5.9,5.8c6.8,6.1,14.6,11,22.9,14.6c2.8,1.2,5.6,2.3,8.5,3.1l0,0c7,2.2,14.3,3.4,21.6,3.8c1,0.1,2,0.1,3,0.1h0.9
		c8.7,0,17.3-1.3,25.6-3.9c2.7-0.9,5.4-1.8,8-2.9c8.5-3.6,16.4-8.7,23.3-14.8c1.1-1,2.1-1.9,3.2-3c4.6-4.5,8.6-9.5,12.1-14.8
		c0.6-1,1.2-2,1.8-3c2.8-4.7,5.1-9.7,6.9-14.8c0.4-1,0.7-2,1-3c1.5-4.8,2.6-9.7,3.2-14.7c0.5-3.6,0.7-7.3,0.7-11
		C1039.1,113.7,1038.9,110.4,1038.5,107.2z M1029.8,142.7c-0.3,1-0.7,2-1.1,3c-2,5.2-4.4,10.1-7.4,14.8c-0.6,1-1.3,2-2,3
		c-2.4,3.4-5.1,6.7-8,9.7c-1,1-1.9,2-3,2.9l0,0c-0.8,0.8-1.7,1.5-2.5,2.2l0,0c-1.2,1-2.4,2-3.7,3c-6.2,4.7-13.1,8.6-20.4,11.3
		c-1,0.4-2,0.7-2.9,1.1l0,0c-2.9,1-5.9,1.8-8.9,2.4h-0.1c-10.9,2.3-22.3,2.3-33.2,0h-0.2c-4.6-1-9.2-2.4-13.6-4.2l0,0
		c-1-0.4-2-0.8-3-1.3c-5.5-2.5-10.7-5.6-15.5-9.3c-1.3-1-2.5-2-3.7-3l0,0c-2.5-2.2-5-4.5-7.2-7c-1-1.2-2.1-2.4-3-3.6
		s-2.2-2.8-3.2-4.2c-0.7-1-1.3-2-2-3c-3-4.7-5.5-9.6-7.4-14.8l0,0c-0.4-1-0.7-2-1.1-3c-1.6-4.8-2.8-9.8-3.4-14.8c-0.2-1-0.3-2-0.4-3
		l0,0c-0.3-2.6-0.4-5.3-0.4-8c0-2.3,0.1-4.6,0.3-6.9c0.1-1,0.2-2,0.3-3c0.6-5,1.7-10,3.2-14.8c0.3-1,0.7-2,1-3
		c1.9-5.2,4.3-10.1,7.2-14.8c0.6-1,1.3-2,1.9-3c1.2-1.8,2.6-3.6,3.9-5.3c1-1.2,2-2.4,3-3.5c1.9-2.1,3.9-4.1,6-6l0,0
		c1.1-1,2.3-2,3.5-3c5.2-4.2,10.9-7.7,17-10.5c1-0.5,2-0.9,3-1.3l0,0c2.9-1.2,5.9-2.2,8.9-3l0,0c14-3.8,28.8-3.8,42.8,0h0
		c1.4,0.4,2.8,0.8,4.2,1.3c1,0.3,2,0.7,3,1.1c7.9,3,15.2,7.2,21.8,12.5l0,0c1.2,1,2.4,2,3.5,3l0,0c0.4,0.3,0.8,0.7,1.1,1l0,0
		c1,0.9,2,1.9,3,2.9c3.2,3.3,6.2,6.9,8.8,10.8c0.7,1,1.3,2,1.9,3c2.9,4.7,5.3,9.6,7.2,14.8c0.4,1,0.7,2,1,3
		c1.5,4.8,2.6,9.8,3.2,14.8c0.1,1,0.2,2,0.3,3c0.2,2.3,0.3,4.6,0.3,6.9c0,2.7-0.1,5.3-0.4,8l0,0c-0.1,1-0.2,2-0.3,3
		C1032.6,132.9,1031.4,137.9,1029.8,142.7L1029.8,142.7z"/>
	<path class="st5" d="M884.5,99h137.4c5.6,0,10.2,4.5,10.2,10.2v17.7c0,5.6-4.5,10.2-10.2,10.2H884.5c-5.6,0-10.2-4.5-10.2-10.2
		v-17.7C874.3,103.6,878.9,99,884.5,99z"/>
	<path class="st0" d="M885.6,101.5h135.2c5.2,0,9.3,4.2,9.3,9.3v14.4c0,5.2-4.2,9.3-9.3,9.3H885.6c-5.2,0-9.3-4.2-9.3-9.3v-14.4
		C876.2,105.7,880.4,101.5,885.6,101.5z"/>
	<path class="st5" d="M888.2,109.8c1.1-0.2,2.2-0.3,3.3-0.3c1.4-0.1,2.9,0.3,4,1.2c0.8,0.8,1.3,1.9,1.2,3c0,1.6-1,3.1-2.5,3.7v0.1
		c1.9,0.5,3.1,2.2,3,4.2c0,1.2-0.4,2.4-1.2,3.3c-1,1.1-2.6,1.6-5.1,1.6c-0.9,0-1.9,0-2.8-0.2L888.2,109.8z M890.9,116.6h0.8
		c1.4,0,2.5-1.2,2.5-2.6c0,0,0-0.1,0-0.1c0.2-1.2-0.7-2.3-1.8-2.4c-0.2,0-0.3,0-0.5,0c-0.3,0-0.7,0-1,0.1L890.9,116.6z M890.9,124.5
		c0.3,0.1,0.6,0.1,0.8,0.1c1.5,0.1,2.7-1,2.8-2.5c0-0.2,0-0.3,0-0.5c0.1-1.5-1-2.9-2.6-3c-0.1,0-0.2,0-0.3,0h-0.8L890.9,124.5z"/>
	<path class="st5" d="M907.4,118.8h-4v5.4h4.6v2.3h-7.2v-16.9h6.9v2.3h-4.3v4.7h4L907.4,118.8z"/>
	<path class="st5" d="M911.3,126.5v-16.9h2.5l2.8,7.3c0.6,1.5,1.4,3.7,2,5.4l0,0c-0.1-2.2-0.3-4.8-0.3-7.8v-4.8h2.4v17h-2.5
		l-2.8-7.2c-0.7-1.8-1.3-3.6-1.9-5.4l0,0c0.1,2,0.2,4.4,0.2,7.9v4.8L911.3,126.5z"/>
	<path class="st5" d="M929.9,109.6h6.9v2.3h-4.3v5.1h4v2.2h-4v7.3h-2.7V109.6z"/>
	<path class="st5" d="M940.4,109.8c1.1-0.2,2.1-0.3,3.2-0.3c1.5-0.1,3,0.3,4.2,1.2c0.9,0.9,1.4,2.2,1.3,3.4c0.1,1.8-1,3.5-2.7,4.3
		l0,0c1.2,0.4,1.8,1.6,2.2,3.6c0.2,1.5,0.5,3,1,4.5h-2.8c-0.4-1.3-0.7-2.7-0.9-4.1c-0.3-2.2-1-2.9-2.3-2.9H943v7h-2.7L940.4,109.8z
		 M943,117.4h0.7c1.6,0,2.6-1.3,2.6-3s-0.7-2.8-2.4-2.8c-0.3,0-0.6,0-0.9,0.1L943,117.4z"/>
	<path class="st5" d="M955.1,122.1l-0.9,4.4h-2.6l3.8-17h3.1l3.5,17h-2.6l-0.9-4.4H955.1z M958.2,120l-0.7-3.9
		c-0.2-1.1-0.4-2.7-0.6-3.9h-0.1c-0.2,1.2-0.4,2.8-0.6,3.9l-0.7,3.9L958.2,120z"/>
	<path class="st5" d="M965.1,126.5v-16.9h2.5l2.8,7.3c0.6,1.5,1.5,3.7,2,5.4h0c-0.1-2.2-0.3-4.8-0.3-7.8v-4.8h2.4v17h-2.5l-2.8-7.2
		c-0.7-1.8-1.3-3.6-1.9-5.4h0c0.1,2,0.2,4.4,0.2,7.9v4.8L965.1,126.5z"/>
	<path class="st5" d="M978.6,109.6h2.7v7.8h0.1c0.3-0.7,0.6-1.4,0.9-2.1l2.7-5.7h3l-3.9,7.3l4,9.7h-2.9l-2.9-7.6l-0.8,1.5v6h-2.7
		L978.6,109.6z"/>
	<path class="st5" d="M990.7,109.6h2.7v14.7h4.5v2.3h-7.2V109.6z"/>
	<path class="st5" d="M1003.6,109.6v17h-2.6v-17H1003.6z"/>
	<path class="st5" d="M1007.8,126.5v-16.9h2.5l2.8,7.3c0.6,1.5,1.5,3.7,2,5.4h0c-0.1-2.2-0.3-4.8-0.3-7.8v-4.8h2.4v17h-2.5l-2.8-7.2
		c-0.7-1.8-1.3-3.6-1.8-5.4l0,0c0.1,2,0.2,4.4,0.2,7.9v4.8L1007.8,126.5z"/>
</g>
</svg>
