<svg xmlns="http://www.w3.org/2000/svg" xmlns:xlink="http://www.w3.org/1999/xlink" viewBox="0 0 1080 215.83"><defs><style>.cls-1{isolation:isolate;}.cls-12,.cls-2{fill:#fff;}.cls-3{fill:#2f7ea3;}.cls-4{opacity:0.4;}.cls-5{fill:url(#radial-gradient);}.cls-6{fill:#00a1ec;}.cls-7{fill:#00b4ff;}.cls-8{fill:#4ab349;}.cls-9{fill:#72c059;}.cls-10{fill:#b6ffff;}.cls-11{fill:#a4e8e5;}.cls-12{mix-blend-mode:soft-light;opacity:0.55;}.cls-13{fill:#5bb951;}</style><radialGradient id="radial-gradient" cx="930.16" cy="168.1" r="67.09" gradientTransform="translate(-32.57 -62.36) scale(1.06 1.06)" gradientUnits="userSpaceOnUse"><stop offset="0" stop-color="#00addc"/><stop offset="0.19" stop-color="#00a8d7"/><stop offset="0.4" stop-color="#009bca"/><stop offset="0.63" stop-color="#0084b3"/><stop offset="0.86" stop-color="#006493"/><stop offset="1" stop-color="#004e7d"/></radialGradient></defs><g class="cls-1"><g id="Layer_8" data-name="Layer 8"><rect class="cls-2" y="141.57" width="1080" height="23.04"/><rect class="cls-3" width="1080" height="141.12"/><circle class="cls-2" cx="952.93" cy="117.12" r="98.7"/><ellipse class="cls-2" cx="952.85" cy="117.59" rx="83.83" ry="84.2"/><g class="cls-4"><path class="cls-5" d="M953.66,188.1a70.78,70.78,0,0,1-50.31-20.92A71.57,71.57,0,0,1,926,50.82a70.9,70.9,0,0,1,78,15.31,71.57,71.57,0,0,1-22.62,116.36A70.27,70.27,0,0,1,953.66,188.1Z" transform="translate(-0.46 0.37)"/><path class="cls-6" d="M1001.62,168a6.45,6.45,0,0,1,1.33.13l.14-.13ZM885.45,96.27l-.09.32h6.5l.11-.32Zm5.35-13.11-.33.62h7.1l.37-.62Zm128.41,5.69a71.52,71.52,0,0,0-37.87-38c-1.11-.48-2.23-.92-3.36-1.33a6.75,6.75,0,0,1-2,4.36,7,7,0,0,1-1.4,1.08,6.61,6.61,0,0,1-3.33.9h5.78c.62.23,1.23.48,1.84.74a64.59,64.59,0,0,1,6.36,3.12,6.72,6.72,0,0,1-6,9.57H954.35a6.72,6.72,0,0,1-4.72-11.46,6.64,6.64,0,0,1,4.72-2h-18.5a6.63,6.63,0,0,1-3.27-.87,6.73,6.73,0,0,1-3.4-5.42c-1.08.4-2.15.83-3.21,1.28a71,71,0,0,0-22.62,15.31q-2,2-3.88,4.22h15.86a6.72,6.72,0,0,1,4.72,11.46,7,7,0,0,1-1.91,1.35h-4.37a6.56,6.56,0,0,0-2.8.62h-.3l.15.07a6.62,6.62,0,0,0-1.77,1.28,6.72,6.72,0,0,0,1.77,10.76,6.07,6.07,0,0,1-1,.38h1.89a6.41,6.41,0,0,0,2,.32h11.34a6.71,6.71,0,0,1,2.71,11.14,6.64,6.64,0,0,1-4.72,2H882.85q-.33,3.45-.33,7a71.5,71.5,0,0,0,1.66,15.43A7.55,7.55,0,0,1,885,132h9.68a6.72,6.72,0,0,1-2.28-11,6.64,6.64,0,0,1,4.72-2h40.12A6.7,6.7,0,0,1,942,130.53a6.64,6.64,0,0,1-4.72,2h-9.68a6.72,6.72,0,0,1-2.45,13H888.54a71.5,71.5,0,0,0,36.57,36.65A6.8,6.8,0,0,1,926,181a6.63,6.63,0,0,1,4.72-2H955.6a6.71,6.71,0,0,1,6.68,6.71,6.74,6.74,0,0,1-.26,1.86,69.79,69.79,0,0,0,19.32-5.13c.92-.39,1.83-.79,2.72-1.22a6.64,6.64,0,0,1-5.46-4.4,6.44,6.44,0,0,1-.38-2.2,6.65,6.65,0,0,1,1.94-4.68,6.55,6.55,0,0,1,4.67-2h-.62a6.74,6.74,0,0,1-1.63-.21,6.64,6.64,0,0,0,0-12.86,6.28,6.28,0,0,1,1.63-.21h-5.29a6.63,6.63,0,0,1-4.67-11.32,6.55,6.55,0,0,1,4.67-1.95h37.63a6.58,6.58,0,0,1,3.46,1,70.69,70.69,0,0,0,3-9.88h-7.4a6.8,6.8,0,0,1-2.26-.4,6.65,6.65,0,0,0,0-12.48,6.55,6.55,0,0,1,2.26-.4h9.12a.81.81,0,0,0,0-.16c0-.83,0-1.66,0-2.49A71.38,71.38,0,0,0,1019.21,88.85Zm-.68,30.3H975a6.63,6.63,0,0,1-4.75-11.24.6.6,0,0,1,.08-.08,6.57,6.57,0,0,1,4.67-2h22.47a6.64,6.64,0,0,0-4.75-11.25h-.54v-.07H980.56a6.64,6.64,0,0,1-4.67-11.33,6.57,6.57,0,0,1,4.67-2h27.65a66.14,66.14,0,0,1,5.27,10,65.06,65.06,0,0,1,5.09,25.38C1018.57,117.49,1018.56,118.32,1018.53,119.15Z" transform="translate(-0.46 0.37)"/><path class="cls-7" d="M977.08,55.83H971.3a6.61,6.61,0,0,0,3.33-.9C975.45,55.21,976.27,55.51,977.08,55.83Z" transform="translate(-0.46 0.37)"/><path class="cls-7" d="M1015.62,119.31a6.55,6.55,0,0,0-2.26.4,6.65,6.65,0,0,1,0,12.48,6.8,6.8,0,0,0,2.26.4h1a64.78,64.78,0,0,1-2.93,8.9H978.92a6.55,6.55,0,0,0-4.67,1.95,6.63,6.63,0,0,0,4.67,11.32h5.29a6.28,6.28,0,0,0-1.63.21,6.65,6.65,0,0,1,0,12.86,6.74,6.74,0,0,0,1.63.21h.62a6.55,6.55,0,0,0-4.67,2,6.65,6.65,0,0,0-1.94,4.68,6.44,6.44,0,0,0,.38,2.2,64,64,0,0,1-17.86,4.61,6.65,6.65,0,0,0-5.14-2.43H934.72a66.65,66.65,0,0,1-6.33-2.31,65.35,65.35,0,0,1-33-31.27h29.72a6.72,6.72,0,0,0,2.45-13h9.68a6.74,6.74,0,0,0,6.69-6.72,6.72,6.72,0,0,0-6.69-6.71H897.13a6.64,6.64,0,0,0-4.72,2,6.72,6.72,0,0,0,2.28,11h-4.14a65.23,65.23,0,0,1-1.81-15.38,66.68,66.68,0,0,1,.36-7h34a6.74,6.74,0,0,0,6.69-6.72,6.74,6.74,0,0,0-4.68-6.4H913.77a6.41,6.41,0,0,1-2-.32h-1.89a6.07,6.07,0,0,0,1-.38,6.72,6.72,0,0,1-1.77-10.76,6.62,6.62,0,0,1,1.77-1.28l-.15-.07h.3a6.56,6.56,0,0,1,2.8-.62h4.37a7,7,0,0,0,1.91-1.35,6.72,6.72,0,0,0-4.72-11.46H908a64.83,64.83,0,0,1,20.44-13.78c1.38-.59,2.78-1.12,4.19-1.61a6.63,6.63,0,0,0,3.27.87h18.5a6.71,6.71,0,0,0-6.68,6.71,6.73,6.73,0,0,0,6.68,6.72h24.88a6.71,6.71,0,0,0,6-9.57,65.68,65.68,0,0,1,22.93,21.59H980.56A6.64,6.64,0,0,0,974,87.92a6.64,6.64,0,0,0,6.61,6.64h11.66v.07h.54a6.64,6.64,0,0,1,4.75,11.25H975a6.57,6.57,0,0,0-4.67,2,.6.6,0,0,0-.08.08A6.63,6.63,0,0,0,975,119.15h43.49a.92.92,0,0,0,0,.16Z" transform="translate(-0.46 0.37)"/><path class="cls-8" d="M1024.74,119.31a71,71,0,0,1-1.72,13.28h-6.39a65.52,65.52,0,0,0,1.89-13.28Z" transform="translate(-0.46 0.37)"/><path class="cls-9" d="M1018.52,119.15a65.52,65.52,0,0,1-1.89,13.28h-1a6.55,6.55,0,0,1-2.26-.4,6.65,6.65,0,0,0,0-12.48,6.8,6.8,0,0,1,2.26-.4Z" transform="translate(-0.46 0.37)"/><path class="cls-9" d="M1018.57,116.66c0,.83,0,1.66,0,2.49H975a6.63,6.63,0,0,1-4.75-11.24.6.6,0,0,1,.08-.08,6.57,6.57,0,0,1,4.67-2h22.47a6.64,6.64,0,0,0-4.75-11.25h-.54v-.07H980.56a6.64,6.64,0,0,1-4.67-11.33,6.57,6.57,0,0,1,4.67-2h27.65a66.14,66.14,0,0,1,5.27,10A65.06,65.06,0,0,1,1018.57,116.66Z" transform="translate(-0.46 0.37)"/><path class="cls-8" d="M1024.79,116.66c0,.83,0,1.66,0,2.49h-6.22c0-.83,0-1.66,0-2.49a65.06,65.06,0,0,0-5.09-25.38,66.14,66.14,0,0,0-5.27-10h7.27a71.21,71.21,0,0,1,9.31,35.38Z" transform="translate(-0.46 0.37)"/><path class="cls-8" d="M1020,142.47c-.26.67-.53,1.33-.8,2a72.31,72.31,0,0,1-5.36,10.3h-7.51a64.84,64.84,0,0,0,7.14-12.73l.22-.54h2.85A6.58,6.58,0,0,1,1020,142.47Z" transform="translate(-0.46 0.37)"/><path class="cls-9" d="M1013.7,141.49l-.22.54a65.47,65.47,0,0,1-13.92,20.73,65.62,65.62,0,0,1-5.93,5.28h-9.42a6.74,6.74,0,0,1-1.63-.21,6.64,6.64,0,0,0,0-12.86,6.28,6.28,0,0,1,1.63-.21h-5.29a6.63,6.63,0,0,1-4.67-11.32,6.55,6.55,0,0,1,4.67-1.95Z" transform="translate(-0.46 0.37)"/><path class="cls-8" d="M1013.85,154.76a72.13,72.13,0,0,1-9.89,12.42l-.87.86h-9.46a65.74,65.74,0,0,0,12.71-13.28Z" transform="translate(-0.46 0.37)"/><path class="cls-9" d="M993.63,168a64.44,64.44,0,0,1-14.71,8.7l-.32.13a6.44,6.44,0,0,1-.38-2.2,6.65,6.65,0,0,1,1.94-4.68,6.55,6.55,0,0,1,4.67-2Z" transform="translate(-0.46 0.37)"/><path class="cls-8" d="M1003,168.17a70.93,70.93,0,0,1-18.88,13.1h0a6.64,6.64,0,0,1-5.46-4.4l.32-.13a64.44,64.44,0,0,0,14.71-8.7h8A6.45,6.45,0,0,1,1003,168.17Z" transform="translate(-0.46 0.37)"/><path class="cls-8" d="M907.64,70.35c-.06.07,0,.76,0,.82a65.2,65.2,0,0,0-10,12.45h-7.14a75.42,75.42,0,0,1,8.83-13.27Z" transform="translate(-0.46 0.37)"/><path class="cls-9" d="M929.79,103a6.74,6.74,0,0,1-6.69,6.72h-34a64.88,64.88,0,0,1,2.76-13.12l.11-.32c.55-1.68,1.17-3.35,1.86-5a65.51,65.51,0,0,1,3.74-7.5l.37-.62a65.3,65.3,0,0,1,9.66-12.77c.06-.06.29,0,.35,0h7.38a6.72,6.72,0,0,1,4.72,11.46,7,7,0,0,1-1.91,1.35h-4.37a6.56,6.56,0,0,0-2.8.62h-.3l.15.07a6.62,6.62,0,0,0-1.77,1.28,6.72,6.72,0,0,0,1.77,10.76,6.07,6.07,0,0,1-1,.38h1.89a6.41,6.41,0,0,0,2,.32h11.34A6.74,6.74,0,0,1,929.79,103Z" transform="translate(-0.46 0.37)"/><path class="cls-9" d="M918.14,83.16a6.64,6.64,0,0,1-2.81.62H911a6.56,6.56,0,0,1,2.8-.62Z" transform="translate(-0.46 0.37)"/><path class="cls-8" d="M897.57,83.62a67.81,67.81,0,0,0-3.74,7.66c-.69,1.64-1.47,3.62-2,5.31h-6.52a77,77,0,0,1,2.82-7.74c.72-1.73,1.51-3.57,2.36-5.23Z" transform="translate(-0.46 0.37)"/><path class="cls-8" d="M891.86,96.59a64.88,64.88,0,0,0-2.76,13.12h-6.25a70,70,0,0,1,2.51-13.11Z" transform="translate(-0.46 0.37)"/><path class="cls-9" d="M925.11,96.59H913.77a6.41,6.41,0,0,1-2-.32H923.1A6.36,6.36,0,0,1,925.11,96.59Z" transform="translate(-0.46 0.37)"/><path class="cls-9" d="M895.4,145.47h-6.86c-.15-.33-.29-.67-.43-1a69.74,69.74,0,0,1-3.93-12.37A7.55,7.55,0,0,1,885,132h5.54a64.83,64.83,0,0,0,3.28,10C894.32,143.2,894.85,144.34,895.4,145.47Z" transform="translate(-0.46 0.37)"/><path class="cls-9" d="M943.94,125.79a6.74,6.74,0,0,1-6.69,6.72h-9.68a6.72,6.72,0,0,1-2.45,13H895.4c-.55-1.13-1.08-2.27-1.57-3.44a64.83,64.83,0,0,1-3.28-10h4.14a6.72,6.72,0,0,1-2.28-11,6.64,6.64,0,0,1,4.72-2h40.12A6.72,6.72,0,0,1,943.94,125.79Z" transform="translate(-0.46 0.37)"/><rect class="cls-9" x="913.94" y="150.06" width="19.13" height="13.43" rx="6.72"/><path class="cls-10" d="M985.92,62.54a6.73,6.73,0,0,1-6.69,6.72H954.35a6.72,6.72,0,0,1-4.72-11.46,6.64,6.64,0,0,1,4.72-2h-18.5a6.63,6.63,0,0,1-3.27-.87,65,65,0,0,1,42,0,6.61,6.61,0,0,1-3.33.9h5.78c.62.23,1.23.48,1.84.74a64.59,64.59,0,0,1,6.36,3.12A6.68,6.68,0,0,1,985.92,62.54Z" transform="translate(-0.46 0.37)"/><path class="cls-11" d="M978,49.49a6.75,6.75,0,0,1-2,4.36,7,7,0,0,1-1.4,1.08,65,65,0,0,0-42,0,6.73,6.73,0,0,1-3.4-5.42,71.3,71.3,0,0,1,48.8,0Z" transform="translate(-0.46 0.37)"/><path class="cls-11" d="M985.28,59.69a64.59,64.59,0,0,0-6.36-3.12c-.61-.26-1.22-.51-1.84-.74h2.15A6.69,6.69,0,0,1,985.28,59.69Z" transform="translate(-0.46 0.37)"/><path class="cls-11" d="M962.28,185.76a6.74,6.74,0,0,1-.26,1.86,72.57,72.57,0,0,1-8.36.48A70.29,70.29,0,0,1,926,182.49l-.86-.37A6.8,6.8,0,0,1,926,181a6.63,6.63,0,0,1,4.72-2h4a64.72,64.72,0,0,0,18.94,2.81,66.6,66.6,0,0,0,7.08-.38A6.71,6.71,0,0,1,962.28,185.76Z" transform="translate(-0.46 0.37)"/><path class="cls-10" d="M960.74,181.48a66.6,66.6,0,0,1-7.08.38,64.72,64.72,0,0,1-18.94-2.81H955.6A6.65,6.65,0,0,1,960.74,181.48Z" transform="translate(-0.46 0.37)"/><path class="cls-12" d="M953.66,173.27A56.67,56.67,0,0,1,913.8,76.62a56.49,56.49,0,0,1,79.71,80.07A55.87,55.87,0,0,1,953.66,173.27Z" transform="translate(-0.46 0.37)"/></g><path class="cls-13" d="M953.66,30.72a85.94,85.94,0,1,0,85.93,85.94A85.93,85.93,0,0,0,953.66,30.72Zm0,166.76a80.83,80.83,0,1,1,80.82-80.82A80.83,80.83,0,0,1,953.66,197.48Z" transform="translate(-0.46 0.37)"/><path d="M1031.17,120.94h-6a75.42,75.42,0,0,0-141.43,0h-7.18c.11.84.21,1.61.31,2.36h0v3.21h9.53c2.65,4.49.38,9.24.26,13.89h11.45c-.63-4.84-2.3-9.54-.08-13.89h50.44c2.56,4.5.28,9.25.23,13.88h11.48c-.74-4.85-2.42-9.55-.15-13.88h50.75c2.27,4.57.36,9.3,0,14,4.11.16,7.65.68,11.47-.41-.61-4.55-2.29-9.08-.12-13.27a3.37,3.37,0,0,1,.19-.32h8.79v-1.87h.07Zm-23.69-21.83a72.24,72.24,0,0,1,13.61,21.83h-13.61ZM982,81.05a71.68,71.68,0,0,1,22.44,14.89v25H982Zm-26.53-5.49a71,71,0,0,1,23.46,4.29v41.09H955.45Zm-26.53,4.68a71.12,71.12,0,0,1,23.46-4.66v45.36H928.92Zm-24.49,15.7a71.58,71.58,0,0,1,21.42-14.45v39.45H904.43Zm-3.07,3.17v21.83h-13.6A72.21,72.21,0,0,1,901.36,99.11Z" transform="translate(-0.46 0.37)"/><path class="cls-2" d="M71.09,50.93h-14c-7,0-7-10.24,0-10.24H94.93a5.12,5.12,0,1,1,0,10.24H81.65v40.4c0,7-10.56,7.12-10.56,0Z" transform="translate(-0.46 0.37)"/><path class="cls-2" d="M108,91.33V45.89c0-2.88,2.08-5,5.68-5a4.77,4.77,0,0,1,4.88,5V63.33h26.08V45.89a5.2,5.2,0,0,1,5.44-5,4.84,4.84,0,0,1,5,5V91.33a4.88,4.88,0,0,1-5,5,5.26,5.26,0,0,1-5.44-5V73.81H118.53V91.33a4.82,4.82,0,0,1-4.88,5C110.05,96.29,108,94.13,108,91.33Z" transform="translate(-0.46 0.37)"/><path class="cls-2" d="M171,96.29a4.88,4.88,0,0,1-5-5V45.89a4.84,4.84,0,0,1,5-5h28.72c7.36,0,7.2,10.4,0,10.4h-23v12h20.16c7.12,0,7.12,10.48,0,10.48H176.69v12h24.4c7.28,0,7.84,10.48,0,10.48Z" transform="translate(-0.46 0.37)"/><path class="cls-2" d="M243.49,96.29a4.77,4.77,0,0,1-4.88-5V45.89a4.73,4.73,0,0,1,4.88-5H266c10.48,0,16.16,7.12,16.16,15.28a12.69,12.69,0,0,1-4.4,10.08c6.32,2.48,9.12,7.36,9.12,13.28,0,9.2-6.24,16.72-18.24,16.72ZM266,50.69H249.09V62.61H266c3.44,0,5.6-2.16,5.6-6.4A5.59,5.59,0,0,0,266,50.69ZM249.09,86.53h19.52c9.28,0,9.28-14.16,0-14.16H249.09Z" transform="translate(-0.46 0.37)"/><path class="cls-2" d="M306.93,91.09c0,7-10.64,7.2-10.64.16V45.81a4.78,4.78,0,0,1,4.8-4.88h21.28c20.32,0,24.48,27.2,7.52,34l10.64,13c4.16,6.16-4.16,12.08-9,6L319.49,76.61H306.93Zm0-23.68h15.44c10.4,0,11-16.8,0-16.8H306.93Z" transform="translate(-0.46 0.37)"/><path class="cls-2" d="M350.93,45.73c0-6.56,10.56-6.8,10.56,0V91.41c0,6.64-10.56,6.8-10.56,0Z" transform="translate(-0.46 0.37)"/><path class="cls-2" d="M378.85,96.29c-2.64,0-5.52-1.44-5.52-5V45.89c0-2.88,2.88-5,5.52-5h18.32c36.56,0,35.76,55.36.72,55.36Zm5-45.6V86.53h13.28c21.6,0,22.56-35.84,0-35.84Z" transform="translate(-0.46 0.37)"/><path class="cls-2" d="M480.93,90.13a30.3,30.3,0,0,1-19.68,6.72c-16.8,0-28.72-9.6-28.72-28.64,0-16.16,12.56-28.72,29.44-28.72,6.32,0,13.28,2.16,18.24,7s-2.16,11.92-7,7.68c-3-2.88-7.12-5-11.28-5a19.07,19.07,0,0,0-19,19c0,11.84,7.84,19,18.32,19a20.36,20.36,0,0,0,12-3.6V73.81h-12c-7.12,0-6.4-9.76,0-9.76h16c3,0,5.68,2.24,5.68,4.72v17A6.46,6.46,0,0,1,480.93,90.13Z" transform="translate(-0.46 0.37)"/><path class="cls-2" d="M499.41,96.29a4.88,4.88,0,0,1-5-5V45.89a4.84,4.84,0,0,1,5-5h28.72c7.36,0,7.2,10.4,0,10.4h-23v12h20.16c7.12,0,7.12,10.48,0,10.48H505.09v12h24.4c7.28,0,7.84,10.48,0,10.48Z" transform="translate(-0.46 0.37)"/></g></g></svg>