<svg id="Layer_9_copy" data-name="Layer 9 copy" xmlns="http://www.w3.org/2000/svg" viewBox="0 0 1080 215.82"><defs><style>.cls-1{fill:#fff;}.cls-2{fill:#efd038;}.cls-3{fill:#5bb951;}.cls-4{fill:#0b152d;}.cls-5{fill:#0c162e;}.cls-6{fill:#5e86c5;}.cls-7{fill:#0c162f;}.cls-8{fill:#648bc8;}.cls-9{fill:#426eba;}.cls-10{fill:#688ec9;}.cls-11{fill:#cfe6f0;}.cls-12{fill:#aac7e3;}.cls-13{fill:#b6d1e7;}.cls-14{fill:#89aad5;}.cls-15{fill:#b1cde6;}.cls-16{fill:#c1dbec;}.cls-17{fill:#b0cce5;}.cls-18{fill:#4670ba;}.cls-19{fill:#bfd9eb;}.cls-20{fill:#4068af;}.cls-21{fill:#9bbadc;}.cls-22{fill:#c7e0ee;}.cls-23{fill:#a5c3e1;}.cls-24{fill:#121f3a;}.cls-25{fill:#8aabd5;}.cls-26{fill:#5881c4;}.cls-27{fill:#5c84c5;}.cls-28{fill:#547dc1;}.cls-29{fill:#93b3d9;}.cls-30{fill:#b3cde1;}.cls-31{fill:#a0bedf;}.cls-32{fill:#98b8dc;}.cls-33{fill:#94b4da;}.cls-34{fill:#16223c;}.cls-35{fill:#cce4f0;}.cls-36{fill:#8fb0d8;}.cls-37{fill:#4f78bd;}.cls-38{fill:#26324b;}.cls-39{fill:#9ab9dd;}.cls-40{fill:#a7c3df;}.cls-41{fill:#4a72b8;}.cls-42{fill:#405a88;}.cls-43{fill:#82a4d3;}.cls-44{fill:#4f73b0;}.cls-45{fill:#5f6e7f;}.cls-46{fill:#1b2844;}.cls-47{fill:#414a5c;}.cls-48{fill:#1b2b4b;}.cls-49{fill:#2b3c5c;}.cls-50{fill:#7398ce;}.cls-51{fill:#5f6c7f;}.cls-52{fill:#abc6dd;}.cls-53{fill:#6b91ca;}.cls-54{fill:#20365f;}.cls-55{fill:#333f5a;}.cls-56{fill:#4b5567;}.cls-57{fill:#cfe6ee;}.cls-58{fill:#2c394f;}.cls-59{fill:#374357;}.cls-60{fill:#becdd3;}.cls-61{fill:#426ab0;}.cls-62{fill:#a0bede;}.cls-63{fill:#7498cc;}.cls-64{fill:#bad5e9;}.cls-65{fill:#6f95cc;}.cls-66{fill:#8daed7;}.cls-67{fill:#6d93cc;}.cls-68{fill:#95b4d8;}.cls-69{fill:#7492bb;}.cls-70{fill:#87a5cb;}.cls-71{fill:#9cbbdd;}.cls-72{fill:#8da8c7;}.cls-73{fill:#1b2843;}.cls-74{fill:#19263f;}.cls-75{fill:#5b7396;}.cls-76{fill:#1f2b43;}.cls-77{fill:#6785b2;}.cls-78{fill:#97b1cc;}.cls-79{fill:#97b0c9;}.cls-80{fill:#7c97b9;}.cls-81{fill:#7f9bbf;}.cls-82{fill:#3e4d63;}.cls-83{fill:#768ba3;}.cls-84{fill:#758daa;}.cls-85{fill:#778fab;}.cls-86{fill:#637c9e;}.cls-87{fill:#7f98b5;}.cls-88{fill:#37455c;}.cls-89{fill:#83a5d3;}.cls-90{fill:#a0bad3;}.cls-91{fill:#69809b;}.cls-92{fill:#4a6287;}.cls-93{fill:#131e35;}.cls-94{fill:#97b3d1;}.cls-95{fill:#152038;}.cls-96{fill:#1c2841;}.cls-97{fill:#4f6586;}.cls-98{fill:#324057;}.cls-99{fill:#3b4c67;}.cls-100{fill:#7d94b0;}.cls-101{fill:#25324b;}.cls-102{fill:#19253e;}.cls-103{fill:#7f9cbe;}.cls-104{fill:#85a2c5;}.cls-105{fill:#5f6d7c;}.cls-106{fill:#495971;}.cls-107{fill:#17233b;}.cls-108{fill:#596e8a;}.cls-109{fill:#7094ca;}.cls-110{fill:#8299b2;}.cls-111{fill:#8dacd2;}.cls-112{fill:#92acc7;}.cls-113{fill:#7da0d2;}.cls-114{fill:#789cd0;}.cls-115{fill:#7c97ba;}.cls-116{fill:#222e45;}.cls-117{fill:#90b0d6;}.cls-118{fill:#4f5f75;}.cls-119{fill:#48586e;}.cls-120{fill:#667d9b;}.cls-121{fill:#819ab8;}.cls-122{fill:#97b1ca;}.cls-123{fill:#a6c2db;}.cls-124{fill:#45556c;}.cls-125{fill:#acc8e2;}.cls-126{fill:#617a9c;}.cls-127{fill:#87a6cc;}.cls-128{fill:#4d77be;}.cls-129{fill:#5a83c4;}.cls-130{fill:#557dc1;}.cls-131{fill:#4671bb;}.cls-132{fill:#1a2d53;}.cls-133{fill:#7196cc;}.cls-134{fill:#7fa2d2;}.cls-135{fill:#7294c4;}.cls-136{fill:#5678ae;}.cls-137{fill:#2c3c5a;}.cls-138{fill:#22304c;}.cls-139{fill:#3f5a87;}.cls-140{fill:#142341;}.cls-141{fill:#203864;}.cls-142{fill:#192c52;}.cls-143{fill:#274376;}.cls-144{fill:#31528d;}.cls-145{fill:#2e4f88;}.cls-146{fill:#16274a;}.cls-147{fill:#1c3057;}.cls-148{fill:#284377;}.cls-149{fill:#1e3560;}.cls-150{fill:#505e70;}.cls-151{fill:#c6dce5;}.cls-152{fill:#33425c;}.cls-153{fill:#647993;}.cls-154{fill:#a2beda;}.cls-155{fill:#212e46;}.cls-156{fill:#3f629d;}.cls-157{fill:#4365a1;}.cls-158{fill:#18294a;}.cls-159{fill:#1c2942;}.cls-160{fill:#2d3c58;}.cls-161{fill:#283347;}.cls-162{fill:#0c172f;}.cls-163{fill:#546883;}.cls-164{fill:#657993;}.cls-165{fill:#2c3e5e;}.cls-166{fill:#0e1932;}.cls-167{fill:#7598c9;}.cls-168{fill:#233048;}.cls-169{fill:#384860;}.cls-170{fill:#3d506e;}.cls-171{fill:#4c6283;}.cls-172{fill:#738cad;}.cls-173{fill:#111c35;}.cls-174{fill:#4b5d77;}.cls-175{fill:#121d35;}.cls-176{fill:#1b263e;}</style></defs><rect class="cls-1" y="141.57" width="1080" height="23.04"/><rect class="cls-2" width="1080" height="141.12"/><circle class="cls-1" cx="952.93" cy="117.12" r="98.7"/><ellipse class="cls-1" cx="953.73" cy="117.4" rx="83.83" ry="84.2"/><path class="cls-3" d="M952.37,30.8a85.94,85.94,0,1,0,85.94,85.94h0A85.94,85.94,0,0,0,952.37,30.8Zm0,166.76a80.83,80.83,0,1,1,80.82-80.84v0A80.81,80.81,0,0,1,952.37,197.56Z"/><ellipse class="cls-1" cx="952.99" cy="116.3" rx="56.49" ry="56.74"/><path class="cls-1" d="M953.45,57.73a58.12,58.12,0,1,0,57.86,58.38v-.27A58,58,0,0,0,953.45,57.73Zm-.75,112.74a53.63,53.63,0,0,1-53.82-53c-.22-30,23.45-54.49,53-54.69s54,23.63,54.32,53a53.77,53.77,0,0,1-52.84,54.68Z"/><path class="cls-1" d="M999.58,126.77l.08-.19a3,3,0,0,0-.78.18v1.49c.22.34.43.67.63,1s.13.46.21.69a3.45,3.45,0,0,1,.28.54l-.25.22c-.32,1.11-.64,2.23-1,3.34-.23.3-.47.58-.7.87l-5.86,10.56c-.53.56-1.07,1.13-1.6,1.71l-2.45,3.23c-.54.55-1.09,1.09-1.64,1.63l-3.21,2.58L980,157.05h0l-.86.82-1.6.9-2.51,1.43-3.26,1.61-2.44.91c-.83.27-1.65.54-2.47.83l-2.45.73-.82.1-4.11.81-5.74.65-8.21-.57-4.26-.86H941l-.29-.15-2.6-.74-2.46-.82-2.28-.88-1.74-.78-1.63-.82-4.17-2.43-2.37-1.59-5.61-4.89c-7.14-6.41-11.27-14.48-13.16-23.8l-.08-.86c-.22-.82-.44-1.64-.65-2.47a.52.52,0,0,1-.07-.71c-.06-.29-.12-.58-.17-.87V110.44q2.17-7.48,4.34-15c.12-.25.23-.51.35-.77l1.1-1.78a.67.67,0,0,1,.27-.67l.6-.9,5.78-7.7,1.74-1.94,1.5-1.13c.27-.26.53-.51.79-.78L921,79l1.79-1.37a.49.49,0,0,1,.52-.26l.94-.8.93-.72h0l.82-.62a.58.58,0,0,1,.62-.31l2.64-1.53L939,69.94l.87-.63,4-.91,10-.74h2.46l5.74.81c3,.84,6,1.66,9,2.49l1.67.5,1.61,1.1a5,5,0,0,0,.66.11l1,.5c.23.09.47.18.71.29l1.72,1.47c16.11,10.36,23.72,25.19,23.24,44.27,0,1.91-.26,3.81-.41,5.71C1000.65,125.54,1000.14,126.2,999.58,126.77Z"/><path class="cls-2" d="M952.57,49.47a67.27,67.27,0,1,0,66.94,67.6v-.38A67.21,67.21,0,0,0,952.57,49.47Zm-53.69,68c-.22-30,23.45-54.49,53-54.69s54,23.63,54.32,53a53.65,53.65,0,1,1-107.29,1.67Z"/><path class="cls-2" d="M952.57,49.47a67.27,67.27,0,1,0,66.94,67.6v-.38A67.21,67.21,0,0,0,952.57,49.47Zm.13,121a53.63,53.63,0,0,1-53.82-53c-.22-30,23.45-54.49,53-54.69s54,23.63,54.32,53a53.77,53.77,0,0,1-52.84,54.68Z"/><path class="cls-4" d="M978.35,74.93c-.85,1.91-1.7,3.82-2.53,5.73-.24,1.66-.48,3.32-.71,5a2.67,2.67,0,0,1,.69.16c.27.52.54,1.05.82,1.57a2.18,2.18,0,0,1,0,.72l-1.7-1.58-5.67.77-2.29.18-.92.68-.89.8-3.35,1.66-.27-1.24,1.25.29c.28-.51.55-1,.82-1.53l-4.12-2.38c-1.11,0-2.22-.06-3.32-.09l-1.54.91-.85.76c-.22.6-.43,1.21-.65,1.81l-1,2.27c-.24.29-.48.58-.73.86h0c-.54.53-1.08,1.07-1.61,1.61v2.35l1.52.92,2.44,1.74a5.84,5.84,0,0,0,.84-.1,2.7,2.7,0,0,1,.71-.38.29.29,0,0,1,0-.41.1.1,0,0,1,.05,0l.09-.81c.07-.3.14-.58.21-.87-.06-.54-.11-1.09-.17-1.64L956.2,93l1.16-3.35v5.67a.42.42,0,0,1,.48.28v.78h0l-.7,1.76-1.69,1.57-.54-.22-.19-.07-.35-.14-2.87-1.15-1,2.31h0l-1,1.39c-.57.6-1.15,1.18-1.73,1.78s-1,1.17-1.48,1.75h0c1.69,4-1.78,1.84-2.94,2.45l-.22.19,1.52,4.76,2.44-1,2.51-4,4.25-1.52c.55.47,1.11.92,1.67,1.39l2,2.69c.12.41.24.83.35,1.24l1.54.32h0c.05-.29.09-.58.14-.86a9.4,9.4,0,0,0,.06-1.13l.61.33.84,1.64.87.79,3.7.69c-.19.62-.34,1.73-.58,1.75-1.61.08-3.21.08-4.82,0-2.22,0-4.61,1.62-6.58-.71-1.57-3.25-4.18-1.8-6.55-1.44l-2.51.49-1.34,1c-.33.54-.64,1.1-1,1.66h0v0l-1,1.54-.91.83-1.55,2.5c.57,2.73,1.13,5.45,1.69,8.18l1.58,1.67c.32.25.65.49,1,.73h4.08l1.7-.64,1.64.7c.6.24,1.2.5,1.81.76.44,1.44,1,2.88,1.34,4.34.33,1.28,1.06,2.75.71,3.84-1.49,4.49,1.31,8,2.37,11.9.06.21.72.26,1.11.39l2.46-.63.73-.41,2.51-3.09c.55-.82,1.09-1.66,1.64-2.48l2.2-3.23c.34-.87.68-1.74,1-2.62l-.11-.18.11-.17-.09-3.66h0l1.06-1.46h0c.25-.28.5-.58.76-.86l.84-.77,3.25-4.14h0l-3.37-2.15,2.67-1,3.21-1.81,1.57-1.78-.66-2.41-4.09-1.55a1,1,0,0,1-.27-.75c-.06-.25-.12-.51-.19-.76l1.2.73,3.27,1.75c2.2.16,4.93-1.07,5.92,2.26a12.85,12.85,0,0,1,2,2.17c1.11,1.94,2.06,4,3.08,6l1.2-.17c-.08-.41-.15-.83-.22-1.23-1.39-2.3-.31-3.83,1.58-5.11l1.11-1.07c0-.26.08-.39.33-.4,2.9-1.75,2.68.79,3.23,2.28.44.1.91.18,1.35.26l2.6,2.29-.08.19c.54-.62,1.07-1.23,1.6-1.86.15-1.9.37-3.8.41-5.71C1002.07,100.12,994.46,85.29,978.35,74.93Zm-15.54,62.6c-.17-.11-.23-.38-.34-.59.21-.06.47-.23.62-.16s.22.39.32.6c-.21.06-.48.23-.6.15Zm-2-42.93,1.12-.7,1.24-.3L962,94.72Zm4.6,14.26c-1.23,0-2.46-.17-3.69-.27a25.59,25.59,0,0,1,.83-2.52c0-.08.65.08,1,.13l2.61.68,1.56,1.68a14.55,14.55,0,0,1-2.27.3Zm-.58,25.34a1.71,1.71,0,0,0,.21.26,2.73,2.73,0,0,0-.25.23c-.07-.09-.2-.18-.19-.26S964.75,134.28,964.83,134.2Zm.42,6.59a3.39,3.39,0,0,1-.61-.21c.16-.18.31-.37.47-.56a3,3,0,0,1,.37.49C965.5,140.56,965.32,140.8,965.25,140.79ZM969.38,126c-.56-.86-1.14-1.72-1.7-2.57-.49-1.1-1-2.2-1.49-3.31-.11-.26-.24-.52-.36-.79a6.28,6.28,0,0,1-.19-1.21l1.2,1.21a2.92,2.92,0,0,1,.28.71l1.43,2.51c.6.94,1.2,1.86,1.79,2.79Zm4.16-14c-.58-1.09-1.09-2.23-1.6-3.35l-.45-.69c-.15-.31-.28-.62-.43-.93,0-.26.05-.52.07-.77l.64-.92,1.29-.31c-.09.42-.18.84-.26,1.26a9.13,9.13,0,0,0,0,1.48c.2.16.5.29.59.5.43,1.11.83,2.24,1.17,3.38a4.64,4.64,0,0,1-1,.32Zm3.12-5q-.33-.36-.69-.72l1.15-.44c-.15.39-.3.74-.46,1.13ZM980,79c-.11,0-.2-.14-.29-.22h.62c-.11,0-.23.16-.33.15Zm3.44,26.87a.67.67,0,0,1-.63-.28c-.07-.16.16-.44.26-.67l.68.3c-.1.16-.14.51-.31.58Zm4.09-1.58c-.17.07-.44-.16-.67-.26.1-.23.15-.58.31-.65s.45.16.68.26c-.1.16-.16.52-.32.59Zm8.4-4.37c-.12-.22-.32-.44-.31-.65s.23-.4.36-.61c.11.22.23.43.35.65Zm-.18,24.29v-.08h-.05ZM975.14,85.67ZM949.81,96.3v-.1h0Z"/><path class="cls-4" d="M930.88,139l-1.68,6.44q-1.28,2-2.53,3.93c-1.08,2.28-2.15,4.55-3.23,6.82l-5.61-4.89c0-6.94-4.86-11.07-9-15.62V131.6h0l.7-2.47.87-1.7c.08-.24.17-.49.25-.75l7.12,1.51c1.09.59,2.17,1.17,3.26,1.74l4.89,4.25,3.3,1.27a.66.66,0,0,0,.64.32v-.08l.91.88C930.85,137.41,930.86,138.2,930.88,139Z"/><path class="cls-5" d="M944.07,74.39l-.93,2.27c-.54,1.92-1.07,3.83-1.61,5.74h0l-.57.77h0a.29.29,0,0,0-.14.13.45.45,0,0,0-.1.14.74.74,0,0,0-.08.44l-1.5,3.47h0l-.94.68V88l-2.44.94-.82.76-.84.65-3.37,3.2c-.23.39-.45.79-.67,1.18-.9-.82-2.53-1.63-2.55-2.48a33.67,33.67,0,0,1,.92-6.55c.24-.84.49-1.66.74-2.48a.82.82,0,0,0,.15-.66c1.14-2,1-3.38-1.7-3.55a13.2,13.2,0,0,1,.14-1.41c.35-.6.69-1.18,1-1.77,3.25-1.59,6.5-3.17,9.72-4.8.26-.14.29-.73.44-1.11l.87-.63c1.55.23,3.77-.45,3.34,2.46l-1.12.63,1.9,1A7.25,7.25,0,0,1,944.07,74.39Z"/><path class="cls-6" d="M937.31,160.54c.07.68-1.08,1.48-1.68,2.23l-2.28-.88c.5-1.87,1.48-3.77,1.4-5.61a71,71,0,0,0-1.45-9.05l-2.43-14a15.4,15.4,0,0,0,0-2.45c-1-6.06-2.25-12.08-3.16-18.15-1-6.5-1.66-13-2.54-19.56-.22-1.64-.71-3.24-1.08-4.86l-.57-4.1V80.67a2.58,2.58,0,0,0,.08-.68c.53-.57,1-1.14,1.58-1.7h0l.78-.82h0l.87-.75a7.4,7.4,0,0,0,.81.08,5.56,5.56,0,0,0,.17.87,13.73,13.73,0,0,1-.14,1.41c.57,1.19,1.13,2.37,1.7,3.55a.83.83,0,0,1-.18.57c-.25.82-.5,1.64-.74,2.48a33.67,33.67,0,0,0-.92,6.55c0,.85,1.65,1.66,2.55,2.48-.29,1.6-.92,3.23-.79,4.79.33,3.71,1.13,7.37,1.56,11.07,1.42,12.14,2.76,24.3,4.17,36.45.09.79.53,1.54.66,2.33C936.27,153.09,936.93,156.8,937.31,160.54Z"/><path class="cls-7" d="M921.86,102.06c-.29-2.15-.58-4.31-.85-6.46-2.82,1.38-2.29-.83-2.46-2.29l-.73-.37c-1,1.13-2,2.21-2.91,3.41a33.89,33.89,0,0,0-2,3.29c-.34.61-.66,1.21-1,1.83l-.77-2.64c-1-1.13-2.07-2.24-3.11-3.37q-2.16,7.47-4.34,15c0,1.9.09,3.8.14,5.71l1.57-.08,2.53-.86,6.41-6.69v.08h0l3.39-1.52v-4.13Zm-15.32,5.76.6-2.49.75-1.54.87,1.53v1.62Zm4.89-.33a1.12,1.12,0,0,1-.35.12c0-.1-.11-.28-.08-.31a1.42,1.42,0,0,1,.35-.11C911.38,107.3,911.46,107.47,911.43,107.49Z"/><path class="cls-8" d="M940.69,163.53l-2.6.06-2.46-.82c.6-.75,1.75-1.55,1.68-2.23-.38-3.74-1-7.45-1.65-11.16-.13-.79-.57-1.54-.66-2.33-1.41-12.15-2.75-24.31-4.17-36.45-.43-3.7-1.23-7.36-1.56-11.07-.13-1.56.5-3.19.79-4.79.22-.39.44-.79.67-1.18.86,5.54,1.75,11.1,2.55,16.66,1.14,7.79,2.26,15.6,3.29,23.41,1,7.28,1.73,14.59,2.68,21.87C939.6,158.2,940.2,160.86,940.69,163.53Z"/><path class="cls-9" d="M914.38,108.58h0v-.08L908,115.2v4l-2.53-3.2-1.57.08c0,1.65.08,3.31.13,5l-.12,2.35a.52.52,0,0,0,.07.71c.81.79,1.62,1.58,2.44,2.36q1.61.48,3.21.93l1.07-.71,7.12,1.51Q916.09,118.41,914.38,108.58Zm-4.8,14L907.81,121l-1.5-.34c.12-.17.27-.49.35-.47.74.2,1.46.47,2.18.72.51.29,1,.59,1.49.89-.25.22-.49.47-.75.72Zm2.59.77c-.27,0-.51-.43-.76-.66l.88-.75c.32.4.55.68.79,1-.31.09-.63.41-.94.37Z"/><path class="cls-10" d="M942.31,164.3l-1,.15H941l-.29-.15v-.8c-.49-2.67-1.09-5.33-1.44-8-1-7.28-1.72-14.59-2.68-21.87-1-7.81-2.15-15.62-3.29-23.41-.8-5.56-1.69-11.12-2.55-16.66l3.37-3.2c-.26,1.73-.52,3.44-.78,5.15a79.84,79.84,0,0,0,.13,9.41c1.18,9.3,2.66,18.57,4,27.87.7,5,1.2,9.93,2,14.87C940.26,153.2,941.34,158.76,942.31,164.3Z"/><path class="cls-11" d="M995.73,124.11l-.07-.06h0Z"/><path class="cls-11" d="M998.14,134.93l-5.86,10.56c.07-5.87-.52-11.63-2.79-17.1-1.39-2.3-.31-3.83,1.58-5.11l1.07-1.08c0-.26.08-.39.33-.4l3.18,2.3a9.82,9.82,0,0,1-.13,1l-.82.84v.8l.81-.8v-.84H997c.18,1.32.36,2.64.53,4l-1.75,1.06a.34.34,0,0,1-.13.39l.72,1.16h0l.81,2.45Z"/><path class="cls-12" d="M977.57,158.73l-2.51,1.47q-1.24-8.65-2.5-17.31c0-.78,0-1.58.06-2.38H971l-2.29-1.69q-.18-1.27-.33-2.55h0l1.06-1.46h0c.25-.28.5-.58.76-.86l.84-.77,3.25-4.14c.13,1.34.23,2.69.38,4Q976.15,145.93,977.57,158.73Z"/><path class="cls-13" d="M983.31,154.62l-3.26,2.43c-.53-4.42-1.12-8.82-1.56-13.25-.65-6.53-1.2-13.08-1.79-19.64l1.57-1.78a29.3,29.3,0,0,0,.14,3.11c.77,5.08,1.53,10.15,2.4,15.21.75,4.35,1.62,8.67,2.44,13Z"/><path class="cls-14" d="M949.77,96.2c.25,1.41.51,2.81.75,4.22l-2.32-.14c-.14-2.28-.13-4.57-.45-6.82-.9-6.4-2-12.79-2.94-19.18l.07-.07c.23-.28.47-.58.68-.86v-.79L944,72.48l-.77-.74c.43-2.91-1.79-2.23-3.34-2.46l4-.91,2.59.09c.79,5.26,1.42,10.54,2.42,15.75a67.58,67.58,0,0,0,2.54,8h0l-1.61,1.61v2.41Z"/><path class="cls-14" d="M950.52,100.44Z"/><path class="cls-15" d="M980.05,157.05h0l-.86.82-1.6.9q-1.47-12.81-3-25.61c-.15-1.33-.25-2.68-.38-4h0c-.24-1-.47-2.08-.7-3.12l3.21-1.81c.59,6.56,1.14,13.11,1.79,19.64C978.93,148.2,979.52,152.63,980.05,157.05Z"/><path class="cls-16" d="M986.62,132.1c.38,6.11,1,12.21,1.54,18.31-.54.55-1.09,1.09-1.64,1.63a55.92,55.92,0,0,0-.27-6.07c-1.2-8.08-2.53-16.15-3.82-24.23l1-.09a12.85,12.85,0,0,1,2,2.17c1.11,1.94,2.06,4,3.08,6C987.83,130.57,986.58,131.37,986.62,132.1Z"/><path class="cls-17" d="M972,81.81c-.1.46-.19.93-.29,1.4l.18,1.61-3.25-.91V80c.21-.37.43-.75.65-1.11a.69.69,0,0,1,.19-.61c.09-.09.27-.23.25-.26a5.3,5.3,0,0,0-.42-.52h-.84l-1.62.76a2.11,2.11,0,0,1-.75.08c-.28-1.36-.56-2.72-.83-4.1v-1.7a3.53,3.53,0,0,1,0-.65c-.26-.31-.51-.63-.76-.94l-2.47-2.43c3,.84,6,1.66,9,2.49.25.53.52,1.07.78,1.61h0v8.17c0,.35.11.69.16,1l.07-.1A.61.61,0,0,0,972,81.81Z"/><path class="cls-18" d="M917.83,151.28c-7.14-6.41-11.27-14.48-13.16-23.8h.78l.82.79h0l1,.74h.5l.92.07h0c0,.84.06,1.69.09,2.52h0v4.06C913,140.2,917.82,144.34,917.83,151.28Z"/><path class="cls-19" d="M986.52,152l-3.21,2.58-.06-.92c.52-1.82,1.7-3.72,1.44-5.42-1.06-7.26-2.6-14.44-3.83-21.67a31.15,31.15,0,0,1,0-5.29l1.59.42c1.29,8.08,2.62,16.15,3.82,24.23A55.9,55.9,0,0,1,986.52,152Z"/><path class="cls-20" d="M921,95.6c-2.82,1.38-2.29-.83-2.46-2.29l-.73-.37c-1,1.13-2,2.21-2.91,3.41a33.89,33.89,0,0,0-2,3.29l-1.77-.81c-1-1.13-2.07-2.24-3.11-3.37.12-.25.23-.51.35-.77l1.19-.88c2.16-1.06,4.33-2.1,6.5-3.14v-.89l.8-.67a9.44,9.44,0,0,1,1-1l.65-.81h.85v2.4h0c-.52.29-1.06.57-1.58.85h0c0,.26.06.51.08.76l1.43.26,2.48,1.24C921.52,93.78,919.14,94.08,921,95.6Z"/><path class="cls-21" d="M971,140.57v.76h0c-.5.36-1,.73-1.48,1.1,1,1.45-3.16,3.71.75,4.7-2.15.9-2.8,2.44-2.38,4.74.64,3.59,1.06,7.22,1.57,10.85-.83.27-1.65.54-2.47.83.22-2,.83-4,.57-5.85-.51-3.88-1.48-7.71-2.26-11.55l2.2-3.23c.34-.87.68-1.74,1-2.62l-.11-.18.11-.17.24-1.11Z"/><path class="cls-22" d="M990.65,147.2l-2.51,3.21c-.54-6.1-1.16-12.2-1.54-18.31,0-.73,1.21-1.53,1.86-2.31l1.2-.17a43,43,0,0,0-.52,6.71C989.44,140,990.14,143.57,990.65,147.2Z"/><path class="cls-23" d="M975.06,160.2l-3.26,1.61-.85-15.6,1-3.05c.21-.1.43-.19.65-.27Q973.82,151.6,975.06,160.2Z"/><path class="cls-24" d="M924,88.2c-.18.81-.35,1.62-.53,2.43l-1.73,2.25-2.48-1.24V90.41a4.62,4.62,0,0,0,.08-.65h0c.25-.79.52-1.6.78-2.4-.18-.42-.35-.85-.54-1.28-.35.41-.71.8-1.07,1.2l-.83.06a1.93,1.93,0,0,0-.67.08l-.11-.07c.3-1.87.59-3.74.88-5.59l1.5-1.13c1.39,1.16,2.76,2.32,4.14,3.49Z"/><path class="cls-25" d="M960.32,152.2c-.15,2.1-.3,4.22-.44,6.32s-.25,4.49-.37,6.74l-5.74.65v-.71c3.18.34,4.3-.14,2.88-3.88-1-2.52-2-6.08,1.2-8.49Z"/><path class="cls-26" d="M931.61,161.11l-1.63-.82a28.78,28.78,0,0,0,.68-5.77c-.24-3.06-.95-6.07-1.46-9.1l1.68-6.44c.78,5.26,1.78,10.51,2.22,15.8C933.27,156.83,934.9,159.69,931.61,161.11Z"/><path class="cls-27" d="M934.75,156.28c.08,1.84-.9,3.74-1.4,5.61l-1.74-.78c3.29-1.42,1.66-4.28,1.49-6.33-.44-5.29-1.44-10.54-2.22-15.8v-2.36l-.91-.88v.08l1-2.61,2.43,14A69.37,69.37,0,0,1,934.75,156.28Z"/><path class="cls-28" d="M930,160.29l-4.17-2.43c3.92-2.46,1.08-5.62.86-8.51q1.26-2,2.53-3.93c.51,3,1.22,6,1.46,9.1A28.78,28.78,0,0,1,930,160.29Z"/><path class="cls-29" d="M964.44,164.32l-.82.1c-.85-4.22-1.72-8.44-2.57-12.66l2.51-3.09c.47,2.18,1.26,4.35,1.29,6.53C964.91,158.2,966.83,161.4,964.44,164.32Z"/><path class="cls-30" d="M972.47,81.7Z"/><path class="cls-30" d="M978.35,74.93c-.85,1.91-1.7,3.82-2.53,5.73l-1,.9-2.32.14-.68-.94V73.38l1-.07a4.52,4.52,0,0,0,.74-.06l1.51.11h.07l1.47.1Z"/><path class="cls-31" d="M971.8,161.85l-2.44.91c-.51-3.63-.93-7.26-1.57-10.85-.42-2.3.23-3.84,2.38-4.74l.78-.92Z"/><path class="cls-32" d="M966.89,163.59l-2.45.73c2.39-2.92.47-6.09.41-9.12,0-2.18-.82-4.35-1.29-6.53.55-.82,1.09-1.66,1.64-2.48.78,3.84,1.75,7.67,2.26,11.55C967.72,159.63,967.14,161.63,966.89,163.59Z"/><path class="cls-33" d="M955.42,74.14l-1.56.25a4.07,4.07,0,0,0-.7-.1c-1.34-1.25-3.52-2.36-3.8-3.82-.41-2.23-1.5-2-3-2l-2.59-.09,10-.74Q954.61,70.9,955.42,74.14Z"/><path class="cls-34" d="M917.89,88.09c-.32.33-.64.67-1,1l-.8.67c-.11.08-.31.18-.31.23a6.5,6.5,0,0,0,.27.66c-2.17,1-4.34,2.08-6.5,3.14a8.57,8.57,0,0,0-.09-.9.67.67,0,0,1,.27-.67l.6-.9,5.81-7.65c.29,1.21.57,2.43.86,3.65l.11.07c.17.25.34.49.5.74Z"/><path class="cls-35" d="M992.25,145.49c-.53.56-1.07,1.13-1.6,1.71-.52-3.63-1.21-7.23-1.49-10.87a43,43,0,0,1,.52-6.71c-.08-.41-.15-.83-.22-1.23C991.73,133.86,992.32,139.62,992.25,145.49Z"/><path class="cls-36" d="M963.62,164.42l-4.11.81c.12-2.25.23-4.5.37-6.74s.29-4.22.44-6.32l.73-.41C961.9,156,962.77,160.2,963.62,164.42Z"/><path class="cls-37" d="M925.81,157.86l-2.37-1.66c1.08-2.27,2.15-4.54,3.23-6.82C926.89,152.2,929.73,155.4,925.81,157.86Z"/><path class="cls-38" d="M939,69.93c-.15.38-.18,1-.44,1.11-3.22,1.63-6.47,3.21-9.72,4.8h-1.19a11.8,11.8,0,0,1-1-1l2.64-1.53Z"/><path class="cls-39" d="M956.24,68.46,956,74.39a.53.53,0,0,1-.55-.25c-.54-2.16-1.09-4.33-1.64-6.49h1.64Z"/><path class="cls-40" d="M964.45,70.9l-2.43.89-5.78-3.33v-.8l5.74.81Z"/><path class="cls-41" d="M904,121.09c-.1.49-.2,1-.29,1.48V110.41c0,1.9.09,3.8.14,5.71C903.91,117.77,903.94,119.43,904,121.09Z"/><path class="cls-42" d="M917.83,81.73c-.29,1.86-.59,3.72-.88,5.59-.29-1.22-.57-2.44-.86-3.65Z"/><path class="cls-43" d="M953.78,165.2v.71l-8.21-.57v-.24h.8l2.46.08h2.46Z"/><path class="cls-44" d="M923.47,84.09c-1.38-1.17-2.75-2.33-4.14-3.49.27-.26.53-.51.79-.78,1.11.29,2.21.56,3.32.83Z"/><path class="cls-45" d="M998.88,128.2h0V129H998l-.51-.13c-.17-1.32-.35-2.64-.53-4a3,3,0,0,0,.09-.72l2.6,2.29a3,3,0,0,0-.78.18Z"/><path class="cls-46" d="M906.38,126.51l-.09,1a3.66,3.66,0,0,1-.81,0h0l-.86-.87c-.22-.82-.44-1.64-.65-2.47C904.75,124.94,905.56,125.73,906.38,126.51Z"/><path class="cls-4" d="M927.63,75.89c-.28.25-.56.52-.85.77l-.87.75h0l-.78.82h0l-2.35-.64a.49.49,0,0,1,.52-.26l.94-.8.93-.72h0l.82-.62a.58.58,0,0,1,.62-.31c.33.32.68.63,1,1Z"/><path class="cls-47" d="M999.76,130.72c-.32,1.11-.64,2.23-1,3.34l-.8-.21c-.27-.49-.55-1-.83-1.46a.6.6,0,0,1-.21-.51c.09-.49.19-1,.28-1.46a1.26,1.26,0,0,0,.64.08l1,.22.59.06Z"/><path class="cls-48" d="M923.52,80a2.58,2.58,0,0,1-.08.68c-1.11-.27-2.21-.54-3.32-.83L921,79a.88.88,0,0,0,.28.38l.51-.13C922.34,79.48,922.93,79.73,923.52,80Z"/><path class="cls-49" d="M925.14,78.27c-.53.56-1,1.13-1.58,1.7-.59-.24-1.18-.49-1.77-.72a.59.59,0,0,0-.51.13A.88.88,0,0,1,921,79l1.79-1.37Z"/><path class="cls-50" d="M945.6,165.06h0v.24l-4.26-.86,1-.15,1.65.05Z"/><path class="cls-51" d="M974.26,72.56c-.25.22-.49.45-.75.69a4.52,4.52,0,0,1-.74.06l-1-.72h0l.89-1.11Z"/><path class="cls-52" d="M972.65,71.46l-.89,1.11c-.26-.54-.53-1.08-.78-1.61Z"/><path class="cls-53" d="M940.69,163.53v.8l-2.6-.74Z"/><path class="cls-54" d="M904,121.09l-.12,2.35c-.06-.29-.12-.58-.17-.87C903.79,122.08,903.89,121.58,904,121.09Z"/><path class="cls-55" d="M909.6,93.81l-1.19.88,1.1-1.78C909.54,93.2,909.56,93.5,909.6,93.81Z"/><path class="cls-56" d="M975.14,73.36Z"/><path class="cls-56" d="M976.63,73.46l-1.47-.1a3.13,3.13,0,0,0,.76-.19C976.14,73.26,976.39,73.35,976.63,73.46Z"/><path class="cls-57" d="M998.81,134.06c-.23.3-.47.58-.7.87l-1-.9.2-.18H998Z"/><path class="cls-58" d="M974.92,72.67a2,2,0,0,0,.1.69l-1.51-.11c.26-.24.5-.47.75-.69A5,5,0,0,0,974.92,72.67Z"/><path class="cls-58" d="M975.14,73.36h0Z"/><path class="cls-59" d="M999.73,130l-.36-.07a1.14,1.14,0,0,1-.52,0h-.78a2.28,2.28,0,0,1-.06-.82h.84a1.6,1.6,0,0,0,.67.18C999.58,129.49,999.65,129.73,999.73,130Z"/><path class="cls-60" d="M999.52,129.27a1.6,1.6,0,0,1-.67-.18v-.84A11.88,11.88,0,0,1,999.52,129.27Z"/><path class="cls-60" d="M1000,130.5l-.25.22-.33.06-.06-.89.36.07A3.45,3.45,0,0,1,1000,130.5Z"/><path class="cls-61" d="M905.45,127.49h-.78l-.08-.86Z"/><path class="cls-30" d="M975.92,73.2c-.26.07-.51.14-.76.19H975a2,2,0,0,1-.1-.69Z"/><path class="cls-62" d="M956.24,67.66v.8c-.27-.27-.54-.54-.82-.8Z"/><path class="cls-53" d="M944,164.35l-1.64,0c-1-5.54-2-11.07-2.92-16.64-.78-4.94-1.28-9.92-2-14.87-1.32-9.29-2.79-18.57-4-27.88a81.91,81.91,0,0,1-.13-9.4c.55,1,1.44,2,1.58,3,.93,7.17,1.67,14.37,2.58,21.55,0,.34,1,.58,1.52.86q.85,4.1,1.69,8.19c-1.66,5.13.12,10.22.45,15.28C941.58,151.07,943,157.7,944,164.35Z"/><path class="cls-43" d="M957.86,152.8c-3.15,2.42-2.16,6-1.2,8.49,1.43,3.73.3,4.22-2.87,3.88h0q-2.44-16.8-4.9-33.59h1.63l1.81.76c.46,1.45,1,2.89,1.35,4.35.33,1.27,1.06,2.75.7,3.83-1.48,4.5,1.32,8,2.38,11.91C956.81,152.62,957.47,152.67,957.86,152.8Z"/><path class="cls-62" d="M956.24,68.46,962,71.79v.86l-1.4.88L962,74l.86.16c-.27,1.56-1.23,3.46-.66,4.61,1.26,2.57-.32,6.7,3.93,7.69v.81h0l-1.66.67-.74.17-4.13-2.38c-4.69-2.49-2.81-7-3.4-10.81h0l.48-.39-.6-.19h0Z"/><path class="cls-63" d="M943.23,108c.5,1.59,1,3.17,1.51,4.76a1.38,1.38,0,0,0,0,.64l-1.35,1-1,1.68v0l-.95.76q-1.23-6-2.45-11.91c-.37-1.79-.89-3.57-1.12-5.38-.3-2.3-2.11-5,1.31-6.56h1.39c.57,2.21,1.13,4.42,1.7,6.63.31.81.63,1.62,1,2.43l1.43-.2,1.65,3.52h0Z"/><path class="cls-64" d="M982.43,121.74l-1.6-.42a31.15,31.15,0,0,0,0,5.29c1.22,7.23,2.76,14.41,3.82,21.67.25,1.7-.92,3.61-1.44,5.42-.82-4.33-1.69-8.66-2.44-13-.86-5.06-1.64-10.14-2.4-15.21a26.87,26.87,0,0,1-.14-3.11l-.66-2.41a.63.63,0,0,0-.08-.58c2.2.16,4.93-1.06,5.92,2.26Z"/><path class="cls-65" d="M944,164.35c-1-6.65-2.38-13.28-2.82-20-.33-5.06-2.11-10.15-.45-15.28h0l1.58,1.66,1,.73c-.3,1.25-1,2.54-.84,3.74.44,3.85,1.28,7.66,1.79,11.52.81,6.09,1.47,12.21,2.2,18.31h-.8Z"/><path class="cls-50" d="M946.4,165.07c-.73-6.1-1.39-12.22-2.2-18.31-.51-3.86-1.35-7.67-1.79-11.52-.14-1.2.54-2.49.84-3.74h3.89l.13.14-.89.74c-.55,1.06-1.63,2.15-1.54,3.15.3,3.61,1,7.17,1.53,10.76.85,6.28,1.64,12.56,2.45,18.85Z"/><path class="cls-66" d="M946.41,68.48c1.45,0,2.53-.25,3,2,.27,1.46,2.45,2.57,3.78,3.83l-1.51,3c-2.07,2.83-1.51,8,1.26,11.53l.24.28-1,2.27-.75.89h0a65.83,65.83,0,0,1-2.55-8C947.83,79,947.2,73.73,946.41,68.48Z"/><path class="cls-67" d="M939,120.92c-.53-.28-1.48-.52-1.52-.86-.91-7.18-1.65-14.38-2.58-21.55a9.9,9.9,0,0,0-1.58-3l.78-5.14.84-.66c.55,3.41,1.07,6.84,1.66,10.25,1.07,6.16,2.18,12.31,3.28,18.46h.67Z"/><path class="cls-52" d="M966.07,86.5c-4.26-1-2.68-5.12-3.94-7.69-.57-1.15.39-3,.66-4.61l1.43-.1,1,.1c.27,1.36.55,2.73.82,4.1l.06,1.76V83.8l.72,1.06,1.67-.84.13-.1,3.24.9.65.16a.9.9,0,0,0,.13.71l-3.41,1.59-2.3.19-.08-.16v-.8h-.78Z"/><path class="cls-68" d="M956.14,74.92c.59,3.78-1.29,8.33,3.4,10.82l-3.4-.09-1.55.92h0l-.89.79h-.81V80l.81-.86.88-3.12Z"/><path class="cls-69" d="M947.14,111.83l2.51-4,5.76,2.45-.65,2.3-1,1.84c-1.57-3.25-4.18-1.8-6.55-1.44A8.56,8.56,0,0,0,947.14,111.83Zm4.81-1.68-.19-.28c-.07.08-.23.21-.21.23a1.43,1.43,0,0,0,.3.35Z"/><path class="cls-70" d="M953.77,114.39c.35-.61.69-1.23,1-1.84l1.41-2.31.11.07h1.31c.12.41.23.82.35,1.23l1.52,1.13h0l1.6.77-.74,1.61C958.14,115.14,955.74,116.72,953.77,114.39Z"/><path class="cls-71" d="M960.36,115.1c.25-.53.49-1.07.74-1.61a4,4,0,0,1,.19-.76h.38l.38-.06,3.69.69c-.18.61-.33,1.74-.57,1.75A45.4,45.4,0,0,1,960.36,115.1Z"/><path class="cls-72" d="M966.21,106.88l1.56,1.68a15.32,15.32,0,0,1-2.33.3c-1.23,0-2.46-.18-3.69-.27.27-.85.5-1.7.84-2.52,0-.08.66.08,1,.13Z"/><path class="cls-73" d="M949.58,101.83l-1.73,1.78-3.08-4v.07l-.21-.88.12-.81a1.32,1.32,0,0,0,.17-.75h0l1.57-.18.69,2.58-.29,2,1.24-.43Z"/><path class="cls-74" d="M955.45,110.25l-5.76-2.45,4.25-1.52c.17.51.33,1,.5,1.54l1.88,2.49-.11-.07Z"/><path class="cls-75" d="M955.44,99.71l-4-1.59c-.06-.32-.11-.64-.16-1l2.45,1.75,1,.61a2,2,0,0,0,.67-.18Z"/><path class="cls-76" d="M969.27,87.28l3.41-1.59h2.41a6,6,0,0,0,.11.82l-.23.06Z"/><path class="cls-77" d="M944.77,99.58l3.08,4-1.49,1.75-1.65-3.52Z"/><path class="cls-78" d="M973.49,126l.69,3.12L970.83,127Z"/><path class="cls-79" d="M972.76,107.71c.2.16.5.29.59.5.43,1.11.82,2.24,1.17,3.38a4.94,4.94,0,0,1-1,.35c-.57-1.1-1.08-2.23-1.6-3.36l.5-.69Z"/><path class="cls-80" d="M955.68,96.29l-.17-1.64.72-1.65,1.16-3.35v5.67Z"/><path class="cls-81" d="M955.68,96.29l1.71-1a.42.42,0,0,1,.48.28q0,.39,0,.78h0l-.73,1.79-1.69,1.57v-.37l-.09-.92a.29.29,0,0,1,0-.42l0,0,.09-.81Z"/><path class="cls-82" d="M975.14,85.67h-.84c0-.26-.07-.52-.09-.79l-.73-.86a1.86,1.86,0,0,0-.25-.68,1.2,1.2,0,0,1,.45-.29l1.15-1.49,1-.9C975.58,82.33,975.34,84,975.14,85.67Z"/><path class="cls-83" d="M977.53,119.39a.63.63,0,0,1,.08.58l-4.09-1.56.4-.62.34-.16Z"/><path class="cls-84" d="M963.63,88.12l.74-.17.8,1-3.35,1.67,1-1Z"/><path class="cls-77" d="M943.23,108l3.16-2.64C948.2,109.71,944.05,106.87,943.23,108Z"/><path class="cls-57" d="M995.73,124.11l-3.25-2.37C995.43,120,995.14,122.62,995.73,124.11Z"/><path class="cls-85" d="M968.55,122.53l1.79,2.78-1,.66-1.7-2.57.23-.29.29-.06.06-.3Z"/><path class="cls-86" d="M956.32,110.31l-1.88-2.49,1.17-.15,2,2.69Z"/><path class="cls-87" d="M967.14,120l1.43,2.52-.29.22a.37.37,0,0,0-.35.36l-.23.29-1.48-3.31Z"/><path class="cls-88" d="M975.8,85.8l.82,1.57c-.1.07-.28.17-.27.2a3.74,3.74,0,0,0,.28.52l-1.69-1.58h.23Z"/><path class="cls-89" d="M951.33,97.2a6.46,6.46,0,0,0,.16,1l-1,2.33c-.26-1.41-.51-2.82-.76-4.23Z"/><path class="cls-90" d="M971.49,107.9l-.43-.94c.09-.06.28-.15.27-.2a3.73,3.73,0,0,0-.2-.56l.64-.92,1,1v1.48l-.32.18Z"/><path class="cls-91" d="M966.21,106.88l-2.61-.68Z"/><path class="cls-92" d="M947.14,111.83V113l-2.51.48a1.38,1.38,0,0,1,0-.64Z"/><path class="cls-93" d="M986.84,103.93c.1-.23.15-.58.31-.65s.44.16.67.26c-.1.23-.15.59-.31.65S987.07,104,986.84,103.93Z"/><path class="cls-89" d="M949.58,101.83l-1.51-.61a5.48,5.48,0,0,0,0-.81l.12-.11,2.34.14Z"/><path class="cls-94" d="M968.67,138.88l-.24,1.1-.09-3.65Z"/><path class="cls-95" d="M983.73,105.12c-.1.23-.14.58-.31.65a.67.67,0,0,1-.63-.28c-.06-.16.16-.44.26-.67Z"/><path class="cls-96" d="M962,93.9l1.24-.31L962,94.72Z"/><path class="cls-97" d="M955.61,107.67l-1.17.15c-.17-.52-.33-1-.5-1.54Z"/><path class="cls-98" d="M976,106.2l1.15-.46-.45,1.17Z"/><path class="cls-53" d="M942.27,130.77l-1.58-1.66Z"/><path class="cls-94" d="M968.43,140.35l-1,2.61Z"/><path class="cls-99" d="M962,93.9l.06.82-1.18-.12Z"/><path class="cls-89" d="M949.81,96.3V93.89C949.78,94.69,949.8,95.49,949.81,96.3Z"/><path class="cls-100" d="M965.14,88.93c-.27-.32-.53-.65-.8-1l1.66-.67v.86Z"/><path class="cls-101" d="M962.8,89.65l-1,1-.27-1.24Z"/><path class="cls-102" d="M963.41,137.38c-.21.06-.48.22-.6.15s-.23-.38-.34-.59c.21-.06.47-.23.62-.16S963.31,137.2,963.41,137.38Z"/><path class="cls-103" d="M959.53,111.91l.14-.86.67-.8.84,1.64Z"/><path class="cls-104" d="M959.53,111.91h1.65l.87.79-.38.06H959.5V112Z"/><path class="cls-105" d="M996.31,99.2l-.41.61c-.11-.22-.31-.44-.3-.65s.23-.41.36-.61Z"/><path class="cls-106" d="M972.8,106.2l-1-1,1.29-.31Z"/><path class="cls-107" d="M965.14,140a3,3,0,0,1,.37.49c0,.05-.16.29-.23.28a2.21,2.21,0,0,1-.61-.21Z"/><path class="cls-108" d="M965.83,119.31l-.19-1.23,1.2,1.22Z"/><path class="cls-109" d="M941.5,116.81l1-.76-1,1.54h-.05A4.17,4.17,0,0,0,941.5,116.81Z"/><path class="cls-110" d="M973.25,117.68l-.19-.77,1.2.72-.33.16Z"/><path class="cls-109" d="M940.55,118.43h-.67l1.53-.89h.05Z"/><path class="cls-109" d="M942.4,116.1l1-1.68Z"/><path class="cls-103" d="M959.53,111.92v.8L958,111.59Z"/><path class="cls-94" d="M969.37,134.9c-.36.49-.72,1-1.07,1.46C968.65,135.87,969,135.39,969.37,134.9Z"/><path class="cls-111" d="M956.23,93l-.72,1.65Z"/><path class="cls-104" d="M960.34,110.25l-.67.8.07-1.13Z"/><path class="cls-112" d="M966.06,88.14v-.86h.83l.08.16Z"/><path class="cls-57" d="M997.07,124.29a2,2,0,0,1-.09.73h-1.45a8.84,8.84,0,0,1,.13-1Z"/><path class="cls-66" d="M953,87.29h.81c-.22.6-.43,1.21-.65,1.81l-.24-.28C952.93,88.33,953,87.81,953,87.29Z"/><path class="cls-113" d="M952.32,132.32l-1.81-.76Z"/><path class="cls-113" d="M950.52,131.57h-1.64v-.7Z"/><path class="cls-114" d="M948.88,130.87v.7h0l-1.57.07-.13-.14Z"/><path class="cls-115" d="M957.14,98.14l.81-1.79Z"/><path class="cls-116" d="M980.31,78.74c-.11.06-.23.17-.33.16s-.2-.14-.29-.22Z"/><path class="cls-117" d="M954.63,86.57l1.55-.92Z"/><path class="cls-66" d="M953.79,87.32l.89-.79Z"/><path class="cls-118" d="M975.8,85.8l-.63.66a5.58,5.58,0,0,0-.11-.82A2.14,2.14,0,0,1,975.8,85.8Z"/><path class="cls-57" d="M992.14,122.2,991,123.33Z"/><path class="cls-119" d="M976.63,88.09a3.74,3.74,0,0,1-.28-.52l.27-.2A1.75,1.75,0,0,1,976.63,88.09Z"/><path class="cls-94" d="M971,133.2l-.85.78Z"/><path class="cls-120" d="M965,134.46l-.25.23c-.07-.09-.2-.18-.19-.26s.14-.15.22-.23Z"/><path class="cls-94" d="M970.14,134l-.76.86Z"/><path class="cls-121" d="M965.83,119.31h1a2.92,2.92,0,0,1,.28.71l-.92.08Z"/><path class="cls-122" d="M973.25,117.68l.68.11-.41.62A1,1,0,0,1,973.25,117.68Z"/><path class="cls-14" d="M951.35,92.29l.75-.89Z"/><path class="cls-123" d="M971.49,107.9h1l-.5.69Z"/><path class="cls-115" d="M957.92,96.38q0-.39,0-.78Z"/><path class="cls-124" d="M976,106.2l.7.71Z"/><path class="cls-125" d="M971.14,106.2a3.73,3.73,0,0,1,.2.56l-.27.2Z"/><path class="cls-115" d="M955.47,97.2l-.09.81Z"/><path class="cls-126" d="M954.74,99.52l-1-.61.83-.1A1.9,1.9,0,0,0,954.74,99.52Z"/><path class="cls-127" d="M954.74,99.52a1.94,1.94,0,0,1-.13-.71,2.34,2.34,0,0,1,.71-.39l.09.92A2,2,0,0,1,954.74,99.52Z"/><path class="cls-128" d="M917.78,107.06v-4.13c1,.52,1.93,1.08,2.93,1.52a8.66,8.66,0,0,0,1.74.42l.12-1.94h1l.06,1.65c-.57,2.28-1.86,4.66-1.57,6.83,1,7.66,2.58,15.25,3.94,22.87L921.1,130q-1.64-11.09-3.26-22.17A3.83,3.83,0,0,1,917.78,107.06Z"/><path class="cls-129" d="M923.56,104.53l-.06-1.65V90.62L924,88.2c.37,1.62.86,3.22,1.08,4.86.88,6.51,1.57,13.06,2.54,19.56.92,6.07,2.12,12.1,3.16,18.15a15.4,15.4,0,0,1,0,2.45c-.33.87-.66,1.74-1,2.61a.69.69,0,0,1-.64-.32,18,18,0,0,1-1.57-4.07c-.69-5.4-1-10.85-1.76-16.23C925.39,111.6,924.35,108.08,923.56,104.53Z"/><path class="cls-130" d="M923.56,104.53c.79,3.55,1.83,7.07,2.34,10.67.76,5.38,1.07,10.83,1.76,16.23a18,18,0,0,0,1.57,4.07l-3.3-1.27C924.57,126.61,923,119,922,111.36,921.7,109.2,923,106.81,923.56,104.53Z"/><path class="cls-131" d="M917.77,107.81Q919.41,118.9,921,130l-3.25-1.73-3.42-19.75v.07Z"/><path class="cls-132" d="M906.29,127.52l.09-1,3.21.93.82,0-.87,1.7a2.62,2.62,0,0,0-.79,0h0l-.92-.08h-.49l-1-.74h0A4.91,4.91,0,0,1,906.29,127.52Z"/><path class="cls-61" d="M908.82,135.66l.06-4Z"/><path class="cls-61" d="M908.75,129.14a2.62,2.62,0,0,1,.79,0c-.24.82-.47,1.65-.7,2.47Z"/><path class="cls-61" d="M910.41,127.49l-.82,0,1.07-.7C910.58,127,910.5,127.2,910.41,127.49Z"/><path class="cls-129" d="M929.92,135.74l.91.88Z"/><path class="cls-133" d="M941.41,117.54l-1.53.89c-1.1-6.16-2.21-12.31-3.28-18.47-.59-3.41-1.11-6.84-1.66-10.25l.82-.77L938.2,88v0l.91.07v1.69L939.3,93c-3.42,1.57-1.61,4.26-1.31,6.56.23,1.81.75,3.59,1.12,5.38q1.23,6,2.45,11.91A4.5,4.5,0,0,1,941.41,117.54Z"/><path class="cls-89" d="M947.14,99.65l-.69-2.58-1.65-.76q-.82-7.36-1.64-14.74V76.66l.93-2.27a6,6,0,0,1,.74-.08c1,6.38,2,12.77,2.94,19.16.32,2.26.31,4.56.45,6.83l-.12.11Z"/><path class="cls-134" d="M943.14,81.57q.83,7.37,1.64,14.74l.08.94h0c-.06.25-.12.5-.17.75l-.12.81-1.34,1h.08l-1-.17c-.57-2.21-1.13-4.42-1.7-6.63h0l1.62-1c.53-3.08-1.92-1.77-3.2-2.17V87.4h0l1.5-3.46a.71.71,0,0,1,.32-.71l.57-.77h0Z"/><path class="cls-135" d="M943.14,81.57l-1.61.83c.54-1.91,1.08-3.83,1.61-5.74Z"/><path class="cls-136" d="M929.32,82.57c-.57-1.18-1.13-2.37-1.7-3.55C930.31,79.2,930.46,80.57,929.32,82.57Z"/><path class="cls-135" d="M940.63,83.9l-1.49,3.46Z"/><path class="cls-137" d="M943.14,71.76l.77.74v.84L942,72.4Z"/><path class="cls-138" d="M944,73.34V72.5l1.59.08v.79h0l-.71.88-.07.08a6,6,0,0,0-.74.08C944,74,944,73.69,944,73.34Z"/><path class="cls-136" d="M928.42,85.7l.72-2.5Z"/><path class="cls-135" d="M938.2,88l-2.44.92Z"/><path class="cls-139" d="M927.61,75.86h1.19c-.34.59-.69,1.18-1,1.76l-.18-.86v-.9Z"/><path class="cls-135" d="M939.14,87.39v.75l-.91-.07Z"/><path class="cls-135" d="M941.52,82.42l-.57.77Z"/><path class="cls-49" d="M925.14,78.26l.78-.82Z"/><path class="cls-49" d="M925.92,77.41l.86-.75Z"/><path class="cls-49" d="M927.63,75.89v.85a3.1,3.1,0,0,1-.8-.07Z"/><path class="cls-130" d="M923.5,90.62v12.26h-1l-.7-.87L921,95.55c-1.87-1.52.5-1.82.78-2.73Z"/><path class="cls-140" d="M921.85,102.06l.7.87-.12,1.94a8.66,8.66,0,0,1-1.74-.42c-1-.44-2-1-2.93-1.52Z"/><path class="cls-141" d="M908.8,106.94l-2.26.87.6-2.48.75-1.54.88,1.53Z"/><path class="cls-142" d="M908,115.2v4l-2.53-3.2Z"/><path class="cls-143" d="M911.14,98.83l1.71.8-1,1.84Z"/><path class="cls-9" d="M917.77,107.81l-3.39.76,3.4-1.51C917.78,107.31,917.78,107.56,917.77,107.81Z"/><path class="cls-144" d="M907.89,103.79l-.75,1.54Z"/><path class="cls-145" d="M908.8,106.94v0Z"/><path class="cls-146" d="M911.35,107.2c0,.1.11.28.08.3a1.12,1.12,0,0,1-.35.12c0-.11-.11-.28-.08-.3A1.12,1.12,0,0,1,911.35,107.2Z"/><path class="cls-130" d="M917.82,92.94l.72.37Z"/><path class="cls-147" d="M912.29,121.9l.79,1c-.3.16-.63.47-.91.44s-.51-.43-.76-.66Z"/><path class="cls-143" d="M908.85,120.88l1.48.9-.75.76L907.82,121Z"/><path class="cls-148" d="M908.85,120.88l-1,.1-1.51-.34c.12-.17.28-.49.35-.47C907.39,120.38,908.14,120.64,908.85,120.88Z"/><path class="cls-149" d="M909.58,122.54l.75-.76Z"/><path class="cls-57" d="M998,129.11a2.21,2.21,0,0,0,0,.81.58.58,0,0,0-.18.59,1.39,1.39,0,0,1-.64-.09l-1.5-.39,1.75-1.06Z"/><path class="cls-150" d="M995.75,130l1.5.39-.27,1.46-.64-.29h0l-.71-1.16A.33.33,0,0,0,995.75,130Z"/><path class="cls-57" d="M996.34,131.59l.64.29a.55.55,0,0,0,.2.51c.06.49.11,1,.17,1.46l-.2.18Z"/><path class="cls-57" d="M994.72,126.65l-.19.34Z"/><path class="cls-57" d="M995.63,130.42l.71,1.16Z"/><path class="cls-151" d="M995.52,125.85l-.8.8h0v-.81h.8Z"/><path class="cls-57" d="M995.52,125.85h-.8l.81-.83h0Z"/><path class="cls-152" d="M972.57,142.94a4.77,4.77,0,0,0-.66.26l-1.17-1.14c.06-.23.12-.46.16-.69h0l.8-.78h.85Z"/><path class="cls-94" d="M972.62,140.56h0Z"/><path class="cls-94" d="M971.74,140.56l-.8.78v-.77C971.22,140.56,971.48,140.55,971.74,140.56Z"/><path class="cls-89" d="M945.57,73.37v0Z"/><path class="cls-89" d="M944.88,74.2l.71-.88Z"/><path class="cls-153" d="M964.22,74.1l-1.43.1-.86-.16.06-1.39v-.86h.84l.42,1,.34-1,1.62.06v.65Z"/><path class="cls-52" d="M968.61,80v3.92l-.13.1a1.83,1.83,0,0,0-.66,0,1.76,1.76,0,0,0-.26-.77v-.87l.23-2.15a2.46,2.46,0,0,1,.68-.31Z"/><path class="cls-76" d="M972.55,85l-.65-.16-.18-1.62.31-1.51-.07.1h.29l.28-.09h-.06l1.18,1.35a1.2,1.2,0,0,0-.45.29C973,83.89,972.76,84.43,972.55,85Z"/><path class="cls-62" d="M962.83,71.84H962l2.46-.9c.25.31.5.63.76.94l-1.62-.06A.92.92,0,0,0,962.83,71.84Z"/><path class="cls-52" d="M972,81.7l-.31,1.5Z"/><path class="cls-154" d="M966.14,80.06l-.06-1.76a2.44,2.44,0,0,0,.76-.09l.19.22a2,2,0,0,0,0,.69.45.45,0,0,0-.22.53A5.72,5.72,0,0,1,966.14,80.06Z"/><path class="cls-155" d="M968.43,77.45h.85c.05.26.11.53.17.79a.71.71,0,0,0-.2.6l-.74.22-.14-.14.06-1A3.69,3.69,0,0,1,968.43,77.45Z"/><path class="cls-154" d="M964.22,74.1l1-1.61V74.2Z"/><path class="cls-154" d="M968.43,77.45a2.26,2.26,0,0,0,0,.52l-.72.46a2.06,2.06,0,0,0-.7,0l-.19-.22Z"/><path class="cls-52" d="M971.78,72.59l1,.72-1,.07C971.79,73.12,971.79,72.85,971.78,72.59Z"/><path class="cls-52" d="M972.53,81.75l-.28.09H972c-.05-.35-.11-.69-.16-1Z"/><path class="cls-52" d="M968.51,79.11l.74-.22L968.61,80l-.12-.09A7.12,7.12,0,0,1,968.51,79.11Z"/><path class="cls-52" d="M969.45,78.29c-.06-.26-.12-.53-.17-.79a5.3,5.3,0,0,1,.42.52Z"/><path class="cls-61" d="M907.82,129.05l.92.08Z"/><path class="cls-61" d="M906.31,128.3l1,.74Z"/><path class="cls-61" d="M906.29,127.52a5,5,0,0,0,0,.77l-.82-.78A4.49,4.49,0,0,0,906.29,127.52Z"/><path class="cls-156" d="M920.14,87.33c-.26.8-.52,1.6-.79,2.41V87.32h.79Z"/><path class="cls-157" d="M920.14,87.33h-1.63c.36-.41.73-.82,1.1-1.22Z"/><path class="cls-158" d="M919.29,90.4v1.23l-1.42-.26a2,2,0,0,1-.09-.77h0Z"/><path class="cls-156" d="M919.29,90.4l-1.51.21,1.59-.86A4.62,4.62,0,0,1,919.29,90.4Z"/><path class="cls-156" d="M917.73,87.3h.82l-.66.84h-.32C917.62,87.86,917.67,87.58,917.73,87.3Z"/><path class="cls-156" d="M916.14,89.78l.8-.67Z"/><path class="cls-156" d="M916.14,90.67a5.32,5.32,0,0,1-.26-.66l.31-.23A5.32,5.32,0,0,0,916.14,90.67Z"/><path class="cls-156" d="M917.79,90.6a2,2,0,0,0,.09.77Z"/><path class="cls-159" d="M970.74,142.06l1.17,1.14-1,3.05-.77.95c-3.9-1,.21-3.24-.74-4.7Z"/><path class="cls-94" d="M970.74,142.06l-1.32.41,1.48-1.1C970.86,141.6,970.8,141.83,970.74,142.06Z"/><path class="cls-7" d="M917.73,87.3c-.06.28-.11.56-.16.83l-.51-.74C917.28,87.35,917.51,87.32,917.73,87.3Z"/><path class="cls-52" d="M973.65,83.05l-1.18-1.35,2.33-.14Z"/><path class="cls-160" d="M954.65,76c-.3,1-.59,2.08-.88,3.12l-.82.09h0l-.75-.87-.52-.94,1.51-3a4.06,4.06,0,0,1,.7.09Z"/><path class="cls-96" d="M954.65,76l-.8-1.57,1.58-.25a.52.52,0,0,0,.54.25h0a.61.61,0,0,0,.12.58h0Z"/><path class="cls-5" d="M929.23,73.38l.3.2Z"/><path class="cls-113" d="M947.31,131.65l1.57-.07q2.45,16.8,4.9,33.59h-2.45c-.82-5.29-1.66-10.58-2.45-15.87-.84-5.64-1.64-11.27-2.46-16.91Z"/><path class="cls-114" d="M946.42,132.39c.82,5.64,1.62,11.27,2.46,16.91.79,5.29,1.63,10.58,2.45,15.87h-2.47c-.81-6.29-1.6-12.57-2.45-18.85-.49-3.59-1.23-7.15-1.53-10.76C944.79,134.54,945.87,133.45,946.42,132.39Z"/><path class="cls-150" d="M997.35,133.85c-.06-.49-.11-1-.17-1.46l.83,1.45h-.66Z"/><path class="cls-150" d="M997.89,130.51a.58.58,0,0,1,.18-.59h.78a3.48,3.48,0,0,0,0,.79Z"/><path class="cls-161" d="M998.84,130.72a3.48,3.48,0,0,1,0-.79,1.14,1.14,0,0,0,.52,0l.06.89Z"/><path class="cls-162" d="M921.24,79.39a.64.64,0,0,1,.51-.15Z"/><path class="cls-163" d="M962,72.65,961.93,74l-1.34-.51Z"/><path class="cls-164" d="M966.89,87.31h-.83V86.5h.81C966.88,86.78,966.89,87,966.89,87.31Z"/><path class="cls-68" d="M956.14,75a.61.61,0,0,1-.12-.58l.6.19Z"/><path class="cls-165" d="M939.05,89.83c1.28.4,3.73-.91,3.2,2.17l-1.62,1h-1.39C939.14,91.91,939.14,90.87,939.05,89.83Z"/><path class="cls-166" d="M944.77,99.58l-.06,2.26-1.43.2.06-2.26h-.08l1.55-.16Z"/><path class="cls-167" d="M943.34,99.78l-.06,2.26c-.32-.81-.64-1.62-.95-2.43Z"/><path class="cls-117" d="M951.64,77.32c.17.31.34.63.52.94l.75.87h0v8.12c0,.52,0,1-.08,1.56C950.14,85.29,949.57,80.2,951.64,77.32Z"/><path class="cls-168" d="M966.14,80.06a5.23,5.23,0,0,0,.63-.41l.83,2.72v.87a.92.92,0,0,0-.58.51,1,1,0,0,0-.23.42,5.32,5.32,0,0,0-.66-.37Z"/><path class="cls-4" d="M972.55,85c.21-.55.43-1.09.65-1.64a1.86,1.86,0,0,1,.25.68l.73.86a5.16,5.16,0,0,0,.09.79h-1.59A.88.88,0,0,1,972.55,85Z"/><path class="cls-169" d="M967.87,84a1.83,1.83,0,0,1,.66,0l-1.67.84a2,2,0,0,1-.06-.69.93.93,0,0,1,.23-.41Z"/><path class="cls-62" d="M966.88,86.51h0Z"/><path class="cls-154" d="M966.8,84.2a2,2,0,0,0,.06.69l-.72-1.09A5.52,5.52,0,0,1,966.8,84.2Z"/><path class="cls-66" d="M953,79.94v-.77l.82-.09Z"/><path class="cls-170" d="M955.45,110.25h.76l-1.41,2.31C955,111.78,955.23,111,955.45,110.25Z"/><path class="cls-171" d="M952,110.2l-.1.3a1.43,1.43,0,0,1-.3-.35l.21-.23Z"/><path class="cls-172" d="M959.5,112.72h1.79a4,4,0,0,0-.19.76Z"/><path class="cls-173" d="M947.14,99.65l1,.76a5.48,5.48,0,0,1,0,.81l-1.24.43Z"/><path class="cls-167" d="M944.86,97.25l-.08-.94,1.65.76Z"/><path class="cls-167" d="M944.81,99.65l-1.55.16,1.34-1Z"/><path class="cls-167" d="M944.72,98a3.38,3.38,0,0,1,.17-.75A1.32,1.32,0,0,1,944.72,98Z"/><path class="cls-76" d="M974.14,84.88l-.73-.86Z"/><path class="cls-94" d="M967.91,123.11a.37.37,0,0,1,.35-.36l-.06.3Z"/><path class="cls-167" d="M940.63,93l1.62-1Z"/><path class="cls-174" d="M962.83,71.84a.92.92,0,0,1,.76-.06l-.34,1Z"/><path class="cls-155" d="M967.58,82.37l-.83-2.72a.45.45,0,0,1,.22-.53h.73l.11,1.1Z"/><path class="cls-175" d="M967.87,84l-.84-.25a.93.93,0,0,1,.58-.52A1.76,1.76,0,0,1,967.87,84Z"/><path class="cls-168" d="M967.81,80.2l-.11-1.1h0a1.73,1.73,0,0,0,.64-.12l.14.14c0,.27,0,.53,0,.8A2.32,2.32,0,0,0,967.81,80.2Z"/><path class="cls-168" d="M967.7,79.12H967a2,2,0,0,1,0-.69,2.06,2.06,0,0,1,.7,0v.66Z"/><path class="cls-176" d="M967.73,79.09v-.66l.72-.46-.06,1A1.84,1.84,0,0,1,967.73,79.09Z"/><path class="cls-66" d="M952.91,79.13l-.75-.87Z"/><path class="cls-1" d="M951.7,64.05c-28.93.2-52.13,24.16-51.91,53.6a52.58,52.58,0,0,0,105.16-.41c0-.41,0-.82,0-1.23C1004.63,87.2,980.71,63.86,951.7,64.05Zm.67,101.75A48.88,48.88,0,1,1,1001,116.7v.22a48.76,48.76,0,0,1-48.64,48.88Z"/><path class="cls-1" d="M53.59,68.53c0-15.44,9.68-28.72,28.08-28.72,7,0,12.48,2.08,18.32,7.12a5.19,5.19,0,1,1-7.12,7.52c-3.28-3.44-6.64-4.4-11.2-4.4-12.32,0-18.24,8.72-18.24,18.48,0,9.92,5.84,19,18.24,19a18.63,18.63,0,0,0,12.48-5.12,5.39,5.39,0,0,1,7.36,1c1.28,1.76,1.92,4.72-.88,7.52-5.6,5.2-12.32,6.24-19,6.24C62.31,97.17,53.59,84,53.59,68.53Z"/><path class="cls-1" d="M112,91.65V46.21c0-2.88,2.08-5,5.68-5a4.77,4.77,0,0,1,4.88,5V63.65h26.08V46.21a5.2,5.2,0,0,1,5.44-5,4.84,4.84,0,0,1,5,5V91.65a4.88,4.88,0,0,1-5,5,5.26,5.26,0,0,1-5.44-5V74.13H122.55V91.65a4.82,4.82,0,0,1-4.88,5C114.07,96.61,112,94.45,112,91.65Z"/><path class="cls-1" d="M169,96.61a5.64,5.64,0,0,1-2.56-7.68l23-44.88c2.16-4.24,7.92-4.4,9.92,0l22.56,44.88c3.28,6.24-6.4,11.2-9.28,5l-3.52-7H179.59l-3.44,7C174.87,96.61,171.91,97.17,169,96.61Zm34.4-20.32-9-19.76-9.84,19.76Z"/><path class="cls-1" d="M229.27,46.85c0-2.88.64-5.68,4.8-5.68,2.88,0,3.52.72,5.68,2.8l26.48,33.12v-31c0-2.64,2.32-5.52,5-5.52A6.09,6.09,0,0,1,277,46.05v45c0,3.52-2.16,4.88-4.24,5.52-2.8,0-4.16-.64-6.48-2.8l-26.48-33.6V91.09c0,3.52-2.16,5.52-5,5.52a5.27,5.27,0,0,1-5.44-5.52Z"/><path class="cls-1" d="M288.15,46.85c0-2.88.64-5.68,4.8-5.68,2.88,0,3.52.72,5.68,2.8l26.48,33.12v-31c0-2.64,2.32-5.52,5-5.52a6.09,6.09,0,0,1,5.68,5.52v45c0,3.52-2.16,4.88-4.24,5.52-2.8,0-4.16-.64-6.48-2.8l-26.48-33.6V91.09c0,3.52-2.16,5.52-5,5.52a5.27,5.27,0,0,1-5.44-5.52Z"/><path class="cls-1" d="M351.83,96.61a4.88,4.88,0,0,1-5-5V46.21a4.84,4.84,0,0,1,5-5h28.72c7.36,0,7.2,10.4,0,10.4h-23v12h20.16c7.12,0,7.12,10.48,0,10.48H357.51v12h24.4c7.28,0,7.84,10.48,0,10.48Z"/><path class="cls-1" d="M396.15,46.05a5,5,0,0,1,5-4.88,4.87,4.87,0,0,1,4.72,4.88V86.13h21.76c7.84,0,8,10.48,0,10.48H401.19a4.84,4.84,0,0,1-5-4.88Z"/><path class="cls-1" d="M473.59,54l-4.8,1.92c-6.4,2.08-10.24-7.36-3-9.76L477.11,42c3.68-1.6,7-.08,7,5.6v44.8c0,5.92-10.56,6.08-10.56,0Z"/><path class="cls-1" d="M518.15,97.49c-33,0-32.49-57.92-.08-57.92C548.63,39.57,549,97.49,518.15,97.49ZM518.07,87c16.88,0,16.64-36.64.08-36.64C499.66,50.37,499.43,87,518.07,87Z"/></svg>