<svg id="City_of_Oberlin" data-name="City of Oberlin" xmlns="http://www.w3.org/2000/svg" viewBox="0 0 1080 215.83"><defs><style>.cls-1{fill:#fff;}.cls-2{fill:#003846;}.cls-3{fill:#5bb951;}.cls-4{fill:#fefefe;}.cls-5{fill:#652300;}.cls-6{fill:#1c4d5a;}.cls-7{fill:#1a4c59;}.cls-8{fill:#e7eced;}.cls-9{fill:#194b58;}.cls-10{fill:#763c1d;}.cls-11{fill:#e3d8d3;}.cls-12{fill:#719098;}.cls-13{fill:#134753;}.cls-14{fill:#774b4b;}.cls-15{fill:#724343;}.cls-16{fill:#6f3f3f;}.cls-17{fill:#865d59;}.cls-18{fill:#773d1f;}.cls-19{fill:#21515d;}.cls-20{fill:#2e5b67;}.cls-21{fill:#896262;}.cls-22{fill:#8a6464;}.cls-23{fill:#8e6969;}.cls-24{fill:#814b2f;}.cls-25{fill:#7f482b;}.cls-26{fill:#c3ada5;}.cls-27{fill:#3f6974;}.cls-28{fill:#79979e;}.cls-29{fill:#2b5965;}.cls-30{fill:#053c49;}.cls-31{fill:#9f8080;}.cls-32{fill:#48707a;}.cls-33{fill:#5f818a;}.cls-34{fill:#dbcbc3;}.cls-35{fill:#6d3d3d;}.cls-36{fill:#6e300f;}.cls-37{fill:#eee8e8;}.cls-38{fill:#3d6872;}.cls-39{fill:#906b6b;}.cls-40{fill:#7c5151;}.cls-41{fill:#60828b;}.cls-42{fill:#704141;}.cls-43{fill:#724444;}.cls-44{fill:#855136;}.cls-45{fill:#85a0a6;}.cls-46{fill:#a7826f;}.cls-47{fill:#815757;}.cls-48{fill:#34616b;}.cls-49{fill:#804c2f;}.cls-50{fill:#295864;}.cls-51{fill:#7d4629;}.cls-52{fill:#8ea7ad;}.cls-53{fill:#783e1f;}.cls-54{fill:#a48686;}.cls-55{fill:#9a7979;}.cls-56{fill:#0f4451;}.cls-57{fill:#ba9d8e;}.cls-58{fill:#91634a;}.cls-59{fill:#b1907f;}.cls-60{fill:#aec0c4;}.cls-61{fill:#2f5d68;}.cls-62{fill:#22535f;}.cls-63{fill:#c2aeae;}.cls-64{fill:#c4ab9e;}.cls-65{fill:#597e85;}.cls-66{fill:#865f5f;}.cls-67{fill:#ced9db;}.cls-68{fill:#2b5a65;}.cls-69{fill:#986c55;}.cls-70{fill:#c6b3b3;}.cls-71{fill:#eae3e3;}.cls-72{fill:#285763;}.cls-73{fill:#5f2a2a;}.cls-74{fill:#ceb9ae;}.cls-75{fill:#c9d5d8;}.cls-76{fill:#d7e0e2;}.cls-77{fill:#ddd2d2;}.cls-78{fill:#34606b;}.cls-79{fill:#f4f0ee;}.cls-80{fill:#446d77;}.cls-81{fill:#698a92;}.cls-82{fill:#7b4326;}.cls-83{fill:#683737;}.cls-84{fill:#7f9aa1;}.cls-85{fill:#a58888;}.cls-86{fill:#e1d5ce;}.cls-87{fill:#ebe2de;}.cls-88{fill:#d6c9c9;}.cls-89{fill:#4f767f;}.cls-90{fill:#9eb3b8;}.cls-91{fill:#6f8e96;}.cls-92{fill:#8a593f;}.cls-93{fill:#cbb;}.cls-94{fill:#e0d6d6;}.cls-95{fill:#bdcbcf;}.cls-96{fill:#94674f;}.cls-97{fill:#ae9393;}.cls-98{fill:#9c7b7b;}.cls-99{fill:#245460;}.cls-100{fill:#cbd6d9;}.cls-101{fill:#beccd0;}.cls-102{fill:#906c6c;}.cls-103{fill:#1f505c;}.cls-104{fill:#d9e1e3;}.cls-105{fill:#753b1c;}.cls-106{fill:#4e757e;}.cls-107{fill:#e2e8ea;}.cls-108{fill:#dee5e7;}.cls-109{fill:#eef2f2;}.cls-110{fill:#dbe3e4;}.cls-111{fill:#124653;}.cls-112{fill:#eef2f3;}.cls-113{fill:#e9eeef;}.cls-114{fill:#eef1f2;}.cls-115{fill:#d4dde0;}.cls-116{fill:#74929a;}.cls-117{fill:#f4f6f6;}.cls-118{fill:#b0c1c5;}.cls-119{fill:#144854;}.cls-120{fill:#cbd7d9;}.cls-121{fill:#22525e;}.cls-122{fill:#e8dfda;}.cls-123{fill:#93664e;}.cls-124{fill:#c0a597;}.cls-125{fill:#a57f6b;}.cls-126{fill:#a57e6a;}.cls-127{fill:#9d755f;}.cls-128{fill:#d7c7be;}.cls-129{fill:#d8cbc9;}.cls-130{fill:#977166;}.cls-131{fill:#b4c4c8;}.cls-132{fill:#d8cbcb;}.cls-133{fill:#6c2d0c;}.cls-134{fill:#dfe6e7;}.cls-135{fill:#976b53;}</style></defs><rect class="cls-1" y="141.57" width="1080" height="23.04"/><rect class="cls-2" width="1080" height="141.12"/><circle class="cls-1" cx="952.93" cy="117.12" r="98.7"/><ellipse class="cls-1" cx="954.7" cy="119.2" rx="83.83" ry="84.2"/><path class="cls-3" d="M952.75,30.45a85.94,85.94,0,1,0,85.93,85.94A85.94,85.94,0,0,0,952.75,30.45Zm0,166.76a80.83,80.83,0,1,1,80.82-80.82A80.82,80.82,0,0,1,952.75,197.21Z" transform="translate(0.3 1.08)"/><path class="cls-4" d="M1018.13,116.39a65.29,65.29,0,0,1-56.3,64.79l-.51.07-1.09.17a8.58,8.58,0,0,1-1.59.11h0c-1.84.16-3.72.24-5.6.24-1.57,0-3.13-.05-4.68-.17-3.54.39-6.93-.87-10.35-1.36a28.43,28.43,0,0,1-6.79-1.83c-2.16-.89-4.3-1.86-6.41-2.86a54,54,0,0,1-15.46-10.36c-3.66-3.62-7.63-7-10.37-11.39-2.31-3.72-4.78-7.32-6.44-11.48-1.4-3.5-2.21-7.16-3.56-10.67a22.39,22.39,0,0,1-1.33-7c-.2-5.05-.54-10.16.06-15.15a60.43,60.43,0,0,1,4.88-17.66c4.69-10.41,7.65-14.83,12.21-19.36l.05-.06a65.05,65.05,0,0,1,113.29,44Z" transform="translate(0.3 1.08)"/><path class="cls-2" d="M1017.26,124.22A63.6,63.6,0,0,1,1011.5,144a68.42,68.42,0,0,1-18.09,23.33,55.9,55.9,0,0,1-20.73,11.08,93.59,93.59,0,0,1-10.85,2.73l-.51.07-1.09.17a8.58,8.58,0,0,1-1.59.11h0c-1-.06-1-.62-1-2.29,0-4.38,0-8.77,0-13.16a7,7,0,0,1,1-3.67c.51-.95-1.09-1.73-1-3.08a6.81,6.81,0,0,1,1.53-3.91c1-1.24,1.51-2.09.64-3.54-.2-.33.33-.89,1-.77l.41.09,0,.1.07.3.07-.3,0-.11.41-.08c2.42,1.86,5.08,3.42,7.2,5.66.54.56,1.22.68,1.69.09s-.46-.66-.59-1c-.3-.85-.39-1.66.87-1.68s2.69,0,4,0c.24-.23.33-.45.24-.67s-.16-.34-.24-.34a1.33,1.33,0,0,0-2,0c-.73-.13-1.77.45-2-.75s.5-1.46,1.46-1.26c1.25.26,1.79-.69,2.39-1.39s1.41-.65,2.21-.65l.35.1a.62.62,0,0,0,.44.13.59.59,0,0,0,.23-.05h0l.07-.1,0-.07a2.61,2.61,0,0,0,.22-.27l.13-.17a4.18,4.18,0,0,1,.54-.57,40.7,40.7,0,0,1,4.26,2.81c1,.8,1.37,1.29,2.53.12,2.16-2.18,3.81-.34,5.38,1.12a2.5,2.5,0,0,1,2,3c2.46.18,3-.93,2-3-.7,0-1-.31-1-1,1.28-1.11.42-2.72.94-4a.61.61,0,0,1,0-.12c.09-.19.2-.38.29-.56l0,0c.09-.13.18-.24.27-.35a1.47,1.47,0,0,1,.1-.13,2.06,2.06,0,0,1,.39-.24,2.28,2.28,0,0,1,.72-.25h.6a1.81,1.81,0,0,1,.66.3,1.59,1.59,0,0,1,.32.26.14.14,0,0,0,0,.06.54.54,0,0,0,.62.49,2.63,2.63,0,0,1,.87-.13l.22-.14.15-.1h-.44a2.34,2.34,0,0,1-.56-.73c-.18-.27-.34-.54-.52-.8,0,0-.29-.4-.3-.4a7.93,7.93,0,0,1-.6-.83l-.05-.11-.12-.28,0-.09a1.54,1.54,0,0,1,.14-.92.36.36,0,0,1,0-.09l.08-.08c.36-.35.88-.47,1.2-.84h1a1.41,1.41,0,0,1,.48.7,3,3,0,0,0,.16.31l.12.19a.1.1,0,0,0,0,.05.35.35,0,0,0,.05.08.56.56,0,0,0,.08-.26v0h0a0,0,0,0,0,0,0,.44.44,0,0,0-.23-.32.63.63,0,0,1,.33-.69c.48,0,1.07-.12.78-.67-.37-.71-1.2-.32-1.82-.32-1,0-1.06-.64-1-1.31a.85.85,0,0,1,1-.75c.66.06,1.32,0,2,0a.62.62,0,0,0,.25-.68c-.08-.22-.17-.33-.25-.33a2.51,2.51,0,0,1-3-2,1.1,1.1,0,0,1-.46-1,8.92,8.92,0,0,1,.25-1c0-.09,0-.17.07-.27l.12-.36a4.72,4.72,0,0,1,.63-1.39l.07-.11.1-.1a.4.4,0,0,0,.1-.53,1.1,1.1,0,0,0-.19-.25,1.3,1.3,0,0,1-.26-.4,3.09,3.09,0,0,1,0-2.26,2.91,2.91,0,0,1,.25-.42,1.5,1.5,0,0,1,.2-.24,2.16,2.16,0,0,1,.25-.27l0,0a2,2,0,0,0,.28-.44,1.28,1.28,0,0,0,.13-.42,4,4,0,0,0-.27-.59,3,3,0,0,0-.2-.29.3.3,0,0,0-.08-.08,7.13,7.13,0,0,0-.62-.61l-.37-.32-.27-.24-.24-.2a5.13,5.13,0,0,1-.51-.53,5,5,0,0,1-.58-.91,4.26,4.26,0,0,1-.2-1.87.48.48,0,0,1,.05-.17,3.66,3.66,0,0,1,.73-1.51,2.46,2.46,0,0,1,.38-.35,4.24,4.24,0,0,1,.56-.38l.24-.08c.59-.2,1.2-.34,1.78-.55l.12,0c.33-.13.66-.25,1-.4.08-.59-.26-.07-.27-.06-.64.21.25-.16-.41,0-.76-.13-1.48-.37-2.24-.51l-.25,0h0a5,5,0,0,0-.77,0,.06.06,0,0,0-.06,0A3.88,3.88,0,0,0,997,116c-.34.16-.7.31-1,.46a12.56,12.56,0,0,0-1.47.83,7.64,7.64,0,0,1-1.41.93h0a2.73,2.73,0,0,1-.73.16l-.23,0H992l-.52-.09-.38-.18-.08,0a1.33,1.33,0,0,1-.25-.35,1,1,0,0,1-.1-.34.4.4,0,0,1,0-.15s.16-.38.16-.38l-.39-.17a1.22,1.22,0,0,1,.17.69v.35a1.8,1.8,0,0,0,0,.4,1.58,1.58,0,0,1-.37.78l-.16.16s0,0-.05,0a4.16,4.16,0,0,1-.58.07h-.39l-.29,0c-.7-.27-1.1-.67-.72-1.44-.72-1.54,2.63-3,0-4.6.63-.79,1.53-.32,2.29-.49.26,0,.46-.34.68-.52-.26-.15-.53-.43-.8-.44-.76,0-1.22-.25-1.19-1.12s.68-.93,1.35-.93a4.17,4.17,0,0,0,.5,0c2.1-.22,2.1-.22,2.22-3,0,0,.19-.32.19-.34l.18,0a.72.72,0,0,0,.21,0l.17.07.18.06a3,3,0,0,1,.08-.33.18.18,0,0,0,0,0h0l-.28.08-.1,0-.25,0a1.25,1.25,0,0,1-.38-.2,2.25,2.25,0,0,1-.24-.21,1.59,1.59,0,0,1,.14-1.09c.63-1,2.16-.91,2.61-2.14,0,0,0,0,0-.06a2.56,2.56,0,0,1,.1-.34,3,3,0,0,1,.57-.92,3.29,3.29,0,0,1-.09-.43s-.19.4-.2.41c-.23.18-.45.34-.66.53a4.19,4.19,0,0,0-.45.39.76.76,0,0,0-.09.09c-.27.28-.54.56-.83.83a3,3,0,0,1-.68.56,1.6,1.6,0,0,1-.32.21c-1.81.06-2.25-2.15-3.92-2.32l0,0-.37-.21a5.62,5.62,0,0,1-.64-.55c.22-2.26.78-2.83,3-3,.23-.22.43-.45.64-.67l.32-.34.06-.06a1.69,1.69,0,0,1,.28-.26.11.11,0,0,1,.06-.06,2.09,2.09,0,0,1,.28-.24.55.55,0,0,1,.17-.14l.23-.18.09-.07a4.13,4.13,0,0,1,.46-.31l.46-.23.07,0a1.31,1.31,0,0,1,.28-.09.1.1,0,0,1,.07,0,1.9,1.9,0,0,1,.39-.11l.2-.05.2,0a6.23,6.23,0,0,1,.86-.07,4.7,4.7,0,0,1,.53,0h.45a5.35,5.35,0,0,1,1.54.26.63.63,0,0,0,.48.08.44.44,0,0,0,.19-.12l.07-.06h-.26a.72.72,0,0,1-.57-.09,3.62,3.62,0,0,1-1.45-.84.71.71,0,0,1-.12-.13s-.05,0-.05,0a.4.4,0,0,1-.11-.12l-.1-.11c-.23-.33-.42-.68-.63-1-.06-.1-.12-.2-.2-.31h0a2.82,2.82,0,0,0-.33-.36,3.58,3.58,0,0,1-.36-.12s0,0,0,0l-.06,0h-.05a2.66,2.66,0,0,0-.41.08c-.21.13-.4.23-.6.33l-.32.16a1.53,1.53,0,0,1-.27.11,5.34,5.34,0,0,1-1.08.27h-.08a1.1,1.1,0,0,1-.25,0,0,0,0,0,1,0,0,2.2,2.2,0,0,1-.45,0l-.57,0h-1c-.5-.26-.51-.72-.48-1.19a.67.67,0,0,1,.35-.63l-.34.08s-.08.35-.08.36a1,1,0,0,1-.42.65h-.05l-.33,0,.16.35a3.5,3.5,0,0,1,.16.33h0c-.12.62.33,1.35-.34,1.85-1.58,1.21-4.39.4-5.13,3.07a1.17,1.17,0,0,1-.88.13c-1.16-1.73-3.78-1.59-4.67-3.68-.26-.61.28-1,.4-.36a2.39,2.39,0,0,0,.48,0,8.27,8.27,0,0,0,.71-1l0,0,.13-.09.15-.1a2,2,0,0,0,.23-.18l.15-.06c.18-.07.35-.14.51-.22a2.63,2.63,0,0,0,.49-.33,1.3,1.3,0,0,0,.3-.38,9.93,9.93,0,0,0,.51-1.66h0l.06-.2a3.79,3.79,0,0,1,.39-.78s0,0,0,0a1.52,1.52,0,0,1,.4-.28,1.42,1.42,0,0,1,.36-.14l.16,0a.47.47,0,0,1,.13.44.79.79,0,0,1,.13-.12.12.12,0,0,0,0,0c.17-.15.1-.33-.09-.4a.72.72,0,0,0-.38,0h0l-.34-.11-.15-.05a1.65,1.65,0,0,1-.21-.27,2.31,2.31,0,0,1-.29-.59l-.06-.17a2.85,2.85,0,0,1,.18-1.78c-.12-.3.54-.21.47-.5a.13.13,0,0,0,0-.07.31.31,0,0,0-.08-.1l0,0a1.37,1.37,0,0,0-.21.15,3.3,3.3,0,0,0-.61.51l-.08,0a6.52,6.52,0,0,1-.92.45l-.07,0-.87.37-.2.08-.22.09a8,8,0,0,1-.81.32h0l-.19.07-.65,0h-1l-.58,0a2.07,2.07,0,0,1-.43-.1l-.08,0-.12,0-.3-.12-.18-.08-.33-.24-.16-.11a2,2,0,0,1-.2-.28,1.38,1.38,0,0,1-.18-.41,2.33,2.33,0,0,1-.08-.38c.14-.76,0-1.61.62-2.24,1.52-.09.86-1.26,1-2,.52-.34.75-.68,0-1h-1c-.35-.8-.68-.49-1,0h-1c-.49-.4-1-.73-1.49-1.13-.81-.15.07.29-.09.35a.57.57,0,0,1-.46.78c-.14,1.08-1.47,1.74-1,3,.16.45-.08,1-.65.76-.25-.12-.24-.84-.34-1.29a2.67,2.67,0,0,1,0-.49,3.88,3.88,0,0,1,0-4.05v-2c-.36-.23-.47-.45-.36-.68s.24-.33.36-.33c.28-.48.87-.82.88-1.39h0a1.14,1.14,0,0,0-.11-.45s0,0,0,0l-.41-.17-.15,0h-.05a.33.33,0,0,0-.15,0l-.15,0h0s-.45-.17-.48-.17a0,0,0,0,1,0,0h0c-.13-.07-.24-.15-.35-.22l-.06,0a1.17,1.17,0,0,1-.31-.4.89.89,0,0,1-.08-.33.92.92,0,0,1,0-.16c-.13-.28.28-.35.46-.49l0,0h0s0,0,0,0,0-.15-.07-.29l-.06-.07a5.51,5.51,0,0,1-.82-.48,1.58,1.58,0,0,1-.26-.13l-.54-.28-.07,0-.27-.12-.18-.09s-.41-.22-.44-.22c-.19-.08-.37-.17-.54-.26l-.34-.19-.2-.12-.11-.08-.1,0-.13-.12-.22-.2a1.19,1.19,0,0,1-.13-.25,1.15,1.15,0,0,1-.1-.35,1,1,0,0,1,0-.25l0-.12h0l-.07-.26s0,.13,0,.25a1.6,1.6,0,0,0,0,.17,1.48,1.48,0,0,1,0,.21,1.07,1.07,0,0,1-.06.35,1.3,1.3,0,0,1-.16.31c-.33.37-.88.35-1.22.7a2.49,2.49,0,0,0-2,2,1.38,1.38,0,0,1-2,0c-.13-.71.47-1.76-.76-2a12.11,12.11,0,0,0-2,0c-.67,0-1.3,0-1.31-1s.56-1,1.26-1.06a.8.8,0,0,0,.79-1,13.9,13.9,0,0,1-1-1c-.72-.13-1.87.46-2-.75-.06-.78-.71-2.12.94-2.27.49,0,1.08-.13.81-.68-.34-.71-1.19-.22-1.81-.34-2-2.7-1.9-5.4,0-8.09,7.57-.24,13.79.87,23.14,4.16a56.61,56.61,0,0,1,15.72,8.63,68,68,0,0,1,9.17,8.33,67,67,0,0,1,15.07,28.19A62.8,62.8,0,0,1,1017.26,124.22Z" transform="translate(0.3 1.08)"/><path class="cls-5" d="M947.46,61.06a6.68,6.68,0,0,0,0,1c-.41.89-.9,1.6-2,1h-1a2.85,2.85,0,0,1-.64.47l-.33-.17-.05.12-.09.23.09.36a.78.78,0,0,1-.78,1c-1.06.11-1.68.29-.51,1.26.25.22.46.65.71.67,1.12.09,2.11.42,1.43,1.7-.42.82-1.27,2.11-2.47.47a1,1,0,0,0-1.3.35c1.28.63-.53,2.07.64,2.6.58.27,1.34.09,1.27,1.07a1.27,1.27,0,0,1-.66.65,2.18,2.18,0,0,1-.89.33h-.16l-.26,0h-.06a.87.87,0,0,1-1-1,.82.82,0,0,1-.47-.77l0-.26,0-.19-.07.19-.09.24a1,1,0,0,1-.46.79l-.42.32h-.53l-.06,0a2.08,2.08,0,0,1-.35-.29,2.87,2.87,0,0,1-.31-.4c-.1-.16-.19-.3-.29-.44l-.1-.17c-.17-.25-.36-.51-.56-.75s-.39-.39-.58-.55l-.19-.19a2.44,2.44,0,0,1-.44-.13l-.1,0a3.07,3.07,0,0,0-.35.12,6.76,6.76,0,0,1-1.37.42,4.57,4.57,0,0,0-.9.23s-.36.23-.36.24c0,.78.74-.13.89.38a.35.35,0,0,1,.05.08.83.83,0,0,1,.08.12,2,2,0,0,1,.26.91c-.27,1.41.42,3-.46,4.26a1.19,1.19,0,0,1-.16.23l-.19.07h0a1.49,1.49,0,0,1-1.67-.4c-.3.05-4.32,0-4.42,0-1-.42-.55-1.32-.66-2-.48-.6-.07-1.66-1-2-1.84-1-1.84-1-2.05.78-.1.81.66,2.09-1,2.25l-.35-.17a.84.84,0,0,1-.05-.17,1,1,0,0,1,0-.58l-.35.15s.26.26.26.27a.76.76,0,0,1,0,.15c0,.12,0,.24,0,.35s0,.2,0,.31a2.37,2.37,0,0,1-.42.7.78.78,0,0,1-.91.39l-.11,0-.21-.1a2.45,2.45,0,0,1-.88-.75l0,0-.17-.25a.47.47,0,0,0-.06-.09.52.52,0,0,0-.1-.11,3.64,3.64,0,0,0-.61-.63l-.23-.31a3.85,3.85,0,0,0,.1.4,2,2,0,0,1,.5.54l.1.14s0,0,0,.12,0,.05,0,.08,0,.26,0,.26-.06.25-.08.36h0l0,.07s-.14.39-.14.39l.43-.1a2.15,2.15,0,0,1,1.07.26A1.61,1.61,0,0,1,919,78l.09.06s0,0,0,.06a.5.5,0,0,1,.08.14,1.45,1.45,0,0,1,.11.94,7.14,7.14,0,0,1-1.4,2.14l-.15.21c-.12.19-.25.37-.36.56s-.07.14-.11.2,0,.07-.05.1,0,0,0,.08a3.09,3.09,0,0,0-.14.32,2.77,2.77,0,0,1-.1.26.14.14,0,0,1,0,.07,5.93,5.93,0,0,1-.29.69,6.92,6.92,0,0,1-.27.46s0,0,0,0a3.5,3.5,0,0,1-.76.68,4.06,4.06,0,0,0-.64.6l-.13.14-.32.28,0,0s0,0,0,0-.31.16-.48.24c-1.79.18-3.21-1.53-5.07-1-1.16.74-.12,2.21-1,3-.5,0-1.19-.21-1.47,0-.91.78-.16,1,.52,1,1.58-.16.35,2.25,2.11,2.12.88-.06,1.7.86,1.89,1.94a1.13,1.13,0,0,1-1.19.5,1.29,1.29,0,0,1-.77-.17s0,0-.07,0l-.26.12h.26a4.06,4.06,0,0,1,.56.09,1,1,0,0,1,.76.43h0a3.45,3.45,0,0,1,.14.34,3,3,0,0,1,.12.61.22.22,0,0,1,0,.06c0,.06,0,.15,0,.23s0,.22,0,.22,0,.07,0,.1a.23.23,0,0,1,0,.11c0,.1,0,.2,0,.3s0,0,0,0c-.07.33-.14.65-.19,1v0s0,.07,0,.11v.25c0,.2,0,.41,0,.61v.06a4.85,4.85,0,0,1,0,1.08,3.86,3.86,0,0,0,.14,1.06,3.22,3.22,0,0,1,.12.88c0,.07,0,.13,0,.2s0,.15-.07.22l-.06.22,0,.09-.21.28-.13.17-.14,0a1.08,1.08,0,0,1-.31.07,1.62,1.62,0,0,1-.62,0l-.08,0-.17-.07h0a1.78,1.78,0,0,1-.3-.17,2.29,2.29,0,0,1-.52-.41.86.86,0,0,1-.18-.2,1.79,1.79,0,0,0-.62-.69,2.94,2.94,0,0,0-.22.27h0a0,0,0,0,0,0,0l-.05.06h.07a.54.54,0,0,1,.65.47,3.28,3.28,0,0,1,.37.65,2.86,2.86,0,0,1,.21.58.13.13,0,0,1,0,.06.66.66,0,0,1,0,.15v.06a1.79,1.79,0,0,1-.41,1.39,1,1,0,0,0-.39.85,2.41,2.41,0,0,0,.54.79c.67,0,1.35,0,2,0s1.64-.39,1.8.35-.81,1.22-1.43,1.66c-.38.25-1.49-.37-1,.79.12.27.91.19,1.31.41.21.12.25.54.37.83.7,0,1,.32,1,1,.76.43,1.51.86,1.5,1.89a.51.51,0,0,1,0,.13,1.09,1.09,0,0,1,0,.26,1.79,1.79,0,0,1-.41.75c-1.16,0-2.33,0-3.49,0-1.9,0-1.89,0-1.78-2.33.05-1.13-1.17-.78-1.26-.66-1,1.37-2.35.91-3.63,1a3.92,3.92,0,0,0-.72-.48l-.26-.3,0,.08-.09.31.09.39v1c-.85,1.27.22,1.58,1,2,.71,0,1.05.31,1,1,.34,1,.68.14,1,0,1.79,1,1.75,2.08,0,3a3.27,3.27,0,0,0-1.17.73c-.3.37-1.32.72-.31,1.31.37.22,1,0,1.47,0,.25.23.34.45.25.68s-.17.34-.25.34c-1.45,1.74-1.81,3.56-1,5,0,.22-.07.43-.1.65-.05.8,0,1.62,0,2.43a4.39,4.39,0,0,1-.23,1.38,1.86,1.86,0,0,1-.4.6l-.1.12a1.5,1.5,0,0,0-.33.59,5.53,5.53,0,0,0,.35.91s.08.27.13.4l0,.08a1.28,1.28,0,0,1,0,.19,2.29,2.29,0,0,1-.11.74.31.31,0,0,1,0,.08l0,0a.09.09,0,0,1,0,.06,1.12,1.12,0,0,1-.16.28,1.89,1.89,0,0,1-.79.74.77.77,0,0,1-.27,0l-.13-.06-.06,0h0a.76.76,0,0,0,0,.11s0,0,0,0,.07.09.15.1a1.18,1.18,0,0,0,.75-.18,5.32,5.32,0,0,1,.66-.26l.34-.08h.07a.69.69,0,0,1,.2,0l.3,0a1.43,1.43,0,0,1,.66.27s0,0,.06,0a1.27,1.27,0,0,1,.25.22,1.73,1.73,0,0,1-.33,2.07c-.27.25-.56.49-.85.71l-.06.05,0,0-.12.09-.16.15a1.88,1.88,0,0,0-.35.69,1.08,1.08,0,0,0,0,.21v0c0,.25,0,.51.07.76a1.79,1.79,0,0,0,0,.23.49.49,0,0,0,0,.12,3.68,3.68,0,0,1-.06.66,1.87,1.87,0,0,1,0,.25s0,0,0,.05,0,.07,0,.1a2.64,2.64,0,0,1-.07.3.3.3,0,0,1,0,.1,1.55,1.55,0,0,1,0,.21h0a.14.14,0,0,1,0,.07l-.12.67a.36.36,0,0,0,0,.25s0,0,0,0a.55.55,0,0,0,.37.44h0l.27,0a1.86,1.86,0,0,1,.34.06l.32.08c.51.12,1,.24,1.51.32l.21,0h0l.24,0,.27,0c.21,0,.41,0,.63.08a5.93,5.93,0,0,1,.84.16h0a3.26,3.26,0,0,1,1,.59s0,0,0,0a.36.36,0,0,1,.07.1l0,0s0,0,0,0a1.56,1.56,0,0,1,.19.88,1.14,1.14,0,0,1-.2.23.47.47,0,0,1-.1.1,1.85,1.85,0,0,1-1.1.28,2.24,2.24,0,0,0-.94.12.69.69,0,0,0-.21.15.71.71,0,0,0-.15.18s0,0,.06.08l.08.14.1.17s0-.1,0-.21,0-.07,0-.1l0-.15,0,0,.15-.13a1.13,1.13,0,0,1,.72-.18,4.89,4.89,0,0,0,1.32-.13l.19-.05,0,0a7,7,0,0,0,.56-.53,2.09,2.09,0,0,1,.22-.2,1.83,1.83,0,0,1,.39-.21,2.7,2.7,0,0,1,.92-.19c.26,0,.54,0,.79-.07a1.15,1.15,0,0,0,.14-.17.76.76,0,0,0,.11-.14,1.3,1.3,0,0,0,.16-.31.75.75,0,0,1,.54-.52c.87-.09,2.24.43,2-1.24s.59-2.72,1-4c.31-.92.78-1.08,1,0,.38,1.95,1.19,1.66,2.24.57.56-.59,1.24-.2,1.85-.32l.43.31a2.26,2.26,0,0,0,0,.26c0,.09,0,.18,0,.26a1.63,1.63,0,0,1-.11.17c-.15.23-.37.45-.25.67l0,.06a.52.52,0,0,1,.31-.21,1.31,1.31,0,0,1,.86.5l0,0a.57.57,0,0,0,0,.14,1.69,1.69,0,0,1-.06.86s0,0,0,.06l-.06.07,0,0a.86.86,0,0,1-.13.14c-.24.3-.51.57-.75.84a.88.88,0,0,1-.27.19.83.83,0,0,1-.22.08s0,.24,0,.24a1,1,0,0,1,.17-.19,1.16,1.16,0,0,1,.44-.27,3.62,3.62,0,0,1,.58-.47l.15-.11h.16a1.33,1.33,0,0,1,.71.14h0l.22,0,.07,0,.11,0a1.07,1.07,0,0,1,.06-.12h0c0-.11.1-.26.11-.27A1.4,1.4,0,0,1,924,144s0,0,0,0h0a.05.05,0,0,1,0,0,1.12,1.12,0,0,1,.28-.16,3.16,3.16,0,0,1,.73-.15.11.11,0,0,1,.08,0,.52.52,0,0,1,.18,0h.07l.6,0a15.51,15.51,0,0,1,1.67,0,3.84,3.84,0,0,1,1.43.48h0s0,0,0,0l.2.11a2,2,0,0,1,.41.34,2.17,2.17,0,0,1,.4.54v3l-.22.36-.16.23-.06.11h.44l.32.23.05.06a1.17,1.17,0,0,1,.2.34,1.28,1.28,0,0,1,.08.35v.36a1.7,1.7,0,0,1,0,.24v.12s.21.29.22.29l.13.33c.48,1.43-1.24,2.2-1.09,3.57a2.55,2.55,0,0,1-1.26.45c-1.23.09-.05-2.09-1.44-1.69-.88.26-1.14,1.64-2.3,1.71a.63.63,0,0,0-.24.68q.12.33.24.33a6,6,0,0,1,3,2.88c.2.37.12.88.6,1.13a11.63,11.63,0,0,1,.46-1.29c.73-1.4,2-.41,3-.69a.62.62,0,0,0,1,0c.73-1.81,1.93-1.09,3-.44.15.1-1.48.6-.54,1.3s1.62-.1,2-.8c.92-1.7,1.77-.09,2.65-.06.68.94,1.35,1,2,0,1.52-.09.86-1.26,1-2-.37-.22-.5-.45-.37-.67s.25-.34.37-.34c0-1.35,0-2.7,0-4a.85.85,0,0,1,.81-1c.76-.08,1.33.18,1.23,1.09-.18,1.82,1.28,3.17,1.17,5.15-.08,1.7,1.17,3.48,1.9,5.21.23.57,1,1.07,1,1.61,0,5.77,1.74,11.44,1.08,17.27-.1,1-.62.93-1.3,1l-.87.12c-3.54.39-6.93-.87-10.35-1.36a28.43,28.43,0,0,1-6.79-1.83c-2.16-.89-4.3-1.86-6.41-2.86a54,54,0,0,1-15.46-10.36c-3.66-3.62-7.63-7-10.37-11.39-2.31-3.72-4.78-7.32-6.44-11.48-1.4-3.5-2.21-7.16-3.56-10.67a22.39,22.39,0,0,1-1.33-7c-.2-5.05-.54-10.16.06-15.15a60.43,60.43,0,0,1,4.88-17.66c4.69-10.41,7.65-14.83,12.21-19.36l.05-.06c1.59-1.56,3.38-3.15,5.49-5A55.47,55.47,0,0,1,937.14,54c2.13-2.11,5-.36,7.47-1.58s5.27-.23,7.91-.44V60c-1.23.62-2.47,2-3.67-.09-.2-.34-.85-.81-1-.71C947.09,59.64,947.56,60.44,947.46,61.06Z" transform="translate(0.3 1.08)"/><path class="cls-6" d="M1000.23,126.82v3a2.68,2.68,0,0,1-1.18,1.35,6,6,0,0,1-2.46-.29,9.67,9.67,0,0,1-1.82-.59,7.69,7.69,0,0,1-2.66-1.85,10.14,10.14,0,0,0-1-1.66.77.77,0,0,1,.78-1c1.7,0,1.17-1.17,1.25-2l.21-.55a2.39,2.39,0,0,1,1-.67,2.86,2.86,0,0,1,2.17.72,7.89,7.89,0,0,1,.87.76l.41.4c.29.25.57.52.85.77l.45.36A3.84,3.84,0,0,1,1000.23,126.82Z" transform="translate(0.3 1.08)"/><path class="cls-7" d="M970.8,110.63c-1.52-.09-.87-1.26-1-2a.66.66,0,0,1,1,0h2a1.39,1.39,0,0,1,2,0,3.58,3.58,0,0,1,2,3.82,6.8,6.8,0,0,1-2.25,4,1.5,1.5,0,0,1-1.32.12c-.78-.42,0-.73.24-1,1.33-1.57-1.59-2.42-.66-3.91a2.38,2.38,0,0,1,.42-.86c-.31-.22-.34.23-.56.23l-.5.09h-.51A1.57,1.57,0,0,1,970.8,110.63Z" transform="translate(0.3 1.08)"/><path class="cls-8" d="M989.06,100.51c1.71-.83,2.53-.57,3.05.95.22.64-.54,1.53.64,2,.58.22,1-.4.37-.4s.55-.9,0-.5c.37-.32.68-.68,1-1,1.15-.61,1.53.32,2,1,1-.08,1.15.65,1,1.28-.34,1.28-.82.31-1.23,0-.71.94-2.52.16-2.8,1.77.36.23.48.45.36.68s-.24.33-.36.33h-1a2.3,2.3,0,0,0-.88-.55l-.44-.3a10.1,10.1,0,0,0-.84-.62,2.82,2.82,0,0,1-.89-.55.85.85,0,0,1-1-1,1.56,1.56,0,0,0,.5-1c0-.37,0-.75,0-1.12A1.43,1.43,0,0,1,989.06,100.51Z" transform="translate(0.3 1.08)"/><path class="cls-9" d="M960.65,140c1-2.44,3.94-2.66,5.38-4.73.8-1.16,1.69.18,2.36.82a1.17,1.17,0,0,1-.34,2c-2.07,1.08-3.85,2.84-6.39,2.88A1.18,1.18,0,0,1,960.65,140Z" transform="translate(0.3 1.08)"/><path class="cls-10" d="M928.17,144c-.38.21-.77.4-1.13.63-.92.6-1.67.76-1.91-.63l.08-.44a2.65,2.65,0,0,1,.49-.74s.32-.32.31-.32a4.66,4.66,0,0,1,.65-.61l.37-.25a.74.74,0,0,0,.71-.44s-.39.21-.4.21a.76.76,0,0,1-.59-.64,1.32,1.32,0,0,1,.41-.81c1.66.3,2.33-.37,2-2a2.73,2.73,0,0,1,1.7-.89,4.91,4.91,0,0,1,1.32.11,2.48,2.48,0,0,1,1,.78c-.11,1.5-2.36,1.77-2,3.52-1.8.85.07,1.7,0,2.55a2.45,2.45,0,0,1-1.86.48A1.74,1.74,0,0,1,928.17,144Z" transform="translate(0.3 1.08)"/><path class="cls-11" d="M932.23,77.24a3.77,3.77,0,0,1,0-5.06,2.61,2.61,0,0,1,2.72-.7,7,7,0,0,1,2.35,1.71c.26.23.35.45.26.68s-.17.33-.26.33v1a1.06,1.06,0,0,1-1,.3c-.34.08-.67-1-1,0-.35.16-.68.31-1,.48-.87,1.27.41,1.61,1,2.26-.47,2-2,.63-3,1a1.63,1.63,0,0,1-.56-1A1.44,1.44,0,0,1,932.23,77.24Z" transform="translate(0.3 1.08)"/><path class="cls-12" d="M996.17,147.06c.44.82-1.78,1.14-.34,2.38.45.39-.74,1.44-1.69,1.67-.11-2.93-.12-2.88-2.78-3.07-.82-.06-2.12.7-2.3-1l.22-.37a.93.93,0,0,1,.78-.21s.1-.4.1-.4h-.41l-.22-.38a1.15,1.15,0,0,1,.07-.89,2.42,2.42,0,0,1,.48-.78h1a3.13,3.13,0,0,0,1.12.67l.61.27A9.45,9.45,0,0,1,996.17,147.06Z" transform="translate(0.3 1.08)"/><path class="cls-13" d="M957.6,91.4c-.06,1.12-1.11,1.49-1.71,2.19-1.2,1.42-1.11.46-1.41-.63s-1.76-1.33-2-2.57c.46-.75,1.47-.43,2-1a7.14,7.14,0,0,0,.81-.31c.59-.31-.37-1.72.94-1.39.22.06.19,1.11.28,1.7C957.36,89.84,958.2,90.26,957.6,91.4Z" transform="translate(0.3 1.08)"/><path class="cls-14" d="M929.19,91.4a2.35,2.35,0,0,1,2,2.36c0,1.47-.12,2.94-.2,4.41,0,.1-.22.26-.34.27-.68,0-.26.14-.29-.35-.13-2.27-1.64-2.2-3.22-2.15v-1.5c.65-.55.31-1.43.67-2.08a3,3,0,0,1,.8-.82Z" transform="translate(0.3 1.08)"/><path class="cls-15" d="M949.48,104.56v3c-.33.46-.67.46-1,0a10.81,10.81,0,0,0-1-1c-.89-1.62-1.83-3.18-4.06-3a.92.92,0,0,1-.34-.7c0-.27.05-.41.11-.41a2.73,2.73,0,0,1,2.26-.92c.77,1,2.73.31,3.05,2C948.83,103.86,949.1,104.27,949.48,104.56Z" transform="translate(0.3 1.08)"/><path class="cls-16" d="M945.42,101.52c-.08,1.52-1.26.86-2,1-1.49,1.08-2.35.28-3-1,.09-.87-.45-2,1.25-2S944.88,99.48,945.42,101.52Z" transform="translate(0.3 1.08)"/><path class="cls-17" d="M909.9,101.52v-1a.6.6,0,0,1-.25-.67c.08-.23.17-.34.25-.34v-1c.05-.2.09-.39.14-.59a2.42,2.42,0,0,1,.87-.81.94.94,0,0,1,1,.39c.43,1.73,2.38,2.25,3,3.8a1.35,1.35,0,0,1-.16.92c-.2.44-.39.33-.73,0a13.38,13.38,0,0,0-1.78-1.49.88.88,0,0,0-.33.34,1.39,1.39,0,0,0,0,.5,1.59,1.59,0,0,1-1,.58A1.61,1.61,0,0,1,909.9,101.52Z" transform="translate(0.3 1.08)"/><path class="cls-18" d="M908.89,147.06h-1a8,8,0,0,1-.75-.79,5.23,5.23,0,0,1-.74-1.52,2.72,2.72,0,0,1,0-1.17,2.44,2.44,0,0,1,.72-1,3.27,3.27,0,0,1,1.17-.37,2.09,2.09,0,0,1,1.63.76c1.66-.31,2.34.37,2,2l-.4.34a4.23,4.23,0,0,0-1.24.95,3.2,3.2,0,0,1-.86.65Z" transform="translate(0.3 1.08)"/><path class="cls-19" d="M988.05,117.71a.86.86,0,0,0,1,1c.35.22.46.45.35.67s-.23.34-.35.34c-1.84,0-3.69.06-5.54,0-.47,0-.65-.71-.52-1.22.07-.28.33-.72.52-.73C985,117.69,986.54,117.71,988.05,117.71Z" transform="translate(0.3 1.08)"/><path class="cls-20" d="M995.15,129.86h2a21,21,0,0,1,1.33,2.12,2.11,2.11,0,0,1-.13,1.24c-.6.68-1.24,1.21-2.21.68.31-1.65-.37-2.33-2-2a.8.8,0,0,1-1.2.13c-.09-.22-.17-.44-.26-.67l.18-.69a2.74,2.74,0,0,1,1-1A1.08,1.08,0,0,1,995.15,129.86Z" transform="translate(0.3 1.08)"/><path class="cls-2" d="M974.86,90.39v1a8.19,8.19,0,0,0-1,1c-1.52-.09-.86-1.26-1-2a1.36,1.36,0,0,1,0-2,2.09,2.09,0,0,0,.32-1.48,9.75,9.75,0,0,1,.21-1,1.53,1.53,0,0,1,.59-.9.77.77,0,0,1,.91.39,2.58,2.58,0,0,1,.69,1.14,6.07,6.07,0,0,1-.15,1.35C975.25,88.68,975.58,89.65,974.86,90.39Z" transform="translate(0.3 1.08)"/><path class="cls-21" d="M911.93,121.76c-1.71.51-3-.91-4.56-1.07-.22,0-.49-.81-.47-1.23s.42-.78,1-.75c1,.05,2,0,3,0a.94.94,0,0,1,.33.83.61.61,0,0,0,.48.69.91.91,0,0,1,.64.71A.6.6,0,0,1,911.93,121.76Z" transform="translate(0.3 1.08)"/><path class="cls-22" d="M922.08,119.74c-.84-1.28-1.11-2.91-2.39-3.93-.27-.22-1-.54-.24-1a1.21,1.21,0,0,1,.93-.1c2.48.89,2.66,1.24,2.72,5l-.3.29h-.42Z" transform="translate(0.3 1.08)"/><path class="cls-23" d="M950.5,80.27c1.46.28,1.92,1.77,3,2.5-1.12,1-2.49.46-3.73.49-.81,0-2.14.72-2.32-1l.17-.48a2.15,2.15,0,0,0,.85-.53h1C950.13,81.26,950,80.5,950.5,80.27Z" transform="translate(0.3 1.08)"/><path class="cls-24" d="M903.81,139c1.52-.08.86-1.25,1-2l.52-.29a3.12,3.12,0,0,1,1.17.18,3,3,0,0,1,1.35,1.12l1,2-.33.39a3.37,3.37,0,0,1-1,.35,7.18,7.18,0,0,1-1,.09,7.79,7.79,0,0,1-1.08,0,4.9,4.9,0,0,1-1.07-.19,2,2,0,0,1-.87-.66A1.09,1.09,0,0,1,903.81,139Z" transform="translate(0.3 1.08)"/><path class="cls-25" d="M927.16,140v1c.29.22.38.45.29.67s-.2.34-.29.34c-.35.33-.69.66-1,1a1.87,1.87,0,0,1-1,.47,3.3,3.3,0,0,1-1.16-.21A2.85,2.85,0,0,1,922.7,142a.92.92,0,0,1,.4-1v-1a.71.71,0,0,1,1,0c.3.38.7.64,1,1Z" transform="translate(0.3 1.08)"/><path class="cls-2" d="M979.93,90.39a.85.85,0,0,1-1-1c-.65-.64-.45-1.47-.49-2.24a1.72,1.72,0,0,1,.42-1.06,1.74,1.74,0,0,1,1.12-.15c.55.14,1.09.32,1.64.5a2.93,2.93,0,0,1,1.37.93c.33.22.44.45.33.67s-.22.34-.33.34l-.75.75a6,6,0,0,1-.84.66A2.8,2.8,0,0,1,979.93,90.39Z" transform="translate(0.3 1.08)"/><path class="cls-26" d="M917,81.29l2-3c.33-.43.67-.43,1,0a.86.86,0,0,1,1,1,5.17,5.17,0,0,1-.31,1.61l-.25.5c-.11.16-.23.3-.34.45a3.47,3.47,0,0,1-.93.65,2.21,2.21,0,0,1-1.14.06,2.48,2.48,0,0,1-.91-.69C917.12,81.65,917.07,81.47,917,81.29Z" transform="translate(0.3 1.08)"/><path class="cls-27" d="M995.15,152.12c1.69,0,.57,2.17,1.91,2.41-.9.64-2.13,1-2.17,2.4a2,2,0,0,1-1.77-1.78A2.48,2.48,0,0,0,995.15,152.12Z" transform="translate(0.3 1.08)"/><path class="cls-28" d="M958.62,83.31c-1.52-.09-.86-1.26-1-2a.61.61,0,0,0-1,0c-1,.07-1.08-.6-1-1.28a.85.85,0,0,1,1-.76c.66.06,1.33,0,2,0l.41.28a1.74,1.74,0,0,1,.32.93,2.66,2.66,0,0,1-.07,1,.86.86,0,0,0,.35.86v1A.57.57,0,0,1,958.62,83.31Z" transform="translate(0.3 1.08)"/><path class="cls-29" d="M964.71,70.16c.06,1-1.45,1.39-1.06,2.55A2.26,2.26,0,0,1,963,73c-.08,0-.28-.23-.28-.35,0-1.16,0-2.31,0-3.47.34-.42.46-1,1-1.34a3.73,3.73,0,0,1,1.1-.14,1.91,1.91,0,0,1,1,.47l.4.59c-.07.22-.15.44-.22.67A6.54,6.54,0,0,1,964.71,70.16Z" transform="translate(0.3 1.08)"/><path class="cls-2" d="M992.11,144h1c.38-.4.54-1,1-1.32a3.32,3.32,0,0,1,1.09-.17,3.37,3.37,0,0,1,1.09.18,2.62,2.62,0,0,1,1.2,1.15,1.91,1.91,0,0,1,0,1.11,6.91,6.91,0,0,1-1.27,1.08,1,1,0,0,1-1,.32c-.53-.2-1.07-.35-1.6-.55a4.86,4.86,0,0,1-1.47-.79.64.64,0,0,1-.23-.67C992,144.14,992,144,992.11,144Z" transform="translate(0.3 1.08)"/><path class="cls-2" d="M983,112.65c.76.16,1.94-.5,2,1,.32,2.67-2.47.69-3,2a.73.73,0,0,1-1,0c.15-.77-.51-1.94,1-2C982.29,113.32,982.67,113,983,112.65Z" transform="translate(0.3 1.08)"/><path class="cls-30" d="M960.65,140a.85.85,0,0,1,1,1c-.41.26-.63.71-1,1l-1,2c-1.83.07-1.67-.85-1-2A2.46,2.46,0,0,1,960.65,140Z" transform="translate(0.3 1.08)"/><path class="cls-31" d="M906.86,104.56a.85.85,0,0,0,1-1l.34-.42a1.89,1.89,0,0,1,1-.12,6.5,6.5,0,0,0,1.08,0,1.37,1.37,0,0,1,.87.59,1.12,1.12,0,0,1-.29,1,2.1,2.1,0,0,1-1,.49,1.65,1.65,0,0,0-1,.52c-.71,0-1,.31-1,1-.77-.15-1.94.5-2-1A7.49,7.49,0,0,0,906.86,104.56Z" transform="translate(0.3 1.08)"/><path class="cls-27" d="M969.78,71.17a14.61,14.61,0,0,1,1.48,0c.45,0,1.09,0,1.31.31.38.49-.31.72-.59,1-.88.89-1.61,2.13-3.21,1.71V72.72a2.08,2.08,0,0,1,.35-.87A5.23,5.23,0,0,1,969.78,71.17Z" transform="translate(0.3 1.08)"/><path class="cls-32" d="M957.6,91.4l-1-2c.86.05,1.64-1.71,2.6,0C960,90.84,959.88,91.07,957.6,91.4Z" transform="translate(0.3 1.08)"/><path class="cls-33" d="M974.86,85.33h-1c-.34.49-.68.49-1,0a5.45,5.45,0,0,1-1,0A4.42,4.42,0,0,1,971,85c.11-.23.32-.67.33-.66,2.14.93,2.14-1.78,3.55-2Z" transform="translate(0.3 1.08)"/><path class="cls-34" d="M942.38,158.19c.12.61-.24,1.26.29,1.85.21.24,1.14.41.37,1a1.06,1.06,0,0,1-.9.16,2.62,2.62,0,0,1-1.79-3Z" transform="translate(0.3 1.08)"/><path class="cls-35" d="M935.27,78.25c-1.35.18-2.16-.06-2.07-1.77s1.18-1.18,2.07-1.27c.3.23.39.45.3.68s-.2.34-.3.34c-1.25.33-1.25.67,0,1S936.53,77.91,935.27,78.25Z" transform="translate(0.3 1.08)"/><path class="cls-36" d="M908.89,134.92c-.71,0-1,.31-1,1a1.46,1.46,0,0,1-1.21.29,3.15,3.15,0,0,1-2.12-1.46,2.17,2.17,0,0,1,1.24-2.2l.67-.11.66.18a5.65,5.65,0,0,0,1.11.77C908.83,133.74,909.41,134.08,908.89,134.92Z" transform="translate(0.3 1.08)"/><path class="cls-32" d="M993.12,131.88h1c0,1-1,1.24-1.41,1.91-1-.72-2.19-1.4-2.38-2.6-.08-.56,1.14-.19,1.76-.32l.48.16A5.75,5.75,0,0,0,993.12,131.88Z" transform="translate(0.3 1.08)"/><path class="cls-37" d="M940.35,101.52c1.08.15,1.75,1.51,3,1v1l-2,1a1.91,1.91,0,0,0-1.42-.55,1.34,1.34,0,0,1-.9-.51,1.06,1.06,0,0,1,.29-1Q940.4,102.57,940.35,101.52Z" transform="translate(0.3 1.08)"/><path class="cls-38" d="M968.77,124.8l1,2a7.42,7.42,0,0,0-1,1,.75.75,0,0,1-1-.77c.05-1.7-1.18-1.17-2.06-1.25a1,1,0,0,1-.32-.71c0-.27,0-.4.09-.4a2.47,2.47,0,0,1,1-.63,3.75,3.75,0,0,1,1.25,0l.57.26Z" transform="translate(0.3 1.08)"/><path class="cls-39" d="M919,122.77c-.15.72.48,1.77-.8,2-1,.19-1.49-.67-2-1.28s.25-.59.65-.75c.72-.29,1.41-.66,2.11-1,.31.23.41.45.31.68S919.14,122.77,919,122.77Z" transform="translate(0.3 1.08)"/><path class="cls-40" d="M929.19,119.74c-.06.85.55.82,1.15,1.05,1.24.48,1.19.83-.14,2a.62.62,0,0,0-1,0c-1,.36-1.26-.1-1-1v-2Q928.68,119.05,929.19,119.74Z" transform="translate(0.3 1.08)"/><path class="cls-41" d="M958.62,142c.15.77-.51,1.94,1,2,.12.8-.64,1-1,1.5s-1,.47-.94.06C958,144.39,956.44,142.68,958.62,142Z" transform="translate(0.3 1.08)"/><path class="cls-42" d="M922.08,82.3a2.48,2.48,0,0,1,2,2c.28.23.37.45.28.68s-.19.33-.28.33c-1.66.31-2.34-.36-2-2l-.39-.51Z" transform="translate(0.3 1.08)"/><path class="cls-43" d="M942.38,116.7c-1.66.31-2.34-.37-2-2-.37-1.05,0-1.32,1-1,0,.7.32,1,1,1l.4.27a3.92,3.92,0,0,1,.1,1A.89.89,0,0,1,942.38,116.7Z" transform="translate(0.3 1.08)"/><path class="cls-44" d="M909.9,143h-2a1.55,1.55,0,0,1-.46-1.77c.32-.62,1-.81,1.48-1.26C910.84,140.45,909.52,142,909.9,143Z" transform="translate(0.3 1.08)"/><path class="cls-45" d="M986,106.58c-2-.47-.63-2-1-3a1.42,1.42,0,0,1-.57-1l.15-.58.42-.44c.87-.06,1,.5,1,1.19v2.86c.29.23.39.45.29.68S986.12,106.58,986,106.58Z" transform="translate(0.3 1.08)"/><path class="cls-46" d="M902.8,115.69a18.24,18.24,0,0,1-2,1c-.45.16-1-.52-.81-.58,1.3-.37.11-2.51,1.83-2.43Z" transform="translate(0.3 1.08)"/><path class="cls-47" d="M911.93,121.76v-1l-.43-.51.43-.5c1,.29,2.58-.74,2.75.67C914.77,121.21,913.27,122.1,911.93,121.76Z" transform="translate(0.3 1.08)"/><path class="cls-48" d="M957.6,70.16h2c-.11.28-.16.75-.35.82-1.55.54.23,3.09-1.34,2.82C957.05,73.65,957.81,71.43,957.6,70.16Z" transform="translate(0.3 1.08)"/><path class="cls-40" d="M913,113.67l-1-2A10.74,10.74,0,0,0,913,111c.88-.64.84,0,.92.6a4.19,4.19,0,0,0,.84.55l.18.46a.87.87,0,0,1-1,1A.62.62,0,0,1,913,113.67Z" transform="translate(0.3 1.08)"/><path class="cls-49" d="M945.42,63.07l2-1c1.21,0,1.35,1.17.85,1.55C947.39,64.31,946.07,64.87,945.42,63.07Z" transform="translate(0.3 1.08)"/><path class="cls-50" d="M982,115.69c0-1.35,1-1,1.77-1s1.35-.06,1.28-1c1-.08,1.07.6,1,1.28-.06.51-.43.79-1,.75C984,115.65,983,115.69,982,115.69Z" transform="translate(0.3 1.08)"/><path class="cls-51" d="M933.24,138h-1a2.66,2.66,0,0,0-1.61-.64c-.52-.35-1-.72-.42-1.38,1.45,0,3-.29,3.85,1.35C934.31,137.82,933.74,138,933.24,138Z" transform="translate(0.3 1.08)"/><path class="cls-52" d="M994.14,143c0,.7-.31,1-1,1-.12-.61.25-1.26-.29-1.85-.21-.23-1.2-.51-.35-1s1.59-.43,1.66.82c.37.22.5.45.37.67S994.26,143,994.14,143Z" transform="translate(0.3 1.08)"/><path class="cls-53" d="M915,84.32h1l.51-.39.51.39c-1,.77-.31,2.72-2,3a2.14,2.14,0,0,1-.47-1,10.09,10.09,0,0,1,0-1.1A2,2,0,0,1,915,84.32Z" transform="translate(0.3 1.08)"/><path class="cls-43" d="M929.19,119.74h-1v-3a.64.64,0,0,1-.23-.67c.08-.23.15-.34.23-.34.88-.06,1,.5,1,1.19C929.18,117.83,929.19,118.78,929.19,119.74Z" transform="translate(0.3 1.08)"/><path class="cls-54" d="M919,122.77v-1a2.46,2.46,0,0,1,2-2,1.37,1.37,0,0,1,0,2Z" transform="translate(0.3 1.08)"/><path class="cls-55" d="M928.17,121.76c0,.7.31,1,1,1a.86.86,0,0,1-1,1,1,1,0,0,1-1,.3,2.72,2.72,0,0,1-1-1.31C926.23,121.26,927.4,121.91,928.17,121.76Z" transform="translate(0.3 1.08)"/><path class="cls-56" d="M959.63,84.32c.83-.12,1.11.62,1.53,1.05.83.84.08.94-.57,1s-1.32,0-2,0l-.4-.43c0-.19,0-.38,0-.58a4,4,0,0,1,.83-.81Z" transform="translate(0.3 1.08)"/><path class="cls-57" d="M924.11,73.19c0-.49.32-1.1.61-.79s1.64.56,1.06,1.64c-.21.39-.8.57-.65,1.17C923.61,75.13,924.26,74,924.11,73.19Z" transform="translate(0.3 1.08)"/><path class="cls-58" d="M941.36,73.19h1c.29.23.39.45.29.68s-.19.33-.29.33c-.11.28-.15.66-.35.82-.45.35-.68,1.27-1.35,1s-.21-1.17-.33-1.78A7.42,7.42,0,0,0,941.36,73.19Z" transform="translate(0.3 1.08)"/><path class="cls-59" d="M907.87,88.37c0-.47.21-1.13,0-1.38-1.79-2-.11-1.63,1-1.66C908.5,86.33,909.83,87.89,907.87,88.37Z" transform="translate(0.3 1.08)"/><path class="cls-60" d="M983,103.55c0-.67,0-1.33,0-2a.85.85,0,0,1,.77-1c.68-.08,1.35,0,1.28,1a1.6,1.6,0,0,0-.52,1,1.56,1.56,0,0,1-.5,1A.62.62,0,0,1,983,103.55Z" transform="translate(0.3 1.08)"/><path class="cls-61" d="M963.69,129.86c-.32,0-.64,0-1,0-.82,0-1.1-.39-1.08-1.14a.81.81,0,0,1,.84-.88c.69,0,1.25.13,1.19,1,.28.23.38.45.28.68S963.79,129.86,963.69,129.86Z" transform="translate(0.3 1.08)"/><path class="cls-62" d="M971.54,97.64c.39.48,1.17,1,1.1,1.43-.12.55-.93,1.42-1.33,1.36-1.23-.19-.23-1.28-.49-1.94C970.64,98,970.88,97.62,971.54,97.64Z" transform="translate(0.3 1.08)"/><path class="cls-63" d="M944.41,74.2c1.24-.06.91,1,1.1,1.61.14.46,1.41.67.48,1.29-.62.41-1.55.32-1.58-.87a1.57,1.57,0,0,1-.47-1A1,1,0,0,1,944.41,74.2Z" transform="translate(0.3 1.08)"/><path class="cls-2" d="M996.17,133.9l2-1a1.35,1.35,0,0,1,0,2,8.84,8.84,0,0,0-1,1h-1A1.41,1.41,0,0,1,996.17,133.9Z" transform="translate(0.3 1.08)"/><path class="cls-64" d="M906.86,135.93h1a10.66,10.66,0,0,0,.61,1.1c.64.88-.05.84-.61.92-.77-.15-1.94.5-2-1l.1-.38a1.58,1.58,0,0,1,.54-.55Z" transform="translate(0.3 1.08)"/><path class="cls-65" d="M968.77,77.24v4.05c-.71,0-1-.32-1-1-.25-.22-.34-.45-.25-.67s.17-.34.25-.34C967.9,78.5,967.25,77.32,968.77,77.24Z" transform="translate(0.3 1.08)"/><path class="cls-66" d="M921.07,83.31h-1l-.41-.26a1,1,0,0,1-.08-.94,2,2,0,0,1,.49-.82c.38-.42.56-1,1.05-1.32a.84.84,0,0,1,1,.3v2C921.78,82.67,921.4,83,921.07,83.31Z" transform="translate(0.3 1.08)"/><path class="cls-66" d="M941.36,113.67a.85.85,0,0,0-1,1c-1.43-.27-1.37-1.2-.55-1.88C940.34,112.36,941.34,112.48,941.36,113.67Z" transform="translate(0.3 1.08)"/><path class="cls-67" d="M963.69,68.13a.85.85,0,0,1-1,1c0-.7-.32-1-1-1,0-.7.31-1,1-1,.34-.49.67-.49,1,0,.36.22.48.45.36.67S963.81,68.13,963.69,68.13Z" transform="translate(0.3 1.08)"/><path class="cls-68" d="M974.86,90.39v-3l.5-.38.51.38C975.48,88.35,976.81,89.92,974.86,90.39Z" transform="translate(0.3 1.08)"/><path class="cls-69" d="M923.1,141v1a.68.68,0,0,1,.22.67c-.06.22-.12.34-.19.34a.82.82,0,0,1-1,0h-1a.67.67,0,0,1-.2-.67c.06-.23.13-.34.2-.34a12,12,0,0,1,1-1Z" transform="translate(0.3 1.08)"/><path class="cls-70" d="M916,115.69c.27-1.43,1.2-1.36,1.89-.54.44.53.32,1.52-.87,1.55a1.81,1.81,0,0,0-.85-.53Z" transform="translate(0.3 1.08)"/><path class="cls-27" d="M959.63,79.26c.28.11.66.15.82.35.35.45,1.28.68,1,1.35s-1.18.21-1.79.33l-.4-.29a3.5,3.5,0,0,1-.07-1l.07-.49Z" transform="translate(0.3 1.08)"/><path class="cls-27" d="M954.56,89.38c-.09,1.51-1.26.86-2,1C952.61,88.4,952.7,88.36,954.56,89.38Z" transform="translate(0.3 1.08)"/><path class="cls-71" d="M950.5,80.27a6.53,6.53,0,0,1,0,1c0,.29-.15.77-.32.82-.63.16-.72-.3-.69-.79a5.44,5.44,0,0,1,0-1c0-.29.15-.77.32-.82C950.44,79.32,950.53,79.78,950.5,80.27Z" transform="translate(0.3 1.08)"/><path class="cls-68" d="M972.83,88.37v2c-.61-.11-1.68.33-1.75-.31C971,89.18,971.85,88.55,972.83,88.37Z" transform="translate(0.3 1.08)"/><path class="cls-72" d="M978.92,86.35v3c-2-.47-.63-2-1-3A.58.58,0,0,1,978.92,86.35Z" transform="translate(0.3 1.08)"/><path class="cls-73" d="M922.08,80.27h-1a.62.62,0,0,1-1,0c0-.7.31-1,1-1a6.4,6.4,0,0,1,1,0c.3,0,.78.15.83.32C923,80.22,922.57,80.3,922.08,80.27Z" transform="translate(0.3 1.08)"/><path class="cls-33" d="M975.87,79.26c.28-.11.56-.24.85-.33s.47-1.08,1-.3a1.16,1.16,0,0,1,.14.91c-.3,1.17-1.29.6-2,.73Z" transform="translate(0.3 1.08)"/><path class="cls-73" d="M917,91.4a3.78,3.78,0,0,1,.65-1.11c.35-.27.68-1.38,1.25-.44A1,1,0,0,1,918,91.4.61.61,0,0,1,917,91.4Z" transform="translate(0.3 1.08)"/><path class="cls-72" d="M979.93,90.39c0-.7.31-1,1-1a.79.79,0,0,1,1.16-.09,2.09,2.09,0,0,1-.93,2.37l-.68.13-.57-.39Z" transform="translate(0.3 1.08)"/><path class="cls-74" d="M932.23,78.25v1c.07.95-.58,1.07-1.26,1a.78.78,0,0,1-.77-1C930.79,78.75,931,77.57,932.23,78.25Z" transform="translate(0.3 1.08)"/><path class="cls-75" d="M973.84,79.26c.13-.71-.43-1.7.74-2a1.2,1.2,0,0,1,.91.13c.78.55-.18.68-.3,1s-.22.56-.33.84Z" transform="translate(0.3 1.08)"/><path class="cls-67" d="M970.8,77.24a2.49,2.49,0,0,1,2,2h-2v-1c-.28-.22-.38-.45-.28-.67S970.7,77.24,970.8,77.24Z" transform="translate(0.3 1.08)"/><path class="cls-76" d="M996.17,143h-1a.6.6,0,0,1-.26-.67c.09-.23.18-.34.26-.34h2a.59.59,0,0,1,1,0v1a1.12,1.12,0,0,1-1,.49A1.78,1.78,0,0,1,996.17,143Z" transform="translate(0.3 1.08)"/><path class="cls-39" d="M926.14,91.4c1-1.38,2-1.38,3.05,0a3,3,0,0,1-1,.57,2.54,2.54,0,0,1-1.13.11A2.57,2.57,0,0,1,926.14,91.4Z" transform="translate(0.3 1.08)"/><path class="cls-36" d="M932.23,78.25l-2,1v-2h2Z" transform="translate(0.3 1.08)"/><path class="cls-66" d="M917,91.4h1c-.15.77.5,1.94-1,2-.61-.07-.65-.7-1-1a.71.71,0,0,1-.2-.68c.07-.22.14-.34.2-.34Z" transform="translate(0.3 1.08)"/><path class="cls-77" d="M954.56,154.14c-.27,1.43-1.21,1.37-1.89.55-.44-.54-.32-1.53.87-1.56l.48.18A1.72,1.72,0,0,1,954.56,154.14Z" transform="translate(0.3 1.08)"/><path class="cls-66" d="M921.07,121.76v-2h1c.38.4,1,.54,1.29,1a1,1,0,0,1-.27,1Z" transform="translate(0.3 1.08)"/><path class="cls-78" d="M992.11,121.76h-1l-.37-.09a1.61,1.61,0,0,1-.56-.54l-.08-.38v-1l.44-.44a1.84,1.84,0,0,1,1.77.24,2.28,2.28,0,0,1,.4,1.16c-.05.2-.1.4-.16.6Z" transform="translate(0.3 1.08)"/><path class="cls-33" d="M965.72,122.77c-.07-1,.58-1.06,1.26-1a.78.78,0,0,1,.77,1,.74.74,0,0,1,.25.67c0,.24-.08.35-.14.36l-.5.3-.59,0a2.24,2.24,0,0,1-.91-.73C965.82,123.16,965.77,123,965.72,122.77Z" transform="translate(0.3 1.08)"/><path class="cls-66" d="M952.53,76.23a.86.86,0,0,1,1-1,.68.68,0,0,1,1,0,2.5,2.5,0,0,1-2,2c-.3-.23-.4-.45-.3-.68S952.43,76.23,952.53,76.23Z" transform="translate(0.3 1.08)"/><path class="cls-43" d="M954.56,75.21h-1a2.36,2.36,0,0,0,0-.46c-.1-.52-1.28-.61-.69-1.28.3-.33,1.12-.2,1.71-.28A1.41,1.41,0,0,1,954.56,75.21Z" transform="translate(0.3 1.08)"/><path class="cls-79" d="M930.2,135.93c0,.7.31,1,1,1a.63.63,0,0,1,.22.67c-.07.23-.15.34-.22.34h-2C929.34,137.18,928.68,136,930.2,135.93Z" transform="translate(0.3 1.08)"/><path class="cls-30" d="M991.09,126.82c.71,0,1,.31,1,1a1.58,1.58,0,0,1,.43,1.62l-.43.41C990.15,129.38,991.48,127.82,991.09,126.82Z" transform="translate(0.3 1.08)"/><path class="cls-5" d="M903.81,127.83c1.52.09.86,1.26,1,2a.87.87,0,0,1-.31,1.17.94.94,0,0,1-1.13-.52C903.37,129.59,903,128.62,903.81,127.83Z" transform="translate(0.3 1.08)"/><path class="cls-80" d="M996.17,133.9v2c0,.7-.31,1-1,1C995.54,135.94,994.21,134.38,996.17,133.9Z" transform="translate(0.3 1.08)"/><path class="cls-81" d="M968.77,74.2v1c-.29.12-.56.24-.85.34s-.48,1.07-1,.3a1.25,1.25,0,0,1-.14-.91C967.06,73.77,968.05,74.33,968.77,74.2Z" transform="translate(0.3 1.08)"/><path class="cls-82" d="M908.89,134.92a.87.87,0,0,0-1-1c-.13-.16-.25-.33-.38-.5l.38-.51c.72.14,1.77-.46,2,.76C910,134.31,909.85,135,908.89,134.92Z" transform="translate(0.3 1.08)"/><path class="cls-2" d="M991.09,95.45v-1a2.83,2.83,0,0,1,1-.7,3.75,3.75,0,0,1,1.25,0l.58.23.47.42a.83.83,0,0,1-.26,1.07,2.73,2.73,0,0,1-1,.57,2.45,2.45,0,0,1-1.14.11A2.14,2.14,0,0,1,991.09,95.45Z" transform="translate(0.3 1.08)"/><path class="cls-53" d="M913,95.45a.86.86,0,0,1-1,1,.76.76,0,0,1-1.13.17l-.27-.62.39-.56h1l.51-.42Z" transform="translate(0.3 1.08)"/><path class="cls-2" d="M991.09,95.45h1a.78.78,0,0,1,.33.75c-.05.28-.11.41-.19.42a.79.79,0,0,1-1.16-.16c-.49,0-.94-.06-.8-.67C990.33,95.63,990.81,95.56,991.09,95.45Z" transform="translate(0.3 1.08)"/><path class="cls-59" d="M905.84,130.87c.77.15,1.95-.5,2,1a1.19,1.19,0,0,1-1.06.5,2,2,0,0,1-1.15-.39c-.06-.2-.11-.4-.17-.6Z" transform="translate(0.3 1.08)"/><path class="cls-5" d="M910.92,96.46h1v1h-1c-.18.13-.35.27-.52.41l-.61-.27a.88.88,0,0,1,.11-1.16Q910.41,95.74,910.92,96.46Z" transform="translate(0.3 1.08)"/><path class="cls-60" d="M991.09,96.46h1l.51-.46.5.46c-.08,1.52-1.26.86-2,1Z" transform="translate(0.3 1.08)"/><path class="cls-83" d="M932.23,149.08c0-.33,0-.66,0-1,0-.49,0-1,.68-.82.16,0,.27.53.32.82a5.45,5.45,0,0,1,0,1A.61.61,0,0,1,932.23,149.08Z" transform="translate(0.3 1.08)"/><path class="cls-40" d="M932.23,149.08h1a.85.85,0,0,1-1,1,.7.7,0,0,1-1,.08l-.27-.55c.09-.18.19-.36.29-.54Z" transform="translate(0.3 1.08)"/><path class="cls-43" d="M946.44,80.27a.86.86,0,0,1,1,1c.26.22.35.45.26.67s-.17.34-.26.34c-.7,0-1-.31-1-1-.28-.23-.38-.45-.28-.68S946.34,80.27,946.44,80.27Z" transform="translate(0.3 1.08)"/><path class="cls-33" d="M998.2,134.92v-2a1,1,0,0,1,1.19-.15.88.88,0,0,1-.18,1.16v1Z" transform="translate(0.3 1.08)"/><path class="cls-2" d="M958.62,85.33v1c0,.49-.07.94-.67.8-.17,0-.24-.52-.35-.8a.81.81,0,0,1-.32-.73c.05-.28.11-.41.18-.41A.88.88,0,0,1,958.62,85.33Z" transform="translate(0.3 1.08)"/><path class="cls-73" d="M935.27,76.23v-1a.68.68,0,0,1,1,0h1C937.22,76.73,936,76.07,935.27,76.23Z" transform="translate(0.3 1.08)"/><path class="cls-84" d="M970.8,94.44a.86.86,0,0,1-1,1,.64.64,0,0,1-.23-.67c.08-.23.16-.34.23-.34,0-.7.31-1,1-1,.35.22.47.45.35.67S970.92,94.44,970.8,94.44Z" transform="translate(0.3 1.08)"/><path class="cls-85" d="M954.56,75.21v-2c1-.07,1.07.58,1,1.26A.78.78,0,0,1,954.56,75.21Z" transform="translate(0.3 1.08)"/><path class="cls-86" d="M913,94.44c-.07-.49.11-.86.62-.85.14,0,.35.46.37.73.07.68-.17,1.19-1,1.13-.26-.22-.35-.45-.26-.67S912.86,94.44,913,94.44Z" transform="translate(0.3 1.08)"/><path class="cls-87" d="M908.89,93.43h2v1q-.51.74-1,0h-1c-.26-.22-.35-.45-.26-.67S908.8,93.43,908.89,93.43Z" transform="translate(0.3 1.08)"/><path class="cls-2" d="M992.11,94.44h-1v-2a1,1,0,0,1,1.15-.21,2.1,2.1,0,0,1,.47,1.15A1.83,1.83,0,0,1,992.11,94.44Z" transform="translate(0.3 1.08)"/><path class="cls-88" d="M927.16,102.54c-.08-1,.57-1.07,1.26-1a.8.8,0,0,1,.77,1A1.39,1.39,0,0,1,927.16,102.54Z" transform="translate(0.3 1.08)"/><path class="cls-88" d="M928.17,92.42c-.15.76.5,1.93-1,2v-1l-.42-.53.27-.61.62-.26Z" transform="translate(0.3 1.08)"/><path class="cls-73" d="M916,92.42a.86.86,0,0,1,1,1c0,.49-.06,1-.69.79-.17,0-.27-.52-.32-.82A6.4,6.4,0,0,1,916,92.42Z" transform="translate(0.3 1.08)"/><path class="cls-89" d="M973.84,124.8c.49-.07.87.11.86.62,0,.13-.47.35-.73.37-.69.07-1.2-.17-1.14-1A.58.58,0,0,1,973.84,124.8Z" transform="translate(0.3 1.08)"/><path class="cls-89" d="M970.8,101.52c1-.07,1.07.58,1,1.26a.78.78,0,0,1-1,.77,2.11,2.11,0,0,1-.53-1c0-.2.06-.39.08-.59Z" transform="translate(0.3 1.08)"/><path class="cls-33" d="M973.84,124.8h-1c-.71,0-1-.31-1-1q.51-.72,1,0A.86.86,0,0,1,973.84,124.8Z" transform="translate(0.3 1.08)"/><path class="cls-55" d="M953.54,153.13v-2a.62.62,0,0,1,1,0v2A.63.63,0,0,1,953.54,153.13Z" transform="translate(0.3 1.08)"/><path class="cls-90" d="M965.72,124.8v1c-1.52-.09-.86-1.26-1-2a.78.78,0,0,1,1.08,0A.7.7,0,0,1,965.72,124.8Z" transform="translate(0.3 1.08)"/><path class="cls-66" d="M927.16,123.78h1c.07,1-.58,1.07-1.26,1a.79.79,0,0,1-.77-1A.6.6,0,0,1,927.16,123.78Z" transform="translate(0.3 1.08)"/><path class="cls-91" d="M993.12,138c-.82.05-1.06-.45-1-1.14,0-.26.23-.72.37-.73.51,0,.69.37.62.86.36.22.48.45.36.67S993.24,138,993.12,138Z" transform="translate(0.3 1.08)"/><path class="cls-92" d="M910.92,103.55h-1c-.34-.23-.46-.45-.34-.68s.23-.33.34-.33a1.33,1.33,0,0,1,1-.47,1.37,1.37,0,0,1,1,.47v1A.62.62,0,0,1,910.92,103.55Z" transform="translate(0.3 1.08)"/><path class="cls-40" d="M927.16,123.78h-1c-.49,0-.94-.06-.8-.67,0-.16.52-.23.8-.34C926.84,122.75,927.18,123.08,927.16,123.78Z" transform="translate(0.3 1.08)"/><path class="cls-66" d="M927.16,102.54h2c0,.7-.32,1-1,1a.82.82,0,0,1-1.13.14A.85.85,0,0,1,927.16,102.54Z" transform="translate(0.3 1.08)"/><path class="cls-93" d="M939.33,102.54v1c.36.22.48.45.36.67s-.24.34-.36.34c-1,.07-1.07-.58-1-1.26A.78.78,0,0,1,939.33,102.54Z" transform="translate(0.3 1.08)"/><path class="cls-6" d="M993.12,123.78c-1.51-.08-.86-1.25-1-2a.84.84,0,0,1,1.09-.24,1.76,1.76,0,0,1,.47,1.14A2,2,0,0,1,993.12,123.78Z" transform="translate(0.3 1.08)"/><path class="cls-2" d="M971.81,122.77c-.49,0-1,0-.79-.68,0-.17.52-.27.82-.32a6.53,6.53,0,0,1,1,0c.25.23.34.45.25.68s-.17.33-.25.33A.58.58,0,0,1,971.81,122.77Z" transform="translate(0.3 1.08)"/><path class="cls-94" d="M927.16,103.55h1c.07,1-.58,1.07-1.26,1a.79.79,0,0,1-.77-1A.62.62,0,0,1,927.16,103.55Z" transform="translate(0.3 1.08)"/><path class="cls-95" d="M972.83,153.13c-.08-.95.58-1.07,1.26-1a.79.79,0,0,1,.77,1Z" transform="translate(0.3 1.08)"/><path class="cls-84" d="M989.06,121.76c-.49,0-1-.05-.79-.68.05-.17.53-.27.82-.32a6.53,6.53,0,0,1,1,0l.39.54-.27.61A.82.82,0,0,1,989.06,121.76Z" transform="translate(0.3 1.08)"/><path class="cls-56" d="M972.83,122.77v-2a.73.73,0,0,1,1,0C973.69,121.52,974.34,122.69,972.83,122.77Z" transform="translate(0.3 1.08)"/><path class="cls-96" d="M904.83,122.77v-1c-.07-.49.11-.86.62-.85.14,0,.35.46.38.73C905.89,122.32,905.65,122.83,904.83,122.77Z" transform="translate(0.3 1.08)"/><path class="cls-73" d="M952.53,76.23v1a.68.68,0,0,1-1,0c-.49,0-1-.06-.79-.68,0-.17.53-.27.82-.32A5.45,5.45,0,0,1,952.53,76.23Z" transform="translate(0.3 1.08)"/><path class="cls-88" d="M923.1,121.76v-1c-.26-.23-.35-.45-.26-.68s.17-.33.26-.33c.95-.08,1.07.57,1,1.25A.78.78,0,0,1,923.1,121.76Z" transform="translate(0.3 1.08)"/><path class="cls-83" d="M952.53,150.09a.86.86,0,0,1-1-1c-.14-.17-.27-.34-.42-.5l.42-.51c.71,0,1,.31,1,1,.29.23.38.45.29.68S952.63,150.09,952.53,150.09Z" transform="translate(0.3 1.08)"/><path class="cls-87" d="M929.19,144h2a.86.86,0,0,1-1,1h-1a.62.62,0,0,1-.23-.67C929,144.14,929.11,144,929.19,144Z" transform="translate(0.3 1.08)"/><path class="cls-73" d="M953.54,153.13h1c.49,0,.94.06.8.67,0,.17-.52.23-.8.34A.86.86,0,0,1,953.54,153.13Z" transform="translate(0.3 1.08)"/><path class="cls-40" d="M941.36,156.17c-1,.07-1.07-.58-1-1.26a.79.79,0,0,1,1-.77A1.39,1.39,0,0,1,941.36,156.17Z" transform="translate(0.3 1.08)"/><path class="cls-84" d="M990.08,90.39v2h-1c-.35-.23-.47-.45-.35-.68s.24-.34.35-.34v-1l.51-.38Z" transform="translate(0.3 1.08)"/><path class="cls-90" d="M957.6,85.33v1c-1,.07-1.07-.58-1-1.26a.78.78,0,0,1,1-.77c.35.23.47.45.35.68S957.72,85.33,957.6,85.33Z" transform="translate(0.3 1.08)"/><path class="cls-86" d="M904.83,116.7c0,.83-.45,1.06-1.14,1-.27,0-.73-.24-.73-.37,0-.51.36-.69.85-.63Z" transform="translate(0.3 1.08)"/><path class="cls-97" d="M939.33,109.62c-1,.07-1.07-.58-1-1.26a.79.79,0,0,1,1-.77,2,2,0,0,1,.49,1A1,1,0,0,1,939.33,109.62Z" transform="translate(0.3 1.08)"/><path class="cls-88" d="M924.11,85.33v-1c.83,0,1.06.45,1,1.14,0,.26-.24.73-.37.73C924.23,86.2,924.05,85.82,924.11,85.33Z" transform="translate(0.3 1.08)"/><path class="cls-98" d="M948.47,107.59h1c0,.34,0,.67,0,1,0,.49-.06,1-.68.82-.17,0-.28-.53-.33-.82A6.66,6.66,0,0,1,948.47,107.59Z" transform="translate(0.3 1.08)"/><path class="cls-83" d="M916,116.7a.85.85,0,0,1-1,1,1.41,1.41,0,0,1,0-2h1c.26.22.35.45.26.67S916.08,116.7,916,116.7Z" transform="translate(0.3 1.08)"/><path class="cls-99" d="M974.86,108.61h-2c-.08-1,.58-1.07,1.26-1A.8.8,0,0,1,974.86,108.61Z" transform="translate(0.3 1.08)"/><path class="cls-66" d="M915,115.69v2c-1,.08-1.07-.57-1-1.25A.79.79,0,0,1,915,115.69Z" transform="translate(0.3 1.08)"/><path class="cls-54" d="M941.36,156.17v-2c.71,0,1,.31,1,1,.29.23.39.45.29.68s-.19.34-.29.34Z" transform="translate(0.3 1.08)"/><path class="cls-52" d="M988.05,146.05c-.83,0-1.06-.45-1-1.14,0-.27.24-.73.37-.73.51,0,.69.37.63.85a.65.65,0,0,1,.23.68C988.2,145.93,988.13,146.05,988.05,146.05Z" transform="translate(0.3 1.08)"/><path class="cls-54" d="M946.44,80.27v1c-.83,0-1.07-.45-1-1.14,0-.27.24-.73.37-.73C946.32,79.41,946.5,79.79,946.44,80.27Z" transform="translate(0.3 1.08)"/><path class="cls-67" d="M971.81,110.63h1a.66.66,0,0,1,1,0,.85.85,0,0,1-1,1h-1a.64.64,0,0,1-.23-.67C971.66,110.74,971.74,110.63,971.81,110.63Z" transform="translate(0.3 1.08)"/><path class="cls-99" d="M998.2,142h-1c.09-1.51,1.26-.86,2-1C999.24,141.69,998.9,142,998.2,142Z" transform="translate(0.3 1.08)"/><path class="cls-46" d="M913,146.05v1c-1.88.09-1.58-.9-1-2A.87.87,0,0,1,913,146.05Z" transform="translate(0.3 1.08)"/><path class="cls-50" d="M983,112.65a.87.87,0,0,1-1,1Q981.92,112.62,983,112.65Z" transform="translate(0.3 1.08)"/><path class="cls-83" d="M915,111.64c.49,0,.94.07.8.67,0,.17-.52.23-.8.34a.62.62,0,0,1-.23-.67C914.83,111.75,914.9,111.64,915,111.64Z" transform="translate(0.3 1.08)"/><path class="cls-73" d="M915,111.64v1c-.71,0-1-.31-1-1Z" transform="translate(0.3 1.08)"/><path class="cls-5" d="M913,113.67h1c0,.7-.31,1-1,1Z" transform="translate(0.3 1.08)"/><path class="cls-4" d="M901.78,111.64c.71,0,1,.31,1,1h-1a.6.6,0,0,1-.26-.67C901.61,111.75,901.7,111.64,901.78,111.64Z" transform="translate(0.3 1.08)"/><path class="cls-54" d="M942.38,114.68c0-.49.06-.94.67-.8.17,0,.23.52.34.8C943.06,115.14,942.72,115.14,942.38,114.68Z" transform="translate(0.3 1.08)"/><path class="cls-99" d="M971.81,110.63v1a.85.85,0,0,1-1-1Z" transform="translate(0.3 1.08)"/><path class="cls-94" d="M941.36,109.62c.5,0,.95.06.81.67,0,.17-.53.23-.81.34-.25-.22-.34-.45-.25-.67S941.28,109.62,941.36,109.62Z" transform="translate(0.3 1.08)"/><path class="cls-43" d="M942.38,114.68h1v1a.58.58,0,0,1-1,0Z" transform="translate(0.3 1.08)"/><path class="cls-97" d="M941.36,109.62v1a.85.85,0,0,1-1-1A.61.61,0,0,1,941.36,109.62Z" transform="translate(0.3 1.08)"/><path class="cls-40" d="M941.36,109.62h-1c-.29-.23-.39-.45-.29-.68s.19-.33.29-.33A.85.85,0,0,1,941.36,109.62Z" transform="translate(0.3 1.08)"/><path class="cls-83" d="M940.35,108.61v1h-1v-1A.66.66,0,0,1,940.35,108.61Z" transform="translate(0.3 1.08)"/><path class="cls-99" d="M970.8,108.61h-1c0-.5.07-.94.67-.81C970.62,107.84,970.69,108.33,970.8,108.61Z" transform="translate(0.3 1.08)"/><path class="cls-73" d="M916,116.7v-1a.86.86,0,0,1,1,1Z" transform="translate(0.3 1.08)"/><path class="cls-83" d="M928.17,115.69v1c-.49,0-.94-.06-.8-.67C927.4,115.87,927.89,115.8,928.17,115.69Z" transform="translate(0.3 1.08)"/><path class="cls-43" d="M940.35,108.61h-1v-1Q940.4,107.56,940.35,108.61Z" transform="translate(0.3 1.08)"/><path class="cls-73" d="M942.38,115.69h1a.67.67,0,0,1,.2.67c-.06.23-.13.34-.2.34h-1Z" transform="translate(0.3 1.08)"/><path class="cls-88" d="M943.39,116.7v-1c.5,0,1,.06.81.67C944.16,116.53,943.67,116.59,943.39,116.7Z" transform="translate(0.3 1.08)"/><path class="cls-91" d="M981,115.69h1c0,.49-.06.94-.67.8C981.12,116.45,981.06,116,981,115.69Z" transform="translate(0.3 1.08)"/><path class="cls-84" d="M988,107.17c-.12.12-.29.33-.32.31a1.4,1.4,0,0,1-.6-.45c-.21-.43,0-.64.43-.43C987.69,106.7,987.81,107,988,107.17Z" transform="translate(0.3 1.08)"/><path class="cls-98" d="M947.45,106.58c.71,0,1,.31,1,1A.86.86,0,0,1,947.45,106.58Z" transform="translate(0.3 1.08)"/><path class="cls-91" d="M991.09,105.57c.71,0,1,.31,1,1h-1c-.29-.22-.38-.45-.29-.67S991,105.57,991.09,105.57Z" transform="translate(0.3 1.08)"/><path class="cls-83" d="M910.92,119.74v-1a.85.85,0,0,1,1,1l-.51.43Z" transform="translate(0.3 1.08)"/><path class="cls-100" d="M989.06,119.74v-1h1c.25.22.34.45.25.67s-.16.34-.25.34Z" transform="translate(0.3 1.08)"/><path class="cls-2" d="M991.09,105.57v1a.85.85,0,0,1-1-1l.51-.38Z" transform="translate(0.3 1.08)"/><path class="cls-33" d="M986,106.58v-1c.7,0,1,.31,1,1Z" transform="translate(0.3 1.08)"/><path class="cls-52" d="M989.06,104.56h1a.64.64,0,0,1,.23.67c-.08.23-.15.34-.23.34A.86.86,0,0,1,989.06,104.56Z" transform="translate(0.3 1.08)"/><path class="cls-43" d="M909.9,104.56h1a.86.86,0,0,1-1,1,.63.63,0,0,1-.22-.67C909.75,104.67,909.83,104.56,909.9,104.56Z" transform="translate(0.3 1.08)"/><path class="cls-101" d="M973.84,120.75h-1c0-.49.06-.94.67-.8C973.67,120,973.73,120.47,973.84,120.75Z" transform="translate(0.3 1.08)"/><path class="cls-74" d="M909.9,104.56v1h-1A.85.85,0,0,1,909.9,104.56Z" transform="translate(0.3 1.08)"/><path class="cls-61" d="M983,103.55h1a.85.85,0,0,1-1,1,.69.69,0,0,1-.2-.68C982.84,103.66,982.91,103.55,983,103.55Z" transform="translate(0.3 1.08)"/><path class="cls-27" d="M983,103.55v1c-.5,0-1-.07-.81-.67C982.21,103.72,982.69,103.66,983,103.55Z" transform="translate(0.3 1.08)"/><path class="cls-98" d="M949.48,104.56a.85.85,0,0,1-1-1A.85.85,0,0,1,949.48,104.56Z" transform="translate(0.3 1.08)"/><path class="cls-55" d="M940.35,103.55a.85.85,0,0,1,1,1h-1c-.26-.23-.35-.45-.26-.68S940.26,103.55,940.35,103.55Z" transform="translate(0.3 1.08)"/><circle class="cls-102" cx="940.14" cy="105.13" r="0.72"/><path class="cls-83" d="M929.19,122.77c0-.49.06-.94.67-.8.16,0,.23.52.34.8Z" transform="translate(0.3 1.08)"/><path class="cls-43" d="M910.92,103.55h1a.85.85,0,0,1-1,1Z" transform="translate(0.3 1.08)"/><path class="cls-33" d="M989.06,102.54c0,.7-.31,1-1,1v-1C988.39,102.08,988.73,102.08,989.06,102.54Z" transform="translate(0.3 1.08)"/><path class="cls-27" d="M989.06,121.76h1a.61.61,0,0,1,.26.68c-.09.22-.17.33-.26.33A.86.86,0,0,1,989.06,121.76Z" transform="translate(0.3 1.08)"/><path class="cls-56" d="M990.08,122.77v-1a.66.66,0,0,1,1,0A.85.85,0,0,1,990.08,122.77Z" transform="translate(0.3 1.08)"/><path class="cls-61" d="M984,103.55v-1a.66.66,0,0,1,1,0v1Z" transform="translate(0.3 1.08)"/><path class="cls-27" d="M970.8,102.54v1c-.71,0-1-.31-1-1l.51-.42Z" transform="translate(0.3 1.08)"/><path class="cls-43" d="M927.16,103.55h-1c0-.7.31-1,1-1Z" transform="translate(0.3 1.08)"/><path class="cls-33" d="M965.72,123.78h-1c0-.7.31-1,1-1l.39.51Z" transform="translate(0.3 1.08)"/><path class="cls-84" d="M967.75,123.78v-1c.7,0,1,.31,1,1l-.27.4H968Z" transform="translate(0.3 1.08)"/><circle class="cls-56" cx="972.62" cy="124.36" r="0.72"/><path class="cls-103" d="M989.06,102.54h-1v-1a.62.62,0,0,1,1,0Z" transform="translate(0.3 1.08)"/><path class="cls-103" d="M968.77,123.78c.49,0,.94.07.8.68,0,.16-.52.23-.8.34-.34-.23-.45-.45-.34-.68S968.65,123.78,968.77,123.78Z" transform="translate(0.3 1.08)"/><path class="cls-2" d="M969.78,102.54c-.49,0-.94-.07-.8-.67,0-.17.52-.24.8-.35l.43.51Z" transform="translate(0.3 1.08)"/><path class="cls-53" d="M911.93,102.54h-1c-.26-.23-.35-.45-.26-.68s.17-.34.26-.34h1Z" transform="translate(0.3 1.08)"/><path class="cls-2" d="M968.77,127.83a.85.85,0,0,1,1-1A.85.85,0,0,1,968.77,127.83Z" transform="translate(0.3 1.08)"/><circle class="cls-2" cx="988.86" cy="102.1" r="0.72"/><path class="cls-61" d="M970.8,100.51v1a.62.62,0,0,1-1,0C969.76,100.82,970.09,100.49,970.8,100.51Z" transform="translate(0.3 1.08)"/><path class="cls-91" d="M963.69,129.86v-1a.87.87,0,0,1,1,1A.74.74,0,0,1,963.69,129.86Z" transform="translate(0.3 1.08)"/><path class="cls-103" d="M968.77,129.86c-.5,0-.95-.07-.81-.67,0-.17.53-.23.81-.35a.71.71,0,0,1,.19.68C968.9,129.74,968.83,129.86,968.77,129.86Z" transform="translate(0.3 1.08)"/><path class="cls-2" d="M968.77,129.86v-1c.49,0,.94.07.8.67C969.53,129.68,969.05,129.75,968.77,129.86Z" transform="translate(0.3 1.08)"/><path class="cls-4" d="M904.83,130.87v-1a.85.85,0,0,1,1,1l-.5.38Z" transform="translate(0.3 1.08)"/><path class="cls-60" d="M963.69,129.86h1c0,.49-.07.94-.68.8C963.87,130.62,963.8,130.14,963.69,129.86Z" transform="translate(0.3 1.08)"/><path class="cls-4" d="M992.11,130.87v-1a.8.8,0,0,1,1.14-.17.88.88,0,0,1-.13,1.18A.66.66,0,0,1,992.11,130.87Z" transform="translate(0.3 1.08)"/><path class="cls-53" d="M906.86,131.88h1v1a.66.66,0,0,1-1,0c-.34-.22-.45-.45-.34-.67S906.75,131.88,906.86,131.88Z" transform="translate(0.3 1.08)"/><path class="cls-91" d="M969.78,94.44v1c-.49,0-.94-.06-.8-.67C969,94.62,969.5,94.55,969.78,94.44Z" transform="translate(0.3 1.08)"/><path class="cls-49" d="M913,94.44v1h-1C911.91,94.75,912.24,94.41,913,94.44Z" transform="translate(0.3 1.08)"/><path class="cls-4" d="M909.9,94.44h1v1a.62.62,0,0,1-1,0Z" transform="translate(0.3 1.08)"/><path class="cls-52" d="M971.81,93.43c.49,0,.94.06.81.67,0,.16-.53.23-.81.34-.26-.22-.35-.45-.26-.67S971.72,93.43,971.81,93.43Z" transform="translate(0.3 1.08)"/><path class="cls-80" d="M997.18,135.93a.86.86,0,0,1,1-1C998.22,135.62,997.89,136,997.18,135.93Z" transform="translate(0.3 1.08)"/><circle class="cls-2" cx="971.61" cy="95.02" r="0.72"/><path class="cls-2" d="M979.93,92.42c0,.7-.31,1-1,1v-1A.61.61,0,0,1,979.93,92.42Z" transform="translate(0.3 1.08)"/><path class="cls-63" d="M927.16,92.42v1c-.71,0-1-.31-1-1A.58.58,0,0,1,927.16,92.42Z" transform="translate(0.3 1.08)"/><path class="cls-2" d="M993.12,138v-1h1a.64.64,0,0,1,.23.67c-.08.23-.15.34-.23.34Z" transform="translate(0.3 1.08)"/><path class="cls-103" d="M994.14,138v-1h1A.85.85,0,0,1,994.14,138Z" transform="translate(0.3 1.08)"/><path class="cls-104" d="M1002.26,136.94c.49,0,.94.06.8.67,0,.17-.52.23-.8.34Z" transform="translate(0.3 1.08)"/><path class="cls-27" d="M979.93,92.42h-1a.86.86,0,0,1,1-1c.35.23.46.45.35.68S980.05,92.42,979.93,92.42Z" transform="translate(0.3 1.08)"/><path class="cls-68" d="M973.84,92.42c0-.7.31-1,1-1C974.88,92.11,974.54,92.44,973.84,92.42Z" transform="translate(0.3 1.08)"/><path class="cls-69" d="M924.11,140h-1c0-.5.06-.94.67-.81C923.93,139.21,924,139.7,924.11,140Z" transform="translate(0.3 1.08)"/><path class="cls-69" d="M925.13,141c-.71,0-1-.31-1-1A.86.86,0,0,1,925.13,141Z" transform="translate(0.3 1.08)"/><path class="cls-73" d="M927.16,92.42h-1v-1h1c.33.23.44.45.33.68S927.27,92.42,927.16,92.42Z" transform="translate(0.3 1.08)"/><path class="cls-93" d="M916,91.4v1c-.49,0-.94-.07-.8-.67C915.22,91.58,915.71,91.52,916,91.4Z" transform="translate(0.3 1.08)"/><path class="cls-97" d="M926.14,88.37c0,.49-.06.94-.67.8-.17,0-.23-.52-.34-.8A.61.61,0,0,1,926.14,88.37Z" transform="translate(0.3 1.08)"/><path class="cls-4" d="M922.08,141c0,.7-.31,1-1,1v-1Z" transform="translate(0.3 1.08)"/><path class="cls-9" d="M960.65,142a.85.85,0,0,1,1-1C961.69,141.69,961.35,142,960.65,142Z" transform="translate(0.3 1.08)"/><path class="cls-68" d="M973.84,87.36c0,.7-.31,1-1,1v-1l.5-.42Z" transform="translate(0.3 1.08)"/><path class="cls-43" d="M926.14,88.37h-1a.69.69,0,0,1-.2-.68c.06-.22.13-.33.2-.33A.85.85,0,0,1,926.14,88.37Z" transform="translate(0.3 1.08)"/><path class="cls-99" d="M1001.24,141v1l-.5.38-.51-.38v-1Z" transform="translate(0.3 1.08)"/><path class="cls-83" d="M925.13,87.36v1c-.5,0-1-.07-.81-.67C924.36,87.53,924.85,87.47,925.13,87.36Z" transform="translate(0.3 1.08)"/><circle class="cls-103" cx="994.95" cy="143.59" r="0.72"/><path class="cls-52" d="M976.89,86.35c0,.7-.32,1-1,1l-.43-.52.28-.6A.87.87,0,0,1,976.89,86.35Z" transform="translate(0.3 1.08)"/><path class="cls-45" d="M972.83,87.36c-.5,0-1-.07-.81-.67,0-.17.53-.23.81-.34l.43.5Z" transform="translate(0.3 1.08)"/><path class="cls-53" d="M915,86.35v1c-.71,0-1-.31-1-1Q914.47,85.66,915,86.35Z" transform="translate(0.3 1.08)"/><path class="cls-56" d="M972.83,85.33h1v1a.62.62,0,0,1-1,0Z" transform="translate(0.3 1.08)"/><path class="cls-61" d="M957.6,85.33v-1h1l.38.51-.38.5Z" transform="translate(0.3 1.08)"/><path class="cls-27" d="M990.08,144v1l-.51.39-.51-.39C989,144.33,989.38,144,990.08,144Z" transform="translate(0.3 1.08)"/><path class="cls-27" d="M992.11,144v1a.86.86,0,0,1-1-1Z" transform="translate(0.3 1.08)"/><path class="cls-4" d="M958.62,83.31h1v1a.66.66,0,0,1-1,0Z" transform="translate(0.3 1.08)"/><path class="cls-92" d="M920.05,83.31c0,.49-.06.94-.67.8-.17,0-.23-.52-.34-.8l.5-.42Z" transform="translate(0.3 1.08)"/><path class="cls-84" d="M988.05,146.05v-1h1a.69.69,0,0,1,.26.69c-.06.25-.13.37-.2.37A.77.77,0,0,1,988.05,146.05Z" transform="translate(0.3 1.08)"/><path class="cls-4" d="M918,83.31a.85.85,0,0,1-1,1,.79.79,0,0,1-.34-.73q0-.42.15-.42l.63-.21Z" transform="translate(0.3 1.08)"/><path class="cls-73" d="M921.07,83.31a.85.85,0,0,1,1-1v1Z" transform="translate(0.3 1.08)"/><path class="cls-5" d="M918,82.3h1c.14.17.28.34.43.5l-.43.51h-1l-.39-.51Z" transform="translate(0.3 1.08)"/><path class="cls-33" d="M988.05,146.05h1c.15.16.3.33.44.5l-.44.51C988.36,147.08,988,146.75,988.05,146.05Z" transform="translate(0.3 1.08)"/><path class="cls-56" d="M959.63,82.3c-.7,0-1-.31-1-1,.34-.46.67-.46,1,0Z" transform="translate(0.3 1.08)"/><path class="cls-73" d="M947.45,82.3v-1h1C948.49,82,948.16,82.32,947.45,82.3Z" transform="translate(0.3 1.08)"/><path class="cls-27" d="M956.59,81.29c0-.5.06-.94.67-.81.17,0,.23.53.34.81Z" transform="translate(0.3 1.08)"/><path class="cls-94" d="M950.5,148.07c0-.49.06-.94.67-.8.17,0,.23.52.34.8A.66.66,0,0,1,950.5,148.07Z" transform="translate(0.3 1.08)"/><path class="cls-89" d="M967.75,79.26v1c-.49,0-.94-.06-.8-.67C967,79.44,967.47,79.37,967.75,79.26Z" transform="translate(0.3 1.08)"/><path class="cls-27" d="M958.62,79.26c0-.49.06-.94.67-.8.17,0,.23.52.34.8C959.29,79.72,959,79.72,958.62,79.26Z" transform="translate(0.3 1.08)"/><path class="cls-54" d="M951.51,77.24h1c0,.49-.07.94-.67.8C951.69,78,951.62,77.52,951.51,77.24Z" transform="translate(0.3 1.08)"/><path class="cls-5" d="M920.05,78.25h-1a.6.6,0,0,1-.26-.67c.09-.23.17-.34.26-.34h1Z" transform="translate(0.3 1.08)"/><path class="cls-49" d="M930.2,148.07a.86.86,0,0,1,1,1q-.51.72-1,0c-.34-.22-.46-.45-.34-.67S930.08,148.07,930.2,148.07Z" transform="translate(0.3 1.08)"/><path class="cls-93" d="M950.5,148.07h1v1A.85.85,0,0,1,950.5,148.07Z" transform="translate(0.3 1.08)"/><path class="cls-89" d="M976.89,149.08a.85.85,0,0,1,1-1l.43.54c-.08.21-.17.42-.26.63A.88.88,0,0,1,976.89,149.08Z" transform="translate(0.3 1.08)"/><path class="cls-2" d="M977.9,149.08v-1h1v1A.63.63,0,0,1,977.9,149.08Z" transform="translate(0.3 1.08)"/><path class="cls-4" d="M920.05,77.24v-1q.51-.69,1,0C921.09,76.93,920.75,77.26,920.05,77.24Z" transform="translate(0.3 1.08)"/><path class="cls-40" d="M944.41,75.21v1c-.7,0-1-.31-1-1A.58.58,0,0,1,944.41,75.21Z" transform="translate(0.3 1.08)"/><circle class="cls-102" cx="944.2" cy="75.79" r="0.72"/><path class="cls-83" d="M952.53,150.09v-1c.7,0,1,.31,1,1Z" transform="translate(0.3 1.08)"/><path class="cls-36" d="M942.38,74.2v-1c.7,0,1,.31,1,1Z" transform="translate(0.3 1.08)"/><path class="cls-105" d="M937.3,74.2v-1h1C938.35,73.89,938,74.23,937.3,74.2Z" transform="translate(0.3 1.08)"/><path class="cls-66" d="M931.22,150.09h1a.86.86,0,0,1-1,1l-.47-.51Z" transform="translate(0.3 1.08)"/><path class="cls-56" d="M968.77,73.19h-1l-.39-.54c.09-.21.18-.41.26-.62l.62-.25.63.24A.86.86,0,0,1,968.77,73.19Z" transform="translate(0.3 1.08)"/><path class="cls-73" d="M954.56,151.11h-1v-1C954.25,150.07,954.58,150.41,954.56,151.11Z" transform="translate(0.3 1.08)"/><path class="cls-56" d="M960.65,151.11c0-.5.06-.94.67-.81.17,0,.23.53.34.81A.73.73,0,0,1,960.65,151.11Z" transform="translate(0.3 1.08)"/><path class="cls-2" d="M967.75,72.18v1a.85.85,0,0,1-1-1A.58.58,0,0,1,967.75,72.18Z" transform="translate(0.3 1.08)"/><path class="cls-105" d="M939.33,72.18v1h-1v-1A.73.73,0,0,1,939.33,72.18Z" transform="translate(0.3 1.08)"/><path class="cls-2" d="M967.75,72.18h-1v-1l.5-.39.51.39c.33.22.45.45.33.67S967.86,72.18,967.75,72.18Z" transform="translate(0.3 1.08)"/><path class="cls-95" d="M974.86,153.13c.49,0,.94.06.8.67,0,.17-.52.23-.8.34Z" transform="translate(0.3 1.08)"/><path class="cls-4" d="M966.74,71.17c-.71,0-1-.31-1-1l.7-.15a.77.77,0,0,1,.46.7C966.87,71,966.82,71.17,966.74,71.17Z" transform="translate(0.3 1.08)"/><path class="cls-106" d="M964.71,70.16a.86.86,0,0,1,1-1,.65.65,0,0,1,.23.68c-.08.22-.15.34-.23.34Z" transform="translate(0.3 1.08)"/><path class="cls-4" d="M925.13,156.17c-.5,0-1-.07-.81-.68,0-.16.53-.23.81-.34Z" transform="translate(0.3 1.08)"/><circle class="cls-4" cx="943.19" cy="156.74" r="0.72"/><path class="cls-4" d="M954.56,64.08a.86.86,0,0,1,1,1A.86.86,0,0,1,954.56,64.08Z" transform="translate(0.3 1.08)"/><path class="cls-4" d="M933.24,158.19c0,.49-.06.94-.67.8-.16,0-.23-.52-.34-.8Z" transform="translate(0.3 1.08)"/><path class="cls-4" d="M943.39,63.07h1c0,.7-.31,1-1,1a.69.69,0,0,1-.19-.67C943.26,63.18,943.33,63.07,943.39,63.07Z" transform="translate(0.3 1.08)"/><path class="cls-4" d="M990.08,119.74v-2c.34-.45.68-.45,1,0a1.54,1.54,0,0,0,1,.49,1.57,1.57,0,0,0,1-.49c0-.7.32-1,1-1,.31-.36.72-.63,1-1h1c1.11-1.3,2.91.12,4.06-1l2,1a.7.7,0,0,1,.2.67c-.07.23-.14.34-.2.34-.81,1-2.15.34-3,1-.58.56-1.75.82-1,2v2c.4.33.42.88.71,1.27a2.89,2.89,0,0,0,.79.57,4.15,4.15,0,0,1,.83.52,3.53,3.53,0,0,1,.71.68.79.79,0,0,1-.07,1.3c-1,.21-2,.45-3-.29-.33-.35-.67-.69-1-1s-.69-.66-1-1l-2-1-.42-.36a2.39,2.39,0,0,0-.38-1,6.51,6.51,0,0,1-.69-.79,3.78,3.78,0,0,0-.54-.88Z" transform="translate(0.3 1.08)"/><path class="cls-107" d="M984,66.11a2.47,2.47,0,0,0,2.35,2c.22,0,.42.35.63.55a4.54,4.54,0,0,1-.82.42c-.69.19-1.72-.45-2,.62-.12.39,1.78,1.09-.1,1.38a2.55,2.55,0,0,0-1.85,1.44A5.34,5.34,0,0,0,982,75a1.35,1.35,0,0,1-.53,1.25c-.16-.42-.31-.86-.5-1.28-.55-1.2,1.17-3-1-3.76l-.48-.17a2.18,2.18,0,0,0-.53-.84c-.16-1.66-1.47-.76-2.26-1a3.45,3.45,0,0,1-.79-.49,3.89,3.89,0,0,1,.79-.5c.79-.26,2.26.63,2.21-1s3.41-.65,2.1-3c-.21-.39.1-1.06.64-.79.72.36.23,1.19.35,1.81C982.48,65.76,983.49,65.41,984,66.11Z" transform="translate(0.3 1.08)"/><path class="cls-108" d="M999.21,132.89h-1c-.15-1.07-1.51-1.74-1-3l2,1a.59.59,0,0,1,1,0v2A.62.62,0,0,1,999.21,132.89Z" transform="translate(0.3 1.08)"/><path class="cls-4" d="M997.18,143h1a10.7,10.7,0,0,0,1,1,13.88,13.88,0,0,0,1,1v1c.35.22.47.45.35.67s-.23.34-.35.34h-1c-.6-.07-.66-.69-1-1a3.13,3.13,0,0,0-.84-.55l-.18-.47v-1c-.25-.22-.34-.45-.25-.67S997.1,143,997.18,143Z" transform="translate(0.3 1.08)"/><path class="cls-109" d="M983,87.36h-2a9.73,9.73,0,0,0-1-1c-.63-2,1.59-1.12,2-2l.51-.38.51.38Z" transform="translate(0.3 1.08)"/><path class="cls-110" d="M982,84.32c.07,1-.58,1-1.26,1a.79.79,0,0,0-.77,1h-2C978.47,84.11,980.23,84.24,982,84.32Z" transform="translate(0.3 1.08)"/><path class="cls-111" d="M994.14,91.4v-1a1,1,0,0,1,1-.24,3.46,3.46,0,0,1,.66.94,5.41,5.41,0,0,1,.32,1.11,12.62,12.62,0,0,1,.4,1.72,1.44,1.44,0,0,1-1.36,1,1.38,1.38,0,0,1-1.06-.47,2.63,2.63,0,0,1-.69-.93,3.07,3.07,0,0,1,0-1.17A2.61,2.61,0,0,1,994.14,91.4Z" transform="translate(0.3 1.08)"/><path class="cls-52" d="M995.15,91.4v-1a.6.6,0,0,1,1,0c2,.48.63,2,1,3l-.5.34-.51-.34c-.7,0-1-.31-1-1,.27-.23.36-.45.27-.68S995.24,91.4,995.15,91.4Z" transform="translate(0.3 1.08)"/><path class="cls-112" d="M995.15,146.05h1v1c-1.73.08-3.49.21-4.06-2h2C994.44,145.41,994.82,145.7,995.15,146.05Z" transform="translate(0.3 1.08)"/><path class="cls-113" d="M979.93,92.42v-1h1a1.4,1.4,0,0,1,2,0C982.75,93.91,982.57,94,979.93,92.42Z" transform="translate(0.3 1.08)"/><path class="cls-114" d="M1000.23,114.68c.06.88-.5,1-1.19,1h-2.87c.5-1.35,1-2.66,2.68-1C999.1,114.88,999.76,114.68,1000.23,114.68Z" transform="translate(0.3 1.08)"/><path class="cls-60" d="M991.09,117.71h-1c0-.66,0-1.33,0-2a.84.84,0,0,1,.76-1c.68-.08,1.35,0,1.28,1a12.15,12.15,0,0,0-1,1Z" transform="translate(0.3 1.08)"/><path class="cls-114" d="M999.21,117.71c.48-1.95,2-.62,3-1C1001.75,118.57,1000.72,118.85,999.21,117.71Z" transform="translate(0.3 1.08)"/><path class="cls-75" d="M996.17,102.54l-2-1c.09-1.51,1.26-.86,2-1a.58.58,0,0,1,1,0Z" transform="translate(0.3 1.08)"/><path class="cls-4" d="M999.21,95.45h-2a1.37,1.37,0,0,1,0-2c.77.15,2-.5,2,1a.63.63,0,0,1,.23.68C999.37,95.34,999.29,95.45,999.21,95.45Z" transform="translate(0.3 1.08)"/><path class="cls-52" d="M983,91.4h-2l1-2a.6.6,0,0,1-.26-.67c.09-.23.17-.34.26-.34h1Z" transform="translate(0.3 1.08)"/><path class="cls-115" d="M997.18,100.51h-1c.08-.59,0-1.54.28-1.69.88-.44,1.13.66,1.57,1.11C998.25,100.17,997.67,100.57,997.18,100.51Z" transform="translate(0.3 1.08)"/><path class="cls-84" d="M984,66.11c-.77-.15-1.94.5-2-1,.83,0,1.66,0,2.49,0,.14,0,.26.41.39.63Z" transform="translate(0.3 1.08)"/><path class="cls-109" d="M965.72,70.16v-1a1.37,1.37,0,0,1,1-.46,1.84,1.84,0,0,1,1,.46.63.63,0,0,1,.23.68c-.08.22-.15.34-.23.34v1h-1A.86.86,0,0,0,965.72,70.16Z" transform="translate(0.3 1.08)"/><path class="cls-60" d="M995.15,105.57c1.44.27,1.37,1.2.55,1.88-.54.44-1.53.32-1.56-.87C994.2,106,994.87,106,995.15,105.57Z" transform="translate(0.3 1.08)"/><path class="cls-114" d="M998.2,119.74c-1,.07-1.12-.61-1-1.27.24-1.21,1.28-.62,2-.76Z" transform="translate(0.3 1.08)"/><path class="cls-116" d="M994.14,91.4v1a1.64,1.64,0,0,1-1,.57,1.55,1.55,0,0,1-1-.57h-1C991.57,90.47,993.14,91.79,994.14,91.4Z" transform="translate(0.3 1.08)"/><path class="cls-101" d="M1001.24,124.8h-1a8.19,8.19,0,0,0-1-1c-.25-.22-.34-.44-.25-.67s.17-.34.25-.34C1000.87,122.47,1001.55,123.14,1001.24,124.8Z" transform="translate(0.3 1.08)"/><path class="cls-117" d="M1001.24,125.81v-1c.28.11.67.14.82.35.35.44,1.28.67,1,1.34s-1.18.21-1.79.33c-.35-.22-.47-.45-.35-.67S1001.12,125.81,1001.24,125.81Z" transform="translate(0.3 1.08)"/><path class="cls-52" d="M1001.24,142a3.71,3.71,0,0,1,1.12.65c.27.35,1.38.68.45,1.25a1,1,0,0,1-1.57-.89c-.25-.22-.34-.45-.25-.67S1001.16,142,1001.24,142Z" transform="translate(0.3 1.08)"/><path class="cls-114" d="M1001.24,125.81v1h-1c-.77-.15-1.94.5-2-1Z" transform="translate(0.3 1.08)"/><path class="cls-118" d="M997.18,93.43v2h-2a.6.6,0,0,1-.26-.67c.09-.23.18-.34.26-.34.71,0,1-.31,1-1Z" transform="translate(0.3 1.08)"/><path class="cls-119" d="M977.9,149.08h1c-.14.72.46,1.76-.77,2-.66.13-1.34,0-1.26-1C977.22,149.75,977.55,149.41,977.9,149.08Z" transform="translate(0.3 1.08)"/><path class="cls-120" d="M1000.23,130.87h-1a.86.86,0,0,1,1-1c.33,0,.66,0,1,0,.5,0,1,.06.82.68,0,.17-.52.27-.82.33A6.53,6.53,0,0,1,1000.23,130.87Z" transform="translate(0.3 1.08)"/><path class="cls-108" d="M1000.23,147.06v-1c.33,0,.66,0,1,0,.5,0,1,.06.82.68,0,.17-.52.27-.82.33A6.53,6.53,0,0,1,1000.23,147.06Z" transform="translate(0.3 1.08)"/><path class="cls-76" d="M998.2,146.05a.85.85,0,0,1,1,1c0,.49-.05,1-.68.79-.17,0-.27-.52-.32-.82A6.4,6.4,0,0,1,998.2,146.05Z" transform="translate(0.3 1.08)"/><path class="cls-101" d="M989.06,91.4v1c-.33,0-.66,0-1,0-.49,0-1,0-.82-.68,0-.16.53-.27.82-.32A5.44,5.44,0,0,1,989.06,91.4Z" transform="translate(0.3 1.08)"/><path class="cls-114" d="M999.21,122.77v1c-1.51-.08-.86-1.25-1-2C998.9,121.74,999.24,122.07,999.21,122.77Z" transform="translate(0.3 1.08)"/><path class="cls-61" d="M979.93,71.17c.05.82-.45,1.06-1.14,1-.27,0-.73-.23-.73-.37,0-.51.37-.69.86-.62A.61.61,0,0,1,979.93,71.17Z" transform="translate(0.3 1.08)"/><path class="cls-101" d="M991.08,153a.82.82,0,0,1-.58,1,5.24,5.24,0,0,1-.39-1.24.84.84,0,0,1,.52-.66C991.58,152,990.86,152.78,991.08,153Z" transform="translate(0.3 1.08)"/><path class="cls-90" d="M970.8,77.24v1c-.83,0-1.07-.45-1-1.14,0-.26.24-.72.37-.73C970.68,76.37,970.86,76.75,970.8,77.24Z" transform="translate(0.3 1.08)"/><path class="cls-84" d="M996.17,90.39h-2c-.07-1,.58-1.07,1.26-1A.79.79,0,0,1,996.17,90.39Z" transform="translate(0.3 1.08)"/><path class="cls-52" d="M972.83,157.18c-.71,0-1-.31-1-1a.66.66,0,0,1,1,0,.85.85,0,0,1,1,1A.66.66,0,0,1,972.83,157.18Z" transform="translate(0.3 1.08)"/><path class="cls-89" d="M962.68,66.11c-.49.06-.87-.12-.86-.63,0-.13.47-.34.73-.37.69-.06,1.2.17,1.14,1A.58.58,0,0,1,962.68,66.11Z" transform="translate(0.3 1.08)"/><path class="cls-101" d="M991.09,116.7a.86.86,0,0,1,1-1C992.14,116.39,991.8,116.73,991.09,116.7Z" transform="translate(0.3 1.08)"/><path class="cls-114" d="M995.15,115.69a.85.85,0,0,1-1,1A.85.85,0,0,1,995.15,115.69Z" transform="translate(0.3 1.08)"/><path class="cls-114" d="M1002.26,116.7v-1c.49,0,.94.06.8.67C1003,116.53,1002.54,116.59,1002.26,116.7Z" transform="translate(0.3 1.08)"/><path class="cls-101" d="M995.15,105.57a.85.85,0,0,1-1,1c-.26-.22-.35-.45-.26-.67s.17-.34.26-.34Z" transform="translate(0.3 1.08)"/><path class="cls-100" d="M992.11,118.73a.87.87,0,0,1-1-1h1a.65.65,0,0,1,.23.68C992.26,118.61,992.19,118.73,992.11,118.73Z" transform="translate(0.3 1.08)"/><path class="cls-114" d="M992.11,118.73v-1h1A.86.86,0,0,1,992.11,118.73Z" transform="translate(0.3 1.08)"/><circle class="cls-4" cx="993.93" cy="107.16" r="0.72"/><path class="cls-2" d="M994.14,101.52q0,1-1,1A.87.87,0,0,1,994.14,101.52Z" transform="translate(0.3 1.08)"/><path class="cls-60" d="M996.32,97.12l.36-.66c.11.12.33.25.31.34a3.18,3.18,0,0,1-.31.68Z" transform="translate(0.3 1.08)"/><path class="cls-121" d="M993.12,95.45h1c0,.7-.31,1-1,1a.6.6,0,0,1-.26-.67C993,95.56,993,95.45,993.12,95.45Z" transform="translate(0.3 1.08)"/><path class="cls-118" d="M999.21,95.45v-1c.5,0,.95.06.81.67C1000,95.28,999.49,95.34,999.21,95.45Z" transform="translate(0.3 1.08)"/><circle class="cls-121" cx="994.95" cy="96.03" r="0.72"/><path class="cls-120" d="M999.21,132.89h1c0,.7-.31,1-1,1Z" transform="translate(0.3 1.08)"/><path class="cls-60" d="M990.08,89.38c.49,0,.94.07.8.67,0,.17-.52.23-.8.34a.64.64,0,0,1-.23-.67C989.93,89.49,990,89.38,990.08,89.38Z" transform="translate(0.3 1.08)"/><path class="cls-90" d="M990.08,89.38v1h-1C989,89.69,989.38,89.36,990.08,89.38Z" transform="translate(0.3 1.08)"/><path class="cls-27" d="M984,87.36c.49,0,.94.06.81.67,0,.16-.53.23-.81.34-.26-.23-.35-.45-.26-.68S983.9,87.36,984,87.36Z" transform="translate(0.3 1.08)"/><circle class="cls-61" cx="983.79" cy="88.94" r="0.72"/><path class="cls-60" d="M1001.24,142v1a.85.85,0,0,1-1-1Z" transform="translate(0.3 1.08)"/><path class="cls-109" d="M976.89,86.35h-1c-.29-.23-.39-.45-.29-.68s.19-.34.29-.34A.87.87,0,0,1,976.89,86.35Z" transform="translate(0.3 1.08)"/><path class="cls-61" d="M975.87,85.33v1a.62.62,0,0,1-1,0v-1Z" transform="translate(0.3 1.08)"/><path class="cls-76" d="M999.21,144a.85.85,0,0,1-1-1A.85.85,0,0,1,999.21,144Z" transform="translate(0.3 1.08)"/><path class="cls-27" d="M983,83.31c.49,0,.94.06.8.67,0,.17-.52.23-.8.34a.62.62,0,0,1-.23-.67C982.82,83.42,982.9,83.31,983,83.31Z" transform="translate(0.3 1.08)"/><path class="cls-99" d="M1000.23,145a.86.86,0,0,1-1-1C999.92,144,1000.25,144.33,1000.23,145Z" transform="translate(0.3 1.08)"/><path class="cls-89" d="M983,83.31v1h-1C981.93,83.62,982.27,83.28,983,83.31Z" transform="translate(0.3 1.08)"/><path class="cls-2" d="M996.17,146.05a.86.86,0,0,1,1-1,.63.63,0,0,1,.23.68c-.07.22-.15.34-.23.34Z" transform="translate(0.3 1.08)"/><path class="cls-76" d="M997.18,146.05v-1c.71,0,1,.32,1,1Z" transform="translate(0.3 1.08)"/><path class="cls-109" d="M977.9,149.08a.85.85,0,0,1-1,1v-1Z" transform="translate(0.3 1.08)"/><path class="cls-2" d="M960.65,151.11h1c0,.49-.06.94-.67.8C960.82,151.87,960.76,151.39,960.65,151.11Z" transform="translate(0.3 1.08)"/><path class="cls-4" d="M969.78,71.17v1a.66.66,0,0,1-1,0c-.26-.23-.35-.45-.26-.68s.17-.33.26-.33Z" transform="translate(0.3 1.08)"/><circle class="cls-108" cx="968.56" cy="72.75" r="0.72"/><path class="cls-4" d="M979.93,71.17h-1v-1A.85.85,0,0,1,979.93,71.17Z" transform="translate(0.3 1.08)"/><path class="cls-108" d="M967.75,70.16v-1c.5,0,.94.07.81.67C968.52,70,968,70,967.75,70.16Z" transform="translate(0.3 1.08)"/><path class="cls-27" d="M972.83,156.17h-1c0-.5.07-.94.67-.81C972.65,155.4,972.71,155.89,972.83,156.17Z" transform="translate(0.3 1.08)"/><path class="cls-108" d="M967.75,69.14h-1c-.26-.22-.35-.45-.26-.67s.17-.34.26-.34C967.44,68.11,967.78,68.44,967.75,69.14Z" transform="translate(0.3 1.08)"/><circle class="cls-106" cx="966.53" cy="69.72" r="0.72"/><path class="cls-52" d="M965.72,68.13h-1c-.26-.22-.35-.45-.26-.67s.17-.34.26-.34A.85.85,0,0,1,965.72,68.13Z" transform="translate(0.3 1.08)"/><path class="cls-60" d="M972.83,157.18h1c0,.49-.06.94-.67.8C973,157.94,972.94,157.46,972.83,157.18Z" transform="translate(0.3 1.08)"/><circle class="cls-101" cx="964.5" cy="68.71" r="0.72"/><circle class="cls-90" cx="963.49" cy="67.7" r="0.72"/><path class="cls-122" d="M911.93,145c.15.77-.5,1.94,1,2v1H909.9a1.14,1.14,0,0,1-.47-1,1.59,1.59,0,0,1,.47-1C910,144.06,910.08,144,911.93,145Z" transform="translate(0.3 1.08)"/><path class="cls-123" d="M935.27,72.18h-4a.69.69,0,0,1-.2-.68c.06-.22.13-.33.2-.33a12,12,0,0,0,1-1h2a1.59,1.59,0,0,0,1,0c.71,0,1.05.31,1,1a.78.78,0,0,1,.32.73c-.05.27-.11.41-.19.41A.82.82,0,0,1,935.27,72.18Z" transform="translate(0.3 1.08)"/><path class="cls-59" d="M903.81,127.83v3a1.66,1.66,0,0,1,.6,1,2.09,2.09,0,0,1-.46,1.14,1.14,1.14,0,0,1-1.15-.16c-.07-1.25-.08-2.51-.25-3.75-.06-.43-1.19-.76-.17-1.28A3.58,3.58,0,0,1,903.81,127.83Z" transform="translate(0.3 1.08)"/><path class="cls-124" d="M902.8,132.89h1a1.43,1.43,0,0,1,.54,1.08,2.09,2.09,0,0,1-.44,1.15.89.89,0,0,1-1.11-.2,14,14,0,0,0-1-1c-.49,0-1-.05-.79-.68,0-.17.52-.27.82-.32A6.53,6.53,0,0,1,902.8,132.89Z" transform="translate(0.3 1.08)"/><path class="cls-125" d="M904.83,134.92c.77.15,1.94-.51,2,1a2.24,2.24,0,0,1-1,.49,1.65,1.65,0,0,0-1,.52h-1l-.39-.29a.94.94,0,0,1-.11-.93,1.13,1.13,0,0,1,.5-.8Q904.32,134.19,904.83,134.92Z" transform="translate(0.3 1.08)"/><path class="cls-87" d="M904.83,147.06c-.7,0-1-.31-1-1a.83.83,0,0,1-.36-.69c0-.27.06-.41.13-.41a2.26,2.26,0,0,1,1.14-.55l.64,0,.58.25a1.5,1.5,0,0,1,.3,1.17C905.91,146.43,905.27,146.62,904.83,147.06Z" transform="translate(0.3 1.08)"/><path class="cls-64" d="M924.11,145c.11.29.24.56.34.85s1.07.47.29,1a1.24,1.24,0,0,1-.91.14c-1.17-.3-.6-1.29-.73-2l.5-.33Z" transform="translate(0.3 1.08)"/><path class="cls-126" d="M930.2,148.07v1c-.28.11-.56.24-.85.34s-.47,1.07-1,.29a1.24,1.24,0,0,1-.14-.91C928.49,147.64,929.48,148.2,930.2,148.07Z" transform="translate(0.3 1.08)"/><path class="cls-74" d="M919,77.24v1h-2a.67.67,0,0,1-.2-.67c.07-.23.13-.34.2-.34a2.59,2.59,0,0,0,.53-.85l.48-.16A.86.86,0,0,1,919,77.24Z" transform="translate(0.3 1.08)"/><path class="cls-127" d="M904.83,147.06a.85.85,0,0,1,1-1,1.1,1.1,0,0,1,1-.52,2,2,0,0,1,1,.52v1Z" transform="translate(0.3 1.08)"/><path class="cls-96" d="M908.89,93.43v1c-.72-.14-1.77.46-2-.76-.13-.66,0-1.34,1-1.26A6.5,6.5,0,0,0,908.89,93.43Z" transform="translate(0.3 1.08)"/><path class="cls-128" d="M920,146.65l-1.61,1.29a2.43,2.43,0,0,1-.36-.79c-.1-1.17.73-1.08,1.54-1.13C920.06,146,920.21,146.05,920,146.65Z" transform="translate(0.3 1.08)"/><path class="cls-59" d="M903.81,136.94c-.08,1.51-1.26.86-2,1a.64.64,0,0,1-.23-.67c.08-.23.16-.34.23-.34a.86.86,0,0,1,1-1l.47.18A1.72,1.72,0,0,0,903.81,136.94Z" transform="translate(0.3 1.08)"/><path class="cls-57" d="M907.87,103.55c-1.52-.09-.86-1.26-1-2a.62.62,0,0,1-.23-.67c.07-.23.15-.34.23-.34.7,0,1,.31,1,1a1.73,1.73,0,0,1,.52,1A1.21,1.21,0,0,1,907.87,103.55Z" transform="translate(0.3 1.08)"/><path class="cls-128" d="M902.8,146.05l-.35.85c-.22-.13-.63-.25-.64-.4-.06-.82,0-1.65,0-2.48a.89.89,0,0,1,1.07-.05,1.59,1.59,0,0,1,.44,1.06A1.32,1.32,0,0,1,902.8,146.05Z" transform="translate(0.3 1.08)"/><path class="cls-86" d="M917,75.21a.86.86,0,0,1,1,1,.62.62,0,0,1-1,0c-.71,0-1-.31-1-1A.68.68,0,0,1,917,75.21Z" transform="translate(0.3 1.08)"/><path class="cls-4" d="M908.89,83.31c-.33,0-.67,0-1,0-.49,0-1,0-.82-.67,0-.17.53-.28.82-.33a6.68,6.68,0,0,1,1,0,.69.69,0,0,1,.19.67C909,83.2,909,83.31,908.89,83.31Z" transform="translate(0.3 1.08)"/><path class="cls-57" d="M917,83.31v1h-1v-2l.55-.39.62.28A.75.75,0,0,1,917,83.31Z" transform="translate(0.3 1.08)"/><path class="cls-105" d="M935.27,72.18h1a.61.61,0,0,1,1,0v1C936.54,73,935.36,73.69,935.27,72.18Z" transform="translate(0.3 1.08)"/><path class="cls-126" d="M903.81,139v1a.81.81,0,0,1,0,1.08,1,1,0,0,1-1.15,0,.8.8,0,0,1,.19-1.08C902.77,139.27,903.11,138.94,903.81,139Z" transform="translate(0.3 1.08)"/><path class="cls-86" d="M922.08,145a.86.86,0,0,1-1,1c-.26-.23-.35-.45-.26-.68s.17-.34.26-.34c0-.7.31-1,1-1l.39.51Z" transform="translate(0.3 1.08)"/><path class="cls-96" d="M906.86,148.07h2a.6.6,0,0,1,.26.67c-.09.23-.18.34-.26.34h-2c-.26-.22-.35-.45-.26-.67S906.77,148.07,906.86,148.07Z" transform="translate(0.3 1.08)"/><path class="cls-64" d="M902.8,141h1l.25.42a.94.94,0,0,1-.46.83l-.48.14-.32-.38c-.7,0-1-.31-1-1A.62.62,0,0,1,902.8,141Z" transform="translate(0.3 1.08)"/><path class="cls-86" d="M901.78,111.64v1c-.82.06-1.06-.44-1-1.13,0-.27.24-.73.38-.73C901.67,110.78,901.85,111.15,901.78,111.64Z" transform="translate(0.3 1.08)"/><path class="cls-86" d="M935.27,70.16c0,.49-.06.94-.67.8-.16,0-.23-.52-.34-.8,0-.5.06-.94.67-.81C935.1,69.39,935.16,69.88,935.27,70.16Z" transform="translate(0.3 1.08)"/><path class="cls-64" d="M908.89,149.08v-2a.66.66,0,0,1,1,0v1A.85.85,0,0,1,908.89,149.08Z" transform="translate(0.3 1.08)"/><path class="cls-64" d="M910.92,111.08c-.2.16-.46.48-.59.44-.4-.12-.46-.43-.19-.6a3.81,3.81,0,0,1,.78-.29Z" transform="translate(0.3 1.08)"/><path class="cls-74" d="M906.86,104.56a.86.86,0,0,1-1,1A.86.86,0,0,1,906.86,104.56Z" transform="translate(0.3 1.08)"/><path class="cls-129" d="M909.9,102.54v1h-1l-.44-.51c.15-.17.29-.34.44-.5Z" transform="translate(0.3 1.08)"/><circle class="cls-5" cx="910.71" cy="103.11" r="0.72"/><path class="cls-87" d="M907.87,102.54v-1a.87.87,0,0,1,1,1A.63.63,0,0,1,907.87,102.54Z" transform="translate(0.3 1.08)"/><path class="cls-128" d="M906.86,100.51v1c-.5,0-1-.06-.81-.67C906.09,100.69,906.58,100.62,906.86,100.51Z" transform="translate(0.3 1.08)"/><path class="cls-127" d="M909.9,99.5v1c-.49,0-.94-.06-.8-.67C909.14,99.68,909.62,99.61,909.9,99.5Z" transform="translate(0.3 1.08)"/><path class="cls-92" d="M909.9,98.49c-.7,0-1-.31-1-1a.66.66,0,0,1,1,0,.64.64,0,0,1,.23.67C910.05,98.38,910,98.49,909.9,98.49Z" transform="translate(0.3 1.08)"/><path class="cls-4" d="M909.9,97.48h-1a.86.86,0,0,1,1-1Z" transform="translate(0.3 1.08)"/><circle class="cls-4" cx="910.71" cy="97.04" r="0.72"/><path class="cls-5" d="M901.78,133.9c.71,0,1,.32,1,1A.87.87,0,0,1,901.78,133.9Z" transform="translate(0.3 1.08)"/><path class="cls-5" d="M903.81,134.92v1a.66.66,0,0,1-1,0v-1Z" transform="translate(0.3 1.08)"/><path class="cls-46" d="M908.89,93.43c-.71,0-1-.31-1-1A.86.86,0,0,1,908.89,93.43Z" transform="translate(0.3 1.08)"/><path class="cls-64" d="M901.78,136.94v1c-.49,0-.94-.06-.8-.67C901,137.11,901.5,137.05,901.78,136.94Z" transform="translate(0.3 1.08)"/><path class="cls-128" d="M902.8,141h-1a.86.86,0,0,1,1-1Z" transform="translate(0.3 1.08)"/><path class="cls-5" d="M902.8,142h1l.31.42c0,.17,0,.35,0,.52l-.37.37-.52.06-.38-.36Z" transform="translate(0.3 1.08)"/><path class="cls-87" d="M921.07,142v1c-.5,0-1-.06-.81-.67C920.3,142.17,920.79,142.11,921.07,142Z" transform="translate(0.3 1.08)"/><path class="cls-74" d="M902.8,144h-1a.86.86,0,0,1,1-1l.38.51Z" transform="translate(0.3 1.08)"/><path class="cls-4" d="M916.86,143.66l-.36.36a3,3,0,0,1-.32-.68c0-.08.21-.22.32-.33Z" transform="translate(0.3 1.08)"/><path class="cls-64" d="M922.08,143h1l.37.56-.26.62-.61.27c-.18-.14-.35-.29-.52-.44Z" transform="translate(0.3 1.08)"/><path class="cls-59" d="M924.11,143h1a.65.65,0,0,1,.22.68c-.07.22-.15.33-.22.33h-1l-.4-.26v-.48Z" transform="translate(0.3 1.08)"/><path class="cls-5" d="M915,86.35h-1v-1a.68.68,0,0,1,1,0Z" transform="translate(0.3 1.08)"/><path class="cls-87" d="M922.08,144h1c.29.23.38.45.29.68s-.2.33-.29.33h-1Z" transform="translate(0.3 1.08)"/><path class="cls-86" d="M923.1,145v-1c.33-.46.67-.46,1,0v1Z" transform="translate(0.3 1.08)"/><path class="cls-86" d="M929.19,144v1c-.71,0-1.05-.31-1-1Z" transform="translate(0.3 1.08)"/><path class="cls-4" d="M915,85.33h-1c0-.7.31-1,1-1Z" transform="translate(0.3 1.08)"/><path class="cls-4" d="M902.8,146.05v-1a.63.63,0,0,1,1,0v1Z" transform="translate(0.3 1.08)"/><path class="cls-86" d="M921.07,145v1h-1C920,145.35,920.36,145,921.07,145Z" transform="translate(0.3 1.08)"/><path class="cls-4" d="M912.8,84l-.36.36a3.51,3.51,0,0,1-.32-.68c0-.08.21-.22.32-.33Z" transform="translate(0.3 1.08)"/><path class="cls-92" d="M908.89,83.31v-1c.49,0,.94.06.8.67C909.65,83.13,909.17,83.2,908.89,83.31Z" transform="translate(0.3 1.08)"/><path class="cls-46" d="M917,82.3h-1c0-.7.31-1,1-1,.25.22.34.45.25.67S917.09,82.3,917,82.3Z" transform="translate(0.3 1.08)"/><path class="cls-127" d="M906.86,148.07v1a.74.74,0,0,1-1,0A.86.86,0,0,1,906.86,148.07Z" transform="translate(0.3 1.08)"/><path class="cls-127" d="M913.88,148.66c-.12.12-.28.33-.32.31-.22-.12-.5-.25-.6-.46-.2-.42,0-.63.43-.42C913.6,148.19,913.72,148.46,913.88,148.66Z" transform="translate(0.3 1.08)"/><path class="cls-86" d="M917,77.24v1c-.5,0-1-.06-.81-.67C916.24,77.41,916.73,77.35,917,77.24Z" transform="translate(0.3 1.08)"/><path class="cls-4" d="M917,76.23h1c0,.7-.31,1-1,1Z" transform="translate(0.3 1.08)"/><path class="cls-86" d="M921.07,76.23h-1v-1a.74.74,0,0,1,1,0Z" transform="translate(0.3 1.08)"/><path class="cls-57" d="M905.84,149.08h1c0,.49-.07.94-.67.8C906,149.85,906,149.36,905.84,149.08Z" transform="translate(0.3 1.08)"/><path class="cls-46" d="M930.2,149.08h1v1a.58.58,0,0,1-1,0Z" transform="translate(0.3 1.08)"/><path class="cls-57" d="M921.07,75.21h-1c0-.49.07-.93.67-.8C920.89,74.45,921,74.94,921.07,75.21Z" transform="translate(0.3 1.08)"/><path class="cls-59" d="M917,75.21h-1c0-.49.07-.93.67-.8C916.83,74.45,916.9,74.94,917,75.21Z" transform="translate(0.3 1.08)"/><path class="cls-79" d="M941.36,73.19a.85.85,0,0,1-1,1C940.32,73.5,940.66,73.17,941.36,73.19Z" transform="translate(0.3 1.08)"/><circle class="cls-130" cx="931.01" cy="151.68" r="0.72"/><path class="cls-92" d="M930.2,151.56c-.2.15-.45.48-.59.43-.39-.12-.46-.43-.19-.59a3.47,3.47,0,0,1,.78-.29Z" transform="translate(0.3 1.08)"/><path class="cls-64" d="M939.33,72.18h-1c0-.49.06-.94.67-.8C939.16,71.41,939.22,71.9,939.33,72.18Z" transform="translate(0.3 1.08)"/><path class="cls-46" d="M937.3,72.18h-1v-1A.85.85,0,0,1,937.3,72.18Z" transform="translate(0.3 1.08)"/><path class="cls-46" d="M931.22,71.17v1c-.5,0-1-.07-.81-.67C930.45,71.34,930.93,71.28,931.22,71.17Z" transform="translate(0.3 1.08)"/><path class="cls-74" d="M932.23,70.16c0,.7-.31,1-1,1A.85.85,0,0,1,932.23,70.16Z" transform="translate(0.3 1.08)"/><path class="cls-46" d="M943.39,63.07v1c-.49,0-.94-.06-.8-.67C942.63,63.25,943.11,63.18,943.39,63.07Z" transform="translate(0.3 1.08)"/><path class="cls-53" d="M951.37,58.66,951,59a2.73,2.73,0,0,1-.32-.67c0-.09.2-.22.32-.34Z" transform="translate(0.3 1.08)"/><path class="cls-131" d="M993.12,129.86h-1v-2c.77,1,2.73.31,3,2h-1A.6.6,0,0,1,993.12,129.86Z" transform="translate(0.3 1.08)"/><path class="cls-2" d="M993.12,123.78v-1q.51-.67,1,0C994.17,123.47,993.83,123.81,993.12,123.78Z" transform="translate(0.3 1.08)"/><path class="cls-114" d="M996.17,123.78a.86.86,0,0,1,1,1C996.48,124.82,996.14,124.49,996.17,123.78Z" transform="translate(0.3 1.08)"/><path class="cls-114" d="M997.18,124.8c.71,0,1,.31,1,1C997.5,125.83,997.16,125.5,997.18,124.8Z" transform="translate(0.3 1.08)"/><path class="cls-99" d="M973.84,110.63h-1c0-.49.06-.94.67-.8C973.67,109.87,973.73,110.35,973.84,110.63Z" transform="translate(0.3 1.08)"/><path class="cls-33" d="M990.08,105.57v-1a.85.85,0,0,1,1,1Z" transform="translate(0.3 1.08)"/><path class="cls-4" d="M931.22,138v-1a.85.85,0,0,1,1,1Z" transform="translate(0.3 1.08)"/><path class="cls-86" d="M927.16,142v-1a.85.85,0,0,1,1,1Z" transform="translate(0.3 1.08)"/><path class="cls-128" d="M926.14,143c0-.7.31-1,1-1A.86.86,0,0,1,926.14,143Z" transform="translate(0.3 1.08)"/><path class="cls-49" d="M929.1,142.59c-.12.11-.28.33-.32.31a1.31,1.31,0,0,1-.59-.46c-.21-.42,0-.63.42-.42C928.82,142.12,928.94,142.39,929.1,142.59Z" transform="translate(0.3 1.08)"/><path class="cls-128" d="M925.13,144v-1h1A.85.85,0,0,1,925.13,144Z" transform="translate(0.3 1.08)"/><path class="cls-102" d="M936.29,75.21h-1c0-.49.07-.93.68-.8C936.11,74.45,936.18,74.94,936.29,75.21Z" transform="translate(0.3 1.08)"/><path class="cls-101" d="M989.06,146.05v-1h1v1A.59.59,0,0,1,989.06,146.05Z" transform="translate(0.3 1.08)"/><path class="cls-56" d="M989.06,146.05h1a.7.7,0,0,1,.2.67c-.07.23-.13.34-.2.34h-1Z" transform="translate(0.3 1.08)"/><path class="cls-27" d="M990.08,147.06v-1c.49,0,.94.06.8.67C990.85,146.88,990.36,147,990.08,147.06Z" transform="translate(0.3 1.08)"/><path class="cls-73" d="M928.17,91.4h1c0,.71-.32,1-1,1-.26-.23-.35-.45-.26-.68S928.08,91.4,928.17,91.4Z" transform="translate(0.3 1.08)"/><path class="cls-5" d="M909.9,98.49v-1h1C910.94,98.18,910.6,98.51,909.9,98.49Z" transform="translate(0.3 1.08)"/><path class="cls-86" d="M907.87,141v2h-1l-.39-.32a2,2,0,0,1-.32-.95,2.26,2.26,0,0,1,.08-1,1.61,1.61,0,0,1,.63-.76h1c.26.22.35.44.26.67S908,141,907.87,141Z" transform="translate(0.3 1.08)"/><path class="cls-44" d="M906.86,143v1a.77.77,0,0,1-1.05.26,1.19,1.19,0,0,1,0-1.17A.83.83,0,0,1,906.86,143Z" transform="translate(0.3 1.08)"/><path class="cls-79" d="M905.84,144h1v1l-.51.43-.51-.43a.6.6,0,0,1-.26-.67C905.67,144.14,905.76,144,905.84,144Z" transform="translate(0.3 1.08)"/><path class="cls-86" d="M907.87,146.05h-1c-.26-.23-.35-.45-.26-.68s.17-.34.26-.34A.86.86,0,0,1,907.87,146.05Z" transform="translate(0.3 1.08)"/><path class="cls-44" d="M909.9,147.06h-1a.85.85,0,0,1,1-1Z" transform="translate(0.3 1.08)"/><path class="cls-108" d="M993.12,129.86h1c0,.7-.31,1-1,1Z" transform="translate(0.3 1.08)"/><path class="cls-90" d="M992.11,130.87h1v1A.85.85,0,0,1,992.11,130.87Z" transform="translate(0.3 1.08)"/><circle class="cls-2" cx="975.67" cy="87.93" r="0.72"/><circle class="cls-101" cx="973.64" cy="87.93" r="0.72"/><path class="cls-132" d="M910.92,120.75c-.5,0-.95-.07-.81-.67,0-.17.53-.23.81-.34a.6.6,0,0,1,.26.67C911.09,120.64,911,120.75,910.92,120.75Z" transform="translate(0.3 1.08)"/><circle class="cls-40" cx="911.73" cy="121.32" r="0.72"/><path class="cls-73" d="M923.1,119.74v1c-.71,0-1-.31-1-1Z" transform="translate(0.3 1.08)"/><path class="cls-5" d="M904.83,136.94a.85.85,0,0,1,1-1,.64.64,0,0,1,.23.67c-.08.23-.15.34-.23.34Z" transform="translate(0.3 1.08)"/><path class="cls-36" d="M903.81,141v-1h1a.72.72,0,0,1,.2.67c-.06.23-.13.35-.19.35A.77.77,0,0,1,903.81,141Z" transform="translate(0.3 1.08)"/><path class="cls-87" d="M904.83,141v-1h1l.43.5c-.08.21-.15.42-.22.62l-.64.19Z" transform="translate(0.3 1.08)"/><path class="cls-4" d="M905.84,141v-1h1v1A.63.63,0,0,1,905.84,141Z" transform="translate(0.3 1.08)"/><path class="cls-5" d="M907.87,141v-1h1C908.91,140.68,908.57,141,907.87,141Z" transform="translate(0.3 1.08)"/><path class="cls-59" d="M923.1,143v-1a.85.85,0,0,1,1,1A.61.61,0,0,1,923.1,143Z" transform="translate(0.3 1.08)"/><path class="cls-90" d="M982,88.37v1h-1A.85.85,0,0,1,982,88.37Z" transform="translate(0.3 1.08)"/><path class="cls-110" d="M979.93,86.35a.86.86,0,0,1,1,1C980.24,87.38,979.9,87.05,979.93,86.35Z" transform="translate(0.3 1.08)"/><path class="cls-53" d="M920.05,81.29v1a.61.61,0,0,1-1,0A.85.85,0,0,1,920.05,81.29Z" transform="translate(0.3 1.08)"/><path class="cls-36" d="M917,82.3v-1a.85.85,0,0,1,1,1A.61.61,0,0,1,917,82.3Z" transform="translate(0.3 1.08)"/><path class="cls-73" d="M920.05,80.27h1a.87.87,0,0,1-1,1Z" transform="translate(0.3 1.08)"/><path class="cls-2" d="M959.63,81.29h-1v-1a.62.62,0,0,1,1,0Z" transform="translate(0.3 1.08)"/><circle class="cls-103" cx="959.43" cy="80.85" r="0.72"/><path class="cls-103" d="M997.18,143v1a.85.85,0,0,1-1-1Z" transform="translate(0.3 1.08)"/><path class="cls-103" d="M995.15,146.05a.86.86,0,0,1-1-1A.86.86,0,0,1,995.15,146.05Z" transform="translate(0.3 1.08)"/><circle class="cls-86" cx="908.68" cy="104.12" r="0.72"/><path class="cls-108" d="M968.77,72.18h1a.85.85,0,0,1-1,1Z" transform="translate(0.3 1.08)"/><path class="cls-133" d="M904.83,134.92h-1v-3a.8.8,0,0,1,1-.2,2.41,2.41,0,0,1,1.06,1.21Z" transform="translate(0.3 1.08)"/><path class="cls-127" d="M905.84,132.89a.85.85,0,0,1-1-1l.51-.46.5.46h1v1Z" transform="translate(0.3 1.08)"/><path class="cls-79" d="M906.86,132.89h1v1A.85.85,0,0,1,906.86,132.89Z" transform="translate(0.3 1.08)"/><path class="cls-109" d="M965.72,124.8v-1a.68.68,0,0,1,1,0c.33.23.44.45.33.68s-.22.34-.33.34Z" transform="translate(0.3 1.08)"/><path class="cls-4" d="M966.74,124.8v-1h1c.26.23.35.45.26.68s-.17.34-.26.34Z" transform="translate(0.3 1.08)"/><circle class="cls-90" cx="968.56" cy="125.37" r="0.72"/><path class="cls-2" d="M985,102.54h-1q0-1,1-1Z" transform="translate(0.3 1.08)"/><path class="cls-4" d="M958.62,84.32h1a.85.85,0,0,1-1,1Z" transform="translate(0.3 1.08)"/><path class="cls-36" d="M905.84,136.94v-1h1A.86.86,0,0,1,905.84,136.94Z" transform="translate(0.3 1.08)"/><circle class="cls-96" cx="919.85" cy="83.89" r="0.72"/><circle class="cls-54" cx="927.97" cy="92.99" r="0.72"/><path class="cls-114" d="M992.11,119.74a.85.85,0,0,1,1,1,.58.58,0,0,1-1,0Z" transform="translate(0.3 1.08)"/><path class="cls-134" d="M991.09,121.76h-1v-1A.85.85,0,0,1,991.09,121.76Z" transform="translate(0.3 1.08)"/><path class="cls-2" d="M992.11,120.75h1c.26.22.35.45.26.67s-.17.34-.26.34h-1Z" transform="translate(0.3 1.08)"/><path class="cls-56" d="M966.74,123.78h-1v-1C966.42,122.75,966.76,123.08,966.74,123.78Z" transform="translate(0.3 1.08)"/><path class="cls-86" d="M904.83,131.88h-1v-1h1a.6.6,0,0,1,.26.67C905,131.77,904.91,131.88,904.83,131.88Z" transform="translate(0.3 1.08)"/><circle class="cls-52" cx="992.92" cy="97.04" r="0.72"/><path class="cls-121" d="M994.14,93.43v1h-1c-.14-.17-.28-.35-.43-.52.1-.21.2-.41.29-.62A.81.81,0,0,1,994.14,93.43Z" transform="translate(0.3 1.08)"/><path class="cls-4" d="M993.12,93.43v1h-1v-1A.58.58,0,0,1,993.12,93.43Z" transform="translate(0.3 1.08)"/><circle class="cls-87" cx="905.64" cy="132.46" r="0.72"/><path class="cls-56" d="M993.12,93.43h-1v-1h1c.26.22.35.45.26.67S993.21,93.43,993.12,93.43Z" transform="translate(0.3 1.08)"/><circle class="cls-52" cx="970.59" cy="103.11" r="0.72"/><path class="cls-114" d="M993.12,121.76v-1c1.52.09.87,1.26,1,2h-1Z" transform="translate(0.3 1.08)"/><circle class="cls-64" cx="917.82" cy="83.89" r="0.72"/><path class="cls-114" d="M999.21,123.78c.71,0,1,.32,1,1C999.53,124.82,999.19,124.49,999.21,123.78Z" transform="translate(0.3 1.08)"/><circle class="cls-90" cx="993.93" cy="94" r="0.72"/><path class="cls-109" d="M995.15,91.4c.5,0,1,.07.81.68,0,.16-.53.23-.81.34Z" transform="translate(0.3 1.08)"/><path class="cls-87" d="M902.8,135.93h1v1A.85.85,0,0,1,902.8,135.93Z" transform="translate(0.3 1.08)"/><path class="cls-135" d="M903.81,145h-1v-1a13.75,13.75,0,0,1,1-1,1,1,0,0,1,1.22.18,1.42,1.42,0,0,1-.2,1.84Z" transform="translate(0.3 1.08)"/><path class="cls-128" d="M904.83,145v-2l.3-.29h.41l.3.29v2Z" transform="translate(0.3 1.08)"/><circle class="cls-4" cx="906.65" cy="146.62" r="0.72"/><path class="cls-92" d="M903.81,141h1a.85.85,0,0,1,0,1.08.74.74,0,0,1-1.05-.07Z" transform="translate(0.3 1.08)"/><path class="cls-59" d="M903.81,142h1c.12.17.25.34.38.5l-.38.51h-1Z" transform="translate(0.3 1.08)"/><path class="cls-57" d="M903.81,143a.85.85,0,0,1-1,1v-1Z" transform="translate(0.3 1.08)"/><circle class="cls-92" cx="923.91" cy="144.6" r="0.72"/><path class="cls-74" d="M905.84,141h1v1a.75.75,0,0,1-1.07.05A.74.74,0,0,1,905.84,141Z" transform="translate(0.3 1.08)"/><path class="cls-86" d="M905.84,142h1v1h-1l-.43-.51Z" transform="translate(0.3 1.08)"/><path class="cls-96" d="M905.84,141v1a.61.61,0,0,1-1,0v-1Z" transform="translate(0.3 1.08)"/><circle class="cls-79" cx="905.64" cy="143.59" r="0.72"/><path class="cls-1" d="M952.74,42.28a73.47,73.47,0,0,0-54.62,24.27l-.07.07a74.22,74.22,0,0,0,49.39,123.69c1.75.14,3.52.19,5.3.19,2.14,0,4.25-.09,6.35-.27h0c1-.09,2-.19,3-.32l.57-.08a74.14,74.14,0,0,0-10-147.55Zm8.11,138.18-.51.07c-.85.1-1.74.2-2.62.26h0c-1.8.17-3.64.24-5.48.24-1.54,0-3.07-.05-4.59-.16a64.2,64.2,0,0,1-42.72-107,.13.13,0,0,1,.05-.06,64,64,0,1,1,55.89,106.66Z" transform="translate(0.3 1.08)"/><path class="cls-1" d="M53.29,67.5c0-15.44,9.68-28.72,28.08-28.72,7,0,12.48,2.08,18.32,7.12a5.19,5.19,0,1,1-7.12,7.52C89.29,50,85.93,49,81.37,49,69.05,49,63.13,57.74,63.13,67.5c0,9.92,5.84,19,18.24,19a18.63,18.63,0,0,0,12.48-5.12,5.39,5.39,0,0,1,7.36,1c1.28,1.76,1.92,4.72-.88,7.52-5.6,5.2-12.32,6.24-19,6.24C62,96.14,53.29,82.94,53.29,67.5Z" transform="translate(0.3 1.08)"/><path class="cls-1" d="M112.17,45c0-6.56,10.56-6.8,10.56,0V90.7c0,6.64-10.56,6.8-10.56,0Z" transform="translate(0.3 1.08)"/><path class="cls-1" d="M149.61,50.22h-14c-7,0-7-10.24,0-10.24h37.84a5.12,5.12,0,1,1,0,10.24H160.17v40.4c0,7-10.56,7.12-10.56,0Z" transform="translate(0.3 1.08)"/><path class="cls-1" d="M184.89,47.74c-4.32-5.36,4.72-11.52,9-5.68L208.57,64l15-21.92c4.24-5.84,13,0,8.8,5.36L213.61,74.06V90.54c.72,7-10.56,7-10.56,0V74.06Z" transform="translate(0.3 1.08)"/><path class="cls-1" d="M291.45,96.38c-14.8.64-30.16-9.2-30.16-28.8s15.36-29.36,30.16-29.36c14,.72,28.64,10.4,28.64,29.36S305.45,96.38,291.45,96.38Zm-.88-47.76c-9,0-18.72,6.32-18.72,19s9.76,19,18.72,19c9.2,0,19-6.4,19-19S299.77,48.62,290.57,48.62Z" transform="translate(0.3 1.08)"/><path class="cls-1" d="M340.25,50.62V63.34h20.4A6.18,6.18,0,0,1,366.41,69c0,2.64-2.88,4.8-5.76,4.8h-20.4v16.8a4.75,4.75,0,0,1-4.8,5c-3.52,0-5.68-2.16-5.68-5V45.18c0-2.88,2.16-5,5.68-5h28.08c3.52,0,5.6,2.08,5.6,5a5.52,5.52,0,0,1-5.6,5.44Z" transform="translate(0.3 1.08)"/><path class="cls-1" d="M429.53,96.38c-14.8.64-30.17-9.2-30.17-28.8s15.37-29.36,30.17-29.36c14,.72,28.64,10.4,28.64,29.36S443.53,96.38,429.53,96.38Zm-.88-47.76c-9,0-18.73,6.32-18.73,19s9.77,19,18.73,19c9.2,0,19-6.4,19-19S437.85,48.62,428.65,48.62Z" transform="translate(0.3 1.08)"/><path class="cls-1" d="M472.72,95.58a4.77,4.77,0,0,1-4.88-5V45.18a4.73,4.73,0,0,1,4.88-5H495.2c10.48,0,16.16,7.12,16.16,15.28A12.69,12.69,0,0,1,507,65.58c6.32,2.48,9.12,7.36,9.12,13.28,0,9.2-6.24,16.72-18.24,16.72ZM495.2,50H478.32V61.9H495.2c3.44,0,5.6-2.16,5.6-6.4A5.59,5.59,0,0,0,495.2,50ZM478.32,85.82h19.52c9.28,0,9.28-14.16,0-14.16H478.32Z" transform="translate(0.3 1.08)"/><path class="cls-1" d="M530.4,95.58a4.88,4.88,0,0,1-5-5V45.18a4.84,4.84,0,0,1,5-5h28.72c7.36,0,7.2,10.4,0,10.4h-23v12h20.16c7.12,0,7.12,10.48,0,10.48H536.08v12h24.4c7.28,0,7.84,10.48,0,10.48Z" transform="translate(0.3 1.08)"/><path class="cls-1" d="M585.36,90.38c0,7-10.64,7.2-10.64.16V45.1a4.78,4.78,0,0,1,4.8-4.88H600.8c20.32,0,24.48,27.2,7.52,34l10.64,13c4.16,6.16-4.16,12.08-9,6L597.92,75.9H585.36Zm0-23.68H600.8c10.4,0,11-16.8,0-16.8H585.36Z" transform="translate(0.3 1.08)"/><path class="cls-1" d="M628.8,45a5,5,0,0,1,5-4.88A4.87,4.87,0,0,1,638.56,45V85.1h21.76c7.84,0,8,10.48,0,10.48H633.84a4.84,4.84,0,0,1-5-4.88Z" transform="translate(0.3 1.08)"/><path class="cls-1" d="M675,45c0-6.56,10.56-6.8,10.56,0V90.7c0,6.64-10.56,6.8-10.56,0Z" transform="translate(0.3 1.08)"/><path class="cls-1" d="M697.52,45.82c0-2.88.64-5.68,4.8-5.68,2.88,0,3.52.72,5.68,2.8l26.48,33.12V45c0-2.64,2.32-5.52,5-5.52A6.09,6.09,0,0,1,745.2,45v45c0,3.52-2.16,4.88-4.24,5.52-2.8,0-4.16-.64-6.48-2.8L708,59.18V90.06c0,3.52-2.16,5.52-5,5.52a5.27,5.27,0,0,1-5.44-5.52Z" transform="translate(0.3 1.08)"/></svg>