<svg id="Layer_1" data-name="Layer 1" xmlns="http://www.w3.org/2000/svg" viewBox="0 0 949 1080"><defs><style>.cls-1{fill:#5bba51;}.cls-2{fill:#9ad494;}.cls-3{fill:#5bb951;}.cls-4{fill:#fff;}</style></defs><g id="Layer_1-2" data-name="Layer 1"><g id="aHbWUW.tif"><path class="cls-1" d="M455.64-1.63c.92.71,2.14.41,3.16.31,9.68-.81,19.25-.31,28.93-.31,2.14,0,4.18,1,6.32,0l6.83.31a2.34,2.34,0,0,0,3.05.2c1.63.1,3.36.2,5,.41a1.3,1.3,0,0,0,2,.1l3.87.3a1.4,1.4,0,0,0,2.14.2l3.36.31c.51.61,1,.81,1.63.2,1.12.1,2.35.31,3.47.41.3.5.61.5,1,.1l2.85.3c.51.61,1,.81,1.63.21a20.17,20.17,0,0,0,2.34.2c.41.71.92.81,1.63.2.82.1,1.63.2,2.35.31.3.5.61.71,1.12.2l2.34.3c.3.51.61.71,1.12.21l2.34.3c.31.51.61.71,1.12.2l1.84.31c.3.5.61.71,1.12.2l1.83.3c.31.51.61.82,1.12.21l1.84.3c.3.51.61.71,1.12.2,1.42.31,3,.51,4.38.82.3.5.61.81,1.12.2.51.1.92.1,1.42.2.31.51.62.81,1.13.31l6.31,1.21c.31.51.61.81,1.12.31l1.43.3c.3.51.61.81,1.12.2,1.83.41,3.56.82,5.4,1.22.2.51.51.81,1.12.31,1.83.4,3.56.81,5.4,1.21a2.09,2.09,0,0,0,2.55.71,2.73,2.73,0,0,0,.91.21c.31.4.61.81,1.12.3.31.1.61.1.92.2.31.41.51.82,1.12.31.31.1.61.1.92.2a.9.9,0,0,0,1.32.41l2.14.61c.31.4.51.81,1.12.3a3,3,0,0,0,.92.2.9.9,0,0,0,1.32.41l2.14.61a.91.91,0,0,0,1.33.4c1.22.31,2.44.71,3.66,1a.91.91,0,0,0,1.33.4L612.12,19a2.85,2.85,0,0,0,2.76.92c2.54.81,5.09,1.72,7.64,2.53a2.89,2.89,0,0,0,2.75,1c1.93.71,3.77,1.32,5.7,2a1,1,0,0,0,1.33.5c.91.31,1.83.61,2.75,1a1,1,0,0,0,1.32.51c.92.3,1.84.71,2.75,1a1,1,0,0,0,1.33.51c2.85,1.11,5.8,2.33,8.66,3.45.3.5.71.81,1.22.5,1.93.81,3.77,1.63,5.7,2.44a.86.86,0,0,0,1.23.61,459.84,459.84,0,0,1,87.2,50.31c9.07,6.69,18,13.59,26.39,21.1,30.77,27.39,58.38,57.61,81.4,91.9a452.61,452.61,0,0,1,54.3,111,442.13,442.13,0,0,1,20.89,102.76,457.08,457.08,0,0,1-9,137.24c-8.86,41-23.64,79.73-43.4,116.76-19.66,36.82-44.42,70-73.25,100.32a431.8,431.8,0,0,1-53.89,48,450.3,450.3,0,0,1-71.62,44,456.86,456.86,0,0,1-72.13,28.2A461,461,0,0,1,350.81,889a451.89,451.89,0,0,1-158.73-81.65,391.86,391.86,0,0,1-35.75-31.86c-19-19.47-36.68-40-52.37-62.18A450.58,450.58,0,0,1,48.54,607.81,455.33,455.33,0,0,1,21.13,443.07,456.77,456.77,0,0,1,34.58,341.43a419.7,419.7,0,0,1,12.33-41.28c12.23-33.58,27.71-65.63,47.37-95.56a473.86,473.86,0,0,1,41.47-54.16c12.53-14.2,26.38-27.19,40.34-40.07,17.73-16.23,37.08-30.13,57.26-43a427,427,0,0,1,51.14-27.69c3.26-1.52,6.42-2.94,9.68-4.47a.85.85,0,0,0,1.22-.6c2.75-1.12,5.5-2.24,8.15-3.45a.87.87,0,0,0,1.22-.51c.41-.1.82-.3,1.22-.41a.87.87,0,0,0,1.23-.5c.4-.21.81-.31,1.22-.51a.87.87,0,0,0,1.22-.51c1.73-.61,3.47-1.32,5.2-1.93a2.82,2.82,0,0,0,2.75-1l4.18-1.52c.61.3,1,.1,1.32-.51,5-1.82,10-3.55,15.18-5a2.77,2.77,0,0,0,2.75-.91c1.22-.41,2.44-.71,3.67-1.12a.89.89,0,0,0,1.32-.4c.82-.21,1.63-.51,2.45-.71.51.5.81.1,1.12-.31l2.14-.61a.89.89,0,0,0,1.32-.4l2.14-.61a.91.91,0,0,0,1.33-.41,3,3,0,0,1,.91-.2c.51.51.82.1,1.12-.3.31-.1.61-.1.92-.21.51.61.81.11,1.12-.3a14.71,14.71,0,0,1,2.24-.51c.61.31,1,.1,1.33-.5.91-.21,1.93-.41,2.85-.72.51.51.81.21,1.12-.3.3-.1.61-.1.92-.2.51.5.81.2,1.12-.21,1.12-.3,2.24-.5,3.36-.81.51.51.81.21,1.12-.3L385,6.59c.51.51.82.2,1.12-.2,2.24-.41,4.59-.92,6.83-1.32.51.5.81.3,1.12-.21l1.83-.3c.51.61.82.3,1.12-.2,1.63-.31,3.26-.51,4.89-.81.51.6.82.3,1.12-.21L405,3c.51.61.81.3,1.12-.2.61-.11,1.22-.21,1.94-.31.4.51.81.31,1.12-.1A15,15,0,0,0,411.53,2c.61.61,1.12.41,1.63-.2l2.34-.3c.41.61.82.3,1.12-.21l2.86-.3c.4.61.81.3,1.12-.1L423.45.6c.61.61,1.12.51,1.63-.2l3.36-.3c.61.61,1.12.5,1.63-.21l3.36-.3a1.35,1.35,0,0,0,2.14-.2l3.87-.31a1.35,1.35,0,0,0,2.14-.2l4.89-.3a2.34,2.34,0,0,0,3.06-.21A40.14,40.14,0,0,0,455.64-1.63ZM823.72,694.23a3.45,3.45,0,0,0,.62-.3c2.54-3.65,5-7.41,7.53-11.06,1.84-2.64,1.23-3.85-2.13-4.26a7.82,7.82,0,0,0-1.53,0H687.82c-4.48,0-6.62,2.13-6.62,6.49,0,6-.1,12.07,0,18.06,0,2.13-.61,2.54-2.65,2.54-16.71-.11-33.31-.11-50,0-2.14,0-2.75-.51-2.75-2.74q.15-58,0-116.05c0-2.33.71-2.63,2.85-2.63,23.53.1,47-.11,70.5.1,5.91,0,8-3,8-7.81q-.17-56.15-.11-112.3c0-2.13.41-3,2.86-2.94,9.57.21,19,.1,28.62,0,2.14,0,2.75.51,2.75,2.74-.1,17.55-.1,35-.1,52.55v60.76c0,5,2,7,6.93,7h55.32c3.26,0,5.6-1.32,6.21-3.86a14.45,14.45,0,0,0,.21-3.65V464.38c0-2.34.71-2.95,3-2.84,9.17.1,18.44,0,27.61,0,3.77,0,3.77,0,3.77,3.65V577.68c0,4.77,2,6.8,6.83,6.8,8.35,0,16.81-.1,25.16.1,2.34,0,3.26-.71,4-2.94A430.81,430.81,0,0,0,898.5,487.3,426.75,426.75,0,0,0,882,329.06a368.28,368.28,0,0,0-17.32-47.17A431.22,431.22,0,0,0,798.76,176.7c-22.2-26.07-47.47-48.89-74.77-69.38-22.31-16.74-46.46-30.23-71.72-42a424.21,424.21,0,0,0-77.94-26.88,407.29,407.29,0,0,0-94.65-11.56A426.67,426.67,0,0,0,313.22,58.73c-32.5,13.59-63.27,30.12-91.08,51.83-5.2,4.06-10.49,8-15.69,12.17A431.37,431.37,0,0,0,150.93,177a417.43,417.43,0,0,0-50.13,73.14,411.16,411.16,0,0,0-33.62,82,428.24,428.24,0,0,0-16.4,144.14A444.9,444.9,0,0,0,62.5,554.86c2.65,11.26,6,22.31,9.68,33.27,3,9.23,6.62,18.36,10.29,27.39.61,1.62,1.32,1.82,2.64.81,1.63-1.12,3.37-2.13,5-3.15,14.77-9,29.54-17.95,44.41-27,21.09-12.88,42.39-25.26,63-38.75a7.18,7.18,0,0,0,3.77-6.69c-.1-24.65,0-49.2-.1-73.85a6.38,6.38,0,0,1,1-3.75c6.93-9.64,13.86-19.38,20.68-29.11,1.33-1.93,1.94-1.53,3.06.1,6.52,9.43,13.14,18.87,19.86,28.2a8.07,8.07,0,0,1,1.63,5.27c-.1,24.35,0,48.79-.1,73.14,0,2.74.72,4.77,3.06,6.29,7,4.46,14,9.13,21.09,13.49,14.57,9.13,29.24,18.16,43.91,27.29,19.56,12.07,39,24.14,58.58,36.11a3.48,3.48,0,0,1,1.93,3.55c-.1,11.46-.1,22.92,0,34.49a5,5,0,0,1-1.63,3.85c-5.3,5.17-10.49,10.55-15.89,15.72a9,9,0,0,0-3.06,7.41c.1,54.37,0,108.74.1,163.11,0,2.64-.81,5.88.41,7.71,1.33,2,4.89,1.93,7.54,2.64,3.36.91,3.16,1.32,3.16-2.44V691.9a5.57,5.57,0,0,1,1.93-4.56c6.83-6.7,13.55-13.39,20.28-20.09q39-38.81,77.93-77.7c1-1,1.94-2,2.86-3,5.29-5.79,5.19-5.79,10.69-.21Q504,610.2,528,634.08a8,8,0,0,0,2.86,1.93c4.07,1.22,7.43-1.52,7.43-6.09V581.33c0-1.92.51-2.53,2.55-2.43,3.87.1,7.85.2,11.72,0,2.34-.1,2.85.71,2.85,2.94-.1,25.26,0,50.62-.1,75.88a7.79,7.79,0,0,0,2.44,6c7.85,7.71,15.49,15.62,23.43,23.33a7.21,7.21,0,0,1,2.35,5.58q-.15,83.53-.1,167.07v2.23c0,1.12.51,1.42,1.52,1.12,2.25-.61,4.49-1.32,6.73-1.83s3.05-1.52,3.05-4q-.15-68.46-.1-137c0-3.65-.51-3.24,3.16-3.24h88.12c4.69,0,6.83-2.24,6.83-6.8V693c0-3.15,0-3.15,3.26-3.15h123C823.52,689.57,823.52,689.57,823.72,694.23Zm-503,76.49c0-24.75,0-49.4.1-74.15a5,5,0,0,0-3.06-5.18,345.38,345.38,0,0,0-54.4-23.73,356,356,0,0,0-96.48-19.48,321.29,321.29,0,0,0-65.51,3.15c-1.42.2-1.63.81-1,1.92,1.32,2.34,2.75,4.67,4.07,7.1.71,1.32,1.43,1.63,3,1.42a289.07,289.07,0,0,1,39.63-2.94A319.29,319.29,0,0,1,229,669.28c26.8,7,52.78,16.23,77.43,28.91,2.14,1.12,3.06,2.23,3.06,4.87q-.15,68.48-.1,137a13.76,13.76,0,0,1,0,2,1.92,1.92,0,0,0,1.52,2.23c2.45.91,5,1.83,7.34,2.94s2.55.31,2.55-1.82Z"/><path class="cls-2" d="M317.8,25.86a2.92,2.92,0,0,1-2.75,1A3.14,3.14,0,0,1,317.8,25.86Z"/><path class="cls-2" d="M625.17,23.33a2.86,2.86,0,0,1-2.76-1A4.06,4.06,0,0,1,625.17,23.33Z"/><path class="cls-2" d="M614.67,19.88a2.76,2.76,0,0,1-2.75-.92A3.51,3.51,0,0,1,614.67,19.88Z"/><path class="cls-2" d="M341.23,18a2.82,2.82,0,0,1-2.75.91A3.29,3.29,0,0,1,341.23,18Z"/><path class="cls-2" d="M586.55,11.76c-1.12.51-1.83-.1-2.54-.71A2.94,2.94,0,0,1,586.55,11.76Z"/><path class="cls-2" d="M435.37-.41a1.34,1.34,0,0,1-2.14.2A2.06,2.06,0,0,1,435.37-.41Z"/><path class="cls-2" d="M516.87-.11a1.42,1.42,0,0,1-2.14-.2A1.71,1.71,0,0,1,516.87-.11Z"/><path class="cls-2" d="M429.87.2c-.51.61-1,.81-1.63.2A1.14,1.14,0,0,1,429.87.2Z"/><path class="cls-2" d="M521.86.3c-.61.61-1.12.51-1.63-.2A1.37,1.37,0,0,1,521.86.3Z"/><path class="cls-2" d="M424.87.71a1,1,0,0,1-1.63.2A1.15,1.15,0,0,1,424.87.71Z"/><path class="cls-2" d="M530.83,1.31c-.61.61-1.12.41-1.63-.2A1.4,1.4,0,0,1,530.83,1.31Z"/><path class="cls-2" d="M534.8,1.82c-.61.61-1.12.41-1.63-.2A1.39,1.39,0,0,1,534.8,1.82Z"/><path class="cls-2" d="M413,2.13a.92.92,0,0,1-1.63.2A1.37,1.37,0,0,1,413,2.13Z"/><path class="cls-2" d="M397,4.56c-.31.51-.61.81-1.12.2A1,1,0,0,1,397,4.56Z"/><path class="cls-2" d="M554.26,4.76c-.51.51-.82.31-1.12-.2A.94.94,0,0,1,554.26,4.76Z"/><path class="cls-2" d="M394,5.07c-.31.5-.62.81-1.12.2A.93.93,0,0,1,394,5.07Z"/><path class="cls-2" d="M559.66,5.78c-.51.5-.82.3-1.12-.21A.9.9,0,0,1,559.66,5.78Z"/><path class="cls-2" d="M562.21,6.28c-.51.61-.82.31-1.13-.3A.87.87,0,0,1,562.21,6.28Z"/><path class="cls-2" d="M386.06,6.59c-.31.51-.61.71-1.12.2A.94.94,0,0,1,386.06,6.59Z"/><path class="cls-2" d="M569.64,7.81c-.51.5-.81.2-1.12-.31A.82.82,0,0,1,569.64,7.81Z"/><path class="cls-2" d="M572.19,8.31c-.51.51-.82.21-1.12-.2A.82.82,0,0,1,572.19,8.31Z"/><path class="cls-2" d="M374.55,9c-.31.51-.61.81-1.12.31C373.83,8.92,374.14,8.82,374.55,9Z"/><path class="cls-2" d="M578.61,9.73c-.51.51-.82.21-1.12-.3A1.1,1.1,0,0,1,578.61,9.73Z"/><path class="cls-2" d="M551.2,4.26c-.51.6-.81.3-1.12-.21A.9.9,0,0,1,551.2,4.26Z"/><path class="cls-2" d="M368.13,10.44c-.2.51-.51.82-1.12.31A.92.92,0,0,1,368.13,10.44Z"/><path class="cls-2" d="M548.25,3.85c-.51.61-.82.3-1.12-.2A.73.73,0,0,1,548.25,3.85Z"/><path class="cls-2" d="M364.16,11.46a.87.87,0,0,1-1.33.51A1,1,0,0,1,364.16,11.46Z"/><path class="cls-2" d="M588.59,12.27c-.51.51-.81.1-1.12-.3A.81.81,0,0,1,588.59,12.27Z"/><path class="cls-2" d="M360.69,12.47c-.3.41-.51.81-1.12.31A.82.82,0,0,1,360.69,12.47Z"/><path class="cls-2" d="M590.53,12.88c-.51.51-.82.1-1.12-.31C589.92,12.27,590.32,12.37,590.53,12.88Z"/><path class="cls-2" d="M358.65,13c-.3.41-.5.81-1.12.3A.86.86,0,0,1,358.65,13Z"/><path class="cls-2" d="M592.77,13.39a.93.93,0,0,1-1.33-.41A1.08,1.08,0,0,1,592.77,13.39Z"/><path class="cls-2" d="M356.72,13.59a.9.9,0,0,1-1.33.4C355.7,13.49,356.11,13.18,356.72,13.59Z"/><path class="cls-2" d="M596,14.3c-.51.51-.82.1-1.12-.31C595.42,13.79,595.82,13.89,596,14.3Z"/><path class="cls-2" d="M353.15,14.5a.9.9,0,0,1-1.32.41C352.24,14.5,352.64,14.2,353.15,14.5Z"/><path class="cls-2" d="M598.27,14.91A.9.9,0,0,1,597,14.5C597.56,14.2,597.86,14.5,598.27,14.91Z"/><path class="cls-2" d="M349.69,15.52c-.31.4-.51.81-1.12.3C348.87,15.31,349.28,15.21,349.69,15.52Z"/><path class="cls-2" d="M601.73,15.92a.9.9,0,0,1-1.32-.4A1,1,0,0,1,601.73,15.92Z"/><path class="cls-2" d="M346.23,16.53a.91.91,0,0,1-1.33.41A.91.91,0,0,1,346.23,16.53Z"/><path class="cls-2" d="M606.73,17.44a.9.9,0,0,1-1.33-.4A.91.91,0,0,1,606.73,17.44Z"/><path class="cls-2" d="M403,3.55c-.3.5-.61.81-1.12.2A.91.91,0,0,1,403,3.55Z"/><path class="cls-2" d="M545.29,3.34c-.51.51-.81.31-1.12-.2A.74.74,0,0,1,545.29,3.34Z"/><path class="cls-2" d="M405.93,3.14c-.31.51-.62.81-1.13.2C405.21,2.94,405.52,2.84,405.93,3.14Z"/><path class="cls-2" d="M323.3,23.93a1,1,0,0,1-1.32.51C322.39,23.93,322.69,23.63,323.3,23.93Z"/><path class="cls-2" d="M632.09,25.86c-.61.31-1,0-1.32-.51A1.12,1.12,0,0,1,632.09,25.86Z"/><path class="cls-2" d="M541.83,2.84c-.51.6-.82.3-1.12-.21C541.12,2.33,541.42,2.43,541.83,2.84Z"/><path class="cls-2" d="M636.07,27.38c-.61.31-1,0-1.33-.5C635.35,26.57,635.76,26.88,636.07,27.38Z"/><path class="cls-2" d="M640,28.8c-.61.31-1,0-1.32-.5A1.11,1.11,0,0,1,640,28.8Z"/><path class="cls-2" d="M309.86,28.8c-.31.51-.72.82-1.23.51C308.94,28.91,309.24,28.6,309.86,28.8Z"/><path class="cls-2" d="M307.41,29.82c-.31.51-.71.81-1.22.51A.94.94,0,0,1,307.41,29.82Z"/><path class="cls-2" d="M304.86,30.83c-.3.51-.71.81-1.22.51C304,30.83,304.25,30.63,304.86,30.83Z"/><path class="cls-2" d="M650,32.86a.87.87,0,0,1-1.22-.51C649.31,32.05,649.72,32.35,650,32.86Z"/><path class="cls-2" d="M295.39,34.79a.86.86,0,0,1-1.22.61C294.47,34.79,294.78,34.59,295.39,34.79Z"/><path class="cls-2" d="M657,35.8a.85.85,0,0,1-1.22-.61A1,1,0,0,1,657,35.8Z"/><path class="cls-2" d="M409,2.73c-.3.41-.61.71-1.12.11A.8.8,0,0,1,409,2.73Z"/><path class="cls-2" d="M538.26,2.33c-.51.61-.81.3-1.12-.2A.72.72,0,0,1,538.26,2.33Z"/><path class="cls-2" d="M416.42,1.62c-.31.51-.61.71-1.12.2A.94.94,0,0,1,416.42,1.62Z"/><path class="cls-2" d="M420.39,1.21c-.3.41-.61.71-1.12.1C419.68,1,420,.91,420.39,1.21Z"/><path class="cls-2" d="M526.34.81c-.4.4-.71.4-1-.1C525.73.3,526,.4,526.34.81Z"/><path class="cls-2" d="M370.06,10c-.3.5-.61.81-1.12.2C369.35,9.94,369.66,9.83,370.06,10Z"/><path class="cls-3" d="M526.85,616.63c-2-1.11-3.05-2.74-4.27-4q-21.25-21.15-42.59-42.5c-3.57-3.56-6.42-3.56-10,0-15.9,15.82-31.79,31.75-47.58,47.57a22.24,22.24,0,0,1-2,1.83V378.86c0-6.18-1.63-7.71-7.84-7.71H339.4c-2.24,0-2.95-.5-2.95-2.84q.15-34.68,0-69.38a5.3,5.3,0,0,1,1.93-4.26q19.26-16.89,38.31-33.88c14.87-13.19,29.64-26.47,44.52-39.66,4.79-4.26,9.78-8.52,14.57-12.78,1.32-1.22,2.14-1.42,3.66-.1q17.88,16,35.86,31.85c15.9,14,31.79,28.1,47.68,42.09,4.59,4.06,9.07,8.22,13.76,12.18a6.28,6.28,0,0,1,2.34,5.27q-.15,120.81,0,241.63V565.1c0,1.83-.51,2.54-2.34,2.44-8.66-.61-10,2-9.78,9.84.2,12.07.1,24.14.1,36.21A13.42,13.42,0,0,0,526.85,616.63Z"/><path class="cls-3" d="M641.87,360.71V569.87c0,3.35,0,3.35-3.36,3.35H621.09c-4.07,0-6.11,1.93-6.42,6a28.81,28.81,0,0,0,0,2.94V702.55c0,2.33-.51,3.15-2.95,3-4.79-.2-9.68-.2-14.47,0-2.44.11-2.85-.81-2.75-2.94.1-5,0-9.94.1-14.91a7.41,7.41,0,0,0-2.34-5.68c-8-8-16.1-16-24.15-23.94a5.53,5.53,0,0,1-1.83-4.36V574.94c0-5.78-1.73-7.5-7.64-7.5-2.24,0-4.48-.1-6.72,0-1.43.1-1.94-.51-1.84-1.83a7.72,7.72,0,0,0,0-1.52V151.14c0-3.25,0-3.25,3.36-3.25,28.43,0,56.95,0,85.38-.1,2.44,0,2.95.71,2.95,3Q641.92,256,641.87,360.71Z"/><path class="cls-3" d="M387.28,652.44V635.2c0-3.86-.1-7.81,0-11.67a7.36,7.36,0,0,0-3.87-7.1q-23.07-14.14-46.05-28.5c-18.54-11.47-37-23-55.52-34.49a5.72,5.72,0,0,1-3.06-5.38q.15-81.25.1-162.6c0-3.15,0-3.15,3.26-3.15q62.06,0,124.19-.1c2.45,0,3,.71,3,3q-.15,121.42,0,243a5.88,5.88,0,0,1-1.94,4.56C400.73,639.15,394.21,645.64,387.28,652.44Z"/></g></g><g id="Layer_3" data-name="Layer 3"><path class="cls-4" d="M8.3,983.11c0-16.73,9.6-31.25,27.7-31.25,6.9,0,12.3,2.31,18.1,7.7a6.37,6.37,0,0,1,.2,8.47,5,5,0,0,1-7.3-.22c-3.2-3.74-6.6-4.73-11.1-4.73-12.2,0-18,9.46-18,20,0,10.78,5.8,20.68,18,20.68,4.5,0,8.7-2,12.3-5.61,2.4-2.09,5.8-1,7.3,1a6.31,6.31,0,0,1-.9,8.14c-5.5,5.62-12.2,6.83-18.7,6.83C16.9,1014.25,8.3,999.94,8.3,983.11Z"/><path class="cls-4" d="M66.5,958.68c0-7.15,10.4-7.37,10.4,0v49.62a5.21,5.21,0,1,1-10.4,0Z"/><path class="cls-4" d="M103.4,964.29H89.6c-6.9,0-6.9-11.11,0-11.11H127c7,0,7,11.11,0,11.11H113.9v43.9c0,7.6-10.4,7.71-10.4,0l-.1-43.9Z"/><path class="cls-4" d="M138.3,961.65c-4.3-5.83,4.7-12.54,8.8-6.16l14.5,23.77,14.8-23.77c4.2-6.38,12.8,0,8.7,5.83l-18.5,28.94v17.93c.7,7.6-10.4,7.6-10.4,0V990.26Z"/><path class="cls-4" d="M247.8,992.9l11.8-35.76c2.4-7,11.9-3.74,9.6,3.85l-15.6,46.65c-1.4,5-2.8,6.39-5.5,6.39s-3.7-1.87-5.3-5.07L229,974.63l-13.1,33.78c-1.4,3.64-2.8,5.73-5.6,5.73s-4.2-2.09-5.5-5.95l-15.3-47.42c-2.4-7.81,7.7-10.67,9.7-3.85l11.8,36,14-35.76c1.9-5.28,6.9-5.61,8.9-.22Z"/><path class="cls-4" d="M277.2,958.68c0-7.15,10.4-7.37,10.4,0v49.62a5.21,5.21,0,1,1-10.4,0Z"/><path class="cls-4" d="M304.8,1013.59c-2.6,0-5.5-1.54-5.5-5.4v-49.4a5.6,5.6,0,0,1,5.5-5.39h18.1c36.1,0,35.3,60.19.7,60.19Zm5-49.52V1003h13.1c21.3,0,22.3-38.95,0-38.95Z"/><path class="cls-4" d="M363.8,1013.59c-2.8,0-4.9-2.31-4.9-5.4v-49.4c0-3.08,2.1-5.39,4.9-5.39h28.4c7.3,0,7.1,11.33,0,11.33H369.4v13h19.9c7,0,7,11.34,0,11.34H369.4v13h24.1c7.2,0,7.7,11.34,0,11.34H363.8Z"/><path class="cls-4" d="M436.1,1013.59c-2.6,0-5.5-1.54-5.5-5.4v-49.4a5.6,5.6,0,0,1,5.5-5.39h18.1c36.1,0,35.3,60.19.7,60.19Zm5-49.52V1003h13.1c21.3,0,22.3-38.95,0-38.95Z"/><path class="cls-4" d="M489.2,1013.59a6.45,6.45,0,0,1-2.5-8.37l22.7-48.74c2.1-4.62,7.8-4.73,9.8,0l22.3,48.74c3.2,6.83-6.3,12.22-9.2,5.4l-3.5-7.71H499.7l-3.4,7.71C495,1013.59,492,1014.25,489.2,1013.59Zm34-22-8.9-21.46-9.7,21.46Z"/><path class="cls-4" d="M547.6,966.49c1.8-16.83,25-19.92,35.9-10.67,5.4,4.73-.3,12.32-5.1,8.47-5.8-4.07-19.1-6-20.8,3.08-2.1,14.31,32.2,6,31.7,29.16-.6,22.12-29.6,22.56-40.5,12.65a6.86,6.86,0,0,1-1.1-8.47c2.1-2.31,4.3-3.08,7-.66,6.5,4.84,23.1,8.47,24.3-3.85C578.1,983.44,545.2,991.25,547.6,966.49Z"/><path class="cls-4" d="M598.5,1008.19v-49.4a5.2,5.2,0,0,1,5.6-5.39c2.8,0,4.8,2.31,4.8,5.39v18.92h25.8V958.79a5.38,5.38,0,0,1,5.4-5.39c2.8,0,4.9,2.31,4.9,5.39v49.4c0,3.09-2.1,5.4-4.9,5.4a5.45,5.45,0,0,1-5.4-5.4v-19H609v19c0,3.09-2.1,5.4-4.8,5.4C600.6,1013.59,598.5,1011.28,598.5,1008.19Z"/><path class="cls-4" d="M660.7,1013.59c-2.8,0-4.8-2.31-4.8-5.4v-49.4c0-3.08,2-5.39,4.8-5.39h22.2c10.3,0,16,7.7,16,16.61a14.67,14.67,0,0,1-4.3,11c6.2,2.64,9,8,9,14.41,0,10-6.2,18.16-18,18.16Zm22.2-49.52H666.2v13h16.7c3.4,0,5.5-2.31,5.5-6.93C688.4,967.26,686.3,964.07,682.9,964.07ZM666.2,1003h19.3c9.2,0,9.2-15.4,0-15.4H666.2Z"/><path class="cls-4" d="M740.6,1014.47c-14.6.66-29.8-10-29.8-31.25s15.2-31.91,29.8-31.91c13.8.77,28.3,11.33,28.3,31.91S754.5,1014.47,740.6,1014.47Zm-.8-51.83c-8.8,0-18.5,6.82-18.5,20.58s9.6,20.57,18.5,20.57c9.1,0,18.8-6.93,18.8-20.57S748.9,962.64,739.8,962.64Z"/><path class="cls-4" d="M777.5,1013.59a6.45,6.45,0,0,1-2.5-8.37l22.7-48.74c2.1-4.62,7.8-4.73,9.8,0l22.3,48.74c3.2,6.83-6.3,12.22-9.2,5.4l-3.5-7.71H788l-3.4,7.71C783.2,1013.59,780.3,1014.25,777.5,1013.59Zm33.9-22-8.9-21.46-9.7,21.46Z"/><path class="cls-4" d="M847.4,1008c0,7.6-10.5,7.82-10.5.22v-49.4c0-3.08,2.1-5.28,4.7-5.28h21c20.1,0,24.2,29.6,7.4,37l10.5,14.08c4.1,6.72-4.1,13.1-8.8,6.5l-11.9-18.82H847.4Zm0-25.74h15.2c10.3,0,10.9-18.27,0-18.27H847.4Z"/><path class="cls-4" d="M895.7,1013.59c-2.6,0-5.5-1.54-5.5-5.4v-49.4a5.6,5.6,0,0,1,5.5-5.39h18.1c36.1,0,35.3,60.19.7,60.19Zm5-49.52V1003h13.1c21.3,0,22.3-38.95,0-38.95Z"/></g></svg>