<svg id="Layer_1" data-name="Layer 1" xmlns="http://www.w3.org/2000/svg" viewBox="0 0 908.08 1020.1"><defs><style>.cls-1{fill:#fff;}.cls-2{fill:#ccc;}.cls-3,.cls-4{fill:#39b54a;}.cls-4,.cls-5,.cls-6{stroke:#000;}.cls-4{stroke-linecap:round;stroke-linejoin:round;}.cls-4,.cls-6,.cls-7{stroke-width:2px;}.cls-5,.cls-6{fill:gray;}.cls-5,.cls-6,.cls-7{stroke-miterlimit:10;}.cls-5{stroke-width:3px;}.cls-7{fill:#ed1c24;stroke:#231f20;}.cls-8{fill:#c1272d;}</style></defs><path class="cls-1" d="M28.6,986.67c0-20.42,12.8-38,37.15-38,9.2,0,16.51,2.76,24.24,9.43a6.87,6.87,0,0,1-8.78,10.56,7.34,7.34,0,0,1-.64-.61c-4.34-4.56-8.79-5.82-14.82-5.82-16.3,0-24.14,11.54-24.14,24.44,0,13.13,7.75,25.2,24.14,25.2a24.61,24.61,0,0,0,16.51-6.78,7.12,7.12,0,0,1,9.73,1.29c1.71,2.34,2.58,6.25-1.16,10-7.41,6.88-16.3,8.26-25.08,8.26C40.09,1024.57,28.6,1007.11,28.6,986.67Z" transform="translate(-21.1 -4.83)"/><path class="cls-1" d="M105.75,956.93a6.61,6.61,0,0,1,6.68-6.45,6.45,6.45,0,0,1,6.24,6.45v53h28.79c10.32,0,10.58,13.86,0,13.86H112.37a6.45,6.45,0,0,1-6.67-6.23v-.22Z" transform="translate(-21.1 -4.83)"/><path class="cls-1" d="M166.94,956.93c0-8.67,14-9,14,0v60.41c0,8.79-14,9-14,0Z" transform="translate(-21.1 -4.83)"/><path class="cls-1" d="M210.64,977.33v39.16a7.3,7.3,0,0,1-7.31,7.3H203c-3.38,0-6.35-2.58-6.35-7.29V956.93a7,7,0,0,1,6.35-7.3c3.07,0,4.86,1.8,6.67,3.87l23.24,31.44,24.12-32.6A6.87,6.87,0,0,1,269.13,957v59.59c0,4.65-3,7.3-6.35,7.3-3.81,0-6.78-2.58-6.78-7.3V977.33l-17.51,22.26c-3.81,4.65-8.58,4.65-12.07,0Z" transform="translate(-21.1 -4.83)"/><path class="cls-1" d="M282.41,1023.8a7.46,7.46,0,0,1-3.48-10c0-.07.07-.14.1-.2l30.37-59.38c2.86-5.61,10.48-5.82,13.13,0l29.84,59.38c4.34,8.26-8.46,14.82-12.27,6.57l-4.66-9.32H296.38l-4.55,9.32C290.14,1023.8,286.22,1024.57,282.41,1023.8ZM327.94,997,316,970.8,303,997Z" transform="translate(-21.1 -4.83)"/><path class="cls-1" d="M372.81,963.81H354.28c-9.21,0-9.21-13.55,0-13.55h50.06a6.78,6.78,0,1,1,0,13.55H386.77v53.46c0,9.2-14,9.42-14,0Z" transform="translate(-21.1 -4.83)"/><path class="cls-1" d="M428,1023.8a6.46,6.46,0,0,1-6.57-6.34V957.14a6.46,6.46,0,0,1,6.35-6.56H466c9.73,0,9.53,13.76,0,13.76H435.46v15.88h26.72c9.43,0,9.43,13.86,0,13.86H435.46V1010h32.27c9.63,0,10.33,13.86,0,13.86Z" transform="translate(-21.1 -4.83)"/><path class="cls-1" d="M516,1023.8a7.46,7.46,0,0,1-3.48-10,1.24,1.24,0,0,1,.1-.2L543,954.26c2.87-5.61,10.48-5.82,13.13,0L586,1013.64c4.35,8.26-8.47,14.82-12.27,6.57l-4.66-9.32H530l-4.56,9.32C523.74,1023.8,519.82,1024.57,516,1023.8ZM561.58,997l-12-26.15L536.55,997Z" transform="translate(-21.1 -4.83)"/><path class="cls-1" d="M593,986.67c0-20.42,12.82-38,37.17-38,9.2,0,16.51,2.76,24.23,9.43a6.87,6.87,0,1,1-9.41,9.95c-4.35-4.56-8.79-5.82-14.82-5.82-16.31,0-24.14,11.54-24.14,24.44,0,13.13,7.74,25.2,24.14,25.2a24.65,24.65,0,0,0,16.51-6.78,7.12,7.12,0,0,1,9.73,1.29c1.69,2.34,2.58,6.25-1.16,10-7.41,6.88-16.31,8.26-25.08,8.26C604.49,1024.57,593,1007.11,593,986.67Z" transform="translate(-21.1 -4.83)"/><path class="cls-1" d="M690,963.81H671.5c-9.22,0-9.22-13.55,0-13.55h50.06a6.78,6.78,0,0,1,0,13.55H704v53.46c0,9.2-14,9.42-14,0Z" transform="translate(-21.1 -4.83)"/><path class="cls-1" d="M739.45,956.93c0-8.67,14-9,14,0v60.41c0,8.79-14,9-14,0Z" transform="translate(-21.1 -4.83)"/><path class="cls-1" d="M806.34,1024.88c-19.57.85-39.9-12.17-39.9-38.1s20.33-38.84,39.9-38.84c18.56,1,37.92,13.76,37.92,38.84S824.9,1024.88,806.34,1024.88Zm-1.16-63.25c-11.85,0-24.77,8.37-24.77,25.08s12.9,25.1,24.77,25.1c12.17,0,25.19-8.47,25.19-25.1s-13-25-25.19-25Z" transform="translate(-21.1 -4.83)"/><path class="cls-1" d="M857.26,958c0-3.81.84-7.52,6.35-7.52,3.87,0,4.65,1,7.51,3.71L906.22,998V956.93c0-3.49,3.07-7.3,6.67-7.3a8.05,8.05,0,0,1,7.52,7.3v59.6c0,4.65-2.87,6.45-5.62,7.29-3.7,0-5.5-.84-8.57-3.7l-35-44.46v40.87c0,4.65-2.87,7.29-6.67,7.29a7,7,0,0,1-7.2-6.71,5.61,5.61,0,0,1,0-.58Z" transform="translate(-21.1 -4.83)"/><ellipse class="cls-1" cx="454.19" cy="445.46" rx="448.62" ry="439.26"/><path class="cls-2" d="M923.9,446.47c.58,242.63-199.6,439.86-447.47,440.4s-449.06-195.5-449.78-438a434.48,434.48,0,0,1,12.2-103.5c48,192.53,225.56,335.2,437,334.77S864.16,535.92,911,343.12A426,426,0,0,1,923.9,446.47Z" transform="translate(-21.1 -4.83)"/><path class="cls-3" d="M672.55,565.58c1.16,11.51.58,22.89-3,33.94-4.93,15.61-4.64,31.84-5.36,47.84-.44,10.22-1,20.44-4.5,30.39-3.76,10.74-11.59,17.6-21.15,23-6.52,3.7-13,7.25-19.43,11.22-9,5.68-10.43,15-11.17,24.42-.43,6-.43,12.06-.72,18.17A28.79,28.79,0,0,1,598,774c-10.72,10.65-21.74,21-31.88,32.23-13.21,14.48-20.44,31.66-22.18,51a37.88,37.88,0,0,1-1.16,5.68c-2.17,7.82-6.82,11.36-15.24,11.36A38.58,38.58,0,0,1,498,860.66a267.65,267.65,0,0,1-22.35-30c-17.83-27.54-31.5-57.07-43.92-87.17-4.65-11.08-12.33-17.92-24.21-20.58s-23.77-4.84-35.37-8.52a167.83,167.83,0,0,1-30.73-13.07c-22.35-12.49-32.75-32.51-32.75-57.07,0-13.77,2.31-27.69,3.91-41.46,1.3-11.21,1.73-22.29-1.89-33.22-2.32-7.09-5.08-9.51-12.32-8.8-17.27,1.42-31.49-4.68-42.76-16.47-12.9-13.63-28.7-22.44-46.24-28.86-3.19-1.28-6.37-2.55-9.42-4.11-7.82-4.26-16.1-5.26-25.08-4.41-13.21,1.14-24.38-4.54-34.35-12.63-13.92-11.22-21.16-26.27-24.79-42.88-3.48-16.32-5.79-32.93-9-49.26Q101.34,373.87,95,345.54c-3.33-15.19-6.81-30.38-6.23-46.14a54.83,54.83,0,0,1,14.64-35.78c3.34-3.83,6.67-7.66,9.72-11.64,7.38-9.37,9-20.16,7.24-31.52-2.17-14.77,2.76-26.87,13.21-37.2,6.67-6.66,11.59-14.19,13.77-23.88,4.64-5,9.43-9.95,14.36-14.63A435.69,435.69,0,0,1,204.49,108c4.35-3.26,8.7-6.53,13-9.51,6.67,3.41,8.12,9.23,9.14,15.33a1,1,0,0,0,.14.71c2.33,10.95,7,13.34,17.55,9.08,2.46-1,4.63-2.4,7.11-3.26,2-.71,4.64-2,6.37-1.41,4.93,1.56,6.24-1.71,8.42-4.55,5.54-6.79,10.56-14.31,17.23-20,4.93-4.12,8.41-8.81,12-13.78,8-11.36,19.56-17.91,33-21.15,3.91-1,8.7,0,12.76,1.27,3.62,1.14,5.37.43,7.54-2.41,3.47-4.26,7.11-8.66,11.45-12.21,8.55-7.09,18.29-9.65,29-4.4,7.11,3.55,14.22,7.39,21.45,10.51,5.94,2.55,12.32,4.26,18.55,6.38,2,.72,4.06,1,6.1,1.56,5.5,1.57,8.84,5.12,9.41,10.65.58,4.69.73,9.38,1.16,14.93,6.38-1.7,12.47-3.4,18.41-5.11,4.79-1.42,9.56-3.12,14.35-4.54A20,20,0,0,1,483.83,75c6.1-.71,10.44,1.14,12.19,5s.12,8.49-3.93,12.47c-6.82,6.39-15.37,8.65-24.38,8.51a256.64,256.64,0,0,1-27.55-2.41c-7.39-1-9.85-.14-12.47,6.53a17.92,17.92,0,0,1-1.59,3.55c-4.07,6.25-5.51,13.06-5.51,20.16,0,8.09-3.47,14.2-11.17,17.46-8.27,3.55-15.8,2-22.76-3.26-8-6-12.2-14.34-15.51-23.29-1.59-4.54-3.19-9.22-4.64-13.93-2.9-9-9.42-13.48-18.7-14.34-9-.85-18-1.13-25.95-6-.58-.43-2.61.28-3.05,1-5.94,8.65-2.17,19.3,8,22.57l5.65,1.7c11.6,3.41,15.66,8.8,13.05,20.3a73.39,73.39,0,0,1-8.55,20.59c-4.35,7.52-11.18,9.65-19.72,7.24-7.53-2.13-15.07-4.68-22.61-6.81-1.89-.57-3.91-.72-5.94-1.14l-.44,1.28a22.41,22.41,0,0,0,3.77,1.7q4.46.93,9,1.42a27.73,27.73,0,0,1,17.82,9.65c3.93,4.54,6.1,4.69,11,1.28a46.48,46.48,0,0,0,5.51-5c6.52-6.53,14.06-6,19.13,1.84a60.61,60.61,0,0,1,5.94,11.79c2.61,7.1,7.83,10,15.36,10.65a49,49,0,0,1,12.61,3c7.84,3,14.94,14.06,9.57,22.57-.43.71.44,2.84,1.3,3.55,3.77,2.84,7.84,5.26,11.46,8.24,7,5.67,5.94,12.21-2.76,15.19-12.19,4.12-24.49,4.54-37.4,0,2.77,3.69,3.63,7.52,1.31,10.78-2,3-4.93,6.11-8.13,7.39a112.1,112.1,0,0,1-20.32,6.25c-6.09,1.42-10.29,4.54-11.45,10.22-2,10.08-7.68,16.92-16.81,21.89-7.4,4.12-13.05,10.37-14.5,18.91-.58,3.84,0,8,.29,11.94.58,10.51-3.33,19.45-10.29,27.12a144,144,0,0,1-12.76,12.06c-7.82,6.68-10,14.77-7.25,24.42,1.6,5.4,3.05,10.95,4.5,16.33a28.07,28.07,0,0,1,.87,5c.44,7.81-5.66,12.64-13.21,9.51A24.88,24.88,0,0,1,253,412c-3.93-5-6.68-10.79-10-16.18-7.68-12.35-12.91-14.2-26.53-8.52-6.37,2.7-12.32,6.39-18.4,9.79-4.5,2.56-9,5-13.21,7.81-2.9,2-6.23,4.55-7.39,7.67-5.94,16-7.54,32.51-3.91,49.41.58,3,2.18,5.82,3.33,8.51,1.45,3.27,3.92,4.4,7.68,3.7,8.41-1.85,14.23-7.1,19.57-13.07,3-3.4,5.8-7.1,8.7-10.65,4.79-5.81,10.16-7.66,15.8-5.67,7.54,2.7,11.89,8.52,11.31,15.92-.59,6.67-1.89,13.2-2.61,19.91-.44,3.83,0,7.66,0,12.07,2.75-.72,5.21-1.43,7.68-2,4.35-1.14,8.55-2.56,13-3.42,14.78-2.41,24.78,8.52,20.43,22.58-1.16,4-3.05,7.67-4.64,11.5s-.72,7.1,2.32,10.08c7,7,14.94,9.51,22.76,5.39,9-4.82,17.1-4.11,25.66,1.29,1.3-2.7,2.61-5.26,3.76-7.68,8-17.45,21.89-25.69,41.46-25,9.14.28,18.29.71,27.25.14,5.94-.42,11.89-2.27,17.69-4.12,10.58-3.26,20.58-2,30.29,3,7.83,4,15.8,7.8,23.77,11.35,6.53,2.84,13.49,4.26,20.87,3,10.16-1.71,18.85,1.7,26.25,8.23a239.16,239.16,0,0,1,18.28,17.74c6.53,7.11,13.63,9.24,23.37,6.54A378.87,378.87,0,0,1,595.23,543c6.09-1.13,12.47-.85,18.55-.7,12,.27,24.07.84,36.1,1.55C664,544.57,671.25,551.82,672.55,565.58Z" transform="translate(-21.1 -4.83)"/><path class="cls-3" d="M683.72,134.13c.14,12.35-1.16,24.56-5.23,36.5-2.61,7.52-5.94,13.62-14.78,14.61-9.86,1.14-18.41-1.13-24.39-9.51-9-12.78-6.52-24.88,6.67-33.65.87-.56,1.6-1.13,2.91-2.13-1.6-2-2.76-4.25-4.49-5.82-4.65-4-9.58-7.66-14.5-11.35-1.74-1.42-3.19-1.29-4.65.57-5.94,7.24-13.91,4.12-17.68-1.86-4.06-6.1-4.06-12.93-1.59-19.3a133.89,133.89,0,0,1,10.87-21.3c6.67-10.94,5.94-18.31-4.21-26.26a51.92,51.92,0,0,0-24.06-11,75.53,75.53,0,0,0,4.35,6.81c2.46,3.26,5.51,6.25,7.83,9.8,4.34,6.67,2.47,12.94-5.08,15.62-7.21,2.55-15,3.85-23,5.7A18.56,18.56,0,0,0,577,85.3c4.07,2,8.4,3.26,12.32,5.39,3.62,2.13,7.68,4.54,9.85,7.81,6.68,9.8,1.45,20.45-10.43,22-19,2.41-35.08-4.12-48.85-16.33-2.9-2.56-4.93-7-5.94-11-1.59-6.67,3.77-12.49,10.87-12.63,3.18,0,6.23.43,9.71.71-1.45-8.23-4.07-15.61-11.45-20.44-6.37-4.12-13.05-8-19.42-12.07-9.28-6-14.5-14.2-13.34-25.42.29-2.83-.44-4.82-2.32-6,3.48.15,7,.43,10.44.86A451.63,451.63,0,0,1,702.12,74.93c2.61,1.42,5.08,2.84,7.54,4.4a4.52,4.52,0,0,0-1.74,2.56,27.1,27.1,0,0,0,.14,21c1.17,3.12,2.61,6.11,3.92,9.23,2.6,6.82,0,11.94-7.25,13.48-4.2.86-8.7.86-13.05,1.14C684.14,127,683.72,127.32,683.72,134.13Z" transform="translate(-21.1 -4.83)"/><path class="cls-1" d="M838.08,706a436.4,436.4,0,0,0,29.13-44,434.39,434.39,0,0,1-54.78,75.28C821.42,727.3,830,716.92,838.08,706Z" transform="translate(-21.1 -4.83)"/><path class="cls-4" d="M923.9,449.17A420,420,0,0,1,914,541.31a6.18,6.18,0,0,1-2.9.85c-1.74-.28-4.2-2.41-4.34-4-.88-6.82-1.89-13.78-1.46-20.73,1-17.61,2.62-35.21,4.5-52.68.72-7.37,3-14.62,4.64-21.89,1.74-8.09-1.75-14.76-7-20.44-5.95-6.53-12.61-12.64-18.55-19a119.34,119.34,0,0,1-11.89-13.93c-6.52-8.8-7.54-18.45-2.76-28.39,1-2,1.74-4,3.2-7.25-5.95,2.13-10.88,3.84-15.8,5.69-8.85,3.26-14.36,9.08-16.26,18.73-1.31,7.25-6.24,12.78-12.76,16.61-13.48,8-28.45,12.07-44.07,14.06-11.59,1.57-22.46.57-32.18-6.24-3.77-2.7-7.11-6.11-10.87-9.09-7.53-6.1-14.49-12.94-22.75-17.91-16.25-9.8-25.4-23.43-28.84-41.31-3.92-19.74-8.27-39.47-12.47-59.2-4.06-19-1.75-37.77,4.49-55.94,5.51-16.33,11.89-32.37,17.83-48.56,1.74-4.82,3.48-9.65,5.51-14.34,3.33-8,9.14-11.07,17.83-9.79a13.1,13.1,0,0,1,2.32.57c13.33,4.83,26.53,2,39.86-.15a5.78,5.78,0,0,0,3.62-3.26c2.18-6,1.45-11.22-2.75-16.61-6.24-8-13.21-13.94-24.38-14.34-16.26-.57-27.44-11.08-29.72-24.7a15,15,0,0,0-2.76-6.25c4.21,2.56,8.26,5.11,12.33,7.81,7.4,4.91,14.51,9.87,21.62,15.13a418.53,418.53,0,0,1,35.79,29.52c58.43,53.53,102.2,122.1,124.24,199.48A415.44,415.44,0,0,1,923.9,449.17Z" transform="translate(-21.1 -4.83)"/><g id="DqInqH.tif"><path d="M909.69,464.78c-1.89,17.47-3.33,35.07-4.49,52.68-.43,6.81.58,13.93,1.45,20.73.29,1.56,2.75,3.69,4.34,4a4.85,4.85,0,0,0,2.91-.85,20,20,0,0,0,2.6-1.85c1-.85,1.45-2.41,1.89-3.68,5.21-14.93,7-30.39,8.4-45.86a498.86,498.86,0,0,0,1-85.9c-2.32-31.23-7.68-61.9-17.68-91.71-20-59.77-51.32-113.29-94.65-159.86C751.12,83,671.69,37.88,578.05,16.44c-12.62-2.84-25.4-4.68-38.12-7a5.75,5.75,0,0,0-1.6-.14c-2.61-.14-4.5.71-4.93,3.4-.43,2.85,1.16,4.41,3.91,4.84,6.1,1,12.32,1.7,18.42,2.84a460,460,0,0,1,117,37.34c10,4.79,19.87,10.09,29.86,15.19-.42.57-.72,1.15-1.16,1.85C692.7,89.27,697.48,103,704,116.67a17.44,17.44,0,0,1-2.76,1.14c-3.47.28-6.82.57-10.29.71-12.47.57-15.94,4-15.94,16v2a80.92,80.92,0,0,1-6.24,34.64c-.86,2-2.61,4.4-4.63,5.26-7.54,3-16-.72-19.71-8-4.07-8-2.47-13.94,5.08-19,1-.71,2.17-1.42,3.33-2.13,4.06-2.7,5.36-6.11,3.19-10.37a33.64,33.64,0,0,0-7.25-10,111.43,111.43,0,0,0-14.06-10.65c-5.94-4.12-10.73-5.54-16.38,1.56a10.12,10.12,0,0,1-1.45,1.14c-4.21-3-5.22-7.25-3.77-13.49,1.88-8,6.38-14.63,11-21.29,4.34-6.39,6.66-13.35,4.34-21.16-3.61-12.49-26.41-28.11-39.71-27.4-5.65.28-9.42,4.54-8.13,10a29.42,29.42,0,0,0,3.77,8.38c2.17,3.27,5.22,6.1,7.68,9.38s2.33,4.4-1.74,5.39a169.7,169.7,0,0,1-19,3.4c-3.77.57-8-.42-9.71,5.69-2.32-11.79-7.53-20.17-17-25.7-4.77-2.84-9.42-5.68-14.22-8.52-8.84-5-13.63-11.94-12.9-22.44V18c-.57-5.22-3.9-8.2-10-9.37-9.72-1.7-19.57-3.41-29.29-3.69C450.48,4.09,423,8.07,395.55,12.6c-32,5.4-63.06,13.64-92.63,27.26-37.4,17.33-72.61,38.06-106.39,61.05-4.06,2.84-8.27,5.69-12.19,8.66-2,1.56-3.19,3.69-1.3,6s4.21,2.42,6.52.57c.87-.57,1.6-1.27,2.62-1.84,4.06-2.27,8-4.83,12.19-7L207,106c6.23-2.7,9.28-.71,10.73,5.82a59.45,59.45,0,0,0,2.6,10.08c3.48,9,10.87,12.94,20.44,10.65,3.77-.85,7.11-2.7,10.73-4,2.46-.86,5.21-2.56,7.39-2,6.09,1.56,9.57-.71,12.32-5.53,2.32-3.84,5.22-7.53,8.26-11.95-.72,9.66-5.36,16.76-9.14,24.15-1.6,3.11-3.19,6.8-3.05,10.07.29,6.25-2.61,9.51-8.13,11.64-3.91,1.42-8,2.85-11.74,4.55-4.07,1.84-8.26,3.54-11.89,6.1-15.24,10.65-15.36,28.68-.28,38.62,19.71,13.2,40.15,7.24,52.76-10.65,2-2.69,2.6-7,2.46-10.51-.29-7.38-1.45-14.61-2.32-21.72,11.75-.14,21.16,3,28,11.78,2.33,3,6.38,3.42,10.29,2.7,5.95-1.13,10.44-4.54,14.5-8.8,3.48-3.69,4.64-3.55,7.25.86,2,3.54,3.77,7.37,5.5,11.06,3.77,8.38,10,12.78,19.43,13.5a39,39,0,0,1,12.19,3c4.79,2,7,6.68,5.51,10.22-3.33,8.52-2.6,10.8,5.22,16.05,3.34,2.28,6.67,4.54,10.3,7a12.4,12.4,0,0,1-1.74,1.14,50.18,50.18,0,0,1-24.21,1.56c-5.8-1.15-11-3.55-14.07-9.09-4.19-7.67-10.43-9.66-18.4-5.68-7.68,3.69-9,12.07-2.17,17.32,3.19,2.55,7.24,4,11,5.82,2.61,1.28,5.51,2.28,9.42,4-2.61,2-4.2,4-6.09,4.69a92.27,92.27,0,0,1-16.1,5c-11.17,1.84-17.82,8-20.32,18.45-1.44,6.25-4.78,10.37-10.58,13.93-14.22,8.52-22.9,20.31-20.32,37.76,1.6,11.37-4.06,19.73-12,27.27-4.06,3.68-8.13,7.37-11.87,11.21-5.81,6.1-8.42,13.49-7,21.72,1.44,7.38,3.47,14.77,5.21,22.15.43,1.84.73,3.83,1.16,6.1-4.2-.28-6.1-2.55-7.83-5-4.35-6.81-8.26-13.77-12.9-20.44-7-10.08-15.07-12.93-27.1-9.8a55,55,0,0,0-11.74,4.41c-8.84,4.83-17.28,10.64-26.24,15.19-7.4,3.83-11.89,9.22-14.06,16.74a119,119,0,0,0-4.79,36.21,51,51,0,0,0,7.12,25.87c2.75,4.69,6.67,7.1,12.32,6.82,8.7-.43,15.8-4.26,21.74-9.95s10.88-11.94,16.09-18c2-2.41,4.06-2.84,6.82-1.14s4.63,3.69,4.2,7.25c-.73,5-1.59,9.95-2,14.92-.44,5.68-1.3,11.36-.58,16.92.86,7.11,5.65,9.8,12.9,8,2.61-.7,5.08-1.7,7.53-2.27,4.07-1,8.13-2.27,12.33-2.55,7.11-.43,10.87,4.25,9.14,10.94a76,76,0,0,1-4.2,10.79c-3.48,8.23-2.62,14.62,4.2,20.73,10.73,9.65,21.34,12.63,34.64,5.53,4.35-2.27,8.13-1.7,11.89.43,1.31.71,2.75,1.56,4.06,2.41,4.07,2.56,7.54,1.85,10-2.41a89.81,89.81,0,0,0,4.06-8.38c7.68-16.61,18.84-23.14,37.39-21.44,14.64,1.28,29,1,43.05-4,9.15-3.27,18-2.28,26.42,2.41,4.21,2.42,8.7,4.55,13.05,6.68,11,5.39,22.35,10.22,35.22,8.23,8.4-1.27,15.36,1.7,21.34,7.09,6.37,5.83,12.31,12,18.4,18.18,8,8.1,17.11,10.51,28.12,7.24,10.59-3,21.34-6.1,32.18-7.81,20.44-3.26,40.88-.42,61.32.57,7,.29,9.85,3.12,11.45,9.8,2.61,11.35,1.74,22.57-1.45,33.64a150.81,150.81,0,0,0-5.65,37.62c-.3,10.08-.72,20-1.6,30.11-1.16,12.63-6.66,22.88-18.69,29-5.66,3-11.18,6.25-16.82,9.38-11.89,6.67-18.41,16.75-19.13,30.09-.29,4.55-.87,9.09-.59,13.5.73,11.35-3.47,20.3-12.61,27.53-11.73,9.24-21.74,20.3-30.72,32.09-8.56,11.07-15.24,23.14-18,36.92-1.16,5.82-1.89,11.63-3.19,17.45-1.16,5.26-2.47,6.11-7.82,6-10-.29-17.55-5.11-23.92-12.07-14.78-16.18-25.65-35.07-35.56-54.24-10.16-20-19.3-40.6-28.55-61-5.37-11.78-13.77-19.59-26.67-22.72-2.61-.7-5.08-1.27-7.68-2-13.49-3.54-27.25-6.39-40.44-10.65s-25.07-11.18-34.05-21.79c-12.19-14.63-14.35-31.94-12.61-50,1.3-13.06,3.33-26,4.35-39,.86-10.22-.14-20.3-4.78-29.85-3.2-6.39-8.56-9.65-15.8-9.8-2.32,0-4.79-.14-7.12,0-8.84.15-17.1-2-24.06-7.53a191.1,191.1,0,0,1-15.36-13.34A80,80,0,0,0,231,514.86c-10.87-4.68-21.74-9.37-32.51-14.19a33.81,33.81,0,0,0-20.44-2.56,23.16,23.16,0,0,1-8.26-.14c-15.65-2.56-26.82-11.5-35.08-24.28-7.39-11.36-10.44-24.42-12.75-37.48-2.91-15.92-4.79-32.08-7.84-48-4.06-20.45-9.14-40.61-13.47-61.06a100,100,0,0,1-2-34.21c1.45-11.49,7.68-20.3,15.5-28.53,12.2-12.78,18.71-27.41,15.66-45.15-1.88-11.22.87-20.9,9-29.11,1-1,1.88-2.13,2.9-3.26a56.88,56.88,0,0,0,15.36-28.26,50.56,50.56,0,0,1,5.51-14.75A44.37,44.37,0,0,1,171,133.25c.44-.43,1.16-1,1.16-1.43,0-1.7.44-4.12-.58-5.11s-3.48-.71-5.22-.42c-.87.14-1.6,1.27-2.32,2a461.88,461.88,0,0,0-63.78,75.25Q30.87,304.9,22.1,425.15a411.07,411.07,0,0,0,5.51,101.5A423.17,423.17,0,0,0,78.25,665.54q63.06,109.66,175.82,171.23c61.18,33.37,126.84,51.82,196.71,55.94a449.9,449.9,0,0,0,97.69-5,463.27,463.27,0,0,0,140.32-45.44q103.05-52.8,167.56-147.07c22.61-32.94,41-68,52.61-106.2,3.49-11.64,6.82-23.43,10.16-35.21.72-2.7-.14-4.54-2.75-5.53a3.79,3.79,0,0,0-3.91.7,5.36,5.36,0,0,0-1.31,2.13,26.9,26.9,0,0,0-1,3.27c-4.64,15.62-8.41,31.37-13.92,46.57a385.49,385.49,0,0,1-21.45,48c-2.33,4.39-4.78,8.79-7.25,13a416.9,416.9,0,0,1-29.13,44c-8.13,10.79-16.68,21.29-25.66,31.23l-3.92,4.26A436.08,436.08,0,0,1,720.1,815Q625.29,874.47,513,883.47a446.72,446.72,0,0,1-102.05-3.26c-55.22-8.24-107.26-25.56-155.82-52.67-66.67-37.2-120.31-87.46-160.31-151.35C55.92,614.71,34.18,547.7,30.27,475.58A412.63,412.63,0,0,1,44.91,341.84a448.45,448.45,0,0,1,90.43-171.17c2-2.41,4.06-4.82,6.09-7.1s4.21-4.54,6.68-7.38a23.4,23.4,0,0,1-.58,3c-2.17,9.65-7.11,17.18-13.78,23.88-10.43,10.36-15.36,22.44-13.21,37.2,1.74,11.22.3,22.15-7.24,31.52-3.19,4-6.38,8-9.71,11.63A54.78,54.78,0,0,0,89,299.23c-.58,15.75,2.75,30.95,6.23,46.13q6.3,28.13,11.74,56.65c3.19,16.33,5.51,32.94,9,49.27,3.62,16.75,10.87,31.65,24.78,42.87,9.86,8.09,21.17,13.77,34.36,12.64,9.14-.86,17.27.14,25.07,4.4a80.56,80.56,0,0,0,9.43,4.12c17.54,6.52,33.19,15.18,46.24,28.86,11.3,11.78,25.5,17.91,42.75,16.47,7.4-.57,10,1.84,12.33,8.79,3.62,11,3.05,22,1.88,33.23-1.44,13.77-3.91,27.54-3.91,41.45.14,24.57,10.57,44.58,32.75,57.07a171,171,0,0,0,30.81,12.91c11.45,3.69,23.48,6,35.37,8.52S427.48,732,432,743.2c12.47,30.09,26.09,59.62,43.92,87.16a279.25,279.25,0,0,0,22.36,30A38.25,38.25,0,0,0,527.81,874c8.42.14,13.05-3.41,15.25-11.35a39.56,39.56,0,0,0,1.15-5.69,85.3,85.3,0,0,1,22.18-51c10.16-11.06,21.17-21.57,31.9-32.22,5.5-5.4,8.84-11.78,9.14-19.46.3-6,.44-12.06.73-18.17.58-9.36,2.18-18.74,11.18-24.42,6.24-4,12.9-7.66,19.43-11.21,9.71-5.4,17.39-12.21,21.16-23,3.48-10,4.06-20,4.49-30.39.72-16,.3-32.08,5.37-47.83a84,84,0,0,0,3-33.94c-1.3-13.77-8.54-21-22.46-21.72-12-.71-24.06-1.27-36.09-1.56-6.24-.14-12.61-.43-18.55.71-12.61,2.27-25.4,5-37.69,8.37-9.71,2.7-16.81.57-23.37-6.53-5.8-6.25-11.88-12.07-18.29-17.74-7.38-6.39-16.25-10-26.23-8.24-7.4,1.28-14.35-.14-20.87-3-8.13-3.56-15.95-7.53-23.78-11.37-9.71-4.83-19.56-6.24-30.29-3-5.79,1.85-11.74,3.7-17.68,4.12-9,.71-18.29.14-27.25-.14-19.72-.71-33.53,7.52-41.46,25-1.17,2.56-2.47,5-3.77,7.68-8.55-5.41-16.53-6.11-25.66-1.29-7.68,4.12-15.8,1.57-22.75-5.39-2.91-3-4.07-6.1-2.33-10.08a79.49,79.49,0,0,0,4.65-11.5c4.34-14.06-5.65-25-20.45-22.58-4.49.72-8.69,2.27-13,3.42-2.46.7-4.93,1.27-7.68,2,0-4.4-.29-8.37,0-12.06.57-6.68,2-13.21,2.61-19.91.58-7.37-3.77-13.19-11.31-15.92-5.65-2-11-.15-15.8,5.67-2.9,3.56-5.65,7.25-8.7,10.65-5.36,6-11.3,11.22-19.57,13.07-3.77.84-6.23-.29-7.68-3.69-1.3-2.85-2.75-5.69-3.33-8.52-3.77-16.76-2-33.37,3.91-49.41,1.16-3,4.5-5.53,7.4-7.66a109.46,109.46,0,0,1,13.21-7.82c6.09-3.4,12-7.09,18.41-9.79,13.48-5.82,18.84-3.83,26.53,8.52,3.33,5.39,6.22,11.07,10,16.18a25,25,0,0,0,9.86,7.81c7.4,3.13,13.62-1.71,13.21-9.51a26.37,26.37,0,0,0-.87-5c-1.45-5.54-3-10.94-4.49-16.33-2.76-9.65-.59-17.74,7.25-24.42a146.92,146.92,0,0,0,12.75-12.07c7-7.66,10.87-16.61,10.29-27.11-.14-4-.86-8.1-.28-11.94,1.44-8.52,7.11-14.93,14.49-18.91,9.14-5.11,14.78-11.78,16.81-21.89,1.16-5.82,5.37-9,11.45-10.22A123.67,123.67,0,0,0,364.25,256c3.19-1.42,6.1-4.4,8.13-7.38,2.33-3.27,1.45-7.25-1.3-10.79a55.46,55.46,0,0,0,37.4,0c8.55-3,9.71-9.52,2.75-15.2-3.62-3-7.83-5.25-11.45-8.23-.87-.7-1.73-2.83-1.31-3.55,5.37-8.52-1.73-19.6-9.56-22.57a49.64,49.64,0,0,0-12.61-3c-7.39-.7-12.62-3.54-15.37-10.64A60.33,60.33,0,0,0,355,162.81c-4.93-7.8-12.46-8.37-19.14-1.84a44.8,44.8,0,0,1-5.5,5c-5.08,3.4-7.12,3.12-11-1.28A27.48,27.48,0,0,0,301.5,155c-3.05-.43-5.94-.85-9-1.42a18.53,18.53,0,0,1-3.77-1.7l.44-1.29c2,.43,3.91.57,5.93,1.14,7.54,2.28,15.08,4.82,22.62,6.81,8.7,2.42,15.36.29,19.71-7.23A75.59,75.59,0,0,0,346,130.74c2.62-11.5-1.45-16.92-13-20.3l-5.65-1.7c-10.16-3.27-14.06-13.94-8-22.58.44-.71,2.46-1.42,3.05-1,8,5,17,5.25,25.94,6,9.28.85,15.8,5.4,18.71,14.34,1.58,4.68,3,9.37,4.63,13.93,3.33,9,7.54,17.32,15.51,23.28,6.81,5.26,14.49,6.82,22.75,3.28,7.84-3.28,11.18-9.52,11.18-17.47,0-7.24,1.45-14.06,5.51-20.16.72-1.14,1-2.42,1.59-3.55,2.76-6.67,5.08-7.53,12.47-6.53a256.29,256.29,0,0,0,27.53,2.42c9,.14,17.55-2.13,24.39-8.52,4.2-4,5.66-8.67,3.91-12.5s-6.1-5.67-12.19-5a21.49,21.49,0,0,0-5.08,1.14c-4.79,1.42-9.43,3.12-14.36,4.53-6.11,2-12.2,3.54-18.59,5.24-.43-5.53-.58-10.22-1.16-14.93-.72-5.53-3.91-9.08-9.42-10.65-2-.56-4.06-.84-6.1-1.56-6.23-2-12.61-3.83-18.55-6.39-7.4-3.12-14.36-7.09-21.46-10.65-10.72-5.25-20.43-2.83-29,4.41A92.38,92.38,0,0,0,349.15,58c-2.17,2.7-3.91,3.56-7.54,2.42-4.06-1.27-8.83-2.13-12.75-1.27-13.36,3.28-24.92,9.81-33,21.16a67.18,67.18,0,0,1-12,13.78c-6.66,5.68-11.89,13.06-17.27,20-2.32,2.84-3.48,6.24-8.4,4.54-1.74-.57-4.35.7-6.38,1.42-2.46,1-4.64,2.27-7.12,3.27-10.4,4.25-15.19,1.89-17.51-9.06,0-.29-.15-.43-.15-.71-1-6.11-2.46-11.94-9.14-15.33l-.87-.43c8.26-5,16.09-9.95,23.91-14.77.15-.14.44-.28.58-.43,1.6-1,3.05-1.84,4.65-2.69.86-.57,1.73-1,2.61-1.56.72-.42,1.3-.71,2-1.14C278.57,60.55,307.37,45.68,338.59,35c22-7.53,44.78-11.79,67.69-15.48,25.79-4.26,51.88-7.09,78.13-6,6.66.29,13.33,1.85,20,2.84a7.61,7.61,0,0,1,3.05,1c1.88,1.14,2.61,3.13,2.32,6-1,11.22,4.06,19.46,13.34,25.42,6.37,4.12,13,8,19.42,12.07,7.39,4.69,10,12.06,11.45,20.44-3.48-.28-6.53-.71-9.72-.71-7.11.14-12.45,6-10.86,12.63,1,4,2.9,8.38,5.94,11,13.77,12.35,29.86,18.74,48.85,16.33,11.89-1.56,17.27-12.21,10.43-22-2.31-3.27-6.23-5.68-9.85-7.81s-8.26-3.41-12.32-5.39a18.56,18.56,0,0,1-4.35-3.69c8-1.85,15.8-3.13,23-5.68,7.54-2.56,9.42-9,5.08-15.62-2.18-3.41-5.21-6.39-7.83-9.8-1.45-1.84-2.46-4-4.34-6.81a52,52,0,0,1,24.06,10.95c10.16,8,10.87,15.34,4.2,26.26a133.89,133.89,0,0,0-10.87,21.3c-2.47,6.39-2.32,13.2,1.6,19.3s11.73,9.1,17.67,1.86c1.46-1.86,2.91-2,4.65-.57,4.93,3.69,9.85,7.38,14.49,11.35a31.65,31.65,0,0,1,4.5,5.82c-1.31,1-2.18,1.57-2.91,2.13-13,8.81-15.65,20.9-6.66,33.65,5.94,8.38,14.5,10.65,24.38,9.51,8.84-1,12.19-7.09,14.78-14.61,4.21-11.95,5.37-24,5.23-36.5,0-6.81.58-7.09,7.38-7.52,4.35-.28,8.7-.28,13.05-1.14,7.24-1.56,9.86-6.67,7.24-13.48-1.15-3.12-2.6-6.11-3.91-9.23a27.1,27.1,0,0,1-.14-21,6.6,6.6,0,0,1,1.74-2.56c1-.57,2.31,0,3.62,1.7a6,6,0,0,1,.73,1,17.18,17.18,0,0,1,2.75,6.25c2.29,13.59,13.44,24.13,29.65,24.67,11.17.45,18.14,6.43,24.38,14.39a16,16,0,0,1,2.76,16.61,5.82,5.82,0,0,1-3.63,3.26c-13.21,2.13-26.53,5-39.86.15a10.35,10.35,0,0,0-2.32-.57c-8.69-1.28-14.5,1.84-17.83,9.79-2,4.69-3.77,9.52-5.51,14.34C697.34,187,691,203,685.45,219.37c-6.24,18.17-8.55,36.91-4.49,55.94,4.2,19.73,8.55,39.46,12.47,59.2,3.47,17.91,12.61,31.65,28.84,41.31,8.26,5,15.25,11.78,22.75,17.91,3.63,3,7,6.39,10.88,9.08,9.71,6.82,20.72,7.82,32.17,6.25,15.66-2,30.48-6.11,44.07-14.06,6.52-3.83,11.45-9.36,12.76-16.61,1.74-9.51,7.24-15.33,16.26-18.74,4.92-1.84,9.85-3.55,15.8-5.68-1.46,3.28-2.33,5.26-3.19,7.25-4.79,9.95-3.92,19.59,2.75,28.39a176.92,176.92,0,0,0,11.89,13.93c6.09,6.39,12.75,12.5,18.55,19,5.21,5.68,8.7,12.21,7,20.44C912.73,450.16,910.56,457.41,909.69,464.78ZM352.64,229.4c-1.3-.57-2-2.13-3.05-3.27,1.3-.85,2.46-2.12,3.77-2.12a6.59,6.59,0,0,1,4.35,1.7c2.32,2.55,4.06,5.53,6.37,8.79C360.33,232.8,356.41,231.39,352.64,229.4ZM487.77,82.59c-2.61,9-18,11-31.6,9.1,10.72-2.28,20.26-8.25,31.57-9.1ZM286.25,121.78c3.19-8.52,5.94-17.31,9.71-25.55,4.65-10.36,11.31-19.17,22.18-24.27,3.77-1.72,7.54-3.85,11.75-4.69a20,20,0,0,1,9.56,1c7.54,2.41,10.44,1.57,15.52-4.4a115,115,0,0,1,13-13.35c4.93-4.11,10.87-5,17.1-2.13,7.25,3.55,14.5,6.68,21.46,10.65,7.39,4.26,15.51,5.82,23.62,7.52,5.8,1.29,6.67,2.28,7,8.1.29,4.68.43,9.37.72,14.33-1.3.15-3.33.29-5.22.58-5.5.71-9.14,3.83-11.3,8.66-2,4.4-4.35,8.52-5.94,12.93a68.12,68.12,0,0,0-2.61,10.79,45.92,45.92,0,0,0-.14,4.69c-.3,5-1.16,9.51-6.68,11.78-5.35,2.13-10.58,1-14.22-2.83a73.08,73.08,0,0,1-10.58-15.05c-2.47-4.55-3.48-9.66-5.08-14.49-5.19-15.63-14.18-22.6-30.85-23.45-6.82-.27-13.21-1.55-19.3-5-5.79-3.27-10.72-1.56-14.05,4.12a27.34,27.34,0,0,0-2.6,21.6,16.84,16.84,0,0,0,10.44,11.37c4.35,1.7,9,3.12,13.48,4.54,3.91,1.13,5.21,3.69,4.93,7.24a44.63,44.63,0,0,1-7.11,19.9c-3.05,4.69-5.66,5.69-11,4.12-7.11-2-14.06-4.4-21.16-6.39-3.92-1.13-8.13-1.42-13.05-2.26C283.07,135.56,283.65,128.6,286.25,121.78Zm-4.2,62.33a9.09,9.09,0,0,1-1.31,5.82c-11,14.48-26.67,18.74-42.47,6.82-7.11-5.41-8.12-13.35-2-19.6,3.77-3.83,9-6.52,13.91-9.22,4.21-2.13,8.84-3.28,13.21-5.12,8.13-3.55,13.48-9.08,12.19-18.6a7.12,7.12,0,0,1,.29-1.7,1.88,1.88,0,0,0,.87-.14c1,6.1,2.32,12.21,3.05,18.31C280.9,168.5,281.48,176.3,282.05,184.11Zm297-88.57c3.19,1.27,6.53,2.27,9.28,4.11a12.23,12.23,0,0,1,4.35,6c1.17,3.69-.29,6-4.2,6.24-5.36.43-10.87.86-16.09,0a55.25,55.25,0,0,1-26.24-12.78,19.46,19.46,0,0,1-4.2-6c-1.16-2.69.43-4.54,3.48-4.26,2.32.14,4.78.57,7.11.86,6.53.85,9.42-1.14,10.44-7.52,3,7.22,9.27,10.63,16.07,13.33Zm168.3,9c-11.31-.75-19-6.13-21.6-15.09a14.83,14.83,0,0,1-.58-2.56c8.56,6,16.66,11.51,25.51,17.76a27,27,0,0,1-3.36-.14ZM890.7,393.37c-1.59-1.7-3-3.54-4.64-5.24-6.95-8-8.4-16.62-3-26a49.21,49.21,0,0,0,2.9-6.25c2.17-6.1-.87-10.78-7.25-9.51-8.13,1.7-16.09,4.69-23.91,7.67-9.28,3.54-14.94,10.36-16.82,20-1.45,7.53-6.1,12.64-13,16.05a109.06,109.06,0,0,1-44.5,11.36,31.53,31.53,0,0,1-23.76-8.81,248.18,248.18,0,0,0-35.37-28c-9.86-6.39-15.24-15.62-17.69-26.41-3.19-14.2-5.94-28.39-9-42.59-1.89-8.8-4.07-17.61-5.51-26.41-2.76-15.92-.44-31.66,4.78-46.71,7-20.3,14.49-40.46,22-60.62,2.76-7.38,4.93-8.8,12.61-6.24,14.93,4.82,29.57,1.7,44.21-.72a9.49,9.49,0,0,0,8-7.23c1-4.41,1.59-8.81,2.31-13.5.15-.84.3-1.56.44-2.41,61,58.5,103.79,125.08,124,201.74a404.57,404.57,0,0,1,13,92.17C912.59,413,900.74,404,890.7,393.37Zm29.13,63.32a5.53,5.53,0,0,1,1.46.14c-2,20.59-4.21,41.18-6.23,61.91-.58,0-1-.15-1.6-.15C914.91,497.86,915.48,477.14,919.83,456.69Z" transform="translate(-21.1 -4.83)"/></g><path class="cls-1" d="M277.13,143.22c.58,3,1.59,7.67,2.75,13.49,1.6,7.53,2.17,9.37,2.75,13.49,1.16,7.66,1.6,11.64,0,16-1.89,5.39-5.66,8.66-8.26,10.79-2.9,2.55-9.71,8.24-19.3,8.09-8.4,0-19.71-4.54-22.18-13.35-1.59-6.1,1.75-11.78,2.76-13.48,3.18-5.4,8.13-8,13.77-10.79,7.39-3.69,9.42-3,13.77-5.39S273.22,154.72,277.13,143.22Z" transform="translate(-21.1 -4.83)"/><path class="cls-5" d="M59.85,618.12s29.46,86,61.6,101.36c0,0,81.46-40.17,100.3-44,0,0,49.14-17.19,73.79,13.34,0,0,28.45,38.19-15.08,64.88L170.73,820.57s-56.82-7.68-106-70.71C64.62,749.86,37.23,704,59.85,618.12Z" transform="translate(-21.1 -4.83)"/><path class="cls-5" d="M184.5,825s19,70.7,117.41,49.69l111.61-91.72s53.06-42,13.21-80.21c0,0-53.06-34.36-104.08,13.35L315.11,739Z" transform="translate(-21.1 -4.83)"/><path class="cls-5" d="M301.77,882.33s24.63,36.34,92.76,19.16l96.52-103.21s22.76-28.68-1.89-59.2c0,0-28.44-15.34-39.71-7.68v26.75Z" transform="translate(-21.1 -4.83)"/><path class="cls-5" d="M407.87,899.47c3.77,1.84,15.24,21,56.82,1.84,6.09-7.39,12.46-15.48,18.7-24.56a327.83,327.83,0,0,0,24.78-42.31,32.2,32.2,0,0,0-2.31-19.3,31.47,31.47,0,0,0-9-11.21Z" transform="translate(-21.1 -4.83)"/><path class="cls-5" d="M517.59,826.82s-7.53,38.19-17.1,47.71c0,0,0,26.4,15.08,33.5,1.44.71,4.63.43,10.29,1.71,6.23,1.42,7.39,2.4,10.58,3,6.52,1.14,13.92-1.28,19-5.68,6.67-5.82,9.42-15.34,7.54-24.88a104.37,104.37,0,0,0-15.24-28.68A102.71,102.71,0,0,0,517.59,826.82Z" transform="translate(-21.1 -4.83)"/><path class="cls-5" d="M523.25,731.4l-19,15.34s-1.88,40.18,15.24,57.36l62.48,84s28.45,24.88,60.59,7.67c0,0,35.07-10.22,30.29-24.88-1.89-5.67-98.42-126.06-111.61-128C561.08,742.77,546,719.91,523.25,731.4Z" transform="translate(-21.1 -4.83)"/><path class="cls-5" d="M547.89,716.08s-9.42-42,26.53-65c0,0,41.6-22.89,70,13.34l66.23,87.88s51.17,49.69,62.48,59.2c0,0,15.24,30.53-45.37,53.52,0,0-30.3,11.51-54.94-5.68l-70-84Z" transform="translate(-21.1 -4.83)"/><path class="cls-5" d="M655.73,654.89c1.74-5.4,3.77-59.2,70-42L837.36,708.4s26.53-2,37.83-32.52l2,39.76c1.6,33.51-15.08,65.45-43.77,81.92A64.77,64.77,0,0,1,811,805.79s-24.63,9.53-79.42-47.64C731.55,758.15,652,666.39,655.73,654.89Z" transform="translate(-21.1 -4.83)"/><path class="cls-6" d="M921,553s0-29-6.67-56.22c0,1.13,1.15-6.53,0,1.13-5.37,36.49-66.05,46.85-88.28,66.31h0A66.57,66.57,0,0,0,791,613c-2.33,15.76-2,34.08,6.23,49.7l44.06,37a14.39,14.39,0,0,0,18.85-.43A118.54,118.54,0,0,0,887,661.7a59.52,59.52,0,0,1,4.65-8.51C899.54,640.12,921.43,601.91,921,553Z" transform="translate(-21.1 -4.83)"/><path class="cls-7" d="M303.07,253a6.71,6.71,0,0,1-.15-1.42h-.43c-.15.43-.15,1-.29,1.56-17.39,6.25-34.93,12.64-52.48,19a.14.14,0,0,0-.14-.14h0c.88-.43,1.6-1,2.47-1.42,14.78-8.52,29.71-17.18,44.49-25.7,12.2-7,24.22-14.05,36.39-21,.58-.28.58-.57.58-1.14a39.88,39.88,0,0,1,2.61-24.56c8.82-20.62,32.62-30.82,54.06-23.17a41.11,41.11,0,0,1,21.17,16.19q12.87,19.4,3.48,40.54c-8.55,19-29.46,28.68-50,23.56a44.24,44.24,0,0,1-15.08-7.09,37.71,37.71,0,0,1-8.26-8.23,1.16,1.16,0,0,0-1.57-.44h0c-12,4.4-24.06,8.66-35.95,13.06C303.65,252.54,303.5,252.69,303.07,253Zm95.23-19.73a8.11,8.11,0,0,0,10.73-3,7.53,7.53,0,0,0-3-10.36l-.2-.1a8.13,8.13,0,0,0-10.73,3.12,7.62,7.62,0,0,0,3.19,10.33Z" transform="translate(-21.1 -4.83)"/><path class="cls-1" d="M398.3,233.23a7.56,7.56,0,0,1-3.05-10.36A8,8,0,0,1,406,219.75a7.65,7.65,0,0,1,3.19,10.49A8.32,8.32,0,0,1,398.3,233.23Z" transform="translate(-21.1 -4.83)"/><path d="M836.56,628.84V452.21c.35-21.2-16.92-38.66-38.56-39S758.52,429.78,758.17,451q0,.61,0,1.23V628.07C723.67,648.93,713,693.23,734.28,727s66.53,44.27,101,23.4,45.2-65.16,23.9-98.95a72.67,72.67,0,0,0-22.64-22.63ZM796.87,749c-33.33-.05-60.31-26.55-60.26-59.2a59.08,59.08,0,0,1,36-54V452.21a24.27,24.27,0,0,1,48.53,0V635.75c30.52,13.11,44.41,48,31,77.86A60.39,60.39,0,0,1,796.87,749Z" transform="translate(-21.1 -4.83)"/><path class="cls-1" d="M821.14,635.75V452.21a24.27,24.27,0,0,0-48.53,0V635.75c-30.52,13.12-44.4,48-31,77.89s49,43.48,79.53,30.36,44.39-48,31-77.89A59.73,59.73,0,0,0,821.14,635.75Zm-24.27,101c-25.77,0-46.65-20.5-46.63-45.74,0-21.23,15-39.66,36.07-44.48V485.12a10.58,10.58,0,0,1,21.14-.64c0,.22,0,.43,0,.64V646.55c25.1,5.73,40.7,30.31,34.85,54.89C837.38,722.12,818.56,736.76,796.87,736.77Z" transform="translate(-21.1 -4.83)"/><path class="cls-8" d="M843.53,691.07c0,25.19-20.93,45.58-46.66,45.54s-46.54-20.5-46.49-45.7,20.93-45.58,46.65-45.54a47.43,47.43,0,0,1,10.42,1.18C828.58,651.37,843.54,669.82,843.53,691.07Z" transform="translate(-21.1 -4.83)"/><path class="cls-8" d="M807.45,485.12V647.81H786.31V485.12a10.58,10.58,0,0,1,21.14-.64C807.46,484.7,807.46,484.91,807.45,485.12Z" transform="translate(-21.1 -4.83)"/></svg>