<svg id="Layer_1" data-name="Layer 1" xmlns="http://www.w3.org/2000/svg" viewBox="0 0 893.73 1027.87"><defs><style>.cls-1{fill:#fff;}.cls-2{fill:#ccc;}.cls-3,.cls-4{fill:#39b54a;}.cls-4,.cls-5,.cls-6{stroke:#000;}.cls-4{stroke-linecap:round;stroke-linejoin:round;}.cls-4,.cls-6,.cls-7{stroke-width:2px;}.cls-5,.cls-6{fill:gray;}.cls-5,.cls-6,.cls-7{stroke-miterlimit:10;}.cls-5{stroke-width:3px;}.cls-7{fill:#ed1c24;stroke:#231f20;}.cls-8{fill:#c1272d;}</style></defs><ellipse class="cls-1" cx="474.25" cy="437.65" rx="441.54" ry="441.4" transform="translate(-28.48 11.31) rotate(-0.16)"/><path class="cls-2" d="M915.79,433.8c.57,243.81-196.45,442-440.4,442.54S33.42,679.89,32.71,436.23a445.77,445.77,0,0,1,12-104c47.22,193.46,222,336.83,430.13,336.4S857,523.68,903.09,329.94A436.4,436.4,0,0,1,915.79,433.8Z" transform="translate(-27.27 10)"/><path class="cls-3" d="M668.41,553.49c1.14,11.56.57,23-3,34.1-4.85,15.69-4.57,32-5.28,48.08-.43,10.27-1,20.54-4.43,30.53C652,677,644.3,683.89,634.89,689.31c-6.42,3.71-12.84,7.28-19.12,11.27-8.85,5.71-10.27,15.12-11,24.54-.42,6-.42,12.12-.71,18.26a29.14,29.14,0,0,1-9,19.54c-10.55,10.7-21.4,21.12-31.38,32.39-13,14.55-20.12,31.81-21.83,51.21a39.52,39.52,0,0,1-1.14,5.71c-2.14,7.85-6.71,11.41-15,11.41A37.6,37.6,0,0,1,496.65,850a266.56,266.56,0,0,1-22-30.1c-17.55-27.68-31-57.35-43.23-87.6-4.57-11.13-12.13-18-23.83-20.68s-23.39-4.86-34.81-8.56a163.63,163.63,0,0,1-30.24-13.13c-22-12.55-32.24-32.67-32.24-57.35,0-13.84,2.28-27.82,3.85-41.66,1.28-11.27,1.71-22.4-1.86-33.38-2.28-7.13-5-9.56-12.12-8.85-17,1.43-31-4.7-42.09-16.55-12.69-13.69-28.24-22.54-45.51-29-3.14-1.28-6.27-2.56-9.27-4.13-7.7-4.28-15.84-5.28-24.68-4.43-13,1.15-24-4.56-33.81-12.69-13.7-11.27-20.83-26.4-24.4-43.09-3.42-16.4-5.7-33.09-8.84-49.5q-5.35-28.46-11.56-56.92c-3.28-15.27-6.7-30.53-6.13-46.37a55.66,55.66,0,0,1,14.41-35.95c3.28-3.85,6.56-7.7,9.56-11.7,7.27-9.41,8.84-20.26,7.13-31.67-2.14-14.84,2.71-27,13-37.38,6.56-6.7,11.41-14.26,13.55-24,4.57-5,9.28-10,14.13-14.7a431.17,431.17,0,0,1,42.08-36.95c4.28-3.28,8.56-6.56,12.84-9.56,6.57,3.43,8,9.28,9,15.41a1.07,1.07,0,0,0,.14.71c2.29,11,6.85,13.41,17.27,9.13,2.42-1,4.56-2.42,7-3.28,2-.71,4.56-2,6.27-1.42,4.85,1.57,6.14-1.72,8.28-4.57C274,93.26,278.94,85.7,285.5,80c4.85-4.14,8.28-8.85,11.85-13.84,7.84-11.42,19.25-18,32.52-21.26,3.85-1,8.56,0,12.56,1.28,3.56,1.15,5.28.43,7.42-2.42,3.42-4.28,7-8.7,11.27-12.27,8.41-7.13,18-9.7,28.53-4.42,7,3.56,14,7.42,21.11,10.56,5.85,2.56,12.13,4.28,18.26,6.41,2,.72,4,1,6,1.57,5.42,1.57,8.7,5.14,9.27,10.7.57,4.71.71,9.42,1.14,15,6.28-1.71,12.27-3.42,18.12-5.13,4.71-1.43,9.41-3.14,14.12-4.57a19.47,19.47,0,0,1,5-1.14c6-.71,10.28,1.14,12,5S494.79,74,490.8,78c-6.71,6.42-15.13,8.7-24,8.56a248.13,248.13,0,0,1-27.11-2.43c-7.27-1-9.7-.14-12.27,6.57a18.43,18.43,0,0,1-1.57,3.56c-4,6.28-5.42,13.13-5.42,20.26,0,8.13-3.42,14.27-11,17.55-8.13,3.56-15.55,2-22.4-3.28-7.85-6-12-14.41-15.26-23.4-1.57-4.57-3.14-9.27-4.57-14-2.85-9-9.27-13.55-18.4-14.41-8.85-.86-17.69-1.14-25.54-6-.57-.43-2.57.28-3,1-5.85,8.7-2.14,19.4,7.85,22.68l5.56,1.71c11.42,3.43,15.41,8.85,12.84,20.4a74.2,74.2,0,0,1-8.41,20.69c-4.28,7.56-11,9.7-19.41,7.28-7.41-2.14-14.83-4.71-22.25-6.85-1.86-.57-3.85-.72-5.85-1.14l-.43,1.28a21.5,21.5,0,0,0,3.71,1.71,89.25,89.25,0,0,0,8.85,1.43,27.16,27.16,0,0,1,17.54,9.7c3.86,4.56,6,4.71,10.85,1.28a45,45,0,0,0,5.42-5c6.42-6.56,13.84-6,18.83,1.85a61.29,61.29,0,0,1,5.85,11.85c2.57,7.13,7.7,10,15.12,10.7a47.32,47.32,0,0,1,12.41,3c7.71,3,14.7,14.13,9.42,22.68-.43.72.43,2.86,1.28,3.57,3.71,2.85,7.71,5.28,11.27,8.28,6.85,5.7,5.85,12.27-2.71,15.26-12,4.14-24.11,4.57-36.81,0,2.72,3.71,3.57,7.56,1.29,10.84-2,3-4.85,6.14-8,7.42a108.7,108.7,0,0,1-20,6.28c-6,1.43-10.13,4.56-11.27,10.27-2,10.13-7.56,17-16.55,22-7.28,4.14-12.84,10.42-14.27,19-.57,3.86,0,8,.29,12,.57,10.56-3.28,19.54-10.13,27.25a142.72,142.72,0,0,1-12.56,12.12c-7.7,6.71-9.84,14.84-7.13,24.54,1.57,5.42,3,11,4.42,16.41a27.66,27.66,0,0,1,.86,5c.43,7.85-5.57,12.7-13,9.56a24.65,24.65,0,0,1-9.7-7.85c-3.86-5-6.57-10.84-9.85-16.26-7.56-12.41-12.7-14.27-26.11-8.56-6.27,2.71-12.12,6.42-18.11,9.84-4.43,2.57-8.85,5-13,7.85-2.85,2-6.13,4.57-7.27,7.7-5.85,16.12-7.42,32.67-3.85,49.65.57,3,2.14,5.85,3.28,8.56,1.42,3.28,3.85,4.42,7.56,3.71,8.27-1.86,14-7.13,19.26-13.13,3-3.42,5.7-7.13,8.56-10.7,4.71-5.84,10-7.7,15.55-5.7,7.42,2.71,11.7,8.56,11.13,16-.58,6.7-1.86,13.26-2.57,20-.43,3.85,0,7.7,0,12.13,2.71-.72,5.13-1.43,7.56-2,4.28-1.14,8.42-2.57,12.84-3.43,14.55-2.42,24.39,8.56,20.11,22.69-1.14,4-3,7.7-4.56,11.55s-.71,7.14,2.28,10.13c6.85,7,14.7,9.56,22.4,5.42,8.84-4.85,16.83-4.13,25.25,1.29,1.28-2.71,2.57-5.28,3.71-7.71,7.85-17.54,21.54-25.82,40.8-25.1,9,.28,18,.71,26.82.14,5.85-.43,11.7-2.28,17.41-4.14,10.41-3.28,20.26-2,29.81,3,7.71,4,15.55,7.84,23.4,11.41,6.42,2.85,13.27,4.28,20.54,3,10-1.72,18.55,1.71,25.83,8.27a237.92,237.92,0,0,1,18,17.83c6.42,7.14,13.41,9.28,23,6.57a365.55,365.55,0,0,1,37.09-8.42c6-1.14,12.27-.86,18.26-.71,11.84.28,23.69.85,35.53,1.56C660,532.38,667.13,539.66,668.41,553.49Z" transform="translate(-27.27 10)"/><path class="cls-3" d="M679.4,119.94c.14,12.41-1.14,24.68-5.14,36.67-2.57,7.56-5.85,13.69-14.55,14.69-9.7,1.14-18.12-1.14-24-9.56-8.84-12.84-6.42-25,6.56-33.81.86-.57,1.57-1.14,2.86-2.14-1.57-2-2.71-4.28-4.42-5.85-4.57-4-9.42-7.7-14.27-11.41-1.71-1.43-3.14-1.29-4.57.57-5.85,7.28-13.69,4.14-17.4-1.86-4-6.13-4-13-1.57-19.4a135.72,135.72,0,0,1,10.7-21.4c6.56-11,5.85-18.4-4.14-26.39a50.59,50.59,0,0,0-23.68-11,73.47,73.47,0,0,0,4.28,6.84c2.42,3.28,5.42,6.28,7.7,9.85,4.28,6.7,2.43,13-5,15.69C585.67,64,578,65.3,570.12,67.16a18.17,18.17,0,0,0,4.28,3.71c4,2,8.27,3.28,12.12,5.42,3.57,2.14,7.56,4.56,9.7,7.84,6.57,9.85,1.43,20.55-10.27,22.12-18.69,2.42-34.52-4.14-48.08-16.41-2.85-2.57-4.85-7-5.84-11-1.57-6.7,3.71-12.55,10.7-12.69,3.13,0,6.13.43,9.55.71-1.42-8.27-4-15.69-11.27-20.54-6.27-4.14-12.84-8-19.11-12.13-9.13-6-14.27-14.27-13.13-25.54.29-2.85-.43-4.85-2.28-6,3.42.15,6.85.43,10.27.86A438.06,438.06,0,0,1,697.51,60.45c2.57,1.43,5,2.85,7.42,4.42a4.57,4.57,0,0,0-1.71,2.57,27.79,27.79,0,0,0,.14,21.12c1.15,3.13,2.57,6.13,3.86,9.27,2.56,6.85,0,12-7.14,13.55-4.13.86-8.56.86-12.84,1.14C679.82,112.81,679.4,113.09,679.4,119.94Z" transform="translate(-27.27 10)"/><path class="cls-1" d="M831.33,694.59A440.49,440.49,0,0,0,860,650.36,436,436,0,0,1,806.08,726C814.93,716,823.34,705.57,831.33,694.59Z" transform="translate(-27.27 10)"/><path class="cls-4" d="M915.79,436.51a430.38,430.38,0,0,1-9.7,92.59,5.92,5.92,0,0,1-2.86.85c-1.71-.28-4.13-2.42-4.27-4-.86-6.85-1.86-13.84-1.43-20.83,1-17.69,2.57-35.38,4.42-52.93.71-7.41,3-14.69,4.57-22,1.71-8.13-1.72-14.83-6.85-20.54-5.85-6.56-12.41-12.7-18.26-19.12a120,120,0,0,1-11.7-14c-6.42-8.84-7.42-18.54-2.71-28.53,1-2,1.71-4,3.14-7.28-5.85,2.14-10.7,3.86-15.55,5.71-8.71,3.28-14.13,9.13-16,18.83-1.29,7.28-6.14,12.84-12.56,16.69-13.26,8-28,12.13-43.37,14.13-11.41,1.57-22.11.57-31.67-6.28-3.71-2.71-7-6.13-10.7-9.13-7.41-6.13-14.26-13-22.39-18-16-9.84-25-23.54-28.39-41.51-3.86-19.83-8.14-39.66-12.27-59.49-4-19.12-1.72-37.95,4.42-56.21,5.42-16.41,11.7-32.53,17.55-48.79,1.71-4.85,3.42-9.7,5.42-14.41,3.28-8,9-11.13,17.55-9.84a12.89,12.89,0,0,1,2.28.57c13.12,4.85,26.11,2,39.23-.15a5.75,5.75,0,0,0,3.57-3.28c2.14-6,1.42-11.27-2.71-16.69-6.14-8-13-14-24-14.41-16-.57-27-11.13-29.25-24.82a15.21,15.21,0,0,0-2.71-6.28c4.14,2.57,8.13,5.14,12.13,7.85C728,80.14,735,85.13,742,90.41a413,413,0,0,1,35.23,29.67c57.5,53.79,100.58,122.69,122.27,200.45A425.09,425.09,0,0,1,915.79,436.51Z" transform="translate(-27.27 10)"/><g id="DqInqH.tif"><path d="M901.81,452.2c-1.86,17.55-3.28,35.24-4.42,52.93-.43,6.85.57,14,1.42,20.83.29,1.57,2.71,3.71,4.28,4a4.65,4.65,0,0,0,2.86-.85,19.31,19.31,0,0,0,2.56-1.86c1-.85,1.43-2.42,1.86-3.7,5.13-15,6.85-30.53,8.27-46.08a513,513,0,0,0,1-86.32c-2.28-31.38-7.56-62.2-17.4-92.16-19.69-60.06-50.51-113.84-93.16-160.63C745.74,68.58,667.56,23.22,575.4,1.67c-12.42-2.85-25-4.7-37.52-7a5.46,5.46,0,0,0-1.57-.14c-2.57-.14-4.43.71-4.85,3.42-.43,2.86,1.14,4.43,3.85,4.86,6,1,12.12,1.71,18.12,2.85A446.29,446.29,0,0,1,668.55,43.19C678.4,48,688.1,53.32,697.94,58.45c-.42.57-.71,1.15-1.14,1.86-8.56,14.55-3.85,28.39,2.57,42.08a17.11,17.11,0,0,1-2.71,1.15c-3.42.28-6.71.57-10.13.71-12.27.57-15.69,4-15.69,16.12v2a82.68,82.68,0,0,1-6.14,34.81c-.85,2-2.57,4.42-4.56,5.28-7.42,3-15.7-.72-19.4-8-4-8-2.43-14,5-19.12,1-.71,2.14-1.43,3.28-2.14,4-2.71,5.28-6.14,3.14-10.42a33.82,33.82,0,0,0-7.13-10,111.27,111.27,0,0,0-13.84-10.7c-5.85-4.14-10.56-5.57-16.12,1.57a10.19,10.19,0,0,1-1.43,1.14c-4.14-3-5.14-7.28-3.71-13.55,1.85-8,6.28-14.7,10.84-21.4,4.28-6.42,6.56-13.41,4.28-21.26-3.56-12.55-26-28.25-39.09-27.53-5.56.28-9.27,4.56-8,10a29.85,29.85,0,0,0,3.71,8.42c2.14,3.28,5.14,6.13,7.56,9.42s2.29,4.42-1.71,5.42a166,166,0,0,1-18.69,3.42c-3.71.57-7.84-.43-9.56,5.71-2.28-11.84-7.41-20.26-16.69-25.82-4.7-2.86-9.27-5.71-14-8.56-8.7-5-13.41-12-12.69-22.55V3.24C515.33-2,512.05-5,506.06-6.17,496.5-7.88,486.8-9.6,477.24-9.88c-27.39-.86-54.49,3.14-81.46,7.7-31.53,5.42-62.06,13.7-91.16,27.39-36.81,17.41-71.47,38.24-104.71,61.35-4,2.85-8.14,5.71-12,8.7-2,1.57-3.14,3.71-1.28,6,1.85,2.43,4.14,2.43,6.42.57.85-.57,1.57-1.28,2.57-1.85,4-2.28,7.84-4.85,12-7l2.57-1.29c6.13-2.71,9.13-.71,10.56,5.85a61.85,61.85,0,0,0,2.56,10.13c3.43,9,10.7,13,20.12,10.7,3.71-.85,7-2.71,10.56-4,2.42-.86,5.13-2.57,7.27-2,6,1.57,9.42-.71,12.13-5.56,2.28-3.86,5.13-7.56,8.13-12-.71,9.7-5.28,16.84-9,24.26-1.57,3.13-3.14,6.84-3,10.12.28,6.28-2.57,9.56-8,11.7-3.85,1.43-7.85,2.86-11.56,4.57-4,1.85-8.13,3.56-11.7,6.13-15,10.7-15.12,28.82-.28,38.81,19.4,13.26,39.52,7.27,51.93-10.7,2-2.71,2.56-7,2.42-10.56-.28-7.42-1.42-14.69-2.28-21.83,11.56-.14,20.83,3,27.53,11.84,2.29,3,6.28,3.43,10.13,2.71,5.85-1.14,10.27-4.56,14.27-8.84,3.42-3.71,4.56-3.57,7.13.86,2,3.56,3.71,7.41,5.42,11.12,3.71,8.42,9.85,12.84,19.12,13.56a37.74,37.74,0,0,1,12,3c4.71,2,6.85,6.71,5.42,10.27-3.28,8.56-2.56,10.85,5.14,16.12,3.28,2.29,6.56,4.57,10.13,7a12.12,12.12,0,0,1-1.71,1.14,48.39,48.39,0,0,1-23.83,1.57c-5.7-1.15-10.84-3.57-13.84-9.13-4.13-7.71-10.27-9.71-18.11-5.71-7.56,3.71-8.85,12.13-2.14,17.4,3.14,2.57,7.13,4,10.84,5.85,2.57,1.29,5.42,2.29,9.27,4-2.57,2-4.14,4-6,4.71a89.33,89.33,0,0,1-15.84,5c-11,1.85-17.54,8-20,18.54-1.42,6.28-4.71,10.42-10.41,14-14,8.56-22.54,20.4-20,37.94,1.57,11.42-4,19.83-11.84,27.4-4,3.7-8,7.41-11.69,11.27-5.71,6.13-8.28,13.55-6.85,21.82,1.42,7.42,3.42,14.84,5.13,22.26.43,1.85.72,3.85,1.14,6.13-4.13-.28-6-2.56-7.7-5-4.28-6.85-8.13-13.84-12.7-20.54-6.84-10.13-14.83-13-26.67-9.85a53.56,53.56,0,0,0-11.56,4.43c-8.7,4.85-17,10.69-25.82,15.26-7.28,3.85-11.7,9.27-13.84,16.83a121.75,121.75,0,0,0-4.71,36.38,52.08,52.08,0,0,0,7,26c2.71,4.71,6.57,7.13,12.13,6.85,8.56-.43,15.55-4.28,21.4-10s10.7-12,15.83-18.12c2-2.42,4-2.85,6.71-1.14s4.56,3.71,4.14,7.28c-.72,5-1.57,10-2,15-.43,5.7-1.28,11.41-.57,17,.85,7.14,5.56,9.85,12.7,8,2.56-.71,5-1.71,7.41-2.28,4-1,8-2.28,12.13-2.57,7-.43,10.7,4.28,9,11a77.17,77.17,0,0,1-4.14,10.84c-3.42,8.27-2.57,14.69,4.14,20.83,10.56,9.7,21,12.69,34.09,5.56,4.28-2.28,8-1.71,11.7.43,1.29.71,2.71,1.57,4,2.42,4,2.57,7.42,1.86,9.84-2.42a91.35,91.35,0,0,0,4-8.42c7.56-16.69,18.54-23.25,36.8-21.54,14.41,1.28,28.54,1,42.37-4,9-3.29,17.69-2.29,26,2.42,4.14,2.43,8.56,4.57,12.84,6.71,10.84,5.42,22,10.27,34.67,8.27,8.27-1.28,15.12,1.71,21,7.13,6.27,5.85,12.12,12,18.11,18.26,7.85,8.14,16.84,10.56,27.68,7.28,10.42-3,21-6.13,31.67-7.85,20.12-3.28,40.23-.42,60.35.57,6.85.29,9.7,3.14,11.27,9.85,2.57,11.41,1.71,22.68-1.43,33.81a154.68,154.68,0,0,0-5.56,37.8c-.29,10.13-.71,20.12-1.57,30.25-1.14,12.7-6.56,23-18.4,29.1-5.57,3-11,6.28-16.55,9.42-11.7,6.7-18.12,16.83-18.83,30.24-.29,4.57-.86,9.13-.58,13.56.72,11.41-3.42,20.4-12.41,27.67-11.55,9.28-21.4,20.4-30.24,32.24-8.42,11.13-15,23.26-17.69,37.1-1.14,5.85-1.86,11.69-3.14,17.54-1.14,5.28-2.43,6.14-7.7,6-9.85-.29-17.27-5.14-23.54-12.13-14.55-16.26-25.25-35.24-35-54.5-10-20.11-19-40.8-28.1-61.34-5.28-11.84-13.55-19.69-26.25-22.83-2.57-.71-5-1.28-7.56-2-13.27-3.56-26.82-6.42-39.8-10.7S340.71,680,331.87,669.34c-12-14.7-14.12-32.1-12.41-50.22,1.28-13.13,3.28-26.11,4.28-39.23.85-10.27-.14-20.4-4.71-30-3.14-6.42-8.42-9.7-15.55-9.85-2.28,0-4.71-.14-7,0-8.7.15-16.83-2-23.68-7.56a189.65,189.65,0,0,1-15.12-13.41,78.81,78.81,0,0,0-23.83-16.55c-10.7-4.7-21.4-9.41-32-14.26a32.67,32.67,0,0,0-20.11-2.57,22.23,22.23,0,0,1-8.13-.14c-15.41-2.57-26.4-11.56-34.53-24.4-7.27-11.41-10.27-24.54-12.55-37.66-2.86-16-4.71-32.24-7.71-48.22-4-20.55-9-40.8-13.26-61.35a102.65,102.65,0,0,1-2-34.38c1.43-11.55,7.56-20.4,15.26-28.67,12-12.84,18.41-27.54,15.41-45.37-1.85-11.27.86-21,8.85-29.25,1-1,1.85-2.14,2.85-3.28a57.42,57.42,0,0,0,15.12-28.39,51.31,51.31,0,0,1,5.42-14.83,44.61,44.61,0,0,1,8.28-10.7c.43-.43,1.14-1,1.14-1.43,0-1.71.43-4.14-.57-5.14s-3.43-.71-5.14-.42c-.85.14-1.57,1.28-2.28,2a461.59,461.59,0,0,0-62.77,75.61c-45.51,67.91-71.19,142-76.9,222.7a421.52,421.52,0,0,0,5.42,102A431,431,0,0,0,83.49,653.93Q145.56,764.14,256.54,826c60.21,33.53,124.83,52.07,193.6,56.21a433.94,433.94,0,0,0,96.15-5,449.52,449.52,0,0,0,138.1-45.66q101.43-53.07,164.92-147.79c22.25-33.1,40.37-68.34,51.78-106.72,3.43-11.69,6.71-23.54,10-35.38.71-2.71-.14-4.56-2.71-5.56a3.68,3.68,0,0,0-3.85.71,5.48,5.48,0,0,0-1.29,2.14,29.22,29.22,0,0,0-1,3.28c-4.57,15.7-8.28,31.53-13.7,46.8a391.56,391.56,0,0,1-21.11,48.22c-2.29,4.42-4.71,8.84-7.14,13.12a417.16,417.16,0,0,1-28.67,44.23c-8,10.84-16.41,21.4-25.25,31.38-1.29,1.43-2.57,2.86-3.86,4.28a431,431,0,0,1-87.3,73.9q-93.32,59.72-203.87,68.77a430.83,430.83,0,0,1-100.44-3.28c-54.35-8.28-105.57-25.68-153.36-52.93-65.62-37.38-118.41-87.88-157.78-152.08C61.52,602.86,40.12,535.52,36.27,463.05A423.1,423.1,0,0,1,50.68,328.66a453.88,453.88,0,0,1,89-172c2-2.43,4-4.85,6-7.14s4.14-4.56,6.57-7.42a24.36,24.36,0,0,1-.57,3c-2.14,9.7-7,17.26-13.56,24-10.27,10.41-15.12,22.54-13,37.38,1.71,11.27.29,22.25-7.13,31.67-3.14,4-6.28,8-9.56,11.69a55.7,55.7,0,0,0-14.41,36c-.57,15.83,2.71,31.1,6.14,46.36q6.19,28.25,11.55,56.92c3.14,16.41,5.42,33.1,8.85,49.51,3.56,16.83,10.7,31.81,24.39,43.08,9.7,8.13,20.83,13.84,33.81,12.7,9-.86,17,.14,24.68,4.42a76.62,76.62,0,0,0,9.28,4.14c17.26,6.56,32.67,15.26,45.51,29,11.12,11.84,25.1,18,42.08,16.55,7.28-.57,9.84,1.85,12.13,8.84,3.56,11,3,22.12,1.85,33.39-1.42,13.84-3.85,27.67-3.85,41.65.14,24.69,10.41,44.8,32.24,57.35A166.21,166.21,0,0,0,373,702.72c11.27,3.71,23.11,6,34.81,8.56s19.4,9.42,23.82,20.69c12.27,30.24,25.68,59.91,43.23,87.59a278.82,278.82,0,0,0,22,30.1,37.36,37.36,0,0,0,29.1,13.7c8.28.14,12.84-3.43,15-11.41a40.06,40.06,0,0,0,1.14-5.71c1.71-19.4,8.85-36.67,21.83-51.22,10-11.12,20.83-21.68,31.39-32.38,5.42-5.42,8.7-11.84,9-19.55.29-6,.43-12.12.72-18.26.57-9.41,2.14-18.83,11-24.54,6.14-4,12.7-7.7,19.12-11.27,9.56-5.42,17.12-12.26,20.83-23.11,3.42-10,4-20.11,4.42-30.53.71-16.12.29-32.24,5.28-48.07a86,86,0,0,0,3-34.1c-1.28-13.84-8.41-21.12-22.11-21.83-11.84-.71-23.68-1.28-35.52-1.57-6.14-.14-12.41-.43-18.26.72-12.41,2.28-25,5-37.09,8.41-9.56,2.71-16.55.57-23-6.56-5.71-6.28-11.7-12.13-18-17.83-7.27-6.42-16-10-25.82-8.28-7.28,1.29-14.12-.14-20.54-3-8-3.57-15.7-7.56-23.4-11.42-9.56-4.85-19.26-6.27-29.82-3-5.7,1.85-11.55,3.71-17.4,4.14-8.85.71-18,.14-26.82-.15-19.41-.71-33,7.56-40.8,25.11-1.15,2.57-2.43,5-3.71,7.71-8.42-5.43-16.27-6.14-25.26-1.29-7.56,4.14-15.55,1.57-22.39-5.42-2.86-3-4-6.13-2.29-10.13a80.19,80.19,0,0,0,4.57-11.55c4.28-14.13-5.56-25.11-20.12-22.69-4.42.72-8.56,2.28-12.84,3.43-2.42.71-4.85,1.28-7.56,2,0-4.42-.28-8.41,0-12.12.57-6.71,2-13.27,2.57-20,.57-7.41-3.71-13.26-11.13-16-5.56-2-10.84-.15-15.55,5.7-2.85,3.57-5.56,7.28-8.56,10.7-5.28,6-11.12,11.27-19.26,13.13-3.71.85-6.13-.29-7.56-3.71-1.28-2.86-2.71-5.71-3.28-8.56-3.71-16.84-2-33.53,3.85-49.65,1.14-3,4.43-5.56,7.28-7.7a108.12,108.12,0,0,1,13-7.85c6-3.42,11.84-7.13,18.12-9.84,13.27-5.85,18.55-3.85,26.11,8.56,3.28,5.42,6.13,11.12,9.84,16.26a24.72,24.72,0,0,0,9.7,7.85c7.28,3.14,13.41-1.72,13-9.56a27.51,27.51,0,0,0-.85-5c-1.43-5.57-3-11-4.42-16.41-2.72-9.7-.58-17.83,7.13-24.54a144.1,144.1,0,0,0,12.55-12.13c6.85-7.7,10.7-16.69,10.13-27.24-.14-4-.85-8.14-.28-12,1.42-8.56,7-15,14.26-19,9-5.14,14.55-11.84,16.55-22,1.14-5.85,5.28-9,11.27-10.27a120,120,0,0,0,20-6.28c3.14-1.43,6-4.42,8-7.42,2.29-3.28,1.43-7.28-1.28-10.84a53.53,53.53,0,0,0,36.81,0c8.41-3,9.56-9.56,2.71-15.27-3.57-3-7.71-5.28-11.27-8.27-.86-.71-1.71-2.85-1.29-3.57,5.28-8.56-1.71-19.69-9.41-22.68a47.93,47.93,0,0,0-12.41-3c-7.28-.71-12.42-3.56-15.13-10.7a60.36,60.36,0,0,0-5.85-11.84c-4.85-7.84-12.26-8.41-18.83-1.85a45,45,0,0,1-5.42,5c-5,3.42-7,3.14-10.84-1.28-4.71-5.42-10.42-8.85-17.55-9.7-3-.43-5.85-.86-8.84-1.43a17.6,17.6,0,0,1-3.71-1.71l.43-1.29c2,.43,3.85.57,5.84,1.14,7.42,2.29,14.84,4.85,22.26,6.85,8.56,2.43,15.12.29,19.4-7.27a76.82,76.82,0,0,0,8.42-20.69c2.57-11.56-1.43-17-12.84-20.4l-5.56-1.71c-10-3.28-13.84-14-7.85-22.69.43-.71,2.42-1.42,3-1,7.84,5,16.69,5.27,25.53,6,9.13.85,15.55,5.42,18.41,14.41,1.56,4.7,3,9.41,4.56,14,3.28,9,7.42,17.4,15.27,23.39,6.7,5.28,14.26,6.85,22.39,3.29,7.71-3.29,11-9.56,11-17.55,0-7.28,1.43-14.13,5.42-20.26.71-1.14,1-2.43,1.57-3.57,2.71-6.7,5-7.56,12.27-6.56a247.32,247.32,0,0,0,27.1,2.43c8.85.14,17.27-2.14,24-8.56,4.14-4,5.57-8.71,3.85-12.56s-6-5.7-12-5a20.91,20.91,0,0,0-5,1.14c-4.71,1.43-9.28,3.14-14.13,4.56C458,67.87,452,69.44,445.71,71.15c-.42-5.56-.57-10.27-1.14-15-.71-5.56-3.85-9.13-9.27-10.7-2-.57-4-.85-6-1.57-6.14-2-12.41-3.85-18.26-6.42-7.28-3.14-14.13-7.13-21.12-10.7-10.55-5.28-20.11-2.85-28.53,4.43a91.06,91.06,0,0,0-11.27,12.26c-2.14,2.71-3.85,3.57-7.42,2.43-4-1.28-8.7-2.14-12.55-1.28C317,47.9,305.62,54.46,297.63,65.87a67.49,67.49,0,0,1-11.84,13.84c-6.56,5.71-11.7,13.13-17,20.12-2.28,2.85-3.42,6.27-8.27,4.56-1.71-.57-4.28.71-6.28,1.43-2.42,1-4.56,2.28-7,3.28C237,113.38,232.29,111,230,100c0-.29-.14-.43-.14-.71-1-6.14-2.43-12-9-15.41l-.86-.43c8.13-5,15.84-10,23.54-14.84.14-.14.43-.28.57-.43,1.57-1,3-1.85,4.57-2.71.85-.57,1.71-1,2.57-1.56.71-.43,1.28-.72,2-1.15C280.65,46,309,31.06,339.72,20.36,361.4,12.8,383.8,8.52,406.34,4.81c25.39-4.28,51.07-7.13,76.9-6,6.56.29,13.12,1.86,19.68,2.85a7.42,7.42,0,0,1,3,1c1.85,1.14,2.57,3.14,2.28,6-1,11.27,4,19.55,13.13,25.54,6.27,4.14,12.84,8,19.11,12.13,7.28,4.71,9.85,12.12,11.27,20.54-3.42-.28-6.42-.71-9.56-.71-7,.14-12.26,6-10.69,12.69,1,4,2.85,8.42,5.84,11,13.56,12.41,29.39,18.83,48.08,16.41,11.7-1.57,17-12.27,10.27-22.12-2.28-3.28-6.13-5.7-9.7-7.84-3.71-2.29-8.13-3.43-12.12-5.42a18.17,18.17,0,0,1-4.28-3.71c7.84-1.86,15.55-3.14,22.68-5.71,7.42-2.57,9.27-9,5-15.69-2.14-3.43-5.13-6.42-7.7-9.85-1.43-1.85-2.43-4-4.28-6.84a50.59,50.59,0,0,1,23.68,11c10,8,10.7,15.41,4.14,26.39a135.72,135.72,0,0,0-10.7,21.4c-2.43,6.42-2.28,13.27,1.57,19.4s11.55,9.14,17.4,1.86c1.43-1.86,2.86-2,4.57-.57,4.85,3.71,9.7,7.42,14.26,11.41a31.28,31.28,0,0,1,4.43,5.85c-1.29,1-2.14,1.57-2.86,2.14-12.84,8.85-15.4,21-6.56,33.81,5.85,8.42,14.27,10.7,24,9.56,8.7-1,12-7.13,14.55-14.69,4.14-12,5.28-24.11,5.14-36.67,0-6.85.57-7.13,7.27-7.56,4.28-.28,8.56-.28,12.84-1.14,7.13-1.57,9.7-6.71,7.13-13.55-1.14-3.14-2.56-6.14-3.85-9.28a27.76,27.76,0,0,1-.14-21.11,6.64,6.64,0,0,1,1.71-2.57c1-.57,2.28,0,3.57,1.71a6.17,6.17,0,0,1,.71,1,17.48,17.48,0,0,1,2.71,6.28C713.07,87.41,724.05,98,740,98.54,751,99,757.86,105,764,113a16.3,16.3,0,0,1,2.71,16.69,5.75,5.75,0,0,1-3.57,3.28c-13,2.14-26.11,5-39.23.15a10.42,10.42,0,0,0-2.28-.57c-8.56-1.29-14.27,1.85-17.55,9.84-2,4.71-3.71,9.56-5.42,14.41-5.85,16.26-12.13,32.38-17.55,48.79-6.14,18.26-8.42,37.09-4.42,56.21,4.13,19.83,8.41,39.66,12.27,59.49,3.42,18,12.41,31.81,28.39,41.51,8.13,5,15,11.84,22.39,18,3.57,3,6.85,6.42,10.7,9.13,9.56,6.85,20.4,7.85,31.67,6.28,15.41-2,30-6.14,43.37-14.13,6.42-3.85,11.27-9.41,12.56-16.69,1.71-9.56,7.13-15.41,16-18.83,4.85-1.85,9.7-3.57,15.55-5.71-1.43,3.29-2.29,5.28-3.14,7.28-4.71,10-3.85,19.69,2.71,28.53a177.85,177.85,0,0,0,11.7,14c6,6.42,12.55,12.56,18.26,19.12,5.13,5.71,8.56,12.27,6.85,20.54C904.8,437.51,902.66,444.79,901.81,452.2ZM353.55,215.67c-1.28-.57-2-2.14-3-3.28,1.28-.86,2.42-2.14,3.71-2.14a6.44,6.44,0,0,1,4.28,1.71c2.28,2.57,4,5.56,6.27,8.84C361.12,219.09,357.26,217.67,353.55,215.67Zm133-147.52c-2.57,9-17.69,11-31.1,9.14C466,75,475.39,69,486.52,68.15ZM288.21,107.53c3.14-8.56,5.85-17.4,9.56-25.68,4.57-10.41,11.13-19.26,21.83-24.39,3.71-1.72,7.42-3.86,11.56-4.71a19.41,19.41,0,0,1,9.41,1c7.42,2.42,10.27,1.57,15.27-4.43a114.61,114.61,0,0,1,12.84-13.41c4.85-4.13,10.7-5,16.83-2.14,7.13,3.57,14.27,6.71,21.12,10.7,7.27,4.28,15.26,5.85,23.25,7.56,5.71,1.29,6.56,2.29,6.85,8.14.28,4.7.42,9.41.71,14.4-1.28.15-3.28.29-5.14.58-5.42.71-9,3.85-11.12,8.7-2,4.42-4.28,8.56-5.85,13a69.45,69.45,0,0,0-2.57,10.84c-.29,1.57,0,3.14-.14,4.71-.29,5-1.14,9.56-6.57,11.84-5.27,2.14-10.41,1-14-2.85a73.4,73.4,0,0,1-10.41-15.12c-2.43-4.57-3.42-9.71-5-14.56C371.53,76,362.68,69,346.28,68.15c-6.71-.28-13-1.56-19-5-5.7-3.28-10.55-1.57-13.83,4.14A28,28,0,0,0,310.9,89a16.78,16.78,0,0,0,10.27,11.42c4.28,1.71,8.85,3.14,13.27,4.56,3.85,1.14,5.13,3.71,4.85,7.28a45.42,45.42,0,0,1-7,20c-3,4.71-5.57,5.71-10.84,4.14-7-2-13.84-4.42-20.83-6.42-3.86-1.14-8-1.43-12.84-2.28C285.08,121.37,285.65,114.38,288.21,107.53Zm-4.13,62.63a9.31,9.31,0,0,1-1.29,5.85c-10.84,14.55-26.25,18.83-41.8,6.85-7-5.43-8-13.41-2-19.69,3.71-3.85,8.84-6.56,13.69-9.27,4.14-2.14,8.7-3.29,13-5.14,8-3.57,13.27-9.13,12-18.69a7.27,7.27,0,0,1,.28-1.71,1.86,1.86,0,0,0,.86-.14c1,6.13,2.28,12.27,3,18.4C282.94,154.47,283.51,162.31,284.08,170.16Zm292.31-89c3.14,1.28,6.42,2.28,9.13,4.13a12.22,12.22,0,0,1,4.28,6c1.15,3.71-.28,6-4.13,6.27-5.28.43-10.7.86-15.84,0-9.7-1.71-18.4-6.42-25.82-12.84a19.63,19.63,0,0,1-4.14-6c-1.14-2.71.43-4.56,3.43-4.28,2.28.14,4.7.57,7,.86,6.42.85,9.27-1.14,10.27-7.56C563.55,75,569.69,78.43,576.39,81.14Zm165.64,9C730.9,89.41,723.34,84,720.77,75a15.57,15.57,0,0,1-.57-2.57c8.42,6,16.4,11.56,25.11,17.84A24.56,24.56,0,0,1,742,90.13ZM883.12,380.44c-1.57-1.71-3-3.56-4.57-5.27-6.84-8-8.27-16.7-3-26.11a49.31,49.31,0,0,0,2.85-6.28c2.14-6.13-.85-10.84-7.13-9.56-8,1.71-15.84,4.71-23.54,7.71-9.13,3.56-14.7,10.41-16.55,20.11-1.43,7.56-6,12.7-12.84,16.12a105.6,105.6,0,0,1-43.8,11.42,30.71,30.71,0,0,1-23.39-8.85,244.61,244.61,0,0,0-34.81-28.1c-9.7-6.42-15-15.7-17.41-26.54-3.14-14.27-5.85-28.53-8.84-42.8-1.86-8.84-4-17.69-5.42-26.53-2.72-16-.43-31.82,4.7-46.94,6.85-20.4,14.27-40.66,21.69-60.92,2.71-7.41,4.85-8.84,12.41-6.27,14.69,4.85,29.1,1.71,43.51-.72a9.42,9.42,0,0,0,7.85-7.27c1-4.43,1.57-8.85,2.28-13.56.14-.85.29-1.57.43-2.42,60.06,58.78,102.15,125.69,122,202.72A414.51,414.51,0,0,1,912.37,413C904.66,400.13,893,391.14,883.12,380.44Zm28.67,63.63a5,5,0,0,1,1.43.14c-2,20.69-4.14,41.38-6.13,62.21-.57,0-1-.15-1.57-.15C906.94,485.44,907.51,464.62,911.79,444.07Z" transform="translate(-27.27 10)"/></g><path class="cls-1" d="M279.23,129.07c.57,3,1.57,7.71,2.71,13.56,1.57,7.56,2.14,9.41,2.71,13.55,1.14,7.7,1.57,11.7,0,16.12-1.86,5.42-5.57,8.7-8.13,10.84-2.86,2.57-9.56,8.28-19,8.13-8.27,0-19.4-4.56-21.83-13.41-1.56-6.13,1.72-11.84,2.72-13.55,3.13-5.42,8-8,13.55-10.84,7.27-3.71,9.27-3,13.55-5.42S275.38,140.63,279.23,129.07Z" transform="translate(-27.27 10)"/><path class="cls-5" d="M65.38,606.28s29,86.45,60.63,101.86c0,0,80.17-40.37,98.72-44.22,0,0,48.36-17.27,72.62,13.41,0,0,28,38.37-14.84,65.19l-108,67.2S118.59,802,70.23,738.67C70.08,738.67,43.12,692.59,65.38,606.28Z" transform="translate(-27.27 10)"/><path class="cls-5" d="M188.07,814.14s18.68,71.05,115.55,49.93l109.85-92.16s52.22-42.23,13-80.6c0,0-52.22-34.53-102.44,13.41l-7.42,23Z" transform="translate(-27.27 10)"/><path class="cls-5" d="M303.48,871.78s24.25,36.52,91.3,19.25l95-103.71s22.4-28.82-1.86-59.49c0,0-28-15.41-39.09-7.71V747Z" transform="translate(-27.27 10)"/><path class="cls-5" d="M407.91,889c3.71,1.85,15,21.11,55.92,1.85,6-7.42,12.27-15.55,18.41-24.68a331.19,331.19,0,0,0,24.39-42.51,33,33,0,0,0-2.28-19.4A31.39,31.39,0,0,0,495.5,793Z" transform="translate(-27.27 10)"/><path class="cls-5" d="M515.9,816s-7.41,38.38-16.83,47.94c0,0,0,26.53,14.84,33.67,1.42.71,4.56.43,10.13,1.71,6.13,1.43,7.27,2.42,10.41,3,6.42,1.14,13.7-1.29,18.69-5.71,6.56-5.85,9.27-15.41,7.42-25a105.79,105.79,0,0,0-15-28.82A101.66,101.66,0,0,0,515.9,816Z" transform="translate(-27.27 10)"/><path class="cls-5" d="M521.47,720.12l-18.69,15.41s-1.85,40.38,15,57.64l61.49,84.45s28,25,59.63,7.71c0,0,34.52-10.27,29.82-25-1.86-5.7-96.87-126.68-109.85-128.68C558.7,731.54,543.87,708.57,521.47,720.12Z" transform="translate(-27.27 10)"/><path class="cls-5" d="M545.72,704.72s-9.27-42.23,26.11-65.34c0,0,40.94-23,68.91,13.41l65.19,88.31s50.36,49.93,61.49,59.49c0,0,15,30.67-44.65,53.78,0,0-29.82,11.56-54.07-5.71l-68.91-84.45Z" transform="translate(-27.27 10)"/><path class="cls-5" d="M651.86,643.23c1.71-5.42,3.71-59.49,68.91-42.23l109.85,96s26.11-2,37.23-32.67l2,39.95c1.57,33.67-14.84,65.77-43.08,82.32a63.13,63.13,0,0,1-22.12,8.27S780.4,804.44,726.48,747C726.48,747,648.15,654.79,651.86,643.23Z" transform="translate(-27.27 10)"/><path class="cls-6" d="M912.94,540.8s0-29.11-6.57-56.5c0,1.14,1.14-6.56,0,1.14-5.28,36.67-65,47.08-86.88,66.63h0A66.83,66.83,0,0,0,785,601.14c-2.29,15.84-2,34.24,6.13,49.94l43.37,37.23a13.94,13.94,0,0,0,18.55-.43c7.56-7.13,18-19.26,26.39-37.8a59.91,59.91,0,0,1,4.57-8.56C891.82,628.39,913.36,590,912.94,540.8Z" transform="translate(-27.27 10)"/><path class="cls-7" d="M304.76,239.35a6.66,6.66,0,0,1-.14-1.43h-.43c-.14.43-.14,1-.28,1.57-17.12,6.28-34.38,12.7-51.65,19.12a.14.14,0,0,0-.14-.14c.86-.43,1.57-1,2.43-1.43,14.55-8.56,29.24-17.26,43.79-25.82,12-7,23.83-14.12,35.81-21.12.57-.28.57-.57.57-1.14a40.85,40.85,0,0,1,2.57-24.68A42.08,42.08,0,0,1,390.5,161a40.51,40.51,0,0,1,20.83,16.26Q424,196.76,414.76,218c-8.42,19.12-29,28.82-49.22,23.68a43.22,43.22,0,0,1-14.84-7.13,37.3,37.3,0,0,1-8.13-8.27,1.14,1.14,0,0,0-1.57-.43c-11.84,4.42-23.68,8.7-35.38,13.12C305.33,238.92,305.19,239.07,304.76,239.35Zm93.73-19.83a7.89,7.89,0,0,0,10.56-3A7.65,7.65,0,0,0,405.91,206a7.91,7.91,0,0,0-10.56,3.14A7.74,7.74,0,0,0,398.49,219.52Z" transform="translate(-27.27 10)"/><path class="cls-1" d="M398.49,219.52a7.68,7.68,0,0,1-3-10.41,7.78,7.78,0,1,1,13.69,7.41A8.1,8.1,0,0,1,398.49,219.52Z" transform="translate(-27.27 10)"/><path class="cls-1" d="M129.1,988.24c0-15.82,9.92-29.44,28.78-29.44,7.13,0,12.79,2.14,18.78,7.3a5.32,5.32,0,1,1-7.3,7.71c-3.36-3.53-6.81-4.51-11.48-4.51-12.63,0-18.7,8.94-18.7,18.94,0,10.17,6,19.52,18.7,19.52a19.1,19.1,0,0,0,12.79-5.25,5.52,5.52,0,0,1,7.54,1c1.32,1.81,2,4.84-.9,7.71-5.74,5.33-12.63,6.4-19.43,6.4C138,1017.6,129.1,1004.07,129.1,988.24Z" transform="translate(-27.27 10)"/><path class="cls-1" d="M188.87,965.2a5.11,5.11,0,0,1,5.17-5,5,5,0,0,1,4.84,5v41.08h22.3c8,0,8.2,10.74,0,10.74H194a5,5,0,0,1-5.17-5Z" transform="translate(-27.27 10)"/><path class="cls-1" d="M236.27,965.2c0-6.72,10.82-7,10.82,0V1012c0,6.81-10.82,7-10.82,0Z" transform="translate(-27.27 10)"/><path class="cls-1" d="M270.13,981v30.34a5.66,5.66,0,0,1-5.9,5.65c-2.62,0-4.92-2-4.92-5.65V965.2a5.46,5.46,0,0,1,4.92-5.66c2.38,0,3.77,1.4,5.17,3l18,24.36,18.69-25.26a5.32,5.32,0,0,1,9.35,3.61v46.17c0,3.6-2.3,5.65-4.92,5.65-2.95,0-5.25-2-5.25-5.65V981L291.7,998.25c-2.95,3.6-6.64,3.6-9.35,0Z" transform="translate(-27.27 10)"/><path class="cls-1" d="M325.73,1017a5.78,5.78,0,0,1-2.62-7.87l23.53-46c2.21-4.35,8.12-4.51,10.17,0l23.12,46c3.36,6.4-6.56,11.48-9.51,5.09l-3.61-7.22H336.55l-3.52,7.22C331.72,1017,328.68,1017.6,325.73,1017ZM361,996.2l-9.27-20.26L341.64,996.2Z" transform="translate(-27.27 10)"/><path class="cls-1" d="M395.76,970.53H381.41c-7.14,0-7.14-10.5,0-10.5h38.78a5.25,5.25,0,1,1,0,10.5H406.58v41.41c0,7.13-10.82,7.3-10.82,0Z" transform="translate(-27.27 10)"/><path class="cls-1" d="M438.48,1017a5,5,0,0,1-5.09-5.08V965.36a5,5,0,0,1,5.09-5.08h29.44c7.54,0,7.38,10.66,0,10.66H444.3v12.3H465c7.3,0,7.3,10.74,0,10.74H444.3v12.3h25c7.46,0,8,10.74,0,10.74Z" transform="translate(-27.27 10)"/><path class="cls-1" d="M506.7,1017a5.78,5.78,0,0,1-2.62-7.87l23.53-46c2.22-4.35,8.12-4.51,10.17,0l23.12,46c3.37,6.4-6.56,11.48-9.51,5.09l-3.61-7.22H517.53l-3.53,7.22C512.69,1017,509.65,1017.6,506.7,1017ZM542,996.2l-9.26-20.26L522.61,996.2Z" transform="translate(-27.27 10)"/><path class="cls-1" d="M566.31,988.24c0-15.82,9.93-29.44,28.79-29.44,7.13,0,12.79,2.14,18.77,7.3a5.32,5.32,0,1,1-7.29,7.71c-3.37-3.53-6.81-4.51-11.48-4.51-12.63,0-18.7,8.94-18.7,18.94,0,10.17,6,19.52,18.7,19.52a19.1,19.1,0,0,0,12.79-5.25,5.52,5.52,0,0,1,7.54,1c1.31,1.81,2,4.84-.9,7.71-5.74,5.33-12.63,6.4-19.43,6.4C575.25,1017.6,566.31,1004.07,566.31,988.24Z" transform="translate(-27.27 10)"/><path class="cls-1" d="M641.51,970.53H627.16c-7.14,0-7.14-10.5,0-10.5h38.78a5.25,5.25,0,1,1,0,10.5H652.33v41.41c0,7.13-10.82,7.3-10.82,0Z" transform="translate(-27.27 10)"/><path class="cls-1" d="M679.8,965.2c0-6.72,10.82-7,10.82,0V1012c0,6.81-10.82,7-10.82,0Z" transform="translate(-27.27 10)"/><path class="cls-1" d="M731.62,1017.84c-15.16.66-30.91-9.43-30.91-29.52s15.75-30.09,30.91-30.09C746,959,761,968.89,761,988.32S746,1017.84,731.62,1017.84Zm-.9-49c-9.18,0-19.19,6.48-19.19,19.43s10,19.44,19.19,19.44c9.43,0,19.52-6.56,19.52-19.44S740.15,968.89,730.72,968.89Z" transform="translate(-27.27 10)"/><path class="cls-1" d="M771.07,966c0-2.95.65-5.82,4.92-5.82,3,0,3.6.74,5.82,2.87L809,997V965.2c0-2.71,2.38-5.66,5.17-5.66a6.24,6.24,0,0,1,5.82,5.66v46.17c0,3.6-2.22,5-4.35,5.65-2.87,0-4.26-.65-6.64-2.87l-27.14-34.44v31.66c0,3.6-2.22,5.65-5.17,5.65a5.39,5.39,0,0,1-5.57-5.65Z" transform="translate(-27.27 10)"/><path d="M829.83,617.06V439.57a38.58,38.58,0,1,0-77.15,0V616.28a72.25,72.25,0,1,0,77.15.78ZM790.77,737.75A59.4,59.4,0,0,1,766.89,624V439.57a23.88,23.88,0,0,1,47.76,0V624a59.39,59.39,0,0,1-23.88,113.78Z" transform="translate(-27.27 10)"/><path class="cls-1" d="M814.65,624V439.57a23.88,23.88,0,0,0-47.76,0V624a59.4,59.4,0,1,0,47.76,0ZM790.77,725.51a45.93,45.93,0,0,1-10.4-90.66V472.64a10.41,10.41,0,1,1,20.81,0V634.85a45.93,45.93,0,0,1-10.41,90.66Z" transform="translate(-27.27 10)"/><path class="cls-8" d="M836.69,679.59a45.84,45.84,0,1,1-35.51-44.74A45.92,45.92,0,0,1,836.69,679.59Z" transform="translate(-27.27 10)"/><path class="cls-8" d="M801.18,472.64V636.12H780.37V472.64a10.41,10.41,0,1,1,20.81,0Z" transform="translate(-27.27 10)"/></svg>