<svg id="co_work" data-name="co work" xmlns="http://www.w3.org/2000/svg" viewBox="0 0 1080 215.83"><defs><style>.cls-1{fill:#fff;}.cls-2{fill:#03a4b1;}.cls-3{fill:#5bb951;}.cls-4{fill:#fdfdfd;}.cls-5{fill:#020202;}</style></defs><rect class="cls-1" y="141.57" width="1080" height="23.04"/><rect class="cls-2" width="1080" height="141.12"/><circle class="cls-1" cx="952.93" cy="117.12" r="98.7"/><path class="cls-1" d="M951.77,90.71a23.38,23.38,0,1,0,23.37,23.37A23.38,23.38,0,0,0,951.77,90.71Zm.17,45.89a22.69,22.69,0,1,1,22.69-22.69A22.69,22.69,0,0,1,951.94,136.6Z" transform="translate(-0.18 2.04)"/><path class="cls-1" d="M53.8,66.54c0-15.44,9.68-28.72,28.08-28.72,7,0,12.48,2.08,18.32,7.12a5.19,5.19,0,1,1-7.12,7.52c-3.28-3.44-6.64-4.4-11.2-4.4-12.32,0-18.24,8.72-18.24,18.48,0,9.92,5.84,19,18.24,19a18.63,18.63,0,0,0,12.48-5.12,5.39,5.39,0,0,1,7.36,1c1.28,1.76,1.92,4.72-.88,7.52-5.6,5.2-12.32,6.24-19,6.24C62.52,95.18,53.8,82,53.8,66.54Z" transform="translate(-0.18 2.04)"/><path class="cls-1" d="M140.28,95.42c-14.8.64-30.16-9.2-30.16-28.8s15.36-29.36,30.16-29.36c14,.72,28.64,10.4,28.64,29.36S154.28,95.42,140.28,95.42Zm-.88-47.76c-9,0-18.72,6.32-18.72,19s9.76,19,18.72,19c9.2,0,19-6.4,19-19S148.6,47.66,139.4,47.66Z" transform="translate(-0.18 2.04)"/><path class="cls-1" d="M182.12,72.3c-6.72,0-6.64-9.68,0-9.68h20.16c6.4,0,6.08,9.68,0,9.68Z" transform="translate(-0.18 2.04)"/><path class="cls-1" d="M272.52,75.5l11.92-33c2.4-6.48,12.08-3.44,9.68,3.52L278.28,89c-1.44,4.56-2.8,5.92-5.52,5.92-2.88,0-3.76-1.76-5.36-4.64L253.48,58.7,240.2,89.82c-1.44,3.36-2.8,5.28-5.68,5.28s-4.24-1.92-5.52-5.44l-15.52-43.6c-2.4-7.2,7.76-9.84,9.84-3.52l11.84,33,14.16-33c1.92-4.88,7-5.12,9-.24Z" transform="translate(-0.18 2.04)"/><path class="cls-1" d="M329.88,95.42c-14.8.64-30.16-9.2-30.16-28.8s15.36-29.36,30.16-29.36c14,.72,28.64,10.4,28.64,29.36S343.88,95.42,329.88,95.42ZM329,47.66c-9,0-18.72,6.32-18.72,19s9.76,19,18.72,19c9.2,0,19-6.4,19-19S338.2,47.66,329,47.66Z" transform="translate(-0.18 2.04)"/><path class="cls-1" d="M378.91,89.42c0,7-10.64,7.2-10.64.16V44.14a4.78,4.78,0,0,1,4.8-4.88h21.28c20.33,0,24.49,27.2,7.53,34l10.64,13c4.16,6.16-4.16,12.08-9,6L391.48,74.94H378.91Zm0-23.68h15.44c10.41,0,11-16.8,0-16.8H378.91Z" transform="translate(-0.18 2.04)"/><path class="cls-1" d="M440.52,70.14l-7.61,8.4v11.2c0,6.64-10.56,6.72-10.56,0V44.06c0-6.8,10.56-7,10.56,0V64.38L456,40.54c2.8-2.64,5.6-2,7.6,0a4.61,4.61,0,0,1,0,7.12c-4.72,5.6-10.24,10.56-15.37,16.16L467,86.46c4.8,6.64-5.44,11.44-8.64,6.32Z" transform="translate(-0.18 2.04)"/><ellipse class="cls-1" cx="952.36" cy="117.38" rx="83.83" ry="84.2"/><path class="cls-3" d="M953.19,29.32a85.94,85.94,0,1,0,85.94,85.93A85.93,85.93,0,0,0,953.19,29.32Zm0,166.76A80.83,80.83,0,1,1,1034,115.25,80.83,80.83,0,0,1,953.19,196.08Z" transform="translate(-0.18 2.04)"/><path class="cls-4" d="M954.25,171.13c-33.17.52-58.86-29.57-53.94-63.19,5.91-40.46,54.09-60.16,86.45-35.34,2.1,1.61,4,3.5,6,5.2,1.8,1.5,3.84,2,6,.83a5.13,5.13,0,0,0,2.92-5c-.09-2.3-1.64-3.7-3.16-5.08-15.49-14.09-33.72-19.89-54.31-16.8-40.18,6-64.91,47.39-51.78,86,10.33,30.36,41.91,49,73.24,43.08a63.7,63.7,0,0,0,33.79-17.5c2.68-2.65,3-5.66.86-8-2.25-2.52-5.4-2.33-8.55.65A54.14,54.14,0,0,1,954.25,171.13Zm-1.57-99.3a44.6,44.6,0,1,0,44.45,44.68A44.2,44.2,0,0,0,952.68,71.83Z" transform="translate(-0.18 2.04)"/><path class="cls-2" d="M954.25,171.13a54.14,54.14,0,0,0,37.56-15.19c3.15-3,6.3-3.17,8.55-.65,2.09,2.34,1.82,5.35-.86,8a63.7,63.7,0,0,1-33.79,17.5c-31.33,5.89-62.91-12.72-73.24-43.08-13.13-38.58,11.6-79.93,51.78-86,20.59-3.09,38.82,2.71,54.31,16.8,1.52,1.38,3.07,2.78,3.16,5.08a5.13,5.13,0,0,1-2.92,5c-2.17,1.19-4.21.67-6-.83-2-1.7-3.93-3.59-6-5.2-32.36-24.82-80.54-5.12-86.45,35.34C895.39,141.56,921.08,171.65,954.25,171.13Z" transform="translate(-0.18 2.04)"/><path class="cls-5" d="M952.68,71.83a44.6,44.6,0,1,1-44.41,44.29A44.41,44.41,0,0,1,952.68,71.83Zm33.21,44.76C986,98.14,971.18,83,953,82.91a33.42,33.42,0,1,0-.42,66.84A33,33,0,0,0,985.89,116.59Z" transform="translate(-0.18 2.04)"/></svg>