<svg id="Layer_1" data-name="Layer 1" xmlns="http://www.w3.org/2000/svg" viewBox="0 0 949 1080"><defs><style>.cls-1{fill:#fff;}.cls-2{fill:#1fbe47;}.cls-3{fill:#1dbd45;}.cls-4{fill:#1ebe47;}</style></defs><g id="Layer_3" data-name="Layer 3"><path class="cls-1" d="M229.42,982.4c0-17.37,10.92-32.29,31.57-32.29,7.82,0,14,2.36,20.65,8a6.1,6.1,0,0,1,.27,8.74,6,6,0,0,1-8.27-.28c-3.73-3.91-7.47-4.91-12.65-4.91-13.83,0-20.56,9.83-20.56,20.84,0,11.19,6.55,21.47,20.56,21.47a21.12,21.12,0,0,0,14-5.73,6,6,0,0,1,8.28,1.09c1.46,2,2.18,5.27-1,8.46-6.28,5.82-13.83,7-21.38,7C239.24,1014.61,229.42,999.78,229.42,982.4Z"/><path class="cls-1" d="M293.83,1014c-2.91-1.64-4.64-4.83-2.91-8.65l25.84-50.49c2.46-4.73,8.92-4.92,11.19,0l25.39,50.49c3.73,7-7.19,12.65-10.47,5.55l-4-7.91H305.66l-3.91,7.91C300.38,1014,297,1014.61,293.83,1014Zm38.67-22.84-10.19-22.29-11,22.29Z"/><path class="cls-1" d="M361.53,957a5.57,5.57,0,0,1,5.64-5.46,5.44,5.44,0,0,1,5.27,5.46v45.13h24.48c8.82,0,9,11.83,0,11.83H367.08a5.41,5.41,0,0,1-5.65-5.46V957Z"/><path class="cls-1" d="M418.48,1014a5.46,5.46,0,0,1-5.55-5.55V957.29a5.41,5.41,0,0,1,5.55-5.55h32.3c8.28,0,8.1,11.74,0,11.74H424.85V977H447.5c8,0,8,11.82,0,11.82H424.85v13.47h27.48c8.18,0,8.82,11.83,0,11.83H418.48Z"/><path class="cls-1" d="M468.43,957.93c0-3.28.73-6.37,5.37-6.37,3.27,0,4,.82,6.37,3.19L510,992.05V957.11c0-3,2.64-6.19,5.64-6.19,3.28,0,6.37,3.28,6.37,6.19v50.68c0,4-2.46,5.46-4.73,6.19-3.19,0-4.64-.73-7.28-3.19l-29.84-37.85v34.76c0,4-2.46,6.18-5.64,6.18a5.94,5.94,0,0,1-6.1-6.18Z"/><path class="cls-1" d="M540.85,1014c-3,0-6.18-1.64-6.18-5.55V957.29c0-3.27,3.27-5.55,6.18-5.55h20.66c41.12,0,40.3,62.33.82,62.33H540.85Zm5.73-51.32v40.4h14.93c24.29,0,25.38-40.4,0-40.4Z"/><path class="cls-1" d="M601.36,1014c-2.91-1.64-4.64-4.83-2.91-8.65l25.83-50.49c2.46-4.73,8.92-4.92,11.2,0l25.38,50.49c3.73,7-7.19,12.65-10.46,5.55l-4-7.91H613.28l-3.92,7.91C608,1014,604.63,1014.61,601.36,1014Zm38.76-22.84-10.19-22.29-11.1,22.29Z"/><path class="cls-1" d="M681.15,1008.15c0,7.83-12,8.1-12,.18V957.2a5.35,5.35,0,0,1,5.37-5.46h23.93c22.83,0,27.56,30.66,8.46,38.31l12,14.55c4.64,6.92-4.64,13.56-10.1,6.74l-13.56-19.47h-14.1Zm0-26.66h17.38c11.73,0,12.46-18.92,0-18.92H681.15Z"/></g><g id="Layer_2" data-name="Layer 2"><g id="JV3f3R.tif"><path class="cls-2" d="M465.5.31h32.7c2.53,1.34,5.17.62,7.8.62a10.1,10.1,0,0,0,1.72.21A454.81,454.81,0,0,1,686.2,48.81a463.77,463.77,0,0,1,46,26.62,456.31,456.31,0,0,1,48.39,37,493.76,493.76,0,0,1,43.33,43.23c8.4,9.39,16,19.5,23.69,29.51,8.2,10.52,15.18,22,22.37,33.22,9.21,14.65,16.91,30.23,24.4,45.81,8.4,17.44,14.88,35.81,20.85,54.17,7.09,21.67,11.85,44,15.29,66.45a399,399,0,0,1,4.45,45.29c0,2.69-.7,5.37.61,8v32.5c-1.31,2.58-.61,5.26-.61,7.94a325.47,325.47,0,0,1-3,35.81c-3.95,28.37-9.62,56.33-19.14,83.36-6.68,19-13.46,37.87-22.67,55.72-7.49,14.45-14.68,29.1-23.69,42.61-7.39,11.15-14.48,22.5-22.78,32.92-7.8,9.7-15.39,19.6-23.79,28.78A468.4,468.4,0,0,1,774,802a446.43,446.43,0,0,1-52.14,37.86c-13,8.15-26.32,15.38-40,22.19a446.15,446.15,0,0,1-92.94,33.63,431.3,431.3,0,0,1-68.74,11c-8.4.62-16.9,1.24-25.31,1.76H469.05c-8.61-.62-17.11-1.14-25.72-1.86a435.07,435.07,0,0,1-61.14-9.29,450,450,0,0,1-91.52-31.16,458.27,458.27,0,0,1-70.16-40.65A438,438,0,0,1,176,789.73a481.4,481.4,0,0,1-46.47-49.22c-8.1-9.7-15.28-20.12-22.57-30.33-9.21-13-17.11-27-24.91-41-7.89-14.14-14.37-29-20.65-43.85C51.35,601.74,44.47,577,38.59,552a397,397,0,0,1-8.8-58.81c-.41-5-.1-9.91-1.32-14.76.41-3.61-.4-7-1-10.52V438.1c1.62-3.2,1.31-6.81,1.52-10.22,1.62-26.82,5.16-53.44,11.84-79.55,6.48-25.48,14-50.55,24.9-74.49C72.41,259.08,79,244.43,87.29,230.5c7.59-12.69,15-25.58,23.79-37.55,7.39-10,14.58-20.23,22.78-29.72,9-10.42,18.12-20.74,27.84-30.44a470.73,470.73,0,0,1,40.9-36.11,464.19,464.19,0,0,1,48.08-33A457.21,457.21,0,0,1,295,40.55a462.87,462.87,0,0,1,70.46-25.17A448.74,448.74,0,0,1,421.57,4.23c12.05-1.65,24.19-2.58,36.34-3.5C460.34.93,463,1.65,465.5.31ZM482,886.61a406.12,406.12,0,0,0,50.21-2.89A427.68,427.68,0,0,0,710.8,821.1a432.55,432.55,0,0,0,44.34-31.78,465,465,0,0,0,47.18-44.78c7.59-8.15,14.47-17,21.46-25.69,8.81-10.84,16.3-22.6,24-34.26,8.2-12.38,15-25.59,21.77-38.79,9.71-18.78,17.21-38.59,23.79-58.71,10.73-32.71,16.8-66.45,19.33-100.81a435.08,435.08,0,0,0-2.22-86.67c-3.75-29.61-9.93-58.71-20.35-86.77-6.89-18.78-14-37.35-23.49-55-7.49-13.83-14.78-27.76-23.69-40.66-7.39-10.62-14.58-21.35-22.68-31.36A447.05,447.05,0,0,0,773.77,136a437.89,437.89,0,0,0-46-36.73,433.63,433.63,0,0,0-114.5-56.44A434,434,0,0,0,426.63,26a427.32,427.32,0,0,0-89.8,21.57,436.14,436.14,0,0,0-69.95,32.29,429.83,429.83,0,0,0-45,29.82,466.11,466.11,0,0,0-46.67,40.76c-7.9,7.84-15.18,16.4-22.57,24.66-8.2,9.18-15.39,19.29-22.68,29.2-8.51,11.45-15.69,23.73-23,36-8.71,14.44-15.69,29.92-22.48,45.29-9.92,22.39-17,45.91-22.77,69.75C53,391.25,49.53,427.88,50.44,464.92c.91,32.81,4.76,65.21,13.36,97,6.38,23.22,13.36,46.23,23.69,68,7.09,15.16,14.07,30.33,23,44.57,7.59,12.07,14.78,24.35,23.59,35.6,7.49,9.59,14.78,19.39,22.78,28.58A430.4,430.4,0,0,0,482,886.61Z"/><path class="cls-3" d="M481.7,713.79H240.26c-6.28,0-5.37.83-5.37-5.67V357.21c0-6.19-.81-5.58,5.57-5.58h483c6.38,0,5.57-.61,5.57,5.58V708.63c0,6,.81,5.26-5.26,5.26Q602.58,713.74,481.7,713.79Zm-40-196.24,10.84-5.37c27.53-13.72,30.16-52.21,7.59-70.47-8.3-6.71-17.82-10.42-28.14-12.38-13.47-2.58-26.83-2-40.3.2a114.66,114.66,0,0,0-31.18,9.7c-4.35,2.07-4.45,2.07-3,6.92,2.43,8.35,4.86,16.81,7.29,25.17.2.62.4,1.14,1,1.34s1.31-.41,1.92-.72a84.22,84.22,0,0,1,21-7.84c7.89-1.86,15.79-2.79,23.89-1.34a26.82,26.82,0,0,1,12.55,5.36c5.16,4.34,7.8,11.76,6,17.23A20.17,20.17,0,0,1,421.87,497,41.18,41.18,0,0,1,406,502.17c-7,1-14.07.72-21.06.72-3.54,0-3.64.11-3.64,3.61v23.22c0,4,0,4,3.94,4.13,7.6.1,15.19-.31,22.78.72,8,1.13,15.19,3.82,21.36,9.49,6.79,6.19,8.2,13.83,6.18,22.39-2.13,8.87-8.81,13.31-16.6,16.3-5.88,2.27-12.05,2.58-18.23,2.38-12.45-.42-24.29-3.72-35.73-8.77-1.82-.83-3.55-1.86-6-2.07-2.73,10.11-5.36,20.23-8.09,30.34-.41,1.65.3,2.37,1.62,3.09a87.23,87.23,0,0,0,9,4.23,121.23,121.23,0,0,0,38.26,7.54c18.63.72,36.55-1.66,53.35-10.63,11.44-6.09,20-15.07,24.81-26.93,5.87-14.45,5.56-29.1-3.24-42.72a45.18,45.18,0,0,0-22.07-18.16A91.39,91.39,0,0,0,441.71,517.55Zm90.81-47.78c.81,2.17.51,3.92.51,5.68V611.33c0,5.89-.41,5.06,5.16,5.06h31.89c5.67,0,5,.72,5-5.16V434.07c-.1-3-.1-3.09-3.14-3.09h-31a10.31,10.31,0,0,0-4.56,1.13c-13.26,6.19-26.63,12.38-39.89,18.58-6.48,3-6.58,3.09-5.06,10,1.82,8.36,3.65,16.82,5.57,25.7C509,481,520.37,474.83,532.52,469.77Z"/><path class="cls-4" d="M480.49,321.92H240.36c-6.48,0-5.57.41-5.57-5.57V199.65c0-5.16-.81-5,4.76-5h47c1.52-.1,2,.72,2,2.17v73.67c.11,3.81.11,3.81,3.85,3.81H401.32c3.75,0,3.85-.1,3.85-4.23V199.45c0-5.06-.61-4.85,4.55-4.85H547.4c4.16,0,4.26,0,4.26,4.23V269.5c0,5-.71,4.85,4.55,4.85H666.05c1.42.11,2.13-.51,2-2.06V196.76c-.1-1.44.5-2.16,1.92-2.16h54.57c1.21,0,1.72.72,1.72,2v120.2a15.71,15.71,0,0,0,0,2.17c.2,2-.51,3.09-2.63,2.89-1.32-.11-2.54,0-3.85,0Q600.16,322,480.49,321.92Z"/><path class="cls-4" d="M631.63,194.6v36.83c0,3.92,0,4-3.64,4H591c-3.34,0-3.45-.11-3.45-3.31v-74.9c0-3,.11-3.1,3.14-3.1h37.46c3.44,0,3.44.1,3.44,3.72Z"/><path class="cls-4" d="M369,198.11v36.83c0,3.92,0,3.92-3.65,3.92H328.43c-3.34,0-3.34-.1-3.34-3.3v-74.5c0-3.5.1-3.5,3.65-3.5h36.14c4.25,0,4.25,0,4.25,4.23C369,173.86,369,186,369,198.11Z"/></g></g></svg>