<svg id="Controller" xmlns="http://www.w3.org/2000/svg" viewBox="0 0 907.99 1015.12"><defs><style>.cls-1{fill:#5bb951;}.cls-2{fill:#fff;}</style></defs><path class="cls-1" d="M928.22,443.52C923.75,192.84,717-6.71,466.27-2.16S15.94,209.27,20.38,460,231.65,910.2,482.31,905.66,932.67,694.22,928.22,443.52ZM481.86,878.14C245.41,882.42,50.33,695.08,46.17,459.7S230.28,30.08,466.74,25.8,898.27,208.87,902.46,444.23,718.32,873.85,481.86,878.14Z" transform="translate(-20.31 2.23)"/><path class="cls-1" d="M294.18,342.53c-.15-1.39-.29-2.19-.29-3,0-29.11-.29-58.23.21-87.34.53-31.91,30.5-57.88,65.83-57.88H587.59c39.83,0,68.84,26.19,68.83,62.18V679c0,13,.68,26-.77,38.82-3.41,29.9-31.44,52.49-64.58,52.57-56.19.17-112.36,0-168.6,0-20,0-40,.15-60,.11-40,0-68.59-25.95-68.59-62.27q0-99.46.11-198.93c0-6-.18-12,0-17.94,0-1.3.8-3.33,1.83-3.73,9.58-3.75,19.3-7.22,29.83-11.09v124.9c0,11,.49,22-.08,33-1,20,16.09,34.47,37.73,34.28,54.66-.48,109.32-.18,164-.18h60c23,0,37.38-13.09,37.38-34V287.31c0-16.39-11.19-29.45-28.16-32-6.91-1.05-14.11-.74-21.19-.76q-67.89,0-135.8.1c-26.94,0-53.87-.08-80.83.18-17.58.17-32.57,13.79-32.91,29.78-.32,14.06-.22,28.15,0,42.21,0,3.16-1.14,4.69-4.36,5.79C312.41,335.66,303.64,339.05,294.18,342.53ZM475.25,750.74c18.47,0,33.61-13.62,33.52-30.19s-15-30.32-33.35-30.34c-18.8,0-33.76,13.47-33.69,30.41C441.8,737.32,456.73,750.74,475.25,750.74Zm-.07-519.82h52.17c4.39,0,6.81-2,6.93-5.18.08-3.47-2.38-5.51-6.92-5.74H425.8a25.14,25.14,0,0,0-5.05.34c-3.07.63-4.79,2.45-4.65,5.38s2,4.64,5.1,5.08a39.12,39.12,0,0,0,5.52.15Z" transform="translate(-20.31 2.23)"/><path class="cls-1" d="M271.14,721.67c-7.48-6.92-14.89-13.89-22.44-20.73q-42.25-38.28-84.54-76.48c-10.22-9.23-15.49-20.08-14.76-33.39,1.38-26,2.39-52,3.41-78.06.89-21.42,2-42.84,2.38-64.28.4-23.6,13.55-39.31,36.63-48.06,45.8-17.38,91.93-34.05,138-50.88,11-4,21.95-8.31,33.42-10.62,16.65-3.32,33.66-1.36,45.45,10.43,14.41,14.44,23.39,31.78,16,52-5.56,15.21-18.16,24.89-34.26,30.85q-55.73,20.64-111.67,40.86c-5.1,1.83-6.9,4-6.86,8.92.25,55.61.25,111.16.3,166.74v72.1ZM249.8,593.14c.23.24.49.45.72.69a26.4,26.4,0,0,0,3.19-2.69c6.51-7.47,8.56-15.82,5.85-25-3.76-12.9-15-21.27-29.81-22.4-13.62-1.05-27.85,6.29-33.6,17.34-5.17,10-2.79,24,5.68,31.4a30.51,30.51,0,0,0,32.91,4.37c12.08-5.47,17.25-17.46,11.35-28.37-3.32-6.09-8.68-10.38-16.48-10.55-7.41-.15-13.42,2.76-17,8.9a11.83,11.83,0,0,0,.42,13.51c2.76,4.07,7.08,5.67,12.16,5.49,4.54-.1,9.56-4.54,8.86-7.94-.28-1.31-2.05-2.35-3.14-3.52-1,1.13-2.66,2.27-2.74,3.4-.16,2.27-.34,4.78-3.19,4.61a8.71,8.71,0,0,1-6-3.23c-3.3-5.27-1-11.09,4.54-13.37,6.3-2.56,13.95.07,16.73,5.67,4.72,9.59-2,20.13-13.62,21.37-17.77,2-27.24-12.48-23.35-26.1,3.14-11.12,13.91-16.67,27.79-15.39,16.3,1.51,27,14.86,23.17,29.18C253.16,584.79,251.32,588.94,249.8,593.14Z" transform="translate(-20.31 2.23)"/><path class="cls-1" d="M680.62,616.18V408.28c17.41-.1,37.34,13.53,42.67,29.37a157.3,157.3,0,0,1,5.3,19.44c3.56,17.46-5,30.78-18.49,42.2-1.32,1.13-2.69,2.19-4.17,3.4,5.88,1.79,11.54,3.12,16.82,5.22,12.26,4.88,21.72,16.3,23,17.88,2.86,3.66,5.49,7,7.23,12.29,1.37,4.2,1.6,7.81,2,13.83a68.85,68.85,0,0,1,0,11.84c-.46,5-1,10.16-3.9,15.81-2,3.77-4.12,6-7.82,9.88a70.47,70.47,0,0,1-11.73,9.86,65.63,65.63,0,0,1-14.75,7.07A263.49,263.49,0,0,1,680.62,616.18Z" transform="translate(-20.31 2.23)"/><path class="cls-1" d="M477.71,129.92A96.18,96.18,0,0,1,538,151.48a24.28,24.28,0,0,1,5.68,6c2.91,4.9,1.13,10.84-3.8,14.15a13.5,13.5,0,0,1-15.74-.64c-6.86-5.67-14.2-10.71-23-13.62q-38.42-12.81-69.78,11.14a40.57,40.57,0,0,1-5.35,3.95,13.27,13.27,0,0,1-16.09-3.13c-4-4.69-3.52-10.66,1.41-15.11a89.86,89.86,0,0,1,27.63-17.12A102.77,102.77,0,0,1,477.71,129.92Z" transform="translate(-20.31 2.23)"/><path class="cls-1" d="M398,559.36a62,62,0,0,1,10.35-34.2c2.86-4.41,5.06-4.83,9.68-2.14,6.2,3.62,12.37,7.27,18.64,10.79,3.4,1.93,4,4.25,2,7.38-7.66,12-7.52,24.11-.08,36.13,2.12,3.4,1.25,5.67-2.27,7.64-6.26,3.53-12.39,7.25-18.65,10.81-4.54,2.6-6.48,2.12-9.34-2.21A61.16,61.16,0,0,1,398,559.36Z" transform="translate(-20.31 2.23)"/><path class="cls-1" d="M472.67,488.72c16.9.08,29.23,2.94,40.64,9.08,5.46,2.94,6,4.54,2.74,9.25-4,5.67-8.07,11.19-12,16.84-2.08,3-4.61,3.41-7.82,1.69-13.62-7.07-27.24-6.81-40.73.21-2.92,1.52-5.42.84-7.18-1.6q-6.81-9.44-13.34-19c-1.94-2.86-.49-5,2.4-6.59C449.33,491.9,462.38,488.79,472.67,488.72Z" transform="translate(-20.31 2.23)"/><path class="cls-1" d="M680.71,321.43c7.72,5.06,13.39,11,15.89,18.81a177.23,177.23,0,0,1,6.48,25.13c2.27,13.7-8.68,32.74-22.43,39.91Z" transform="translate(-20.31 2.23)"/><path class="cls-1" d="M573.29,384.46c-.21,10.71-9.08,18.26-21.23,18.16-11-.11-20.12-9-19.78-19.29.33-9.81,10.21-18.16,21-17.86C564.77,365.84,573.51,374.12,573.29,384.46Z" transform="translate(-20.31 2.23)"/><path class="cls-1" d="M476.25,402.7c-11.24.09-20.65-8.31-20.7-18.48s8.92-18.52,20.43-18.75c10.84-.21,20.56,8.26,20.74,18.08C496.89,394,487.75,402.6,476.25,402.7Z" transform="translate(-20.31 2.23)"/><path class="cls-1" d="M573.41,446.7c-.07,10.22-9.3,18.46-20.68,18.48-10.84,0-20.59-8.75-20.43-18.36.17-10.7,9.19-18.89,20.77-18.82C564.45,428.05,573.48,436.36,573.41,446.7Z" transform="translate(-20.31 2.23)"/><path class="cls-1" d="M496.66,447c-.08,9.37-9.79,18.16-20.21,18.16-11.55,0-20.93-8.37-20.89-18.74S464.81,428,476.19,428,496.75,436.44,496.66,447Z" transform="translate(-20.31 2.23)"/><path class="cls-1" d="M414.76,329.61a81.39,81.39,0,0,0-35.18-10.31c.26-6.16,5-11.76,11.55-13.89,7.81-2.55,16.23-.68,21.38,4.79S418.69,322.69,414.76,329.61Z" transform="translate(-20.31 2.23)"/><path class="cls-1" d="M382.5,456.15l33.67-13.95c3.1,7.06-1.14,16.17-9.51,19.89C397.79,466,387.21,463.45,382.5,456.15Z" transform="translate(-20.31 2.23)"/><path class="cls-1" d="M249.8,593.14c1.52-4.2,3.41-8.35,4.54-12.62,3.82-14.33-6.9-27.65-23.18-29.18-13.89-1.29-24.66,4.25-27.79,15.39-3.85,13.62,5.6,28,23.35,26.1,11.53-1.27,18.29-11.78,13.62-21.37-2.78-5.68-10.44-8.26-16.74-5.68-5.61,2.27-7.89,8.1-4.54,13.37a8.82,8.82,0,0,0,6.05,3.24c2.84.17,3-2.27,3.17-4.61.08-1.13,1.79-2.27,2.75-3.4,1.14,1.13,2.86,2.27,3.13,3.51.71,3.51-4.29,7.87-8.84,8-5.09.12-9.41-1.42-12.18-5.49a11.83,11.83,0,0,1-.42-13.51c3.62-6.14,9.64-9.08,17-8.9,7.82.17,13.16,4.46,16.48,10.55,5.92,10.87.74,22.86-11.35,28.37a30.49,30.49,0,0,1-33-4.47C193.38,584.93,191,571,196.18,561c5.75-11,20-18.37,33.6-17.34,14.84,1.14,26,9.55,29.82,22.45,2.69,9.23.64,17.58-5.87,25a28.26,28.26,0,0,1-3.18,2.69C250.29,593.62,250,593.35,249.8,593.14Z" transform="translate(-20.31 2.23)"/><path class="cls-1" d="M478.69,83.16c32.71.26,63.56,7.78,89.78,22.82a31.51,31.51,0,0,1,8.39,6.34c4.33,5.19,1.64,11.48-5.68,15-6.81,3.28-16.84,3.2-23.45-.69-10.21-6-21.16-11.35-34.26-14.47q-57.25-13.62-104,11.79a62.65,62.65,0,0,1-7.94,4.19c-8.11,3-18.3,1.49-24-3.31-5.91-5-5.24-11.35,2.09-16a150.81,150.81,0,0,1,41.19-18.16C438.49,85.71,457,83.16,478.69,83.16Z" transform="translate(-20.31 2.23)"/><path class="cls-1" d="M553.3,559.46a62.27,62.27,0,0,0-10.36-34.19c-2.86-4.42-5.06-4.85-9.68-2.15-6.19,3.62-12.38,7.28-18.64,10.79-3.41,1.93-4,4.25-2,7.38,7.65,12,7.51,24.11.07,36.13-2.12,3.4-1.24,5.67,2.27,7.65,6.27,3.53,12.4,7.24,18.64,10.8,4.54,2.59,6.49,2.12,9.35-2.27A61.37,61.37,0,0,0,553.3,559.46Z" transform="translate(-20.31 2.23)"/><path class="cls-1" d="M473.28,630.84c16.9-.09,29.25-3,40.65-9.08,5.46-2.94,6-4.54,2.73-9.25-4-5.67-8.07-11.19-12-16.84-2.08-3-4.6-3.41-7.82-1.69-13.62,7.08-27.24,6.81-40.71-.2-2.94-1.53-5.43-.85-7.19,1.59q-6.81,9.43-13.33,19c-1.94,2.86-.5,5,2.39,6.59C450,627.67,463,630.77,473.28,630.84Z" transform="translate(-20.31 2.23)"/><path class="cls-1" d="M496.13,322.37c-.22,10.71-9.08,18.26-21.24,18.16-11-.12-20.11-9-19.78-19.3.34-9.82,10.21-18.16,21-17.85C487.63,303.68,496.34,312,496.13,322.37Z" transform="translate(-20.31 2.23)"/><path class="cls-1" d="M496.13,560c-.22,10.71-9.08,18.25-21.24,18.16-11-.11-20.11-9-19.78-19.29.34-9.82,10.21-18.16,21-17.86C487.63,541.34,496.34,549.61,496.13,560Z" transform="translate(-20.31 2.23)"/><path class="cls-1" d="M573.29,322.37c-.21,10.71-9.08,18.26-21.23,18.16-11-.12-20.12-9-19.78-19.3.33-9.82,10.21-18.16,21-17.85C564.78,303.68,573.51,312,573.29,322.37Z" transform="translate(-20.31 2.23)"/><path class="cls-2" d="M33.62,967.84c1.84-15.52,25.28-18.32,36.32-9.84,5.44,4.4-.32,11.36-5.12,7.84-5.92-3.76-19.36-5.52-21,2.8-2.16,13.12,32.64,5.6,32.08,26.88-.56,20.32-30,20.8-41,11.68a5.92,5.92,0,0,1-1.12-7.84c2.08-2.08,4.4-2.8,7.12-.56,6.56,4.48,23.44,7.84,24.64-3.52C64.42,983.44,31.14,990.56,33.62,967.84Z" transform="translate(-20.31 2.23)"/><path class="cls-2" d="M83.06,983.12c0-15.44,9.68-28.72,28.08-28.72,7,0,12.48,2.08,18.32,7.12a5.19,5.19,0,1,1-7.12,7.52c-3.28-3.44-6.64-4.4-11.2-4.4-12.32,0-18.24,8.72-18.24,18.48,0,9.92,5.84,19,18.24,19A18.63,18.63,0,0,0,123.62,997a5.39,5.39,0,0,1,7.36,1c1.28,1.76,1.92,4.72-.88,7.53-5.6,5.19-12.32,6.23-19,6.23C91.78,1011.76,83.06,998.56,83.06,983.12Z" transform="translate(-20.31 2.23)"/><path class="cls-2" d="M152,1006c0,7-10.64,7.2-10.64.16V960.72a4.78,4.78,0,0,1,4.8-4.88h21.28c20.32,0,24.48,27.2,7.52,34l10.64,13c4.16,6.16-4.16,12.08-9,6l-12.08-17.28H152Zm0-23.68h15.44c10.4,0,11-16.8,0-16.8H152Z" transform="translate(-20.31 2.23)"/><path class="cls-2" d="M200.34,1011.2a4.88,4.88,0,0,1-5-5V960.8a4.84,4.84,0,0,1,5-5h28.72c7.36,0,7.2,10.4,0,10.4H206v12h20.16c7.12,0,7.12,10.48,0,10.48H206v12h24.4c7.28,0,7.84,10.48,0,10.48Z" transform="translate(-20.31 2.23)"/><path class="cls-2" d="M249.54,1011.2a4.88,4.88,0,0,1-5-5V960.8a4.84,4.84,0,0,1,5-5h28.72c7.36,0,7.2,10.4,0,10.4h-23v12h20.16c7.12,0,7.12,10.48,0,10.48H255.22v12h24.4c7.28,0,7.84,10.48,0,10.48Z" transform="translate(-20.31 2.23)"/><path class="cls-2" d="M293.94,961.44c0-2.88.64-5.68,4.8-5.68,2.88,0,3.52.72,5.68,2.8l26.48,33.12v-31c0-2.64,2.32-5.52,5-5.52a6.09,6.09,0,0,1,5.68,5.52v45c0,3.52-2.16,4.89-4.24,5.52-2.8,0-4.16-.63-6.48-2.8l-26.48-33.6v30.88c0,3.52-2.16,5.52-5,5.52a5.27,5.27,0,0,1-5.44-5.52Z" transform="translate(-20.31 2.23)"/><path class="cls-2" d="M374.09,983.12c0-15.44,9.68-28.72,28.08-28.72,7,0,12.49,2.08,18.33,7.12a5.19,5.19,0,1,1-7.12,7.52c-3.29-3.44-6.64-4.4-11.21-4.4-12.32,0-18.24,8.72-18.24,18.48,0,9.92,5.84,19,18.24,19A18.65,18.65,0,0,0,414.66,997a5.39,5.39,0,0,1,7.36,1c1.28,1.76,1.92,4.72-.88,7.53-5.6,5.19-12.32,6.23-19,6.23C382.82,1011.76,374.09,998.56,374.09,983.12Z" transform="translate(-20.31 2.23)"/><path class="cls-2" d="M460.57,1012c-14.8.65-30.16-9.2-30.16-28.8s15.36-29.36,30.16-29.36c14,.72,28.64,10.4,28.64,29.36S474.57,1012,460.57,1012Zm-.88-47.76c-9,0-18.72,6.32-18.72,19s9.76,19,18.72,19c9.2,0,19-6.4,19-19S468.89,964.24,459.69,964.24Z" transform="translate(-20.31 2.23)"/><path class="cls-2" d="M499.05,961.44c0-2.88.64-5.68,4.8-5.68,2.88,0,3.52.72,5.68,2.8L536,991.68v-31c0-2.64,2.32-5.52,5-5.52a6.09,6.09,0,0,1,5.68,5.52v45c0,3.52-2.16,4.89-4.24,5.52-2.8,0-4.16-.63-6.48-2.8l-26.48-33.6v30.88c0,3.52-2.16,5.52-5,5.52a5.27,5.27,0,0,1-5.44-5.52Z" transform="translate(-20.31 2.23)"/><path class="cls-2" d="M572.89,965.84h-14c-7,0-7-10.24,0-10.24h37.84a5.12,5.12,0,1,1,0,10.24H583.45v40.4c0,7-10.56,7.12-10.56,0Z" transform="translate(-20.31 2.23)"/><path class="cls-2" d="M620.33,1006c0,7-10.64,7.2-10.64.16V960.72a4.78,4.78,0,0,1,4.8-4.88h21.28c20.32,0,24.48,27.2,7.52,34l10.64,13c4.16,6.16-4.16,12.08-9,6l-12.08-17.28H620.33Zm0-23.68h15.44c10.4,0,11-16.8,0-16.8H620.33Z" transform="translate(-20.31 2.23)"/><path class="cls-2" d="M691.93,1012c-14.8.65-30.16-9.2-30.16-28.8s15.36-29.36,30.16-29.36c14,.72,28.64,10.4,28.64,29.36S705.93,1012,691.93,1012Zm-.88-47.76c-9,0-18.72,6.32-18.72,19s9.76,19,18.72,19c9.2,0,19-6.4,19-19S700.25,964.24,691.05,964.24Z" transform="translate(-20.31 2.23)"/><path class="cls-2" d="M730.33,960.64a5,5,0,0,1,5-4.88,4.87,4.87,0,0,1,4.72,4.88v40.08h21.76c7.84,0,8,10.48,0,10.48H735.37a4.84,4.84,0,0,1-5-4.88Z" transform="translate(-20.31 2.23)"/><path class="cls-2" d="M776,960.64a5,5,0,0,1,5-4.88,4.87,4.87,0,0,1,4.72,4.88v40.08h21.76c7.84,0,8,10.48,0,10.48H781.05a4.84,4.84,0,0,1-5-4.88Z" transform="translate(-20.31 2.23)"/><path class="cls-2" d="M826.57,1011.2a4.88,4.88,0,0,1-5-5V960.8a4.84,4.84,0,0,1,5-5h28.72c7.36,0,7.2,10.4,0,10.4h-23v12h20.16c7.12,0,7.12,10.48,0,10.48H832.25v12h24.4c7.28,0,7.84,10.48,0,10.48Z" transform="translate(-20.31 2.23)"/><path class="cls-2" d="M881.53,1006c0,7-10.64,7.2-10.64.16V960.72a4.78,4.78,0,0,1,4.8-4.88H897c20.32,0,24.48,27.2,7.52,34l10.64,13c4.16,6.16-4.16,12.08-9,6l-12.08-17.28H881.53Zm0-23.68H897c10.4,0,11-16.8,0-16.8H881.53Z" transform="translate(-20.31 2.23)"/></svg>