<svg id="Layer_9" data-name="Layer 9" xmlns="http://www.w3.org/2000/svg" viewBox="0 0 1080 215.83"><defs><style>.cls-1{fill:#fff;}.cls-2{fill:#efd038;}.cls-3{fill:#5bb951;}.cls-4{fill:#0b152d;}.cls-5{fill:#0c162e;}.cls-6{fill:#5e86c5;}.cls-7{fill:#0c162f;}.cls-8{fill:#648bc8;}.cls-9{fill:#426eba;}.cls-10{fill:#688ec9;}.cls-11{fill:#cfe6f0;}.cls-12{fill:#aac7e3;}.cls-13{fill:#b6d1e7;}.cls-14{fill:#89aad5;}.cls-15{fill:#b1cde6;}.cls-16{fill:#c1dbec;}.cls-17{fill:#b0cce5;}.cls-18{fill:#4670ba;}.cls-19{fill:#bfd9eb;}.cls-20{fill:#4068af;}.cls-21{fill:#9bbadc;}.cls-22{fill:#c7e0ee;}.cls-23{fill:#a5c3e1;}.cls-24{fill:#121f3a;}.cls-25{fill:#8aabd5;}.cls-26{fill:#5881c4;}.cls-27{fill:#5c84c5;}.cls-28{fill:#547dc1;}.cls-29{fill:#93b3d9;}.cls-30{fill:#b3cde1;}.cls-31{fill:#a0bedf;}.cls-32{fill:#98b8dc;}.cls-33{fill:#94b4da;}.cls-34{fill:#16223c;}.cls-35{fill:#cce4f0;}.cls-36{fill:#8fb0d8;}.cls-37{fill:#4f78bd;}.cls-38{fill:#26324b;}.cls-39{fill:#9ab9dd;}.cls-40{fill:#a7c3df;}.cls-41{fill:#4a72b8;}.cls-42{fill:#405a88;}.cls-43{fill:#82a4d3;}.cls-44{fill:#4f73b0;}.cls-45{fill:#5f6e7f;}.cls-46{fill:#1b2844;}.cls-47{fill:#414a5c;}.cls-48{fill:#1b2b4b;}.cls-49{fill:#2b3c5c;}.cls-50{fill:#7398ce;}.cls-51{fill:#5f6c7f;}.cls-52{fill:#abc6dd;}.cls-53{fill:#6b91ca;}.cls-54{fill:#20365f;}.cls-55{fill:#333f5a;}.cls-56{fill:#4b5567;}.cls-57{fill:#cfe6ee;}.cls-58{fill:#2c394f;}.cls-59{fill:#374357;}.cls-60{fill:#becdd3;}.cls-61{fill:#426ab0;}.cls-62{fill:#a0bede;}.cls-63{fill:#7498cc;}.cls-64{fill:#bad5e9;}.cls-65{fill:#6f95cc;}.cls-66{fill:#8daed7;}.cls-67{fill:#6d93cc;}.cls-68{fill:#95b4d8;}.cls-69{fill:#7492bb;}.cls-70{fill:#87a5cb;}.cls-71{fill:#9cbbdd;}.cls-72{fill:#8da8c7;}.cls-73{fill:#1b2843;}.cls-74{fill:#19263f;}.cls-75{fill:#5b7396;}.cls-76{fill:#1f2b43;}.cls-77{fill:#6785b2;}.cls-78{fill:#97b1cc;}.cls-79{fill:#97b0c9;}.cls-80{fill:#7c97b9;}.cls-81{fill:#7f9bbf;}.cls-82{fill:#3e4d63;}.cls-83{fill:#768ba3;}.cls-84{fill:#758daa;}.cls-85{fill:#778fab;}.cls-86{fill:#637c9e;}.cls-87{fill:#7f98b5;}.cls-88{fill:#37455c;}.cls-89{fill:#83a5d3;}.cls-90{fill:#a0bad3;}.cls-91{fill:#69809b;}.cls-92{fill:#4a6287;}.cls-93{fill:#131e35;}.cls-94{fill:#97b3d1;}.cls-95{fill:#152038;}.cls-96{fill:#1c2841;}.cls-97{fill:#4f6586;}.cls-98{fill:#324057;}.cls-99{fill:#3b4c67;}.cls-100{fill:#7d94b0;}.cls-101{fill:#25324b;}.cls-102{fill:#19253e;}.cls-103{fill:#7f9cbe;}.cls-104{fill:#85a2c5;}.cls-105{fill:#5f6d7c;}.cls-106{fill:#495971;}.cls-107{fill:#17233b;}.cls-108{fill:#596e8a;}.cls-109{fill:#7094ca;}.cls-110{fill:#8299b2;}.cls-111{fill:#8dacd2;}.cls-112{fill:#92acc7;}.cls-113{fill:#7da0d2;}.cls-114{fill:#789cd0;}.cls-115{fill:#7c97ba;}.cls-116{fill:#222e45;}.cls-117{fill:#90b0d6;}.cls-118{fill:#4f5f75;}.cls-119{fill:#48586e;}.cls-120{fill:#667d9b;}.cls-121{fill:#819ab8;}.cls-122{fill:#97b1ca;}.cls-123{fill:#a6c2db;}.cls-124{fill:#45556c;}.cls-125{fill:#acc8e2;}.cls-126{fill:#617a9c;}.cls-127{fill:#87a6cc;}.cls-128{fill:#4d77be;}.cls-129{fill:#5a83c4;}.cls-130{fill:#557dc1;}.cls-131{fill:#4671bb;}.cls-132{fill:#1a2d53;}.cls-133{fill:#7196cc;}.cls-134{fill:#7fa2d2;}.cls-135{fill:#7294c4;}.cls-136{fill:#5678ae;}.cls-137{fill:#2c3c5a;}.cls-138{fill:#22304c;}.cls-139{fill:#3f5a87;}.cls-140{fill:#142341;}.cls-141{fill:#203864;}.cls-142{fill:#192c52;}.cls-143{fill:#274376;}.cls-144{fill:#31528d;}.cls-145{fill:#2e4f88;}.cls-146{fill:#16274a;}.cls-147{fill:#1c3057;}.cls-148{fill:#284377;}.cls-149{fill:#1e3560;}.cls-150{fill:#505e70;}.cls-151{fill:#c6dce5;}.cls-152{fill:#33425c;}.cls-153{fill:#647993;}.cls-154{fill:#a2beda;}.cls-155{fill:#212e46;}.cls-156{fill:#3f629d;}.cls-157{fill:#4365a1;}.cls-158{fill:#18294a;}.cls-159{fill:#1c2942;}.cls-160{fill:#2d3c58;}.cls-161{fill:#283347;}.cls-162{fill:#0c172f;}.cls-163{fill:#546883;}.cls-164{fill:#657993;}.cls-165{fill:#2c3e5e;}.cls-166{fill:#0e1932;}.cls-167{fill:#7598c9;}.cls-168{fill:#233048;}.cls-169{fill:#384860;}.cls-170{fill:#3d506e;}.cls-171{fill:#4c6283;}.cls-172{fill:#738cad;}.cls-173{fill:#111c35;}.cls-174{fill:#4b5d77;}.cls-175{fill:#121d35;}.cls-176{fill:#1b263e;}</style></defs><rect class="cls-1" y="141.57" width="1080" height="23.04"/><rect class="cls-2" width="1080" height="141.12"/><circle class="cls-1" cx="952.93" cy="117.12" r="98.7"/><ellipse class="cls-1" cx="953.73" cy="117.4" rx="83.83" ry="84.2"/><path class="cls-3" d="M952.23,29.6a85.94,85.94,0,1,0,85.94,85.94A85.94,85.94,0,0,0,952.23,29.6Zm0,166.76a80.83,80.83,0,1,1,80.82-80.82A80.82,80.82,0,0,1,952.23,196.36Z" transform="translate(0.14 1.2)"/><ellipse class="cls-1" cx="952.99" cy="116.3" rx="56.49" ry="56.74"/><path class="cls-1" d="M953.31,56.53a58.12,58.12,0,1,0,57.86,58.11A58,58,0,0,0,953.31,56.53Zm-.75,112.74a53.63,53.63,0,0,1-53.82-53c-.22-30,23.45-54.49,53-54.69s54,23.63,54.32,53A53.77,53.77,0,0,1,952.56,169.27Z" transform="translate(0.14 1.2)"/><path class="cls-1" d="M999.44,125.57l.08-.19a3,3,0,0,0-.78.18v1.49q.33.51.63,1a7,7,0,0,0,.21.69,3.45,3.45,0,0,1,.28.54s-.16.14-.25.22c-.32,1.11-.64,2.23-1,3.34-.23.3-.47.58-.7.87l-5.86,10.56c-.53.56-1.07,1.13-1.6,1.71L988,149.21c-.54.55-1.09,1.09-1.64,1.63l-3.21,2.58-3.26,2.43,0,0-.86.82-1.6.9L974.92,159l-3.26,1.61-2.44.91c-.83.27-1.65.54-2.47.83l-2.45.73-.82.1-4.11.81-5.74.65-8.21-.57-4.26-.86-.32,0-.29-.15-2.6-.74-2.46-.82-2.28-.88-1.74-.78-1.63-.82-4.17-2.43L923.3,155l-5.61-4.89c-7.14-6.41-11.27-14.48-13.16-23.8l-.08-.86c-.22-.82-.44-1.64-.65-2.47a.52.52,0,0,1-.07-.71c-.06-.29-.12-.58-.17-.87,0-4.05,0-8.12,0-12.16q2.17-7.48,4.34-14.95c.12-.25.23-.51.35-.77l1.1-1.78a.67.67,0,0,1,.27-.67l.6-.9L916,82.47l1.74-1.94,1.5-1.13c.27-.26.53-.51.79-.78l.84-.82,1.79-1.37a.48.48,0,0,1,.52-.26l.94-.8.93-.72h0l.82-.62a.58.58,0,0,1,.62-.31l2.64-1.53,9.74-3.45.87-.63,4-.91,10-.74h2.46l5.74.81c3,.84,6,1.66,9,2.49l1.67.5,1.61,1.1a5,5,0,0,0,.66.11l1,.5c.23.09.47.18.71.29l1.72,1.47c16.11,10.36,23.72,25.19,23.24,44.27,0,1.91-.26,3.81-.41,5.71C1000.51,124.34,1000,125,999.44,125.57Z" transform="translate(0.14 1.2)"/><path class="cls-2" d="M952.43,48.27a67.27,67.27,0,1,0,66.94,67.22A67.22,67.22,0,0,0,952.43,48.27Zm-53.69,68c-.22-30,23.45-54.49,53-54.69s54,23.63,54.32,53a53.65,53.65,0,1,1-107.29,1.67Z" transform="translate(0.14 1.2)"/><path class="cls-2" d="M952.43,48.27a67.27,67.27,0,1,0,66.94,67.22A67.22,67.22,0,0,0,952.43,48.27Zm.13,121a53.63,53.63,0,0,1-53.82-53c-.22-30,23.45-54.49,53-54.69s54,23.63,54.32,53A53.77,53.77,0,0,1,952.56,169.27Z" transform="translate(0.14 1.2)"/><path class="cls-4" d="M978.21,73.73q-1.28,2.86-2.53,5.73c-.24,1.66-.48,3.32-.71,5a2.77,2.77,0,0,1,.69.16c.27.52.54,1.05.82,1.57a1.94,1.94,0,0,1,0,.72l-1.7-1.58-5.67.77-2.29.18-.92.68-.89.8-3.35,1.66-.27-1.24,1.25.29c.28-.51.55-1,.82-1.53l-4.12-2.38c-1.11,0-2.22-.06-3.32-.09l-1.54.91-.85.76c-.22.6-.43,1.21-.65,1.81l-1,2.27c-.24.29-.48.58-.73.86l0,0h0c-.54.53-1.08,1.07-1.61,1.61,0,.78,0,1.56,0,2.35l1.52.92,2.44,1.74c.29,0,.56-.06.84-.1a2.55,2.55,0,0,1,.71-.38.29.29,0,0,1,.06-.45l.09-.81c.07-.3.14-.58.21-.87-.06-.54-.11-1.09-.17-1.64l.72-1.65,1.16-3.35v5.67a.43.43,0,0,1,.48.28c0,.26,0,.51,0,.78h0L957,96.94l-1.69,1.57-.54-.22-.19-.07-.35-.14-2.87-1.15-1,2.31h0l-1,1.39c-.57.6-1.15,1.18-1.73,1.78s-1,1.17-1.48,1.75v0c1.69,4-1.78,1.84-2.94,2.45l-.22.19,1.52,4.76,2.44-1,2.51-4,4.25-1.52c.55.47,1.11.92,1.67,1.39l2,2.69c.12.41.24.83.35,1.24l1.54.32h0c.05-.29.09-.58.14-.86s.05-.75.06-1.13l.61.33.84,1.64.87.79,3.7.69c-.19.62-.34,1.73-.58,1.75a45.62,45.62,0,0,1-4.82,0c-2.22,0-4.61,1.62-6.58-.71-1.57-3.25-4.18-1.8-6.55-1.44l-2.51.49-1.34,1c-.33.54-.64,1.1-1,1.66,0,0,0,0,0,0l0-.05-1,1.54-.91.83-1.55,2.5q.85,4.09,1.69,8.18l1.58,1.67c.32.25.65.49,1,.73H947l1.7-.64,1.64.7c.6.24,1.2.5,1.81.76.44,1.44.95,2.88,1.34,4.34.33,1.28,1.06,2.75.71,3.84-1.49,4.49,1.31,8,2.37,11.9.06.21.72.26,1.11.39l2.46-.63.73-.41,2.51-3.09c.55-.82,1.09-1.66,1.64-2.48l2.2-3.23c.34-.87.68-1.74,1-2.62l-.11-.18.11-.17-.09-3.66,0,0,1.06-1.46,0,0c.25-.28.5-.58.76-.86l.84-.77,3.25-4.14h-.05l-3.37-2.15,2.67-1,3.21-1.81,1.57-1.78-.66-2.41-4.09-1.55a1,1,0,0,1-.27-.75c-.06-.25-.12-.51-.19-.76l1.2.73,3.27,1.75c2.2.16,4.93-1.07,5.92,2.26a13.2,13.2,0,0,1,2,2.17c1.11,1.94,2.06,4,3.08,6l1.2-.17c-.08-.41-.15-.83-.22-1.23-1.39-2.3-.31-3.83,1.58-5.11L992,121c0-.26.08-.39.33-.4,2.9-1.75,2.68.79,3.23,2.28.44.1.91.18,1.35.26l2.6,2.29-.08.19c.54-.62,1.07-1.23,1.6-1.86.15-1.9.37-3.8.41-5.71C1001.93,98.92,994.32,84.09,978.21,73.73Zm-15.54,62.6c-.17-.11-.23-.38-.34-.59.21-.06.47-.23.62-.16s.22.39.32.6C963.06,136.24,962.79,136.41,962.67,136.33Zm-2-42.93,1.12-.7,1.24-.3-1.18,1.12Zm4.6,14.26c-1.23,0-2.46-.17-3.69-.27a26.53,26.53,0,0,1,.83-2.52c0-.08.65.08,1,.13l2.61.68,1.56,1.68A15.35,15.35,0,0,1,965.31,107.66ZM964.69,133a2.39,2.39,0,0,0,.21.26,2.73,2.73,0,0,0-.25.23c-.07-.09-.2-.18-.19-.26S964.61,133.08,964.69,133Zm.42,6.59a3.67,3.67,0,0,1-.61-.21c.16-.18.31-.37.47-.56a2.87,2.87,0,0,1,.37.49C965.36,139.36,965.18,139.6,965.11,139.59Zm4.13-14.82c-.56-.86-1.14-1.72-1.7-2.57-.49-1.1-1-2.2-1.49-3.31-.11-.26-.24-.52-.36-.79s-.13-.81-.19-1.21l1.2,1.21a2.92,2.92,0,0,1,.28.71l1.43,2.51c.6.94,1.2,1.86,1.79,2.79Zm4.16-14c-.58-1.09-1.09-2.23-1.6-3.35l-.45-.69c-.15-.31-.28-.62-.43-.93,0-.26.05-.52.07-.77l.64-.92,1.29-.31c-.09.42-.18.84-.26,1.26s0,1,0,1.48c.2.16.5.29.59.5.43,1.11.83,2.24,1.17,3.38A4.56,4.56,0,0,1,973.4,110.74Zm3.12-5q-.33-.36-.69-.72l1.15-.44C976.83,105,976.68,105.35,976.52,105.74Zm3.32-28c-.11,0-.2-.14-.29-.22l.62,0C980.06,77.6,979.94,77.71,979.84,77.7Zm3.44,26.87a.68.68,0,0,1-.63-.28c-.07-.16.16-.44.26-.67l.68.3C983.49,104.15,983.45,104.5,983.28,104.57Zm4.09-1.58c-.17.07-.44-.16-.67-.26.1-.23.15-.58.31-.65s.45.16.68.26C987.59,102.57,987.53,102.93,987.37,103Zm8.4-4.37c-.12-.22-.32-.44-.31-.65s.23-.4.36-.61c.11.22.23.43.35.65Zm-.18,24.29a.24.24,0,0,0,0-.08h-.05ZM975,84.47v0h-.05ZM949.67,95.1V95l0,0Z" transform="translate(0.14 1.2)"/><path class="cls-4" d="M930.74,137.78l-1.68,6.44q-1.27,2-2.53,3.93c-1.08,2.28-2.15,4.55-3.23,6.82l-5.61-4.89c0-6.94-4.86-11.07-9-15.62,0-1.36,0-2.7,0-4.06l0,0,.7-2.47.87-1.7c.08-.24.17-.49.25-.75l7.12,1.51c1.09.59,2.17,1.17,3.26,1.74l4.89,4.25,3.3,1.27a.67.67,0,0,0,.64.32l0-.08.91.88C930.71,136.21,930.72,137,930.74,137.78Z" transform="translate(0.14 1.2)"/><path class="cls-5" d="M943.93,73.19,943,75.46c-.54,1.92-1.07,3.83-1.61,5.74v0l-.57.77h0a.35.35,0,0,0-.14.13.45.45,0,0,0-.1.14.73.73,0,0,0-.08.44L939,86.15l0,0-.94.68,0-.06-2.44.94-.82.76-.84.65-3.37,3.2c-.23.39-.45.79-.67,1.18-.9-.82-2.53-1.63-2.55-2.48a33.65,33.65,0,0,1,.92-6.55c.24-.84.49-1.66.74-2.48a.82.82,0,0,0,.15-.66c1.14-2,1-3.38-1.7-3.55,0-.47.09-.95.14-1.41.35-.6.69-1.18,1-1.77,3.25-1.59,6.5-3.17,9.72-4.8.26-.14.29-.73.44-1.11l.87-.63c1.55.23,3.77-.45,3.34,2.46l-1.12.63,1.9,1C943.86,72.49,943.89,72.84,943.93,73.19Z" transform="translate(0.14 1.2)"/><path class="cls-6" d="M937.17,159.34c.07.68-1.08,1.48-1.68,2.23l-2.28-.88c.5-1.87,1.48-3.77,1.4-5.61a70.69,70.69,0,0,0-1.45-9.05l-2.43-14a15.38,15.38,0,0,0-.05-2.45c-1-6.06-2.25-12.08-3.16-18.15-1-6.5-1.66-13-2.54-19.56-.22-1.64-.71-3.24-1.08-4.86l-.57-4.1,0-3.44a2.58,2.58,0,0,0,.08-.68c.53-.57,1-1.14,1.58-1.7h0l.78-.82,0,0,.87-.75a7.17,7.17,0,0,0,.81.08c0,.29.12.57.17.87,0,.46-.09.94-.14,1.41.57,1.19,1.13,2.37,1.7,3.55A.82.82,0,0,1,929,82c-.25.82-.5,1.64-.74,2.48a33.65,33.65,0,0,0-.92,6.55c0,.85,1.65,1.66,2.55,2.48-.29,1.6-.92,3.23-.79,4.79.33,3.71,1.13,7.37,1.56,11.07,1.42,12.14,2.76,24.3,4.17,36.45.09.79.53,1.54.66,2.33C936.13,151.89,936.79,155.6,937.17,159.34Z" transform="translate(0.14 1.2)"/><path class="cls-7" d="M921.72,100.86q-.44-3.23-.85-6.46c-2.82,1.38-2.29-.83-2.46-2.29l-.73-.37c-1,1.13-2,2.21-2.91,3.41-.76,1-1.35,2.19-2,3.29-.34.61-.66,1.21-1,1.83L911,97.63c-1-1.13-2.07-2.24-3.11-3.37q-2.16,7.47-4.34,14.95c0,1.9.09,3.8.14,5.71l1.57-.08,2.53-.86,6.41-6.69s0,0,0,.08h0l3.39-1.52c0-1.38,0-2.75,0-4.13Zm-15.32,5.76.6-2.49.75-1.54.87,1.53c0,.54,0,1.08,0,1.62Zm4.89-.33a1.31,1.31,0,0,1-.35.12c0-.1-.11-.28-.08-.31a1.3,1.3,0,0,1,.35-.11C911.24,106.1,911.32,106.27,911.29,106.29Z" transform="translate(0.14 1.2)"/><path class="cls-8" d="M940.55,162.33l-2.6.06-2.46-.82c.6-.75,1.75-1.55,1.68-2.23-.38-3.74-1-7.45-1.65-11.16-.13-.79-.57-1.54-.66-2.33-1.41-12.15-2.75-24.31-4.17-36.45-.43-3.7-1.23-7.36-1.56-11.07-.13-1.56.5-3.19.79-4.79.22-.39.44-.79.67-1.18.86,5.54,1.75,11.1,2.55,16.66,1.14,7.79,2.26,15.6,3.29,23.41,1,7.28,1.73,14.59,2.68,21.87C939.46,157,940.06,159.66,940.55,162.33Z" transform="translate(0.14 1.2)"/><path class="cls-9" d="M914.24,107.38h0s0-.05,0-.08L907.82,114V118l-2.53-3.2-1.57.08c0,1.65.08,3.31.13,5l-.12,2.35a.52.52,0,0,0,.07.71c.81.79,1.62,1.58,2.44,2.36q1.6.48,3.21.93l1.07-.71,7.12,1.51Q915.95,117.21,914.24,107.38Zm-4.8,14-1.77-1.56-1.5-.34c.12-.17.27-.49.35-.47.74.2,1.46.47,2.18.72.51.29,1,.59,1.49.89C909.94,120.84,909.7,121.09,909.44,121.34Zm2.59.77c-.27,0-.51-.43-.76-.66l.88-.75c.32.4.55.68.79,1C912.63,121.83,912.31,122.15,912,122.11Z" transform="translate(0.14 1.2)"/><path class="cls-10" d="M942.17,163.1l-1,.15-.32,0-.29-.15v-.8c-.49-2.67-1.09-5.33-1.44-8-1-7.28-1.72-14.59-2.68-21.87-1-7.81-2.15-15.62-3.29-23.41-.8-5.56-1.69-11.12-2.55-16.66l3.37-3.2c-.26,1.73-.52,3.44-.78,5.15a79.75,79.75,0,0,0,.13,9.41c1.18,9.3,2.66,18.57,4,27.87.7,4.95,1.2,9.93,2,14.87C940.12,152,941.2,157.56,942.17,163.1Z" transform="translate(0.14 1.2)"/><path class="cls-11" d="M995.59,122.91l-.07-.06v0Z" transform="translate(0.14 1.2)"/><path class="cls-11" d="M998,133.73l-5.86,10.56c.07-5.87-.52-11.63-2.79-17.1-1.39-2.3-.31-3.83,1.58-5.11L992,121c0-.26.08-.39.33-.4l3.18,2.3c0,.32-.09.64-.13,1l-.82.84v.8l.81-.8c0-.28,0-.55,0-.84h1.44c.18,1.32.36,2.64.53,4l-1.75,1.06a.34.34,0,0,1-.13.39l.72,1.16h0l.81,2.45Z" transform="translate(0.14 1.2)"/><path class="cls-12" d="M977.43,157.53,974.92,159q-1.24-8.65-2.5-17.31c0-.78,0-1.58.06-2.38h-.88l-.78,0-2.29-1.69q-.18-1.27-.33-2.55l0,0,1.06-1.46,0,0c.25-.28.5-.58.76-.86l.84-.77,3.25-4.14c.13,1.34.23,2.69.38,4Q976,144.73,977.43,157.53Z" transform="translate(0.14 1.2)"/><path class="cls-13" d="M983.17,153.42l-3.26,2.43c-.53-4.42-1.12-8.82-1.56-13.25-.65-6.53-1.2-13.08-1.79-19.64l1.57-1.78a29.42,29.42,0,0,0,.14,3.11c.77,5.08,1.53,10.15,2.4,15.21.75,4.35,1.62,8.67,2.44,13Z" transform="translate(0.14 1.2)"/><path class="cls-14" d="M949.63,95c.25,1.41.51,2.81.75,4.22l-2.32-.14c-.14-2.28-.13-4.57-.45-6.82-.9-6.4-2-12.79-2.94-19.18l.07-.07c.23-.28.47-.58.68-.86,0-.27,0-.53,0-.79l-1.59-.08-.77-.74c.43-2.91-1.79-2.23-3.34-2.46l4-.91,2.59.09c.79,5.26,1.42,10.54,2.42,15.75a66.7,66.7,0,0,0,2.54,8s0,0,0,0c-.54.53-1.08,1.07-1.61,1.61,0,.78,0,1.56,0,2.35v.06Z" transform="translate(0.14 1.2)"/><path class="cls-14" d="M950.38,99.24h0Z" transform="translate(0.14 1.2)"/><path class="cls-15" d="M979.91,155.85l0,0-.86.82-1.6.9q-1.47-12.81-2.95-25.61c-.15-1.33-.25-2.68-.38-4h-.05c-.24-1-.47-2.08-.7-3.12l3.21-1.81c.59,6.56,1.14,13.11,1.79,19.64C978.79,147,979.38,151.43,979.91,155.85Z" transform="translate(0.14 1.2)"/><path class="cls-16" d="M986.48,130.9c.38,6.11,1,12.21,1.54,18.31-.54.55-1.09,1.09-1.64,1.63a55.81,55.81,0,0,0-.27-6.07c-1.2-8.08-2.53-16.15-3.82-24.23l1-.09a13.2,13.2,0,0,1,2,2.17c1.11,1.94,2.06,4,3.08,6C987.69,129.37,986.44,130.17,986.48,130.9Z" transform="translate(0.14 1.2)"/><path class="cls-17" d="M971.87,80.61c-.1.46-.19.93-.29,1.4l.18,1.61-3.25-.91c0-1.3,0-2.61,0-3.91.21-.37.43-.75.65-1.11a.7.7,0,0,1,.19-.61c.09-.09.27-.23.25-.26a4.15,4.15,0,0,0-.42-.52l-.84,0-1.62.76a2.14,2.14,0,0,1-.75.08c-.28-1.36-.56-2.72-.83-4.1l0-1.7a3.53,3.53,0,0,1,0-.65c-.26-.31-.51-.63-.76-.94l-2.47-2.43c3,.84,6,1.66,9,2.49.25.53.52,1.07.78,1.61l0,0c0,.27,0,.52,0,.79v7.38c.05.35.11.69.16,1l.07-.1A.36.36,0,0,0,971.87,80.61Z" transform="translate(0.14 1.2)"/><path class="cls-18" d="M917.69,150.08c-7.14-6.41-11.27-14.48-13.16-23.8h.78l0,0,.82.79h0l1,.74.26,0,.24,0,.92.07h0c0,.84.06,1.69.09,2.52l0,0c0,1.36,0,2.7,0,4.06C912.83,139,917.68,143.14,917.69,150.08Z" transform="translate(0.14 1.2)"/><path class="cls-19" d="M986.38,150.84l-3.21,2.58-.06-.92c.52-1.82,1.7-3.72,1.44-5.42-1.06-7.26-2.6-14.44-3.83-21.67a31.13,31.13,0,0,1,0-5.29c.53.13,1.06.28,1.59.42,1.29,8.08,2.62,16.15,3.82,24.23A55.81,55.81,0,0,1,986.38,150.84Z" transform="translate(0.14 1.2)"/><path class="cls-20" d="M920.87,94.4c-2.82,1.38-2.29-.83-2.46-2.29l-.73-.37c-1,1.13-2,2.21-2.91,3.41-.76,1-1.35,2.19-2,3.29L911,97.63c-1-1.13-2.07-2.24-3.11-3.37.12-.25.23-.51.35-.77l1.19-.88c2.16-1.06,4.33-2.1,6.5-3.14,0-.3,0-.59,0-.89l.8-.67c.31-.35.63-.69,1-1l.65-.81.85,0v2.4l0,0c-.52.29-1.06.57-1.58.85h0c0,.26.06.51.08.76l1.43.26,2.48,1.24C921.38,92.58,919,92.88,920.87,94.4Z" transform="translate(0.14 1.2)"/><path class="cls-21" d="M970.82,139.37c0,.26,0,.51,0,.76l0,0c-.5.36-1,.73-1.48,1.1,1,1.45-3.16,3.71.75,4.7-2.15.9-2.8,2.44-2.38,4.74.64,3.59,1.06,7.22,1.57,10.85-.83.27-1.65.54-2.47.83.22-2,.83-4,.57-5.85-.51-3.88-1.48-7.71-2.26-11.55l2.2-3.23c.34-.87.68-1.74,1-2.62l-.11-.18.11-.17.24-1.11Z" transform="translate(0.14 1.2)"/><path class="cls-22" d="M990.51,146,988,149.21c-.54-6.1-1.16-12.2-1.54-18.31,0-.73,1.21-1.53,1.86-2.31l1.2-.17a42.4,42.4,0,0,0-.52,6.71C989.3,138.77,990,142.37,990.51,146Z" transform="translate(0.14 1.2)"/><path class="cls-23" d="M974.92,159l-3.26,1.61-.85-15.6,1-3.05c.21-.1.43-.19.65-.27Q973.68,150.4,974.92,159Z" transform="translate(0.14 1.2)"/><path class="cls-24" d="M923.9,87c-.18.81-.35,1.62-.53,2.43l-1.73,2.25-2.48-1.24c0-.41,0-.83,0-1.23a4.81,4.81,0,0,0,.08-.65l0,0c.25-.79.52-1.6.78-2.4-.18-.42-.35-.85-.54-1.28-.35.41-.71.8-1.07,1.2l-.83.06c-.22,0-.45,0-.67.08l-.11-.07q.45-2.81.88-5.59l1.5-1.13c1.39,1.16,2.76,2.32,4.14,3.49Z" transform="translate(0.14 1.2)"/><path class="cls-25" d="M960.18,151c-.15,2.1-.3,4.22-.44,6.32s-.25,4.49-.37,6.74l-5.74.65c0-.23,0-.47,0-.71,3.18.34,4.3-.14,2.88-3.88-1-2.52-2-6.08,1.2-8.49Z" transform="translate(0.14 1.2)"/><path class="cls-26" d="M931.47,159.91l-1.63-.82a28.73,28.73,0,0,0,.68-5.77c-.24-3.06-.95-6.07-1.46-9.1l1.68-6.44c.78,5.26,1.78,10.51,2.22,15.8C933.13,155.63,934.76,158.49,931.47,159.91Z" transform="translate(0.14 1.2)"/><path class="cls-27" d="M934.61,155.08c.08,1.84-.9,3.74-1.4,5.61l-1.74-.78c3.29-1.42,1.66-4.28,1.49-6.33-.44-5.29-1.44-10.54-2.22-15.8,0-.79,0-1.57,0-2.36l-.91-.88,0,.08,1-2.61,2.43,14A70.69,70.69,0,0,1,934.61,155.08Z" transform="translate(0.14 1.2)"/><path class="cls-28" d="M929.84,159.09l-4.17-2.43c3.92-2.46,1.08-5.62.86-8.51q1.26-2,2.53-3.93c.51,3,1.22,6,1.46,9.1A28.73,28.73,0,0,1,929.84,159.09Z" transform="translate(0.14 1.2)"/><path class="cls-29" d="M964.3,163.12l-.82.1c-.85-4.22-1.72-8.44-2.57-12.66l2.51-3.09c.47,2.18,1.26,4.35,1.29,6.53C964.77,157,966.69,160.2,964.3,163.12Z" transform="translate(0.14 1.2)"/><path class="cls-30" d="M972.33,80.5h0l0,0h0Z" transform="translate(0.14 1.2)"/><path class="cls-30" d="M978.21,73.73q-1.28,2.86-2.53,5.73l-1,.9-2.32.14-.68-.94V72.18l1-.07a3.7,3.7,0,0,0,.74-.06l1.51.11H975l1.47.1Z" transform="translate(0.14 1.2)"/><path class="cls-31" d="M971.66,160.65l-2.44.91c-.51-3.63-.93-7.26-1.57-10.85-.42-2.3.23-3.84,2.38-4.74l.78-.92Z" transform="translate(0.14 1.2)"/><path class="cls-32" d="M966.75,162.39l-2.45.73c2.39-2.92.47-6.09.41-9.12,0-2.18-.82-4.35-1.29-6.53.55-.82,1.09-1.66,1.64-2.48.78,3.84,1.75,7.67,2.26,11.55C967.58,158.43,967,160.43,966.75,162.39Z" transform="translate(0.14 1.2)"/><path class="cls-33" d="M955.28,72.94l-1.56.25a4.37,4.37,0,0,0-.7-.1c-1.34-1.25-3.52-2.36-3.8-3.82-.41-2.23-1.5-2-3-2l-2.59-.09,10-.74C954.19,68.61,954.74,70.78,955.28,72.94Z" transform="translate(0.14 1.2)"/><path class="cls-34" d="M917.75,86.89c-.32.33-.64.67-1,1l-.8.67c-.11.08-.31.18-.31.23a5.38,5.38,0,0,0,.27.66c-2.17,1-4.34,2.08-6.5,3.14,0-.31-.06-.61-.09-.9a.67.67,0,0,1,.27-.67l.6-.9L916,82.47c.29,1.21.57,2.43.86,3.65l.11.07c.17.25.34.49.5.74Z" transform="translate(0.14 1.2)"/><path class="cls-35" d="M992.11,144.29c-.53.56-1.07,1.13-1.6,1.71-.52-3.63-1.21-7.23-1.49-10.87a42.4,42.4,0,0,1,.52-6.71c-.08-.41-.15-.83-.22-1.23C991.59,132.66,992.18,138.42,992.11,144.29Z" transform="translate(0.14 1.2)"/><path class="cls-36" d="M963.48,163.22l-4.11.81c.12-2.25.23-4.5.37-6.74s.29-4.22.44-6.32l.73-.41C961.76,154.78,962.63,159,963.48,163.22Z" transform="translate(0.14 1.2)"/><path class="cls-37" d="M925.67,156.66,923.3,155c1.08-2.27,2.15-4.54,3.23-6.82C926.75,151,929.59,154.2,925.67,156.66Z" transform="translate(0.14 1.2)"/><path class="cls-38" d="M938.83,68.73c-.15.38-.18,1-.44,1.11-3.22,1.63-6.47,3.21-9.72,4.8h0l-1.19,0c-.34-.32-.69-.63-1-1l2.64-1.53Z" transform="translate(0.14 1.2)"/><path class="cls-39" d="M956.1,67.26l-.27,5.93a.54.54,0,0,1-.55-.25c-.54-2.16-1.09-4.33-1.64-6.49h1.64C955.56,66.72,955.83,67,956.1,67.26Z" transform="translate(0.14 1.2)"/><path class="cls-40" d="M964.31,69.7l-2.43.89-5.78-3.33v-.8l5.74.81Z" transform="translate(0.14 1.2)"/><path class="cls-41" d="M903.85,119.89c-.1.49-.2,1-.29,1.48,0-4.05,0-8.12,0-12.16,0,1.9.09,3.8.14,5.71C903.77,116.57,903.8,118.23,903.85,119.89Z" transform="translate(0.14 1.2)"/><path class="cls-42" d="M917.69,80.53q-.44,2.79-.88,5.59c-.29-1.22-.57-2.44-.86-3.65Z" transform="translate(0.14 1.2)"/><path class="cls-43" d="M953.64,164c0,.24,0,.48,0,.71l-8.21-.57,0-.24.4,0,.4,0,2.46.08,2.46,0Z" transform="translate(0.14 1.2)"/><path class="cls-44" d="M923.33,82.89c-1.38-1.17-2.75-2.33-4.14-3.49.27-.26.53-.51.79-.78,1.11.29,2.21.56,3.32.83Z" transform="translate(0.14 1.2)"/><path class="cls-45" d="M998.74,127v0c0,.28,0,.55,0,.84h-.84l-.51-.13c-.17-1.32-.35-2.64-.53-4a3.38,3.38,0,0,0,.09-.72l2.6,2.29a3,3,0,0,0-.78.18Z" transform="translate(0.14 1.2)"/><path class="cls-46" d="M906.24,125.31l-.09,1a4.38,4.38,0,0,1-.81,0l0,0-.86-.87c-.22-.82-.44-1.64-.65-2.47C904.61,123.74,905.42,124.53,906.24,125.31Z" transform="translate(0.14 1.2)"/><path class="cls-4" d="M927.49,74.69c-.28.25-.56.52-.85.77l-.87.75,0,0-.78.82h0l-2.35-.64a.48.48,0,0,1,.52-.26l.94-.8.93-.72h0l.82-.62a.58.58,0,0,1,.62-.31c.33.32.68.63,1,1Z" transform="translate(0.14 1.2)"/><path class="cls-47" d="M999.62,129.52c-.32,1.11-.64,2.23-1,3.34l-.8-.21c-.27-.49-.55-1-.83-1.46a.6.6,0,0,1-.21-.51c.09-.49.19-1,.28-1.46a1.28,1.28,0,0,0,.64.08l1,.22.59.06Z" transform="translate(0.14 1.2)"/><path class="cls-48" d="M923.38,78.77a2.58,2.58,0,0,1-.08.68c-1.11-.27-2.21-.54-3.32-.83l.84-.82a.88.88,0,0,0,.28.38l.51-.13C922.2,78.28,922.79,78.53,923.38,78.77Z" transform="translate(0.14 1.2)"/><path class="cls-49" d="M925,77.07c-.53.56-1.05,1.13-1.58,1.7-.59-.24-1.18-.49-1.77-.72a.61.61,0,0,0-.51.13.88.88,0,0,1-.28-.38l1.79-1.37Z" transform="translate(0.14 1.2)"/><path class="cls-50" d="M945.46,163.86h0l0,.24-4.26-.86,1-.15,1.65.05Z" transform="translate(0.14 1.2)"/><path class="cls-51" d="M974.12,71.36c-.25.22-.49.45-.75.69a3.7,3.7,0,0,1-.74.06l-1-.72,0,0,.89-1.11Z" transform="translate(0.14 1.2)"/><path class="cls-52" d="M972.51,70.26l-.89,1.11c-.26-.54-.53-1.08-.78-1.61Z" transform="translate(0.14 1.2)"/><path class="cls-53" d="M940.55,162.33v.8l-2.6-.74Z" transform="translate(0.14 1.2)"/><path class="cls-54" d="M903.85,119.89l-.12,2.35c-.06-.29-.12-.58-.17-.87C903.65,120.88,903.75,120.38,903.85,119.89Z" transform="translate(0.14 1.2)"/><path class="cls-55" d="M909.46,92.61l-1.19.88,1.1-1.78C909.4,92,909.42,92.3,909.46,92.61Z" transform="translate(0.14 1.2)"/><path class="cls-56" d="M975,72.16H975l-.13,0Z" transform="translate(0.14 1.2)"/><path class="cls-56" d="M976.49,72.26l-1.47-.1c.25,0,.5-.12.76-.19C976,72.06,976.25,72.15,976.49,72.26Z" transform="translate(0.14 1.2)"/><path class="cls-57" d="M998.67,132.86c-.23.3-.47.58-.7.87l-1-.9.2-.18.33,0,.33,0Z" transform="translate(0.14 1.2)"/><path class="cls-58" d="M974.78,71.47a2,2,0,0,0,.1.69l-1.51-.11c.26-.24.5-.47.75-.69A5,5,0,0,0,974.78,71.47Z" transform="translate(0.14 1.2)"/><path class="cls-58" d="M975,72.16l-.06,0s0,0,0,0Z" transform="translate(0.14 1.2)"/><path class="cls-59" d="M999.59,128.76l-.36-.07a1.3,1.3,0,0,1-.52,0h-.78a2.26,2.26,0,0,1-.06-.82h.84a1.46,1.46,0,0,0,.67.18A7,7,0,0,0,999.59,128.76Z" transform="translate(0.14 1.2)"/><path class="cls-60" d="M999.38,128.07a1.46,1.46,0,0,1-.67-.18c0-.29,0-.56,0-.84Q999.08,127.56,999.38,128.07Z" transform="translate(0.14 1.2)"/><path class="cls-60" d="M999.87,129.3s-.16.14-.25.22l-.33.06-.06-.89.36.07A3.45,3.45,0,0,1,999.87,129.3Z" transform="translate(0.14 1.2)"/><path class="cls-61" d="M905.31,126.29h-.78l-.08-.86Z" transform="translate(0.14 1.2)"/><path class="cls-30" d="M975.78,72c-.26.07-.51.14-.76.19l-.13,0s0,0,0,0a2,2,0,0,1-.1-.69Z" transform="translate(0.14 1.2)"/><path class="cls-62" d="M956.1,66.46v.8c-.27-.27-.54-.54-.82-.8Z" transform="translate(0.14 1.2)"/><path class="cls-53" d="M943.82,163.15l-1.64-.05c-1-5.54-2-11.07-2.92-16.64-.78-4.94-1.28-9.92-2-14.87-1.32-9.29-2.79-18.57-4-27.88a81.75,81.75,0,0,1-.13-9.4c.55,1,1.44,2,1.58,3,.93,7.17,1.67,14.37,2.58,21.55,0,.34,1,.58,1.52.86q.85,4.09,1.69,8.19c-1.66,5.13.12,10.22.45,15.28C941.44,149.87,942.84,156.5,943.82,163.15Z" transform="translate(0.14 1.2)"/><path class="cls-43" d="M957.72,151.6c-3.15,2.42-2.16,6-1.2,8.49,1.43,3.73.3,4.22-2.87,3.88h0q-2.45-16.8-4.9-33.59h1.63l1.81.76c.46,1.45,1,2.89,1.35,4.35.33,1.27,1.06,2.75.7,3.83-1.48,4.5,1.32,8,2.38,11.91C956.67,151.42,957.33,151.47,957.72,151.6Z" transform="translate(0.14 1.2)"/><path class="cls-62" d="M956.1,67.26l5.78,3.33,0,.86-1.4.88,1.34.51.86.16c-.27,1.56-1.23,3.46-.66,4.61,1.26,2.57-.32,6.7,3.93,7.69v.81l0,0-1.66.67-.74.17-4.13-2.38c-4.69-2.49-2.81-7-3.4-10.81v0l.48-.39-.6-.19h0Z" transform="translate(0.14 1.2)"/><path class="cls-63" d="M943.09,106.83c.5,1.59,1,3.17,1.51,4.76a1.39,1.39,0,0,0,0,.64l-1.35,1-1,1.68,0-.05-.95.76q-1.23-6-2.45-11.91c-.37-1.79-.89-3.57-1.12-5.38-.3-2.3-2.11-5,1.31-6.56l1.39,0c.57,2.21,1.13,4.42,1.7,6.63.31.81.63,1.62.95,2.43l1.43-.2,1.65,3.52,0,0Z" transform="translate(0.14 1.2)"/><path class="cls-64" d="M982.29,120.54l-1.6-.42a32.19,32.19,0,0,0,0,5.29c1.22,7.23,2.76,14.41,3.82,21.67.25,1.7-.92,3.61-1.44,5.42-.82-4.33-1.69-8.66-2.44-13-.86-5.06-1.64-10.14-2.4-15.21a26.77,26.77,0,0,1-.14-3.11l-.66-2.41a.66.66,0,0,0-.08-.58c2.2.16,4.93-1.06,5.92,2.26Z" transform="translate(0.14 1.2)"/><path class="cls-65" d="M943.82,163.15c-1-6.65-2.38-13.28-2.82-20-.33-5.06-2.11-10.15-.45-15.28h0l1.58,1.66,1,.73c-.3,1.25-1,2.54-.84,3.74.44,3.85,1.28,7.66,1.79,11.52.81,6.09,1.47,12.21,2.2,18.31l-.4,0-.4,0Z" transform="translate(0.14 1.2)"/><path class="cls-50" d="M946.26,163.87c-.73-6.1-1.39-12.22-2.2-18.31-.51-3.86-1.35-7.67-1.79-11.52-.14-1.2.54-2.49.84-3.74H947l.13.14-.89.74c-.55,1.06-1.63,2.15-1.54,3.15.3,3.61,1,7.17,1.53,10.76.85,6.28,1.64,12.56,2.45,18.85Z" transform="translate(0.14 1.2)"/><path class="cls-66" d="M946.27,67.28c1.45,0,2.53-.25,3,2,.27,1.46,2.45,2.57,3.78,3.83l-1.51,3c-2.07,2.83-1.51,8,1.26,11.53l.24.28-1,2.27-.75.89,0,0a66.34,66.34,0,0,1-2.55-8C947.69,77.82,947.06,72.53,946.27,67.28Z" transform="translate(0.14 1.2)"/><path class="cls-67" d="M938.86,119.72c-.53-.28-1.48-.52-1.52-.86-.91-7.18-1.65-14.38-2.58-21.55-.14-1-1-2-1.58-3l.78-5.14.84-.66c.55,3.41,1.07,6.84,1.66,10.25,1.07,6.16,2.18,12.31,3.28,18.46h.67Z" transform="translate(0.14 1.2)"/><path class="cls-52" d="M965.93,85.3c-4.26-1-2.68-5.12-3.94-7.69-.57-1.15.39-3,.66-4.61l1.43-.1,1,.1c.27,1.36.55,2.73.82,4.1l.06,1.76c0,1.25,0,2.5,0,3.74l.72,1.06,1.67-.84.13-.1,3.24.9.65.16a.89.89,0,0,0,.13.71l-3.41,1.59-2.3.19-.08-.16c0-.27,0-.53,0-.8h-.81Z" transform="translate(0.14 1.2)"/><path class="cls-68" d="M956,73.72c.59,3.78-1.29,8.33,3.4,10.82L956,84.45l-1.55.92,0,0-.89.79h0l-.81,0q0-3.68,0-7.35l.81-.86.88-3.12Z" transform="translate(0.14 1.2)"/><path class="cls-69" d="M947,110.63l2.51-4,5.76,2.45-.65,2.3-1,1.84c-1.57-3.25-4.18-1.8-6.55-1.44C947.07,111.38,947.05,111,947,110.63Zm4.81-1.68-.19-.28c-.07.08-.23.21-.21.23a1.64,1.64,0,0,0,.3.35Z" transform="translate(0.14 1.2)"/><path class="cls-70" d="M953.63,113.19c.35-.61.69-1.23,1-1.84l1.41-2.31.11.07,1.31,0c.12.41.23.82.35,1.23l1.52,1.13h0l1.6.77-.74,1.61C958,113.94,955.6,115.52,953.63,113.19Z" transform="translate(0.14 1.2)"/><path class="cls-71" d="M960.22,113.9c.25-.53.49-1.07.74-1.61a4,4,0,0,1,.19-.76h.38l.38-.06,3.69.69c-.18.61-.33,1.74-.57,1.75A45.41,45.41,0,0,1,960.22,113.9Z" transform="translate(0.14 1.2)"/><path class="cls-72" d="M966.07,105.68l1.56,1.68a15.32,15.32,0,0,1-2.33.3c-1.23,0-2.46-.18-3.69-.27.27-.85.5-1.7.84-2.52,0-.08.66.08,1,.13Z" transform="translate(0.14 1.2)"/><path class="cls-73" d="M949.44,100.63l-1.73,1.78-3.08-4,0,.07-.21-.88.12-.81a1.32,1.32,0,0,0,.17-.75l0,0,1.57-.18.69,2.58-.29,2,1.24-.43Z" transform="translate(0.14 1.2)"/><path class="cls-74" d="M955.31,109.05l-5.76-2.45,4.25-1.52c.17.51.33,1,.5,1.54l1.88,2.49-.11-.07Z" transform="translate(0.14 1.2)"/><path class="cls-75" d="M955.3,98.51l-3.95-1.59c-.06-.32-.11-.64-.16-1l2.45,1.75,1,.61a2,2,0,0,0,.67-.18Z" transform="translate(0.14 1.2)"/><path class="cls-76" d="M969.13,86.08l3.41-1.59,1.59,0H975l-.05,0c0,.27.07.54.11.82l-.23.06Z" transform="translate(0.14 1.2)"/><path class="cls-77" d="M944.63,98.38l3.08,4-1.49,1.75-1.65-3.52Z" transform="translate(0.14 1.2)"/><path class="cls-78" d="M973.35,124.77l.69,3.12-3.35-2.14Z" transform="translate(0.14 1.2)"/><path class="cls-79" d="M972.62,106.51c.2.16.5.29.59.5.43,1.11.82,2.24,1.17,3.38a4.76,4.76,0,0,1-1,.35c-.57-1.1-1.08-2.23-1.6-3.36l.5-.69Z" transform="translate(0.14 1.2)"/><path class="cls-80" d="M955.54,95.09l-.17-1.64.72-1.65,1.16-3.35v5.67Z" transform="translate(0.14 1.2)"/><path class="cls-81" d="M955.54,95.09l1.71-1a.43.43,0,0,1,.48.28,6.81,6.81,0,0,0,0,.78l0,0L957,96.94l-1.69,1.57,0-.37-.09-.92a.3.3,0,0,1,.06-.45l.09-.81Z" transform="translate(0.14 1.2)"/><path class="cls-82" d="M975,84.47h-.84c0-.26-.07-.52-.09-.79l-.73-.86a1.8,1.8,0,0,0-.25-.68,1.2,1.2,0,0,1,.45-.29l1.15-1.49,1-.9C975.44,81.13,975.2,82.8,975,84.47Z" transform="translate(0.14 1.2)"/><path class="cls-83" d="M977.39,118.19a.66.66,0,0,1,.08.58l-4.09-1.56.4-.62.34-.16Z" transform="translate(0.14 1.2)"/><path class="cls-84" d="M963.49,86.92l.74-.17c.27.33.53.66.8,1l-3.35,1.67,1-1Z" transform="translate(0.14 1.2)"/><path class="cls-77" d="M943.09,106.83l3.16-2.64C948.06,108.51,943.91,105.67,943.09,106.83Z" transform="translate(0.14 1.2)"/><path class="cls-57" d="M995.59,122.91l-3.25-2.37C995.29,118.77,995,121.42,995.59,122.91Z" transform="translate(0.14 1.2)"/><path class="cls-85" d="M968.41,121.33l1.79,2.78-1,.66-1.7-2.57.23-.29.29-.06.06-.3Z" transform="translate(0.14 1.2)"/><path class="cls-86" d="M956.18,109.11l-1.88-2.49,1.17-.15,2,2.69Z" transform="translate(0.14 1.2)"/><path class="cls-87" d="M967,118.81l1.43,2.52-.29.22a.36.36,0,0,0-.35.36l-.23.29-1.48-3.31Z" transform="translate(0.14 1.2)"/><path class="cls-88" d="M975.66,84.6l.82,1.57c-.1.07-.28.17-.27.2a3.74,3.74,0,0,0,.28.52l-1.69-1.58.23,0Z" transform="translate(0.14 1.2)"/><path class="cls-89" d="M951.19,96c0,.32.1.64.16,1l-1,2.33c-.26-1.41-.51-2.82-.76-4.23Z" transform="translate(0.14 1.2)"/><path class="cls-90" d="M971.35,106.7l-.43-.94c.09-.06.28-.15.27-.2a3.14,3.14,0,0,0-.2-.56l.64-.92,1,1c0,.49,0,1,0,1.48l-.32.18Z" transform="translate(0.14 1.2)"/><path class="cls-91" d="M966.07,105.68l-2.61-.68Z" transform="translate(0.14 1.2)"/><path class="cls-92" d="M947,110.63c0,.37,0,.75,0,1.12l-2.51.48a1.39,1.39,0,0,1,0-.64Z" transform="translate(0.14 1.2)"/><path class="cls-93" d="M986.7,102.73c.1-.23.15-.58.31-.65s.44.16.67.26c-.1.23-.15.59-.31.65S986.93,102.83,986.7,102.73Z" transform="translate(0.14 1.2)"/><path class="cls-89" d="M949.44,100.63l-1.51-.61a7.3,7.3,0,0,0,0-.81l.12-.11,2.34.14Z" transform="translate(0.14 1.2)"/><path class="cls-94" d="M968.53,137.68l-.24,1.1-.09-3.65Z" transform="translate(0.14 1.2)"/><path class="cls-95" d="M983.59,103.92c-.1.23-.14.58-.31.65a.68.68,0,0,1-.63-.28c-.06-.16.16-.44.26-.67Z" transform="translate(0.14 1.2)"/><path class="cls-96" d="M961.83,92.7l1.24-.31-1.18,1.13Z" transform="translate(0.14 1.2)"/><path class="cls-97" d="M955.47,106.47l-1.17.15c-.17-.52-.33-1-.5-1.54Z" transform="translate(0.14 1.2)"/><path class="cls-98" d="M975.83,105l1.15-.46-.45,1.17Z" transform="translate(0.14 1.2)"/><path class="cls-53" d="M942.13,129.57l-1.58-1.66Z" transform="translate(0.14 1.2)"/><path class="cls-94" d="M968.29,139.15l-1,2.61Z" transform="translate(0.14 1.2)"/><path class="cls-99" d="M961.83,92.7l.06.82-1.18-.12Z" transform="translate(0.14 1.2)"/><path class="cls-89" d="M949.67,95.1c0-.81,0-1.61,0-2.41C949.64,93.49,949.66,94.29,949.67,95.1Z" transform="translate(0.14 1.2)"/><path class="cls-100" d="M965,87.73c-.27-.32-.53-.65-.8-1l1.66-.67,0,.86Z" transform="translate(0.14 1.2)"/><path class="cls-101" d="M962.66,88.45l-1,1-.27-1.24Z" transform="translate(0.14 1.2)"/><path class="cls-102" d="M963.27,136.18c-.21.06-.48.22-.6.15s-.23-.38-.34-.59c.21-.06.47-.23.62-.16S963.17,136,963.27,136.18Z" transform="translate(0.14 1.2)"/><path class="cls-103" d="M959.39,110.71l.14-.86.67-.8.84,1.64Z" transform="translate(0.14 1.2)"/><path class="cls-104" d="M959.39,110.71l1.65,0,.87.79-.38.06h-2.17c0-.27,0-.53,0-.8Z" transform="translate(0.14 1.2)"/><path class="cls-105" d="M996.17,98l-.41.61c-.11-.22-.31-.44-.3-.65s.23-.41.36-.61Z" transform="translate(0.14 1.2)"/><path class="cls-106" d="M972.66,105l-1-1,1.29-.31Z" transform="translate(0.14 1.2)"/><path class="cls-107" d="M965,138.82a2.87,2.87,0,0,1,.37.49c0,.05-.16.29-.23.28a2.32,2.32,0,0,1-.61-.21Z" transform="translate(0.14 1.2)"/><path class="cls-108" d="M965.69,118.11l-.19-1.23,1.2,1.22Z" transform="translate(0.14 1.2)"/><path class="cls-109" d="M941.36,115.61l.95-.76-1,1.54-.05,0A4.41,4.41,0,0,0,941.36,115.61Z" transform="translate(0.14 1.2)"/><path class="cls-110" d="M973.11,116.48l-.19-.77,1.2.72-.33.16Z" transform="translate(0.14 1.2)"/><path class="cls-109" d="M940.41,117.23h-.67l1.53-.89.05,0Z" transform="translate(0.14 1.2)"/><path class="cls-109" d="M942.26,114.9l1-1.68Z" transform="translate(0.14 1.2)"/><path class="cls-103" d="M959.39,110.72c0,.27,0,.53,0,.8l-1.52-1.13Z" transform="translate(0.14 1.2)"/><path class="cls-94" d="M969.23,133.7c-.36.49-.72,1-1.07,1.46C968.51,134.67,968.87,134.19,969.23,133.7Z" transform="translate(0.14 1.2)"/><path class="cls-111" d="M956.09,91.8l-.72,1.65Z" transform="translate(0.14 1.2)"/><path class="cls-104" d="M960.2,109.05l-.67.8.07-1.13Z" transform="translate(0.14 1.2)"/><path class="cls-112" d="M965.92,86.94l0-.86,0,0h.83l.08.16Z" transform="translate(0.14 1.2)"/><path class="cls-57" d="M996.93,123.09c0,.25,0,.49-.09.73h-1.45c0-.33.09-.66.13-1Z" transform="translate(0.14 1.2)"/><path class="cls-66" d="M952.84,86.09l.81,0c-.22.6-.43,1.21-.65,1.81l-.24-.28C952.79,87.13,952.82,86.61,952.84,86.09Z" transform="translate(0.14 1.2)"/><path class="cls-113" d="M952.18,131.12l-1.81-.76Z" transform="translate(0.14 1.2)"/><path class="cls-113" d="M950.38,130.37h-1.64v-.7Z" transform="translate(0.14 1.2)"/><path class="cls-114" d="M948.74,129.67v.7h0l-1.57.07-.13-.14Z" transform="translate(0.14 1.2)"/><path class="cls-115" d="M957,96.94l.81-1.79Z" transform="translate(0.14 1.2)"/><path class="cls-116" d="M980.17,77.54c-.11.06-.23.17-.33.16s-.2-.14-.29-.22Z" transform="translate(0.14 1.2)"/><path class="cls-117" d="M954.49,85.37l1.55-.92Z" transform="translate(0.14 1.2)"/><path class="cls-66" d="M953.65,86.12l.89-.79Z" transform="translate(0.14 1.2)"/><path class="cls-118" d="M975.66,84.6l-.63.66c0-.28-.07-.55-.11-.82A2.14,2.14,0,0,1,975.66,84.6Z" transform="translate(0.14 1.2)"/><path class="cls-57" d="M992,121l-1.11,1.13Z" transform="translate(0.14 1.2)"/><path class="cls-119" d="M976.49,86.89a3.74,3.74,0,0,1-.28-.52s.17-.13.27-.2A1.75,1.75,0,0,1,976.49,86.89Z" transform="translate(0.14 1.2)"/><path class="cls-94" d="M970.85,132l-.85.78Z" transform="translate(0.14 1.2)"/><path class="cls-120" d="M964.9,133.26l-.25.23c-.07-.09-.2-.18-.19-.26s.14-.15.22-.23Z" transform="translate(0.14 1.2)"/><path class="cls-94" d="M970,132.81l-.76.86Z" transform="translate(0.14 1.2)"/><path class="cls-121" d="M965.69,118.11h1a3.09,3.09,0,0,1,.28.71l-.92.08C965.93,118.63,965.81,118.37,965.69,118.11Z" transform="translate(0.14 1.2)"/><path class="cls-122" d="M973.11,116.48l.68.11-.41.62A1,1,0,0,1,973.11,116.48Z" transform="translate(0.14 1.2)"/><path class="cls-14" d="M951.21,91.09l.75-.89Z" transform="translate(0.14 1.2)"/><path class="cls-123" d="M971.35,106.7h.95l-.5.69Z" transform="translate(0.14 1.2)"/><path class="cls-115" d="M957.78,95.18a6.81,6.81,0,0,1,0-.78Z" transform="translate(0.14 1.2)"/><path class="cls-124" d="M975.83,105l.7.71Z" transform="translate(0.14 1.2)"/><path class="cls-125" d="M971,105a3.14,3.14,0,0,1,.2.56s-.18.14-.27.2Z" transform="translate(0.14 1.2)"/><path class="cls-115" d="M955.33,96l-.09.81Z" transform="translate(0.14 1.2)"/><path class="cls-126" d="M954.6,98.32l-1-.61.83-.1A1.94,1.94,0,0,0,954.6,98.32Z" transform="translate(0.14 1.2)"/><path class="cls-127" d="M954.6,98.32a1.94,1.94,0,0,1-.13-.71,2.25,2.25,0,0,1,.71-.39l.09.92A2,2,0,0,1,954.6,98.32Z" transform="translate(0.14 1.2)"/><path class="cls-128" d="M917.64,105.86c0-1.37,0-2.75,0-4.13,1,.52,1.93,1.08,2.93,1.52a9.2,9.2,0,0,0,1.74.42l.12-1.94,1,0,.06,1.65c-.57,2.28-1.86,4.66-1.57,6.83,1,7.66,2.58,15.25,3.94,22.87l-4.9-4.25q-1.64-11.09-3.26-22.17C917.64,106.36,917.64,106.11,917.64,105.86Z" transform="translate(0.14 1.2)"/><path class="cls-129" d="M923.42,103.33l-.06-1.65V89.42L923.9,87c.37,1.62.86,3.22,1.08,4.86.88,6.51,1.57,13.06,2.54,19.56.92,6.07,2.12,12.1,3.16,18.15a15.35,15.35,0,0,1,.05,2.45c-.33.87-.66,1.74-1,2.61a.68.68,0,0,1-.64-.32,18,18,0,0,1-1.57-4.07c-.69-5.4-1-10.85-1.76-16.23C925.25,110.4,924.21,106.88,923.42,103.33Z" transform="translate(0.14 1.2)"/><path class="cls-130" d="M923.42,103.33c.79,3.55,1.83,7.07,2.34,10.67.76,5.38,1.07,10.83,1.76,16.23a18,18,0,0,0,1.57,4.07l-3.3-1.27c-1.36-7.62-2.92-15.21-3.94-22.87C921.56,108,922.85,105.61,923.42,103.33Z" transform="translate(0.14 1.2)"/><path class="cls-131" d="M917.63,106.61q1.64,11.08,3.26,22.17l-3.25-1.73-3.42-19.75,0,.07Z" transform="translate(0.14 1.2)"/><path class="cls-132" d="M906.15,126.32l.09-1,3.21.93.82.05L909.4,128a2.61,2.61,0,0,0-.79,0h0l-.92-.08-.24,0-.25,0-1-.74h0A4.93,4.93,0,0,1,906.15,126.32Z" transform="translate(0.14 1.2)"/><path class="cls-61" d="M908.68,134.46l.06-4.05Z" transform="translate(0.14 1.2)"/><path class="cls-61" d="M908.61,127.94a2.61,2.61,0,0,1,.79,0c-.24.82-.47,1.65-.7,2.47Z" transform="translate(0.14 1.2)"/><path class="cls-61" d="M910.27,126.29l-.82-.05,1.07-.7C910.44,125.79,910.36,126,910.27,126.29Z" transform="translate(0.14 1.2)"/><path class="cls-129" d="M929.78,134.54l.91.88Z" transform="translate(0.14 1.2)"/><path class="cls-133" d="M941.27,116.34l-1.53.89c-1.1-6.16-2.21-12.31-3.28-18.47-.59-3.41-1.11-6.84-1.66-10.25l.82-.77,2.44-.92,0,.05.91.07v1.69l.19,3.13c-3.42,1.57-1.61,4.26-1.31,6.56.23,1.81.75,3.59,1.12,5.38q1.23,6,2.45,11.91A4.41,4.41,0,0,1,941.27,116.34Z" transform="translate(0.14 1.2)"/><path class="cls-89" d="M947,98.45l-.69-2.58-1.65-.76q-.82-7.36-1.64-14.74V75.46l.93-2.27a6.2,6.2,0,0,1,.74-.08c1,6.38,2,12.77,2.94,19.16.32,2.26.31,4.56.45,6.83l-.12.11Z" transform="translate(0.14 1.2)"/><path class="cls-134" d="M943,80.37q.82,7.36,1.64,14.74l.08.94,0,0c-.06.25-.12.5-.17.75l-.12.81-1.34,1,.08,0-1-.17c-.57-2.21-1.13-4.42-1.7-6.63v0l1.62-1c.53-3.08-1.92-1.77-3.2-2.17,0-.56,0-1.13,0-1.69l0-.75,0,0,1.5-3.46a.72.72,0,0,1,.32-.71l.57-.77v0Z" transform="translate(0.14 1.2)"/><path class="cls-135" d="M943,80.37l-1.61.83c.54-1.91,1.08-3.83,1.61-5.74Z" transform="translate(0.14 1.2)"/><path class="cls-136" d="M929.18,81.37c-.57-1.18-1.13-2.37-1.7-3.55C930.17,78,930.32,79.37,929.18,81.37Z" transform="translate(0.14 1.2)"/><path class="cls-135" d="M940.49,82.7,939,86.16Z" transform="translate(0.14 1.2)"/><path class="cls-137" d="M943,70.56l.77.74,0,.84-1.91-.94Z" transform="translate(0.14 1.2)"/><path class="cls-138" d="M943.83,72.14l0-.84,1.59.08,0,.79,0,0-.71.88-.07.08a6.2,6.2,0,0,0-.74.08C943.9,72.84,943.86,72.49,943.83,72.14Z" transform="translate(0.14 1.2)"/><path class="cls-136" d="M928.28,84.5,929,82Z" transform="translate(0.14 1.2)"/><path class="cls-135" d="M938.06,86.82l-2.44.92Z" transform="translate(0.14 1.2)"/><path class="cls-139" d="M927.47,74.66l1.19,0c-.34.59-.69,1.18-1,1.76l-.18-.86,0-.85Z" transform="translate(0.14 1.2)"/><path class="cls-135" d="M939,86.19l0,.75-.91-.07Z" transform="translate(0.14 1.2)"/><path class="cls-135" d="M941.38,81.22l-.57.77Z" transform="translate(0.14 1.2)"/><path class="cls-49" d="M925,77.06l.78-.82Z" transform="translate(0.14 1.2)"/><path class="cls-49" d="M925.78,76.21l.86-.75Z" transform="translate(0.14 1.2)"/><path class="cls-49" d="M927.49,74.69l0,.85c-.27,0-.53,0-.8-.07Z" transform="translate(0.14 1.2)"/><path class="cls-130" d="M923.36,89.42v12.26l-1,0-.7-.87-.84-6.46c-1.87-1.52.5-1.82.78-2.73Z" transform="translate(0.14 1.2)"/><path class="cls-140" d="M921.71,100.86l.7.87-.12,1.94a9.2,9.2,0,0,1-1.74-.42c-1-.44-1.95-1-2.93-1.52Z" transform="translate(0.14 1.2)"/><path class="cls-141" d="M908.66,105.74l-2.26.87.6-2.48.75-1.54c.29.51.58,1,.88,1.53Z" transform="translate(0.14 1.2)"/><path class="cls-142" d="M907.82,114V118l-2.53-3.2Z" transform="translate(0.14 1.2)"/><path class="cls-143" d="M911,97.63l1.71.8-1,1.84Z" transform="translate(0.14 1.2)"/><path class="cls-9" d="M917.63,106.61l-3.39.76,3.4-1.51C917.64,106.11,917.64,106.36,917.63,106.61Z" transform="translate(0.14 1.2)"/><path class="cls-144" d="M907.75,102.59l-.75,1.54Z" transform="translate(0.14 1.2)"/><path class="cls-145" d="M908.66,105.74l0-1.62Z" transform="translate(0.14 1.2)"/><path class="cls-146" d="M911.21,106c0,.1.11.28.08.3a1.2,1.2,0,0,1-.35.12c0-.11-.11-.28-.08-.3A1,1,0,0,1,911.21,106Z" transform="translate(0.14 1.2)"/><path class="cls-130" d="M917.68,91.74l.72.37Z" transform="translate(0.14 1.2)"/><path class="cls-147" d="M912.15,120.7l.79,1c-.3.16-.63.47-.91.44s-.51-.43-.76-.66Z" transform="translate(0.14 1.2)"/><path class="cls-143" d="M908.71,119.68l1.48.9-.75.76-1.76-1.56Z" transform="translate(0.14 1.2)"/><path class="cls-148" d="M908.71,119.68l-1,.1-1.51-.34c.12-.17.28-.49.35-.47C907.25,119.18,908,119.44,908.71,119.68Z" transform="translate(0.14 1.2)"/><path class="cls-149" d="M909.44,121.34l.75-.76Z" transform="translate(0.14 1.2)"/><path class="cls-57" d="M997.88,127.91a2.22,2.22,0,0,0,0,.81.59.59,0,0,0-.18.59,1.39,1.39,0,0,1-.64-.09l-1.5-.39,1.75-1.06Z" transform="translate(0.14 1.2)"/><path class="cls-150" d="M995.61,128.83l1.5.39-.27,1.46-.64-.29h0l-.71-1.16A.33.33,0,0,0,995.61,128.83Z" transform="translate(0.14 1.2)"/><path class="cls-57" d="M996.2,130.39l.64.29a.54.54,0,0,0,.2.51c.06.49.11,1,.17,1.46l-.2.18Z" transform="translate(0.14 1.2)"/><path class="cls-57" d="M994.58,125.45l-.19.34.19-.34Z" transform="translate(0.14 1.2)"/><path class="cls-57" d="M995.49,129.22l.71,1.16Z" transform="translate(0.14 1.2)"/><path class="cls-151" d="M995.38,124.65l-.8.8h0v-.81h.8Z" transform="translate(0.14 1.2)"/><path class="cls-57" d="M995.38,124.65h-.8l.81-.83h0Z" transform="translate(0.14 1.2)"/><path class="cls-152" d="M972.43,141.74a4.77,4.77,0,0,0-.66.26l-1.17-1.14c.06-.23.12-.46.16-.69l0,0,.8-.78,0,0,.85,0Z" transform="translate(0.14 1.2)"/><path class="cls-94" d="M972.48,139.36l-.85,0Z" transform="translate(0.14 1.2)"/><path class="cls-94" d="M971.6,139.36l-.8.78c0-.26,0-.51,0-.77C971.08,139.36,971.34,139.35,971.6,139.36Z" transform="translate(0.14 1.2)"/><path class="cls-89" d="M945.43,72.17l0-.79Z" transform="translate(0.14 1.2)"/><path class="cls-89" d="M944.74,73l.71-.88Z" transform="translate(0.14 1.2)"/><path class="cls-153" d="M964.08,72.9l-1.43.1-.86-.16.06-1.39,0-.86h0l.84,0,.42,1,.34-1,1.62.06c0,.22,0,.44,0,.65Z" transform="translate(0.14 1.2)"/><path class="cls-52" d="M968.47,78.8c0,1.31,0,2.61,0,3.92l-.13.1a1.83,1.83,0,0,0-.66,0,1.76,1.76,0,0,0-.26-.77l0-.87.23-2.15a2.46,2.46,0,0,1,.68-.31Z" transform="translate(0.14 1.2)"/><path class="cls-76" d="M972.41,83.78l-.65-.16L971.58,82l.31-1.51-.07.1.29,0,.28-.09-.06,0,1.18,1.35a1.2,1.2,0,0,0-.45.29C972.84,82.69,972.62,83.23,972.41,83.78Z" transform="translate(0.14 1.2)"/><path class="cls-62" d="M962.69,70.64l-.84,0,2.46-.9c.25.31.5.63.76.94l-1.62-.06A.92.92,0,0,0,962.69,70.64Z" transform="translate(0.14 1.2)"/><path class="cls-52" d="M971.89,80.5,971.58,82Z" transform="translate(0.14 1.2)"/><path class="cls-154" d="M966,78.86l-.06-1.76a2.44,2.44,0,0,0,.76-.09l.19.22a1.79,1.79,0,0,0,0,.69.46.46,0,0,0-.22.53A5.23,5.23,0,0,1,966,78.86Z" transform="translate(0.14 1.2)"/><path class="cls-155" d="M968.29,76.25l.85,0c.05.26.11.53.17.79a.71.71,0,0,0-.2.6l-.74.22-.14-.14.06-1A3,3,0,0,1,968.29,76.25Z" transform="translate(0.14 1.2)"/><path class="cls-154" d="M964.08,72.9l1-1.61,0,1.71Z" transform="translate(0.14 1.2)"/><path class="cls-154" d="M968.29,76.25a3,3,0,0,0,0,.52l-.72.46a2.06,2.06,0,0,0-.7,0l-.19-.22Z" transform="translate(0.14 1.2)"/><path class="cls-52" d="M971.64,71.39l1,.72-1,.07C971.65,71.92,971.65,71.65,971.64,71.39Z" transform="translate(0.14 1.2)"/><path class="cls-52" d="M972.39,80.55l-.28.09-.29,0c-.05-.35-.11-.69-.16-1Z" transform="translate(0.14 1.2)"/><path class="cls-52" d="M968.37,77.91l.74-.22-.64,1.11-.12-.09A7.12,7.12,0,0,1,968.37,77.91Z" transform="translate(0.14 1.2)"/><path class="cls-52" d="M969.31,77.09c-.06-.26-.12-.53-.17-.79a4.15,4.15,0,0,1,.42.52S969.4,77,969.31,77.09Z" transform="translate(0.14 1.2)"/><path class="cls-61" d="M907.68,127.85l.92.08Z" transform="translate(0.14 1.2)"/><path class="cls-61" d="M906.17,127.1l1,.74Z" transform="translate(0.14 1.2)"/><path class="cls-61" d="M906.15,126.32a4.93,4.93,0,0,0,0,.77l-.82-.78A4.38,4.38,0,0,0,906.15,126.32Z" transform="translate(0.14 1.2)"/><path class="cls-156" d="M920,86.13c-.26.8-.52,1.6-.79,2.41V86.12H920Z" transform="translate(0.14 1.2)"/><path class="cls-157" d="M920,86.13h-.79l-.84,0c.36-.41.73-.82,1.1-1.22Z" transform="translate(0.14 1.2)"/><path class="cls-158" d="M919.15,89.2c0,.41,0,.82,0,1.23l-1.42-.26a2,2,0,0,1-.09-.77h0Z" transform="translate(0.14 1.2)"/><path class="cls-156" d="M919.15,89.2l-1.51.21,1.59-.86A4.81,4.81,0,0,1,919.15,89.2Z" transform="translate(0.14 1.2)"/><path class="cls-156" d="M917.59,86.1l.82,0-.66.84-.32,0C917.48,86.66,917.53,86.38,917.59,86.1Z" transform="translate(0.14 1.2)"/><path class="cls-156" d="M916,88.58l.8-.67Z" transform="translate(0.14 1.2)"/><path class="cls-156" d="M916,89.47a6,6,0,0,1-.26-.66s.2-.15.31-.23C916,88.88,916,89.17,916,89.47Z" transform="translate(0.14 1.2)"/><path class="cls-156" d="M917.65,89.4a2,2,0,0,0,.09.77Z" transform="translate(0.14 1.2)"/><path class="cls-159" d="M970.6,140.86l1.17,1.14-1,3.05L970,146c-3.9-1,.21-3.24-.74-4.7Z" transform="translate(0.14 1.2)"/><path class="cls-94" d="M970.6,140.86l-1.32.41,1.48-1.1C970.72,140.4,970.66,140.63,970.6,140.86Z" transform="translate(0.14 1.2)"/><path class="cls-7" d="M917.59,86.1c-.06.28-.11.56-.16.83l-.51-.74C917.14,86.15,917.37,86.12,917.59,86.1Z" transform="translate(0.14 1.2)"/><path class="cls-52" d="M973.51,81.85l-1.18-1.35,2.33-.14Z" transform="translate(0.14 1.2)"/><path class="cls-160" d="M954.51,74.76c-.3,1-.59,2.08-.88,3.12l-.82.09,0,0-.75-.87-.52-.94,1.51-3a4.06,4.06,0,0,1,.7.09Z" transform="translate(0.14 1.2)"/><path class="cls-96" d="M954.51,74.76l-.8-1.57,1.58-.25a.52.52,0,0,0,.54.25h0a.61.61,0,0,0,.12.58v0Z" transform="translate(0.14 1.2)"/><path class="cls-5" d="M929.09,72.18l.3.2-.3-.2Z" transform="translate(0.14 1.2)"/><path class="cls-113" d="M947.17,130.45l1.57-.07q2.44,16.8,4.9,33.59h-2.45c-.82-5.29-1.66-10.58-2.45-15.87-.84-5.64-1.64-11.27-2.46-16.91Z" transform="translate(0.14 1.2)"/><path class="cls-114" d="M946.28,131.19c.82,5.64,1.62,11.27,2.46,16.91.79,5.29,1.63,10.58,2.45,15.87l-2.47,0c-.81-6.29-1.6-12.57-2.45-18.85-.49-3.59-1.23-7.15-1.53-10.76C944.65,133.34,945.73,132.25,946.28,131.19Z" transform="translate(0.14 1.2)"/><path class="cls-150" d="M997.21,132.65c-.06-.49-.11-1-.17-1.46l.83,1.45-.33,0Z" transform="translate(0.14 1.2)"/><path class="cls-150" d="M997.75,129.31a.59.59,0,0,1,.18-.59h.78a3,3,0,0,0,0,.79Z" transform="translate(0.14 1.2)"/><path class="cls-161" d="M998.7,129.52a3,3,0,0,1,0-.79,1.3,1.3,0,0,0,.52,0l.06.89Z" transform="translate(0.14 1.2)"/><path class="cls-162" d="M921.1,78.19a.64.64,0,0,1,.51-.15Z" transform="translate(0.14 1.2)"/><path class="cls-163" d="M961.85,71.45l-.06,1.39-1.34-.51Z" transform="translate(0.14 1.2)"/><path class="cls-164" d="M966.75,86.11h-.83V85.3h0l.4,0,.41,0C966.74,85.58,966.75,85.84,966.75,86.11Z" transform="translate(0.14 1.2)"/><path class="cls-68" d="M956,73.76a.61.61,0,0,1-.12-.58l.6.19Z" transform="translate(0.14 1.2)"/><path class="cls-165" d="M938.91,88.63c1.28.4,3.73-.91,3.2,2.17l-1.62,1v0l-1.39,0C939,90.71,939,89.67,938.91,88.63Z" transform="translate(0.14 1.2)"/><path class="cls-166" d="M944.63,98.38l-.06,2.26-1.43.2.06-2.26-.08,0,1.55-.16Z" transform="translate(0.14 1.2)"/><path class="cls-167" d="M943.2,98.58l-.06,2.26c-.32-.81-.64-1.62-.95-2.43Z" transform="translate(0.14 1.2)"/><path class="cls-117" d="M951.5,76.12c.17.31.34.63.52.94l.75.87,0,0c0,.25,0,.51,0,.77q0,3.67,0,7.35c0,.52-.05,1-.08,1.56C950,84.09,949.43,79,951.5,76.12Z" transform="translate(0.14 1.2)"/><path class="cls-168" d="M966,78.86a5.23,5.23,0,0,0,.63-.41l.83,2.72,0,.87a.92.92,0,0,0-.58.51,1,1,0,0,0-.23.42,5.32,5.32,0,0,0-.66-.37Z" transform="translate(0.14 1.2)"/><path class="cls-4" d="M972.41,83.78c.21-.55.43-1.09.65-1.64a1.8,1.8,0,0,1,.25.68l.73.86c0,.27.05.53.09.79l-1.59,0A.89.89,0,0,1,972.41,83.78Z" transform="translate(0.14 1.2)"/><path class="cls-169" d="M967.73,82.81a1.83,1.83,0,0,1,.66,0l-1.67.84a1.8,1.8,0,0,1-.06-.69.88.88,0,0,1,.23-.41Z" transform="translate(0.14 1.2)"/><path class="cls-62" d="M966.74,85.31l-.41,0-.4,0Z" transform="translate(0.14 1.2)"/><path class="cls-154" d="M966.66,83a1.8,1.8,0,0,0,.06.69L966,82.6A5.32,5.32,0,0,1,966.66,83Z" transform="translate(0.14 1.2)"/><path class="cls-66" d="M952.82,78.74c0-.26,0-.52,0-.77l.82-.09Z" transform="translate(0.14 1.2)"/><path class="cls-170" d="M955.31,109.05h.76l-1.41,2.31C954.88,110.58,955.09,109.81,955.31,109.05Z" transform="translate(0.14 1.2)"/><path class="cls-171" d="M951.85,109l-.1.3a1.64,1.64,0,0,1-.3-.35s.14-.15.21-.23Z" transform="translate(0.14 1.2)"/><path class="cls-172" d="M959.36,111.52h1.79a4,4,0,0,0-.19.76Z" transform="translate(0.14 1.2)"/><path class="cls-173" d="M947,98.45l1,.76a7.3,7.3,0,0,1,0,.81l-1.24.43Z" transform="translate(0.14 1.2)"/><path class="cls-167" d="M944.72,96.05l-.08-.94,1.65.76Z" transform="translate(0.14 1.2)"/><path class="cls-167" d="M944.67,98.45l-1.55.16,1.34-1Z" transform="translate(0.14 1.2)"/><path class="cls-167" d="M944.58,96.76c0-.25.11-.5.17-.75A1.32,1.32,0,0,1,944.58,96.76Z" transform="translate(0.14 1.2)"/><path class="cls-76" d="M974,83.68l-.73-.86Z" transform="translate(0.14 1.2)"/><path class="cls-94" d="M967.77,121.91a.36.36,0,0,1,.35-.36l-.06.3Z" transform="translate(0.14 1.2)"/><path class="cls-167" d="M940.49,91.81l1.62-1Z" transform="translate(0.14 1.2)"/><path class="cls-174" d="M962.69,70.64a.92.92,0,0,1,.76-.06l-.34,1Z" transform="translate(0.14 1.2)"/><path class="cls-155" d="M967.44,81.17l-.83-2.72a.46.46,0,0,1,.22-.53h.73l.11,1.1Z" transform="translate(0.14 1.2)"/><path class="cls-175" d="M967.73,82.81l-.84-.25a.91.91,0,0,1,.58-.52A1.76,1.76,0,0,1,967.73,82.81Z" transform="translate(0.14 1.2)"/><path class="cls-168" d="M967.67,79l-.11-1.1,0,0a1.73,1.73,0,0,0,.64-.12l.14.14a7.12,7.12,0,0,0,0,.8A2.46,2.46,0,0,0,967.67,79Z" transform="translate(0.14 1.2)"/><path class="cls-168" d="M967.56,77.92h-.73a1.79,1.79,0,0,1,0-.69,2.06,2.06,0,0,1,.7,0c0,.22,0,.44,0,.66Z" transform="translate(0.14 1.2)"/><path class="cls-176" d="M967.59,77.89c0-.22,0-.44,0-.66l.72-.46-.06,1A1.73,1.73,0,0,1,967.59,77.89Z" transform="translate(0.14 1.2)"/><path class="cls-66" d="M952.77,77.93l-.75-.87Z" transform="translate(0.14 1.2)"/><path class="cls-1" d="M951.56,62.85c-28.93.2-52.13,24.16-51.91,53.6a52.58,52.58,0,1,0,105.14-1.64C1004.49,86,980.57,62.66,951.56,62.85Zm.67,101.75a48.88,48.88,0,1,1,48.66-48.88A48.76,48.76,0,0,1,952.23,164.6Z" transform="translate(0.14 1.2)"/><path class="cls-1" d="M53.45,67.38c0-15.44,9.68-28.72,28.09-28.72,7,0,12.48,2.08,18.32,7.12a5.19,5.19,0,1,1-7.12,7.52c-3.28-3.44-6.64-4.4-11.2-4.4-12.33,0-18.25,8.72-18.25,18.48,0,9.92,5.84,19,18.25,19A18.63,18.63,0,0,0,94,81.3a5.39,5.39,0,0,1,7.36,1c1.28,1.76,1.92,4.72-.88,7.52C94.9,95,88.18,96,81.54,96,62.17,96,53.45,82.82,53.45,67.38Z" transform="translate(0.14 1.2)"/><path class="cls-1" d="M110.65,95.46a5.64,5.64,0,0,1-2.56-7.68l23-44.88c2.16-4.24,7.92-4.4,9.92,0l22.57,44.88c3.28,6.24-6.41,11.2-9.29,5l-3.52-7H121.21l-3.44,7C116.49,95.46,113.53,96,110.65,95.46Zm34.4-20.32-9-19.76-9.84,19.76Z" transform="translate(0.14 1.2)"/><path class="cls-1" d="M175.61,95.46a4.77,4.77,0,0,1-4.88-5V45.06a4.73,4.73,0,0,1,4.88-5h22.48c10.48,0,16.16,7.12,16.16,15.28a12.69,12.69,0,0,1-4.4,10.08c6.32,2.48,9.12,7.36,9.12,13.28,0,9.2-6.24,16.72-18.24,16.72Zm22.48-45.6H181.21V61.78h16.88c3.44,0,5.6-2.16,5.6-6.4A5.59,5.59,0,0,0,198.09,49.86ZM181.21,85.7h19.52c9.28,0,9.28-14.16,0-14.16H181.21Z" transform="translate(0.14 1.2)"/><path class="cls-1" d="M228.41,44.9a5,5,0,0,1,5-4.88,4.87,4.87,0,0,1,4.72,4.88V85h21.76c7.84,0,8,10.48,0,10.48H233.45a4.84,4.84,0,0,1-5-4.88Z" transform="translate(0.14 1.2)"/><path class="cls-1" d="M279,95.46a4.88,4.88,0,0,1-5-5V45.06a4.84,4.84,0,0,1,5-5h28.72c7.36,0,7.2,10.4,0,10.4h-23v12h20.16c7.12,0,7.12,10.48,0,10.48H284.65V85h24.4c7.28,0,7.84,10.48,0,10.48Z" transform="translate(0.14 1.2)"/><path class="cls-1" d="M344.65,67.38c0-15.44,9.68-28.72,28.08-28.72,7,0,12.48,2.08,18.32,7.12a5.19,5.19,0,1,1-7.12,7.52c-3.28-3.44-6.64-4.4-11.2-4.4-12.32,0-18.24,8.72-18.24,18.48,0,9.92,5.84,19,18.24,19a18.63,18.63,0,0,0,12.48-5.12,5.39,5.39,0,0,1,7.36,1c1.28,1.76,1.92,4.72-.88,7.52-5.6,5.2-12.32,6.24-19,6.24C353.37,96,344.65,82.82,344.65,67.38Z" transform="translate(0.14 1.2)"/><path class="cls-1" d="M431.13,96.26c-14.8.64-30.16-9.2-30.16-28.8S416.33,38.1,431.13,38.1c14,.72,28.64,10.4,28.64,29.36S445.13,96.26,431.13,96.26Zm-.88-47.76c-9,0-18.72,6.32-18.72,19s9.76,19,18.72,19c9.2,0,19-6.4,19-19S439.45,48.5,430.25,48.5Z" transform="translate(0.14 1.2)"/><path class="cls-1" d="M473,73.14c-6.72,0-6.64-9.68,0-9.68h20.16c6.4,0,6.08,9.68,0,9.68Z" transform="translate(0.14 1.2)"/><path class="cls-1" d="M535.61,96.26c-14.8.64-30.16-9.2-30.16-28.8S520.81,38.1,535.61,38.1c14,.72,28.64,10.4,28.64,29.36S549.61,96.26,535.61,96.26Zm-.88-47.76c-9,0-18.72,6.32-18.72,19s9.76,19,18.72,19c9.2,0,19-6.4,19-19S543.93,48.5,534.73,48.5Z" transform="translate(0.14 1.2)"/><path class="cls-1" d="M574.09,44.9a5.5,5.5,0,0,1,5.44-5.52H598c10.4,0,19.76,7,19.76,20.32,0,12.64-9.36,19.68-19.76,19.68H584.65V89.94c0,3.52-2.24,5.52-5.12,5.52a5.4,5.4,0,0,1-5.44-5.52Zm10.56,4.56V69.38H598a9.86,9.86,0,0,0,9.6-9.68c0-5.6-4.24-10.24-9.6-10.24Z" transform="translate(0.14 1.2)"/></svg>