<svg id="Fire_Dept" data-name="Fire Dept" xmlns="http://www.w3.org/2000/svg" viewBox="0 0 1080 215.83"><defs><style>.cls-1{fill:#fff;}.cls-2{fill:#f9de7f;}.cls-3{fill:#5bb951;}.cls-17,.cls-4{fill:#060605;}.cls-4{stroke:#000;stroke-miterlimit:10;}.cls-5{fill:#283272;}.cls-6{fill:#f5f6f8;}.cls-7{fill:#273171;}.cls-8{fill:#273271;}.cls-9{fill:#0c0a08;}.cls-10{fill:#f9fafa;}.cls-11{fill:#e0cd79;}.cls-12{fill:#f2da7d;}.cls-13{fill:#0e0d0b;}.cls-14{fill:#89181b;}.cls-15{fill:#263171;}.cls-16{fill:#161311;}</style></defs><rect class="cls-1" y="141.57" width="1080" height="23.04"/><rect class="cls-2" width="1080" height="141.12"/><circle class="cls-1" cx="952.93" cy="117.12" r="98.7"/><ellipse class="cls-1" cx="952.97" cy="115.63" rx="83.18" ry="83.55"/><path class="cls-3" d="M952.82,30A85.94,85.94,0,1,0,1038.75,116,85.94,85.94,0,0,0,952.82,30Zm0,166.77A80.83,80.83,0,1,1,1033.64,116,80.83,80.83,0,0,1,952.82,196.78Z" transform="translate(-0.37 -0.14)"/><path class="cls-4" d="M884.59,111.34a49.64,49.64,0,0,1,4.66-16.7c2-4,4.25-7.88,6.49-11.74a23.59,23.59,0,0,0,3.31-8.65,7.82,7.82,0,0,0,.05-1.37,8.24,8.24,0,0,1,3.12-6.79,7.87,7.87,0,0,0,1-1,7.81,7.81,0,0,1,6.23-3,17.56,17.56,0,0,0,8.94-2.55C922.25,57.3,926,55,929.87,53a47.7,47.7,0,0,1,17.24-5.33c.37,0,.75-.13,1.12-.2h1.14l.91-.18h5l1.11.2h.94c10.43,1,19.5,5.49,28.16,11a21.78,21.78,0,0,0,8.8,3.48,7.59,7.59,0,0,0,1.35.06,7.79,7.79,0,0,1,5.66,2,42.12,42.12,0,0,1,3.5,3.57,7.15,7.15,0,0,1,1.75,5,16.91,16.91,0,0,0,2.38,8.68c2.16,3.92,4.55,7.72,6.61,11.7a49.66,49.66,0,0,1,5.59,26,52.12,52.12,0,0,1-6.63,22.31c-1.76,3.23-3.74,6.34-5.53,9.56a16.74,16.74,0,0,0-2.42,8.9,6.36,6.36,0,0,1-.31,2c-1.24,4.33-6.62,8.29-11.09,8.32a15.39,15.39,0,0,0-7.42,2.24c-3.67,2.06-7.24,4.29-10.94,6.28a49.58,49.58,0,0,1-18.26,5.85,48.92,48.92,0,0,1-28.32-5.17c-3.9-2-7.66-4.31-11.47-6.5a18.09,18.09,0,0,0-9.47-2.74,7.39,7.39,0,0,1-5.23-2.18c-1-.92-2-1.89-2.88-2.9a7.48,7.48,0,0,1-2.06-5.18,18.56,18.56,0,0,0-2.86-9.7c-2-3.56-4.18-7.06-6.07-10.69a52.1,52.1,0,0,1-5.6-18.77v-1l-.2-1.12v-5l.18-.92Zm120-39.76c0-2.91-4.72-7.66-8.13-7.65-.34,0-.68.06-1,.08A8.9,8.9,0,0,1,994,64a24.38,24.38,0,0,1-9-3.39c-3.73-2.19-7.45-4.44-11.32-6.35A46.34,46.34,0,0,0,944,50.21a56.5,56.5,0,0,0-18.1,7.23c-2.56,1.5-5,3.14-7.68,4.48s-5.61,2.41-8.83,2c-3.38-.38-4.88,2.55-6.91,4.41a5.1,5.1,0,0,0-1.34,5,3.3,3.3,0,0,1,0,1.13,22.89,22.89,0,0,1-2.93,8.35c-1.85,3.15-3.78,6.26-5.49,9.49-7.16,13.52-8.28,27.45-2.58,41.79,2.09,5.27,5.14,10,8,14.89,1.93,3.32,3.28,6.78,3,10.81-.26,3.4,4.64,8.18,8.06,8.18.3,0,.6-.07.9-.06a14.37,14.37,0,0,1,2.37.11,21.81,21.81,0,0,1,7.32,2.75c2.83,1.69,5.66,3.42,8.54,5A50.31,50.31,0,0,0,951,182.52,49.09,49.09,0,0,0,977.06,176c3.25-1.8,6.38-3.83,9.65-5.61,3-1.62,6.13-2.77,9.67-2.41,3.3.34,4.71-2.55,6.72-4.31a5.13,5.13,0,0,0,1.49-4.62,6.61,6.61,0,0,1,.13-2.59,55.07,55.07,0,0,1,2.75-7.22c1.53-3.06,3.47-5.9,5.11-8.91,7.5-13.79,8.91-28.07,2.78-42.68-2.11-5-5.07-9.7-7.72-14.5C1005.74,79.69,1004.22,76.17,1004.63,71.58Z" transform="translate(-0.37 -0.14)"/><path class="cls-5" d="M956.41,47.43l-1.11-.2h1.14A.18.18,0,0,0,956.41,47.43Z" transform="translate(-0.37 -0.14)"/><path class="cls-6" d="M949.37,47.41h-1.14v-.19h1.14A.54.54,0,0,0,949.37,47.41Z" transform="translate(-0.37 -0.14)"/><path class="cls-6" d="M956.41,47.43a.18.18,0,0,1,0-.2h.91v.19Z" transform="translate(-0.37 -0.14)"/><path class="cls-5" d="M949.37,47.41a.54.54,0,0,1,0-.18h.91Z" transform="translate(-0.37 -0.14)"/><path class="cls-2" d="M1004.63,71.58c-.41,4.59,1.11,8.11,3,11.55,2.65,4.8,5.61,9.47,7.72,14.5,6.13,14.61,4.72,28.89-2.78,42.68-1.64,3-3.58,5.85-5.11,8.91a55.07,55.07,0,0,0-2.75,7.22,6.61,6.61,0,0,0-.13,2.59,5.13,5.13,0,0,1-1.49,4.62c-2,1.76-3.42,4.65-6.72,4.31-3.54-.36-6.68.79-9.67,2.41-3.27,1.78-6.4,3.81-9.65,5.61A49.09,49.09,0,0,1,951,182.52a50.31,50.31,0,0,1-22.72-6.72c-2.88-1.6-5.71-3.33-8.54-5a21.81,21.81,0,0,0-7.32-2.75,14.37,14.37,0,0,0-2.37-.11c-.3,0-.6.06-.9.06-3.42,0-8.32-4.78-8.06-8.18.3-4-1.05-7.49-3-10.81-2.82-4.88-5.87-9.62-8-14.89-5.7-14.34-4.58-28.27,2.58-41.79,1.71-3.23,3.64-6.34,5.49-9.49a22.89,22.89,0,0,0,2.93-8.35,3.3,3.3,0,0,0,0-1.13,5.1,5.1,0,0,1,1.34-5c2-1.86,3.53-4.79,6.91-4.41,3.22.37,6.09-.66,8.83-2s5.12-3,7.68-4.48A56.5,56.5,0,0,1,944,50.21a46.34,46.34,0,0,1,29.7,4.07c3.87,1.91,7.59,4.16,11.32,6.35A24.38,24.38,0,0,0,994,64a8.9,8.9,0,0,0,1.46,0c.34,0,.68-.08,1-.08C999.91,63.92,1004.64,68.67,1004.63,71.58ZM923.14,83.87c-.39.35-1,.63-1.11,1.06a1.55,1.55,0,0,1-1.32,1.15L907.46,73a29,29,0,0,1-4.65,14.19c-1.61,2.63-3.19,5.28-4.64,8-6.5,12.25-7.45,24.84-1.81,37.62a139.79,139.79,0,0,0,6.94,12.71,30.72,30.72,0,0,1,4,11.34c.09.72.12,1.45.16,2l13.24-13c.33.31.61.81,1,.87,1,.18,1.14.9,1.33,1.65a3.32,3.32,0,0,0-.36.26q-6.25,6.27-12.49,12.55a2.15,2.15,0,0,0-.25.41c5.42.13,10.14,2.06,14.6,4.82,2.71,1.68,5.46,3.31,8.29,4.79,10.75,5.64,21.92,6.83,33.49,2.87a71.93,71.93,0,0,0,14.58-7.47,30.09,30.09,0,0,1,8.86-4.08c2-.48,4-.75,6.13-1.14l-13.49-13.43c.32-.32.83-.59.9-1,.19-.94.85-1.12,1.58-1.3.14.17.26.37.41.53l12.41,12.46c.15.15.32.28.58.5.09-5.81,2.3-10.75,5.21-15.47,1.72-2.79,3.36-5.63,4.82-8.56a41.18,41.18,0,0,0,2.61-32.06A68.21,68.21,0,0,0,1003.34,88c-2.89-4.64-5-9.53-5.09-15.09l-13.6,13.47c-.35-.38-.63-1-1.06-1.1a1.6,1.6,0,0,1-1.2-1.4q6.61-6.75,13.24-13.51c-5.78-.14-10.85-2.5-15.68-5.57-2.18-1.38-4.44-2.65-6.71-3.87-10-5.35-20.44-6.84-31.42-3.83-5.81,1.59-11,4.48-16.08,7.68-4.84,3.07-9.89,5.45-15.76,5.59l-.22.32Z" transform="translate(-0.37 -0.14)"/><path class="cls-7" d="M982.37,147.92c-.15,0-.35,0-.44.07-1,.85-1.9,1.71-2.83,2.57-.08.07-.1.24-.18.29L975.2,153c-.1.06-.29,0-.33.07-.56,1.17-1.76,1.22-2.72,1.75-.72.39-1.26,1-2.18.94-.23,0-.46.39-.72.48-1.48.52-3,1-4.44,1.47-.2.06-.5,0-.6.09a2.05,2.05,0,0,1-2.28.57,1.07,1.07,0,0,0-.6.16c-.2.1-.37.38-.55.38a30.21,30.21,0,0,0-3.7.51c-.57.07-1.15,0-1.78.08a27.74,27.74,0,0,1-4.37,0h-1c-.07,0-.14.09-.21.08l-4.41-.71c-.3,0-.61-.13-.91-.15s-.75.15-1,0a9.58,9.58,0,0,0-2.66-.69,26.51,26.51,0,0,1-3.86-1.65,3.25,3.25,0,0,0-.65-.14c-.18,0-.41.07-.56,0-1.27-.68-2.54-1.38-3.8-2.09-.18-.1-.35-.39-.51-.38a2.09,2.09,0,0,1-2-1.11,1.1,1.1,0,0,0-.54-.33c-.21-.07-.5,0-.65-.15-1.14-.91-2.22-1.9-3.36-2.79a15.51,15.51,0,0,0-1.78-1,3.18,3.18,0,0,0-.37.27q-6.24,6.27-12.48,12.54a1.74,1.74,0,0,0-.25.41c5.42.13,10.14,2.06,14.6,4.82,2.71,1.68,5.46,3.31,8.29,4.79,10.75,5.64,21.91,6.82,33.5,2.87,5.21-1.78,9.91-4.58,14.57-7.47a30.21,30.21,0,0,1,8.86-4.08c2-.48,4-.75,6.12-1.14Z" transform="translate(-0.37 -0.14)"/><path class="cls-8" d="M984.65,86.38l13.6-13.47c.09,5.56,2.2,10.45,5.09,15.09a68.21,68.21,0,0,1,7.55,15.08,41.18,41.18,0,0,1-2.61,32.06c-1.46,2.93-3.1,5.77-4.82,8.56-2.91,4.72-5.12,9.66-5.21,15.47-.26-.22-.43-.35-.58-.5l-12.41-12.46c-.15-.16-.27-.36-.41-.53.45-.88.67-1.9,1.76-2.33.27-.11.37-.63.56-.95s.38-.59.58-.87c.83-1.19,1.67-2.37,2.49-3.56.06-.08,0-.22.08-.32.14-.31.27-.61.42-.91.69-1.32,1.39-2.63,2.06-4,.07-.14-.07-.36-.06-.55s0-.41.17-.49c1.42-1,.75-2.84,1.64-4.13.32-.46.28-1.55.65-2.32.14-.29,0-.72,0-1.09a1.5,1.5,0,0,1,0-.71,2,2,0,0,0,.29-2.33.58.58,0,0,1,.08-.5,1.89,1.89,0,0,0,.14-2.33c-.08-.13.11-.41.12-.63.09-1.37.18-2.74.22-4.11,0-.2-.2-.39-.27-.61s-.18-.46-.11-.62a1.94,1.94,0,0,0-.28-2.32.63.63,0,0,1,0-.51c.53-1.59-.73-2.92-.7-4.48,0-.51-.55-1.15-.47-1.91,0-.35-.29-.74-.45-1.12s-.28-.74-.42-1.1A23.21,23.21,0,0,0,991.81,97a5.2,5.2,0,0,1-.82-1.73c-.08-.4-.49-.72-.75-1.09l-.53-.78q-1.22-1.92-2.41-3.84c0-.06-.14-.08-.19-.13-.82-.94-1.63-1.89-2.44-2.84C984.63,86.56,984.66,86.46,984.65,86.38Zm15.77,4a7.62,7.62,0,0,0,.2-2.52,2,2,0,0,0-2.9-1.09c-1.84.8-3.61,1.76-5.38,2.7a.86.86,0,0,0-.19.78c1.13,2.23,2.29,4.46,3.48,6.66a.82.82,0,0,0,.74.24c1.49-.57,1.49-.59.73-2.05-.25-.47-.51-.93-.73-1.41a.82.82,0,0,1-.07-.6,2.77,2.77,0,0,1,4-.29c1.71,2,1,1.73,3.23.6.05,0,.06-.12.12-.27C1002.39,92.38,1002,90.45,1000.42,90.41Zm3.19,15.88a20.06,20.06,0,0,0-3.67,1.24,2.84,2.84,0,0,0-1,2,1.69,1.69,0,0,0,1.46,1.79c1,.24,2,.35,3,.51a13.1,13.1,0,0,1,1.89.33c.64.2.82.67.36,1.24-.79,1-3.78,1-4.49,0s-1.34-.33-2-.36a5.37,5.37,0,0,0,.62,1.63,2,2,0,0,0,1.38.69A23.46,23.46,0,0,0,1006,115a2.36,2.36,0,0,0,2-2.66c-.09-1.13-.75-1.7-2.41-2-1.24-.2-2.49-.27-3.72-.49-.34-.06-.84-.44-.87-.71a1.21,1.21,0,0,1,.67-.91c1.22-.42,2.43-.72,3.63.3.39.33,1.26.1,1.91.13-.25-.51-.37-1.25-.78-1.48A14.79,14.79,0,0,0,1003.61,106.29Zm-2,29.58c2.08,0,3.08-.62,3.68-2.29.52-1.43.93-2.9,1.47-4.32.29-.78-.15-.91-.7-1.06s-1-.55-1.3.38c-.37,1.31-.8,2.61-1.27,3.9a2.23,2.23,0,0,1-3.22,1.56c-1.71-.56-2.26-1.54-1.76-3.21.4-1.35.81-2.7,1.3-4,.35-1-.45-.79-.84-.94s-1-.69-1.23.26c-.45,1.57-1,3.11-1.49,4.67a3,3,0,0,0,1.12,3.45A7.56,7.56,0,0,0,1001.65,135.87Zm-1.78-35.29a7,7,0,0,1-.5-1.44.93.93,0,0,1,.47-.74c1.33-.44,2.7-.78,4-1.22a1,1,0,0,0,.44-.73c0-.49-.19-.73-.79-.55-2,.63-4.08,1.2-6.12,1.77-.52.14-.62.35-.46.89.7,2.29,1.36,4.6,2,6.91.17.62.4.78,1,.59,2-.62,4-1.2,6-1.76.54-.15.78-.31.6-.93s-.57-.53-1-.38c-1.27.38-2.56.7-3.82,1.12-.66.22-1,.14-1.09-.6a3.33,3.33,0,0,0-.25-.87c-.27-.58-.08-.8.51-1,1.1-.27,2.19-.59,3.28-.94.4-.12,1,0,.75-.91s-.66-.52-1.11-.39ZM996.32,135c-.11.15-.24.27-.33.42-1.26,2.21-2.53,4.42-3.76,6.65a.77.77,0,0,0,.25.73c1.88,1.14,3.8,2.21,5.7,3.33.48.29.68.19,1-.27s.15-.72-.3-1c-1.26-.69-2.49-1.45-3.75-2.14-.46-.25-.65-.47-.29-.94a4.63,4.63,0,0,0,.57-1c.25-.59.57-.53,1-.24,1,.62,2,1.17,3.05,1.77.43.25.71.42,1.06-.18s0-.79-.41-1c-1-.59-2-1.22-3.07-1.74-.8-.4-.43-.82-.13-1.25s.31-1.19,1.18-.64c1.12.72,2.3,1.34,3.44,2,.41.24.72.49,1.09-.13s0-.79-.39-1c-1.78-1-3.56-2-5.33-3.06Zm7.14-18.35,0,.16h-.8a4.16,4.16,0,0,0-4.19,3.87,4,4,0,0,0,3,4.63,13.89,13.89,0,0,0,4,.41,2.48,2.48,0,0,0,2.4-1.64c.08-.21-.08-.51-.12-.77-.71.17-1.65-.77-2.15.46-.07.18-.32.32-.51.42a3.5,3.5,0,0,1-4.16-1.4,3.35,3.35,0,0,1,1.41-4.33c1.25-.56,3.23-.21,3.69.81s1.23.49,1.83.73c.1,0,.43-.18.42-.21a5.88,5.88,0,0,0-.63-1.64,2.37,2.37,0,0,0-1.2-.81C1005.46,117,1004.45,116.86,1003.46,116.64Z" transform="translate(-0.37 -0.14)"/><path class="cls-5" d="M923.14,83.87,909.76,70.69l.22-.32c5.87-.14,10.92-2.52,15.76-5.59,5-3.2,10.27-6.09,16.08-7.68,11-3,21.45-1.52,31.42,3.83,2.27,1.22,4.53,2.49,6.71,3.87,4.83,3.07,9.9,5.43,15.68,5.57Q989,77.13,982.39,83.88c-.88-.63-2-.92-2.48-2.09-.09-.23-.6-.26-.88-.44-1-.67-2.06-1.35-3.08-2,0,0,0-.08-.06-.1l-4-2.41s-.16,0-.22,0c-.26-.1-.51-.2-.75-.31a22.26,22.26,0,0,0-4.11-1.75c-1.26-.28-2.32-1.45-3.76-.92,0,0-.11-.12-.17-.13-1.39-.36-2.79-.73-4.19-1.06-.16,0-.35.11-.54.14s-.51.11-.64,0c-1.32-1-2.91.09-4.29-.56-.3-.14-1,.47-1.23.31-1.4-1-2.75.34-4.21,0a8,8,0,0,0-2.95.41,7.36,7.36,0,0,1-2.52.46c-.3,0-.64.35-1,.5a7.35,7.35,0,0,1-.91.28c-.62.18-1.25.35-1.86.55-.26.08-.49.24-.74.34l-4.25,1.61c-.09,0-.13.21-.23.25a7.1,7.1,0,0,0-3.17,1.86s-.08,0-.11,0c-1.26.76-2.52,1.54-3.78,2.31,0,0,0,.07-.06.09l-2.87,2.65S923.21,83.87,923.14,83.87Zm20.54-15.26c-.72-2-1.49-4-2.13-6-.33-1-1-.74-1.59-.56-.87.26-.16.77-.06,1,.93,2.41,2,4.79,2.88,7.2a1,1,0,0,0,1.35.75c.67-.13,1.06-.29,1.07-1.11,0-2.67.19-5.33.26-8,0-.27-.22-.56-.34-.84-.48.22-1.31-.16-1.29.87,0,2.16,0,4.33,0,6.5ZM980,70.86l0,0c-.64,2.23-1.29,4.45-1.9,6.69-.31,1.11.86,1,1.33,1.5.06.06.66-.24.83-.49,1.44-2.15,2.83-4.34,4.26-6.49.36-.52.46-.83-.18-1.24s-.84-.13-1.13.35c-1,1.64-2,3.28-3.07,4.92.34-1.81.83-3.56,1.33-5.3s.48-1.68-1-2.44a.79.79,0,0,0-.77.16Q977.29,72,975,75.57a.76.76,0,0,0,.1.71c.55.56,1,.59,1.44-.22C977.62,74.28,978.81,72.58,980,70.86ZM955.38,62.8c.53,2.47,1,4.72,1.5,7,.23,1.21,1.17.7,1.82.78.18,0,.6-.54.63-.87.26-2.57.42-5.16.7-7.74.09-.81-.31-.83-.87-.93-.74-.12-.68.35-.71.82-.14,2-.29,4-.43,6-.56-2.07-1.06-4.13-1.43-6.22-.24-1.33-1.22-.84-1.94-.95s-.59.66-.63,1c-.25,2.54-.4,5.09-.67,7.63-.07.72.22.78.77.88s.75-.2.78-.74C955,67.35,955.2,65.19,955.38,62.8ZM935.59,73.27c-.35-.65-.67-1.26-1-1.86-.4-.76-.58-1.71-1.67-1.85-.07,0-.12-.27-.16-.41a17,17,0,0,0-.65-2.78,1.58,1.58,0,0,0-2.28-.84c-.71.28-1.38.65-2.09.9s-.77.51-.45,1.16c1.13,2.33,2.21,4.68,3.27,7,.27.62.48.86,1.23.53s.58-.76.31-1.3a14.24,14.24,0,0,1-.84-1.87,2.49,2.49,0,0,1,.08-1c.42.1,1,.07,1.24.32a5.16,5.16,0,0,1,.76,1.39C934.08,74.19,934.08,74.19,935.59,73.27Zm41.14-5.14a2.47,2.47,0,0,0-1.61-2.64,2.12,2.12,0,0,0-2.62.41,12.36,12.36,0,0,0-2.83,6.36,2.54,2.54,0,0,0,4.11,1.9A13.43,13.43,0,0,0,976.73,68.13Zm-49.07,4.21a24.31,24.31,0,0,0-1.5-2.7c-.87-1.2-1.68-1.32-2.95-.6a19.11,19.11,0,0,0-2,1.31.8.8,0,0,0-.22.76c1.48,2.39,3,4.77,4.53,7.12a.87.87,0,0,0,.78.16c.82-.29,1.13-.75.45-1.55-.4-.46-.63-1-1-1.52s-.32-.9.28-1.32A11.74,11.74,0,0,0,927.66,72.34Zm10.12-9.76c-1.36.43-2.52.78-3.66,1.19-.12,0-.2.52-.14.74.8,2.62,1.61,5.23,2.47,7.82a.9.9,0,0,0,.76.46c1.06-.27,2.11-.63,3.13-1a.74.74,0,0,0,.38-.61c-.07-.76-.37-1.09-1.25-.76-1.66.61-1.68.55-2.21-1.17a.74.74,0,0,0-.07-.21c-.25-.49-.12-.78.42-.91a6.59,6.59,0,0,0,.86-.27c.71-.24,1-1,.4-1.39-.24-.18-.84-.06-1.2.1-.83.38-1.23.25-1.52-.69s-.15-1.33.79-1.47a2,2,0,0,0,1-.32,1,1,0,0,0,.24-.8C938.12,63,937.89,62.79,937.78,62.58Zm9.82,2.87h0c0,.57,0,1.14.12,1.71.14,1.08.33,2.15.5,3.22l3.52-.18c.08,0,.18,0,.22,0s.33-.3.35-.47c.05-.65,0-1.2-1-1-.59.1-1.63.11-1.75-.17a4.08,4.08,0,0,1-.13-2.23c0-.16.86-.17,1.29-.32s.87-.32.95-.58c.18-.63,0-1.06-.89-1-.5.07-1.32,0-1.5-.25-.63-1-.06-1.9,1.17-2l.57,0c.46,0,.83,0,.73-.68-.08-.48-.07-.88-.77-.8-1,.1-2,0-3,.16a1,1,0,0,0-.64.73C947.41,62.86,947.52,64.15,947.6,65.45Zm15.63,6a1.82,1.82,0,0,0,.4-.65c.46-1.92.93-3.84,1.3-5.78.18-.91.45-1.39,1.46-1,.66.3.71-.21.84-.68s.14-.76-.46-.88c-1.23-.23-2.43-.56-3.66-.83-.46-.1-1-.43-1.2.45s.13,1.05.81,1.09.79.39.62,1.06c-.5,2-.87,3.94-1.38,5.88C961.71,71.11,962,71.45,963.23,71.47Zm7.25-7.6a3.81,3.81,0,0,0-1.05-.44.78.78,0,0,0-.65.42c-.89,2.58-1.7,5.19-2.62,7.77-.26.75.14.8.61,1s.84,0,1-.54c.81-2.53,1.66-5,2.5-7.57C970.35,64.37,970.39,64.22,970.48,63.87Z" transform="translate(-0.37 -0.14)"/><path class="cls-9" d="M923.14,83.87c.07,0,.18,0,.22,0l2.87-2.65s0-.07.06-.09c1.26-.77,2.52-1.55,3.78-2.31,0,0,.1,0,.11,0a7.1,7.1,0,0,1,3.17-1.86c.1,0,.14-.21.23-.25l4.25-1.61c.25-.1.48-.26.74-.34.61-.2,1.24-.37,1.86-.55a7.35,7.35,0,0,0,.91-.28c.34-.15.68-.54,1-.5a7.36,7.36,0,0,0,2.52-.46,8,8,0,0,1,2.95-.41c1.46.34,2.81-1,4.21,0,.23.16.93-.45,1.23-.31,1.38.65,3-.46,4.29.56.13.11.42,0,.64,0s.38-.18.54-.14c1.4.33,2.8.7,4.19,1.06.06,0,.13.15.17.13,1.44-.53,2.5.64,3.76.92a22.26,22.26,0,0,1,4.11,1.75c.24.11.49.21.75.31.06,0,.17,0,.22,0l4,2.41s0,.08.06.1c1,.68,2,1.36,3.08,2,.28.18.79.21.88.44.47,1.17,1.6,1.46,2.48,2.09a1.6,1.6,0,0,0,1.2,1.4c.43.14.71.72,1.06,1.1,0,.08,0,.18,0,.22.81,1,1.62,1.9,2.44,2.84,0,0,.15.07.19.13q1.2,1.92,2.41,3.84l.53.78c.26.37.67.69.75,1.09a5.2,5.2,0,0,0,.82,1.73,23.21,23.21,0,0,1,1.56,3.92c.14.36.27.74.42,1.1s.49.77.45,1.12c-.08.76.48,1.4.47,1.91,0,1.56,1.23,2.89.7,4.48a.63.63,0,0,0,0,.51,1.94,1.94,0,0,1,.28,2.32c-.07.16,0,.42.11.62s.28.41.27.61c0,1.37-.13,2.74-.22,4.11,0,.22-.2.5-.12.63a1.89,1.89,0,0,1-.14,2.33.58.58,0,0,0-.08.5,2,2,0,0,1-.29,2.33,1.5,1.5,0,0,0,0,.71c0,.37.13.8,0,1.09-.37.77-.33,1.86-.65,2.32-.89,1.29-.22,3.14-1.64,4.13-.12.08-.16.32-.17.49s.13.41.06.55c-.67,1.32-1.37,2.63-2.06,4-.15.3-.28.6-.42.91,0,.1,0,.24-.08.32-.82,1.19-1.66,2.37-2.49,3.56-.2.28-.4.57-.58.87s-.29.84-.56.95c-1.09.43-1.31,1.45-1.76,2.33-.73.18-1.39.36-1.58,1.3-.07.36-.58.63-.9,1-.15,0-.35,0-.44.06-1,.84-1.9,1.71-2.83,2.57-.08.08-.1.24-.18.29-1.24.73-2.48,1.46-3.73,2.18-.09.05-.29,0-.32.07-.56,1.17-1.76,1.22-2.72,1.75-.72.39-1.26,1-2.19.94-.22,0-.45.39-.71.48-1.47.51-3,1-4.44,1.47-.2.06-.5,0-.6.09a2.05,2.05,0,0,1-2.28.57,1,1,0,0,0-.6.16c-.2.1-.37.38-.55.38a30.92,30.92,0,0,0-3.71.51c-.56.07-1.15,0-1.77.07a26.71,26.71,0,0,1-4.38,0h-1c-.07,0-.14.09-.21.08l-4.41-.71a9.09,9.09,0,0,0-.91-.15c-.34,0-.75.15-1,0a9.58,9.58,0,0,0-2.66-.69,27.59,27.59,0,0,1-3.86-1.64,2,2,0,0,0-.64-.14c-.19,0-.42.06-.56,0-1.28-.68-2.55-1.38-3.81-2.09-.19-.1-.35-.39-.51-.38a2.09,2.09,0,0,1-2-1.11,1.15,1.15,0,0,0-.54-.33c-.21-.08-.5,0-.65-.15-1.13-.91-2.21-1.89-3.36-2.79a15.51,15.51,0,0,0-1.78-1c-.19-.75-.34-1.47-1.33-1.65-.37-.06-.65-.56-1-.87,0-.55,0-1.09-.78-1.11a.14.14,0,0,1-.1-.05c-.87-1.19-1.74-2.38-2.6-3.59-.15-.19-.16-.56-.34-.64a2.15,2.15,0,0,1-1.29-2,1,1,0,0,0-.27-.47c-.07-.08-.24-.09-.28-.17q-1.06-2.13-2.09-4.27c-.11-.21-.14-.45-.23-.67-.25-.6-.52-1.18-.75-1.78-.12-.3-.19-.62-.3-.93-.2-.58-.42-1.16-.62-1.74-.13-.37-.24-.75-.38-1.12s-.5-.79-.44-1.13c.14-.79-.4-1.52-.35-2.09.14-1.53-1.1-2.91-.35-4.45a.65.65,0,0,0-.09-.6,1.77,1.77,0,0,1-.18-2,2.62,2.62,0,0,0,0-.84c0-.65,0-1.31,0-2,0-.32,0-.64,0-1,0-.11-.09-.23-.08-.33l.75-4.54a3.55,3.55,0,0,0,.1-.64c0-.22-.18-.46-.13-.66.39-1.35.82-2.68,1.24-4,.09-.31.21-.62.33-.92.23-.65.48-1.29.71-1.93.09-.26.14-.53.24-.79.23-.57.46-1.14.71-1.7,0-.09.23-.11.27-.2.51-1.07,1-2.14,1.49-3.21,0-.09,0-.25,0-.33.88-1.24,1.77-2.47,2.65-3.7l.5-.69c.4-.51.82-1,1.2-1.54s.91-1.31,1.37-2A1.55,1.55,0,0,0,922,84.93C922.17,84.5,922.75,84.22,923.14,83.87Zm67.32,16.66c-2.37-7.28-9-15.52-18.91-20.78a40.56,40.56,0,0,0-53.69,14.92c-6.33,10.5-7.49,21.85-4.1,33.57a33.52,33.52,0,0,0,4.33,9.26,46.1,46.1,0,0,0,6.51,8,41.85,41.85,0,0,0,8.13,6.06,44.19,44.19,0,0,0,9.32,3.92,38.38,38.38,0,0,0,20.33.32c10.7-3,19.36-9,25.06-18.61C993.57,126.82,995,115.66,990.46,100.53Zm1.11-2.42-.64-.8c-.1.28-.2.57-.28.86s-.2.46-.15.65a7.39,7.39,0,0,0,.47,1c.12-.27.26-.52.36-.8A9.74,9.74,0,0,0,991.57,98.11Zm-1.72,39.76c-.44-.35-.61-.54-.67-.52a11.16,11.16,0,0,0-1.66.92c-.14.1,0,.51-.06.78ZM958.32,73.76c.84.23,1,1.79,2.64,1.06C959.93,74.37,959.63,73,958.32,73.76Zm-35.78,72.3c-.09-.57-.17-1.12-.25-1.66a.38.38,0,0,0-.06-.22c-.22-.18-.44-.36-.68-.52a.41.41,0,0,0-.21.18A2.17,2.17,0,0,0,922.54,146.06Zm21.72,11.69a11.31,11.31,0,0,0-1.34-1.34,1,1,0,0,0-.89.14C941.94,157.16,943.57,158,944.26,157.75Zm19.3-.58a14.3,14.3,0,0,0-1.79-.65c-.22-.06-.52.19-.77.32a.45.45,0,0,0,0,.28A2,2,0,0,0,963.56,157.17ZM936.43,76.48a18.13,18.13,0,0,0,2,.44c.22,0,.48-.28.7-.44a.4.4,0,0,0-.12-.25A2.17,2.17,0,0,0,936.43,76.48Zm56.51,28.69c.21-.68.38-1.21.53-1.75,0-.1,0-.27,0-.33s-.56-.57-.62-.53C992.37,102.87,992.41,104.61,992.94,105.17Zm-79.67,27.05c.66-2.2.66-2.2-.18-2.56C913,130.51,912.16,131.39,913.27,132.22Zm28.36,24.92-.68-.74a3,3,0,0,0-.58-.69,1.91,1.91,0,0,0-.84-.15s-.14.16-.13.25C939.45,156.45,940.78,157.32,941.63,157.14Zm-28.2-57.59a16.71,16.71,0,0,0,1.59-1c.18-.15.18-.53.23-.8,0,0-.16-.15-.25-.16C914.32,97.55,913.36,98.72,913.43,99.55ZM988,92.45c0,.31,0,.6,0,.89a3.35,3.35,0,0,0-.06.88,1.94,1.94,0,0,0,.49.7.31.31,0,0,0,.29,0C989.19,94.48,988.68,92.75,988,92.45Zm-11.77,59c-.73,0-1.34,0-1.94,0-.21,0-.41.28-.58.46s0,.29.14.34A2,2,0,0,0,976.21,151.4Zm-26.45,7.18c-1.59-1.51-1.59-1.51-2.53-1C948.11,158,948.48,159.25,949.76,158.58Zm36.33-17.19c.62-.36,1.21-.67,1.76-1,.11-.07.09-.35.09-.53s-.19-.15-.25-.12c-.6.28-1.21.56-1.78.89-.11.06-.14.34-.13.51S986,141.27,986.09,141.39ZM955.4,158.5a19.41,19.41,0,0,0-1.77-1c-.19-.08-.49.08-.72.16,0,0-.08.2,0,.28A2.26,2.26,0,0,0,955.4,158.5Zm39.35-37c-.51.57-1,1-1.33,1.52-.12.17,0,.5,0,.75,0,0,.25.13.35.09A2.2,2.2,0,0,0,994.75,121.47ZM982.61,85.85c.54.9-.05,2.15,1.29,2.41C983.61,87.46,984.23,86.2,982.61,85.85Zm3.63,56.09a10.85,10.85,0,0,0-1.77.61,1,1,0,0,0-.27.85C984.69,143.76,986.17,142.7,986.24,141.94ZM968.57,154.7c1.08,0,2,.71,2.71-.41C970.44,154.38,969.49,153.32,968.57,154.7Zm-34.48-1.22c.54.74.94,1.32,1.39,1.85.11.13.41.11.63.11.06,0,.17-.16.17-.24C936.29,154.76,935,153.57,934.09,153.48Zm61-37.55c-.39.59-.79,1.13-1.1,1.72-.1.17.06.48.13.72,0,0,.2.06.28,0A2.07,2.07,0,0,0,995.07,115.93Zm-.09-2.57A9.8,9.8,0,0,0,994,115c-.09.22.23.86.35.85C995,115.84,995.4,114,995,113.36Zm-84-.13c-.51.87-1.56,1.41-.88,2.56C910.41,115,911.82,114.56,911,113.23ZM932.44,152a6.47,6.47,0,0,0-.54.49c.41.61.84,1.21,1.31,1.78,0,.06.37-.11.56-.17Zm47.64-4.46c1-.43,2.22.05,2.65-1.51C981.81,146.56,980.58,145.9,980.08,147.51ZM944.5,74.11a13.06,13.06,0,0,0,1.62.74c.23.08.56-.08.83-.17.06,0,.12-.21.1-.29C946.86,73.81,945.06,73.61,944.5,74.11Zm-33.23,36.33a17.69,17.69,0,0,0-1.26,1.77c-.09.16.17.75.3.76C910.74,113,911.51,111.24,911.27,110.44ZM950,74.07c-1-.18-1.62-1.4-2.78-.43C949.15,74.64,949.15,74.64,950,74.07Zm-21,77.28a10.88,10.88,0,0,0-.72-1.75,1.06,1.06,0,0,0-.87-.23C927.06,149.87,928.23,151.32,929,151.35Zm39.54-74.27.22-.26c-.55-.45-1.09-.9-1.66-1.31-.11-.08-.35,0-.52,0s-.08.22,0,.27a15.46,15.46,0,0,0,1.22,1.46c.1.11.41.06.62,0C968.43,77.32,968.47,77.17,968.52,77.08Zm-52.7,60.19c0-.42,0-.72.06-1a3.15,3.15,0,0,0,.1-.9,2,2,0,0,0-.51-.68s-.21,0-.26.11A2.23,2.23,0,0,0,915.82,137.27Zm79-28.63-.37-.7a4.18,4.18,0,0,0-.43.5,2,2,0,0,0-.4.8,4.52,4.52,0,0,0,.15,1.14,5.27,5.27,0,0,0,.57-.68A10.5,10.5,0,0,0,994.85,108.64ZM919.52,90.4a17.52,17.52,0,0,0-1.93.93c-.14.08-.15.73-.07.76C918,92.31,919.39,91.25,919.52,90.4Zm5.2-6.57a15.59,15.59,0,0,0,1.88-.23c.23-.06.4-.39.58-.62a.48.48,0,0,0-.16-.23A2,2,0,0,0,924.72,83.83Zm53.86-1.6a14,14,0,0,0,.58,1.79c.1.22.45.34.7.48a.38.38,0,0,0,.23-.18C980.31,83.72,979.41,82.39,978.58,82.23ZM950,73.4c.37.22.62.36.87.52a3.35,3.35,0,0,0,.76.46,1.87,1.87,0,0,0,.83-.12c.05,0,.1-.2.07-.28C952.27,73.42,950.72,73,950,73.4Zm30.77,10.72A13.91,13.91,0,0,0,981.3,86c.07.15.53.13.81.19-.28-.71-.55-1.42-.86-2.12C981.23,84,980.91,84.1,980.72,84.12Zm-58,1.6a13.1,13.1,0,0,0,1.76-.3c.24-.07.42-.38.6-.61,0,0,0-.22-.13-.27C924.38,84.19,922.94,84.92,922.7,85.72Zm-10.24,16.46c.54-.41,1-.73,1.48-1.13.18-.17.19-.53.24-.81,0,0-.14-.19-.23-.2C913.35,100,912.3,101.38,912.46,102.18Zm74-12a13.82,13.82,0,0,0,0,1.84c0,.24.34.44.54.64,0,0,.22,0,.27-.11A2.44,2.44,0,0,0,986.48,90.15Zm-65.82-2.34c.81-.22,1.46-.35,2.07-.58.19-.06.27-.41.38-.64,0,0-.13-.17-.21-.19A2.47,2.47,0,0,0,920.66,87.81ZM952.6,158.6c-.58-.39-1.12-.8-1.7-1.12-.17-.09-.48.06-.72.13,0,0-.08.21,0,.29A2.13,2.13,0,0,0,952.6,158.6Zm40.94-50.68c.19-1,1.24-1.81.06-3C993.62,106,992.45,106.79,993.54,107.92ZM973.47,79.75c-.93-2.11-.93-2.11-2-1.86C972.22,78.42,972,79.82,973.47,79.75ZM919,90l.93-.34a4.81,4.81,0,0,0,1-.31,1.44,1.44,0,0,0,.41-.62s-.07-.21-.15-.25C920.6,88.19,919.19,89.09,919,90Zm-7.3,14.86a10,10,0,0,0,1.41-1.27,1,1,0,0,0-.07-.9C912.46,102.49,911.47,104.07,911.67,104.82Zm9,39.25c-.07-.43-.12-.72-.16-1a4,4,0,0,0-.12-1c-.08-.21-.34-.36-.55-.5,0,0-.21.05-.26.12C919.29,142.17,919.93,143.71,920.68,144.07Zm-10.2-22.55c.35-.7.67-1.25.89-1.83.08-.2-.08-.49-.17-.73,0,0-.2-.07-.28,0C910.42,119.16,910.1,120.68,910.48,121.52Zm47.65,36c.6.29,1.1.54,1.61.76a.41.41,0,0,0,.32,0c.25-.15.68-.38.66-.5C960.63,157.33,958.77,157.06,958.13,157.47Zm26.52-68.65.1,0c0,.11,0,.25,0,.34.22.43.47.85.72,1.27,0-.4.11-.81.16-1.21a.83.83,0,0,0,0-.45,10.69,10.69,0,0,0-.7-.81Zm-.08,55.24a19.89,19.89,0,0,0-2,.53c-.18.07-.29.4-.4.63,0,0,.09.2.17.23C982.93,145.68,984.28,144.89,984.57,144.06Zm-21.11,12.32c1,.23,1.85,1.07,3-.13C965.32,156.41,964.47,155.19,963.46,156.38Zm-8,1.39c.65.33,1.22.66,1.83.9.18.07.48-.12.71-.22a.34.34,0,0,0,0-.29A2.47,2.47,0,0,0,955.42,157.77Zm-38.9-62.83a17,17,0,0,0-1.82,1.17c-.14.12-.13.76,0,.81C915.08,97.11,916.45,95.77,916.52,94.94ZM911,124.22a18.64,18.64,0,0,0,.76-1.72c.07-.23-.11-.55-.21-.81,0,0-.21-.07-.29,0C910.67,121.92,910.46,123.53,911,124.22Zm30.83-48.67c-2-.85-2-.84-2.6,0C941.18,76.05,941.18,76.05,941.78,75.55Zm30.38,77.18a4.56,4.56,0,0,0-.77.32s0,.44.1.45a7.32,7.32,0,0,0,1.68.12c.21,0,.4-.37.6-.57-.22-.07-.44-.14-.67-.19S972.58,152.78,972.16,152.73Zm-16.62-79.3a13.87,13.87,0,0,0,1.5,1.18c.19.12.55,0,.83-.06,0,0,.07-.2,0-.28A2,2,0,0,0,955.54,73.43ZM980.63,148c-.43.08-.72.14-1,.17a3.6,3.6,0,0,0-.88.09c-.24.11-.41.39-.6.61,0,0,.08.2.16.24A2.09,2.09,0,0,0,980.63,148Zm-62.73-8.67a15.74,15.74,0,0,0,.24,2c0,.18.62.44.71.36C919.26,141.35,918.6,139.58,917.9,139.32Zm-6.3-12.43c.12-.33.23-.63.33-.94a2.44,2.44,0,0,0,.27-1c0-.24-.39-.67-.5-.64C911.14,124.52,911.05,126.35,911.6,126.89Zm13,21c-.1-.3-.19-.57-.26-.85s-.06-.73-.25-1-.77-.41-.84-.32C922.86,146.26,923.82,147.81,924.6,147.93Zm39-73.11c.94.44,1,2,2.58,1.46C965.29,75.67,965.15,74.28,963.6,74.82ZM931.48,79a10.76,10.76,0,0,0,1.9.12c.23,0,.65-.58.6-.66C933.68,77.94,932,78.26,931.48,79Zm-15.6,15.58a13.32,13.32,0,0,0,1.69-.8c.2-.12.28-.48.38-.74,0,0-.11-.19-.19-.22C917.18,92.64,916,93.73,915.88,94.56Zm15.55,58.27c-.45-.75-.79-1.36-1.19-1.93-.06-.07-.45.1-.68.15.39.61.76,1.24,1.18,1.83C930.81,153,931.14,152.85,931.43,152.83Zm-2.29-72.36a17.78,17.78,0,0,0,1.94,0c.21,0,.4-.29.57-.47s0-.23-.09-.28C931.05,79.26,929.54,79.71,929.14,80.47Zm65.65,30.06a12.07,12.07,0,0,0-.85,1.53,2.07,2.07,0,0,0,0,1,.69.69,0,0,0,.34.07c.28-.67.56-1.35.79-2C995.15,110.94,994.94,110.76,994.79,110.53Zm-16.68-27.8a18.22,18.22,0,0,0-.93-1.92c-.09-.15-.74-.16-.78-.07C976.18,81.21,977.29,82.61,978.11,82.73ZM926.88,82c.69,0,1.29,0,1.88,0,.2,0,.39-.3.55-.49s0-.28-.14-.33A2.11,2.11,0,0,0,926.88,82ZM992,132.21c-.69.45-1.26.78-1.77,1.19-.16.13-.16.47-.19.72,0,0,.16.16.25.17C990.77,134.33,991.86,133.15,992,132.21ZM955.55,74.12c-1.08-.39-1.58-1.59-2.72-.8C953.65,73.59,954.06,75,955.55,74.12Zm37.32,55.51a18.7,18.7,0,0,0-1.6,1.26c-.15.14-.12.48-.13.73,0,0,.17.13.25.12A2.25,2.25,0,0,0,992.87,129.63Zm-4,7.14,1.49-.76c.1-.06.22-.15.23-.24,0-.28.14-.78,0-.83C990.12,134.7,988.81,136.05,988.86,136.77Zm1.42-41-.56-.88c-.1.29-.21.59-.3.88s-.18.47-.12.65a5.57,5.57,0,0,0,.55,1c.1-.27.22-.54.31-.82A7.08,7.08,0,0,0,990.28,95.73ZM911,107.58c1.56-1.54,1.56-1.54,1.32-2.56C911.79,105.94,910.47,106.11,911,107.58Zm63.1-28.44c.57.63.24,2.07,1.83,2C975.28,80.34,975.47,79.08,974.05,79.14Zm4.31,70.74c-2-.09-2-.09-2.39.78C978,150.82,978,150.81,978.36,149.88Zm15.76-22.28c-.37-.27-.61-.49-.64-.46a13.32,13.32,0,0,0-1.43,1.38c-.08.08.16.44.25.68ZM926.8,149.83c-.17-.41-.29-.68-.38-1a3.59,3.59,0,0,0-.3-1c-.14-.21-.48-.29-.74-.4a.46.46,0,0,0-.15.22A2.21,2.21,0,0,0,926.8,149.83Zm-14.43-20.28c.18-.54.35-1.07.53-1.59,0-.07.05-.18,0-.22-.19-.26-.48-.75-.57-.72C911.78,127.23,911.8,129,912.37,129.55Zm80.62-2.8a19.09,19.09,0,0,0,1.42-1.61c.1-.13-.17-.75-.25-.74C993.58,124.43,992.76,126,993,126.75Zm-.38-26.11-.49-.74c-.11.22-.24.43-.33.66a1.33,1.33,0,0,0-.2.64,8.41,8.41,0,0,0,.33,1.19,9.09,9.09,0,0,0,.47-.87A6.59,6.59,0,0,0,992.61,100.64Zm-23.6-24a10.52,10.52,0,0,0,1.07,1.59,1.07,1.07,0,0,0,.89,0C971.17,77.69,969.77,76.53,969,76.65Zm-58.77,42a14.66,14.66,0,0,0,1-1.62c.09-.21-.07-.55-.14-.82,0,0-.2-.07-.28,0A2.15,2.15,0,0,0,910.24,118.66ZM939,156.36c-.27-.35-.46-.57-.63-.81a3.59,3.59,0,0,0-.52-.72,2.16,2.16,0,0,0-.82-.22s-.15.15-.15.24C936.83,155.48,938.09,156.44,939,156.36Zm-22.45-19.49c.14,1-.53,2,.84,2.87C917,138.68,917.85,137.62,916.52,136.87Zm20.23-59.65c-1.06,0-2-.83-2.9.51C934.87,77.52,935.8,78.5,936.75,77.22Zm10.3,81c-.3-.25-.53-.43-.75-.63s-.4-.49-.65-.61a2,2,0,0,0-.85,0s-.11.18-.09.26A2.13,2.13,0,0,0,947.05,158.22Zm-32.22-25.33-.5-.72c-.1.07-.27.13-.28.22a8.15,8.15,0,0,0-.22,1.55c0,.24.28.48.43.72a4.39,4.39,0,0,0,.31-.66C914.67,133.68,914.73,133.34,914.83,132.89Zm29.71-58a9.83,9.83,0,0,0-1.64-.66,2.39,2.39,0,0,0-1,.27s0,.25.07.26c.63.2,1.26.41,1.91.55C944,75.38,944.2,75.15,944.54,74.93Zm24.25,80.44a18.71,18.71,0,0,0-1.87-.37c-.2,0-.44.22-.64.36,0,0,0,.23.05.3A2,2,0,0,0,968.79,155.37ZM995,118.69l-.61.84a4.14,4.14,0,0,0-.6.81,1.51,1.51,0,0,0,.06.75.44.44,0,0,0,.3,0A2.34,2.34,0,0,0,995,118.69Zm-84.44-8.19c.39-1.06,1.77-1.33,1.16-2.78C911.16,108.62,910,109,910.56,110.5Zm50.55-36.28c.78.36.9,1.79,2.19,1.34C962.37,74.06,962.17,73.93,961.11,74.22Z" transform="translate(-0.37 -0.14)"/><path class="cls-6" d="M1000.42,90.41c1.62,0,2,2,3.22,2.75-.06.15-.07.25-.12.27-2.22,1.13-1.52,1.36-3.23-.6a2.77,2.77,0,0,0-4,.29.82.82,0,0,0,.07.6c.22.48.48.94.73,1.41.76,1.46.76,1.48-.73,2.05a.82.82,0,0,1-.74-.24c-1.19-2.2-2.35-4.43-3.48-6.66a.86.86,0,0,1,.19-.78c1.77-.94,3.54-1.9,5.38-2.7a2,2,0,0,1,2.9,1.09A7.62,7.62,0,0,1,1000.42,90.41ZM998,88.23c-.83.37-1.52.66-2.19,1-1.53.77-1.55.87-.55,2.27.11.15.45.32.57.26a23.29,23.29,0,0,0,2.72-1.63,1.22,1.22,0,0,0,.27-1.08C998.7,88.73,998.27,88.52,998,88.23Z" transform="translate(-0.37 -0.14)"/><path class="cls-6" d="M1003.61,106.29a14.79,14.79,0,0,1,2.8.94c.41.23.53,1,.78,1.48-.65,0-1.52.2-1.91-.13-1.2-1-2.41-.72-3.63-.3a1.21,1.21,0,0,0-.67.91c0,.27.53.65.87.71,1.23.22,2.48.29,3.72.49,1.66.26,2.32.83,2.41,2a2.36,2.36,0,0,1-2,2.66,23.46,23.46,0,0,1-4.82.37,2,2,0,0,1-1.38-.69,5.37,5.37,0,0,1-.62-1.63c.69,0,1.4-.55,2,.36s3.7.93,4.49,0c.46-.57.28-1-.36-1.24a13.1,13.1,0,0,0-1.89-.33c-1-.16-2-.27-3-.51a1.69,1.69,0,0,1-1.46-1.79,2.84,2.84,0,0,1,1-2A20.06,20.06,0,0,1,1003.61,106.29Z" transform="translate(-0.37 -0.14)"/><path class="cls-10" d="M1001.65,135.87a7.56,7.56,0,0,1-4.24-1.62,3,3,0,0,1-1.12-3.45c.49-1.56,1-3.1,1.49-4.67.28-.95.82-.4,1.23-.26s1.19,0,.84.94c-.49,1.32-.9,2.67-1.3,4-.5,1.67.05,2.65,1.76,3.21a2.23,2.23,0,0,0,3.22-1.56c.47-1.29.9-2.59,1.27-3.9.27-.93.78-.52,1.3-.38s1,.28.7,1.06c-.54,1.42-.95,2.89-1.47,4.32C1004.73,135.25,1003.73,135.9,1001.65,135.87Z" transform="translate(-0.37 -0.14)"/><path class="cls-6" d="M999.87,100.58l3.91-1.13c.45-.13.87-.43,1.11.39s-.35.79-.75.91c-1.09.35-2.18.67-3.28.94-.59.15-.78.37-.51,1a3.33,3.33,0,0,1,.25.87c.09.74.43.82,1.09.6,1.26-.42,2.55-.74,3.82-1.12.47-.15.85-.3,1,.38s-.06.78-.6.93c-2,.56-4,1.14-6,1.76-.62.19-.85,0-1-.59-.62-2.31-1.28-4.62-2-6.91-.16-.54-.06-.75.46-.89,2-.57,4.09-1.14,6.12-1.77.6-.18.81.06.79.55a1,1,0,0,1-.44.73c-1.33.44-2.7.78-4,1.22a.93.93,0,0,0-.47.74A7,7,0,0,0,999.87,100.58Z" transform="translate(-0.37 -0.14)"/><path class="cls-6" d="M996.32,135l.57.31c1.77,1,3.55,2,5.33,3.06.43.24.75.42.39,1s-.68.37-1.09.13c-1.14-.67-2.32-1.29-3.44-2-.87-.55-.91.24-1.18.64s-.67.85.13,1.25c1.05.52,2,1.15,3.07,1.74.4.23.78.38.41,1s-.63.43-1.06.18c-1-.6-2.05-1.15-3.05-1.77-.47-.29-.79-.35-1,.24a4.63,4.63,0,0,1-.57,1c-.36.47-.17.69.29.94,1.26.69,2.49,1.45,3.75,2.14.45.25.6.46.3,1s-.47.56-1,.27c-1.9-1.12-3.82-2.19-5.7-3.33a.77.77,0,0,1-.25-.73c1.23-2.23,2.5-4.44,3.76-6.65C996.08,135.26,996.21,135.14,996.32,135Z" transform="translate(-0.37 -0.14)"/><path class="cls-6" d="M1003.46,116.64c1,.22,2,.39,3,.69a2.37,2.37,0,0,1,1.2.81,5.88,5.88,0,0,1,.63,1.64s-.32.25-.42.21c-.6-.24-1.4.21-1.83-.73s-2.44-1.37-3.69-.81a3.35,3.35,0,0,0-1.41,4.33,3.5,3.5,0,0,0,4.16,1.4c.19-.1.44-.24.51-.42.5-1.23,1.44-.29,2.15-.46,0,.26.2.56.12.77a2.48,2.48,0,0,1-2.4,1.64,13.89,13.89,0,0,1-4-.41,4,4,0,0,1-3-4.63,4.16,4.16,0,0,1,4.19-3.87h.8Z" transform="translate(-0.37 -0.14)"/><path class="cls-6" d="M955.38,62.8c-.18,2.39-.34,4.55-.48,6.71,0,.54-.1.86-.78.74s-.84-.16-.77-.88c.27-2.54.42-5.09.67-7.63,0-.38-.22-1.17.63-1s1.7-.38,1.94.95c.37,2.09.87,4.15,1.43,6.22.14-2,.29-4,.43-6,0-.47,0-.94.71-.82.56.1,1,.12.87.93-.28,2.58-.44,5.17-.7,7.74,0,.33-.45.9-.63.87-.65-.08-1.59.43-1.82-.78C956.43,67.52,955.91,65.27,955.38,62.8Z" transform="translate(-0.37 -0.14)"/><path class="cls-6" d="M980,70.86c-1.14,1.72-2.33,3.42-3.38,5.2-.48.81-.89.78-1.44.22a.76.76,0,0,1-.1-.71q2.26-3.55,4.6-7.07a.79.79,0,0,1,.77-.16c1.48.76,1.47.77,1,2.44s-1,3.49-1.33,5.3c1-1.64,2.06-3.28,3.07-4.92.29-.48.5-.75,1.13-.35s.54.72.18,1.24c-1.43,2.15-2.82,4.34-4.26,6.49-.17.25-.77.55-.83.49-.47-.47-1.64-.39-1.33-1.5.61-2.24,1.26-4.46,1.9-6.7,0-.06,0-.12.05-.19Z" transform="translate(-0.37 -0.14)"/><path class="cls-6" d="M935.59,73.27c-1.51.92-1.51.92-2.23-.56a5.16,5.16,0,0,0-.76-1.39c-.28-.25-.82-.22-1.24-.32a2.49,2.49,0,0,0-.08,1,14.24,14.24,0,0,0,.84,1.87c.27.54.53.93-.31,1.3s-1,.09-1.23-.53c-1.06-2.37-2.14-4.72-3.27-7-.32-.65-.2-.92.45-1.16s1.38-.62,2.09-.9a1.58,1.58,0,0,1,2.28.84,17,17,0,0,1,.65,2.78c0,.14.09.4.16.41,1.09.14,1.27,1.09,1.67,1.85C934.92,72,935.24,72.62,935.59,73.27ZM930,67.07c-.18.16-.69.5-.65.58a20.81,20.81,0,0,0,1.17,2c.29-.35.83-.71.81-1A1.47,1.47,0,0,0,930,67.07Z" transform="translate(-0.37 -0.14)"/><path class="cls-6" d="M976.73,68.13a13.43,13.43,0,0,1-3,6,2.54,2.54,0,0,1-4.11-1.9,12.36,12.36,0,0,1,2.83-6.36,2.12,2.12,0,0,1,2.62-.41A2.47,2.47,0,0,1,976.73,68.13Zm-5.63,4c.3.41.48.9.76,1a1.13,1.13,0,0,0,1-.4Q974,70.38,975,68a1.15,1.15,0,0,0-.38-1,1.09,1.09,0,0,0-1,.28C972.71,68.81,972,70.41,971.1,72.09Z" transform="translate(-0.37 -0.14)"/><path class="cls-6" d="M927.66,72.34A11.74,11.74,0,0,1,926,74c-.6.42-.76.72-.28,1.32s.61,1.06,1,1.52c.68.8.37,1.26-.45,1.55a.87.87,0,0,1-.78-.16c-1.54-2.35-3-4.73-4.53-7.12a.8.8,0,0,1,.22-.76,19.11,19.11,0,0,1,2-1.31c1.27-.72,2.08-.6,2.95.6A24.31,24.31,0,0,1,927.66,72.34Zm-3.3-2.26a11.29,11.29,0,0,0-1.2,1,23.34,23.34,0,0,0,1.4,2.06c.31-.35.93-.77.87-1A9.91,9.91,0,0,0,924.36,70.08Z" transform="translate(-0.37 -0.14)"/><path class="cls-6" d="M943.86,68.45c0-2.17,0-4.34,0-6.5,0-1,.81-.65,1.29-.87.12.28.35.57.34.84-.07,2.67-.21,5.33-.26,8,0,.82-.4,1-1.07,1.11a1,1,0,0,1-1.35-.75c-.93-2.41-1.95-4.79-2.88-7.2-.1-.28-.81-.79.06-1,.62-.18,1.26-.48,1.59.56.64,2,1.41,4,2.13,6l.09.39Z" transform="translate(-0.37 -0.14)"/><path class="cls-6" d="M937.78,62.58c.11.21.34.45.36.71a1,1,0,0,1-.24.8,2,2,0,0,1-1,.32c-.94.14-1.06.57-.79,1.47s.69,1.07,1.52.69c.36-.16,1-.28,1.2-.1.56.43.31,1.15-.4,1.39a6.59,6.59,0,0,1-.86.27c-.54.13-.67.42-.42.91a.74.74,0,0,1,.07.21c.53,1.72.55,1.78,2.21,1.17.88-.33,1.18,0,1.25.76a.74.74,0,0,1-.38.61c-1,.37-2.07.73-3.13,1a.9.9,0,0,1-.76-.46c-.86-2.59-1.67-5.2-2.47-7.82-.06-.22,0-.69.14-.74C935.26,63.36,936.42,63,937.78,62.58Z" transform="translate(-0.37 -0.14)"/><path class="cls-6" d="M947.6,65.45c-.08-1.3-.19-2.59-.2-3.89a1,1,0,0,1,.64-.73c1-.12,2-.06,3-.16.7-.08.69.32.77.8.1.66-.27.69-.73.68l-.57,0c-1.23.08-1.8.94-1.17,2,.18.29,1,.32,1.5.25.84-.1,1.07.33.89,1-.08.26-.6.45-.95.58s-1.27.16-1.29.32a4.08,4.08,0,0,0,.13,2.23c.12.28,1.16.27,1.75.17,1-.15,1,.4,1,1,0,.17-.21.33-.35.47s-.14,0-.22,0l-3.52.18c-.17-1.07-.36-2.14-.5-3.22-.08-.57-.08-1.14-.12-1.71Z" transform="translate(-0.37 -0.14)"/><path class="cls-6" d="M963.23,71.47c-1.22,0-1.52-.36-1.27-1.29.51-1.94.88-3.93,1.38-5.88.17-.67.13-1-.62-1.06s-1-.29-.81-1.09.74-.55,1.2-.45c1.23.27,2.43.6,3.66.83.6.12.59.39.46.88s-.18,1-.84.68c-1-.44-1.28,0-1.46,1-.37,1.94-.84,3.86-1.3,5.78A1.82,1.82,0,0,1,963.23,71.47Z" transform="translate(-0.37 -0.14)"/><path class="cls-6" d="M970.48,63.87c-.09.35-.13.5-.18.64-.84,2.53-1.69,5-2.5,7.57-.19.59-.43.8-1,.54s-.87-.25-.61-1c.92-2.58,1.73-5.19,2.62-7.77a.78.78,0,0,1,.65-.42A3.81,3.81,0,0,1,970.48,63.87Z" transform="translate(-0.37 -0.14)"/><path class="cls-11" d="M991.57,98.11a9.74,9.74,0,0,1-.24,1c-.1.28-.24.53-.36.8a7.39,7.39,0,0,1-.47-1c0-.19.09-.44.15-.65s.18-.58.28-.86Z" transform="translate(-0.37 -0.14)"/><path class="cls-11" d="M989.85,137.87l-2.39,1.18c0-.27-.08-.68.06-.78a11.16,11.16,0,0,1,1.66-.92C989.24,137.33,989.41,137.52,989.85,137.87Z" transform="translate(-0.37 -0.14)"/><path class="cls-11" d="M958.32,73.76c1.31-.76,1.61.61,2.64,1.06C959.37,75.55,959.16,74,958.32,73.76Z" transform="translate(-0.37 -0.14)"/><path class="cls-11" d="M922.54,146.06a2.17,2.17,0,0,1-1.2-2.22.41.41,0,0,1,.21-.18c.24.16.46.34.68.52a.38.38,0,0,1,.06.22C922.37,144.94,922.45,145.49,922.54,146.06Z" transform="translate(-0.37 -0.14)"/><path class="cls-11" d="M944.26,157.75c-.69.28-2.32-.59-2.23-1.2a1,1,0,0,1,.89-.14A11.31,11.31,0,0,1,944.26,157.75Z" transform="translate(-0.37 -0.14)"/><path class="cls-11" d="M963.56,157.17a2,2,0,0,1-2.51,0,.45.45,0,0,1,0-.28c.25-.13.55-.38.77-.32A14.3,14.3,0,0,1,963.56,157.17Z" transform="translate(-0.37 -0.14)"/><path class="cls-11" d="M936.43,76.48a2.17,2.17,0,0,1,2.53-.25.4.4,0,0,1,.12.25c-.22.16-.48.46-.7.44A18.13,18.13,0,0,1,936.43,76.48Z" transform="translate(-0.37 -0.14)"/><path class="cls-11" d="M992.94,105.17c-.53-.56-.57-2.3-.11-2.61.06,0,.42.33.62.53s0,.23,0,.33C993.32,104,993.15,104.49,992.94,105.17Z" transform="translate(-0.37 -0.14)"/><path class="cls-11" d="M913.27,132.22c-1.11-.83-.25-1.71-.18-2.56C913.93,130,913.93,130,913.27,132.22Z" transform="translate(-0.37 -0.14)"/><path class="cls-11" d="M941.63,157.14c-.85.18-2.18-.69-2.23-1.33,0-.09.1-.26.13-.25a1.91,1.91,0,0,1,.84.15,3,3,0,0,1,.58.69Z" transform="translate(-0.37 -0.14)"/><path class="cls-11" d="M913.43,99.55c-.07-.83.89-2,1.57-2,.09,0,.26.12.25.16,0,.27,0,.65-.23.8A16.71,16.71,0,0,1,913.43,99.55Z" transform="translate(-0.37 -0.14)"/><path class="cls-11" d="M988,92.45c.7.3,1.21,2,.76,2.44a.31.31,0,0,1-.29,0,1.94,1.94,0,0,1-.49-.7,3.35,3.35,0,0,1,.06-.88C988,93.05,988,92.76,988,92.45Z" transform="translate(-0.37 -0.14)"/><path class="cls-11" d="M976.21,151.4a2,2,0,0,1-2.38.82c-.09-.05-.18-.3-.14-.34s.37-.44.58-.46C974.87,151.36,975.48,151.4,976.21,151.4Z" transform="translate(-0.37 -0.14)"/><path class="cls-11" d="M949.76,158.58c-1.28.67-1.65-.63-2.53-1C948.17,157.07,948.17,157.07,949.76,158.58Z" transform="translate(-0.37 -0.14)"/><path class="cls-11" d="M986.09,141.39c-.14-.12-.31-.19-.31-.28s0-.45.13-.51c.57-.33,1.18-.61,1.78-.89.06,0,.25.08.25.12s0,.46-.09.53C987.3,140.72,986.71,141,986.09,141.39Z" transform="translate(-0.37 -0.14)"/><path class="cls-11" d="M955.4,158.5a2.26,2.26,0,0,1-2.54-.54c0-.08,0-.27,0-.28.23-.08.53-.24.72-.16A19.41,19.41,0,0,1,955.4,158.5Z" transform="translate(-0.37 -0.14)"/><path class="cls-11" d="M994.75,121.47a2.2,2.2,0,0,1-1,2.36c-.1,0-.35,0-.35-.09,0-.25-.11-.58,0-.75C993.79,122.48,994.24,122,994.75,121.47Z" transform="translate(-0.37 -0.14)"/><path class="cls-11" d="M982.61,85.85c1.62.35,1,1.61,1.29,2.41C982.56,88,983.15,86.75,982.61,85.85Z" transform="translate(-0.37 -0.14)"/><path class="cls-11" d="M986.24,141.94c-.07.76-1.55,1.82-2,1.46a1,1,0,0,1,.27-.85A10.85,10.85,0,0,1,986.24,141.94Z" transform="translate(-0.37 -0.14)"/><path class="cls-11" d="M968.57,154.7c.92-1.38,1.87-.32,2.71-.41C970.6,155.41,969.65,154.65,968.57,154.7Z" transform="translate(-0.37 -0.14)"/><path class="cls-11" d="M934.09,153.48c.88.09,2.2,1.28,2.19,1.72,0,.08-.11.24-.17.24-.22,0-.52,0-.63-.11C935,154.8,934.63,154.22,934.09,153.48Z" transform="translate(-0.37 -0.14)"/><path class="cls-11" d="M995.07,115.93a2.07,2.07,0,0,1-.69,2.46c-.08,0-.27,0-.28,0-.07-.24-.23-.55-.13-.72C994.28,117.06,994.68,116.52,995.07,115.93Z" transform="translate(-0.37 -0.14)"/><path class="cls-11" d="M995,113.36c.42.64,0,2.48-.59,2.5-.12,0-.44-.63-.35-.85A9.8,9.8,0,0,1,995,113.36Z" transform="translate(-0.37 -0.14)"/><path class="cls-11" d="M911,113.23c.79,1.33-.62,1.74-.88,2.56C909.47,114.64,910.52,114.1,911,113.23Z" transform="translate(-0.37 -0.14)"/><path class="cls-11" d="M932.44,152l1.33,2.1c-.19.06-.51.23-.56.17-.47-.57-.9-1.17-1.31-1.78A6.47,6.47,0,0,1,932.44,152Z" transform="translate(-0.37 -0.14)"/><path class="cls-11" d="M980.08,147.51c.5-1.61,1.73-.95,2.65-1.51C982.3,147.56,981.13,147.08,980.08,147.51Z" transform="translate(-0.37 -0.14)"/><path class="cls-11" d="M944.5,74.11c.56-.5,2.36-.3,2.55.28,0,.08,0,.27-.1.29-.27.09-.6.25-.83.17A13.06,13.06,0,0,1,944.5,74.11Z" transform="translate(-0.37 -0.14)"/><path class="cls-11" d="M911.27,110.44c.24.8-.53,2.57-1,2.53-.13,0-.39-.6-.3-.76A17.69,17.69,0,0,1,911.27,110.44Z" transform="translate(-0.37 -0.14)"/><path class="cls-11" d="M950,74.07c-.81.57-.81.57-2.78-.43C948.34,72.67,949,73.89,950,74.07Z" transform="translate(-0.37 -0.14)"/><path class="cls-11" d="M929,151.35c-.75,0-1.92-1.48-1.59-2a1.06,1.06,0,0,1,.87.23A10.88,10.88,0,0,1,929,151.35Z" transform="translate(-0.37 -0.14)"/><path class="cls-11" d="M968.52,77.08c0,.09-.09.24-.15.24-.21,0-.52.08-.62,0a15.46,15.46,0,0,1-1.22-1.46s0-.25,0-.27.41-.13.52,0c.57.41,1.11.86,1.66,1.31Z" transform="translate(-0.37 -0.14)"/><path class="cls-11" d="M915.82,137.27a2.23,2.23,0,0,1-.61-2.49c0-.07.24-.14.26-.11a2,2,0,0,1,.51.68,3.15,3.15,0,0,1-.1.9C915.85,136.55,915.85,136.85,915.82,137.27Z" transform="translate(-0.37 -0.14)"/><path class="cls-11" d="M994.85,108.64a10.5,10.5,0,0,1-.48,1.06,5.27,5.27,0,0,1-.57.68,4.52,4.52,0,0,1-.15-1.14,2,2,0,0,1,.4-.8,4.18,4.18,0,0,1,.43-.5Z" transform="translate(-0.37 -0.14)"/><path class="cls-11" d="M919.52,90.4c-.13.85-1.49,1.91-2,1.69-.08,0-.07-.68.07-.76A17.52,17.52,0,0,1,919.52,90.4Z" transform="translate(-0.37 -0.14)"/><path class="cls-11" d="M924.72,83.83a2,2,0,0,1,2.3-1.08.48.48,0,0,1,.16.23c-.18.23-.35.56-.58.62A15.59,15.59,0,0,1,924.72,83.83Z" transform="translate(-0.37 -0.14)"/><path class="cls-11" d="M978.58,82.23c.83.16,1.73,1.49,1.51,2.09a.38.38,0,0,1-.23.18c-.25-.14-.6-.26-.7-.48A14,14,0,0,1,978.58,82.23Z" transform="translate(-0.37 -0.14)"/><path class="cls-11" d="M950,73.4c.77-.38,2.32,0,2.53.58,0,.08,0,.27-.07.28a1.87,1.87,0,0,1-.83.12,3.35,3.35,0,0,1-.76-.46C950.57,73.76,950.32,73.62,950,73.4Z" transform="translate(-0.37 -0.14)"/><path class="cls-11" d="M980.72,84.12c.19,0,.51-.09.53,0,.31.7.58,1.41.86,2.12-.28-.06-.74,0-.81-.19A13.91,13.91,0,0,1,980.72,84.12Z" transform="translate(-0.37 -0.14)"/><path class="cls-11" d="M922.7,85.72c.24-.8,1.68-1.53,2.23-1.18.08,0,.16.23.13.27-.18.23-.36.54-.6.61A13.1,13.1,0,0,1,922.7,85.72Z" transform="translate(-0.37 -0.14)"/><path class="cls-11" d="M912.46,102.18c-.16-.8.89-2.23,1.49-2.14.09,0,.24.15.23.2,0,.28-.06.64-.24.81C913.51,101.45,913,101.77,912.46,102.18Z" transform="translate(-0.37 -0.14)"/><path class="cls-12" d="M986.48,90.15a2.44,2.44,0,0,1,.84,2.37c-.05.07-.24.14-.27.11-.2-.2-.51-.4-.54-.64A13.82,13.82,0,0,1,986.48,90.15Z" transform="translate(-0.37 -0.14)"/><path class="cls-11" d="M920.66,87.81a2.47,2.47,0,0,1,2.24-1.41c.08,0,.22.16.21.19-.11.23-.19.58-.38.64C922.12,87.46,921.47,87.59,920.66,87.81Z" transform="translate(-0.37 -0.14)"/><path class="cls-11" d="M952.6,158.6a2.13,2.13,0,0,1-2.46-.7c0-.08,0-.28,0-.29.24-.07.55-.22.72-.13C951.48,157.8,952,158.21,952.6,158.6Z" transform="translate(-0.37 -0.14)"/><path class="cls-11" d="M993.54,107.92c-1.09-1.13.08-1.9.06-3C994.78,106.11,993.73,106.89,993.54,107.92Z" transform="translate(-0.37 -0.14)"/><path class="cls-11" d="M973.47,79.75c-1.47.07-1.25-1.33-2-1.86C972.54,77.64,972.54,77.64,973.47,79.75Z" transform="translate(-0.37 -0.14)"/><path class="cls-11" d="M919,90c.22-.87,1.63-1.77,2.14-1.52.08,0,.18.2.15.25a1.44,1.44,0,0,1-.41.62,4.81,4.81,0,0,1-1,.31Z" transform="translate(-0.37 -0.14)"/><path class="cls-11" d="M911.67,104.82c-.2-.75.79-2.33,1.34-2.17a1,1,0,0,1,.07.9A10,10,0,0,1,911.67,104.82Z" transform="translate(-0.37 -0.14)"/><path class="cls-11" d="M920.68,144.07c-.75-.36-1.39-1.9-1.09-2.38,0-.07.22-.15.26-.12.21.14.47.29.55.5a4,4,0,0,1,.12,1C920.56,143.35,920.61,143.64,920.68,144.07Z" transform="translate(-0.37 -0.14)"/><path class="cls-12" d="M910.48,121.52c-.38-.84-.06-2.36.44-2.6.08,0,.27,0,.28,0,.09.24.25.53.17.73C911.15,120.27,910.83,120.82,910.48,121.52Z" transform="translate(-0.37 -0.14)"/><path class="cls-11" d="M958.13,157.47c.64-.41,2.5-.14,2.59.3,0,.12-.41.35-.66.5a.41.41,0,0,1-.32,0C959.23,158,958.73,157.76,958.13,157.47Z" transform="translate(-0.37 -0.14)"/><path class="cls-11" d="M984.65,88.82l.25-.83a10.69,10.69,0,0,1,.7.81.83.83,0,0,1,0,.45c0,.4-.11.81-.16,1.21-.25-.42-.5-.84-.72-1.27,0-.09,0-.23,0-.34Z" transform="translate(-0.37 -0.14)"/><path class="cls-11" d="M984.57,144.06c-.29.83-1.64,1.62-2.18,1.39-.08,0-.19-.19-.17-.23.11-.23.22-.56.4-.63A19.89,19.89,0,0,1,984.57,144.06Z" transform="translate(-0.37 -0.14)"/><path class="cls-11" d="M963.46,156.38c1-1.19,1.86,0,3-.13C965.31,157.45,964.45,156.61,963.46,156.38Z" transform="translate(-0.37 -0.14)"/><path class="cls-11" d="M955.42,157.77a2.47,2.47,0,0,1,2.57.39.34.34,0,0,1,0,.29c-.23.1-.53.29-.71.22C956.64,158.43,956.07,158.1,955.42,157.77Z" transform="translate(-0.37 -0.14)"/><path class="cls-11" d="M916.52,94.94c-.07.83-1.44,2.17-1.84,2-.11,0-.12-.69,0-.81A17,17,0,0,1,916.52,94.94Z" transform="translate(-0.37 -0.14)"/><path class="cls-11" d="M911,124.22c-.49-.69-.28-2.3.26-2.56.08,0,.28,0,.29,0,.1.26.28.58.21.81A18.64,18.64,0,0,1,911,124.22Z" transform="translate(-0.37 -0.14)"/><path class="cls-11" d="M941.78,75.55c-.6.5-.6.5-2.6,0C939.74,74.71,939.78,74.7,941.78,75.55Z" transform="translate(-0.37 -0.14)"/><path class="cls-11" d="M972.16,152.73c.42.05.69.08.94.13s.45.12.67.19c-.2.2-.39.55-.6.57a7.32,7.32,0,0,1-1.68-.12c-.06,0-.14-.43-.1-.45A4.56,4.56,0,0,1,972.16,152.73Z" transform="translate(-0.37 -0.14)"/><path class="cls-11" d="M955.54,73.43a2,2,0,0,1,2.37.84c0,.08,0,.28,0,.28-.28,0-.64.18-.83.06A13.87,13.87,0,0,1,955.54,73.43Z" transform="translate(-0.37 -0.14)"/><path class="cls-11" d="M980.63,148a2.09,2.09,0,0,1-2.33,1.11c-.08,0-.18-.22-.16-.24.19-.22.36-.5.6-.61a3.6,3.6,0,0,1,.88-.09C979.91,148.13,980.2,148.07,980.63,148Z" transform="translate(-0.37 -0.14)"/><path class="cls-11" d="M917.9,139.32c.7.26,1.36,2,1,2.38-.09.08-.67-.18-.71-.36A15.74,15.74,0,0,1,917.9,139.32Z" transform="translate(-0.37 -0.14)"/><path class="cls-11" d="M911.6,126.89c-.55-.54-.46-2.37.1-2.53.11,0,.48.4.5.64a2.44,2.44,0,0,1-.27,1C911.83,126.26,911.72,126.56,911.6,126.89Z" transform="translate(-0.37 -0.14)"/><path class="cls-11" d="M924.6,147.93c-.78-.12-1.74-1.67-1.35-2.13.07-.09.67.11.84.32s.17.64.25,1S924.5,147.63,924.6,147.93Z" transform="translate(-0.37 -0.14)"/><path class="cls-11" d="M963.6,74.82c1.55-.54,1.69.85,2.58,1.46C964.6,76.79,964.54,75.26,963.6,74.82Z" transform="translate(-0.37 -0.14)"/><path class="cls-11" d="M931.48,79c.51-.72,2.2-1,2.5-.54,0,.08-.37.63-.6.66A10.76,10.76,0,0,1,931.48,79Z" transform="translate(-0.37 -0.14)"/><path class="cls-11" d="M915.88,94.56c.07-.83,1.3-1.92,1.88-1.76.08,0,.21.17.19.22-.1.26-.18.62-.38.74A13.32,13.32,0,0,1,915.88,94.56Z" transform="translate(-0.37 -0.14)"/><path class="cls-11" d="M931.43,152.83c-.29,0-.62.13-.69,0-.42-.59-.79-1.22-1.18-1.83.23-.05.62-.22.68-.15C930.64,151.47,931,152.08,931.43,152.83Z" transform="translate(-0.37 -0.14)"/><path class="cls-11" d="M929.14,80.47c.4-.76,1.91-1.21,2.42-.78.07,0,.13.24.09.28s-.36.45-.57.47A17.78,17.78,0,0,1,929.14,80.47Z" transform="translate(-0.37 -0.14)"/><path class="cls-11" d="M994.79,110.53c.15.23.36.41.33.51-.23.69-.51,1.37-.79,2A.69.69,0,0,1,994,113a2.07,2.07,0,0,1,0-1A12.07,12.07,0,0,1,994.79,110.53Z" transform="translate(-0.37 -0.14)"/><path class="cls-11" d="M978.11,82.73c-.82-.12-1.93-1.52-1.71-2,0-.09.69-.08.78.07A18.22,18.22,0,0,1,978.11,82.73Z" transform="translate(-0.37 -0.14)"/><path class="cls-11" d="M926.88,82a2.11,2.11,0,0,1,2.29-.84c.09,0,.18.29.14.33s-.35.46-.55.49C928.17,82,927.57,82,926.88,82Z" transform="translate(-0.37 -0.14)"/><path class="cls-11" d="M992,132.21c-.11.94-1.2,2.12-1.71,2.08-.09,0-.26-.13-.25-.17,0-.25,0-.59.19-.72C990.71,133,991.28,132.66,992,132.21Z" transform="translate(-0.37 -0.14)"/><path class="cls-11" d="M955.55,74.12c-1.49.85-1.9-.53-2.72-.8C954,72.53,954.47,73.73,955.55,74.12Z" transform="translate(-0.37 -0.14)"/><path class="cls-12" d="M992.87,129.63a2.25,2.25,0,0,1-1.48,2.11c-.08,0-.26-.08-.25-.12,0-.25,0-.59.13-.73A18.7,18.7,0,0,1,992.87,129.63Z" transform="translate(-0.37 -0.14)"/><path class="cls-11" d="M988.86,136.77c-.05-.72,1.26-2.07,1.75-1.83.11.05,0,.55,0,.83,0,.09-.13.18-.23.24Z" transform="translate(-0.37 -0.14)"/><path class="cls-11" d="M990.28,95.73a7.08,7.08,0,0,1-.12.81c-.09.28-.21.55-.31.82a5.57,5.57,0,0,1-.55-1c-.06-.18.06-.43.12-.65s.2-.59.3-.88Z" transform="translate(-0.37 -0.14)"/><path class="cls-11" d="M911,107.58c-.48-1.47.84-1.64,1.32-2.56C912.51,106,912.51,106,911,107.58Z" transform="translate(-0.37 -0.14)"/><path class="cls-11" d="M974.05,79.14c1.42-.06,1.23,1.2,1.83,2C974.29,81.21,974.62,79.77,974.05,79.14Z" transform="translate(-0.37 -0.14)"/><path class="cls-11" d="M978.36,149.88c-.37.93-.38.94-2.39.78C976.33,149.79,976.33,149.79,978.36,149.88Z" transform="translate(-0.37 -0.14)"/><path class="cls-11" d="M994.12,127.6l-1.82,1.6c-.09-.24-.33-.6-.25-.68a13.32,13.32,0,0,1,1.43-1.38S993.75,127.33,994.12,127.6Z" transform="translate(-0.37 -0.14)"/><path class="cls-11" d="M926.8,149.83a2.21,2.21,0,0,1-1.57-2.09.46.46,0,0,1,.15-.22c.26.11.6.19.74.4a3.59,3.59,0,0,1,.3,1C926.51,149.15,926.63,149.42,926.8,149.83Z" transform="translate(-0.37 -0.14)"/><path class="cls-11" d="M912.37,129.55c-.57-.51-.59-2.32,0-2.53.09,0,.38.46.57.72,0,0,0,.15,0,.22C912.72,128.48,912.55,129,912.37,129.55Z" transform="translate(-0.37 -0.14)"/><path class="cls-11" d="M993,126.75c-.23-.8.59-2.32,1.17-2.35.08,0,.35.61.25.74A19.09,19.09,0,0,1,993,126.75Z" transform="translate(-0.37 -0.14)"/><path class="cls-12" d="M992.61,100.64a6.59,6.59,0,0,1-.22.88,9.09,9.09,0,0,1-.47.87,8.41,8.41,0,0,1-.33-1.19,1.33,1.33,0,0,1,.2-.64c.09-.23.22-.44.33-.66Z" transform="translate(-0.37 -0.14)"/><path class="cls-11" d="M969,76.65c.76-.12,2.16,1,2,1.61a1.07,1.07,0,0,1-.89,0A10.52,10.52,0,0,1,969,76.65Z" transform="translate(-0.37 -0.14)"/><path class="cls-11" d="M910.24,118.66a2.15,2.15,0,0,1,.57-2.48c.08,0,.27,0,.28,0,.07.27.23.61.14.82A14.66,14.66,0,0,1,910.24,118.66Z" transform="translate(-0.37 -0.14)"/><path class="cls-11" d="M939,156.36c-.88.08-2.14-.88-2.12-1.51,0-.09.11-.25.15-.24a2.16,2.16,0,0,1,.82.22,3.59,3.59,0,0,1,.52.72C938.51,155.79,938.7,156,939,156.36Z" transform="translate(-0.37 -0.14)"/><path class="cls-12" d="M916.52,136.87c1.33.75.5,1.81.84,2.87C916,138.92,916.66,137.9,916.52,136.87Z" transform="translate(-0.37 -0.14)"/><path class="cls-12" d="M936.75,77.22c-1,1.28-1.88.3-2.9.51C934.73,76.39,935.69,77.27,936.75,77.22Z" transform="translate(-0.37 -0.14)"/><path class="cls-12" d="M947.05,158.22a2.13,2.13,0,0,1-2.34-1c0-.08,0-.26.09-.26a2,2,0,0,1,.85,0c.25.12.43.41.65.61S946.75,158,947.05,158.22Z" transform="translate(-0.37 -0.14)"/><path class="cls-12" d="M914.83,132.89c-.1.45-.16.79-.26,1.11a4.39,4.39,0,0,1-.31.66c-.15-.24-.42-.48-.43-.72a8.15,8.15,0,0,1,.22-1.55c0-.09.18-.15.28-.22Z" transform="translate(-0.37 -0.14)"/><path class="cls-12" d="M944.54,74.93c-.34.22-.53.45-.68.42-.65-.14-1.28-.35-1.91-.55-.05,0-.07-.26-.07-.26a2.39,2.39,0,0,1,1-.27A9.83,9.83,0,0,1,944.54,74.93Z" transform="translate(-0.37 -0.14)"/><path class="cls-12" d="M968.79,155.37a2,2,0,0,1-2.46.29c-.06-.07-.09-.27-.05-.3.2-.14.44-.38.64-.36A18.71,18.71,0,0,1,968.79,155.37Z" transform="translate(-0.37 -0.14)"/><path class="cls-12" d="M995,118.69a2.34,2.34,0,0,1-.85,2.44.44.44,0,0,1-.3,0,1.51,1.51,0,0,1-.06-.75,4.14,4.14,0,0,1,.6-.81Z" transform="translate(-0.37 -0.14)"/><path class="cls-12" d="M910.56,110.5c-.58-1.55.6-1.88,1.16-2.78C912.33,109.17,911,109.44,910.56,110.5Z" transform="translate(-0.37 -0.14)"/><path class="cls-12" d="M961.11,74.22c1.06-.29,1.26-.16,2.19,1.34C962,76,961.89,74.58,961.11,74.22Z" transform="translate(-0.37 -0.14)"/><path class="cls-5" d="M919.92,144.72s-.08,0-.1-.05l-2.61-3.58c-.14-.21-.15-.57-.33-.65a2.15,2.15,0,0,1-1.29-2,1,1,0,0,0-.27-.47c-.06-.08-.24-.09-.29-.17-.7-1.42-1.4-2.85-2.09-4.27-.1-.21-.13-.45-.22-.67-.25-.59-.51-1.18-.75-1.78-.12-.31-.19-.62-.3-.93-.2-.58-.42-1.16-.62-1.74-.13-.37-.23-.75-.37-1.12s-.51-.79-.45-1.13c.14-.79-.4-1.53-.35-2.08.14-1.54-1.1-2.92-.35-4.46a.65.65,0,0,0-.08-.59,1.77,1.77,0,0,1-.19-2,2.61,2.61,0,0,0,0-.84c0-.65,0-1.31,0-2,0-.32,0-.64,0-1,0-.11-.09-.23-.08-.33l.75-4.54a2.28,2.28,0,0,0,.09-.63c0-.23-.17-.47-.12-.66.39-1.36.82-2.69,1.23-4,.11-.31.23-.62.33-.92l.72-1.93c.09-.26.14-.53.24-.79.22-.57.46-1.14.71-1.7,0-.09.23-.12.27-.21.51-1.06,1-2.13,1.49-3.2,0-.09,0-.25,0-.34l2.65-3.69.5-.69c.4-.51.82-1,1.2-1.53s.91-1.32,1.37-2Q914.07,79.54,907.46,73a29.22,29.22,0,0,1-4.65,14.21c-1.61,2.62-3.19,5.27-4.64,8-6.5,12.24-7.45,24.84-1.81,37.61a137.38,137.38,0,0,0,6.94,12.71,30.54,30.54,0,0,1,4,11.34c.09.72.12,1.45.16,2q6.62-6.51,13.25-13C920.69,145.29,920.68,144.74,919.92,144.72Z" transform="translate(-0.37 -0.14)"/><path class="cls-5" d="M985.64,144.72s.09,0,.11-.05l2.6-3.58c.14-.21.16-.57.33-.65a2.16,2.16,0,0,0,1.3-2,.88.88,0,0,1,.27-.47c.06-.08.24-.09.28-.17.7-1.42,1.4-2.85,2.09-4.27.1-.21.14-.45.23-.67.25-.59.51-1.18.75-1.78.12-.31.18-.62.29-.93.2-.58.43-1.16.63-1.74.13-.37.23-.75.37-1.12s.51-.79.45-1.13c-.14-.79.4-1.53.35-2.08-.14-1.54,1.1-2.92.34-4.46a.68.68,0,0,1,.09-.59,1.78,1.78,0,0,0,.19-2,2.6,2.6,0,0,1,0-.84c0-.65,0-1.31,0-2,0-.32,0-.64,0-1,0-.11.09-.23.07-.33-.24-1.51-.5-3-.75-4.54a2.74,2.74,0,0,1-.09-.63c0-.23.18-.47.12-.66-.38-1.36-.81-2.69-1.23-4-.1-.31-.22-.62-.33-.92-.24-.65-.48-1.29-.71-1.93-.09-.26-.15-.53-.25-.79-.22-.57-.46-1.14-.7-1.7,0-.09-.23-.12-.28-.21-.5-1.06-1-2.13-1.49-3.2,0-.09,0-.25,0-.34l-2.66-3.69-.49-.69c-.4-.51-.82-1-1.2-1.53s-.91-1.32-1.37-2L998.11,73a29.12,29.12,0,0,0,4.65,14.21c1.6,2.62,3.19,5.27,4.63,8,6.5,12.24,7.46,24.84,1.82,37.61a139.79,139.79,0,0,1-6.94,12.71,30.54,30.54,0,0,0-4,11.34c-.1.72-.12,1.45-.17,2l-13.24-13C984.87,145.29,984.89,144.74,985.64,144.72Z" transform="translate(-0.37 -0.14)"/><path class="cls-5" d="M960.1,167.71l.73-1c.23.26.62.5.67.79a7.71,7.71,0,0,1,0,1.86s-.53.15-.57.08C960.64,169,960.4,168.38,960.1,167.71Z" transform="translate(-0.37 -0.14)"/><path class="cls-5" d="M961.19,164.41l-.74.92a7.77,7.77,0,0,1-.68-1.54c-.06-.26.25-.61.4-.92Z" transform="translate(-0.37 -0.14)"/><path class="cls-5" d="M998,88.23c.3.29.73.5.82.82a1.22,1.22,0,0,1-.27,1.08,23.29,23.29,0,0,1-2.72,1.63c-.12.06-.46-.11-.57-.26-1-1.4-1-1.5.55-2.27C996.45,88.89,997.14,88.6,998,88.23Z" transform="translate(-0.37 -0.14)"/><path class="cls-5" d="M980,70.86l0-.22c0,.07,0,.13-.05.19Z" transform="translate(-0.37 -0.14)"/><path class="cls-5" d="M930,67.07a1.47,1.47,0,0,1,1.33,1.59c0,.33-.52.69-.81,1a20.81,20.81,0,0,1-1.17-2C929.28,67.57,929.79,67.23,930,67.07Z" transform="translate(-0.37 -0.14)"/><path class="cls-5" d="M971.1,72.09c.85-1.68,1.61-3.28,2.47-4.82a1.09,1.09,0,0,1,1-.28,1.15,1.15,0,0,1,.38,1q-1,2.36-2.12,4.64a1.13,1.13,0,0,1-1,.4C971.58,73,971.4,72.5,971.1,72.09Z" transform="translate(-0.37 -0.14)"/><path class="cls-5" d="M924.36,70.08a9.91,9.91,0,0,1,1.07,2c.06.25-.56.67-.87,1a23.34,23.34,0,0,1-1.4-2.06A11.29,11.29,0,0,1,924.36,70.08Z" transform="translate(-0.37 -0.14)"/><path class="cls-11" d="M943.86,68.45l-.09.55-.09-.39Z" transform="translate(-0.37 -0.14)"/><path class="cls-13" d="M978.8,109a28,28,0,0,1-7.32,26.26,25.68,25.68,0,0,1-12.13,7.06,26.9,26.9,0,0,1-19.74-2.26,27.46,27.46,0,0,1-10.28-39.34,27.33,27.33,0,0,1,30.41-11.37,27.07,27.07,0,0,1,12.13,7.25A28.76,28.76,0,0,1,978.8,109ZM943.29,92.73c-1,.41-2.58.54-2.95,1.28-.64,1.26-2.14.76-2.79,2a5.61,5.61,0,0,1-2.41,2.06c-1.26.54-1.13,2-2.35,2.5a4.08,4.08,0,0,0-1.73,2.71c-.26,1.18-1.76,1.74-1.34,3.12-1.23.73-.64,2.17-1.22,3.19s-1.13,2.38-.76,3.11c.64,1.24-.63,2.12,0,3.32.46.92-.31,2.26.41,3.32-.87,1.21,1.12,2.12.35,3.31,1.06.92,1,2.39,1.51,3.54s1.35,2.32,2,3.43a20.1,20.1,0,0,0,2.35,3,31.28,31.28,0,0,0,2.9,2.67,22,22,0,0,0,3.17,2.09c1.16.71,2.75.63,3.58,1.89,1.38-.5,2.41,1.23,3.81.59,1.09,1.11,2.69-.14,3.81.81,1.16-.86,2.64.41,3.77-.57,1.39.71,2.5-.95,3.87-.44a31.13,31.13,0,0,0,8.92-4.93,24.69,24.69,0,0,0,8.69-17.89,24.4,24.4,0,0,0-1.64-10.13,24.56,24.56,0,0,0-31.88-14Zm31.29,35.8c.6-.39,1.18-.74,1.71-1.14.13-.11.13-.41.14-.63,0-.06-.14-.18-.23-.19C975.61,126.53,974.5,127.8,974.58,128.53Zm-48.52-15.64a18.75,18.75,0,0,0,1.26-1.43c.13-.17.07-.49,0-.74,0,0-.24-.15-.34-.11A2,2,0,0,0,926.06,112.89Zm52.42.3c-.35.6-.68,1.1-.93,1.65-.08.19.05.49.11.73,0,.06.21.11.3.08C978.56,115.45,978.93,113.86,978.48,113.19ZM941.75,91.5c.84-.14,1.77,1,2.66-.31C943.41,91.28,942.53,90.24,941.75,91.5Zm-10.86,39.79c0-.74,0-1.38,0-2,0-.19-.32-.36-.51-.52,0,0-.2.06-.24.13A2.16,2.16,0,0,0,930.89,131.29Zm13.47,9.45c-.72-.63-1.27-1.12-1.86-1.57,0,0-.31.18-.48.28.49.54,1,1.1,1.5,1.61C943.58,141.12,943.87,140.93,944.36,140.74Zm17.78-.06.75-.58-.76-.31a1,1,0,0,0-.43-.12c-.43.07-.85.18-1.28.27.31.18.61.37.93.52A5.66,5.66,0,0,0,962.14,140.68Zm-12.53-50.6c-.72-.26-1.37-.53-2-.7-.12,0-.53.41-.49.49C947.31,90.41,949,90.6,949.61,90.08Zm25.6,12.55a15.77,15.77,0,0,0-.23,1.9c0,.21.23.44.4.62s.28,0,.35-.13A2.05,2.05,0,0,0,975.21,102.63ZM952.37,89.25c.61.45,1.1.85,1.64,1.17.17.09.49,0,.73-.11,0,0,.07-.2,0-.28A2.13,2.13,0,0,0,952.37,89.25Zm-25.9,31.94a19.12,19.12,0,0,0,.76-1.85c0-.18-.15-.45-.26-.68a.44.44,0,0,0-.28.07A2,2,0,0,0,926.47,121.19Zm25.93-31a8.69,8.69,0,0,0-1.49-1c-.32-.12-.74,0-1.11.09a7,7,0,0,0,.64.58,3.61,3.61,0,0,0,1,.55C951.62,90.45,951.91,90.28,952.4,90.14ZM955,141.92c-.82-.28-1.55-.53-2.29-.75,0,0-.22.3-.21.3a6.91,6.91,0,0,0,1.27.89,2,2,0,0,0,1,0C954.79,142.33,954.84,142.18,955,141.92Zm-29-23.43c.21-.38.34-.64.49-.89a4.71,4.71,0,0,0,.49-.87,1.56,1.56,0,0,0-.16-.73.39.39,0,0,0-.29,0A2.21,2.21,0,0,0,926,118.49Zm52.64-2.78a14.4,14.4,0,0,0-1.12,1.54c-.11.2,0,.55.07.83,0,0,.2.07.28,0A2.16,2.16,0,0,0,978.66,115.71Zm-50.55,10.76a18.38,18.38,0,0,0,.44-1.83c0-.21-.16-.47-.3-.67s-.29,0-.37,0A2.16,2.16,0,0,0,928.11,126.47Zm1.11-20.53a4.76,4.76,0,0,0-.56-.49,15.81,15.81,0,0,0-1.53,1.29c-.08.08.11.43.17.66Zm.15,22.91c.3-2.06.3-2.06-.43-2.46C928.52,128.37,928.52,128.37,929.37,128.85Zm1.73-28.74c.74-.28,1.31-.46,1.85-.72.14-.07.19-.37.24-.58,0,0-.14-.22-.17-.21-.66.3-1.33.6-2,1C931,99.58,931.08,99.9,931.1,100.11Zm36.24,36.4c1-.2,2.1.28,2.51-1C969.07,135.84,967.86,135.06,967.34,136.51Zm10.78-26.16a19.19,19.19,0,0,0-.81,1.86c-.06.19.12.47.23.7,0,0,.2,0,.28,0A2.23,2.23,0,0,0,978.12,110.35ZM972,98.15c.07.71.08,1.31.19,1.88.05.21.32.38.52.53,0,0,.21,0,.26-.1C973.3,100,972.74,98.53,972,98.15Zm-38.73,35.44c.21.5.42,1.08.7,1.63,0,.07.4,0,.61,0-.18-.64-.34-1.29-.56-1.91,0-.12-.38-.14-.59-.17C933.4,133.1,933.35,133.33,933.26,133.59Zm38.66-.06c-2.24.37-2.24.37-2.27,1.22C970.47,134.5,971.55,134.87,971.92,133.53ZM935.27,97c-.29-.13-.44-.26-.56-.24a5.44,5.44,0,0,0-1.41.3c-.25.11-.37.5-.55.76a6.57,6.57,0,0,0,.77,0,3.33,3.33,0,0,0,1-.18A3.6,3.6,0,0,0,935.27,97Zm36.07,1.11c-.19-.54-.37-1.1-.61-1.64-.05-.12-.31-.16-.49-.2s-.19.15-.18.21a16.54,16.54,0,0,0,.51,1.83c0,.14.37.18.57.23C971.17,98.5,971.25,98.26,971.34,98.06Zm-5.77-5.21a16.2,16.2,0,0,0,.75,1.74c.12.2.49.27.75.37,0,0,.18-.13.2-.22C967.39,94.14,966.44,93,965.57,92.85Zm11.75,17.61c.22-.59.42-1.07.59-1.56a.74.74,0,0,0,0-.44,1.76,1.76,0,0,0-.31-.57.33.33,0,0,0-.3,0A2.62,2.62,0,0,0,977.32,110.46Zm-12.24-17c-.29-.56-.53-1-.78-1.49,0-.09-.15-.22-.23-.23-.3,0-.78-.11-.85,0C963,92.12,964.39,93.45,965.08,93.44Zm-18-2.74a7.39,7.39,0,0,0-1.55-.63,3.44,3.44,0,0,0-1.15.2c0,.12,0,.33.11.36a9.32,9.32,0,0,0,1.61.49C946.35,91.16,946.62,90.92,947.1,90.7Zm13.2.62c-.84-.69-1-1.95-2.59-1.43C958.69,90.33,958.77,91.72,960.3,91.32Zm17.75,29.91a11.31,11.31,0,0,0-1.36,1.29,1.09,1.09,0,0,0,.08.89C977.33,123.53,978.25,122,978.05,121.23Zm-50.17-13.48c-.61.82-1.89,1-1.33,2.3C926.92,109.3,928.41,109.27,927.88,107.75Zm-.69,16.07a16.7,16.7,0,0,0,.52-1.92c0-.16-.45-.59-.52-.56C926.64,121.64,926.6,123.26,927.19,123.82Zm30.54,17.85-.91-.4a3.85,3.85,0,0,0-.92-.39c-.21,0-.47.15-.69.26,0,0,0,.21,0,.28A2.11,2.11,0,0,0,957.73,141.67Zm19.63-20.61c.54-.92,1.8-1.25,1.06-2.79C978.15,119.37,976.72,119.58,977.36,121.06Zm-2.23,7.68c-.66.91-2.16.49-2,2.08C973.87,130.24,975.15,130.49,975.13,128.74Zm-17.5-38.18a15.06,15.06,0,0,0-1.56-1.31c-.15-.1-.75.13-.76.25C955.25,90,956.92,90.8,957.63,90.56Zm10.26,3.87c.21.66.35,1.25.59,1.8.09.2.39.31.62.43,0,0,.23-.06.27-.14C969.65,96,968.71,94.58,967.89,94.43Zm8.52,10.67a17.93,17.93,0,0,0-.36,2c0,.2.24.43.39.62,0,0,.21,0,.27-.09A2.14,2.14,0,0,0,976.41,105.1Zm-37.34,33.45c-.39-.72-.66-1.3-1-1.83-.06-.09-.46.05-.7.07.37.63.73,1.27,1.14,1.88C938.53,138.73,938.85,138.6,939.07,138.55Zm.13-45.83A12.92,12.92,0,0,0,941,93c.25,0,.5-.27.73-.44a.36.36,0,0,0,0-.3C941.32,91.82,939.69,92.11,939.2,92.72Zm24.56,45.77a4.52,4.52,0,0,0-.74.29s0,.45.07.46a5.72,5.72,0,0,0,1.53.18c.26,0,.49-.37.74-.56a7.24,7.24,0,0,0-.75-.24C964.39,138.56,964.16,138.55,963.76,138.49ZM962.6,92.31c-.78-1.73-1-1.91-2.08-1.58C961.34,91.14,961.23,92.6,962.6,92.31Zm-21.08,47.62-.53-.85a4.07,4.07,0,0,0-.51-.86,1.32,1.32,0,0,0-.71-.19s-.16.15-.16.24C939.58,138.9,940.66,139.91,941.52,139.93Zm32-8.6a12.27,12.27,0,0,0-1.68.55c-.22.1-.33.44-.46.69,0,0,.1.21.18.23C972.22,133,973.42,132.16,973.56,131.33Zm-42.11.6.9,1.45c.07-.15.25-.33.21-.44-.21-.66.35-1.62-.73-1.91A7.69,7.69,0,0,0,931.45,131.93Zm5.27,5.09a13.51,13.51,0,0,0-.67-1.79c-.08-.15-.53-.11-.81-.16.32.69.64,1.38,1,2.05C936.25,137.17,936.55,137.06,936.72,137Zm37.75-34c-.1-1.05.52-2.07-.7-2.63C974,101.19,973.12,102.22,974.47,103Zm-42.65-1.72a5.08,5.08,0,0,0-.42-.54c-.65.36-1.3.74-1.93,1.15,0,0,.09.3.15.45ZM934.74,96l.9-.13a3.77,3.77,0,0,0,.9-.08,1.53,1.53,0,0,0,.55-.5s0-.23-.1-.28C936.54,94.65,935.06,95.25,934.74,96Zm42.63,27.89a20,20,0,0,0-1.6,1.23c-.14.13-.11.47-.12.72,0,0,.17.13.25.12C976.57,125.93,977.42,124.81,977.37,123.89Zm-9.58,13.29c-.72,0-1.32,0-1.9,0-.21,0-.41.27-.59.44a.32.32,0,0,0,.08.28C965.82,138.33,967.26,138,967.79,137.18Zm-22.68,2.67-.57.47c.59.51,1.19,1,1.8,1.49,0,0,.19-.15.29-.24Zm-16.85-35c.56-.33,1.13-.61,1.64-1,.16-.12.19-.46.23-.7,0,0-.14-.19-.24-.2C929.25,102.9,928.18,104.1,928.26,104.87Zm32.17,36.07c-.72-.22-1.31-.44-1.92-.56-.19,0-.45.19-.66.31a.42.42,0,0,0,.07.28A2.16,2.16,0,0,0,960.43,140.94Zm-34.5-25.38c.24-.8,1.6-1.19.82-2.61C926.38,114,925.17,114.38,925.93,115.56Zm10.86-21.32a18.7,18.7,0,0,0,2,0c.2,0,.36-.32.52-.5,0,0-.11-.22-.17-.22C938.37,93.55,937.42,93,936.79,94.24Zm15.6,47.85c-.92-.39-1.64-.69-2.36-1a1.77,1.77,0,0,0-.15.31c.61.38,1.23.74,1.87,1.07C951.82,142.54,952,142.33,952.39,142.09Zm-3-.05c-.77-.32-1-1.79-2.38-1.1C947.82,141.44,948.12,142.67,949.35,142Z" transform="translate(-0.37 -0.14)"/><path class="cls-14" d="M990.46,100.53c-2.37-7.28-9-15.52-18.91-20.78a40.56,40.56,0,0,0-53.69,14.92c-6.34,10.51-7.49,21.85-4.1,33.57a33.39,33.39,0,0,0,4.33,9.26,46.48,46.48,0,0,0,6.51,8,41.85,41.85,0,0,0,8.13,6.06,44,44,0,0,0,9.32,3.92,38.39,38.39,0,0,0,20.33.32c10.7-3,19.36-9,25.06-18.61C993.57,126.82,995,115.66,990.46,100.53Zm-24-19.15a2.84,2.84,0,0,1,2.7,3c0,2-1.64,3.87-3.3,3.87a2.81,2.81,0,0,1-2.77-2.87C963.07,83.32,964.76,81.35,966.44,81.38Zm-37,63.85a2.66,2.66,0,0,1-2.67-2.67,4.13,4.13,0,0,1,3.66-3.85,2.71,2.71,0,0,1,2.69,2.68A4.18,4.18,0,0,1,929.46,145.23Zm9,6a11.52,11.52,0,0,1-2.67-1.75c-.18-.19.55-1.69,1.17-2.07s3.07,1.45,3,2.16A1.73,1.73,0,0,1,938.46,151.18Zm2.78-5.13c-.11.38-.58.65-.92,1a18.92,18.92,0,0,1-2.64-1.19c-.15-.09.15-.89.24-1.36.17-.85.62-.89,1.28-.51a12.89,12.89,0,0,1,1.68.92A1.31,1.31,0,0,1,941.24,146.05Zm16.58,2a1.54,1.54,0,0,1-.79,1,13.26,13.26,0,0,1-2.42.49c-.12-.19-.39-.44-.43-.72-.31-2,.17-2.34,2.56-2.09C957.55,146.85,958,147.3,957.82,148Zm14.5-6.28c-.1-.12-.2-.25-.29-.38l.29,0Zm5.89-.29c0-.07.11-.13.16-.19l.18.19Zm.31-18.28a27.2,27.2,0,0,1-7,12.08,25.66,25.66,0,0,1-12.14,7.06,26.88,26.88,0,0,1-19.73-2.26,27.45,27.45,0,0,1-10.28-39.33,27.27,27.27,0,0,1,30.41-11.38,27,27,0,0,1,12.13,7.25A28.76,28.76,0,0,1,978.8,109,27,27,0,0,1,978.52,123.19Z" transform="translate(-0.37 -0.14)"/><path class="cls-14" d="M972.32,141.36v.4c-.1-.12-.2-.25-.29-.38Z" transform="translate(-0.37 -0.14)"/><path class="cls-10" d="M943.29,92.73a24.56,24.56,0,0,1,31.88,14,24.4,24.4,0,0,1,1.64,10.13,24.69,24.69,0,0,1-8.69,17.89,31.13,31.13,0,0,1-8.92,4.93c-1.37-.51-2.48,1.15-3.87.44-1.13,1-2.61-.29-3.77.57-1.12-.95-2.72.3-3.81-.81-1.4.64-2.43-1.09-3.81-.59-.83-1.26-2.42-1.18-3.58-1.89a22,22,0,0,1-3.17-2.09,31.28,31.28,0,0,1-2.9-2.67,20.1,20.1,0,0,1-2.35-3c-.61-1.11-1.42-2.21-2-3.43s-.45-2.62-1.51-3.54c.77-1.19-1.22-2.1-.35-3.31-.72-1.06,0-2.4-.41-3.32-.6-1.2.67-2.08,0-3.32-.37-.73.24-2.18.76-3.11s0-2.46,1.22-3.19c-.42-1.38,1.08-1.94,1.34-3.12a4.08,4.08,0,0,1,1.73-2.71c1.22-.53,1.09-2,2.35-2.5A5.61,5.61,0,0,0,937.55,96c.65-1.24,2.15-.74,2.79-2C940.71,93.27,942.26,93.14,943.29,92.73Zm27.81,20.56c.89-.5,1.78-1,2.69-1.49.51-.26.61-.49.3-1q-3.21-5.52-6.35-11.1c-.35-.64-.65-.51-1.14-.22-2.06,1.22-4.13,2.4-6.21,3.6-.27.15-.57.27-.94.45,0-2.82,0-5.49,0-8.15,0-.77-.23-1-1-1-4.06,0-8.12,0-12.19,0-.95,0-1.1.32-1.08,1.16,0,2.62,0,5.23,0,8-2.48-1.43-4.82-2.74-7.12-4.12-.64-.39-.91-.31-1.28.35-2,3.55-4,7.1-6.07,10.6-.5.85-.35,1.17.46,1.61,2.25,1.23,4.45,2.54,6.81,3.91-2.45,1.41-4.73,2.75-7,4-.57.32-.76.53-.37,1.19q3.17,5.42,6.23,10.91c.38.69.7.65,1.29.3,2.08-1.25,4.21-2.43,6.3-3.67.65-.39.81-.27.8.48,0,2.4,0,4.8,0,7.21,0,.74.11,1,1,1q6.15-.06,12.31,0c.86,0,1-.31,1-1.05,0-2.37,0-4.73,0-7.09,0-1,.25-.92.93-.52,2.06,1.23,4.15,2.39,6.21,3.61.53.32.83.42,1.21-.25q3.09-5.53,6.28-11c.35-.6.21-.82-.33-1.12-1.89-1-3.76-2.13-5.63-3.21a8.89,8.89,0,0,1,.88-.42C971.29,115.57,971.29,115.58,971.1,113.29Z" transform="translate(-0.37 -0.14)"/><path class="cls-11" d="M974.58,128.53c-.08-.73,1-2,1.62-2,.09,0,.24.13.23.19,0,.22,0,.52-.14.63C975.76,127.79,975.18,128.14,974.58,128.53Z" transform="translate(-0.37 -0.14)"/><path class="cls-11" d="M926.06,112.89a2,2,0,0,1,1-2.28c.1,0,.34.06.34.11,0,.25.08.57,0,.74A18.75,18.75,0,0,1,926.06,112.89Z" transform="translate(-0.37 -0.14)"/><path class="cls-11" d="M978.48,113.19c.45.67.08,2.26-.52,2.46-.09,0-.28,0-.3-.08-.06-.24-.19-.54-.11-.73C977.8,114.29,978.13,113.79,978.48,113.19Z" transform="translate(-0.37 -0.14)"/><path class="cls-11" d="M941.75,91.5c.78-1.26,1.66-.22,2.66-.31C943.52,92.55,942.59,91.36,941.75,91.5Z" transform="translate(-0.37 -0.14)"/><path class="cls-11" d="M930.89,131.29a2.16,2.16,0,0,1-.77-2.4c0-.07.21-.15.24-.13.19.16.49.33.51.52C930.93,129.91,930.89,130.55,930.89,131.29Z" transform="translate(-0.37 -0.14)"/><path class="cls-11" d="M944.36,140.74c-.49.19-.78.38-.84.32-.52-.51-1-1.07-1.5-1.61.17-.1.43-.33.48-.28C943.09,139.62,943.64,140.11,944.36,140.74Z" transform="translate(-0.37 -0.14)"/><path class="cls-11" d="M962.14,140.68a5.66,5.66,0,0,1-.79-.22c-.32-.15-.62-.34-.93-.52.43-.09.85-.2,1.28-.27a1,1,0,0,1,.43.12l.76.31Z" transform="translate(-0.37 -0.14)"/><path class="cls-11" d="M949.61,90.08c-.6.52-2.3.33-2.53-.21,0-.08.37-.52.49-.49C948.24,89.55,948.89,89.82,949.61,90.08Z" transform="translate(-0.37 -0.14)"/><path class="cls-11" d="M975.21,102.63a2.05,2.05,0,0,1,.52,2.39c-.07.09-.32.17-.35.13s-.41-.41-.4-.62A15.77,15.77,0,0,1,975.21,102.63Z" transform="translate(-0.37 -0.14)"/><path class="cls-11" d="M952.37,89.25a2.13,2.13,0,0,1,2.41.78c0,.08,0,.27,0,.28-.24.06-.56.2-.73.11C953.47,90.1,953,89.7,952.37,89.25Z" transform="translate(-0.37 -0.14)"/><path class="cls-11" d="M926.47,121.19a2,2,0,0,1,.22-2.46.44.44,0,0,1,.28-.07c.11.23.31.5.26.68A19.12,19.12,0,0,1,926.47,121.19Z" transform="translate(-0.37 -0.14)"/><path class="cls-11" d="M952.4,90.14c-.49.14-.78.31-1,.25a3.61,3.61,0,0,1-1-.55,7,7,0,0,1-.64-.58c.37,0,.79-.21,1.11-.09A8.69,8.69,0,0,1,952.4,90.14Z" transform="translate(-0.37 -0.14)"/><path class="cls-11" d="M955,141.92c-.17.26-.22.41-.28.42a2,2,0,0,1-1,0,6.91,6.91,0,0,1-1.27-.89s.17-.32.21-.3C953.46,141.39,954.19,141.64,955,141.92Z" transform="translate(-0.37 -0.14)"/><path class="cls-11" d="M926,118.49a2.21,2.21,0,0,1,.53-2.51.39.39,0,0,1,.29,0,1.56,1.56,0,0,1,.16.73,4.71,4.71,0,0,1-.49.87C926.36,117.85,926.23,118.11,926,118.49Z" transform="translate(-0.37 -0.14)"/><path class="cls-11" d="M978.66,115.71a2.16,2.16,0,0,1-.77,2.41c-.08,0-.28,0-.28,0-.05-.28-.18-.63-.07-.83A14.4,14.4,0,0,1,978.66,115.71Z" transform="translate(-0.37 -0.14)"/><path class="cls-11" d="M928.11,126.47a2.16,2.16,0,0,1-.23-2.48c.08-.07.33-.08.37,0s.33.46.3.67A18.38,18.38,0,0,1,928.11,126.47Z" transform="translate(-0.37 -0.14)"/><path class="cls-11" d="M929.22,105.94l-1.92,1.46c-.06-.23-.25-.58-.17-.66a15.81,15.81,0,0,1,1.53-1.29A4.76,4.76,0,0,1,929.22,105.94Z" transform="translate(-0.37 -0.14)"/><path class="cls-11" d="M929.37,128.85c-.85-.48-.85-.48-.43-2.46C929.67,126.79,929.67,126.79,929.37,128.85Z" transform="translate(-0.37 -0.14)"/><path class="cls-11" d="M931.1,100.11c0-.21-.11-.53-.05-.56.64-.35,1.31-.65,2-1,0,0,.19.16.17.21-.05.21-.1.51-.24.58C932.41,99.65,931.84,99.83,931.1,100.11Z" transform="translate(-0.37 -0.14)"/><path class="cls-11" d="M967.34,136.51c.52-1.45,1.73-.67,2.51-1C969.44,136.79,968.34,136.31,967.34,136.51Z" transform="translate(-0.37 -0.14)"/><path class="cls-11" d="M978.12,110.35a2.23,2.23,0,0,1-.3,2.56c-.08,0-.27,0-.28,0-.11-.23-.29-.51-.23-.7A19.19,19.19,0,0,1,978.12,110.35Z" transform="translate(-0.37 -0.14)"/><path class="cls-12" d="M972,98.15c.75.38,1.31,1.83,1,2.31-.05.06-.23.13-.26.1-.2-.15-.47-.32-.52-.53C972.07,99.46,972.06,98.86,972,98.15Z" transform="translate(-0.37 -0.14)"/><path class="cls-11" d="M933.26,133.59c.09-.26.14-.49.16-.49.21,0,.54.05.59.17.22.62.38,1.27.56,1.91-.21,0-.58.11-.61,0C933.68,134.67,933.47,134.09,933.26,133.59Z" transform="translate(-0.37 -0.14)"/><path class="cls-11" d="M971.92,133.53c-.37,1.34-1.45,1-2.27,1.22C969.68,133.9,969.68,133.9,971.92,133.53Z" transform="translate(-0.37 -0.14)"/><path class="cls-11" d="M935.27,97a3.6,3.6,0,0,1-.76.63,3.33,3.33,0,0,1-1,.18,6.57,6.57,0,0,1-.77,0c.18-.26.3-.65.55-.76a5.44,5.44,0,0,1,1.41-.3C934.83,96.69,935,96.82,935.27,97Z" transform="translate(-0.37 -0.14)"/><path class="cls-11" d="M971.34,98.06c-.09.2-.17.44-.2.43-.2,0-.52-.09-.57-.23a16.54,16.54,0,0,1-.51-1.83c0-.06.14-.21.18-.21s.44.08.49.2C971,97,971.15,97.52,971.34,98.06Z" transform="translate(-0.37 -0.14)"/><path class="cls-11" d="M965.57,92.85c.87.15,1.82,1.29,1.7,1.89,0,.09-.16.24-.2.22-.26-.1-.63-.17-.75-.37A16.2,16.2,0,0,1,965.57,92.85Z" transform="translate(-0.37 -0.14)"/><path class="cls-11" d="M977.32,110.46a2.62,2.62,0,0,1,0-2.54.33.33,0,0,1,.3,0,1.76,1.76,0,0,1,.31.57.74.74,0,0,1,0,.44C977.74,109.39,977.54,109.87,977.32,110.46Z" transform="translate(-0.37 -0.14)"/><path class="cls-11" d="M965.08,93.44c-.69,0-2.08-1.32-1.86-1.7.07-.13.55,0,.85,0,.08,0,.18.14.23.23C964.55,92.41,964.79,92.88,965.08,93.44Z" transform="translate(-0.37 -0.14)"/><path class="cls-11" d="M947.1,90.7c-.48.22-.75.46-1,.42a9.32,9.32,0,0,1-1.61-.49c-.07,0-.08-.24-.11-.36a3.44,3.44,0,0,1,1.15-.2A7.39,7.39,0,0,1,947.1,90.7Z" transform="translate(-0.37 -0.14)"/><path class="cls-11" d="M960.3,91.32c-1.53.4-1.61-1-2.59-1.43C959.25,89.37,959.46,90.63,960.3,91.32Z" transform="translate(-0.37 -0.14)"/><path class="cls-11" d="M978.05,121.23c.2.8-.72,2.3-1.28,2.18a1.09,1.09,0,0,1-.08-.89A11.31,11.31,0,0,1,978.05,121.23Z" transform="translate(-0.37 -0.14)"/><path class="cls-11" d="M927.88,107.75c.53,1.52-1,1.55-1.33,2.3C926,108.78,927.27,108.57,927.88,107.75Z" transform="translate(-0.37 -0.14)"/><path class="cls-11" d="M927.19,123.82c-.59-.56-.55-2.18,0-2.48.07,0,.55.4.52.56A16.7,16.7,0,0,1,927.19,123.82Z" transform="translate(-0.37 -0.14)"/><path class="cls-11" d="M957.73,141.67a2.11,2.11,0,0,1-2.49-.25c0-.07-.06-.26,0-.28.22-.11.48-.29.69-.26a3.85,3.85,0,0,1,.92.39Z" transform="translate(-0.37 -0.14)"/><path class="cls-11" d="M977.36,121.06c-.64-1.48.79-1.69,1.06-2.79C979.16,119.81,977.9,120.14,977.36,121.06Z" transform="translate(-0.37 -0.14)"/><path class="cls-11" d="M975.13,128.74c0,1.75-1.26,1.5-2,2.08C973,129.23,974.47,129.65,975.13,128.74Z" transform="translate(-0.37 -0.14)"/><path class="cls-11" d="M957.63,90.56c-.71.24-2.38-.57-2.32-1.06,0-.12.61-.35.76-.25A15.06,15.06,0,0,1,957.63,90.56Z" transform="translate(-0.37 -0.14)"/><path class="cls-11" d="M967.89,94.43c.82.15,1.76,1.55,1.48,2.09,0,.08-.22.17-.27.14-.23-.12-.53-.23-.62-.43C968.24,95.68,968.1,95.09,967.89,94.43Z" transform="translate(-0.37 -0.14)"/><path class="cls-11" d="M976.41,105.1a2.14,2.14,0,0,1,.3,2.51c-.06.07-.25.12-.27.09-.15-.19-.41-.42-.39-.62A17.93,17.93,0,0,1,976.41,105.1Z" transform="translate(-0.37 -0.14)"/><path class="cls-11" d="M939.07,138.55c-.22,0-.54.18-.58.12-.41-.61-.77-1.25-1.14-1.88.24,0,.64-.16.7-.07C938.41,137.25,938.68,137.83,939.07,138.55Z" transform="translate(-0.37 -0.14)"/><path class="cls-11" d="M939.2,92.72c.49-.61,2.12-.9,2.48-.5a.36.36,0,0,1,0,.3c-.23.17-.48.44-.73.44A12.92,12.92,0,0,1,939.2,92.72Z" transform="translate(-0.37 -0.14)"/><path class="cls-11" d="M963.76,138.49c.4.06.63.07.85.13a7.24,7.24,0,0,1,.75.24c-.25.19-.48.54-.74.56a5.72,5.72,0,0,1-1.53-.18c-.06,0-.12-.43-.07-.46A4.52,4.52,0,0,1,963.76,138.49Z" transform="translate(-0.37 -0.14)"/><path class="cls-11" d="M962.6,92.31c-1.37.29-1.26-1.17-2.08-1.58C961.59,90.4,961.82,90.58,962.6,92.31Z" transform="translate(-0.37 -0.14)"/><path class="cls-11" d="M941.52,139.93c-.86,0-1.94-1-1.91-1.66,0-.09.12-.25.16-.24a1.32,1.32,0,0,1,.71.19,4.07,4.07,0,0,1,.51.86Z" transform="translate(-0.37 -0.14)"/><path class="cls-11" d="M973.56,131.33c-.14.83-1.34,1.69-2,1.47-.08,0-.2-.19-.18-.23.13-.25.24-.59.46-.69A12.27,12.27,0,0,1,973.56,131.33Z" transform="translate(-0.37 -0.14)"/><path class="cls-11" d="M931.45,131.93a7.69,7.69,0,0,1,.38-.9c1.08.29.52,1.25.73,1.91,0,.11-.14.29-.21.44Z" transform="translate(-0.37 -0.14)"/><path class="cls-11" d="M936.72,137c-.17,0-.47.15-.49.1-.35-.67-.67-1.36-1-2.05.28.05.73,0,.81.16A13.51,13.51,0,0,1,936.72,137Z" transform="translate(-0.37 -0.14)"/><path class="cls-11" d="M974.47,103c-1.35-.79-.47-1.82-.7-2.63C975,100.94,974.37,102,974.47,103Z" transform="translate(-0.37 -0.14)"/><path class="cls-11" d="M931.82,101.29l-2.2,1.06c-.06-.15-.18-.43-.15-.45.63-.41,1.28-.79,1.93-1.15A5.08,5.08,0,0,1,931.82,101.29Z" transform="translate(-0.37 -0.14)"/><path class="cls-12" d="M934.74,96c.32-.75,1.8-1.35,2.25-1,.07,0,.14.24.1.28a1.53,1.53,0,0,1-.55.5,3.77,3.77,0,0,1-.9.08Z" transform="translate(-0.37 -0.14)"/><path class="cls-11" d="M977.37,123.89c0,.92-.8,2-1.47,2.07-.08,0-.25-.08-.25-.12,0-.25,0-.59.12-.72A20,20,0,0,1,977.37,123.89Z" transform="translate(-0.37 -0.14)"/><path class="cls-11" d="M967.79,137.18c-.53.78-2,1.15-2.41.74a.32.32,0,0,1-.08-.28c.18-.17.38-.41.59-.44C966.47,137.15,967.07,137.18,967.79,137.18Z" transform="translate(-0.37 -0.14)"/><path class="cls-11" d="M945.11,139.85l1.52,1.72c-.1.09-.27.26-.29.24-.61-.48-1.21-1-1.8-1.49Z" transform="translate(-0.37 -0.14)"/><path class="cls-11" d="M928.26,104.87c-.08-.77,1-2,1.63-1.88.1,0,.25.15.24.2,0,.24-.07.58-.23.7C929.39,104.26,928.82,104.54,928.26,104.87Z" transform="translate(-0.37 -0.14)"/><path class="cls-11" d="M960.43,140.94a2.16,2.16,0,0,1-2.51,0,.42.42,0,0,1-.07-.28c.21-.12.47-.35.66-.31C959.12,140.5,959.71,140.72,960.43,140.94Z" transform="translate(-0.37 -0.14)"/><path class="cls-12" d="M925.93,115.56c-.76-1.18.45-1.59.82-2.61C927.53,114.37,926.17,114.76,925.93,115.56Z" transform="translate(-0.37 -0.14)"/><path class="cls-12" d="M936.79,94.24c.63-1.24,1.58-.69,2.37-.75.06,0,.19.2.17.22-.16.18-.32.48-.52.5A18.7,18.7,0,0,1,936.79,94.24Z" transform="translate(-0.37 -0.14)"/><path class="cls-12" d="M952.39,142.09c-.38.24-.57.45-.64.41-.64-.33-1.26-.69-1.87-1.07a1.77,1.77,0,0,1,.15-.31C950.75,141.4,951.47,141.7,952.39,142.09Z" transform="translate(-0.37 -0.14)"/><path class="cls-12" d="M949.35,142c-1.23.63-1.53-.6-2.38-1.1C948.36,140.25,948.58,141.72,949.35,142Z" transform="translate(-0.37 -0.14)"/><path class="cls-14" d="M978.37,141.28l.18.19h-.34Z" transform="translate(-0.37 -0.14)"/><path class="cls-14" d="M938.46,151.18a11.52,11.52,0,0,1-2.67-1.75c-.18-.19.55-1.69,1.17-2.07s3.07,1.45,3,2.16A1.74,1.74,0,0,1,938.46,151.18Z" transform="translate(-0.37 -0.14)"/><path class="cls-14" d="M940.32,147a20.83,20.83,0,0,1-2.65-1.19c-.14-.09.16-.89.25-1.37.17-.84.62-.88,1.28-.5a13,13,0,0,1,1.69.92,1.37,1.37,0,0,1,.36,1.15C941.13,146.43,940.66,146.7,940.32,147Z" transform="translate(-0.37 -0.14)"/><path class="cls-14" d="M954.62,149.57c-.13-.19-.4-.44-.44-.72-.31-2,.18-2.34,2.56-2.09.81.09,1.21.54,1.08,1.28a1.6,1.6,0,0,1-.79,1.05A14.35,14.35,0,0,1,954.62,149.57Z" transform="translate(-0.37 -0.14)"/><path class="cls-14" d="M963.07,85.33c0-2,1.69-4,3.37-4a2.84,2.84,0,0,1,2.7,3c0,2-1.64,3.88-3.3,3.88A2.81,2.81,0,0,1,963.07,85.33Z" transform="translate(-0.37 -0.14)"/><path class="cls-14" d="M929.46,145.24a2.68,2.68,0,0,1-2.67-2.68,4.13,4.13,0,0,1,3.66-3.85,2.71,2.71,0,0,1,2.69,2.68A4.21,4.21,0,0,1,929.46,145.24Z" transform="translate(-0.37 -0.14)"/><path class="cls-15" d="M968.1,116.8c1.87,1.08,3.74,2.17,5.63,3.21.54.3.68.52.33,1.12q-3.18,5.48-6.28,11c-.38.67-.68.57-1.21.25-2.06-1.22-4.15-2.38-6.21-3.61-.68-.4-1-.43-.93.52.05,2.36,0,4.72,0,7.09,0,.74-.1,1.06-1,1.05q-6.15-.06-12.31,0c-.85,0-1-.3-1-1,0-2.41,0-4.81,0-7.21,0-.75-.15-.87-.8-.48-2.09,1.24-4.22,2.42-6.3,3.67-.59.35-.91.39-1.29-.3q-3.06-5.49-6.23-10.91c-.39-.66-.2-.87.37-1.19,2.31-1.3,4.59-2.64,7-4-2.36-1.37-4.56-2.68-6.81-3.91-.81-.44-1-.76-.46-1.61,2.07-3.5,4.08-7,6.07-10.6.37-.66.64-.74,1.28-.35,2.3,1.38,4.64,2.69,7.12,4.12,0-2.81,0-5.42,0-8,0-.84.13-1.17,1.08-1.16,4.07.06,8.13.05,12.19,0,.73,0,1,.18,1,1,0,2.66,0,5.33,0,8.15.37-.18.67-.3.94-.45,2.08-1.2,4.15-2.38,6.21-3.6.49-.29.79-.42,1.14.22q3.13,5.58,6.35,11.1c.31.55.21.78-.3,1-.91.47-1.8,1-2.69,1.49-.11-.33-.23-.64-.32-1-1.07-3.69-2.77-7-5.92-9.34a4.2,4.2,0,0,0-1.09-.43,5.26,5.26,0,0,0-.28,1.33c0,.68.34,1.34.34,2,0,1,.32,2.13-.88,2.68-1.75.81-3.54,1.54-5.3,2.32-.65.29-1.23.6-1.75-.21-.38-.59-1.21-1.12-1.2-1.68,0-2.16.29-4.33.47-6.49a.08.08,0,0,1,.07.1,1.9,1.9,0,0,0,.35-3,4.72,4.72,0,0,0-5.52-.84c-.23.15-.32.52-.47.79l0,.08-.08,0c-.34.33-1,.67-1,1a5.57,5.57,0,0,0,.65,1.75l0,0,.24.24.05-.08c.13.8.3,1.6.36,2.41s0,1.68,0,2.52a1.54,1.54,0,0,1-2.35,1.45c-.51-.26-1-.55-1.49-.83q-4.25-2.44-8.5-4.88c-.27-.15-.83-.34-.91-.24a8.57,8.57,0,0,0-1.22,2c0,.15.77.59,1.13.94s.71.71.65,1c-.33,1.28-.86,1.52-1.91.76s-1.59-.59-2.06.5a3.1,3.1,0,0,1-.37.57c-.31.43-.28.71.23,1,1.43.78,2.83,1.62,4.24,2.44l6.45,3.74c-.54.31-1,.44-1.29.76-1.28,1.65-3.2,2.11-5,2.73a7.82,7.82,0,0,1-3,.23c-.88-.06-1.42.22-1.64,1a6,6,0,0,0-.25,1.68c0,2.32.56,2.76,2.78,2s4.09-1.62,6.09-2.51a5.61,5.61,0,0,1,2.88-.69,21.43,21.43,0,0,0,4-.53c.33,0,.91-.6,1,.24a4.54,4.54,0,0,1-2,4,2.26,2.26,0,0,0,.39,4.4,18.6,18.6,0,0,0,9,0c1-.25,1.91-.76,2-2a2.28,2.28,0,0,0-1.64-2.45,2.08,2.08,0,0,1-1.33-1.92c3.38,2,6.64,3.81,9.88,5.71.71.42,1.21.68,1.74-.25.88-1.54.92-1.5-.22-2.25-.24-.16-.6-.45-.59-.66a1.15,1.15,0,0,1,1.86-1c.82.52,1.37.51,1.71-.49a3.47,3.47,0,0,1,.37-.57c.38-.55.34-.93-.3-1.28-1.57-.86-3.08-1.82-4.66-2.65a1.75,1.75,0,0,1-1.17-1.93,3.58,3.58,0,0,0-1.32-3.15,13.3,13.3,0,0,0-2-1.13c1-.32,1.9-.6,2.79-.91.54-.19.86-.06,1,.53.23,1.12.51,2.22.69,3.35.14.9.4,1.45,1.44.94A5.54,5.54,0,0,1,968.1,116.8Z" transform="translate(-0.37 -0.14)"/><path class="cls-16" d="M968.1,116.8a5.54,5.54,0,0,0-1.1.28c-1,.51-1.3,0-1.44-.94-.18-1.13-.46-2.23-.69-3.35-.11-.59-.43-.72-1-.53-.89.31-1.8.59-2.79.91a13.3,13.3,0,0,1,2,1.13,3.58,3.58,0,0,1,1.32,3.15,1.75,1.75,0,0,0,1.17,1.93c1.58.83,3.09,1.79,4.66,2.65.64.35.68.73.3,1.28a3.47,3.47,0,0,0-.37.57c-.34,1-.89,1-1.71.49a1.15,1.15,0,0,0-1.86,1c0,.21.35.5.59.66,1.14.75,1.1.71.22,2.25-.53.93-1,.67-1.74.25-3.24-1.9-6.5-3.76-9.88-5.71a2.08,2.08,0,0,0,1.33,1.92,2.28,2.28,0,0,1,1.64,2.45c-.1,1.27-1,1.78-2,2a18.6,18.6,0,0,1-9,0,2.26,2.26,0,0,1-.39-4.4,4.54,4.54,0,0,0,2-4c-.11-.84-.69-.27-1-.24a21.43,21.43,0,0,1-4,.53,5.61,5.61,0,0,0-2.88.69c-2,.89-4,1.82-6.09,2.51s-2.73.29-2.78-2a6,6,0,0,1,.25-1.68c.22-.81.76-1.09,1.64-1a7.82,7.82,0,0,0,3-.23c1.79-.62,3.71-1.08,5-2.73.25-.32.75-.45,1.29-.76l-6.45-3.74c-1.41-.82-2.81-1.66-4.24-2.44-.51-.28-.54-.56-.23-1a3.1,3.1,0,0,0,.37-.57c.47-1.09,1.06-1.23,2.06-.5s1.58.52,1.91-.76c.06-.24-.37-.67-.65-1s-1.18-.79-1.13-.94a8.57,8.57,0,0,1,1.22-2c.08-.1.64.09.91.24q4.26,2.43,8.5,4.88c.49.28,1,.57,1.49.83a1.54,1.54,0,0,0,2.35-1.45c0-.84,0-1.68,0-2.52s-.23-1.61-.36-2.41l2,.84v.37l-1.07-.17c0,1.41,0,2.78,0,4.14a.83.83,0,0,0,.52.59c1.09.2,2.19.33,3.45.52,0-1.47,0-3.1,0-4.73,0-.15-.33-.39-.54-.43a2.12,2.12,0,0,0-.77.1v-.37l2.16-.88c-.18,2.16-.45,4.33-.47,6.49,0,.56.82,1.09,1.2,1.68.52.81,1.1.5,1.75.21,1.76-.78,3.55-1.51,5.3-2.32,1.2-.55.87-1.71.88-2.68,0-.67-.3-1.33-.34-2a5.26,5.26,0,0,1,.28-1.33,4.2,4.2,0,0,1,1.09.43c3.15,2.35,4.85,5.65,5.92,9.34.09.33.21.64.32,1,.19,2.29.19,2.28-2.12,3.09A8.89,8.89,0,0,0,968.1,116.8Zm-4.4,6.2a4.35,4.35,0,0,0,.25-1.21c0-.14-.68-.41-.73-.35a7.74,7.74,0,0,0-.93,1.4c0,.11.09.38.21.51.62.7.82-.15,1.2-.35a1.75,1.75,0,0,0,.06.33l.46,1c.23-.11.57-.16.66-.34a3.16,3.16,0,0,0,.39-1.46.52.52,0,0,0-1,0C964.18,122.78,963.9,122.87,963.7,123Zm-16-13c-.1-.18-.17-.43-.32-.52q-5.05-3-10.13-5.86c-.91-.52-.79.5-1.13.81s-.28.67.2,1c2.7,1.53,5.34,3.2,8.11,4.58.91.45,2.18,1.33,3.27,0,.27.58-.84,1.1.07,1.8a4.79,4.79,0,0,1,1.85,3.43c0,.19.44.35.67.52.15-.22.41-.44.42-.66,0-1,0-2.06,0-3.09h.45c0,.88,0,1.76,0,2.63,0,.43.13,1.09.4,1.22,1.08.53,2.23.89,3.74,1.46l-1.52-4.53c.32.34.57.49.63.7a30,30,0,0,1,1,3.56c.14.72.44,1.24,1.1,1.06,1.07-.29,2-2.92,1.29-3.86a28.57,28.57,0,0,0-3.39-4.12c-1.77-1.69-3.82-1.71-6-.39A5.17,5.17,0,0,1,947.74,110ZM944,116.45c-1.28.36-2,1-1.87,2.17a2.17,2.17,0,0,0,2.18,2.08,16.25,16.25,0,0,0,3.8-.51c2.39-.63,4.69-1,7.1.09a9.63,9.63,0,0,0,5.55.69,3.67,3.67,0,0,0,3.1-2.53,3.36,3.36,0,0,0-.93-3.67,3.81,3.81,0,0,0-3.9-.92c-.17.05-.3.24-.45.37a1.82,1.82,0,0,0,.52.33,14.72,14.72,0,0,1,1.9.25,2.59,2.59,0,0,1,1.89,3.54,2.47,2.47,0,0,1-3.37,1.79,16.69,16.69,0,0,1-3.08-1.4c-1-.55-2-1.3-3-1.8a5.88,5.88,0,0,0-6.54.47,20.08,20.08,0,0,1-2,1.31,5,5,0,0,1-1,.34,10.32,10.32,0,0,1-.06-1.11C943.77,117.49,943.87,117.05,944,116.45Zm26.91-1.58c-.88-4.7-2.61-8.71-6.34-11.6a1.72,1.72,0,0,0-.58-.19,1.72,1.72,0,0,0-.06.54,8.69,8.69,0,0,1,.08,4.95c-.07.21.1.51.17.76.64,2.3,1.31,4.59,1.91,6.9.14.52.27.59.75.42,1.17-.44,2.37-.8,3.54-1.24C970.57,115.32,970.73,115,970.86,114.87Zm-18.54,11.91a28.09,28.09,0,0,0,3.21-.67c.37-.11.9-.82.82-1a7.86,7.86,0,0,0-1.61-2.79,16.69,16.69,0,0,0-3.52-2.09c-.78-.4-1.22,0-1.45.88a16.27,16.27,0,0,1-1.13,3.3c-.5,1-.52,1.46.53,1.79A27.87,27.87,0,0,0,952.32,126.78Zm-11-8.51a34.8,34.8,0,0,1-3.42,1.44,9.36,9.36,0,0,1-3.1.46c-1.34-.07-1.5-.1-1.69,1.23a12,12,0,0,0,0,1.7c0,1,.54,1.31,1.39,1,2.56-1,5.1-2.08,7.63-3.16.13,0,.24-.44.18-.6C942,119.63,941.7,119,941.35,118.27Zm11,11.19a41.31,41.31,0,0,0,4.79-.87,1.71,1.71,0,0,0,.61-3c-.39-.35-.65-.53-1.08.14a2.61,2.61,0,0,1-1.75,1.07,27.17,27.17,0,0,1-5.18,0c-.67-.07-1.27-.81-1.92-1.22-.18-.11-.59-.22-.63-.16-.34.52-.92,1.13-.84,1.61a2.23,2.23,0,0,0,1.2,1.56A45.75,45.75,0,0,0,952.32,129.46Zm-.08-9.42-.1.16a2.64,2.64,0,0,1,.29.15c4.54,2.62,9.09,5.22,13.61,7.87,1,.56.92-.37,1.26-.72s.27-.73-.25-1c-2.49-1.4-4.86-3-7.44-4.2a57.12,57.12,0,0,0-6.85-2.24A1.81,1.81,0,0,0,952.24,120Zm-7.9-6.21a2.62,2.62,0,0,0-.66-.79c-2.93-1.73-5.92-3.38-8.84-5.14-1-.6-1,.23-1.39.65-.51.6-.08.82.38,1.08l9.26,5.33C944.27,115.64,944.29,115.62,944.34,113.83Zm-.05,4.65c1.28-.81,2.42-1.63,3.65-2.28s1.61-1.13.79-2.43a13.08,13.08,0,0,0-2.32-2.61c-.35-.32-1-.27-1.56-.39,0,.46-.06.93-.07,1.4,0,.3.06.61,0,.91C944.65,114.81,944.48,116.55,944.29,118.48Zm15.83,1.31a2.27,2.27,0,0,0,2.43-2.58c-.07-1.18-.84-1.81-2.4-2.16-1.12-.26-1.47.35-1.73,1.24a5.61,5.61,0,0,1-.47.91c-.27.49-.54,1-.8,1.47a18.39,18.39,0,0,0,1.73.84A7.4,7.4,0,0,0,960.12,119.79Zm-1.9-6.19,4.39-1.39c1.93-.62,1.9-.61,1.17-2.51-.25-.63-.46-.81-1.13-.49-1.57.75-3.2,1.39-4.79,2.11a2.41,2.41,0,0,0-.79.63C957.41,112.53,957.83,113.06,958.22,113.6Zm4.71,7c2,1.15,3.94,2.23,5.85,3.38,1,.61.88-.45,1.24-.77.52-.47.14-.73-.3-1-1.29-.72-2.56-1.47-3.84-2.21C964.27,119.14,964.27,119.14,962.93,120.64Zm-19.74-10.79c-.4-.23-.85-.57-.9-.52a6.82,6.82,0,0,0-1.07,1.44c0,.08.47.45.72.68Zm-2.8-1.62c-.4-.26-.85-.61-.9-.56a9.37,9.37,0,0,0-1.17,1.49,3,3,0,0,0,.64.58C939.42,109.31,939.84,108.83,940.39,108.23Zm-2.46-1.71a19,19,0,0,0-1,1.89c0,.08.47.38.72.59a11.22,11.22,0,0,0,1-1.53C938.72,107.35,938.28,107,937.93,106.52Zm3.82,2.5a8.71,8.71,0,0,0-.89-.57,10.68,10.68,0,0,0-1.14,1.59,3.63,3.63,0,0,0,.69.55C940.86,110.13,941.26,109.61,941.75,109Zm2.75,1.63a10,10,0,0,0-.84-.56,8.26,8.26,0,0,0-1,1.53c0,.08.47.43.72.66Zm21.3,14.94a16.33,16.33,0,0,0,1.08-1.85c0-.1-.4-.42-.62-.65a13,13,0,0,0-1.12,1.55C965.07,124.76,965.47,125.14,965.8,125.59Zm-3.07-4.48-.28-.32a16.17,16.17,0,0,0-1.45,1.14c-.07.07.09.53.25.68a.65.65,0,0,0,.64-.09A13.11,13.11,0,0,0,962.73,121.11Zm-3.06.36-.06.28c.28.06.55.12.82.15,0,0,.07-.19.11-.29Zm-15.31-9-.14-.3c-.08.07-.24.15-.23.21a1.05,1.05,0,0,0,.19.34Z" transform="translate(-0.37 -0.14)"/><path class="cls-12" d="M951.42,103.37l-2-.84-.05.08-.24-.24,0,0c-.14-.94-.58-1.91.31-2.73l.08,0,0-.08a4.42,4.42,0,0,1,4.1-.67c1.86.57,2.32,1.71,1.48,3.45,0,.06,0,.18.06.27a.08.08,0,0,0-.07-.1l-2.16.88Zm.89-3.94c-1.34,0-2.42.63-2.43,1.41s1.07,1.45,2.41,1.46,2.41-.63,2.43-1.43S953.67,99.43,952.31,99.43Z" transform="translate(-0.37 -0.14)"/><path class="cls-16" d="M955.24,102.61c0-.09-.09-.21-.06-.27.84-1.74.38-2.88-1.48-3.45a4.42,4.42,0,0,0-4.1.67c.15-.27.24-.64.47-.79a4.72,4.72,0,0,1,5.52.84A1.9,1.9,0,0,1,955.24,102.61Z" transform="translate(-0.37 -0.14)"/><path class="cls-16" d="M949.5,99.66c-.89.82-.45,1.79-.31,2.73a5.57,5.57,0,0,1-.65-1.75C948.53,100.33,949.16,100,949.5,99.66Z" transform="translate(-0.37 -0.14)"/><path class="cls-16" d="M949.17,102.37l.24.24Z" transform="translate(-0.37 -0.14)"/><path class="cls-14" d="M944,116.45c-.08.6-.18,1-.21,1.49a10.32,10.32,0,0,0,.06,1.11,5,5,0,0,0,1-.34,20.08,20.08,0,0,0,2-1.31,5.88,5.88,0,0,1,6.54-.47c1.06.5,2,1.25,3,1.8a16.69,16.69,0,0,0,3.08,1.4,2.47,2.47,0,0,0,3.37-1.79A2.59,2.59,0,0,0,961,114.8a14.72,14.72,0,0,0-1.9-.25,1.82,1.82,0,0,1-.52-.33c.15-.13.28-.32.45-.37a3.81,3.81,0,0,1,3.9.92,3.36,3.36,0,0,1,.93,3.67,3.67,3.67,0,0,1-3.1,2.53,9.63,9.63,0,0,1-5.55-.69c-2.41-1-4.71-.72-7.1-.09a16.25,16.25,0,0,1-3.8.51,2.17,2.17,0,0,1-2.18-2.08C942,117.43,942.67,116.81,944,116.45Z" transform="translate(-0.37 -0.14)"/><path class="cls-14" d="M947.74,110a5.17,5.17,0,0,0,.81-.29c2.14-1.32,4.19-1.3,6,.39a28.57,28.57,0,0,1,3.39,4.12c.68.94-.22,3.57-1.29,3.86-.66.18-1-.34-1.1-1.06a30,30,0,0,0-1-3.56c-.06-.21-.31-.36-.63-.7l1.52,4.53c-1.51-.57-2.66-.93-3.74-1.46-.27-.13-.37-.79-.4-1.22-.06-.87,0-1.75,0-2.63h-.45c0,1,0,2.06,0,3.09,0,.22-.27.44-.42.66-.23-.17-.65-.33-.67-.52a4.79,4.79,0,0,0-1.85-3.43c-.91-.7.2-1.22-.07-1.8Z" transform="translate(-0.37 -0.14)"/><path class="cls-2" d="M970.86,114.87c-.13.14-.29.45-.53.54-1.17.44-2.37.8-3.54,1.24-.48.17-.61.1-.75-.42-.6-2.31-1.27-4.6-1.91-6.9-.07-.25-.24-.55-.17-.76a8.69,8.69,0,0,0-.08-4.95,1.72,1.72,0,0,1,.06-.54,1.72,1.72,0,0,1,.58.19C968.25,106.16,970,110.17,970.86,114.87Z" transform="translate(-0.37 -0.14)"/><path class="cls-2" d="M952.32,126.78a27.87,27.87,0,0,1-3.15-.61c-1-.33-1-.82-.53-1.79a16.27,16.27,0,0,0,1.13-3.3c.23-.9.67-1.28,1.45-.88a16.69,16.69,0,0,1,3.52,2.09,7.86,7.86,0,0,1,1.61,2.79c.08.21-.45.92-.82,1A28.09,28.09,0,0,1,952.32,126.78Z" transform="translate(-0.37 -0.14)"/><path class="cls-12" d="M941.35,118.27c.35.71.69,1.36,1,2,.06.16-.05.55-.18.6-2.53,1.08-5.07,2.15-7.63,3.16-.85.34-1.4,0-1.39-1a12,12,0,0,1,0-1.7c.19-1.33.35-1.3,1.69-1.23a9.36,9.36,0,0,0,3.1-.46A34.8,34.8,0,0,0,941.35,118.27Z" transform="translate(-0.37 -0.14)"/><path class="cls-12" d="M952.32,129.46a45.75,45.75,0,0,1-4.8-.88,2.23,2.23,0,0,1-1.2-1.56c-.08-.48.5-1.09.84-1.61,0-.06.45,0,.63.16.65.41,1.25,1.15,1.92,1.22a27.17,27.17,0,0,0,5.18,0,2.61,2.61,0,0,0,1.75-1.07c.43-.67.69-.49,1.08-.14a1.71,1.71,0,0,1-.61,3A41.31,41.31,0,0,1,952.32,129.46Z" transform="translate(-0.37 -0.14)"/><path class="cls-12" d="M952.24,120a1.81,1.81,0,0,1,.52,0,57.12,57.12,0,0,1,6.85,2.24c2.58,1.19,4.95,2.8,7.44,4.2.52.29.69.56.25,1s-.29,1.28-1.26.72c-4.52-2.65-9.07-5.25-13.61-7.87a2.64,2.64,0,0,0-.29-.15Z" transform="translate(-0.37 -0.14)"/><path class="cls-12" d="M944.34,113.83c-.05,1.79-.07,1.81-1.25,1.13l-9.26-5.33c-.46-.26-.89-.48-.38-1.08.37-.42.41-1.25,1.39-.65,2.92,1.76,5.91,3.41,8.84,5.14A2.62,2.62,0,0,1,944.34,113.83Z" transform="translate(-0.37 -0.14)"/><path class="cls-12" d="M947.74,110c-1.09,1.3-2.36.42-3.27,0-2.77-1.38-5.41-3-8.11-4.58-.48-.28-.62-.58-.2-1s.22-1.33,1.13-.81q5.07,2.91,10.13,5.86c.15.09.22.34.32.52Z" transform="translate(-0.37 -0.14)"/><path class="cls-14" d="M944.29,118.48c.19-1.93.36-3.67.52-5.4,0-.3,0-.61,0-.91,0-.47,0-.94.07-1.4.53.12,1.21.07,1.56.39a13.08,13.08,0,0,1,2.32,2.61c.82,1.3.55,1.72-.79,2.43S945.57,117.67,944.29,118.48Z" transform="translate(-0.37 -0.14)"/><path class="cls-12" d="M953,103.76a2.12,2.12,0,0,1,.77-.1c.21,0,.54.28.54.43,0,1.63,0,3.26,0,4.73-1.26-.19-2.36-.32-3.45-.52a.83.83,0,0,1-.52-.59c0-1.36,0-2.73,0-4.14l1.07.17Z" transform="translate(-0.37 -0.14)"/><path class="cls-14" d="M960.12,119.79a7.4,7.4,0,0,1-1.24-.28,18.39,18.39,0,0,1-1.73-.84c.26-.49.53-1,.8-1.47a5.61,5.61,0,0,0,.47-.91c.26-.89.61-1.5,1.73-1.24,1.56.35,2.33,1,2.4,2.16A2.27,2.27,0,0,1,960.12,119.79Z" transform="translate(-0.37 -0.14)"/><path class="cls-12" d="M958.22,113.6c-.39-.54-.81-1.07-1.15-1.65a2.41,2.41,0,0,1,.79-.63c1.59-.72,3.22-1.36,4.79-2.11.67-.32.88-.14,1.13.49.73,1.9.76,1.89-1.17,2.51Z" transform="translate(-0.37 -0.14)"/><path class="cls-12" d="M962.93,120.64c1.34-1.5,1.34-1.5,3-.58,1.28.74,2.55,1.49,3.84,2.21.44.25.82.51.3,1-.36.32-.24,1.38-1.24.77C966.87,122.87,964.92,121.79,962.93,120.64Z" transform="translate(-0.37 -0.14)"/><path class="cls-15" d="M963.7,123c.2-.13.48-.22.57-.41a.52.52,0,0,1,1,0,3.16,3.16,0,0,1-.39,1.46c-.09.18-.43.23-.66.34l-.46-1a1.75,1.75,0,0,1-.06-.33Z" transform="translate(-0.37 -0.14)"/><path class="cls-15" d="M943.19,109.85l-1.25,1.6c-.25-.23-.76-.6-.72-.68a6.82,6.82,0,0,1,1.07-1.44C942.34,109.28,942.79,109.62,943.19,109.85Z" transform="translate(-0.37 -0.14)"/><path class="cls-15" d="M940.39,108.23c-.55.6-1,1.08-1.43,1.51a3,3,0,0,1-.64-.58,9.37,9.37,0,0,1,1.17-1.49S940,108,940.39,108.23Z" transform="translate(-0.37 -0.14)"/><path class="cls-11" d="M937.93,106.52c.35.45.79.83.73,1a11.22,11.22,0,0,1-1,1.53c-.25-.21-.75-.51-.72-.59A19,19,0,0,1,937.93,106.52Z" transform="translate(-0.37 -0.14)"/><path class="cls-11" d="M941.75,109c-.49.59-.89,1.11-1.34,1.57a3.63,3.63,0,0,1-.69-.55,10.68,10.68,0,0,1,1.14-1.59A8.71,8.71,0,0,1,941.75,109Z" transform="translate(-0.37 -0.14)"/><path class="cls-11" d="M963.7,123c-.38.2-.58,1-1.2.35-.12-.13-.26-.4-.21-.51a7.74,7.74,0,0,1,.93-1.4c0-.06.72.21.73.35a4.35,4.35,0,0,1-.25,1.21Z" transform="translate(-0.37 -0.14)"/><path class="cls-11" d="M944.5,110.65l-1.16,1.63c-.25-.23-.76-.58-.72-.66a8.26,8.26,0,0,1,1-1.53A10,10,0,0,1,944.5,110.65Z" transform="translate(-0.37 -0.14)"/><path class="cls-12" d="M965.8,125.59c-.33-.45-.73-.83-.66-1a13,13,0,0,1,1.12-1.55c.22.23.66.55.62.65A16.33,16.33,0,0,1,965.8,125.59Z" transform="translate(-0.37 -0.14)"/><path class="cls-15" d="M962.73,121.11a13.11,13.11,0,0,1-.84,1.41.65.65,0,0,1-.64.09c-.16-.15-.32-.61-.25-.68a16.17,16.17,0,0,1,1.45-1.14Z" transform="translate(-0.37 -0.14)"/><path class="cls-17" d="M953,103.76l-1.59,0v-.37l1.59,0Z" transform="translate(-0.37 -0.14)"/><path class="cls-11" d="M959.67,121.47l.87.14c0,.1-.08.29-.11.29-.27,0-.54-.09-.82-.15Z" transform="translate(-0.37 -0.14)"/><path class="cls-15" d="M944.36,112.5l-.18.25a1.05,1.05,0,0,1-.19-.34c0-.06.15-.14.23-.21Z" transform="translate(-0.37 -0.14)"/><path class="cls-16" d="M952.31,99.43c1.36,0,2.42.63,2.41,1.44s-1.1,1.44-2.43,1.43-2.42-.66-2.41-1.46S951,99.43,952.31,99.43Zm0,2.75c.79-.5,1.88-.88,1.88-1.26,0-1-1-1-1.82-1s-1.82,0-1.87,1C950.43,101.23,951.55,101.68,952.27,102.18Z" transform="translate(-0.37 -0.14)"/><path class="cls-12" d="M952.27,102.18c-.72-.5-1.84-1-1.81-1.32,0-1,1.09-1,1.87-1s1.82,0,1.82,1C954.15,101.3,953.06,101.68,952.27,102.18Z" transform="translate(-0.37 -0.14)"/><path class="cls-7" d="M982.37,83.76c-.15,0-.35,0-.44-.06-1-.85-1.9-1.71-2.83-2.58-.08-.07-.1-.23-.18-.28-1.24-.74-2.48-1.47-3.72-2.18-.1-.06-.29,0-.33-.07-.56-1.17-1.76-1.22-2.72-1.75-.72-.4-1.26-1-2.18-.94-.23,0-.46-.4-.72-.49-1.48-.51-3-1-4.44-1.46-.2-.06-.5,0-.6-.1a2.07,2.07,0,0,0-2.28-.57,1.07,1.07,0,0,1-.6-.16c-.2-.1-.37-.37-.55-.37a30.21,30.21,0,0,1-3.7-.51c-.57-.07-1.15,0-1.78-.08a25.52,25.52,0,0,0-4.37,0h-1c-.07,0-.14-.1-.21-.08-1.47.22-2.94.47-4.41.71-.3,0-.61.13-.91.15s-.75-.15-1,0a9.6,9.6,0,0,1-2.66.7,26.45,26.45,0,0,0-3.86,1.64,2.28,2.28,0,0,1-.65.14c-.18,0-.41-.06-.56,0-1.27.67-2.54,1.38-3.8,2.08-.18.11-.35.4-.51.38a2.11,2.11,0,0,0-2,1.12,1.09,1.09,0,0,1-.54.32c-.21.08-.5,0-.65.16-1.14.91-2.22,1.89-3.36,2.79a15.51,15.51,0,0,1-1.78,1,3.18,3.18,0,0,1-.37-.27q-6.24-6.27-12.48-12.55a1.64,1.64,0,0,1-.25-.4c5.42-.14,10.14-2.06,14.6-4.82,2.71-1.68,5.46-3.31,8.29-4.79,10.75-5.65,21.91-6.83,33.5-2.88a72.42,72.42,0,0,1,14.57,7.48,30.73,30.73,0,0,0,8.86,4.08c2,.47,4,.74,6.12,1.14Z" transform="translate(-0.37 -0.14)"/><path d="M952.37,72a43.93,43.93,0,1,0,43.73,43.93A43.83,43.83,0,0,0,952.37,72Zm0,83.47a39.54,39.54,0,1,1,39.36-39.54A39.46,39.46,0,0,1,952.37,155.43Z" transform="translate(-0.37 -0.14)"/><path class="cls-1" d="M952,92.89a23.38,23.38,0,1,0,23.38,23.38A23.37,23.37,0,0,0,952,92.89Zm.17,45.89a22.69,22.69,0,1,1,22.69-22.69A22.69,22.69,0,0,1,952.12,138.78Z" transform="translate(-0.37 -0.14)"/><path d="M952.12,87.73a28.36,28.36,0,1,0,28.36,28.36A28.36,28.36,0,0,0,952.12,87.73ZM952,139.64a23.38,23.38,0,1,1,23.38-23.37A23.37,23.37,0,0,1,952,139.64Z" transform="translate(-0.37 -0.14)"/><path class="cls-1" d="M66.38,51.84V64.56h20.4a6.18,6.18,0,0,1,5.76,5.68c0,2.64-2.88,4.8-5.76,4.8H66.38v16.8a4.75,4.75,0,0,1-4.8,5c-3.52,0-5.68-2.16-5.68-5V46.4c0-2.88,2.16-5,5.68-5H89.66c3.52,0,5.6,2.08,5.6,5a5.52,5.52,0,0,1-5.6,5.44Z" transform="translate(-0.37 -0.14)"/><path class="cls-1" d="M104.7,46.24c0-6.56,10.56-6.8,10.56,0V91.92c0,6.64-10.56,6.8-10.56,0Z" transform="translate(-0.37 -0.14)"/><path class="cls-1" d="M137.74,91.6c0,7-10.64,7.2-10.64.16V46.32a4.78,4.78,0,0,1,4.8-4.88h21.28c20.32,0,24.48,27.2,7.52,34l10.64,13c4.16,6.16-4.16,12.08-9,6L150.3,77.12H137.74Zm0-23.68h15.44c10.4,0,11-16.8,0-16.8H137.74Z" transform="translate(-0.37 -0.14)"/><path class="cls-1" d="M186.06,96.8a4.88,4.88,0,0,1-5-5V46.4a4.84,4.84,0,0,1,5-5h28.72c7.36,0,7.2,10.4,0,10.4h-23v12H211.9c7.12,0,7.12,10.48,0,10.48H191.74v12h24.4c7.28,0,7.84,10.48,0,10.48Z" transform="translate(-0.37 -0.14)"/><path class="cls-1" d="M259.26,96.8c-2.64,0-5.52-1.44-5.52-5V46.4c0-2.88,2.88-5,5.52-5h18.32c36.56,0,35.76,55.36.72,55.36Zm5-45.6V87h13.28c21.6,0,22.56-35.84,0-35.84Z" transform="translate(-0.37 -0.14)"/><path class="cls-1" d="M319,96.8a4.88,4.88,0,0,1-5-5V46.4a4.84,4.84,0,0,1,5-5h28.72c7.36,0,7.2,10.4,0,10.4h-23v12h20.16c7.12,0,7.12,10.48,0,10.48H324.7v12h24.4c7.28,0,7.84,10.48,0,10.48Z" transform="translate(-0.37 -0.14)"/><path class="cls-1" d="M363.42,46.24a5.5,5.5,0,0,1,5.44-5.52h18.48c10.4,0,19.76,7,19.76,20.32,0,12.64-9.36,19.68-19.76,19.68H374V91.28c0,3.52-2.24,5.52-5.12,5.52a5.4,5.4,0,0,1-5.44-5.52ZM374,50.8V70.72h13.36a9.86,9.86,0,0,0,9.6-9.68c0-5.6-4.24-10.24-9.6-10.24Z" transform="translate(-0.37 -0.14)"/><path class="cls-1" d="M410.7,96.8a5.64,5.64,0,0,1-2.56-7.68l23-44.88c2.16-4.24,7.92-4.4,9.92,0l22.56,44.88c3.28,6.24-6.4,11.2-9.28,5l-3.52-7H421.26l-3.44,7C416.54,96.8,413.58,97.36,410.7,96.8Zm34.4-20.32-9-19.76-9.84,19.76Z" transform="translate(-0.37 -0.14)"/><path class="cls-1" d="M481.5,91.6c0,7-10.64,7.2-10.64.16V46.32a4.78,4.78,0,0,1,4.8-4.88h21.28c20.32,0,24.48,27.2,7.52,34l10.64,13c4.16,6.16-4.16,12.08-9,6L494.06,77.12H481.5Zm0-23.68h15.44c10.4,0,11-16.8,0-16.8H481.5Z" transform="translate(-0.37 -0.14)"/><path class="cls-1" d="M540,51.44H526c-7,0-7-10.24,0-10.24h37.84a5.12,5.12,0,1,1,0,10.24H550.54v40.4c0,7-10.56,7.12-10.56,0Z" transform="translate(-0.37 -0.14)"/><path class="cls-1" d="M587.42,61.68v29.6a5.53,5.53,0,0,1-5.76,5.52c-2.56,0-4.8-2-4.8-5.52v-45a5.32,5.32,0,0,1,4.8-5.52c2.32,0,3.68,1.36,5,2.88l17.6,23.76,18.24-24.64a5.19,5.19,0,0,1,9.12,3.52v45c0,3.52-2.24,5.52-4.8,5.52-2.88,0-5.12-2-5.12-5.52V61.68l-13.28,16.8c-2.88,3.52-6.48,3.52-9.12,0Z" transform="translate(-0.37 -0.14)"/><path class="cls-1" d="M647.66,96.8a4.88,4.88,0,0,1-5-5V46.4a4.84,4.84,0,0,1,5-5h28.72c7.36,0,7.2,10.4,0,10.4h-23v12H673.5c7.12,0,7.12,10.48,0,10.48H653.34v12h24.4c7.28,0,7.84,10.48,0,10.48Z" transform="translate(-0.37 -0.14)"/><path class="cls-1" d="M692.05,47c0-2.88.65-5.68,4.81-5.68,2.88,0,3.52.72,5.68,2.8L729,77.28v-31c0-2.64,2.32-5.52,5-5.52a6.09,6.09,0,0,1,5.68,5.52v45c0,3.52-2.16,4.88-4.24,5.52-2.8,0-4.16-.64-6.48-2.8L702.54,60.4V91.28c0,3.52-2.16,5.52-5,5.52a5.28,5.28,0,0,1-5.45-5.52Z" transform="translate(-0.37 -0.14)"/><path class="cls-1" d="M765.9,51.44h-14c-7,0-7-10.24,0-10.24h37.84a5.12,5.12,0,1,1,0,10.24H776.46v40.4c0,7-10.56,7.12-10.56,0Z" transform="translate(-0.37 -0.14)"/></svg>