<svg id="First_Church" data-name="First Church" xmlns="http://www.w3.org/2000/svg" viewBox="0 0 1080 215.83"><defs><style>.cls-1{fill:#fff;}.cls-2{fill:#afc06e;}.cls-3{fill:#5bb951;}.cls-4{fill:#8a5940;}.cls-5{fill:#906149;}.cls-6{fill:#e2d7df;}.cls-7{fill:#e4d9e1;}.cls-8{fill:#e8edf0;}.cls-9{fill:#e6ebef;}.cls-10{fill:#fae4d5;}.cls-11{fill:#8e5580;}.cls-12{fill:#832d34;}.cls-13{fill:#f18844;}.cls-14{fill:#9bb04a;}.cls-15{fill:#9eb24f;}.cls-16{fill:#803e6f;}.cls-17{fill:#814572;}.cls-18{fill:#8b3b42;}.cls-19{fill:#97ad43;}.cls-20{fill:#8d3d44;}.cls-21{fill:#7b386a;}.cls-22{fill:#f17c30;}.cls-23{fill:#f18b49;}.cls-24{fill:#894f7b;}.cls-25{fill:#a26268;}.cls-26{fill:#853037;}.cls-27{fill:#f29050;}.cls-28{fill:#366686;}.cls-29{fill:#7b396a;}.cls-30{fill:#a3b758;}.cls-31{fill:#985359;}.cls-32{fill:#fcfcfc;}.cls-33{fill:#f29354;}.cls-34{fill:#316283;}.cls-35{fill:#95ab3e;}.cls-36{fill:#f2985d;}.cls-37{fill:#4a7592;}.cls-38{fill:#4b7692;}.cls-39{fill:#87343b;}.cls-40{fill:#f19050;}.cls-41{fill:#f6b890;}.cls-42{fill:#60869f;}.cls-43{fill:#a8ba61;}.cls-44{fill:#e8882f;}.cls-45{fill:#e7822e;}.cls-46{fill:#926186;}.cls-47{fill:#a6696e;}.cls-48{fill:#7c1f26;}.cls-49{fill:#783367;}.cls-50{fill:#e2e734;}.cls-51{fill:#a26368;}.cls-52{fill:#f07f35;}.cls-53{fill:#93494f;}.cls-54{fill:#becb89;}.cls-55{fill:#42708d;}.cls-56{fill:#86a024;}.cls-57{fill:#ccdc2f;}.cls-58{fill:#7c1f27;}.cls-59{fill:#43718e;}.cls-60{fill:#f1843c;}.cls-61{fill:#487491;}.cls-62{fill:#f29e65;}.cls-63{fill:#f18d4c;}.cls-64{fill:#2d7877;}.cls-65{fill:#7d3269;}.cls-66{fill:#99668c;}.cls-67{fill:#406e8c;}.cls-68{fill:#a4676c;}.cls-69{fill:#205679;}.cls-70{fill:#91444b;}.cls-71{fill:#1f5579;}.cls-72{fill:#de574b;}.cls-73{fill:#f29253;}.cls-74{fill:#f29456;}.cls-75{fill:#964e54;}.cls-76{fill:#8b527d;}.cls-77{fill:#7c2028;}.cls-78{fill:#f5b78e;}.cls-79{fill:#9bb049;}.cls-80{fill:#9ab049;}.cls-81{fill:#803d6f;}.cls-82{fill:#93aa3b;}.cls-83{fill:#a2b657;}.cls-84{fill:#8ca7b8;}.cls-85{fill:#517a95;}.cls-86{fill:#2d6080;}.cls-87{fill:#f29557;}.cls-88{fill:#c1ce8f;}.cls-89{fill:#205579;}.cls-90{fill:#f0813a;}.cls-91{fill:#f18945;}.cls-92{fill:#f2955a;}.cls-93{fill:#7c3269;}.cls-94{fill:#f18944;}.cls-95{fill:#f18b48;}.cls-96{fill:#f28c49;}.cls-97{fill:#8ca531;}.cls-98{fill:#9eb34f;}.cls-99{fill:#c3cf92;}.cls-100{fill:#8f4148;}.cls-101{fill:#89a229;}.cls-102{fill:#f07c30;}.cls-103{fill:#46728f;}.cls-104{fill:#7a3769;}.cls-105{fill:#f3b387;}.cls-106{fill:#5f849d;}.cls-107{fill:#afbf6e;}.cls-108{fill:#547d97;}.cls-109{fill:#f29e66;}.cls-110{fill:#3a6988;}.cls-111{fill:#8d577f;}.cls-112{fill:#356684;}.cls-113{fill:#f5bc97;}.cls-114{fill:#f6c6a5;}.cls-115{fill:#754269;}.cls-116{fill:#f3a069;}.cls-117{fill:#f18d4b;}.cls-118{fill:#2f6181;}.cls-119{fill:#3c6b89;}.cls-120{fill:#767ba6;}.cls-121{fill:#f1995f;}.cls-122{fill:#f17e34;}.cls-123{fill:#547c97;}.cls-124{fill:#212d78;}.cls-125{fill:#674060;}.cls-126{fill:#00715a;}.cls-127{fill:#2a5d7f;}.cls-128{fill:#824975;}.cls-129{fill:#f07d32;}.cls-130{fill:#3f6d8b;}.cls-131{fill:#869f24;}.cls-132{fill:#f7d3ba;}.cls-133{fill:#7d2128;}.cls-134{fill:#f18640;}.cls-135{fill:#864f79;}.cls-136{fill:#658aa1;}.cls-137{fill:#d6bec0;}.cls-138{fill:#8d6048;}.cls-139{fill:#1f5679;}.cls-140{fill:#8b3a41;}.cls-141{fill:#87a127;}.cls-142{fill:#416f8c;}.cls-143{fill:#966b8b;}.cls-144{fill:#974f55;}.cls-145{fill:#8e3f46;}.cls-146{fill:#145c6a;}.cls-147{fill:#7b1f27;}.cls-148{fill:#d82e1e;}.cls-149{fill:#2b5e80;}.cls-150{fill:#dc574b;}.cls-151{fill:#326383;}.cls-152{fill:#8ba42d;}.cls-153{fill:#804070;}.cls-154{fill:#9aaf48;}.cls-155{fill:#92a93b;}.cls-156{fill:#88a128;}.cls-157{fill:#89a22b;}.cls-158{fill:#e0d6d0;}.cls-159{fill:#9fb352;}.cls-160{fill:#b3c377;}.cls-161{fill:#7b3269;}.cls-162{fill:#7e252c;}.cls-163{fill:#8e6149;}.cls-164{fill:#7e9caf;}.cls-165{fill:#6e8fa5;}.cls-166{fill:#f3b389;}.cls-167{fill:#a0899b;}.cls-168{fill:#c7a4a7;}.cls-169{fill:#f29e67;}.cls-170{fill:#f07f34;}.cls-171{fill:#f08e4e;}.cls-172{fill:#f08039;}.cls-173{fill:#f5d2b8;}.cls-174{fill:#ab8a79;}.cls-175{fill:#af7b7f;}.cls-176{fill:#386886;}.cls-177{fill:#91454c;}.cls-178{fill:#9aaf49;}.cls-179{fill:#e3d2d3;}.cls-180{fill:#aabc66;}.cls-181{fill:#859f24;}.cls-182{fill:#853239;}.cls-183{fill:#7d232b;}.cls-184{fill:#efe5e6;}.cls-185{fill:#43708d;}.cls-186{fill:#f17c2f;}.cls-187{fill:#7b3769;}.cls-188{fill:#497591;}.cls-189{fill:#47738f;}.cls-190{fill:#f08038;}.cls-191{fill:#da392a;}.cls-192{fill:#9b7c94;}.cls-193{fill:#7b3268;}.cls-194{fill:#8da531;}.cls-195{fill:#8ea633;}.cls-196{fill:#316282;}.cls-197{fill:#8e4046;}.cls-198{fill:#8e5780;}.cls-199{fill:#7a3368;}.cls-200{fill:#793668;}.cls-201{fill:#773466;}.cls-202{fill:#5c829b;}.cls-203{fill:#7a3f6c;}.cls-204{fill:#7b3368;}.cls-205{fill:#8c5f81;}.cls-206{fill:#f1965a;}.cls-207{fill:#89573e;}.cls-208{fill:#89583f;}.cls-209{fill:#733965;}.cls-210{fill:#864d79;}.cls-211{fill:#20567a;}.cls-212{fill:#1f567a;}.cls-213{fill:#396987;}.cls-214{fill:#f18a47;}.cls-215{fill:#f7f5f6;}.cls-216{fill:#f2ebeb;}.cls-217{fill:#fcf5f0;}.cls-218{fill:#eef2e2;}.cls-219{fill:#f9faf5;}.cls-220{fill:#f6f1f2;}.cls-221{fill:#fcf5f1;}.cls-222{fill:#f0f3f5;}.cls-223{fill:#954d53;}.cls-224{fill:#7d2229;}.cls-225{fill:#fbece2;}.cls-226{fill:#f0f3e5;}.cls-227{fill:#fbf1ea;}.cls-228{fill:#fefefe;}.cls-229{fill:#edf0df;}.cls-230{fill:#e4eaee;}.cls-231{fill:#295c7e;}.cls-232{fill:#295d7f;}.cls-233{fill:#7c1e26;}.cls-234{fill:#85a023;}.cls-235{fill:#8ba42e;}.cls-236{fill:#f5f3f1;}.cls-237{fill:#f1edf0;}.cls-238{fill:#87a124;}.cls-239{fill:#ebeff2;}.cls-240{fill:#306282;}.cls-241{fill:#fae7d9;}.cls-242{fill:#f08139;}.cls-243{fill:#fcf5ef;}.cls-244{fill:#f17d31;}.cls-245{fill:#f07d31;}.cls-246{fill:#ebefdb;}.cls-247{fill:#fdfdfd;}.cls-248{fill:#f8deca;}.cls-249{fill:#f0833d;}.cls-250{fill:#884c79;}.cls-251{fill:#f07e32;}.cls-252{fill:#93aa3c;}.cls-253{fill:#f29a61;}.cls-254{fill:#f08945;}.cls-255{fill:#93aa3d;}</style></defs><rect class="cls-1" y="141.57" width="1080" height="23.04"/><rect class="cls-2" width="1080" height="141.12"/><circle class="cls-1" cx="952.93" cy="117.12" r="98.7"/><path class="cls-1" d="M951.93,92.62A23.38,23.38,0,1,0,975.3,116,23.38,23.38,0,0,0,951.93,92.62Zm.17,45.89a22.69,22.69,0,1,1,22.69-22.68A22.68,22.68,0,0,1,952.1,138.51Z" transform="translate(-0.34 0.13)"/><path class="cls-1" d="M66.36,51.57V64.29h20.4A6.18,6.18,0,0,1,92.52,70c0,2.64-2.88,4.8-5.76,4.8H66.36v16.8a4.75,4.75,0,0,1-4.8,5c-3.52,0-5.68-2.16-5.68-5V46.13c0-2.88,2.16-5,5.68-5H89.64c3.52,0,5.6,2.08,5.6,5a5.52,5.52,0,0,1-5.6,5.44Z" transform="translate(-0.34 0.13)"/><path class="cls-1" d="M104.68,46c0-6.56,10.56-6.8,10.56,0V91.65c0,6.64-10.56,6.8-10.56,0Z" transform="translate(-0.34 0.13)"/><path class="cls-1" d="M137.72,91.33c0,7-10.64,7.2-10.64.16V46.05a4.78,4.78,0,0,1,4.8-4.88h21.28c20.32,0,24.48,27.2,7.52,34l10.64,13c4.16,6.16-4.16,12.08-9,6L150.28,76.85H137.72Zm0-23.68h15.44c10.4,0,11-16.8,0-16.8H137.72Z" transform="translate(-0.34 0.13)"/><path class="cls-1" d="M180.2,53.17c1.84-15.52,25.28-18.32,36.32-9.84,5.44,4.4-.32,11.36-5.12,7.84-5.92-3.76-19.36-5.52-21,2.8-2.16,13.12,32.64,5.6,32.08,26.88-.56,20.32-30,20.8-41,11.68a5.92,5.92,0,0,1-1.12-7.84c2.08-2.08,4.4-2.8,7.12-.56C194,88.61,210.84,92,212,80.61,211,68.77,177.72,75.89,180.2,53.17Z" transform="translate(-0.34 0.13)"/><path class="cls-1" d="M246.68,51.17h-14c-7,0-7-10.24,0-10.24h37.84a5.12,5.12,0,1,1,0,10.24H257.24v40.4c0,7-10.56,7.12-10.56,0Z" transform="translate(-0.34 0.13)"/><path class="cls-1" d="M304.83,68.45c0-15.44,9.68-28.72,28.09-28.72,7,0,12.48,2.08,18.32,7.12a5.19,5.19,0,1,1-7.12,7.52c-3.28-3.44-6.64-4.4-11.2-4.4-12.33,0-18.25,8.72-18.25,18.48,0,9.92,5.84,19,18.25,19a18.63,18.63,0,0,0,12.48-5.12,5.39,5.39,0,0,1,7.36,1c1.28,1.76,1.92,4.72-.88,7.52-5.6,5.2-12.32,6.24-19,6.24C313.55,97.09,304.83,83.89,304.83,68.45Z" transform="translate(-0.34 0.13)"/><path class="cls-1" d="M363.23,91.57V46.13c0-2.88,2.08-5,5.68-5a4.77,4.77,0,0,1,4.88,5V63.57h26.09V46.13a5.2,5.2,0,0,1,5.44-5,4.84,4.84,0,0,1,5,5V91.57a4.88,4.88,0,0,1-5,5,5.26,5.26,0,0,1-5.44-5V74.05H373.79V91.57a4.82,4.82,0,0,1-4.88,5C365.31,96.53,363.23,94.37,363.23,91.57Z" transform="translate(-0.34 0.13)"/><path class="cls-1" d="M459.07,46.45c0-7.12,10.48-7.68,10.48,0v29c0,29.92-48.24,29.92-48.24,0v-29c0-7.2,10.48-7.52,10.48,0v29c0,15.76,27.28,16.72,27.28,0Z" transform="translate(-0.34 0.13)"/><path class="cls-1" d="M491.31,91.33c0,7-10.64,7.2-10.64.16V46.05a4.78,4.78,0,0,1,4.8-4.88h21.28c20.32,0,24.48,27.2,7.52,34l10.64,13c4.16,6.16-4.16,12.08-9,6L503.87,76.85H491.31Zm0-23.68h15.44c10.4,0,11-16.8,0-16.8H491.31Z" transform="translate(-0.34 0.13)"/><path class="cls-1" d="M532.75,68.45c0-15.44,9.68-28.72,28.08-28.72,7,0,12.48,2.08,18.32,7.12A5.19,5.19,0,1,1,572,54.37c-3.28-3.44-6.64-4.4-11.2-4.4-12.32,0-18.24,8.72-18.24,18.48,0,9.92,5.84,19,18.24,19a18.63,18.63,0,0,0,12.48-5.12,5.39,5.39,0,0,1,7.36,1c1.28,1.76,1.92,4.72-.88,7.52-5.6,5.2-12.32,6.24-19,6.24C541.47,97.09,532.75,83.89,532.75,68.45Z" transform="translate(-0.34 0.13)"/><path class="cls-1" d="M591.15,91.57V46.13c0-2.88,2.08-5,5.68-5a4.77,4.77,0,0,1,4.88,5V63.57h26.08V46.13a5.2,5.2,0,0,1,5.44-5,4.84,4.84,0,0,1,5,5V91.57a4.88,4.88,0,0,1-5,5,5.26,5.26,0,0,1-5.44-5V74.05H601.71V91.57a4.82,4.82,0,0,1-4.88,5C593.23,96.53,591.15,94.37,591.15,91.57Z" transform="translate(-0.34 0.13)"/><ellipse class="cls-1" cx="953.34" cy="116.82" rx="83.83" ry="84.2"/><path class="cls-3" d="M953.68,30.75a85.94,85.94,0,1,0,85.94,85.94A85.94,85.94,0,0,0,953.68,30.75Zm0,166.77a80.83,80.83,0,1,1,80.83-80.83A80.82,80.82,0,0,1,953.68,197.52Z" transform="translate(-0.34 0.13)"/><path class="cls-4" d="M951.47,152a.63.63,0,0,0,.47.73,1.08,1.08,0,0,0,1.89-.07l.13-.11a2.64,2.64,0,0,0,1.11-1.06l.1-.1a3.49,3.49,0,0,0,1.13-1.1l.08-.09a3.89,3.89,0,0,0,1.13-1.12l.07-.07a4.09,4.09,0,0,0,1.13-1.14l.07-.07a4.19,4.19,0,0,0,1.13-1.13l.07-.09a3.63,3.63,0,0,0,1.11-1.13l.09-.09a3.89,3.89,0,0,0,1.14-1.11l.07-.06a11,11,0,0,0,1.26-1.1h0a4.08,4.08,0,0,1,1.5-1.13,1,1,0,0,0,1-.47,3,3,0,0,0,1.15-.83h0c.62-.71,1.76-.44,2.33-1.25l.06,0c.69-.63,1.77-.42,2.42-1.15h0c.73-.72,1.84-.57,2.65-1.11a.91.91,0,0,0,1-.26,1.24,1.24,0,0,1,1.38-.09,2.57,2.57,0,0,1,.54,1.38,2.85,2.85,0,0,1-.65,1.34l-.07,0a9.19,9.19,0,0,1-1.48,1c-10.45,5.76-16.94,13.63-17,26.59,0,7.19-7,1.63-10.2,3.62a2.41,2.41,0,0,1-1.32-1.73c1.73-13.56-7.81-22.6-13.23-33.29l.27-.42a1,1,0,0,1,1-.19,6.91,6.91,0,0,0,1,.19.82.82,0,0,0,.82.62,2,2,0,0,1,1.56,1.33l-.15-.13a2.08,2.08,0,0,1,1.36,1.29l-.12-.12a2.47,2.47,0,0,1,1.34,1.3l-.11-.11a2.71,2.71,0,0,1,1.32,1.31l-.1-.11a2.82,2.82,0,0,1,1.3,1.32l-.11-.11a2.6,2.6,0,0,1,1.29,1.34l-.11-.12a2.14,2.14,0,0,1,1.28,1.38l-.07,0c2.66.39,3,2.65,3.77,4.62h0a3.85,3.85,0,0,1,1.16,1.37l-.1-.12A2.2,2.2,0,0,1,951.47,152Z" transform="translate(-0.34 0.13)"/><path class="cls-5" d="M954.91,147.76l-4-.11c-4.37-.82-3.7-3.93-3.15-7l.4-1.91a2.16,2.16,0,0,1,1.24-1.7l-.13.12a2.14,2.14,0,0,1,1.73-1.24l3.89-.05a4.85,4.85,0,0,1,1.54,1.07l0,0c.36.45.8.83,1.14,1.3l0-.06a8.76,8.76,0,0,1,0,7.21l0-.06c-.34.47-.78.85-1.13,1.3l0,0A4.88,4.88,0,0,1,954.91,147.76Z" transform="translate(-0.34 0.13)"/><path class="cls-6" d="M998.44,150.82l-1.2.65c-4-.95-8-1.74-10.7-5.33a5.93,5.93,0,0,1-1-1.34,8.26,8.26,0,0,1-.84-2.4,2.28,2.28,0,0,1,1-1.34c3.32-1.13,6.12.44,9,1.74a6.51,6.51,0,0,1,1.74,1.77c.35.41.69.83,1,1.27l.45.66a5,5,0,0,1,1.16,2.05A4.85,4.85,0,0,1,998.44,150.82Z" transform="translate(-0.34 0.13)"/><path class="cls-7" d="M932.53,99.74c.93-2.07,2.2-1.53,3.53-.45.15,1.17,1.21,1.59,1.91,2.3a8.09,8.09,0,0,1,2.73,3.88c0,2.11,1.93,4,.85,6.24a3.46,3.46,0,0,1-.69,1.43l-.77.21-.76-.2a12.47,12.47,0,0,1-1.43-.68,10.28,10.28,0,0,1-4.08-3.63,18.22,18.22,0,0,0-1.08-2.11,5.76,5.76,0,0,1-.3-1.54A41.34,41.34,0,0,1,932.53,99.74Z" transform="translate(-0.34 0.13)"/><path class="cls-8" d="M910.93,103.52l2.43-1.45c1.67,1.43,4.08,1.14,5.76,2.54a21.74,21.74,0,0,1,2.84,2.67,10.75,10.75,0,0,1,1.36,1.85,5.92,5.92,0,0,1,.5,1.43,3.62,3.62,0,0,1-.45,2.16,2.25,2.25,0,0,1-1.25.64c-.69-.12-1.35-.38-2-.49a6.86,6.86,0,0,1-2-.42,14.23,14.23,0,0,0-1.84-.9,4.89,4.89,0,0,1-1.2-.68,11.73,11.73,0,0,1-1.5-1.49c-.54-.79-.92-1.67-1.39-2.49C911.58,105.82,911.57,104.56,910.93,103.52Z" transform="translate(-0.34 0.13)"/><path class="cls-9" d="M979.3,84.83c1.71-1.3,3.33-1.8,4.62.54-1,1.76.06,4-1.3,5.69a10,10,0,0,1-1.5,1.68,9.24,9.24,0,0,1-1.82,1.35,5.26,5.26,0,0,1-1.91,1.21,2.42,2.42,0,0,1-2.12-.6,7,7,0,0,1,.34-4.49,6.5,6.5,0,0,1,.59-1.32A12.32,12.32,0,0,1,978.09,87l.43-.44a2.87,2.87,0,0,1,.87-.72l.47.19s.31-.42.3-.42l-.53,0-.48-.24S979.3,84.83,979.3,84.83Z" transform="translate(-0.34 0.13)"/><path class="cls-10" d="M952.85,63.43c.75-1.17,1.53-1.43,2.36-.1a11.27,11.27,0,0,1,2.35,5.55,8.92,8.92,0,0,1-1.34,4.85,5.81,5.81,0,0,0-.58,1.55,1.6,1.6,0,0,1-1.41.63,5.61,5.61,0,0,1-1.27-1,3.36,3.36,0,0,1-.76-1.4c-.46-1.77-1.49-3.45-1-5.41a13.23,13.23,0,0,1,1.61-3.6l-.06.07c.33-.23.45-.47.37-.74S953,63.43,952.85,63.43Z" transform="translate(-0.34 0.13)"/><path class="cls-11" d="M975.85,71.75c3.3,5,1.25,8.73-2.63,12.1A2.19,2.19,0,0,1,971.47,82c.7-3.52.78-7.21,2.74-10.4A1.27,1.27,0,0,1,975.85,71.75Z" transform="translate(-0.34 0.13)"/><path class="cls-12" d="M936.05,69.19l2.47,2.32a5.36,5.36,0,0,0,.89,1.49c1.16,3.38,1.36,6.66-1,9.68l-.68.48a1.89,1.89,0,0,1-1.21-1c-.48-2.59,0-5.29-.86-7.86-.19-.76-.35-1.52-.5-2.29a5.44,5.44,0,0,1,0-1.56A2.34,2.34,0,0,1,936.05,69.19Z" transform="translate(-0.34 0.13)"/><path class="cls-13" d="M964.73,105.32a1.11,1.11,0,0,1,.44-1,2,2,0,0,1,.91-1l.1-.1a2.19,2.19,0,0,1,1-.94,1.18,1.18,0,0,1,1-.44c.85-.54,1.37-.13,1.78.61.2,1.4-.74,2.27-1.48,3.24a16.17,16.17,0,0,0-1.16,1.68c-.18.41-.37.81-.54,1.21a5.69,5.69,0,0,0-.26,2,9,9,0,0,0,1.21,2.5,1.29,1.29,0,0,1-.42,1.31c-3.12,2.46-4.54,1.95-3.85-2.23a2.57,2.57,0,0,1,0-2.17l.43-3.2A13.91,13.91,0,0,0,964.73,105.32Z" transform="translate(-0.34 0.13)"/><path class="cls-14" d="M1016.44,117.72c2.14,5.81-1.7,7.22-6,8.27-.77-.72-2.13-.18-2.72-1.28a2,2,0,0,1,.4-1.47c2.63-1.6,5.48-2.88,7.62-5.22Z" transform="translate(-0.34 0.13)"/><path class="cls-15" d="M903.52,129.61l-7.24-.27a6.84,6.84,0,0,1-1.33-.72l-3.54-3.69.29-.78a2.91,2.91,0,0,1,1.34-.89l.82,0c2.09.62,3.63,2.28,5.65,3C900.9,127.35,903.59,126.79,903.52,129.61Z" transform="translate(-0.34 0.13)"/><path class="cls-16" d="M986.8,145.34l10.44,6.13c-5.49,1-9.64-.71-12-6l.4-.48A1.39,1.39,0,0,1,986.8,145.34Z" transform="translate(-0.34 0.13)"/><path class="cls-17" d="M994.9,144.14l-9.4-2.24a2,2,0,0,1-1.55.52c-.9-.24-1.57-.65-1.25-1.77A.47.47,0,0,0,983,140l.25-.89.54.74,0-.17c2.82.88,5.8-.2,8.62.69l1.15.31a2.94,2.94,0,0,0,1.27.54,2.41,2.41,0,0,1,1.22.64l0,0a1.26,1.26,0,0,1,.4,1.19A1.69,1.69,0,0,1,994.9,144.14Z" transform="translate(-0.34 0.13)"/><path class="cls-18" d="M999.64,93.46l-3.15,2.7a1.46,1.46,0,0,1-2-.68c-.59-2.31,1.34-3.26,2.48-4.64A11.4,11.4,0,0,0,998.2,89a5,5,0,0,1,1.37-1.81,1.11,1.11,0,0,1,1.33.33c-.15,1.62-.31,3.24-.46,4.86A1.84,1.84,0,0,1,999.64,93.46Z" transform="translate(-0.34 0.13)"/><path class="cls-19" d="M891.62,121.27c3.18-3.4,6.42-2.82,9.7-.15-.07.26-.14.52-.2.79a3.36,3.36,0,0,1-1.12,1.16,4.73,4.73,0,0,1-1.58.36,17.38,17.38,0,0,1-6.3-1.52Z" transform="translate(-0.34 0.13)"/><path class="cls-20" d="M934.68,83c-2.71-1.66-4.6-3.86-4.84-7.2a3.35,3.35,0,0,1,0-3.15l.48-1.94c2.93.4,1.89,3.17,2.83,4.77.18.46.35.93.53,1.39.32.67.66,1.33,1,2a4.75,4.75,0,0,1,.81,2.92A2,2,0,0,1,934.68,83Z" transform="translate(-0.34 0.13)"/><path class="cls-21" d="M933.39,105.6a2.76,2.76,0,0,1,.24,1.13,5.5,5.5,0,0,1,.84,1.29l3.86,4,.49.55-.42.6a1.43,1.43,0,0,1-1.35-.23l-1.06-.51a1.36,1.36,0,0,1-1-.85l-.14-.11a2.75,2.75,0,0,1-1.1-1.09l-.1-.11a1.68,1.68,0,0,1-.89-1,1.13,1.13,0,0,1-.47-1c-.28-.47-.54-.94-.8-1.42v-4.7C934.12,102.2,932.28,104.7,933.39,105.6Z" transform="translate(-0.34 0.13)"/><path class="cls-22" d="M910.52,139.22c3-4.21,6.87-3.66,10.93-2,.3,1.49-.82,1.79-1.82,2.2a21.19,21.19,0,0,1-3.81.36c-.72.09-1.43.2-2.14.34a6.31,6.31,0,0,1-1.44.18,3.32,3.32,0,0,1-1.36-.45Z" transform="translate(-0.34 0.13)"/><path class="cls-23" d="M974.29,108a8,8,0,0,1-5.87,6,2.08,2.08,0,0,1-.6-1.49c.85-3,2.1-5.66,5-7.21C974.19,105.68,973.57,107.2,974.29,108Z" transform="translate(-0.34 0.13)"/><path class="cls-24" d="M967,76.24c0-2,.65-3.61,2.54-4.54a2.23,2.23,0,0,1,1.76,1.63,9.74,9.74,0,0,1-.73,4.16c-1.05,1.73,0,4.84-3.25,5.13l-.32-2A6.18,6.18,0,0,1,967,76.24Z" transform="translate(-0.34 0.13)"/><path class="cls-25" d="M925.36,128.44c-2.25,4.62-5.62,2.39-8.77,1.46.61-1.31,1.9-1.63,3-2.17a14.21,14.21,0,0,1,2.83-.93,1.86,1.86,0,0,1,1.84.76c.62.14-.71,1.09.42,1Z" transform="translate(-0.34 0.13)"/><path class="cls-26" d="M988.71,93.35l.54-2.26a5,5,0,0,1,.76-1.3l3.22-3.69a1.38,1.38,0,0,1,1.93.57c.3,1.44-.66,2.33-1.4,3.32a17.47,17.47,0,0,0-1.2,1.75c-.2.44-.41.87-.61,1.3a22.13,22.13,0,0,1-.9,2.06c-.43.7-.94,1.25-1.87,1.09C988.06,95.4,988.18,94.41,988.71,93.35Z" transform="translate(-0.34 0.13)"/><path class="cls-27" d="M913,145.56a1.36,1.36,0,0,1-1-.29,1.22,1.22,0,0,1,.16-1.34,4.9,4.9,0,0,1,2.63-1.05c.46-.1.92-.17,1.37-.25a17.13,17.13,0,0,0,2-.65,5.51,5.51,0,0,1,3.52-.56,2.88,2.88,0,0,1,1.06,1l.15.73-4.58,2.46A7.48,7.48,0,0,1,913,145.56Z" transform="translate(-0.34 0.13)"/><path class="cls-28" d="M992.6,110.74a.93.93,0,0,1-.45.93,2.07,2.07,0,0,1-.95,1l-.13.11a1.57,1.57,0,0,1-1,.87,1,1,0,0,1-1,.48l-1.4.83-2.13.44c-1,.45-2,.69-2.9-.36a1.64,1.64,0,0,1,.92-1.89,14.09,14.09,0,0,1,1.95-.86c.4-.18.82-.34,1.23-.51a11.09,11.09,0,0,0,1.65-1c.48-.44,1-.88,1.48-1.31a4.78,4.78,0,0,1,1.17-.7l.69-.11.67.17.47.53A3,3,0,0,1,992.6,110.74Z" transform="translate(-0.34 0.13)"/><path class="cls-29" d="M940.82,112.87l-1-7.33c.18-.6.31-1.24,1-1.53a1.37,1.37,0,0,1,1.14.42c.24,2.81,1.7,5.63,0,8.43A.64.64,0,0,1,940.82,112.87Z" transform="translate(-0.34 0.13)"/><path class="cls-30" d="M903.52,129.61l-4.77-2.12c.9-1.52,2.53-1.53,4-1.94.47-.15.95-.31,1.41-.48l.72-.19C906.6,127.09,909.43,129.6,903.52,129.61Z" transform="translate(-0.34 0.13)"/><path class="cls-31" d="M980.24,129.66l1.4-2.34a2.92,2.92,0,0,1,1.72.67,18.36,18.36,0,0,0,1.54,1.07,11.8,11.8,0,0,0,1.86.58,3.76,3.76,0,0,1,2.4,1.34.92.92,0,0,1-.66,1.08l-6.85.09a.83.83,0,0,1-1.12.22l-.4-.5c-.31-.6.56-1,.27-1.63Z" transform="translate(-0.34 0.13)"/><path class="cls-32" d="M947.76,140.67a8.56,8.56,0,0,0,3.15,7l-1.73,1.45-3.77-4.62Z" transform="translate(-0.34 0.13)"/><path class="cls-33" d="M1009.29,139.45c-2.91,2.22-5.09.65-7.18-1.4l.33-.79a2.72,2.72,0,0,1,1.42-.86,7.74,7.74,0,0,1,5.61,1.54A1.2,1.2,0,0,1,1009.29,139.45Z" transform="translate(-0.34 0.13)"/><path class="cls-34" d="M919.22,105.58c-1.74-1.52-5.2-.16-5.86-3.51,2.58,0,5.26-.24,7.09,2.23l0,.5a1.58,1.58,0,0,1-.7.7Z" transform="translate(-0.34 0.13)"/><path class="cls-35" d="M958.84,92.32c-2.41-3.56-2.79-6.86,1.18-9.63a2.94,2.94,0,0,1,.8,1.45c-.41,2.76.19,5.58-.58,8.31A.91.91,0,0,1,958.84,92.32Z" transform="translate(-0.34 0.13)"/><path class="cls-36" d="M1007.13,109.43a7.76,7.76,0,0,1-7.44.81l1.17-2.22.44-.51.65-.17a8.69,8.69,0,0,1,1.35,0,6.48,6.48,0,0,1,2.73.35A2.18,2.18,0,0,1,1007.13,109.43Z" transform="translate(-0.34 0.13)"/><path class="cls-2" d="M966.81,132l-2.08.57-.51,0-.5,0a1.3,1.3,0,0,0-.85-.55c-.86-.32-.86-.63,0-.95l1.77-5.2a2.28,2.28,0,0,1,1.75,1.18,18.58,18.58,0,0,1,.65,2,7,7,0,0,1,.61,2A1.28,1.28,0,0,1,966.81,132Z" transform="translate(-0.34 0.13)"/><path class="cls-37" d="M956.44,118.68c2.1,2.89,2.18,5.78,0,8.69l-.8-.19a3.36,3.36,0,0,1-1.1-1.21,12.2,12.2,0,0,1,.08-5.73,3.47,3.47,0,0,1,1-1.3Z" transform="translate(-0.34 0.13)"/><path class="cls-38" d="M982.87,114.29l2.68,1.12-6.16.55,1-3.13a1.29,1.29,0,0,1,1.36-.42A2,2,0,0,1,982.87,114.29Z" transform="translate(-0.34 0.13)"/><path class="cls-39" d="M913.26,119.1c2.75-.51,5.28-.29,7.16,2.14l-.21.78a3,3,0,0,1-1.26,1l-.81.1a7.75,7.75,0,0,1-3.89-1.16C913.39,121.19,912.7,120.36,913.26,119.1Z" transform="translate(-0.34 0.13)"/><path class="cls-40" d="M956.7,69.48q-.74-3.08-1.49-6.15c3.31,2.25,4.69,5.07,2.63,8.91C956.63,71.67,957.27,70.32,956.7,69.48Z" transform="translate(-0.34 0.13)"/><path class="cls-41" d="M1005.4,101.69c3.45-1,6.71-1.76,5.26,3.9H1010a4.58,4.58,0,0,1-1.25-.58c-.56-.39-1.1-.82-1.64-1.24C1006.37,103.2,1005.52,102.73,1005.4,101.69Z" transform="translate(-0.34 0.13)"/><path class="cls-42" d="M986.32,104.33c3.19-1.4,6.26-2.46,7.23,2.53a1.7,1.7,0,0,1-1.34.49,14.87,14.87,0,0,1-2.85-.94C988.22,105.9,987,105.56,986.32,104.33Z" transform="translate(-0.34 0.13)"/><path class="cls-43" d="M963.7,83.58a6,6,0,0,1,0,7.57l-.65-.32a5.7,5.7,0,0,1-1.49-2.45,5.27,5.27,0,0,1,0-2.92A3.21,3.21,0,0,1,963,83.81Z" transform="translate(-0.34 0.13)"/><path class="cls-44" d="M956.7,98.3c.33,1.61.67,3.22,1,4.83a2.21,2.21,0,0,1-2.67.37c-1.45-1.57-2.08-3.31-1.08-5.38A2.49,2.49,0,0,1,956.7,98.3Z" transform="translate(-0.34 0.13)"/><path class="cls-45" d="M946.85,103.05,948,98.36a2,2,0,0,1,2.58-.15,4.71,4.71,0,0,1-1.18,5.28A2,2,0,0,1,946.85,103.05Z" transform="translate(-0.34 0.13)"/><path class="cls-46" d="M906.89,89.12c-1.32-3.32-2.3-6.51,2.73-7.48l.43.64c0,.26,0,.52,0,.78a10.83,10.83,0,0,1-.41,1.51c-.14.5-.33,1-.52,1.48C908.56,87.21,908.33,88.61,906.89,89.12Z" transform="translate(-0.34 0.13)"/><path class="cls-47" d="M994.92,121.05c1.73,1.72,1.71,3.47.09,5.24a2.38,2.38,0,0,1-1.72-1,11.06,11.06,0,0,0-1.76-2,2.92,2.92,0,0,1-.74-1.13,1.8,1.8,0,0,1,.39-1.28c.4-.21.81-.43,1.2-.67l1.24-.14A4.42,4.42,0,0,0,994.92,121.05Z" transform="translate(-0.34 0.13)"/><path class="cls-48" d="M993.88,125.06l1.13,1.23a1.38,1.38,0,0,1-.49,1,8.13,8.13,0,0,0-.32,1.36,1.63,1.63,0,0,1-1,.93l-2.1.68a1.52,1.52,0,0,1-1.51-1.65C990.34,126.6,991.56,125.17,993.88,125.06Z" transform="translate(-0.34 0.13)"/><path class="cls-49" d="M916.68,86.32a.93.93,0,0,1,.28.84c0,.61.54,1,.71,1.56l.09,6a1,1,0,0,1-1.3.11,4.43,4.43,0,0,1-.93-1.94c-.22-.92-.43-1.84-.71-2.75a6.79,6.79,0,0,1-.29-1.41,4.3,4.3,0,0,1,.39-2.15l.47-.57A1,1,0,0,1,916.68,86.32Z" transform="translate(-0.34 0.13)"/><path class="cls-50" d="M946.85,103.05l2.3,0c1.8.86,2.41,2.14,1.42,4a2.33,2.33,0,0,1-2.73-.13Z" transform="translate(-0.34 0.13)"/><path class="cls-51" d="M913.26,119.1l1.2,1.9c-.19,1-1,1.5-1.72,2.11-.27.37-.56.73-.86,1.08a3.07,3.07,0,0,1-1.14.77c-1.37-1.69-1.74-3.37,0-5a11.2,11.2,0,0,0,1.28-1Z" transform="translate(-0.34 0.13)"/><path class="cls-52" d="M951.84,68.51l1,5.74a.75.75,0,0,1-1.27,0c-.32-2.4-.63-4.8-1-7.2C951.79,66.93,952.34,67.28,951.84,68.51Z" transform="translate(-0.34 0.13)"/><path class="cls-53" d="M932.28,76.64l-1.95-5.92,2-2.32a5.83,5.83,0,0,1,1.2,1.63C934.2,72.44,934.41,74.77,932.28,76.64Z" transform="translate(-0.34 0.13)"/><path class="cls-54" d="M1008.22,124c-.09.27-.18.55-.26.83-.31.78-1,.64-1.62.68a2.36,2.36,0,0,0-1.79.51l-3.59-1.13a2.51,2.51,0,0,1,.94-.63,2.78,2.78,0,0,0,.77-.83c.17-.34.35-.67.55-1l0,0a2.43,2.43,0,0,1,1.54-.62C1006.18,122.09,1007.56,122.44,1008.22,124Z" transform="translate(-0.34 0.13)"/><path class="cls-55" d="M949.37,88.08l-1,2a1.27,1.27,0,0,1-1.66.14c-1.08-2.78-.56-5.43.64-8a1.63,1.63,0,0,1,1.61-.65.71.71,0,0,1,.36.81A8.87,8.87,0,0,1,949.37,88.08Z" transform="translate(-0.34 0.13)"/><path class="cls-56" d="M1008.1,116.74a1.39,1.39,0,0,1,1.07-.33,6.68,6.68,0,0,1,5.19-.11,1.1,1.1,0,0,1,.9.25,1,1,0,0,1,.4.91c0,.34-.13.51-.22.51-1.08,1-2.46,1.1-3.8,1.34-.78.16-1.57.3-2.36.4a4.72,4.72,0,0,1-1.59-.14c-.72-.41-1.32-.87-.78-1.82l-.07-.09A6,6,0,0,1,1008.1,116.74Z" transform="translate(-0.34 0.13)"/><path class="cls-57" d="M955.4,103.07l2.31.06-1,3.83a3.48,3.48,0,0,1-1.59.58,2.52,2.52,0,0,1-1.46-.84A3,3,0,0,1,955.4,103.07Z" transform="translate(-0.34 0.13)"/><path class="cls-58" d="M986.47,121.53a.91.91,0,0,1,.92-.37,3.88,3.88,0,0,1,2.25-.37,1.56,1.56,0,0,1,.92,1.16,2.35,2.35,0,0,1-.64,1.42,6.82,6.82,0,0,1-4.28,2,2,2,0,0,1-1.56-1.65l1.15-1.23A5.54,5.54,0,0,1,986.47,121.53Z" transform="translate(-0.34 0.13)"/><path class="cls-48" d="M910.74,125A1.37,1.37,0,0,0,911,124c.08-.25.17-.49.25-.73l.77,0a5,5,0,0,1,1.37.67,10.87,10.87,0,0,1,1.66,1.59,6,6,0,0,1,.84,1.28c.07.24.13.49.19.74a1.9,1.9,0,0,1-.56,1.35,2.24,2.24,0,0,1-1.46-.17.93.93,0,0,1-.88-.47,1.64,1.64,0,0,1-1-.94Z" transform="translate(-0.34 0.13)"/><path class="cls-32" d="M992.41,140.37l-8.61-.69Z" transform="translate(-0.34 0.13)"/><path class="cls-59" d="M981.69,91.21l2.23-5.84c.4,2.44,1.42,5-1.09,6.95l-.57-.14-.41-.41Z" transform="translate(-0.34 0.13)"/><path class="cls-60" d="M1002.09,132.29l6.07.82a1.11,1.11,0,0,1,.45.87c0,.35,0,.52-.12.52a2.64,2.64,0,0,1-1.32.85,7.2,7.2,0,0,1-5.21-1.65A1.11,1.11,0,0,1,1002.09,132.29Z" transform="translate(-0.34 0.13)"/><path class="cls-61" d="M950.18,120.15l1.41-1.58.77.3a3.41,3.41,0,0,1,1,1.32,8.75,8.75,0,0,1-.76,4.86c-.46.73-1,1.33-2,1l-.37.13A10.72,10.72,0,0,1,950.18,120.15Z" transform="translate(-0.34 0.13)"/><path class="cls-62" d="M904.73,108c-.48,4.4-2.86,2.1-4.79,1.37,0-.24.06-.47.08-.7a2.91,2.91,0,0,1,.93-1,7.58,7.58,0,0,1,2.68-.3A1.54,1.54,0,0,1,904.73,108Z" transform="translate(-0.34 0.13)"/><path class="cls-63" d="M969.62,103l-1.43-1.16c2.44-1.39,4.79-2.33,6.12,1.35a2.09,2.09,0,0,1-1.27.65C971.84,103.82,970.57,104.08,969.62,103Z" transform="translate(-0.34 0.13)"/><path class="cls-64" d="M947.84,106.89l2.36-.3c1.88.7,2.47,2,1.72,3.87a1.06,1.06,0,0,1-1.67,0Z" transform="translate(-0.34 0.13)"/><path class="cls-65" d="M941,104c-.39.51-.77,1-1.15,1.54L937.2,102l.07-.48a1.57,1.57,0,0,1,.66-.69l.48-.07a4.63,4.63,0,0,1,1,.13,2.63,2.63,0,0,1,1.29,1.32,1.58,1.58,0,0,0,.5,1A.53.53,0,0,1,941,104Z" transform="translate(-0.34 0.13)"/><path class="cls-66" d="M967.36,82.62c.65-2,1.31-4,2-6,2.68,2.12,1.89,4.63.77,7.16a1.49,1.49,0,0,1-2,.19Z" transform="translate(-0.34 0.13)"/><path class="cls-67" d="M976.69,89.86l-1,4.83c.69.44.7.88,0,1.35l.11.15c-1.27.14-1.95-.25-1.53-1.67l1.32-5.85.57.15A4.88,4.88,0,0,0,976.69,89.86Z" transform="translate(-0.34 0.13)"/><path class="cls-68" d="M988.71,93.35,990,95.91a1.32,1.32,0,0,1,.45,1.22c-.38.6-1.1.83-1.54,1.36C985.52,96.88,988.58,95.07,988.71,93.35Z" transform="translate(-0.34 0.13)"/><path class="cls-69" d="M981.64,109.21l1.52-2.39a1.57,1.57,0,0,1,1-1l0-.16a1.55,1.55,0,0,1,1.28-.66,2,2,0,0,1,1.35.59,2.68,2.68,0,0,1,0,1.51,8,8,0,0,1-1.83,2.47,7.1,7.1,0,0,1-1.24.94,3,3,0,0,1-1.49.31C981.55,110.51,980.89,110.14,981.64,109.21Z" transform="translate(-0.34 0.13)"/><path class="cls-70" d="M994.87,94.77l1.62,1.39-5.28,2a1.77,1.77,0,0,1-.42-1.56C991.64,94.81,992.85,93.85,994.87,94.77Z" transform="translate(-0.34 0.13)"/><path class="cls-71" d="M918.16,111.54l2.11.47c.12.26.25.52.37.77l-.65.56c-1.11.06-2.26.37-3.24-.47l-1.15-.41a2.25,2.25,0,0,1-1.16-.85l0,0-.51-.64c.12-.24.25-.48.37-.73a1.35,1.35,0,0,1,1.49.1,1.89,1.89,0,0,1,1,.41Q917.47,111.11,918.16,111.54Z" transform="translate(-0.34 0.13)"/><path class="cls-72" d="M956.7,98.3l-2.4.16a3.26,3.26,0,0,1-2.74-1.75,2,2,0,0,1,.05-1.62C954.4,94.4,955.63,96.22,956.7,98.3Z" transform="translate(-0.34 0.13)"/><path class="cls-73" d="M936.14,128.9l-4-4c.2-.17.39-.35.58-.53a3.63,3.63,0,0,1,1.56-.22c1.61.44,3.06,1,3.3,3a3,3,0,0,1-.77,1.37Z" transform="translate(-0.34 0.13)"/><path class="cls-32" d="M957.55,145.43v-7.21A5.2,5.2,0,0,1,957.55,145.43Z" transform="translate(-0.34 0.13)"/><path class="cls-74" d="M919,138.33l2.46-1.11,3.94,2.1a4.64,4.64,0,0,1-1.62,1.16C921.81,140.59,919.62,141.21,919,138.33Z" transform="translate(-0.34 0.13)"/><path class="cls-75" d="M924.11,128.69,923,127.3a1.88,1.88,0,0,1-1.67-1,2.46,2.46,0,0,1-.15-1.37,2.85,2.85,0,0,1,.91-1l.69-.15,2.57,4.73-.51.24Z" transform="translate(-0.34 0.13)"/><path class="cls-76" d="M933.39,105.6l-1.88-3.49a1.84,1.84,0,0,1,1-2.43l0,.06C932.82,101.7,933.1,103.65,933.39,105.6Z" transform="translate(-0.34 0.13)"/><path class="cls-77" d="M990.06,128.78l1.08,1.52-1.12.94-.54.24-.45-.4-3.64-.18a.91.91,0,0,1-.25-1.49C986.67,128.32,988.23,127.44,990.06,128.78Z" transform="translate(-0.34 0.13)"/><path class="cls-78" d="M895,105.62c-1.32-2.14-2.3-4.17,1.46-4.73A1.53,1.53,0,0,1,897,102a7.14,7.14,0,0,1-.29,2.64,2.62,2.62,0,0,1-1,.89Z" transform="translate(-0.34 0.13)"/><path class="cls-73" d="M899.92,100.93l3.67,3.44-.6.55a3.48,3.48,0,0,1-1.6.18,3.73,3.73,0,0,1-3-2.51C898.38,101.56,899.23,101.32,899.92,100.93Z" transform="translate(-0.34 0.13)"/><path class="cls-79" d="M931.31,87.29c1.87,1.83,1.59,4,1,6.25a1.13,1.13,0,0,1-1.48.14,5.82,5.82,0,0,1-1.38-4.78A2.47,2.47,0,0,1,931.31,87.29Z" transform="translate(-0.34 0.13)"/><path class="cls-80" d="M925.27,91.1c-2-1.69-1.54-3.79-1-5.91a.88.88,0,0,1,1.32-.17,5.3,5.3,0,0,1,.85,1.35,6.74,6.74,0,0,1,.46,3.17,2.72,2.72,0,0,1-.89,1.3Z" transform="translate(-0.34 0.13)"/><path class="cls-81" d="M906.89,89.12l1.19-4c1.49.53,1.72,1.88,2,3.16a4.42,4.42,0,0,1-.09,1.58A3.05,3.05,0,0,1,909,91l-.76.21Z" transform="translate(-0.34 0.13)"/><path class="cls-82" d="M901.32,121.12l3.53,3.76-.48.15a2.32,2.32,0,0,1-1.48.57c-1.55-.47-3.36-.68-3-3.06l.37-.33a5.14,5.14,0,0,1,.66-.66Z" transform="translate(-0.34 0.13)"/><path class="cls-83" d="M973.21,121.33c2.27,2,1.6,4-.05,6l-.67-.43a4.07,4.07,0,0,1-1.07-2.15,4,4,0,0,1,1.1-3Z" transform="translate(-0.34 0.13)"/><path class="cls-84" d="M951.59,118.57c1.67-2.53,3.29-2.38,4.85.11a1.05,1.05,0,0,1-.17.75,4.45,4.45,0,0,0-1.31.17,2.15,2.15,0,0,1-1.93,0,6.28,6.28,0,0,0-1.31-.2A1.09,1.09,0,0,1,951.59,118.57Z" transform="translate(-0.34 0.13)"/><path class="cls-85" d="M910.93,103.52l2,3.4c-.23.56-.34,1.23-1.13,1.3Z" transform="translate(-0.34 0.13)"/><path class="cls-77" d="M915.58,128.53l-.06-1.06a1.59,1.59,0,0,1,1.18-.66,6.2,6.2,0,0,1,2.08.49,2.5,2.5,0,0,1,1.52,1.43l-3.71,1.17a1.34,1.34,0,0,1-1-.3c-.35-.23-.47-.46-.36-.7S915.47,128.53,915.58,128.53Z" transform="translate(-0.34 0.13)"/><path class="cls-86" d="M921.89,112.64a.59.59,0,0,1,.59,0c.86-.24,1.28-1.73,2.53-.93a2.34,2.34,0,0,1,.22,1c.27.27.35.53.23.77s-.21.35-.31.35l-4.73,0c-.44-.23-.59-.46-.46-.71s.27-.37.42-.37l0,0A1.26,1.26,0,0,1,921.89,112.64Z" transform="translate(-0.34 0.13)"/><path class="cls-87" d="M1005.4,101.69,1008,103c-.54,1.51-1.73,1.9-3.16,1.91a2,2,0,0,1-1.51-1.67Z" transform="translate(-0.34 0.13)"/><path class="cls-88" d="M960.08,83.93,960,82.69c1.86-2.36,2.67-.3,3.68.89a2.69,2.69,0,0,1-.24.69c-.48.11-1,.22-1.43.35A1.9,1.9,0,0,1,960.08,83.93Z" transform="translate(-0.34 0.13)"/><path class="cls-39" d="M994.85,87.39l-1.62-1.29a4.31,4.31,0,0,1,5.21-.92,1.14,1.14,0,0,1,.36,1c0,.35-.12.52-.2.52C997.49,87.62,996.33,88.33,994.85,87.39Z" transform="translate(-0.34 0.13)"/><path class="cls-48" d="M920.42,121.24l2.37,2.47-.31,0-.25.17-.52.52a.56.56,0,0,0-.15.62c-1.88.25-2.7-.56-2.43-2.46l.42-.23a.89.89,0,0,1,.62-.61Z" transform="translate(-0.34 0.13)"/><path class="cls-89" d="M921.58,108l-2.36-2.44.33-.22a1.39,1.39,0,0,1,.64-.65l.26-.41,2.26,2.57-.14.57-.41.43Z" transform="translate(-0.34 0.13)"/><path class="cls-90" d="M942,125.06a1.35,1.35,0,0,0,.21,1.1,5,5,0,0,1,.53,2.3,2.65,2.65,0,0,1-.46,1.5,1.31,1.31,0,0,1-1.47,0l.11-.37a4.79,4.79,0,0,1-1-1A7.59,7.59,0,0,1,939,126a2.42,2.42,0,0,1,.47-1.34,2.51,2.51,0,0,1,1.36-.4A1.7,1.7,0,0,1,942,125.06Z" transform="translate(-0.34 0.13)"/><path class="cls-91" d="M937.17,120l3.54,2.58a.9.9,0,0,1,.44.9c-.07.34-.16.51-.26.51a3.9,3.9,0,0,1-1.64.38,3.16,3.16,0,0,1-2.58-2,3.19,3.19,0,0,1,0-1.68Z" transform="translate(-0.34 0.13)"/><path class="cls-92" d="M1002.09,132.29a9,9,0,0,0,0,1,2.26,2.26,0,0,1-1,1.74,2.4,2.4,0,0,1-1.35.19,3.85,3.85,0,0,1-1.25-.58l.11-.18a.73.73,0,0,1-.4-.74c.06-.29.14-.43.23-.43Z" transform="translate(-0.34 0.13)"/><path class="cls-93" d="M912,94.48l-2.66-2.06a2.46,2.46,0,0,1,1.49-1.72,2.59,2.59,0,0,1,2.58,1.51,2.35,2.35,0,0,1,0,1.55A3.49,3.49,0,0,1,912,94.48Z" transform="translate(-0.34 0.13)"/><path class="cls-94" d="M898.79,109,895,105.62h.54a2.09,2.09,0,0,1,1.55-.6,3.21,3.21,0,0,1,2.29,2.41A2.13,2.13,0,0,1,898.79,109Z" transform="translate(-0.34 0.13)"/><path class="cls-95" d="M923.49,139.6l1.9-.28c1.19,2.61-1.46,2.7-2.5,3.85l-.26-.39a2.55,2.55,0,0,1-.44-1.41A3,3,0,0,1,923.49,139.6Z" transform="translate(-0.34 0.13)"/><path class="cls-32" d="M950.18,120.15l0,6A4.72,4.72,0,0,1,950.18,120.15Z" transform="translate(-0.34 0.13)"/><path class="cls-96" d="M956.7,69.48l1.14,2.76-1.11,2.07c-.4.5-.77.49-1.13,0Z" transform="translate(-0.34 0.13)"/><path class="cls-93" d="M913.22,82.65l2.5,2.18a1.08,1.08,0,0,1-.15,1.46h0c-.18.18-.37.35-.56.52l-.76,0a4.63,4.63,0,0,1-1.33-.76l-.55-.55a4.85,4.85,0,0,1-.78-1.36c0-.26,0-.52,0-.79C911.9,82.57,912.28,81.91,913.22,82.65Z" transform="translate(-0.34 0.13)"/><path class="cls-97" d="M931.16,93.52a6.65,6.65,0,0,0,1.18,0c-1.17,3.5-2.37.69-3.56,0a.9.9,0,0,1-.37-.87c.06-.33.13-.49.22-.49C930,91.65,930.53,92.66,931.16,93.52Z" transform="translate(-0.34 0.13)"/><path class="cls-98" d="M1014.36,116.3l-5.19.11A3.71,3.71,0,0,1,1014.36,116.3Z" transform="translate(-0.34 0.13)"/><path class="cls-99" d="M891.41,124.93c-.94-1.28-2-2.56.21-3.66l-.11-.06c.58.7,1.84,1,1.24,2.36a1.2,1.2,0,0,1-.16.66.55.55,0,0,0-.68.61Z" transform="translate(-0.34 0.13)"/><path class="cls-100" d="M934.68,83l.21-1.78c1.23-.32,1.66.66,2.25,1.39l.47.17a3.16,3.16,0,0,1-.21,2.41.76.76,0,0,1-1.24-.36Z" transform="translate(-0.34 0.13)"/><path class="cls-69" d="M911.83,108.22l1.13-1.3,1.48,2.19a.85.85,0,0,1,.25.91c-.11.28-.22.42-.32.42h0a.79.79,0,0,1-1.23,0v0a12.15,12.15,0,0,1-1-1.28A1.22,1.22,0,0,1,911.83,108.22Z" transform="translate(-0.34 0.13)"/><path class="cls-101" d="M1005.73,125l2.23-.2,2.46,1.16h-4.72c-.3-.22-.39-.44-.29-.64S1005.62,125,1005.73,125Z" transform="translate(-0.34 0.13)"/><path class="cls-102" d="M1007.13,109.43l-1.37-1.07a1.63,1.63,0,0,1,.82-1.71,2.56,2.56,0,0,1,1.33-.26,2.32,2.32,0,0,1,1.07.84c0,.22.11.45.16.67Z" transform="translate(-0.34 0.13)"/><path class="cls-103" d="M949.37,88.08l0-5.78A4.51,4.51,0,0,1,949.37,88.08Z" transform="translate(-0.34 0.13)"/><path class="cls-104" d="M916.54,94.64l1.22.09a3.82,3.82,0,0,1,.25,1.16c.28.28.36.53.22.75s-.25.32-.37.32l-.51.22-.48-.3a6.18,6.18,0,0,1-1.38-.87,1.6,1.6,0,0,1-1.09-.35.84.84,0,0,1-.25-.87q.15-.42.3-.42A1.73,1.73,0,0,1,916.54,94.64Z" transform="translate(-0.34 0.13)"/><path class="cls-105" d="M910.53,144.35c-1.11-1-3.37-1.81-.92-3.73l.7.22a3,3,0,0,1,1.19,1.8,2.43,2.43,0,0,1-.31,1.4Z" transform="translate(-0.34 0.13)"/><path class="cls-106" d="M925,111.72l-2.53.93c.15-.77.31-1.54.47-2.31a3.89,3.89,0,0,0,.54-1l.57-.1Z" transform="translate(-0.34 0.13)"/><path class="cls-107" d="M969.62,121c1.31-1,2.57-1.49,3.59.37l.07-.06c-.7.75-1.14,1.89-2.5,1.62a2.85,2.85,0,0,1-1.11-1.12C969.65,121.5,969.63,121.23,969.62,121Z" transform="translate(-0.34 0.13)"/><path class="cls-108" d="M950.59,126l1.28-1.54c1.67.29,2,1.48,1.88,2.9a3.23,3.23,0,0,1-.71,1.39,1.61,1.61,0,0,1-1.48,0l-.1-.17c-.25-.55-.74-.94-1-1.5A9.1,9.1,0,0,1,950.59,126Z" transform="translate(-0.34 0.13)"/><path class="cls-109" d="M940.72,128.42l.15,1.21-3.42,0a1.06,1.06,0,0,1-.59-1.09c.36-.59.87-1.06,1.26-1.62a1.73,1.73,0,0,1,1.32-.09C940.05,127.23,940.26,127.94,940.72,128.42Z" transform="translate(-0.34 0.13)"/><path class="cls-102" d="M1001.55,108l-.34-.11-.35.09c.48-1.2,1-2.4,1.46-3.6a.88.88,0,0,1,1.44.41C1004.15,106.68,1003.5,107.82,1001.55,108Z" transform="translate(-0.34 0.13)"/><path class="cls-110" d="M986.66,105.65H985.3c-.33-.21-.44-.43-.33-.64s.24-.3.35-.3a1.18,1.18,0,0,1,1-.37l3.69,1.1a2,2,0,0,1-2,1A2.83,2.83,0,0,1,986.66,105.65Z" transform="translate(-0.34 0.13)"/><path class="cls-111" d="M937.2,102c-.56-.82-3.79-.51-1.14-2.7l2.35,1.46-.18.46a.54.54,0,0,0-.61.62Z" transform="translate(-0.34 0.13)"/><path class="cls-112" d="M947.16,90l1.23.08c-.78.8.18,3.56-2.49,2.23a7.31,7.31,0,0,0,.18-1.48A1.23,1.23,0,0,1,947.16,90Z" transform="translate(-0.34 0.13)"/><path class="cls-113" d="M932.18,124.91c-1.31-1.68-1.67-3.31.21-4.85a2.79,2.79,0,0,1,1.14,1.94,4.75,4.75,0,0,1-.08,1.55,7.13,7.13,0,0,1-.73,1.36Z" transform="translate(-0.34 0.13)"/><path class="cls-114" d="M933.64,119l3.53.92.06.53a12.23,12.23,0,0,0-1.14.79,3.21,3.21,0,0,1-2,.58,1.37,1.37,0,0,1-1-.88C933,120.25,933,119.53,933.64,119Z" transform="translate(-0.34 0.13)"/><path class="cls-115" d="M971,85.32,969.22,87l-.63-2a1.66,1.66,0,0,1,1.31-.6l.73.2C970.76,84.88,970.88,85.1,971,85.32Z" transform="translate(-0.34 0.13)"/><path class="cls-32" d="M955,130.89c-.24.42-.56,1.23-.7,1.2-.6-.14-2.3.75-1.38-1.18A1.34,1.34,0,0,1,955,130.89Z" transform="translate(-0.34 0.13)"/><path class="cls-116" d="M913,145.56l5.35.07A4.17,4.17,0,0,1,913,145.56Z" transform="translate(-0.34 0.13)"/><path class="cls-117" d="M951.84,68.51l-1.19-1.45c.73-.85,1.45-1.71,2.17-2.56C952.49,65.83,952.17,67.17,951.84,68.51Z" transform="translate(-0.34 0.13)"/><path class="cls-118" d="M979.52,86.68l-2.33,2.14a.83.83,0,0,1-1.14.05l-.47-.2,2.16-2.5C978.54,85.6,979.13,85.77,979.52,86.68Z" transform="translate(-0.34 0.13)"/><path class="cls-119" d="M944.31,89.94,943,87.83a1.93,1.93,0,0,1,0-1.66,2,2,0,0,1,1.66-.09,3.5,3.5,0,0,1,1.14,4A1,1,0,0,1,944.31,89.94Z" transform="translate(-0.34 0.13)"/><path class="cls-120" d="M953.93,111.59c.24,1.79-.37,2.66-2.26,2.11a.57.57,0,0,1-.33-.45c0-.15.26-.27.41-.41a3.15,3.15,0,0,1,1-1.63A1,1,0,0,1,953.93,111.59Z" transform="translate(-0.34 0.13)"/><path class="cls-121" d="M954.1,75.4a8.23,8.23,0,0,1,1.11,0c.32-.47.66-.51,1,0-1.46,4.21-2.71,1.25-4-.12a.8.8,0,0,1,.94-.35A2,2,0,0,1,954.1,75.4Z" transform="translate(-0.34 0.13)"/><path class="cls-122" d="M973.4,103.21h.91l0,4.76c-.39-.86-.78-1.71-1.16-2.57A1.47,1.47,0,0,1,973.4,103.21Z" transform="translate(-0.34 0.13)"/><path class="cls-79" d="M965.91,127.29l-1.27-1.4,1.31-2.2.76.17a2.69,2.69,0,0,1,.92,1.21A2,2,0,0,1,965.91,127.29Z" transform="translate(-0.34 0.13)"/><path class="cls-123" d="M920.38,112.82a6.5,6.5,0,0,0,0,1.08l-3.67-1Z" transform="translate(-0.34 0.13)"/><path class="cls-58" d="M984.08,123.73l1.15,1.12a.88.88,0,0,1,.28.81c-.07.29-.14.43-.21.43a1.86,1.86,0,0,1-1.32.4,2.84,2.84,0,0,1-1.16-.81c-.1-.22-.2-.43-.29-.65Z" transform="translate(-0.34 0.13)"/><path class="cls-124" d="M952.79,111.55l-1,1.29-1.5-2.34,1.46-.19.88-.19c.21.22.43.43.64.64Z" transform="translate(-0.34 0.13)"/><path class="cls-125" d="M940.82,112.87H942l-.11,2.46-1.24-.78a1,1,0,0,1,.22-1.67Z" transform="translate(-0.34 0.13)"/><path class="cls-118" d="M981.64,109.21l1.12,1.19c.49.93,0,1.43-.8,1.81a1.67,1.67,0,0,1-1.39-.55Z" transform="translate(-0.34 0.13)"/><path class="cls-126" d="M954.61,106.7l.66.38a1.8,1.8,0,0,1,1,.92l-.86,1.31a1.06,1.06,0,0,1-1.71-.19C953.39,108.08,953.21,107.07,954.61,106.7Z" transform="translate(-0.34 0.13)"/><path class="cls-127" d="M922.59,109.29l-1-1.27.22-.29a1.4,1.4,0,0,0,.62-.63l.29-.23,1.35,2.34-.52,0C923.25,109.69,922.93,109.71,922.59,109.29Z" transform="translate(-0.34 0.13)"/><path class="cls-128" d="M913.22,82.65,912,83.84c-.91.42-1.41,0-1.77-.83a1.59,1.59,0,0,1,.53-1.37Z" transform="translate(-0.34 0.13)"/><path class="cls-129" d="M1010.66,105.59l-1.52,2.31-.15-.15a3.28,3.28,0,0,0-.64-.65l-.26-.27c-.48-.93.06-1.4.8-1.77a1.28,1.28,0,0,1,1.27.66Z" transform="translate(-0.34 0.13)"/><path class="cls-56" d="M1006.91,117.75l1.15,1.13c.17,2.06-1.09,1.82-2.39,1.5a.94.94,0,0,1,0-1.56Z" transform="translate(-0.34 0.13)"/><path class="cls-32" d="M982.7,140.65l1,1.28a1,1,0,0,1,.7,1.29l-.81-.25C982.09,142.66,981.22,142.11,982.7,140.65Z" transform="translate(-0.34 0.13)"/><path class="cls-130" d="M944.2,86.3l-1,0c-.35.5-.66.46-1,0l-.1-2.31a1.32,1.32,0,0,1,1.27-.21,2.44,2.44,0,0,1,1.35,1.48A1.17,1.17,0,0,1,944.2,86.3Z" transform="translate(-0.34 0.13)"/><path class="cls-22" d="M1009.22,133.74l1.44,2a2.17,2.17,0,0,1-1.51.59c-.86-.31-1.53-.72-1-1.81l.21-.17A1,1,0,0,1,1009.22,133.74Z" transform="translate(-0.34 0.13)"/><path class="cls-32" d="M980.08,131.14l1.57,1c-1.62,1.81-2.06.51-2.46-.93C979.44,130.61,979.73,130.56,980.08,131.14Z" transform="translate(-0.34 0.13)"/><path class="cls-131" d="M973.16,127.31l-1.21,1.2c-1.13.5-1.42-.25-1.64-1.1a1.6,1.6,0,0,1,1.57-1.6,1.67,1.67,0,0,1,.82,1.35Z" transform="translate(-0.34 0.13)"/><path class="cls-132" d="M933.64,119l0,2.38a.94.94,0,0,1,.28.89c-.07.31-.15.46-.24.46a.89.89,0,0,1-1.26-.33v-2.37Z" transform="translate(-0.34 0.13)"/><path class="cls-63" d="M903.59,104.37l1,2.46a1.39,1.39,0,0,1-1.2.57,1.52,1.52,0,0,1-1.46-1.25c0-.87.68-1.14,1.31-1.45Z" transform="translate(-0.34 0.13)"/><path class="cls-133" d="M982.54,128.46l-.9-1.14c0-.36,0-.73.05-1.1a2.19,2.19,0,0,1,1-.64,1.76,1.76,0,0,1,1.13.37l.19.16C984.55,127.55,983.87,128.21,982.54,128.46Z" transform="translate(-0.34 0.13)"/><path class="cls-66" d="M967,76.24v0Z" transform="translate(-0.34 0.13)"/><path class="cls-134" d="M899.92,100.93,898.75,102c-.86.69-1.62.71-2.24-.31a2.11,2.11,0,0,0-.07-.79Z" transform="translate(-0.34 0.13)"/><path class="cls-135" d="M985.3,143l.88,1.31a8.56,8.56,0,0,1-.53.93l-.38.18L983.59,143a.38.38,0,0,1,.57.1C984.52,142.55,984.9,142.51,985.3,143Z" transform="translate(-0.34 0.13)"/><path class="cls-93" d="M994.9,144.14l1.4-1.22.52-.29.45.39c.06.38.11.77.14,1.16a2,2,0,0,1-1.27,1Z" transform="translate(-0.34 0.13)"/><path class="cls-131" d="M970.89,127.65l1.06.86-1.17,1.57a1.39,1.39,0,0,1-1.52-.33,2.86,2.86,0,0,1-.15-1.66C969.59,127.48,970,126.48,970.89,127.65Z" transform="translate(-0.34 0.13)"/><path class="cls-93" d="M996.14,145.21l1.27-1,.85,1.3a1.36,1.36,0,0,1-.94,1.06Z" transform="translate(-0.34 0.13)"/><path class="cls-93" d="M970.76,73l-1.18-1.28,1.28-.91c.76.21,1.4.54,1.51,1.44C972.07,73,971.68,73.56,970.76,73Z" transform="translate(-0.34 0.13)"/><path class="cls-136" d="M974.26,94.52l1.53,1.67-1.94.44Z" transform="translate(-0.34 0.13)"/><path class="cls-137" d="M936.16,84.84a2.27,2.27,0,0,0,1.12-.13.61.61,0,0,1,1,.35l-.15,1.11Z" transform="translate(-0.34 0.13)"/><path class="cls-138" d="M978.15,135.83a1.22,1.22,0,0,0,1.12-.22l.89-.28.61.72c-.13.28-.27.56-.41.84l.13.24c-.53.25-.88.74-1.4,1l.1-.09a.91.91,0,0,1-1.24.39,2.3,2.3,0,0,1-.5-1.4A1.18,1.18,0,0,1,978.15,135.83Z" transform="translate(-0.34 0.13)"/><path class="cls-69" d="M979.23,93.51l1.28-1a1.52,1.52,0,0,1,1,.95l-2.25,1.37c-.36-.29-.48-.59-.37-.89S979.12,93.51,979.23,93.51Z" transform="translate(-0.34 0.13)"/><path class="cls-139" d="M981.52,93.49l-1-.95,1.18-1.33.19.48.45.44.5.19Z" transform="translate(-0.34 0.13)"/><path class="cls-140" d="M936.05,69.19l-.18,1.68a2.19,2.19,0,0,1-2.56-1.27,1.2,1.2,0,0,1,.29-1.38Z" transform="translate(-0.34 0.13)"/><path class="cls-141" d="M966,123.69l2.5-2.19a1.61,1.61,0,0,1,.6,1.23,2,2,0,0,1-1.33,1.56,1.77,1.77,0,0,1-1.28-.51Z" transform="translate(-0.34 0.13)"/><path class="cls-142" d="M955,130.89l-2.08,0-.52-1.21a.92.92,0,0,1,.05-.88,1.31,1.31,0,0,0,.53-.54,1.42,1.42,0,0,1,1.37.09,3.08,3.08,0,0,1,.56,1.33A11.91,11.91,0,0,0,955,130.89Z" transform="translate(-0.34 0.13)"/><path class="cls-93" d="M910.73,91.3l-1.39,1.12-1.11-1.18.36-.29a4.77,4.77,0,0,1,.75-.74l.21-.28C910.69,89.74,911.24,90.07,910.73,91.3Z" transform="translate(-0.34 0.13)"/><path class="cls-143" d="M998.44,150.82l0-2.92-.55-.77.79-.51C1000.23,148.12,999.69,149.49,998.44,150.82Z" transform="translate(-0.34 0.13)"/><path class="cls-32" d="M940.76,130l1.18-.44.75-.32.59.56C942.67,132.83,941.69,131.08,940.76,130Z" transform="translate(-0.34 0.13)"/><path class="cls-144" d="M998.42,85.88a1,1,0,0,1,0-.7c1.81-.29,2.56.55,2.46,2.31q-.52,0-1,0A1.51,1.51,0,0,1,998.42,85.88Z" transform="translate(-0.34 0.13)"/><path class="cls-32" d="M940.67,123.74c0-.41,0-.81,0-1.21l1.24,2.53a2,2,0,0,0-1-.19c-.48-.14-.68-.36-.61-.65S940.54,123.74,940.67,123.74Z" transform="translate(-0.34 0.13)"/><path class="cls-56" d="M1004.43,122.47h-1.25l1.3-2.37a1.64,1.64,0,0,1,.63,1.19A1.81,1.81,0,0,1,1004.43,122.47Z" transform="translate(-0.34 0.13)"/><path class="cls-145" d="M990.06,121.3l-2.67-.14,2.69-.89c.31.23.41.47.3.69S990.16,121.3,990.06,121.3Z" transform="translate(-0.34 0.13)"/><path class="cls-56" d="M1004.63,121.65l-.15-1.54,1.17-1.29c.07.6.15,1.21.22,1.81A1.6,1.6,0,0,1,1004.63,121.65Z" transform="translate(-0.34 0.13)"/><path class="cls-146" d="M953.92,109.18l1.45.13-1,1.26a1.17,1.17,0,0,1-1.45.05l-.08-.23C952.31,109.2,952.92,109,953.92,109.18Z" transform="translate(-0.34 0.13)"/><path class="cls-71" d="M992.57,106.86a2.69,2.69,0,0,1,1,0l-.19,2.31c-.28.45-.57.46-.88,0h0a1.63,1.63,0,0,1-.66-1.2A1.71,1.71,0,0,1,992.57,106.86Z" transform="translate(-0.34 0.13)"/><path class="cls-32" d="M942.06,128.45c0-.76.07-1.53.1-2.29.37.78.75,1.56,1.12,2.33l-.63.59Z" transform="translate(-0.34 0.13)"/><path class="cls-102" d="M1003.71,104.6l-1.39-.18,1-1.21,1.11,1Z" transform="translate(-0.34 0.13)"/><path class="cls-147" d="M991.22,96.9v1.22l-2.34.37,1.49-1.63.44-.39Z" transform="translate(-0.34 0.13)"/><path class="cls-148" d="M950.16,98.39l-2.16,0,1-1.31a2.26,2.26,0,0,1,1.32-.28l.45.53A1,1,0,0,1,950.16,98.39Z" transform="translate(-0.34 0.13)"/><path class="cls-149" d="M975.68,96l0-1.35,2.29-.27c.36.24.5.5.4.78s-.2.42-.31.42Z" transform="translate(-0.34 0.13)"/><path class="cls-150" d="M951.61,95.09c0,.22,0,.45,0,.67.78,1.28-.09,1.38-1,1.45l-.51,0a1.8,1.8,0,0,1,.32-1.42Z" transform="translate(-0.34 0.13)"/><path class="cls-151" d="M978,95.62q0-.6-.09-1.2l1.29-.91,0,1.35Z" transform="translate(-0.34 0.13)"/><path class="cls-152" d="M961.23,93.54,960.39,95l-.46-1.39.3-.52h.6Z" transform="translate(-0.34 0.13)"/><path class="cls-153" d="M914.5,94.32l-.1,1.34-1.29-.74a.84.84,0,0,1-.33-.77c0-.29.09-.43.17-.43l.28-.24A1.11,1.11,0,0,1,914.5,94.32Z" transform="translate(-0.34 0.13)"/><path class="cls-56" d="M928.76,92.61c0,.32,0,.63,0,1l-2.25-1.27a1.85,1.85,0,0,1,1.25-.54A1.24,1.24,0,0,1,928.76,92.61Z" transform="translate(-0.34 0.13)"/><path class="cls-154" d="M963.69,91.15l-1.1,1.22a1.31,1.31,0,0,1-1.4.22c-.5-.85-.12-1.41.58-1.88a1.77,1.77,0,0,1,1.45.26Z" transform="translate(-0.34 0.13)"/><path class="cls-56" d="M927.88,92.2l-1.35.09-1.26-1.19.44-.07a1.6,1.6,0,0,1,1.23-.47A1.45,1.45,0,0,1,927.88,92.2Z" transform="translate(-0.34 0.13)"/><path class="cls-32" d="M953.83,152.61c-.59,1.06-1.21,1.4-1.89.07Z" transform="translate(-0.34 0.13)"/><path class="cls-155" d="M969.65,128.6l.08,1.45.27.51-.42.38-1.26.3-.42-.61a2.35,2.35,0,0,1,0-1.46C968.33,128.53,968.81,128,969.65,128.6Z" transform="translate(-0.34 0.13)"/><path class="cls-156" d="M931.31,87.29l-.89,1.35a1.48,1.48,0,0,1-1-1.23,2,2,0,0,1,.73-1.49Z" transform="translate(-0.34 0.13)"/><path class="cls-157" d="M930.12,85.92,930,87.48c-1,.45-1.45-.19-1.74-1,0-.28,0-.55.07-.83l.48-.66Z" transform="translate(-0.34 0.13)"/><path class="cls-158" d="M931.32,132.18l-.27-.86,1.83,1-.5.35A1.4,1.4,0,0,1,931.32,132.18Z" transform="translate(-0.34 0.13)"/><path class="cls-159" d="M926.44,84.07l2.36.9v.37a2.63,2.63,0,0,1-1.26.48,2.46,2.46,0,0,1-1.23-.55A.93.93,0,0,1,926.44,84.07Z" transform="translate(-0.34 0.13)"/><path class="cls-160" d="M926.44,84.07c0,.27-.05.54-.07.81l-.27.6a.75.75,0,0,1-1-.42,1.61,1.61,0,0,1-.78.13Z" transform="translate(-0.34 0.13)"/><path class="cls-161" d="M972.16,82.7c.35.39.71.77,1.06,1.15l-1.2.94a1.3,1.3,0,0,1-.59-1.08A1.41,1.41,0,0,1,972.16,82.7Z" transform="translate(-0.34 0.13)"/><path class="cls-162" d="M938.28,85.06a2.4,2.4,0,0,1-1-.35l.33-1.92.82-.11Z" transform="translate(-0.34 0.13)"/><path class="cls-163" d="M933.68,135.73l-1.35-2.41a.89.89,0,0,1,1.3-.07l.11.08a5.18,5.18,0,0,1,.46,1.12,1.69,1.69,0,0,1-.32,1.13Z" transform="translate(-0.34 0.13)"/><path class="cls-42" d="M943.22,83.86c-.35,0-.69,0-1,.06l1-2.51.51.5a2.34,2.34,0,0,1,0,1.41Z" transform="translate(-0.34 0.13)"/><path class="cls-32" d="M969.56,139.37l-2.33,1.25Z" transform="translate(-0.34 0.13)"/><path class="cls-164" d="M945.58,79.22,948,80.29c-.14.16-.27.33-.4.5a2.56,2.56,0,0,1-1.25.2,2.34,2.34,0,0,1-1.1-.63A1,1,0,0,1,945.58,79.22Z" transform="translate(-0.34 0.13)"/><path class="cls-32" d="M978,138a6.42,6.42,0,0,0,1.16,0l-2.25,1.42a3.69,3.69,0,0,0,.06-.81C977,137.93,977.37,137.7,978,138Z" transform="translate(-0.34 0.13)"/><path class="cls-32" d="M972,138.2l-2.42,1.15Z" transform="translate(-0.34 0.13)"/><path class="cls-165" d="M945.58,79.22c0,.37,0,.74.06,1.1.2,1.09-.33,1.34-1.27,1.12a.84.84,0,0,1-.29-.87c.1-.3.19-.44.29-.44Z" transform="translate(-0.34 0.13)"/><path class="cls-166" d="M1011.52,137l-1.12,2.3a1.76,1.76,0,0,1-.55-1.23,1.79,1.79,0,0,1,.43-1.29A1,1,0,0,1,1011.52,137Z" transform="translate(-0.34 0.13)"/><path class="cls-53" d="M929.85,72.66c0,1,0,2.1,0,3.15C929.84,74.76,929.85,73.71,929.85,72.66Z" transform="translate(-0.34 0.13)"/><path class="cls-32" d="M974.69,137.09,972,138.2Z" transform="translate(-0.34 0.13)"/><path class="cls-32" d="M978.15,135.83a1.66,1.66,0,0,0-.18.93c-.23.62-.6.75-1.13.32l-1.17-.25Z" transform="translate(-0.34 0.13)"/><path class="cls-167" d="M973.19,69.56l2.25,1.13a1.83,1.83,0,0,1-1.24.54,1.86,1.86,0,0,1-1.27-.46A1,1,0,0,1,973.19,69.56Z" transform="translate(-0.34 0.13)"/><path class="cls-168" d="M933.6,68.22a2,2,0,0,1,.18,1,.85.85,0,0,1-1.32.24,1.11,1.11,0,0,1-.09-1C932.65,67.45,933,66.81,933.6,68.22Z" transform="translate(-0.34 0.13)"/><path class="cls-169" d="M1011.52,137l-.49,0h-.5c-1.38.48-1.58-.1-1.1-1.26l1.23.06Z" transform="translate(-0.34 0.13)"/><path class="cls-170" d="M1002.11,138.05l-1.67-1.13a1.4,1.4,0,0,1,.43-1.24c.8-.32,1.3.06,1.7.7a1.54,1.54,0,0,1-.38,1.28Z" transform="translate(-0.34 0.13)"/><path class="cls-32" d="M1000.84,135.75l-.4,1.17-.93-1,.25-.58.64,0Z" transform="translate(-0.34 0.13)"/><path class="cls-32" d="M981.68,135.8l1.16,0L981.55,137q-.4-.44-.21-.81C981.46,135.92,981.58,135.8,981.68,135.8Z" transform="translate(-0.34 0.13)"/><path class="cls-32" d="M939.5,138.42l-1.36-1.29Z" transform="translate(-0.34 0.13)"/><path class="cls-32" d="M949.4,137.06c-.42.56-.83,1.13-1.24,1.7C948.57,138.19,949,137.62,949.4,137.06Z" transform="translate(-0.34 0.13)"/><path class="cls-32" d="M957.59,138.28l-1.14-1.3Z" transform="translate(-0.34 0.13)"/><path class="cls-32" d="M956.43,137l-1.54-1.07Z" transform="translate(-0.34 0.13)"/><path class="cls-32" d="M951,135.94l-1.73,1.24Z" transform="translate(-0.34 0.13)"/><path class="cls-32" d="M979.09,138.13l1.4-1Z" transform="translate(-0.34 0.13)"/><path class="cls-32" d="M938.29,137.26l-1.56-1.33Z" transform="translate(-0.34 0.13)"/><path class="cls-32" d="M998.44,134.68l1.06-.06q1.21.48.12,1.2l-.11.1C999.15,135.51,998.79,135.1,998.44,134.68Z" transform="translate(-0.34 0.13)"/><path class="cls-32" d="M940.72,139.6l-1.33-1.3Z" transform="translate(-0.34 0.13)"/><path class="cls-32" d="M982.84,135.78a3.4,3.4,0,0,0,0-1.19,5.77,5.77,0,0,1,.45.85C983.28,135.5,983,135.67,982.84,135.78Z" transform="translate(-0.34 0.13)"/><path class="cls-32" d="M980.63,134.63a6.79,6.79,0,0,0-.19,1.17,5.83,5.83,0,0,1-1.17-.19Z" transform="translate(-0.34 0.13)"/><path class="cls-32" d="M935.91,135.31a4.68,4.68,0,0,1-.54.3,1.76,1.76,0,0,1-1-.83l.59-.35Z" transform="translate(-0.34 0.13)"/><path class="cls-32" d="M983.81,139.85a5.24,5.24,0,0,1-.79.15c.11-.3.21-.6.31-.89Z" transform="translate(-0.34 0.13)"/><path class="cls-171" d="M1010.48,138.32c0,.31-.05.62-.08.93a1.6,1.6,0,0,1-1.11.2v-1C1009.59,137.7,1010,137.64,1010.48,138.32Z" transform="translate(-0.34 0.13)"/><path class="cls-172" d="M909.61,140.62l.91-1.4.29.21a1,1,0,0,1,.32.93c-.07.32-.15.49-.24.49a1,1,0,0,1-1.36-.31Z" transform="translate(-0.34 0.13)"/><path class="cls-32" d="M941.93,140.8c-.44-.44-.88-.87-1.31-1.31C941.05,139.93,941.49,140.36,941.93,140.8Z" transform="translate(-0.34 0.13)"/><path class="cls-22" d="M1009.22,133.74a1.17,1.17,0,0,1-.9.64c-.05-.43-.11-.85-.16-1.27Z" transform="translate(-0.34 0.13)"/><path class="cls-32" d="M975.39,140.54l1.48-1Z" transform="translate(-0.34 0.13)"/><path class="cls-173" d="M998.38,133.33c.07.39.12.78.17,1.17C998.49,134.11,998.44,133.72,998.38,133.33Z" transform="translate(-0.34 0.13)"/><path class="cls-32" d="M933.68,134.27a1.87,1.87,0,0,0,.06-.94l1.19,1.1-.11.12C934.3,135,933.92,134.94,933.68,134.27Z" transform="translate(-0.34 0.13)"/><path class="cls-32" d="M963.72,132.59a8.51,8.51,0,0,1,1,0Z" transform="translate(-0.34 0.13)"/><path class="cls-32" d="M943.13,142l-1.3-1.32Z" transform="translate(-0.34 0.13)"/><path class="cls-32" d="M933.63,133.25l-1.3.07.1.1a.87.87,0,0,1-.34-.79c.06-.29.12-.43.2-.43a1,1,0,0,0,.59.13A1.88,1.88,0,0,1,933.63,133.25Z" transform="translate(-0.34 0.13)"/><path class="cls-32" d="M967.24,140.62l-1.15.83Z" transform="translate(-0.34 0.13)"/><path class="cls-174" d="M932.29,132.2c0,.41.09.81.14,1.22l-1.11-1.24A5.22,5.22,0,0,0,932.29,132.2Z" transform="translate(-0.34 0.13)"/><path class="cls-6" d="M994.94,141.49l-1.38-.81,1.43-.06.27.45Z" transform="translate(-0.34 0.13)"/><path class="cls-32" d="M994.94,141.49c0-.29,0-.58,0-.87l1.06,1.24A1.69,1.69,0,0,1,994.94,141.49Z" transform="translate(-0.34 0.13)"/><path class="cls-32" d="M989,131.08a3.66,3.66,0,0,1,1,.16l-1.52.82A10.18,10.18,0,0,1,989,131.08Z" transform="translate(-0.34 0.13)"/><path class="cls-32" d="M944.31,143.24,943,141.9Z" transform="translate(-0.34 0.13)"/><path class="cls-32" d="M965.13,141.92l-1.5,1.13Z" transform="translate(-0.34 0.13)"/><path class="cls-32" d="M966.81,132l.48-1a.83.83,0,0,1,1.2-.29l-.17.51Z" transform="translate(-0.34 0.13)"/><path class="cls-32" d="M997.27,143l-1-.1a10.07,10.07,0,0,0-.28-1.08Z" transform="translate(-0.34 0.13)"/><path class="cls-32" d="M962.87,131.09a1.7,1.7,0,0,0,0,.95l-.83-.48Z" transform="translate(-0.34 0.13)"/><path class="cls-32" d="M945.48,144.5l-1.28-1.38Z" transform="translate(-0.34 0.13)"/><path class="cls-32" d="M963.65,143l-1.26,1.1Z" transform="translate(-0.34 0.13)"/><path class="cls-116" d="M912,144.23c0,.35,0,.7,0,1-.5-.3-1-.61-1.48-.92a3.76,3.76,0,0,0,.55-.23l.48-.26Z" transform="translate(-0.34 0.13)"/><path class="cls-32" d="M962.32,144.2l-1.14,1.11Z" transform="translate(-0.34 0.13)"/><path class="cls-175" d="M980.08,131.14a3.32,3.32,0,0,1-.89.08l-.14-.22a1.12,1.12,0,0,1,.22-1.24,2.89,2.89,0,0,0,1-.1l.53.23q0,.44.09.87A2,2,0,0,1,980.08,131.14Z" transform="translate(-0.34 0.13)"/><path class="cls-32" d="M979.27,129.76c-.07.41-.15.83-.22,1.24a5.37,5.37,0,0,1-.23-.94C978.82,130,979.11,129.86,979.27,129.76Z" transform="translate(-0.34 0.13)"/><path class="cls-32" d="M956.46,146.67l1.13-1.3Z" transform="translate(-0.34 0.13)"/><path class="cls-32" d="M961.09,145.4,960,146.53Z" transform="translate(-0.34 0.13)"/><path class="cls-32" d="M969.58,130.94a2.22,2.22,0,0,0,.15-.89,6.14,6.14,0,0,1,1,0Z" transform="translate(-0.34 0.13)"/><path class="cls-93" d="M997.32,146.54l.94-1.06.44,1.14-.54-.05c-.26.44-.54.48-.86.06Z" transform="translate(-0.34 0.13)"/><path class="cls-32" d="M954.91,147.76l1.52-1.07Z" transform="translate(-0.34 0.13)"/><path class="cls-32" d="M959.91,146.62l-1.13,1.13Z" transform="translate(-0.34 0.13)"/><path class="cls-32" d="M993.24,129.62l.37-1.22a1.61,1.61,0,0,1,1.07-.23Z" transform="translate(-0.34 0.13)"/><path class="cls-32" d="M958.71,147.82,957.58,149Z" transform="translate(-0.34 0.13)"/><path class="cls-32" d="M950.33,150.46l-1.16-1.37Z" transform="translate(-0.34 0.13)"/><path class="cls-32" d="M957.51,149l-1.13,1.12Z" transform="translate(-0.34 0.13)"/><path class="cls-32" d="M951.47,152l-1.24-1.61Z" transform="translate(-0.34 0.13)"/><path class="cls-32" d="M956.3,150.24l-1.13,1.1Z" transform="translate(-0.34 0.13)"/><path class="cls-32" d="M955.07,151.44,954,152.5Z" transform="translate(-0.34 0.13)"/><path class="cls-176" d="M954.94,129.7l-.93-1.19.68-.28.61.39A1,1,0,0,1,954.94,129.7Z" transform="translate(-0.34 0.13)"/><path class="cls-32" d="M946.91,169l1.32,1.73Z" transform="translate(-0.34 0.13)"/><path class="cls-32" d="M952.48,128.82a2.38,2.38,0,0,1-.05.88l-.87-.94A2.38,2.38,0,0,0,952.48,128.82Z" transform="translate(-0.34 0.13)"/><path class="cls-32" d="M943.28,128.49a5,5,0,0,1,.39.93c0,.09-.25.25-.39.38l-.14-.12c-.29-.23-.38-.47-.29-.71s.19-.35.28-.35Z" transform="translate(-0.34 0.13)"/><path class="cls-32" d="M937.06,128.66c.12.34.26.68.39,1l-1.31-.77a.61.61,0,0,0-.16-.56C936.47,128,936.83,128.12,937.06,128.66Z" transform="translate(-0.34 0.13)"/><path class="cls-177" d="M915.58,128.53c0,.36,0,.71,0,1.07l-1.53-.88Z" transform="translate(-0.34 0.13)"/><path class="cls-30" d="M895,128.62l1.33.72Z" transform="translate(-0.34 0.13)"/><path class="cls-18" d="M994.68,128.17a5.51,5.51,0,0,1-1.07.23l.91-1.07A2.66,2.66,0,0,1,994.68,128.17Z" transform="translate(-0.34 0.13)"/><path class="cls-176" d="M956.47,127.37l-1.17,1.25h0a.83.83,0,0,1-.47-1.12.93.93,0,0,1,1.21-.29Z" transform="translate(-0.34 0.13)"/><path class="cls-32" d="M950.49,127.09l1,1.5Z" transform="translate(-0.34 0.13)"/><path class="cls-177" d="M912.23,127.31l1,.94Z" transform="translate(-0.34 0.13)"/><path class="cls-178" d="M1005.73,125a5,5,0,0,0,0,1l-.57.12-.58-.08Z" transform="translate(-0.34 0.13)"/><path class="cls-179" d="M982.6,126a3.58,3.58,0,0,0-.91.18l.84-1.19.29-.33.41.18A1,1,0,0,1,982.6,126Z" transform="translate(-0.34 0.13)"/><path class="cls-180" d="M1002.26,124.73l-1.3.16.94-1.25.67.38C1002.47,124.26,1002.36,124.49,1002.26,124.73Z" transform="translate(-0.34 0.13)"/><path class="cls-178" d="M1003.22,122.43v1.32l-.81.07-.51-.18Z" transform="translate(-0.34 0.13)"/><path class="cls-145" d="M986.47,121.53l-1.24,1Z" transform="translate(-0.34 0.13)"/><path class="cls-181" d="M968.59,123l-.14-1.46,1.17-.54a.53.53,0,0,0-.09.63.7.7,0,0,1,.47.65c0,.29,0,.44-.13.44A1.57,1.57,0,0,1,968.59,123Z" transform="translate(-0.34 0.13)"/><path class="cls-179" d="M994.92,121.05l-1.3-.93Z" transform="translate(-0.34 0.13)"/><path class="cls-182" d="M992.38,120.26l-1.08,1.1c-.38-.22-.51-.45-.4-.69s.22-.38.34-.38A1.27,1.27,0,0,1,992.38,120.26Z" transform="translate(-0.34 0.13)"/><path class="cls-183" d="M991.24,120.29c0,.36,0,.71.06,1.07h0c-.44.55-.85.53-1.24,0h0a7.09,7.09,0,0,1,0-1A1.22,1.22,0,0,1,991.24,120.29Z" transform="translate(-0.34 0.13)"/><path class="cls-184" d="M912.05,118.92l-1.28,1Z" transform="translate(-0.34 0.13)"/><path class="cls-98" d="M1015.24,117.51c0-.32,0-.64,0-1l1.18,1.17.09-.08A.77.77,0,0,1,1015.24,117.51Z" transform="translate(-0.34 0.13)"/><path class="cls-98" d="M1008.1,116.74l-1.26.92Z" transform="translate(-0.34 0.13)"/><path class="cls-185" d="M987.68,115l1.4-.83Z" transform="translate(-0.34 0.13)"/><path class="cls-185" d="M990.09,113.66l1-.87Z" transform="translate(-0.34 0.13)"/><path class="cls-186" d="M968.31,112.27c0,.57.07,1.15.11,1.72a1.58,1.58,0,0,1-1.1.37l-.06-1.33A1.17,1.17,0,0,1,968.31,112.27Z" transform="translate(-0.34 0.13)"/><path class="cls-29" d="M940.82,112.87c-.08.56-.15,1.12-.22,1.67a1.6,1.6,0,0,1-1-.59c-.36-.18-.48-.37-.38-.58s.22-.32.34-.32Z" transform="translate(-0.34 0.13)"/><path class="cls-187" d="M939.56,113.05c0,.3,0,.6,0,.9l-1.16-.16c-.31-.18-.42-.38-.34-.59s.19-.33.28-.33l0,0c.39-.38.74-.37,1.05.1Z" transform="translate(-0.34 0.13)"/><path class="cls-76" d="M938.38,112.87a4.74,4.74,0,0,1,.06.92l-1.39-.86Z" transform="translate(-0.34 0.13)"/><path class="cls-188" d="M925.15,113.88a3.83,3.83,0,0,1,.08-1.12l.84.7Z" transform="translate(-0.34 0.13)"/><path class="cls-185" d="M991.2,112.68c.32-.34.63-.68.95-1C991.83,112,991.52,112.34,991.2,112.68Z" transform="translate(-0.34 0.13)"/><path class="cls-139" d="M980.57,111.66l1.32,0a.84.84,0,0,1-.38,1.1l-1.16,0C980.42,112.44,980.5,112.05,980.57,111.66Z" transform="translate(-0.34 0.13)"/><path class="cls-76" d="M935,111.57l1,.85Z" transform="translate(-0.34 0.13)"/><path class="cls-189" d="M914.44,111.61l1.16.85Z" transform="translate(-0.34 0.13)"/><path class="cls-63" d="M963.47,110v0Z" transform="translate(-0.34 0.13)"/><path class="cls-124" d="M952.94,110.62l1.45-.05a1.56,1.56,0,0,1-.46,1,8.69,8.69,0,0,1-1.14,0A5,5,0,0,1,952.94,110.62Z" transform="translate(-0.34 0.13)"/><path class="cls-76" d="M933.76,110.37c.36.37.73.73,1.1,1.09C934.49,111.1,934.12,110.74,933.76,110.37Z" transform="translate(-0.34 0.13)"/><path class="cls-189" d="M913.15,110.45l1.23,0c0,.39,0,.77,0,1.16Z" transform="translate(-0.34 0.13)"/><path class="cls-185" d="M992.48,109.2a6.53,6.53,0,0,1,.88,0c-.26.52-.51,1-.76,1.57Z" transform="translate(-0.34 0.13)"/><path class="cls-76" d="M932.77,109.23l.89,1Z" transform="translate(-0.34 0.13)"/><path class="cls-85" d="M912.15,109.2l1,1.28Z" transform="translate(-0.34 0.13)"/><path class="cls-102" d="M898.79,109l.06-1.44a1.52,1.52,0,0,1,1.26.21.74.74,0,0,1-.19,1.1l0,.5Z" transform="translate(-0.34 0.13)"/><path class="cls-126" d="M956.23,108l-1-.92,1.48-.12A1.16,1.16,0,0,1,956.23,108Z" transform="translate(-0.34 0.13)"/><path class="cls-76" d="M931.5,106.81l.8,1.42Z" transform="translate(-0.34 0.13)"/><path class="cls-190" d="M903.64,106.8l1,0a1.52,1.52,0,0,1,.12,1.18l-1,0q-.57-.34-.42-.75T903.64,106.8Z" transform="translate(-0.34 0.13)"/><path class="cls-110" d="M984.13,105.86l-1,1Z" transform="translate(-0.34 0.13)"/><path class="cls-63" d="M964.73,105.32l-.83,1.45Z" transform="translate(-0.34 0.13)"/><path class="cls-42" d="M985.32,104.7c0,.31,0,.63,0,.94l-.55.09-.57,0Z" transform="translate(-0.34 0.13)"/><path class="cls-63" d="M966.08,103.34l-.91,1Z" transform="translate(-0.34 0.13)"/><path class="cls-7" d="M941,104a2.33,2.33,0,0,1,.18-.83l.8,1.26A9.4,9.4,0,0,0,941,104Z" transform="translate(-0.34 0.13)"/><path class="cls-63" d="M967.19,102.3c-.34.31-.68.62-1,.94C966.51,102.92,966.85,102.61,967.19,102.3Z" transform="translate(-0.34 0.13)"/><path class="cls-7" d="M940.69,102.2l-1.29-1.32Z" transform="translate(-0.34 0.13)"/><path class="cls-7" d="M932.55,99.68l-1.16,1.44Z" transform="translate(-0.34 0.13)"/><path class="cls-191" d="M950.37,95.76c-.11.47-.21.95-.32,1.42-.36,0-.72-.07-1.08-.13Z" transform="translate(-0.34 0.13)"/><path class="cls-192" d="M917.86,97a1.78,1.78,0,0,1,.15-1.07C918.78,96.36,919.18,96.78,917.86,97Z" transform="translate(-0.34 0.13)"/><path class="cls-192" d="M915.49,96l1.38.87Z" transform="translate(-0.34 0.13)"/><path class="cls-193" d="M913,93.72c0,.4.11.8.16,1.2L912,94.48Z" transform="translate(-0.34 0.13)"/><path class="cls-144" d="M999.64,93.46l.8-1.11Z" transform="translate(-0.34 0.13)"/><path class="cls-194" d="M961.5,92.37a9.91,9.91,0,0,0,1.09,0l-1.36,1.17,0,.06C960.67,93.07,960.75,92.66,961.5,92.37Z" transform="translate(-0.34 0.13)"/><path class="cls-195" d="M958.84,92.32q.48,0,1,0c.79.3.85.72.18,1.24l-.05,0C959.56,93.19,959.2,92.75,958.84,92.32Z" transform="translate(-0.34 0.13)"/><path class="cls-196" d="M946.7,90.84l-.8,1.42-.28-1.15.45-.52Z" transform="translate(-0.34 0.13)"/><path class="cls-197" d="M990,89.79l-.76,1.3Z" transform="translate(-0.34 0.13)"/><path class="cls-196" d="M944.31,89.94c.37,0,.74,0,1.11,0,.75.35.8.77.13,1.26l.07-.08Z" transform="translate(-0.34 0.13)"/><path class="cls-198" d="M917.67,88.72,917,87.16Z" transform="translate(-0.34 0.13)"/><path class="cls-42" d="M942.29,86.23l1,0c-.09.52-.17,1-.25,1.55C942.75,87.3,942.52,86.76,942.29,86.23Z" transform="translate(-0.34 0.13)"/><path class="cls-196" d="M979.52,86.68l-1.78-.51,1.56-1.34-.12.52c.47.18.67.42.59.72s-.2.49-.33.49Z" transform="translate(-0.34 0.13)"/><path class="cls-198" d="M915.57,86.29l.15-1.46,1,1.49Q916.13,86.29,915.57,86.29Z" transform="translate(-0.34 0.13)"/><path class="cls-199" d="M971.82,83.42c.06.46.13.92.2,1.37a.94.94,0,0,1-1,.53,2.83,2.83,0,0,0-.39-.52C970.53,83.92,971,83.52,971.82,83.42Z" transform="translate(-0.34 0.13)"/><path class="cls-200" d="M970.07,84.86l-1.48.21-.51-1.13,1.51,0A.72.72,0,0,1,970.07,84.86Z" transform="translate(-0.34 0.13)"/><path class="cls-201" d="M910.75,81.64l0,1.22a.73.73,0,0,1-1.11-.42c0-.27,0-.54,0-.81A1,1,0,0,1,910.75,81.64Z" transform="translate(-0.34 0.13)"/><path class="cls-103" d="M949,81.49l-1.32.38,0-.5L948,81a.92.92,0,0,0,.06-.69Z" transform="translate(-0.34 0.13)"/><path class="cls-202" d="M944.37,80.13l.25,1.56-.51.23-.54-.16-.42-.35Z" transform="translate(-0.34 0.13)"/><path class="cls-190" d="M956.24,75.38a7.1,7.1,0,0,0-1,0l.39-1.16,1.13,0A1.8,1.8,0,0,1,956.24,75.38Z" transform="translate(-0.34 0.13)"/><path class="cls-10" d="M951.6,74.26h1.27l-.09-.07a1,1,0,0,1,.37.82c0,.31-.07.47-.14.47a5,5,0,0,1-.78-.21Z" transform="translate(-0.34 0.13)"/><path class="cls-140" d="M939.41,73l-.89-1.49Z" transform="translate(-0.34 0.13)"/><path class="cls-203" d="M974.58,70.59a2.48,2.48,0,0,0,.86.1,1.67,1.67,0,0,1,.41,1.06l-1.19,0c-.4-.23-.55-.49-.44-.76S974.45,70.59,974.58,70.59Z" transform="translate(-0.34 0.13)"/><path class="cls-204" d="M971.63,71.79l-.77-1a1,1,0,0,1,1-.46l.57.49A.85.85,0,0,1,971.63,71.79Z" transform="translate(-0.34 0.13)"/><path class="cls-205" d="M973.19,69.56c0,.32,0,.65,0,1a.63.63,0,0,1-1,.2.36.36,0,0,1-.36-.41C972.32,70.07,972.75,69.81,973.19,69.56Z" transform="translate(-0.34 0.13)"/><path class="cls-206" d="M952.85,63.43c1,.47,1.12.86-.09,1.14A1.34,1.34,0,0,1,952.85,63.43Z" transform="translate(-0.34 0.13)"/><path class="cls-207" d="M976.84,137.08l1.13-.32L978,138l-1,.63C977,138.12,976.9,137.6,976.84,137.08Z" transform="translate(-0.34 0.13)"/><path class="cls-208" d="M933.68,134.27a2.53,2.53,0,0,1,1.14.28,2.83,2.83,0,0,1,.55,1.06l-1.49,0C933.81,135.14,933.75,134.71,933.68,134.27Z" transform="translate(-0.34 0.13)"/><path class="cls-209" d="M985.3,143c-.38,0-.76,0-1.14,0-.15-.38-.3-.76-.46-1.14l1.8,0A3.26,3.26,0,0,0,985.3,143Z" transform="translate(-0.34 0.13)"/><path class="cls-161" d="M985.65,145.26a.91.91,0,0,1,.53-.93,2,2,0,0,1,.61,1A6.25,6.25,0,0,1,985.65,145.26Z" transform="translate(-0.34 0.13)"/><path class="cls-210" d="M997.3,146.63a8.28,8.28,0,0,0,.86-.06l.3,1.33Z" transform="translate(-0.34 0.13)"/><path class="cls-76" d="M939.47,112.93a3.71,3.71,0,0,1-1.05-.1,2.83,2.83,0,0,1-.09-.82Z" transform="translate(-0.34 0.13)"/><path class="cls-76" d="M934.47,108l-.84-1.29Z" transform="translate(-0.34 0.13)"/><path class="cls-123" d="M921.89,112.64l-1.54.21a2.61,2.61,0,0,1-.08-.84Z" transform="translate(-0.34 0.13)"/><path class="cls-189" d="M918.16,111.54l-1.41-.81Z" transform="translate(-0.34 0.13)"/><path class="cls-211" d="M922.59,109.29c.32,0,.63,0,.95-.05-.2.37-.39.74-.59,1.1A2.16,2.16,0,0,1,922.59,109.29Z" transform="translate(-0.34 0.13)"/><path class="cls-189" d="M914.37,110.44c0-.44,0-.88.07-1.33l1.31,1.22Z" transform="translate(-0.34 0.13)"/><path class="cls-212" d="M976.05,88.87a8.7,8.7,0,0,1,1.14-.05,2.15,2.15,0,0,1-.5,1Z" transform="translate(-0.34 0.13)"/><path class="cls-213" d="M980.43,85.18l1,.21-1,.79c-.31-.23-.41-.45-.31-.67S980.32,85.18,980.43,85.18Z" transform="translate(-0.34 0.13)"/><path class="cls-139" d="M980.43,85.18c0,.33,0,.66,0,1a1.16,1.16,0,0,1-1,.38c-.09-.4-.17-.8-.26-1.21Z" transform="translate(-0.34 0.13)"/><path class="cls-214" d="M953,75.47c-.08-.43-.15-.86-.23-1.29l1.32,1.22A8,8,0,0,0,953,75.47Z" transform="translate(-0.34 0.13)"/><path class="cls-215" d="M972.25,70.74a.86.86,0,0,0,1-.2l1.36,0c0,.39.06.78.08,1.18a16.94,16.94,0,0,1-2.5,10.93.61.61,0,0,0-.34.72l-1.2,1.38-.29-.12-.26.18a1.53,1.53,0,0,0-.48-1l-.27-7.3L970.76,73l.87-1.19Z" transform="translate(-0.34 0.13)"/><path class="cls-216" d="M932.46,69.43l1.32-.24,2.09,1.68a1.14,1.14,0,0,0,.51,1,2.7,2.7,0,0,0,.81,1.21l-.05,9.58-2.25-1.39L933.47,79a4.52,4.52,0,0,1-1-1.53,1,1,0,0,0-.24-.86Z" transform="translate(-0.34 0.13)"/><path class="cls-140" d="M937.19,73l-.81-1.21Z" transform="translate(-0.34 0.13)"/><path class="cls-217" d="M968.31,112.27l-1,.76c-4.12,1.24-1.67-2.09-2.27-3.3a4.15,4.15,0,0,1,.79-1.67,1.79,1.79,0,0,0,.28-1.13,5.69,5.69,0,0,0,.85-1.26l2.71-2.65c1.27-.1,2.64-2.34,3.78.19l-.27,2.19Z" transform="translate(-0.34 0.13)"/><path class="cls-63" d="M965.78,108.06c-.27.56-.53,1.11-.79,1.67C965.25,109.17,965.51,108.62,965.78,108.06Z" transform="translate(-0.34 0.13)"/><path class="cls-63" d="M966.91,105.67l-.85,1.26Z" transform="translate(-0.34 0.13)"/><path class="cls-218" d="M1015.24,117.51l1.29.13c-.92,4.56-4.42,5.73-8.31,6.36l-3.79-1.53a1,1,0,0,0,.2-.82l1.24-1,2.19-1.75,1.18-.36a6.15,6.15,0,0,0,1.42-.73Z" transform="translate(-0.34 0.13)"/><path class="cls-219" d="M892.75,123.57l-1.24-2.36,8.42,1.33L903.2,125c1,.2,1.3,1,1.53,1.79l-6,.67Z" transform="translate(-0.34 0.13)"/><path class="cls-56" d="M891.91,124.84l.68-.61A1.54,1.54,0,0,1,891.91,124.84Z" transform="translate(-0.34 0.13)"/><path class="cls-220" d="M991.22,96.9a8.38,8.38,0,0,0-.86,0,1,1,0,0,0-.4-1l.33-2.09a4.44,4.44,0,0,1,.82-1.53,1.45,1.45,0,0,0,.24-1,16.72,16.72,0,0,1,.95-1.42l2.55-2.53,3.57-1.51,1.43,1.64-.43,1.86a2.47,2.47,0,0,1-.92,1.74l-3.63,3.65Z" transform="translate(-0.34 0.13)"/><path class="cls-144" d="M998.5,91.12l.92-1.74Z" transform="translate(-0.34 0.13)"/><path class="cls-56" d="M901,121.55a.76.76,0,0,1-.66.67A.63.63,0,0,1,901,121.55Z" transform="translate(-0.34 0.13)"/><path class="cls-100" d="M932.52,77.5l1,1.53Z" transform="translate(-0.34 0.13)"/><path class="cls-221" d="M909.53,140.54l1.2-.18c.45-.29.89-.59,1.33-.9a2.11,2.11,0,0,0,1.11-.35c.54-.18.94-.64,1.52-.74l4.3,0,4.5,1.27c-.25.7-.49,1.41-.74,2.11a.79.79,0,0,1-1.08.4L918,143.4c-.57.12-1,.66-1.62.61l-.37,0a11,11,0,0,0-3.86-.42,1.6,1.6,0,0,1-1.33-.66Z" transform="translate(-0.34 0.13)"/><path class="cls-40" d="M914.69,138.37l-1.52.74Z" transform="translate(-0.34 0.13)"/><path class="cls-40" d="M912.06,139.46l-1.33.9a5.84,5.84,0,0,1,.08-.93Z" transform="translate(-0.34 0.13)"/><path class="cls-184" d="M919.13,122.54l2.43,2.46c.48.77,1,1.54,1.45,2.3l-2.71,1.43-2.17-.27a3.41,3.41,0,0,0-1.38-.7l-1.23-.29v-.1a2.1,2.1,0,0,0-1.18-.89L912.82,125a1.64,1.64,0,0,0-.92-1.1v-.09c-.39-.44-.73-.93-1.08-1.4l3.65-1.37Z" transform="translate(-0.34 0.13)"/><path class="cls-58" d="M924.11,128.69a1.25,1.25,0,0,1,.74,0Z" transform="translate(-0.34 0.13)"/><path class="cls-68" d="M991.11,92.29l-.82,1.53Z" transform="translate(-0.34 0.13)"/><path class="cls-197" d="M992.3,89.92l-.95,1.42Z" transform="translate(-0.34 0.13)"/><path class="cls-116" d="M911.91,143.19,916,144l-4,.2,0,0c-.31-.22-.43-.44-.35-.68S911.81,143.19,911.91,143.19Z" transform="translate(-0.34 0.13)"/><path class="cls-52" d="M921.67,142.11a1.86,1.86,0,0,1,1.08-.4,6.37,6.37,0,0,1-.12,1.07Z" transform="translate(-0.34 0.13)"/><path class="cls-116" d="M916.33,144l1.62-.61Z" transform="translate(-0.34 0.13)"/><path class="cls-222" d="M981.51,112.81a2.05,2.05,0,0,0,.38-1.1l.87-1.31,0,0a2.18,2.18,0,0,0,.91-1.14l2.69-2.51a2.39,2.39,0,0,1,1.62-.84l2-.45,2.56,1.43a1.57,1.57,0,0,0-.24,1,3.69,3.69,0,0,1-1,1.45l0,0a2.09,2.09,0,0,0-.88,1.1l-1.58,1.46c-.46.3-.92.6-1.36.92a1.35,1.35,0,0,0-1,.33c-.53.21-.93.67-1.5.82l-2.06.36Z" transform="translate(-0.34 0.13)"/><path class="cls-185" d="M984.93,113.93l1.5-.82Z" transform="translate(-0.34 0.13)"/><path class="cls-185" d="M987.47,112.78l1.36-.92Z" transform="translate(-0.34 0.13)"/><path class="cls-185" d="M990.41,110.4l.88-1.1Z" transform="translate(-0.34 0.13)"/><path class="cls-185" d="M991.31,109.26l1-1.45.15,1.4Z" transform="translate(-0.34 0.13)"/><path class="cls-101" d="M904.73,126.82,903.2,125q.59,0,1.17,0Z" transform="translate(-0.34 0.13)"/><path class="cls-179" d="M982.54,128.46l1.49-2.35,1.2-1.26,4.78-2.58a.9.9,0,0,1,1.17,0c1.63.22,4.33-.62,2.7,2.79l-3.82,3.72L985.32,130a1.16,1.16,0,0,1-1.22,0Z" transform="translate(-0.34 0.13)"/><path class="cls-223" d="M984.1,130h1.22a2.66,2.66,0,0,0,.07.89Z" transform="translate(-0.34 0.13)"/><path class="cls-224" d="M980.86,130.76a.68.68,0,0,1-.09-.87,3.33,3.33,0,0,1,.36.59C981.15,130.53,981,130.67,980.86,130.76Z" transform="translate(-0.34 0.13)"/><path class="cls-225" d="M1010.48,138.32l-1.19.16-6.08-1.34c-.53.29-.88.14-1.05-.43l-1.32-1,0,.1c-.35-.25-.48-.51-.4-.8s.17-.44.27-.44l1.32-1.28,6,1.22,1.32,1.16,1.1,1.26C1010.52,137.42,1010.5,137.87,1010.48,138.32Z" transform="translate(-0.34 0.13)"/><path class="cls-186" d="M1002.16,136.71a1.59,1.59,0,0,1,1.05.43l-1,.52A5.06,5.06,0,0,1,1002.16,136.71Z" transform="translate(-0.34 0.13)"/><path class="cls-69" d="M920.19,104.71a.81.81,0,0,1-.64.65A.58.58,0,0,1,920.19,104.71Z" transform="translate(-0.34 0.13)"/><path class="cls-226" d="M960,93.59l-.18-1.24c-.88-2.84-1.32-5.67.28-8.42l2.34-.05a.72.72,0,0,1,.38.68c0,.28-.08.42-.15.42l.12,3.93c.24.8.4,1.58-.37,2.2l-.9,1.26a7.47,7.47,0,0,0-.29.79,1.16,1.16,0,0,0,.07.44Z" transform="translate(-0.34 0.13)"/><path class="cls-227" d="M1003.71,104.6a.72.72,0,0,0,.71-.36L1008,103l1.54,1.62a.76.76,0,0,1-.21,1c-.4.41-.81.81-1.22,1.21l-2.33,1.53-2.59.54a2.62,2.62,0,0,1-1-.9l-.65,0Z" transform="translate(-0.34 0.13)"/><path class="cls-228" d="M1002.2,108l1,.9Z" transform="translate(-0.34 0.13)"/><path class="cls-229" d="M968.59,123a2,2,0,0,0,1-.57.81.81,0,0,1,1.06-.19l2.61-.93-.85,3.86a1,1,0,0,1-.33,1.18l-1.21,1.34-1.24.95-1.29.9c-.49,1.05-1.3.83-2.13.52-.11-.91-.21-1.82-.32-2.73.37-.81.73-1.63,1.1-2.45a.68.68,0,0,1,.5-1Z" transform="translate(-0.34 0.13)"/><path class="cls-56" d="M966.23,130l2.13-.52c0,.41.09.82.13,1.23l-1.2.29Z" transform="translate(-0.34 0.13)"/><path class="cls-230" d="M955.34,127.32l-.06,1.29-1.27-.1a2.16,2.16,0,0,0-1-.23l-1.14-3.78.6-4.5a.94.94,0,0,1,.39-1.11h2.31a.85.85,0,0,1,.34,1.11c0,2.07,0,4.15,0,6.22A.8.8,0,0,1,955.34,127.32Z" transform="translate(-0.34 0.13)"/><path class="cls-231" d="M955.34,127.32a1.42,1.42,0,0,1,.15-1.1l.53,1A4,4,0,0,1,955.34,127.32Z" transform="translate(-0.34 0.13)"/><path class="cls-232" d="M955.51,120a2.53,2.53,0,0,1-.34-1.11l1.1.54A2,2,0,0,1,955.51,120Z" transform="translate(-0.34 0.13)"/><path class="cls-233" d="M920.17,121.7a.85.85,0,0,1-.62.61C919.52,121.88,919.73,121.67,920.17,121.7Z" transform="translate(-0.34 0.13)"/><path class="cls-117" d="M1009.31,105.62a1.84,1.84,0,0,1,.21-1l.64,1.13A7.89,7.89,0,0,0,1009.31,105.62Z" transform="translate(-0.34 0.13)"/><path class="cls-234" d="M962.4,91.11c.12-.73.24-1.47.37-2.2l.45,2.06Z" transform="translate(-0.34 0.13)"/><path class="cls-235" d="M962.65,85a3.79,3.79,0,0,1-.23-1.1,1.05,1.05,0,0,1,1,.39A1.27,1.27,0,0,1,962.65,85Z" transform="translate(-0.34 0.13)"/><path class="cls-236" d="M950.56,97.21l1-1.45,2.73,2.69c.37,1.54.73,3.08,1.1,4.62-.26,1.21-.53,2.42-.79,3.63l-.69,2.48-1.06,1.21-.58,0-.57-.13c-.51-1.24-1-2.48-1.51-3.72L949.15,103c.34-1.55.67-3.09,1-4.63Z" transform="translate(-0.34 0.13)"/><path class="cls-237" d="M909.61,82.44l1.11.42,1.27,1v0a5.32,5.32,0,0,0,1.22,1.1l.07.07a6.54,6.54,0,0,0,1.08,1.26l0,0c.81.6.44,1.8,1.21,2.42l.24,1.17c.41.84.36,1.83.83,2.66l-.09,2.08-2-.32-1.27-.84-2.5-2.18-1.18-1.37-1.47-4.79c.24-.8.48-1.6.73-2.39l-.1.19A2,2,0,0,1,909.61,82.44Z" transform="translate(-0.34 0.13)"/><path class="cls-201" d="M908.71,82.94l.1-.19Z" transform="translate(-0.34 0.13)"/><path class="cls-145" d="M991.18,122.27l-.59.11-.58-.11a6.24,6.24,0,0,0,0-1l1.24,0A3.57,3.57,0,0,1,991.18,122.27Z" transform="translate(-0.34 0.13)"/><path class="cls-198" d="M916.63,92.56c-.27-.89-.55-1.77-.83-2.66C916.08,90.79,916.36,91.67,916.63,92.56Z" transform="translate(-0.34 0.13)"/><path class="cls-198" d="M915.56,88.73l-1.21-2.42,1.23,0C915.57,87.1,915.57,87.92,915.56,88.73Z" transform="translate(-0.34 0.13)"/><path class="cls-31" d="M910.81,122.37l1.08,1.4a2,2,0,0,0-.87.25Z" transform="translate(-0.34 0.13)"/><path class="cls-238" d="M1002.41,123.82a5.54,5.54,0,0,1,.81-.07l-1,1A1.21,1.21,0,0,1,1002.41,123.82Z" transform="translate(-0.34 0.13)"/><path class="cls-239" d="M945.55,91.19l-.13-1.26L944.2,86.3a2.18,2.18,0,0,0-.05-1.19,4,4,0,0,1-.33-1.52c0-.76-.11-1.57.63-2.12l.17.22,1-1.37,1.29-.07a2.44,2.44,0,0,1,.85,1.48l-.12.14c-.17,2.69-.33,5.39-.5,8.08a.81.81,0,0,0-.46.89Z" transform="translate(-0.34 0.13)"/><path class="cls-98" d="M1010.66,117.79l-1.42.73Z" transform="translate(-0.34 0.13)"/><path class="cls-177" d="M914.34,126.48l1.18.89Z" transform="translate(-0.34 0.13)"/><path class="cls-177" d="M911.9,123.86l.92,1.1Z" transform="translate(-0.34 0.13)"/><path class="cls-139" d="M982.33,92.13a.73.73,0,0,1-.45-.44h.41Z" transform="translate(-0.34 0.13)"/><path class="cls-240" d="M952.86,118.89a2.47,2.47,0,0,1-.39,1.11,2.35,2.35,0,0,1-.75-.62Z" transform="translate(-0.34 0.13)"/><path class="cls-241" d="M903.64,106.8a3.81,3.81,0,0,0,.09,1.17l-2.71.34a.79.79,0,0,1-1.07-.15l-1.1-.59-2.32-2c-.38-.15-.54-.35-.5-.61s.12-.43.22-.43c.09-1,.17-1.89.26-2.84l2.24.31,3.3,2.48a.81.81,0,0,1,.62,1Z" transform="translate(-0.34 0.13)"/><path class="cls-242" d="M900,108.16a1.65,1.65,0,0,1,1.07.15l-1.1.57Q900,108.52,900,108.16Z" transform="translate(-0.34 0.13)"/><path class="cls-65" d="M937.62,101.83l.11-.5.5-.12A1.09,1.09,0,0,1,937.62,101.83Z" transform="translate(-0.34 0.13)"/><path class="cls-110" d="M983.72,109.23l-.91,1.14Z" transform="translate(-0.34 0.13)"/><path class="cls-42" d="M988,105.88l-1.62.84a4.88,4.88,0,0,1,.24-1.07Z" transform="translate(-0.34 0.13)"/><path class="cls-243" d="M933.47,122.64c0-.41.1-.82.14-1.23l1.31-.23a1.78,1.78,0,0,1,1.27-.42,1.51,1.51,0,0,1,.89,1l2.15,2.09a.73.73,0,0,1,.62,1.08,3.16,3.16,0,0,0,0,.92,1.35,1.35,0,0,1-.24,1.81l-1.33,0a.68.68,0,0,1-1.07-.29L934,124.83a1.51,1.51,0,0,1-.94-.94A1.46,1.46,0,0,1,933.47,122.64Z" transform="translate(-0.34 0.13)"/><path class="cls-102" d="M937.17,127.36a2.12,2.12,0,0,1,1.07.29l-1.18,1a1.72,1.72,0,0,1-1.08-.32Z" transform="translate(-0.34 0.13)"/><path class="cls-186" d="M933.47,123.76a6.22,6.22,0,0,1,.52,1.07l-1.27.08a3.85,3.85,0,0,1-.23-1.12C932.8,123.29,933.13,123.25,933.47,123.76Z" transform="translate(-0.34 0.13)"/><path class="cls-48" d="M921.71,124.38a1.84,1.84,0,0,1,.52-.52l-.05.5Z" transform="translate(-0.34 0.13)"/><path class="cls-244" d="M896.25,104.52a7.24,7.24,0,0,1,.28,1,6.77,6.77,0,0,0-1,.07C895.76,105.26,896,104.89,896.25,104.52Z" transform="translate(-0.34 0.13)"/><path class="cls-245" d="M902.67,105.5l-.62-1,1.21.23A1,1,0,0,1,902.67,105.5Z" transform="translate(-0.34 0.13)"/><path class="cls-246" d="M926.37,84.88a1.67,1.67,0,0,0,1.09.23,4.45,4.45,0,0,1,1.32,1.2L930,87.48c.15.39.29.77.43,1.16.24,1.62.49,3.25.74,4.88l-2.4-.91a.86.86,0,0,0-.88-.41L926.65,91c-.55-.17-.68-.52-.45-1l-.81-3.77a1.37,1.37,0,0,1,1-.78Z" transform="translate(-0.34 0.13)"/><path class="cls-56" d="M926.2,90a1.67,1.67,0,0,1,.45,1l-.47,0-.47,0C925.87,90.69,926,90.34,926.2,90Z" transform="translate(-0.34 0.13)"/><path class="cls-247" d="M926.36,85.44l-1,.78a5.87,5.87,0,0,1-.32-1.16Z" transform="translate(-0.34 0.13)"/><path class="cls-93" d="M909.34,90.21a1,1,0,0,1-.75.75A.78.78,0,0,1,909.34,90.21Z" transform="translate(-0.34 0.13)"/><path class="cls-56" d="M972.1,126.31l.33-1.18.27,2A1.49,1.49,0,0,1,972.1,126.31Z" transform="translate(-0.34 0.13)"/><path class="cls-177" d="M916.75,127.76l1.38.7Z" transform="translate(-0.34 0.13)"/><path class="cls-89" d="M922.42,107.1a.59.59,0,0,1-.62.63A.7.7,0,0,1,922.42,107.1Z" transform="translate(-0.34 0.13)"/><path class="cls-248" d="M939.57,127.63l.24-1.81c.3.87.61,1.74.91,2.6Z" transform="translate(-0.34 0.13)"/><path class="cls-109" d="M943.13,128.62a5.36,5.36,0,0,1,0,1.06l-1.19-.12a4.55,4.55,0,0,1,.11-1.11A6.44,6.44,0,0,0,943.13,128.62Z" transform="translate(-0.34 0.13)"/><path class="cls-186" d="M939.85,124.9l-.62-1.08,1.44-.08.29,1.13Q940.41,124.9,939.85,124.9Z" transform="translate(-0.34 0.13)"/><path class="cls-102" d="M937.08,121.73l-1.07-.55c-.3-.2-.4-.39-.28-.58s.21-.27.32-.27a2.17,2.17,0,0,1,1.18.15Z" transform="translate(-0.34 0.13)"/><path class="cls-249" d="M1000.76,134.61c0,.41.09.82.13,1.24l-1.27,0a8.13,8.13,0,0,0-.12-1.2Z" transform="translate(-0.34 0.13)"/><path class="cls-250" d="M914.37,86.29,913.29,85Z" transform="translate(-0.34 0.13)"/><path class="cls-250" d="M913.22,85,912,83.86Z" transform="translate(-0.34 0.13)"/><path class="cls-22" d="M1008.35,107.1a.65.65,0,0,1,.64.65A.67.67,0,0,1,1008.35,107.1Z" transform="translate(-0.34 0.13)"/><path class="cls-251" d="M911.91,143.19a7.55,7.55,0,0,1,.07,1.06l-.9-.13c-.1-.39-.2-.78-.31-1.17A3.74,3.74,0,0,1,911.91,143.19Z" transform="translate(-0.34 0.13)"/><path class="cls-252" d="M970.67,122.2a1.51,1.51,0,0,1-1.06.19,4.26,4.26,0,0,0-.08-.8Z" transform="translate(-0.34 0.13)"/><path class="cls-253" d="M933.47,123.76l-.49,0-.49.05c0-.45-.06-.9-.1-1.36a6.45,6.45,0,0,1,1.08.21A2.36,2.36,0,0,1,933.47,123.76Z" transform="translate(-0.34 0.13)"/><path class="cls-254" d="M936.05,120.33c0,.28,0,.57,0,.85l-.54.07-.55-.07Z" transform="translate(-0.34 0.13)"/><path class="cls-56" d="M967.51,123.82a1.89,1.89,0,0,1-.5,1l-.57-1.06C966.8,123.78,967.16,123.79,967.51,123.82Z" transform="translate(-0.34 0.13)"/><path class="cls-48" d="M982.6,126l.63-1.16.61,1.07Z" transform="translate(-0.34 0.13)"/><path class="cls-42" d="M944.14,83.78v1.33l-.93-1.25v0C943.47,83.37,943.78,83.31,944.14,83.78Z" transform="translate(-0.34 0.13)"/><path class="cls-255" d="M928.78,86.31l-1.31-1.2,1.33.23C928.8,85.66,928.79,86,928.78,86.31Z" transform="translate(-0.34 0.13)"/><path class="cls-89" d="M944.14,83.78a4.9,4.9,0,0,0-.93.1l.36-2.12.88-.29C944.35,82.24,944.25,83,944.14,83.78Z" transform="translate(-0.34 0.13)"/><path class="cls-176" d="M947.78,81.73c-.28-.49-.57-1-.85-1.48l1,.73C947.9,81.23,947.84,81.48,947.78,81.73Z" transform="translate(-0.34 0.13)"/></svg>