<svg id="hotel_desk" data-name="hotel desk" xmlns="http://www.w3.org/2000/svg" viewBox="0 0 1080 215.83"><defs><style>.cls-1{fill:#fff;}.cls-2{fill:#6eb744;}.cls-3{fill:#d5d8d4;}.cls-4{fill:#bdccd4;}.cls-5{fill:#8c776e;}.cls-6{fill:#a76b72;}.cls-7{fill:#966866;}.cls-8{opacity:0.3;}.cls-9{fill:#ef6f73;}.cls-10{fill:gray;}.cls-11{fill:#498f3c;}.cls-12{fill:#75bb4d;}.cls-13{fill:#65a15b;}.cls-14{fill:#ddeadb;}.cls-15{fill:#5bb951;}</style></defs><rect class="cls-1" y="141.57" width="1080" height="23.04"/><rect class="cls-2" width="1080" height="141.12"/><circle class="cls-1" cx="952.93" cy="117.12" r="98.7"/><path class="cls-1" d="M951.94,92.62A23.38,23.38,0,1,0,975.32,116,23.37,23.37,0,0,0,951.94,92.62Zm.17,45.89a22.69,22.69,0,1,1,22.69-22.69A22.68,22.68,0,0,1,952.11,138.51Z" transform="translate(-0.36 0.13)"/><path class="cls-1" d="M56.05,91.57V46.13c0-2.88,2.08-5,5.68-5a4.77,4.77,0,0,1,4.88,5V63.57H92.69V46.13a5.2,5.2,0,0,1,5.44-5,4.84,4.84,0,0,1,5,5V91.57a4.88,4.88,0,0,1-5,5,5.26,5.26,0,0,1-5.44-5V74.05H66.61V91.57a4.82,4.82,0,0,1-4.88,5C58.13,96.53,56.05,94.37,56.05,91.57Z" transform="translate(-0.36 0.13)"/><path class="cls-1" d="M142.37,97.33c-14.8.64-30.16-9.2-30.16-28.8s15.36-29.36,30.16-29.36c14,.72,28.64,10.4,28.64,29.36S156.37,97.33,142.37,97.33Zm-.88-47.76c-9,0-18.72,6.32-18.72,19s9.76,19,18.72,19c9.2,0,19-6.4,19-19S150.69,49.57,141.49,49.57Z" transform="translate(-0.36 0.13)"/><path class="cls-1" d="M195.81,51.17h-14c-7,0-7-10.24,0-10.24h37.84a5.12,5.12,0,1,1,0,10.24H206.37v40.4c0,7-10.56,7.12-10.56,0Z" transform="translate(-0.36 0.13)"/><path class="cls-1" d="M237.49,96.53a4.88,4.88,0,0,1-5-5V46.13a4.84,4.84,0,0,1,5-5h28.72c7.36,0,7.2,10.4,0,10.4h-23v12h20.16c7.12,0,7.12,10.48,0,10.48H243.17v12h24.4c7.28,0,7.84,10.48,0,10.48Z" transform="translate(-0.36 0.13)"/><path class="cls-1" d="M281.81,46a5,5,0,0,1,5-4.88A4.87,4.87,0,0,1,291.57,46V86.05h21.76c7.84,0,8,10.48,0,10.48H286.85a4.84,4.84,0,0,1-5-4.88Z" transform="translate(-0.36 0.13)"/><path class="cls-1" d="M356.37,96.53c-2.64,0-5.52-1.44-5.52-5V46.13c0-2.88,2.88-5,5.52-5h18.32c36.56,0,35.76,55.36.72,55.36Zm5-45.6V86.77h13.28c21.6,0,22.56-35.84,0-35.84Z" transform="translate(-0.36 0.13)"/><path class="cls-1" d="M416.13,96.53a4.88,4.88,0,0,1-5-5V46.13a4.84,4.84,0,0,1,5-5h28.72c7.36,0,7.2,10.4,0,10.4h-23v12H442c7.12,0,7.12,10.48,0,10.48H421.81v12h24.4c7.28,0,7.84,10.48,0,10.48Z" transform="translate(-0.36 0.13)"/><path class="cls-1" d="M459.49,53.17c1.84-15.52,25.28-18.32,36.32-9.84,5.44,4.4-.32,11.36-5.12,7.84-5.92-3.76-19.36-5.52-21,2.8-2.16,13.12,32.64,5.6,32.08,26.88-.56,20.32-30,20.8-41,11.68a5.92,5.92,0,0,1-1.12-7.84c2.08-2.08,4.4-2.8,7.12-.56,6.56,4.48,23.44,7.84,24.64-3.52C490.29,68.77,457,75.89,459.49,53.17Z" transform="translate(-0.36 0.13)"/><path class="cls-1" d="M529.09,72.05l-7.6,8.4v11.2c0,6.64-10.56,6.72-10.56,0V46c0-6.8,10.56-7,10.56,0V66.29l23.12-23.84c2.8-2.64,5.6-2,7.6,0a4.61,4.61,0,0,1,0,7.12c-4.72,5.6-10.24,10.56-15.36,16.16l18.72,22.64c4.8,6.64-5.44,11.44-8.64,6.32Z" transform="translate(-0.36 0.13)"/><ellipse class="cls-1" cx="952.29" cy="117" rx="83.83" ry="84.2"/><polygon class="cls-3" points="870.69 106.39 987.42 55.42 987.42 61.43 870.69 109.64 870.69 106.39"/><path d="M931,89.61" transform="translate(-0.36 0.13)"/><polygon class="cls-4" points="987.42 55.42 1033.38 103 1033.38 134.53 987.42 125.41 987.42 55.42"/><polygon class="cls-3" points="987.42 125.41 870.69 137.2 870.69 133.83 987.42 118.48 987.42 125.41"/><polygon class="cls-4" points="870.69 109.64 870.69 133.83 931.29 125.86 930.58 84.9 870.69 109.64"/><polygon class="cls-5" points="930.58 84.9 944.57 89.97 981.78 77.22 987.42 61.43 930.58 84.9"/><polygon class="cls-6" points="981.78 77.22 982.78 119.09 987.42 118.48 987.42 61.43 981.78 77.22"/><polygon class="cls-7" points="930.58 84.9 931.29 125.86 944.66 124.1 944.57 89.97 930.58 84.9"/><polygon class="cls-8" points="992.1 63.91 1033.38 106.35 1033.38 104.71 992.1 61.98 992.1 63.91"/><polygon class="cls-9" points="944.57 89.97 944.66 124.1 982.78 119.09 981.78 77.22 944.57 89.97"/><polygon class="cls-3" points="992.1 126.33 992.1 60.26 987.42 55.42 987.42 125.41 992.1 126.33"/><polygon class="cls-3" points="992.1 62.19 1033.38 104.63 1033.38 103 992.1 60.26 992.1 62.19"/><polygon class="cls-3" points="992.1 124.44 992.1 126.33 1033.38 134.53 1033.38 133.28 992.1 124.44"/><polygon class="cls-10" points="1033.38 134.53 895.93 134.65 987.42 125.41 1033.38 134.53"/><path class="cls-11" d="M959.61,166.72c-4.28-2.64.07-4.85.71-6.78,3.07-9.23,9.18-17.22,10.83-27.07,3.39-9.6,4.11-20.85,15.38-25.6,1.49,9.18,4.93,17.38,4.21,27.73-1.58,22.6-14.92,32-33,38.63-1.83,1.16-1.85,0-1.69-1.35l3.54-3c2-2,3.69-4.32,5.8-6.22C963.53,164.37,962.44,167,959.61,166.72Z" transform="translate(-0.36 0.13)"/><path class="cls-2" d="M986.53,107.27c-6.48,3.28-6,10.8-9.47,15.93-2.11,3.13-3.95,6.44-5.91,9.67-8.51,7.6-11.33,19.25-19.06,27.41l.09.18c-4.71-15.84-1.19-30,7.72-43.47,3.7,2.2.05,5.64,2.91,7.12,3-2.35,2.73-6.3,4.34-9.36s2.57-6.42,6.2-2c1.8,2.18,1.72,0,2-.83,2.55-7.17,9.22-10.32,15.54-16.93C989.54,100.62,986,103.32,986.53,107.27Z" transform="translate(-0.36 0.13)"/><path class="cls-12" d="M952.09,160.28c-5.85,3.11-8.63-.42-10.72-5.18-4.49-10.19-2.29-19.25,4.33-27.76,1.89-2.42,2.18-6,7.19-9.82A78.34,78.34,0,0,0,948,150.28c.2,3.95.34,7.81,4.2,10.17C952.18,160.46,952.09,160.28,952.09,160.28Z" transform="translate(-0.36 0.13)"/><path class="cls-13" d="M956.08,172.28l1.69,1.35-16.83,11.55C944.52,176,951.34,175.45,956.08,172.28Z" transform="translate(-0.36 0.13)"/><path class="cls-14" d="M959.61,166.72l9.89-11.57,2,1.92a31.94,31.94,0,0,1-11.88,12.24C959.62,168.45,959.61,167.58,959.61,166.72Z" transform="translate(-0.36 0.13)"/><path class="cls-15" d="M953.3,30.84a85.94,85.94,0,1,0,85.93,85.94A85.94,85.94,0,0,0,953.3,30.84Zm0,166.77a80.83,80.83,0,1,1,80.82-80.83A80.83,80.83,0,0,1,953.3,197.61Z" transform="translate(-0.36 0.13)"/></svg>