<svg id="hotel_lobby" data-name="hotel lobby" xmlns="http://www.w3.org/2000/svg" viewBox="0 0 1080 215.83"><defs><style>.cls-1{fill:#fff;}.cls-2{fill:#498f3c;}.cls-3{fill:#d5d8d4;}.cls-4{fill:#bdccd4;}.cls-5{fill:#8c776e;}.cls-6{fill:#a76b72;}.cls-7{fill:#966866;}.cls-8{opacity:0.3;}.cls-9{fill:#ef6f73;}.cls-10{fill:gray;}.cls-11{fill:#6eb744;}.cls-12{fill:#75bb4d;}.cls-13{fill:#65a15b;}.cls-14{fill:#ddeadb;}.cls-15{fill:#5bb951;}</style></defs><rect class="cls-1" y="141.57" width="1080" height="23.04"/><rect class="cls-2" width="1080" height="141.12"/><circle class="cls-1" cx="952.93" cy="117.12" r="98.7"/><path class="cls-1" d="M951.53,94.2a23.38,23.38,0,1,0,23.37,23.37A23.38,23.38,0,0,0,951.53,94.2Zm.17,45.89a22.69,22.69,0,1,1,22.69-22.69A22.69,22.69,0,0,1,951.7,140.09Z" transform="translate(0.05 -1.45)"/><path class="cls-1" d="M55.64,93.15V47.71c0-2.88,2.08-5,5.68-5a4.77,4.77,0,0,1,4.88,5V65.15H92.28V47.71a5.2,5.2,0,0,1,5.44-5,4.84,4.84,0,0,1,5,5V93.15a4.88,4.88,0,0,1-5,5,5.26,5.26,0,0,1-5.44-5V75.63H66.2V93.15a4.82,4.82,0,0,1-4.88,5C57.72,98.11,55.64,96,55.64,93.15Z" transform="translate(0.05 -1.45)"/><path class="cls-1" d="M142,98.91c-14.8.64-30.16-9.2-30.16-28.8S127.16,40.75,142,40.75c14,.72,28.64,10.4,28.64,29.36S156,98.91,142,98.91Zm-.88-47.76c-9,0-18.72,6.32-18.72,19s9.76,19,18.72,19c9.2,0,19-6.4,19-19S150.28,51.15,141.08,51.15Z" transform="translate(0.05 -1.45)"/><path class="cls-1" d="M195.4,52.75h-14c-7,0-7-10.24,0-10.24h37.84a5.12,5.12,0,1,1,0,10.24H206v40.4c0,7-10.56,7.12-10.56,0Z" transform="translate(0.05 -1.45)"/><path class="cls-1" d="M237.08,98.11a4.88,4.88,0,0,1-5-5V47.71a4.84,4.84,0,0,1,5-5H265.8c7.36,0,7.2,10.4,0,10.4h-23v12h20.16c7.12,0,7.12,10.48,0,10.48H242.76v12h24.4c7.28,0,7.84,10.48,0,10.48Z" transform="translate(0.05 -1.45)"/><path class="cls-1" d="M281.4,47.55a5,5,0,0,1,5-4.88,4.87,4.87,0,0,1,4.72,4.88V87.63h21.76c7.84,0,8,10.48,0,10.48H286.44a4.84,4.84,0,0,1-5-4.88Z" transform="translate(0.05 -1.45)"/><path class="cls-1" d="M350.44,47.55a5,5,0,0,1,5-4.88,4.87,4.87,0,0,1,4.72,4.88V87.63H382c7.84,0,8,10.48,0,10.48H355.48a4.84,4.84,0,0,1-5-4.88Z" transform="translate(0.05 -1.45)"/><path class="cls-1" d="M422.36,98.91c-14.8.64-30.16-9.2-30.16-28.8s15.36-29.36,30.16-29.36c14,.72,28.64,10.4,28.64,29.36S436.36,98.91,422.36,98.91Zm-.88-47.76c-9,0-18.72,6.32-18.72,19s9.76,19,18.72,19c9.2,0,19-6.4,19-19S430.68,51.15,421.48,51.15Z" transform="translate(0.05 -1.45)"/><path class="cls-1" d="M465.56,98.11a4.77,4.77,0,0,1-4.88-5V47.71a4.73,4.73,0,0,1,4.88-5H488c10.48,0,16.16,7.12,16.16,15.28a12.69,12.69,0,0,1-4.4,10.08c6.32,2.48,9.12,7.36,9.12,13.28,0,9.2-6.24,16.72-18.24,16.72ZM488,52.51H471.16V64.43H488c3.44,0,5.6-2.16,5.6-6.4A5.59,5.59,0,0,0,488,52.51ZM471.16,88.35h19.52c9.28,0,9.28-14.16,0-14.16H471.16Z" transform="translate(0.05 -1.45)"/><path class="cls-1" d="M523.16,98.11a4.77,4.77,0,0,1-4.88-5V47.71a4.73,4.73,0,0,1,4.88-5h22.48c10.48,0,16.16,7.12,16.16,15.28a12.69,12.69,0,0,1-4.4,10.08c6.32,2.48,9.12,7.36,9.12,13.28,0,9.2-6.24,16.72-18.24,16.72Zm22.48-45.6H528.76V64.43h16.88c3.44,0,5.6-2.16,5.6-6.4A5.59,5.59,0,0,0,545.64,52.51ZM528.76,88.35h19.52c9.28,0,9.28-14.16,0-14.16H528.76Z" transform="translate(0.05 -1.45)"/><path class="cls-1" d="M568.84,50.27c-4.32-5.36,4.72-11.52,9-5.68l14.72,21.92,15-21.92c4.24-5.84,13,0,8.8,5.36L597.56,76.59V93.07c.72,7-10.56,7-10.56,0V76.59Z" transform="translate(0.05 -1.45)"/><ellipse class="cls-1" cx="952.29" cy="117" rx="83.83" ry="84.2"/><polygon class="cls-3" points="870.69 106.39 987.42 55.42 987.42 61.43 870.69 109.64 870.69 106.39"/><path d="M930.58,91.19" transform="translate(0.05 -1.45)"/><polygon class="cls-4" points="987.42 55.42 1033.38 103 1033.38 134.53 987.42 125.41 987.42 55.42"/><polygon class="cls-3" points="987.42 125.41 870.69 137.2 870.69 133.83 987.42 118.48 987.42 125.41"/><polygon class="cls-4" points="870.69 109.64 870.69 133.83 931.29 125.86 930.58 84.9 870.69 109.64"/><polygon class="cls-5" points="930.58 84.9 944.57 89.97 981.78 77.22 987.42 61.43 930.58 84.9"/><polygon class="cls-6" points="981.78 77.22 982.78 119.09 987.42 118.48 987.42 61.43 981.78 77.22"/><polygon class="cls-7" points="930.58 84.9 931.29 125.86 944.66 124.1 944.57 89.97 930.58 84.9"/><polygon class="cls-8" points="992.1 63.91 1033.38 106.35 1033.38 104.71 992.1 61.98 992.1 63.91"/><polygon class="cls-9" points="944.57 89.97 944.66 124.1 982.78 119.09 981.78 77.22 944.57 89.97"/><polygon class="cls-3" points="992.1 126.33 992.1 60.26 987.42 55.42 987.42 125.41 992.1 126.33"/><polygon class="cls-3" points="992.1 62.19 1033.38 104.63 1033.38 103 992.1 60.26 992.1 62.19"/><polygon class="cls-3" points="992.1 124.44 992.1 126.33 1033.38 134.53 1033.38 133.28 992.1 124.44"/><polygon class="cls-10" points="1033.38 134.53 895.93 134.65 987.42 125.41 1033.38 134.53"/><path class="cls-2" d="M959.2,168.3c-4.28-2.64.07-4.85.71-6.78,3.06-9.23,9.18-17.22,10.83-27.07,3.39-9.6,4.11-20.85,15.38-25.6,1.49,9.18,4.93,17.38,4.21,27.73-1.58,22.6-14.93,32-33,38.63-1.83,1.16-1.85,0-1.7-1.35l3.55-3c2-2,3.69-4.32,5.8-6.22C963.11,166,962,168.54,959.2,168.3Z" transform="translate(0.05 -1.45)"/><path class="cls-11" d="M986.12,108.85c-6.48,3.28-6,10.8-9.47,15.93-2.11,3.13-3.95,6.44-5.91,9.67-8.51,7.6-11.34,19.25-19.06,27.41l.09.18c-4.72-15.84-1.19-30,7.72-43.47,3.7,2.2,0,5.64,2.9,7.12,3-2.35,2.74-6.3,4.34-9.36s2.58-6.42,6.21-2c1.79,2.18,1.72,0,2-.83,2.55-7.18,9.22-10.32,15.53-16.93C989.13,102.2,985.6,104.9,986.12,108.85Z" transform="translate(0.05 -1.45)"/><path class="cls-12" d="M951.68,161.86c-5.85,3.11-8.63-.42-10.72-5.18-4.49-10.19-2.29-19.26,4.33-27.76,1.89-2.42,2.18-6,7.18-9.82a78.3,78.3,0,0,0-4.9,32.75c.2,4,.34,7.82,4.2,10.18Z" transform="translate(0.05 -1.45)"/><path class="cls-13" d="M955.66,173.86l1.7,1.35-16.83,11.55C944.11,177.58,950.93,177,955.66,173.86Z" transform="translate(0.05 -1.45)"/><path class="cls-14" d="M959.2,168.3l9.89-11.57,2,1.92a32,32,0,0,1-11.88,12.24C959.2,170,959.2,169.16,959.2,168.3Z" transform="translate(0.05 -1.45)"/><path class="cls-15" d="M952.88,32.42a85.94,85.94,0,1,0,85.94,85.94A85.94,85.94,0,0,0,952.88,32.42Zm0,166.76a80.83,80.83,0,1,1,80.83-80.82A80.82,80.82,0,0,1,952.88,199.18Z" transform="translate(0.05 -1.45)"/></svg>