<svg id="IGA" xmlns="http://www.w3.org/2000/svg" viewBox="0 0 949 1080"><defs><style>.cls-1,.cls-2{fill:#fff;}.cls-1{stroke:#fff;stroke-miterlimit:10;stroke-width:2px;}.cls-3{fill:#5bb951;}.cls-4{fill:#b2805c;}.cls-5{fill:#8a3534;}</style></defs><path class="cls-1" d="M179.22,953.14c0-6.85,11.3-7.1,11.3,0v47.73c0,6.94-11.3,7.11-11.3,0Z"/><path class="cls-1" d="M203.28,954c0-3,.69-5.94,5.14-5.94,3.09,0,3.77.76,6.08,2.93l28.35,34.6V953.14c0-2.76,2.49-5.76,5.4-5.76,3.08,0,6.08,3,6.08,5.76v47.06c0,3.68-2.31,5.1-4.54,5.77-3,0-4.45-.67-6.94-2.93l-28.35-35.1v32.26c0,3.68-2.31,5.77-5.39,5.77a5.58,5.58,0,0,1-5.83-5.77Z"/><path class="cls-1" d="M277.37,959v13.29h21.84c3.08,0,6.16,3,6.16,5.94,0,2.76-3.08,5-6.16,5H277.37v17.56a5,5,0,0,1-5.14,5.18c-3.77,0-6.08-2.26-6.08-5.18V953.31c0-3,2.31-5.18,6.08-5.18h30.06c3.77,0,6,2.17,6,5.18a5.85,5.85,0,0,1-6,5.68Z"/><path class="cls-1" d="M347.94,1006.81c-15.85.66-32.29-9.62-32.29-30.1S332.09,946,347.94,946c15,.75,30.66,10.86,30.66,30.67S362.93,1006.81,347.94,1006.81ZM347,956.9c-9.6,0-20,6.61-20,19.81s10.44,19.81,20,19.81c9.85,0,20.38-6.68,20.38-19.81S356.85,956.9,347,956.9Z"/><path class="cls-1" d="M400.44,1000.54c0,7.27-11.39,7.52-11.39.16V953.23a5.05,5.05,0,0,1,5.14-5.1H417c21.75,0,26.21,28.42,8,35.52l11.39,13.54c4.45,6.44-4.45,12.62-9.59,6.27l-12.93-18.05H400.44Zm0-24.75H417c11.13,0,11.82-17.55,0-17.55H400.44Z"/><path class="cls-1" d="M458.34,969.27v30.93c0,3.68-3.09,5.77-6.17,5.77-2.74,0-5.14-2.09-5.14-5.77V953.14a5.62,5.62,0,0,1,5.14-5.76c2.48,0,3.94,1.42,5.39,3l18.85,24.83,19.52-25.75c2.83-3.42,9.77-2.08,9.77,3.68v47.06c0,3.68-2.4,5.77-5.14,5.77-3.08,0-5.48-2.09-5.48-5.77V969.27l-14.22,17.56c-3.08,3.68-6.94,3.68-9.76,0Z"/><path class="cls-1" d="M516.4,1006c-2.74-1.51-4.45-4.51-2.74-8l24.58-46.9c2.32-4.43,8.48-4.59,10.62,0L573,998c3.51,6.51-6.85,11.7-9.94,5.18l-3.77-7.36h-31.6l-3.68,7.36C522.66,1006,519.49,1006.55,516.4,1006Zm36.83-21.23-9.68-20.65L533,984.74Z"/><path class="cls-1" d="M589.54,958.58h-15a5.36,5.36,0,1,1,0-10.7h40.51a5.36,5.36,0,1,1,0,10.7H600.85v42.21c0,7.27-11.31,7.44-11.31,0Z"/><path class="cls-1" d="M629.54,953.14c0-6.85,11.31-7.1,11.31,0v47.73c0,6.94-11.31,7.11-11.31,0Z"/><path class="cls-1" d="M683.67,1006.81c-15.84.66-32.29-9.62-32.29-30.1S667.83,946,683.67,946c15,.75,30.66,10.86,30.66,30.67S698.66,1006.81,683.67,1006.81Zm-.94-49.91c-9.6,0-20,6.61-20,19.81s10.44,19.81,20,19.81c9.85,0,20.38-6.68,20.38-19.81S692.58,956.9,682.73,956.9Z"/><path class="cls-1" d="M724.86,954c0-3,.69-5.94,5.14-5.94,3.08,0,3.77.76,6.08,2.93l28.35,34.6V953.14c0-2.76,2.49-5.76,5.4-5.76,3.08,0,6.08,3,6.08,5.76v47.06c0,3.68-2.31,5.1-4.54,5.77-3,0-4.45-.67-6.94-2.93l-28.35-35.1v32.26c0,3.68-2.31,5.77-5.39,5.77a5.58,5.58,0,0,1-5.83-5.77Z"/><ellipse class="cls-2" cx="475.3" cy="446.8" rx="437.48" ry="439.4"/><path class="cls-3" d="M474.5,0c-246.32,0-446,199.68-446,446s199.68,446,446,446,446-199.68,446-446S720.82,0,474.5,0Zm0,865.46C242.84,865.46,55,677.66,55,446S242.84,26.54,474.5,26.54,894,214.34,894,446h0C894,677.66,706.16,865.46,474.5,865.46Z"/><path class="cls-4" d="M476.86,339H695.4c12.27,0,13.38-3.08,9.33-13.83-17.84-45.13-42.91-85.41-80-116.89C562,154.8,490.42,137,410.9,161.22c-81.35,25.24-131.12,83.94-162.52,160.47-6.83,16.68-6.25,17.13,11.5,17.13Q368.41,339.12,476.86,339Zm.67,218.54H260.82c-18.95,0-18.91,0-11.77,18.19A283.29,283.29,0,0,0,309.48,671c66.54,67.83,145.93,94,237.36,62.75,78.5-26.76,126.75-86.44,157.31-162,4.86-12,3-14.49-9.64-14.4C622,557.85,549.78,557.58,477.53,557.58ZM806.06,326.07a353.81,353.81,0,0,0-49.69-90.27A350.61,350.61,0,0,0,589.52,112.53c-53.74-18.42-112.79-22.3-176.79-11a342.68,342.68,0,0,0-144.86,59.81A356.82,356.82,0,0,0,146.51,323.48c-6.47,17.53-45.36,127.43-.4,249A315,315,0,0,0,162.7,610c94.91,164.53,235.94,220.37,398.73,182.28A345.6,345.6,0,0,0,701,720.87,355,355,0,0,0,804.63,573.69C812.3,553.44,850.25,446.45,806.06,326.07ZM474.5,754.81c-137.55,0-249-135.45-249-302.48s111.63-302.52,249-302.52S723.59,285.44,723.59,452.33,612.14,754.81,474.5,754.81Z"/><path class="cls-2" d="M728.32,448.41c0,170.77-114,309.3-254.53,309.3S219.21,619.18,219.21,448.41s114-309.3,254.58-309.3S728.32,277.64,728.32,448.41Z"/><path class="cls-5" d="M711.5,267.6C544.66,193.47,377,196.69,214.17,281.47,146.11,316.66,94.2,371,95.4,453.4c1.34,80.28,55.39,129.34,120.42,165.87,80.55,45.49,168.94,61.28,269.65,64.94,71.36-2.37,150.08-14.72,223.45-49.82,76.71-36.66,145.3-86.57,147.18-180C858.06,358.18,790.71,302.61,711.5,267.6ZM168.68,574.67c35.68-86.52,66-162.16,98.65-236.74,18.65-42.32,56.24-13.64,91-22.56C323.89,397.79,292.89,475,259.35,551,241.82,591,205.7,563.39,168.68,574.67Zm312.2-21.55c-5,13.91-15.39,16.54-28.19,16.46-34.07,0-68.1.89-102.09-.36-40.76-1.38-55.88-25.16-42.68-61.82C327.5,453,350.69,399.92,373.39,346.84a49.92,49.92,0,0,1,48.35-31.93c49.06-.27,98.12,0,147.18,0-3.35,56.46-34.08,69-82,64.31-35.68-3.43-98.92,82.42-87.73,115.29,5.84,17.35,21.94,12.63,35,12.49A17.14,17.14,0,0,0,452,486.8c-7.94-66-8.16-66.19,58-61.95a100.75,100.75,0,0,1,16.5,4c-8.47,44.33-30.73,83-45.49,124.26ZM747,450.54c-8.92,20.25-18.42,40.72-23.5,62-13.38,54.68-45.76,69.8-100.13,51.64,5.62-16.05,11.28-31.75,16.55-47.54,2.94-8.92,11.82-20.43-1-26.27-10.84-4.91-23.64-3-29.4,11.55s-12.57,28-17.84,42.46c-14.27,40.41-47.45,24-73.54,23-14.72-.53-7.76-16.41-4.46-24.53Q553.8,443.23,595,344.21c7.94-18.95,22.3-29.48,43.76-29.3,132.64,1,176.84-20.43,108.33,135.63Z"/><path class="cls-2" d="M638.9,316.66c-21.28,0-35.68,10.35-43.76,29.3q-41.21,99-81.3,198.7c-3.21,8.11-10.17,24,4.46,24.53,26.09.93,59.27,17.39,73.54-23,5.09-14.45,12-28.23,17.84-42.46s18.56-16.46,29.39-11.55c12.8,5.84,3.93,17.31,1,26.27-5.27,15.79-10.93,31.49-16.55,47.54,54.37,18.16,87,3,100.13-51.64,5.08-21.32,14.58-41.79,23.5-62C815.56,296.23,771.36,317.64,638.9,316.66Zm22.92,110.25c-9.63.49-18.91-3.79-15.65-13.78,5.57-16.9,8.38-38.45,31.66-41.39,8.48-1.07,15.88,4.77,16.24,16.55C686.31,402.65,687.24,425.57,661.82,426.91Z"/><path class="cls-2" d="M399,496.31c5.84,17.35,21.95,12.62,35,12.49a17.15,17.15,0,0,0,17.84-20.21c-7.94-66-8.16-66.18,58-61.95a99.77,99.77,0,0,1,16.5,4c-8.56,44.29-30.82,82.91-45.58,124.21-5,13.91-15.39,16.55-28.19,16.46-34.07,0-68.1.89-102.09-.36-40.76-1.38-55.88-25.16-42.68-61.82,19.58-54.36,42.77-107.48,65.47-160.56a49.91,49.91,0,0,1,48.53-31.93c49.06-.27,98.12,0,147.18,0-3.35,56.46-34.08,69-82,64.31C451.22,377.58,387.8,463.44,399,496.31Z"/><path class="cls-2" d="M358.54,315.37C324.11,397.79,293.11,475,259.57,551c-17.53,40.14-53.52,12.36-90.67,23.64,35.68-86.52,66-162.16,98.66-236.74C286,295.61,323.57,324.29,358.54,315.37Z"/><path class="cls-5" d="M694.07,388.29c-7.76,14.36-6.83,37.28-32.25,38.62-9.63.49-18.91-3.79-15.65-13.78,5.57-16.9,8.38-38.45,31.66-41.39C686.31,370.67,693.71,376.51,694.07,388.29Z"/></svg>