<svg id="iga" xmlns="http://www.w3.org/2000/svg" viewBox="0 0 1080 215.83"><defs><style>.cls-1{fill:#fff;}.cls-2{fill:#8a3534;}.cls-3{fill:#5bb951;}.cls-4{fill:#b2805c;}</style></defs><rect class="cls-1" y="141.57" width="1080" height="23.04"/><rect class="cls-2" width="1080" height="141.12"/><circle class="cls-1" cx="952.93" cy="117.12" r="98.7"/><path class="cls-1" d="M951.21,92.45a23.38,23.38,0,1,0,23.38,23.37A23.37,23.37,0,0,0,951.21,92.45Zm.17,45.89a22.69,22.69,0,1,1,22.69-22.69A22.68,22.68,0,0,1,951.38,138.34Z" transform="translate(0.37 0.3)"/><path class="cls-1" d="M55.8,45.8c0-6.56,10.56-6.8,10.56,0V91.48c0,6.64-10.56,6.8-10.56,0Z" transform="translate(0.37 0.3)"/><path class="cls-1" d="M125.4,90.2a30.3,30.3,0,0,1-19.68,6.72C88.92,96.92,77,87.32,77,68.28c0-16.16,12.56-28.72,29.44-28.72,6.32,0,13.28,2.16,18.24,7s-2.16,11.92-7,7.68c-3-2.88-7.12-5-11.28-5a19.07,19.07,0,0,0-19,19c0,11.84,7.84,19,18.32,19a20.36,20.36,0,0,0,12-3.6V73.88h-12c-7.12,0-6.4-9.76,0-9.76h16c3,0,5.68,2.24,5.68,4.72v17A6.46,6.46,0,0,1,125.4,90.2Z" transform="translate(0.37 0.3)"/><path class="cls-1" d="M137.88,96.36a5.64,5.64,0,0,1-2.56-7.68l23-44.88c2.16-4.24,7.92-4.4,9.92,0l22.56,44.88c3.28,6.24-6.4,11.2-9.28,5l-3.52-7H148.44l-3.44,7C143.72,96.36,140.76,96.92,137.88,96.36ZM172.28,76l-9-19.76L153.4,76Z" transform="translate(0.37 0.3)"/><ellipse class="cls-1" cx="953.27" cy="116.61" rx="84.29" ry="84.67"/><path class="cls-3" d="M952.75,30.21a85.94,85.94,0,1,0,85.94,85.93A85.93,85.93,0,0,0,952.75,30.21Zm0,166.76a80.83,80.83,0,1,1,80.82-80.83A80.83,80.83,0,0,1,952.75,197Z" transform="translate(0.37 0.3)"/><path class="cls-4" d="M952.9,96.88m.3-1.32c14,0,28.08,0,42.12,0,2.36,0,2.62-.6,1.8-2.67-3.44-8.69-8.27-16.46-15.41-22.53-12.1-10.27-25.88-13.78-41.21-9.07-15.68,4.82-25.27,16.12-31.32,30.88-1.32,3.21-1.21,3.34,2.22,3.34Zm.13,42.29H911.57c-3.65,0-3.64,0-2.26,3.51a54.45,54.45,0,0,0,11.6,18.34c12.82,13.07,28.11,18.11,45.73,12.09,15.13-5.16,24.43-16.65,30.31-31.22.94-2.31.59-2.79-1.85-2.77C981.17,137.9,967.25,137.85,953.33,137.85ZM1016.63,93a68.4,68.4,0,0,0-9.57-17.39,67.54,67.54,0,0,0-32.15-23.75c-10.36-3.55-21.74-4.3-34.07-2.12a65.82,65.82,0,0,0-27.91,11.52,68.69,68.69,0,0,0-23.38,31.24c-1.25,3.38-8.74,24.56-.08,48a58.34,58.34,0,0,0,3.2,7.22c18.29,31.71,45.46,42.47,76.83,35.13a66.66,66.66,0,0,0,26.89-13.75,68.53,68.53,0,0,0,20-28.34C1017.84,136.85,1025.15,116.23,1016.63,93Zm-63.85,82.62c-26.5,0-48-26.1-48-58.29s21.48-58.28,48-58.28,48,26.1,48,58.28S979.26,175.65,952.78,175.65Z" transform="translate(0.37 0.3)"/><path class="cls-1" d="M1001.65,116.61c0,32.91-22,59.59-49,59.59s-49.05-26.68-49.05-59.59,22-59.6,49.05-59.6S1001.65,83.7,1001.65,116.61Z" transform="translate(0.37 0.3)"/><path class="cls-2" d="M998.41,81.74C966.27,67.46,934,68.08,902.59,84.42c-13.12,6.83-23.12,17.27-22.85,33.15.25,15.46,10.66,24.89,23.19,32,15.53,8.76,32.56,11.81,52,12.52,13.71-.46,28.92-2.84,43.05-9.61,14.78-7.06,28-16.67,28.35-34.68C1026.66,99.22,1013.68,88.52,998.41,81.74ZM893.82,140.93c6.91-16.66,12.71-31.24,19-45.61,3.59-8.16,10.84-2.63,17.53-4.35-6.64,15.88-12.61,30.76-19.07,45.41C907.91,144.07,901,138.76,893.82,140.93ZM954,137.12c-1,2.68-3,3.19-5.43,3.18-6.56,0-13.12.16-19.67-.07-7.86-.27-10.77-4.85-8.23-11.91,3.78-10.48,8.25-20.72,12.62-31a9.63,9.63,0,0,1,9.3-6.12c9.44,0,18.87,0,28.33,0-.65,10.88-6.57,13.29-15.81,12.4-6.84-.66-19.06,15.88-16.91,22.21,1.13,3.34,4.23,2.43,6.74,2.41a3.31,3.31,0,0,0,3.46-3.9c-1.53-12.71-1.57-12.76,11.2-11.94a19.59,19.59,0,0,1,3.18.78C961.12,121.73,956.84,129.17,954,137.12Zm51.27-19.77a71.28,71.28,0,0,0-4.53,12c-2.53,10.54-8.81,13.45-19.29,9.95,1.08-3.09,2.18-6.11,3.19-9.16.57-1.73,2.28-3.94-.19-5.06a3.93,3.93,0,0,0-5.67,2.22c-1.09,2.75-2.42,5.4-3.4,8.18-2.74,7.79-9.14,4.62-14.17,4.44-2.83-.1-1.49-3.16-.87-4.73Q968,116,976,96.87a8.48,8.48,0,0,1,8.42-5.65C1010,91.41,1018.46,87.29,1005.26,117.35Z" transform="translate(0.37 0.3)"/><path class="cls-1" d="M984.42,91.22A8.48,8.48,0,0,0,976,96.87q-7.95,19.08-15.67,38.28c-.62,1.57-2,4.63.87,4.73,5,.18,11.43,3.35,14.17-4.44,1-2.78,2.31-5.43,3.4-8.18a3.93,3.93,0,0,1,5.67-2.22c2.47,1.12.76,3.33.19,5.06-1,3.05-2.11,6.07-3.19,9.16,10.48,3.5,16.76.59,19.29-9.95a71.28,71.28,0,0,1,4.53-12C1018.46,87.29,1010,91.41,984.42,91.22Zm4.42,21.25c-1.85.09-3.64-.73-3-2.66,1.07-3.26,1.61-7.41,6.1-8,1.63-.2,3.06.92,3.12,3.2C993.56,107.8,993.74,112.21,988.84,112.47Z" transform="translate(0.37 0.3)"/><path class="cls-1" d="M938.19,125.84c1.13,3.34,4.23,2.43,6.74,2.41a3.31,3.31,0,0,0,3.46-3.9c-1.53-12.71-1.57-12.76,11.2-11.94a19.59,19.59,0,0,1,3.18.78c-1.65,8.54-5.93,16-8.78,23.93-1,2.68-3,3.19-5.43,3.18-6.56,0-13.12.16-19.67-.07-7.86-.27-10.77-4.85-8.23-11.91,3.78-10.48,8.25-20.72,12.62-31a9.63,9.63,0,0,1,9.3-6.12c9.44,0,18.87,0,28.33,0-.65,10.88-6.57,13.29-15.81,12.4C948.26,103,936,119.51,938.19,125.84Z" transform="translate(0.37 0.3)"/><path class="cls-1" d="M930.36,91c-6.64,15.88-12.61,30.76-19.07,45.41-3.38,7.69-10.34,2.38-17.47,4.55,6.91-16.66,12.71-31.24,19-45.61C916.42,87.16,923.67,92.69,930.36,91Z" transform="translate(0.37 0.3)"/><path class="cls-2" d="M995.05,105c-1.49,2.77-1.31,7.18-6.21,7.44-1.85.09-3.64-.73-3-2.66,1.07-3.26,1.61-7.41,6.1-8C993.56,101.63,995,102.75,995.05,105Z" transform="translate(0.37 0.3)"/></svg>