<svg xmlns="http://www.w3.org/2000/svg" viewBox="0 0 1080 215.83"><defs><style>.cls-1{fill:#fff;}.cls-2{fill:#557b94;}.cls-3{fill:#d4d9df;}.cls-4{fill:#826176;}.cls-5{fill:#5bb951;}.cls-6{opacity:0.9;}.cls-7{fill:#240e0f;}.cls-8{fill:#250f10;}.cls-9{fill:#cfbcab;}.cls-10{fill:#251011;}.cls-11{fill:#cec0ad;}.cls-12{fill:#261215;}.cls-13{fill:#cbb9a9;}.cls-14{fill:#4a3934;}.cls-15{fill:#c8b7a6;}.cls-16{fill:#d0c3b7;}.cls-17{fill:#cfbeb1;}.cls-18{fill:#2e2525;}.cls-19{fill:#675e57;}.cls-20{fill:#675857;}.cls-21{fill:#d7cfc2;}.cls-22{fill:#5e514d;}.cls-23{fill:#665e5f;}.cls-24{fill:#2c2423;}.cls-25{fill:#302827;}</style></defs><g id="Kendal"><rect class="cls-1" y="141.57" width="1080" height="23.04"/><rect class="cls-2" width="1080" height="141.12"/><circle class="cls-1" cx="952.93" cy="117.12" r="98.7"/><ellipse class="cls-1" cx="953.86" cy="118" rx="82.88" ry="83.25"/><path class="cls-3" d="M920.59,94.05c.36-1.31,4,0,10-2.72,2.25-1,7.58-3.35,10.18-8.52,1.68-3.36.63-4.75,2.46-6.92,2.51-3,7.91-4.4,10.56-2.62,5.48,3.71,5.1,25.22-7.31,30.86C934.69,109.5,919.8,96.87,920.59,94.05Z" transform="translate(-0.06 -0.77)"/><path class="cls-3" d="M986.67,94.05c-.36-1.31-4,0-10-2.72-2.25-1-7.58-3.35-10.18-8.52-1.68-3.36-.63-4.75-2.46-6.92-2.51-3-7.91-4.4-10.56-2.62-5.49,3.71-5.1,25.22,7.31,30.86C972.57,109.5,987.45,96.87,986.67,94.05Z" transform="translate(-0.06 -0.77)"/><rect class="cls-3" x="908.18" y="89.13" width="90.54" height="53" rx="9.43"/><rect class="cls-4" x="911.99" y="91.21" width="82.95" height="48.56" rx="9.43"/><ellipse class="cls-3" cx="953.56" cy="81.33" rx="13.3" ry="15.07"/><ellipse class="cls-2" cx="953.56" cy="81.33" rx="10.64" ry="12.06"/><rect class="cls-3" x="896.79" y="78.73" width="11.38" height="85.74"/><rect class="cls-3" x="998.71" y="78.73" width="11.38" height="85.74"/><rect class="cls-3" x="894.72" y="76.66" width="15" height="2.08"/><rect class="cls-3" x="997.16" y="77.18" width="15" height="2.08"/><polygon class="cls-3" points="897.31 75.62 900.93 68.86 902.74 68.86 902.74 76.66 897.31 76.66 897.31 75.62"/><polygon class="cls-3" points="907.92 75.62 904.3 68.86 902.49 68.86 902.49 76.66 907.92 76.66 907.92 75.62"/><ellipse class="cls-3" cx="902.48" cy="66.26" rx="5.17" ry="5.2"/><polygon class="cls-3" points="999.23 76.14 1002.85 69.38 1004.66 69.38 1004.66 77.18 999.23 77.18 999.23 76.14"/><polygon class="cls-3" points="1009.83 76.14 1006.21 69.38 1004.4 69.38 1004.4 77.18 1009.83 77.18 1009.83 76.14"/><ellipse class="cls-3" cx="1004.4" cy="66.78" rx="5.17" ry="5.2"/><path class="cls-5" d="M953.17,31.85a85.94,85.94,0,1,0,85.94,85.94A85.94,85.94,0,0,0,953.17,31.85Zm0,166.76A80.83,80.83,0,1,1,1034,117.79,80.83,80.83,0,0,1,953.17,198.61Z" transform="translate(-0.06 -0.77)"/><ellipse class="cls-1" cx="953.18" cy="143.24" rx="40.76" ry="42.6"/><g class="cls-6"><path class="cls-7" d="M953.06,118.27l-2.91,1.8c-2.36-2.59-4.81-3.43-7.65-.59a1.7,1.7,0,0,1-2.26-.17h0c-1.85.48-5.16-.5-5.37,1-.44,3.11-4.76,5.1-2.48,8.81,0,.48.26,1.05.08,1.42-2.8,5.92-2.47,7.3,3,12.13l1,1c.41,1.37-.58,1.71-1.53,2.08-1.94.53-4.74-1.78-5.76,2.11-.27,1-2.85.83-4.07.29-1.82-.82-3.83-.41-5.57-1.28-8-1.9-8-1.9-6.37-10.42,4.8-24.74,26-39.65,49.26-34.15,14.08,3.33,23.51,12.41,28.81,25.8.59,1.51,1,2.92-1.11,3.5-6.69,1.83-10.81,7.18-15.8,11.34-.78.65-1.4,2.31-2.71,1.28s-.07-2.11.54-3a26.65,26.65,0,0,0,5.14-13.1c.1-1.22,1.33-3.5-1.75-3.11-1.84,1.38-3.3.84-3.37-1.3-.14-3.91-1.86-4.38-5-3-.43.19-.93-.14-1.21-.6v0c-.9-1.16-2.41-1.79-3.12-3-1.54-2.74-3.06-3.19-4.94-.37C956.76,118.54,954.51,117.15,953.06,118.27Z" transform="translate(-0.06 -0.77)"/><path class="cls-8" d="M957.87,169.61c2.82,4.11,6.61,7.22,10.54,10.16.78.58,2.05.85,2,1.94,0,1.46-1.58,1.45-2.56,1.85a39.79,39.79,0,0,1-43.32-9.67c-2.31-2.48-1.27-3,1.2-3.72,5.84-1.7,11.51-3.83,16.34-7.69,3.35-2.57,2.81,1.36,4,2.37,1.37,2,3.21,2.7,5.45,1.74C954.9,165.15,956.75,166.57,957.87,169.61Z" transform="translate(-0.06 -0.77)"/><path class="cls-9" d="M919.58,146.82c3.15-1.11,6,1.67,9.12.75-.81-4.72-.81-4.72,5.53-2.59,2.28.23,4.35,1.69,6.76,1.14,2.06.69,2.88,4.71,5.29,3.13s.21-4.47-.48-6.59c-1.26-3.83-3.11-7.41-1.87-11.7.54-1.85,1.15-3.19,3.15-2.66,2.61.69,5.68-3.35,7.88.8,1.21-.75,0,3.57,2.1,1,1-.43,2-1.5,3-.07a2,2,0,0,1-.69,3c-6.63,2.54-3.91,7.49-3.23,11.91.22,1.44-.69,3.49,1.85,3.83a.92.92,0,0,1,0,1.31c-.38.53,0-.2-.35.34-4.18,6.25-4.18,6.25-11.62,3.28a41.5,41.5,0,0,0-16.61-4.81C926,148.7,922.64,148.56,919.58,146.82Z" transform="translate(-0.06 -0.77)"/><path class="cls-10" d="M987.66,159.69c1.3.06,4-1.42,2.48,1.94a42.24,42.24,0,0,1-15.45,18.25c.94-7.78-1.7-13.53-6.91-18.2.78-3.24,3-2.15,5-1.66C977.74,160,982.72,160.58,987.66,159.69Z" transform="translate(-0.06 -0.77)"/><path class="cls-11" d="M959.9,156.75c2.08-.27,4-.57,5.78-2.12,3.05-2.61,6.22-5.19,10.46-6s6.19-4.62,9.42-6.77a3.69,3.69,0,0,1,1.92,1.83c-1.7,6.23-4.8,10.74-12.24,10.13-1.55-.13-2.74.19-1.15,2.16,1.38,1.71-1.28,2.31-1.39,3.7-4,.75-7.91,1.15-11.62-1A2,2,0,0,1,959.9,156.75Z" transform="translate(-0.06 -0.77)"/><path class="cls-12" d="M931.94,156.61c-3.82,2.74-7.35,5.53-10.79,8.44-1.17,1-2.22,1.38-3.12-.33-2.26-4.29-4.34-8.63-4.83-14.52A61.21,61.21,0,0,0,931.94,156.61Z" transform="translate(-0.06 -0.77)"/><path class="cls-13" d="M957.87,169.61c-1.94-2.2-3.39-4.54-6.93-1.37-2.32,2.08-4.4-.56-5.82-2.69-1.86-5,1.75-6.21,5.2-7.54,5-2.9,6,1.24,7.55,4.39Z" transform="translate(-0.06 -0.77)"/><path class="cls-14" d="M957.87,162.4c-1,.08-2.93,2.12-2.46-.76.75-4.57-1.9-3.4-4.3-3-1.74-.14-1-2.34-2.31-2.8A2.94,2.94,0,0,1,946,153.7c1,0,2.11-.39,2.84,0,3.68,2,6.23,1.92,7-3,.07-.48,1.26-.8,1.92-1.19,1-.31,1.25.19,1.18,1.06-.34,2.15-6,5.14,1,6.14l1.09.83c1.21,1.71.1,2.8-1,3.89C959.24,161.74,958.23,161.35,957.87,162.4Z" transform="translate(-0.06 -0.77)"/><path class="cls-15" d="M966,120.12c.48,0,1.06.26,1.42.07,5.17-2.67,5.32-2.69,5.66,3.16.13,2.24,1.21,1.77,2.48,1.63C969.27,130.51,968.08,129.91,966,120.12Z" transform="translate(-0.06 -0.77)"/><path class="cls-15" d="M953.06,118.27c2.05-1.52,4.93-1.79,6-4.86.6-1.77,2.31-1.55,3.32.2,1.24,2.16,2.45,4.35,3.68,6.53-3-2-5.43,2.37-6.82,1.41C957.24,120.18,956.1,117.71,953.06,118.27Z" transform="translate(-0.06 -0.77)"/><path class="cls-16" d="M932.37,129.1c-1.14-1.88-1.81-3.72.14-5.57s-.44-4.69,1.3-7.13a8.41,8.41,0,0,0,6.41,2.91c-1.65,1.06-3.47,2.1-3.69,4.25-.2,2,.1,3.19-2.88,2.17C931.76,125.08,933.21,128.05,932.37,129.1Z" transform="translate(-0.06 -0.77)"/><path class="cls-17" d="M940.24,119.31c.73-.22,1.66-.23,2.16-.7,4.92-4.6,5.14-4.58,7.75,1.46-.06.32-.11.63-.16.94C947.08,118.47,942.69,124.39,940.24,119.31Z" transform="translate(-0.06 -0.77)"/><path class="cls-18" d="M987.48,143.72a1.71,1.71,0,0,1-1.92-1.83l7.41-5.1C994.63,141.91,994.63,141.91,987.48,143.72Z" transform="translate(-0.06 -0.77)"/><path class="cls-19" d="M948.8,155.85c1.55.29,1.74,1.7,2.31,2.8-2.62,1.76-7.14,1.88-6,6.9-1.94-.11.32-4.34-3-3.07a6.21,6.21,0,0,1,5.19-4.53C948.53,157.7,949.56,157.48,948.8,155.85Z" transform="translate(-0.06 -0.77)"/><path class="cls-20" d="M960,161.47c.34-1.3.69-2.59,1-3.89a23.06,23.06,0,0,0,11.71,2.13h0c.38.16.51.35.42.56s-.21.33-.32.33c-1.59.73-3.68-.79-5,1.09Z" transform="translate(-0.06 -0.77)"/><path class="cls-21" d="M962,144.85a11.82,11.82,0,0,1,1.8-2.2c1.26-1,1.48-4.4,3.42-2.89,1.55,1.2-.06,3.82-1.41,5.45-.34.41-1.15.45-1.75.66A2.42,2.42,0,0,1,962,144.85Z" transform="translate(-0.06 -0.77)"/><path class="cls-22" d="M941,146.12c.11,1.41-.41,2.21-1.87,1.52-1.68-.78-3.26-1.77-4.89-2.66.94-.16,2-.14,2.28-1.36A8.08,8.08,0,0,1,941,146.12Z" transform="translate(-0.06 -0.77)"/><path class="cls-11" d="M972.8,160.59c0-.29-.07-.59-.1-.89h15A43.44,43.44,0,0,1,972.8,160.59Z" transform="translate(-0.06 -0.77)"/><path class="cls-23" d="M962,144.85c.87,0,1.68.08,2.06,1-1.39,1.9-2.75,3.85-5.09,4.74l-1.18-1.06a2.06,2.06,0,0,0,.22-.78Z" transform="translate(-0.06 -0.77)"/><path class="cls-24" d="M957.06,130.09c-.83,1.34.59,3.24-1.43,4.66-1.68-1.76-.13-3.9-.67-5.65.29-.54.51-1.31,1.32-1C957.25,128.39,956.85,129.39,957.06,130.09Z" transform="translate(-0.06 -0.77)"/><path class="cls-25" d="M987.62,153.41c2.24-1.1,3.62-2.14,5.12-.67.16.15,0,1-.28,1.19C991,155.15,989.82,154,987.62,153.41Z" transform="translate(-0.06 -0.77)"/></g><path class="cls-1" d="M74.14,72.32l-7.6,8.4v11.2c0,6.64-10.56,6.72-10.56,0V46.24c0-6.8,10.56-7,10.56,0V66.56L89.66,42.72c2.8-2.64,5.6-2,7.6,0a4.61,4.61,0,0,1,0,7.12C92.54,55.44,87,60.4,81.9,66l18.72,22.64c4.8,6.64-5.44,11.44-8.64,6.32Z" transform="translate(-0.06 -0.77)"/><path class="cls-1" d="M114.22,96.8a4.88,4.88,0,0,1-5-5V46.4a4.84,4.84,0,0,1,5-5h28.72c7.36,0,7.2,10.4,0,10.4h-23v12h20.16c7.12,0,7.12,10.48,0,10.48H119.9v12h24.4c7.28,0,7.84,10.48,0,10.48Z" transform="translate(-0.06 -0.77)"/><path class="cls-1" d="M158.62,47c0-2.88.64-5.68,4.8-5.68,2.88,0,3.52.72,5.68,2.8l26.48,33.12v-31c0-2.64,2.32-5.52,5-5.52a6.09,6.09,0,0,1,5.68,5.52v45c0,3.52-2.16,4.88-4.24,5.52-2.8,0-4.16-.64-6.48-2.8L169.1,60.4V91.28c0,3.52-2.16,5.52-5,5.52a5.27,5.27,0,0,1-5.44-5.52Z" transform="translate(-0.06 -0.77)"/><path class="cls-1" d="M222.94,96.8c-2.64,0-5.52-1.44-5.52-5V46.4c0-2.88,2.88-5,5.52-5h18.32c36.56,0,35.76,55.36.72,55.36Zm5-45.6V87h13.28c21.6,0,22.56-35.84,0-35.84Z" transform="translate(-0.06 -0.77)"/><path class="cls-1" d="M276.7,96.8a5.64,5.64,0,0,1-2.56-7.68l23-44.88c2.16-4.24,7.92-4.4,9.92,0l22.56,44.88c3.28,6.24-6.4,11.2-9.28,5l-3.52-7H287.26l-3.44,7C282.54,96.8,279.58,97.36,276.7,96.8Zm34.4-20.32-9-19.76-9.84,19.76Z" transform="translate(-0.06 -0.77)"/><path class="cls-1" d="M336.86,46.24a5,5,0,0,1,5-4.88,4.87,4.87,0,0,1,4.72,4.88V86.32h21.76c7.84,0,8,10.48,0,10.48H341.9a4.84,4.84,0,0,1-5-4.88Z" transform="translate(-0.06 -0.77)"/></g></svg>