<?xml version="1.0" encoding="utf-8"?>
<!-- Generator: Adobe Illustrator 25.4.1, SVG Export Plug-In . SVG Version: 6.00 Build 0)  -->
<svg version="1.1" id="Layer_1" xmlns="http://www.w3.org/2000/svg" xmlns:xlink="http://www.w3.org/1999/xlink" x="0px" y="0px"
	 viewBox="0 0 950 250" style="enable-background:new 0 0 950 250;" xml:space="preserve">
<style type="text/css">
	.st0{fill:#003300;}
	.st1{opacity:0.7;fill:#FFFFFF;enable-background:new    ;}
	.st2{fill:#FFFFFF;}
	.st3{fill:#5BB951;}
</style>
<g>
	<g id="Kendal">
		
			<image style="overflow:visible;opacity:0.75;enable-background:new    ;" width="950" height="250" xlink:href="C830F8DCAB1762A4.png" >
		</image>
		<path class="st0" d="M20.5,8.8H916c6.6,0,12,5.4,12,12v195c0,6.6-5.4,12-12,12H20.5c-6.6,0-12-5.4-12-12v-195
			C8.5,14.1,13.9,8.8,20.5,8.8z"/>
		<path class="st1" d="M59.8,46.7h822.5c6.6,0,12,5.4,12,12v120.6c0,6.6-5.4,12-12,12H59.8c-6.6,0-12-5.4-12-12V58.7
			C47.8,52,53.2,46.7,59.8,46.7z"/>
		<ellipse class="st2" cx="818.4" cy="119.2" rx="98.8" ry="99.3"/>
		<path class="st3" d="M817.5,15.6C760.9,15.6,715,61.5,715,118.1s45.9,102.5,102.5,102.5S920,174.7,920,118.1l0,0
			C920,61.5,874.1,15.6,817.5,15.6z M817.5,214.5c-53.2,0-96.4-43.2-96.4-96.4s43.2-96.4,96.4-96.4s96.4,43.2,96.4,96.4
			S870.7,214.5,817.5,214.5L817.5,214.5L817.5,214.5z"/>
		<path d="M94.7,123.8l-5.3,5.9v7.9c0,4.7-7.4,4.7-7.4,0v-32c0-4.8,7.4-4.9,7.4,0v14.2l16.2-16.7c1.3-1.5,3.5-1.6,4.9-0.4
			c0.1,0.1,0.3,0.3,0.4,0.4c1.4,1.1,1.6,3.2,0.5,4.5c-0.1,0.2-0.3,0.3-0.5,0.5c-3.3,3.9-7.2,7.4-10.8,11.3l13.1,15.9
			c3.4,4.7-3.8,8-6.1,4.4L94.7,123.8z"/>
		<path d="M122.9,141c-1.9,0-3.5-1.5-3.5-3.4v-0.1v-31.9c-0.1-1.9,1.4-3.4,3.3-3.5c0.1,0,0.1,0,0.2,0H143c2,0,3.6,1.6,3.6,3.7
			s-1.6,3.7-3.6,3.7h-16.1v8.4H141c2-0.1,3.8,1.5,3.9,3.5c0.1,2-1.5,3.8-3.5,3.9c-0.1,0-0.3,0-0.4,0h-14.1v8.4H144
			c5.1,0,5.5,7.4,0,7.4L122.9,141z"/>
		<path d="M154,106.1c0-2,0.4-4,3.4-4c2,0,2.5,0.5,4,2l18.6,23.2v-21.8c0-1.9,1.6-3.9,3.5-3.9c2.1,0.1,3.8,1.8,4,3.9v31.6
			c0.1,1.9-1.2,3.5-3,3.9c-2,0-2.9-0.4-4.6-2l-18.6-23.6v21.7c0,2.5-1.5,3.9-3.5,3.9c-2,0.1-3.8-1.5-3.8-3.6c0-0.1,0-0.2,0-0.3
			L154,106.1z"/>
		<path d="M199.2,141c-1.9,0-3.9-1-3.9-3.5v-31.9c0-2,2-3.5,3.9-3.5H212c25.7,0,25.1,38.8,0.5,38.8L199.2,141z M202.7,109v25.1h9.3
			c15.2,0,15.8-25.2,0-25.2L202.7,109z"/>
		<path d="M236.9,141c-2-1-2.8-3.4-1.8-5.4l0,0l16.1-31.5c0.8-1.9,3-2.8,5-2c0.9,0.4,1.6,1.1,2,2l15.8,31.5c2.3,4.4-4.5,7.9-6.5,3.5
			l-2.5-4.9h-20.7l-2.4,4.9C241,141,239,141.4,236.9,141z M261.1,126.7l-6.3-13.9l-6.9,13.9H261.1z"/>
		<path d="M279.1,105.5c0-1.9,1.6-3.5,3.5-3.4c1.8,0.1,3.3,1.6,3.3,3.4v28.1h15.3c5.5,0,5.6,7.4,0,7.4h-18.6
			c-1.9,0.1-3.5-1.4-3.5-3.2c0-0.1,0-0.1,0-0.2L279.1,105.5L279.1,105.5z"/>
		<g>
			<path class="st0" d="M835.6,154.3h2.5l-4,8.9c-4.7,2.7-9.9,4.1-15.8,4.1c-3.1,0-6.4-0.5-9.7-1.4s-6.8-2.4-10.3-4.5
				s-6.9-4.7-10.2-7.9l-38.3-36.3l-0.9,0.6v19c0,3.8,0.3,6.1,0.9,7c0.5,0.8,1.8,1.3,3.9,1.4l4.4,0.3v2.8c-4.8-0.2-9.3-0.3-13.5-0.3
				c-4.3,0-8.9,0.1-13.7,0.3v-2.8l4.4-0.3c2.1-0.1,3.4-0.6,3.9-1.4c0.6-0.9,0.9-3.2,0.9-7V95.3c0-3.8-0.3-6.1-0.9-7
				c-0.5-0.8-1.8-1.3-3.9-1.4l-4.4-0.3v-2.8c4.8,0.2,9.4,0.3,13.7,0.3c4.2,0,8.7-0.1,13.5-0.3v2.8l-4.4,0.3
				c-2.1,0.1-3.4,0.6-3.9,1.4c-0.6,0.9-0.9,3.2-0.9,7v19.8L774.7,90c1.8-1.8,2.7-3,2.7-3.6v-2.5c1.9,0.1,3.5,0.1,4.9,0.2
				s2.5,0.1,3.3,0.1c0.9,0,2,0,3.2-0.1s2.6-0.1,4.3-0.2v2.8l-3.9,0.2c-2.3,0.1-4.7,1.3-7.2,3.5l-24.6,22.2l33.1,34.2
				c2.9,3,6,5.5,9.4,7.5s6.8,3.5,10.3,4.5s6.8,1.5,10.1,1.5c3.4,0,6.4-0.5,9.2-1.6C832.1,157.7,834.2,156.2,835.6,154.3z"/>
			<path class="st0" d="M813.3,123l9.2-1.7c0-3.8-0.9-6.7-2.8-8.8c-1.9-2-4.8-3.1-8.8-3.1c-2,0-3.5,0.1-4.3,0.4
				c-0.9,0.3-1.6,0.8-2.2,1.6c-0.2,0.2-0.7,1.3-1.6,3.1l-1.2,2.8l-2.4-0.6v-6l4.9-3c3.5-2.1,7.1-3.2,10.8-3.2c3.9,0,6.9,0.6,9.1,1.8
				c2.2,1.2,3.7,3.1,4.6,5.8c0.9,2.6,1.4,6.3,1.4,10.9v17c0,1.7,0.1,3,0.3,4c0.2,0.8,0.9,1.3,2.3,1.4l3.6,0.2v2.8
				c-1-0.1-1.9-0.1-2.7-0.1s-1.4-0.1-2-0.1c-0.5,0-1.3,0-2.3,0c-1.1,0-1.9,0-2.4,0s-1.2,0.1-2,0.1s-1.7,0.1-2.8,0.1l0.5-7.9l-11.5,8
				c-0.7,0.5-2.2,0.8-4.3,0.8c-3.3,0-6-1-8.1-2.9s-3.2-4.7-3.2-8.3c0-3.3,0.8-5.9,2.5-8c1.7-2,3.8-3.5,6.3-4.5
				C806.8,124.5,809.8,123.7,813.3,123z M822.5,136.5v-12.2c-5.4,0.8-9.9,1.8-13.5,3.2c-1.6,0.6-2.9,1.8-3.9,3.5
				c-1.1,1.7-1.6,3.5-1.6,5.2c0,1.6,0.3,2.9,1,4s1.6,2,2.6,2.6c1.1,0.6,2.3,0.9,3.5,0.9c1.3,0,2.6-0.3,3.9-1c1.3-0.7,3-1.8,5-3.2
				C820.5,138.8,821.5,137.8,822.5,136.5z"/>
			<path class="st0" d="M870,149.9c-6.2,0-11.9-1.4-16.9-4.1c-5-2.8-8.9-6.7-11.8-11.8c-2.8-5.1-4.2-11-4.2-17.8
				c0-6.3,1.4-12,4.3-17.2c2.8-5.2,6.9-9.2,12.2-12.2s11.4-4.4,18.4-4.4c6.6,0,12.5,1.2,17.6,3.7c5.1,2.4,9.1,6,12,10.8
				c2.9,4.7,4.3,10.5,4.3,17.2c0,6.5-1.6,12.6-4.7,18c-3.2,5.5-7.5,9.8-13,13C882.7,148.3,876.6,149.9,870,149.9z M870.4,86.2
				c-4,0-7.4,0.7-10.4,2c-2.9,1.3-5.4,3.2-7.3,5.5c-1.9,2.4-3.4,5.2-4.3,8.3c-0.9,3.2-1.4,6.7-1.4,10.6c0,4.1,0.5,8.2,1.5,12.1
				c1,3.9,2.6,7.5,4.7,10.7c2.2,3.2,4.9,5.8,8.2,7.6c3.3,1.9,7.1,2.8,11.5,2.8c3.8,0,7.1-0.7,10-2.1c2.9-1.4,5.3-3.4,7.2-5.9
				s3.3-5.6,4.3-9.2c1-3.6,1.4-7.5,1.4-11.8c0-6.2-0.9-11.6-2.8-16.2c-1.9-4.6-4.7-8.2-8.6-10.7C880.7,87.5,876,86.2,870.4,86.2z"/>
		</g>
	</g>
</g>
</svg>
