<?xml version="1.0" encoding="utf-8"?>
<!-- Generator: Adobe Illustrator 25.4.1, SVG Export Plug-In . SVG Version: 6.00 Build 0)  -->
<svg version="1.1" id="Kendal" xmlns="http://www.w3.org/2000/svg" xmlns:xlink="http://www.w3.org/1999/xlink" x="0px" y="0px"
	 viewBox="0 0 949 1080" style="enable-background:new 0 0 949 1080;" xml:space="preserve">
<style type="text/css">
	.st0{fill:#FFFFFF;stroke:#FFFFFF;stroke-width:2;stroke-miterlimit:10;}
	.st1{fill:#FFFFFF;}
	.st2{fill:#5BB951;}
	.st3{fill:#003300;}
</style>
<path class="st0" d="M179.2,953.1c0-6.8,11.3-7.1,11.3,0v47.7c0,6.9-11.3,7.1-11.3,0V953.1z"/>
<path class="st0" d="M203.3,954c0-3,0.7-5.9,5.1-5.9c3.1,0,3.8,0.8,6.1,2.9l28.4,34.6v-32.4c0-2.8,2.5-5.8,5.4-5.8
	c3.1,0,6.1,3,6.1,5.8v47.1c0,3.7-2.3,5.1-4.5,5.8c-3,0-4.4-0.7-6.9-2.9l-28.4-35.1v32.3c0,3.7-2.3,5.8-5.4,5.8
	c-3.1,0.1-5.7-2.2-5.8-5.3c0-0.1,0-0.3,0-0.4V954z"/>
<path class="st0" d="M277.4,959v13.3h21.8c3.1,0,6.2,3,6.2,5.9c0,2.8-3.1,5-6.2,5h-21.8v17.6c0.1,2.8-2.1,5.1-4.8,5.2
	c-0.1,0-0.2,0-0.3,0c-3.8,0-6.1-2.3-6.1-5.2v-47.5c0-3,2.3-5.2,6.1-5.2h30.1c3.8,0,6,2.2,6,5.2c-0.1,3.2-2.8,5.8-6,5.7L277.4,959z"
	/>
<path class="st0" d="M347.9,1006.8c-15.9,0.7-32.3-9.6-32.3-30.1s16.4-30.7,32.3-30.7c15,0.8,30.7,10.9,30.7,30.7
	S362.9,1006.8,347.9,1006.8z M347,956.9c-9.6,0-20,6.6-20,19.8s10.4,19.8,20,19.8c9.9,0,20.4-6.7,20.4-19.8S356.9,956.9,347,956.9z"
	/>
<path class="st0" d="M400.4,1000.5c0,7.3-11.4,7.5-11.4,0.2v-47.5c0-2.8,2.2-5.1,5-5.1c0,0,0.1,0,0.1,0H417c21.8,0,26.2,28.4,8,35.5
	l11.4,13.5c4.5,6.4-4.5,12.6-9.6,6.3l-12.9-18h-13.4V1000.5z M400.4,975.8H417c11.1,0,11.8-17.5,0-17.5h-16.6V975.8z"/>
<path class="st0" d="M458.3,969.3v30.9c0,3.7-3.1,5.8-6.2,5.8c-2.7,0-5.1-2.1-5.1-5.8v-47.1c-0.1-3,2.2-5.5,5.1-5.8
	c2.5,0,3.9,1.4,5.4,3l18.9,24.8l19.5-25.8c2.8-3.4,9.8-2.1,9.8,3.7v47.1c0,3.7-2.4,5.8-5.1,5.8c-3.1,0-5.5-2.1-5.5-5.8v-30.9
	l-14.2,17.6c-3.1,3.7-6.9,3.7-9.8,0L458.3,969.3z"/>
<path class="st0" d="M516.4,1006c-2.7-1.5-4.5-4.5-2.7-8l24.6-46.9c2.3-4.4,8.5-4.6,10.6,0L573,998c3.5,6.5-6.8,11.7-9.9,5.2
	l-3.8-7.4h-31.6l-3.7,7.4C522.7,1006,519.5,1006.5,516.4,1006z M553.2,984.8l-9.7-20.7L533,984.7L553.2,984.8z"/>
<path class="st0" d="M589.5,958.6h-15c-3,0.2-5.5-2.1-5.7-5c-0.2-3,2.1-5.5,5-5.7c0.2,0,0.4,0,0.7,0H615c3-0.2,5.5,2.1,5.7,5
	c0.2,3-2.1,5.5-5,5.7c-0.2,0-0.4,0-0.7,0h-14.2v42.2c0,7.3-11.3,7.4-11.3,0V958.6z"/>
<path class="st0" d="M629.5,953.1c0-6.8,11.3-7.1,11.3,0v47.7c0,6.9-11.3,7.1-11.3,0V953.1z"/>
<path class="st0" d="M683.7,1006.8c-15.8,0.7-32.3-9.6-32.3-30.1s16.5-30.7,32.3-30.7c15,0.8,30.7,10.9,30.7,30.7
	S698.7,1006.8,683.7,1006.8z M682.7,956.9c-9.6,0-20,6.6-20,19.8s10.4,19.8,20,19.8c9.8,0,20.4-6.7,20.4-19.8
	S692.6,956.9,682.7,956.9z"/>
<path class="st0" d="M724.9,954c0-3,0.7-5.9,5.1-5.9c3.1,0,3.8,0.8,6.1,2.9l28.3,34.6v-32.4c0-2.8,2.5-5.8,5.4-5.8
	c3.1,0,6.1,3,6.1,5.8v47.1c0,3.7-2.3,5.1-4.5,5.8c-3,0-4.5-0.7-6.9-2.9l-28.3-35.1v32.3c0,3.7-2.3,5.8-5.4,5.8
	c-3.1,0.1-5.7-2.2-5.8-5.3c0-0.1,0-0.3,0-0.4L724.9,954z"/>
<g>
	<ellipse class="st1" cx="478.4" cy="451.1" rx="430.1" ry="432"/>
	<path class="st2" d="M474.5,0c-246.3,0-446,199.7-446,446s199.7,446,446,446s446-199.7,446-446l0,0C920.5,199.7,720.8,0,474.5,0z
		 M474.5,865.5C242.8,865.5,55,677.7,55,446S242.8,26.5,474.5,26.5C706.2,26.5,894,214.3,894,446S706.2,865.5,474.5,865.5
		C474.5,865.5,474.5,865.5,474.5,865.5L474.5,865.5z"/>
	<g>
		<path class="st3" d="M553.3,603.6h11L547,642.4c-20.3,11.8-43.2,17.7-68.7,17.7c-13.6,0-27.7-2-42.3-6
			c-14.6-4-29.5-10.5-44.7-19.4c-15.2-8.9-30-20.3-44.3-34.2l-166.9-158l-4.1,2.8v82.6c0,16.4,1.2,26.5,3.7,30.3
			c2.2,3.7,7.9,5.7,16.9,6.1l19.3,1.2v12c-20.9-0.8-40.4-1.2-58.5-1.2c-18.7,0-38.6,0.4-59.7,1.2v-12l19.3-1.2
			c9.1-0.4,14.7-2.4,16.9-6.1c2.5-3.8,3.7-13.9,3.7-30.3V347.1c0-16.4-1.2-26.5-3.7-30.3c-2.2-3.7-7.9-5.7-16.9-6.1l-19.3-1.2v-12
			c21,0.8,40.9,1.2,59.7,1.2c18.1,0,37.6-0.4,58.5-1.2v12l-19.3,1.2c-9.1,0.4-14.7,2.4-16.9,6.1c-2.5,3.8-3.7,13.9-3.7,30.3v86.2
			L288.3,324c7.7-8,11.6-13.2,11.6-15.7v-10.8c8.1,0.3,15.2,0.5,21.3,0.8c6,0.3,10.9,0.4,14.6,0.4c4.1,0,8.7-0.1,13.8-0.4
			c5.1-0.3,11.3-0.5,18.5-0.8v12l-16.9,0.8c-10.1,0.4-20.6,5.5-31.5,15.3l-107,96.8l144.2,149c12.6,13,26.3,23.8,41,32.6
			c14.8,8.7,29.7,15.2,44.9,19.5c15.2,4.3,29.7,6.4,43.8,6.4c14.7,0,28-2.3,39.8-6.9C538.1,618.3,547.2,611.9,553.3,603.6z"/>
		<path class="st3" d="M456.2,467.5l39.8-7.3c0-16.5-4.1-29.3-12.4-38.2c-8.2-8.9-21-13.4-38.3-13.4c-8.8,0-15,0.6-18.8,1.7
			c-3.7,1.1-6.9,3.4-9.5,6.8c-0.8,1.1-3.1,5.5-6.9,13.4l-5.1,12.4l-10.6-2.8V414l21.4-13c15.2-9.2,30.8-13.8,46.8-13.8
			c16.9,0,30.1,2.6,39.5,7.9c9.4,5.2,16.1,13.6,20.1,25.1c4,11.5,6,27.3,6,47.3v73.8c0,7.3,0.5,13.1,1.4,17.3
			c0.8,3.7,4.1,5.7,10,6.1l15.7,0.8v12c-4.5-0.3-8.4-0.5-11.8-0.6c-3.4-0.1-6.3-0.3-8.5-0.4c-2.2-0.1-5.6-0.2-10.1-0.2
			c-4.6,0-8.1,0.1-10.4,0.2c-2.3,0.1-5.2,0.3-8.6,0.4c-3.4,0.1-7.5,0.3-12.2,0.6l2.2-34.2l-49.9,34.6c-3.1,2.2-9.4,3.3-18.7,3.3
			c-14.3,0-26-4.2-35.2-12.7c-9.2-8.5-13.7-20.5-13.7-36.1c0-14.3,3.6-25.8,10.9-34.6c7.3-8.8,16.4-15.3,27.3-19.6
			C427.8,473.9,440.9,470.4,456.2,467.5z M496.1,526.3v-53.1c-23.7,3.3-43.3,7.9-58.7,14c-6.8,2.6-12.5,7.7-17.2,15.3
			c-4.6,7.6-7,15.2-7,22.6c0,6.8,1.5,12.7,4.4,17.6c2.9,4.9,6.8,8.7,11.5,11.4c4.7,2.7,9.8,4,15.3,4c5.6,0,11.3-1.5,17.1-4.5
			c5.8-3,13-7.7,21.6-14C487.7,536.3,492,531.8,496.1,526.3z"/>
		<path class="st3" d="M702.9,584.4c-27.2,0-51.7-6-73.5-18c-21.8-12-38.9-29.1-51.2-51.3c-12.3-22.2-18.4-48-18.4-77.5
			c0-27.3,6.2-52.2,18.5-74.7c12.3-22.5,30-40.2,53-53c23-12.9,49.7-19.3,80-19.3c28.9,0,54.4,5.3,76.7,15.9
			c22.3,10.6,39.7,26.3,52.1,46.9c12.5,20.7,18.7,45.6,18.7,74.9c0,28.5-6.9,54.6-20.6,78.5c-13.7,23.9-32.5,42.8-56.4,56.7
			C758.1,577.4,731.8,584.4,702.9,584.4z M704.9,307.5c-17.3,0-32.4,2.9-45.2,8.6c-12.8,5.7-23.4,13.7-31.8,24.1
			c-8.4,10.4-14.7,22.5-18.8,36.3c-4.1,13.8-6.2,29.3-6.2,46.3c0,18,2.2,35.5,6.6,52.6c4.4,17.1,11.3,32.7,20.7,46.7
			c9.4,14,21.3,25.1,35.7,33.2c14.4,8.1,31.1,12.1,50,12.1c16.4,0,30.9-3.1,43.6-9.2c12.7-6.2,23.1-14.8,31.4-25.9
			c8.3-11.1,14.5-24.4,18.7-39.8c4.2-15.5,6.3-32.7,6.3-51.6c0-27-4.1-50.5-12.2-70.5c-8.1-20-20.6-35.5-37.3-46.4
			C749.6,313,729.1,307.5,704.9,307.5z"/>
	</g>
</g>
</svg>
