<?xml version="1.0" encoding="utf-8"?>
<!-- Generator: Adobe Illustrator 25.4.1, SVG Export Plug-In . SVG Version: 6.00 Build 0)  -->
<svg version="1.1" id="Layer_1" xmlns="http://www.w3.org/2000/svg" xmlns:xlink="http://www.w3.org/1999/xlink" x="0px" y="0px"
	 viewBox="0 0 1080 215.8" style="enable-background:new 0 0 1080 215.8;" xml:space="preserve">
<style type="text/css">
	.st0{fill:#FFFFFF;}
	.st1{fill:#003300;}
	.st2{fill:#5BB951;}
</style>
<g id="Kendal">
	<rect y="141.6" class="st0" width="1080" height="23"/>
	<rect class="st1" width="1080" height="141.1"/>
	<circle class="st0" cx="952.9" cy="117.1" r="98.7"/>
	<ellipse class="st0" cx="953.9" cy="118" rx="82.9" ry="83.2"/>
	<ellipse class="st0" cx="953.2" cy="143.2" rx="40.8" ry="42.6"/>
	<path class="st0" d="M74.1,71.6L66.5,80v11.2c0,6.6-10.6,6.7-10.6,0V45.5c0-6.8,10.6-7,10.6,0v20.3L89.6,42c2.8-2.6,5.6-2,7.6,0
		c2,1.6,2.2,4.5,0.6,6.5c-0.2,0.2-0.4,0.4-0.6,0.6c-4.7,5.6-10.3,10.6-15.4,16.2l18.7,22.6c4.8,6.6-5.4,11.4-8.6,6.3L74.1,71.6z"/>
	<path class="st0" d="M114.2,96c-2.7,0.1-4.9-2.1-5-4.8c0-0.1,0-0.2,0-0.2V45.6c-0.1-2.7,2-4.9,4.7-5c0.1,0,0.2,0,0.3,0h28.7
		c7.4,0,7.2,10.4,0,10.4h-23v12H140c7.1,0,7.1,10.5,0,10.5h-20.2v12h24.4c7.3,0,7.8,10.5,0,10.5L114.2,96z"/>
	<path class="st0" d="M158.6,46.2c0-2.9,0.6-5.7,4.8-5.7c2.9,0,3.5,0.7,5.7,2.8l26.5,33.1v-31c0-2.6,2.3-5.5,5-5.5
		c3,0.2,5.4,2.5,5.7,5.5v45c0,3.5-2.2,4.9-4.2,5.5c-2.8,0-4.2-0.6-6.5-2.8L169,59.6v30.9c0,3.5-2.2,5.5-5,5.5
		c-2.9,0.1-5.3-2.2-5.4-5.1c0-0.1,0-0.3,0-0.4L158.6,46.2z"/>
	<path class="st0" d="M222.9,96c-2.6,0-5.5-1.4-5.5-5V45.6c0-2.9,2.9-5,5.5-5h18.3c36.6,0,35.8,55.4,0.7,55.4L222.9,96z M227.9,50.4
		v35.8h13.3c21.6,0,22.6-35.8,0-35.8L227.9,50.4z"/>
	<path class="st0" d="M276.6,96c-2.8-1.4-4-4.7-2.6-7.5c0-0.1,0-0.1,0.1-0.2l23-44.9c2.2-4.2,7.9-4.4,9.9,0l22.6,44.9
		c3.3,6.2-6.4,11.2-9.3,5l-3.5-7h-29.6l-3.4,7C282.5,96,279.5,96.6,276.6,96z M311,75.7L302,56l-9.8,19.8H311z"/>
	<path class="st0" d="M336.8,45.5c0.1-2.7,2.3-4.9,5-4.9c2.6,0.1,4.7,2.2,4.7,4.9v40.1h21.8c7.8,0,8,10.5,0,10.5h-26.4
		c-2.7,0.1-4.9-2-5-4.7c0-0.1,0-0.1,0-0.2L336.8,45.5z"/>
	<g>
		<ellipse class="st0" cx="953.9" cy="118" rx="82.9" ry="83.2"/>
		<path class="st2" d="M953.1,31.1c-47.5,0-85.9,38.5-85.9,85.9s38.5,85.9,85.9,85.9c47.5,0,85.9-38.5,85.9-85.9l0,0
			C1039.1,69.6,1000.6,31.1,953.1,31.1z M953.1,197.8c-44.6,0-80.8-36.2-80.8-80.8s36.2-80.8,80.8-80.8s80.8,36.2,80.8,80.8
			S997.7,197.8,953.1,197.8C953.1,197.8,953.1,197.8,953.1,197.8L953.1,197.8z"/>
		<g>
			<path class="st1" d="M968.3,147.4h2.1l-3.3,7.5c-3.9,2.3-8.3,3.4-13.2,3.4c-2.6,0-5.3-0.4-8.2-1.2c-2.8-0.8-5.7-2-8.6-3.7
				c-2.9-1.7-5.8-3.9-8.5-6.6l-32.2-30.4l-0.8,0.5v15.9c0,3.2,0.2,5.1,0.7,5.8c0.4,0.7,1.5,1.1,3.3,1.2l3.7,0.2v2.3
				c-4-0.2-7.8-0.2-11.3-0.2c-3.6,0-7.4,0.1-11.5,0.2V140l3.7-0.2c1.7-0.1,2.8-0.5,3.3-1.2c0.5-0.7,0.7-2.7,0.7-5.8V98
				c0-3.2-0.2-5.1-0.7-5.8c-0.4-0.7-1.5-1.1-3.3-1.2l-3.7-0.2v-2.3c4.1,0.2,7.9,0.2,11.5,0.2c3.5,0,7.3-0.1,11.3-0.2v2.3l-3.7,0.2
				c-1.7,0.1-2.8,0.5-3.3,1.2c-0.5,0.7-0.7,2.7-0.7,5.8v16.6l21.6-21c1.5-1.5,2.2-2.6,2.2-3v-2.1c1.6,0.1,2.9,0.1,4.1,0.2
				c1.2,0.1,2.1,0.1,2.8,0.1c0.8,0,1.7,0,2.7-0.1c1-0.1,2.2-0.1,3.6-0.2v2.3l-3.3,0.2c-1.9,0.1-4,1.1-6.1,3l-20.6,18.7l27.8,28.7
				c2.4,2.5,5.1,4.6,7.9,6.3c2.8,1.7,5.7,2.9,8.6,3.8c2.9,0.8,5.7,1.2,8.4,1.2c2.8,0,5.4-0.4,7.7-1.3
				C965.4,150.2,967.1,149,968.3,147.4z"/>
			<path class="st1" d="M949.6,121.2l7.7-1.4c0-3.2-0.8-5.6-2.4-7.4c-1.6-1.7-4-2.6-7.4-2.6c-1.7,0-2.9,0.1-3.6,0.3
				c-0.7,0.2-1.3,0.7-1.8,1.3c-0.2,0.2-0.6,1.1-1.3,2.6l-1,2.4l-2-0.5v-5l4.1-2.5c2.9-1.8,5.9-2.7,9-2.7c3.3,0,5.8,0.5,7.6,1.5
				c1.8,1,3.1,2.6,3.9,4.8c0.8,2.2,1.2,5.3,1.2,9.1v14.2c0,1.4,0.1,2.5,0.3,3.3c0.2,0.7,0.8,1.1,1.9,1.2l3,0.2v2.3
				c-0.9-0.1-1.6-0.1-2.3-0.1c-0.7,0-1.2-0.1-1.6-0.1c-0.4,0-1.1,0-1.9,0c-0.9,0-1.6,0-2,0c-0.4,0-1,0.1-1.7,0.1
				c-0.7,0-1.4,0.1-2.4,0.1l0.4-6.6l-9.6,6.7c-0.6,0.4-1.8,0.6-3.6,0.6c-2.8,0-5-0.8-6.8-2.4c-1.8-1.6-2.6-3.9-2.6-7
				c0-2.8,0.7-5,2.1-6.7c1.4-1.7,3.2-3,5.3-3.8C944.1,122.4,946.6,121.7,949.6,121.2z M957.3,132.5v-10.2c-4.6,0.6-8.3,1.5-11.3,2.7
				c-1.3,0.5-2.4,1.5-3.3,3c-0.9,1.5-1.3,2.9-1.3,4.4c0,1.3,0.3,2.4,0.9,3.4c0.6,0.9,1.3,1.7,2.2,2.2c0.9,0.5,1.9,0.8,3,0.8
				c1.1,0,2.2-0.3,3.3-0.9c1.1-0.6,2.5-1.5,4.2-2.7C955.7,134.4,956.5,133.6,957.3,132.5z"/>
			<path class="st1" d="M997.1,143.7c-5.2,0-10-1.2-14.2-3.5c-4.2-2.3-7.5-5.6-9.9-9.9c-2.4-4.3-3.5-9.3-3.5-14.9
				c0-5.3,1.2-10.1,3.6-14.4c2.4-4.3,5.8-7.7,10.2-10.2c4.4-2.5,9.6-3.7,15.4-3.7c5.6,0,10.5,1,14.8,3.1c4.3,2,7.6,5.1,10,9
				c2.4,4,3.6,8.8,3.6,14.4c0,5.5-1.3,10.5-4,15.1c-2.6,4.6-6.3,8.2-10.9,10.9C1007.8,142.3,1002.7,143.7,997.1,143.7z M997.5,90.3
				c-3.3,0-6.2,0.5-8.7,1.6c-2.5,1.1-4.5,2.6-6.1,4.6c-1.6,2-2.8,4.3-3.6,7c-0.8,2.7-1.2,5.6-1.2,8.9c0,3.5,0.4,6.8,1.3,10.1
				c0.8,3.3,2.2,6.3,4,9c1.8,2.7,4.1,4.8,6.9,6.4c2.8,1.6,6,2.3,9.6,2.3c3.2,0,6-0.6,8.4-1.8c2.4-1.2,4.5-2.8,6-5
				c1.6-2.1,2.8-4.7,3.6-7.7c0.8-3,1.2-6.3,1.2-9.9c0-5.2-0.8-9.7-2.4-13.6c-1.6-3.9-4-6.8-7.2-8.9
				C1006.1,91.4,1002.2,90.3,997.5,90.3z"/>
		</g>
	</g>
</g>
</svg>
