<svg id="Layer_2" data-name="Layer 2" xmlns="http://www.w3.org/2000/svg" viewBox="0 0 908.17 1013.95"><defs><style>.cls-1{fill:#39b54a;}.cls-2{fill:#fff;}.cls-3{fill:none;stroke:#000;stroke-miterlimit:10;stroke-width:13px;}</style></defs><path class="cls-1" d="M929.23,459c0,126.12-51.69,240.44-135,322.79a460.6,460.6,0,0,1-49.51,42.39A451.79,451.79,0,0,1,475.19,913C224.75,913,21.05,709.3,21.05,459S224.75,4.83,475.19,4.83,929.23,208.52,929.23,459Z" transform="translate(-21.05 -4.83)"/><rect class="cls-2" x="289.96" y="380.21" width="89.99" height="251.47"/><rect class="cls-2" x="414.09" y="249.82" width="93.12" height="381.77"/><rect class="cls-2" x="538.22" y="342.94" width="89.99" height="288.65"/><path class="cls-2" d="M794.24,781.75a460.6,460.6,0,0,1-49.51,42.39L626.16,695.75l-9-9.82L665,641.72l11.81,12.77Z" transform="translate(-21.05 -4.83)"/><path class="cls-2" d="M754.54,449.49C747.68,303,626.07,186.37,477,186.37c-149.23,0-271,117.1-277.53,263.9-.18,4.17-.35,8.25-.35,12.42a273.76,273.76,0,0,0,63.24,175.38A278.53,278.53,0,0,0,676.8,654.58c5.39-5.56,10.51-11.3,15.37-17.29A273.84,273.84,0,0,0,754.8,462.6C754.89,458.26,754.8,453.83,754.54,449.49Zm-64,136a247.39,247.39,0,0,1-423,6.51,242.23,242.23,0,0,1-37.26-129.34c0-4.17.08-8.25.34-12.42,6.52-129.52,114.58-232.8,246.44-232.8,131.69,0,239.49,102.94,246.44,232.1.17,4.35.34,8.78.34,13.21A241.8,241.8,0,0,1,690.52,585.52Z" transform="translate(-21.05 -4.83)"/><path class="cls-2" d="M279.91,450.27V592a242.32,242.32,0,0,1-37.26-129.34c0-4.17.08-8.25.35-12.42Z" transform="translate(-21.05 -4.83)"/><path class="cls-2" d="M708.33,462.6a243.33,243.33,0,0,1-33.27,122.92v-136h33C708.16,453.83,708.33,458.26,708.33,462.6Z" transform="translate(-21.05 -4.83)"/><path class="cls-3" d="M473.25,895.63A436.62,436.62,0,0,1,303.34,56.94,436.61,436.61,0,0,1,643.15,861.32,433.93,433.93,0,0,1,473.25,895.63Z" transform="translate(-21.05 -4.83)"/><path class="cls-2" d="M240.27,960.1a5.71,5.71,0,0,1,5.77-5.59,5.58,5.58,0,0,1,5.41,5.59V1006h24.94c9,0,9.16,12,0,12H246a5.54,5.54,0,0,1-5.77-5.59Z" transform="translate(-21.05 -4.83)"/><path class="cls-2" d="M293.25,960.1c0-7.52,12.1-7.79,12.1,0v52.35c0,7.6-12.1,7.79-12.1,0Z" transform="translate(-21.05 -4.83)"/><path class="cls-2" d="M339.64,1013.91l-24.2-50.69c-3.58-7.24,7.24-13.2,11.27-5.59l8.16,18.42,10.54,24.2,10.36-24.2,8.16-18.42c3.67-7,14.3-2.57,11.19,5l-23.38,51.24C349.63,1019.69,343.12,1021.06,339.64,1013.91Z" transform="translate(-21.05 -4.83)"/><path class="cls-2" d="M389.87,1018a5.6,5.6,0,0,1-5.68-5.69V960.28a5.54,5.54,0,0,1,5.68-5.68h32.91c8.44,0,8.25,11.92,0,11.92h-26.4v13.75h23.1c8.16,0,8.16,12,0,12h-23.1V1006h28c8.35,0,9,12,0,12Z" transform="translate(-21.05 -4.83)"/><path class="cls-2" d="M473.75,1018c-3,0-6.32-1.65-6.32-5.69V960.28c0-3.3,3.3-5.68,6.32-5.68h21c41.9,0,41,63.44.83,63.44Zm5.78-52.25v41.06h15.21c24.76,0,25.86-41.06,0-41.06Z" transform="translate(-21.05 -4.83)"/><path class="cls-2" d="M535.35,1018c-2.93-1.65-4.76-4.95-2.93-8.8l26.31-51.43c2.48-4.86,9.08-5,11.37,0L596,1009.24c3.76,7.15-7.33,12.83-10.63,5.68l-4-8.07H547.45l-3.94,8.07C542.05,1018,538.65,1018.68,535.35,1018Zm39.42-23.29-10.36-22.64-11.27,22.64Z" transform="translate(-21.05 -4.83)"/><path class="cls-2" d="M614.38,966.06h-16c-8,0-8-11.73,0-11.73h43.36a5.87,5.87,0,1,1,0,11.73H626.48v46.29c0,8-12.1,8.16-12.1,0Z" transform="translate(-21.05 -4.83)"/><path class="cls-2" d="M647.38,1018c-2.94-1.65-4.77-4.95-2.94-8.8l26.31-51.43c2.48-4.86,9.08-5,11.37,0L708,1009.24c3.76,7.15-7.33,12.83-10.63,5.68l-4-8.07H659.48l-4,8.07C654.07,1018,650.68,1018.68,647.38,1018Zm39.42-23.29-10.36-22.64-11.28,22.64Z" transform="translate(-21.05 -4.83)"/></svg>