<svg id="Missions" xmlns="http://www.w3.org/2000/svg" viewBox="0 0 949 1080"><defs><style>.cls-1{fill:#74bc72;}.cls-2{fill:#c8d4bb;}.cls-3{fill:#9ad494;}.cls-4{fill:#86c5b7;}.cls-5{fill:#133532;}.cls-6{fill:#436b61;}.cls-7{fill:#e77700;}.cls-8{fill:#5bba51;}.cls-9{fill:#e69500;}.cls-10{fill:#3c9663;}.cls-11{fill:#fff;}</style></defs><path class="cls-1" d="M57,544.47c.81,3.56,1.52,7.12,2.44,10.68,2.64,11.29,6,22.27,9.66,33.25,3,9.26,6.61,18.31,10.17,27.36.41,1.12.91,1.52,1.63,1.32A430.72,430.72,0,0,1,57,544.47ZM927.42,413.39a442.48,442.48,0,0,0-20.84-102.71,450.16,450.16,0,0,0-54.21-110.85c-23-34.27-50.54-64.47-81.25-91.83a332.43,332.43,0,0,0-26.44-21,449.53,449.53,0,0,0-87-50.24.75.75,0,0,1-1-.2h0a.5.5,0,0,1-.21-.41l-.3-.1h0c-1.83-.71-3.56-1.52-5.39-2.24a.48.48,0,0,1-.71,0h-.11l-.4-.4-.21-.11h0C646.55,32.14,643.6,31,641,29.9a1.15,1.15,0,0,1-.82,0h0c-.2-.1-.3-.31-.4-.41l-.41-.1h0a14.79,14.79,0,0,1-2.24-.81,1.12,1.12,0,0,1-.81,0c-.1,0-.21,0-.21-.1a1.61,1.61,0,0,1-.3-.41l-.31-.1a23.36,23.36,0,0,0-2.44-.92.66.66,0,0,1-.61,0h0a1.06,1.06,0,0,1-.61-.51l-.2-.1-5.49-2.13a4.71,4.71,0,0,1-1.63-.31,3.33,3.33,0,0,1-.91-.41,1.17,1.17,0,0,1-.51-.5H623c-2.55-.82-5.09-1.73-7.53-2.55h-.2a1.77,1.77,0,0,1-1,0,3.79,3.79,0,0,1-1.52-.91L607.5,18.1c-.1,0-.31.1-.41.1H607a.76.76,0,0,1-.71-.5h0c-1.12-.31-2.44-.72-3.56-1-.31.2-.51.2-.71,0a.52.52,0,0,1-.41-.2c-.1-.11-.1-.11-.1-.21h-.1c-.61-.2-1.32-.4-2-.61a.88.88,0,0,1-.71,0,.37.37,0,0,1-.3-.1,1.32,1.32,0,0,1-.31-.41h-.41a2,2,0,0,1-.71-.2c-.3.31-.51.31-.71.1h0c-.2-.1-.3-.3-.41-.41h-.1l-2-.5a.79.79,0,0,1-1-.11l-.3-.3h-.1a6.89,6.89,0,0,1-.72-.2c-.3.2-.4.3-.61.2s-.4-.31-.51-.51h-.1c-.3-.1-.51-.1-.81-.2-.31.3-.51.3-.71.1a.75.75,0,0,1-.41-.41,3,3,0,0,1-.91-.2,2.09,2.09,0,0,1-2.55-.71c-1.83-.41-3.56-.82-5.39-1.22-.61.51-.91.2-1.11-.31-1.84-.4-3.56-.81-5.39-1.22-.51.61-.82.31-1.12-.2l-1.43-.31c-.51.51-.81.21-1.12-.3-2-.41-4.16-.82-6.3-1.22-.51.51-.81.2-1.12-.31-.51-.1-.91-.1-1.42-.2-.51.61-.82.3-1.12-.2C558,6,556.45,5.8,555,5.49l-.21.1c-.4.31-.71.11-.91-.4h-2c-.3.4-.61.4-.81.1L550.75,5l-1.83-.3a.85.85,0,0,1-.5.3c-.11,0-.21-.1-.31-.1a1.38,1.38,0,0,1-.3-.4L546,4.17c-.51.51-.82.31-1.12-.2l-2.24-.31c-.51.61-.81.31-1.12-.2l-2.34-.31a.5.5,0,0,1-.4.21c-.11.1-.11.1-.21,0s-.3-.21-.51-.51h-.1l-2.34-.21c-.51.41-1,.51-1.32.21a.1.1,0,0,1-.1-.1c-.1-.11-.2-.21-.2-.31h0a16.79,16.79,0,0,1-2.24-.2c-.51.4-.82.4-1.12.2h-.1a1.32,1.32,0,0,1-.31-.41h0l-2.84-.3c-.31.3-.61.41-.82.1-.1,0-.1-.1-.2-.3h0c-1.12-.11-2.24-.31-3.36-.41-.3.3-.61.41-.81.3a.4.4,0,0,1-.31-.1.78.78,0,0,1-.4-.4L518.11.61c-.1,0-.2.1-.3.2a1.79,1.79,0,0,1-.72.21,1.39,1.39,0,0,1-.61-.21,1,1,0,0,1-.5-.4h-.11L512.11.1a1.28,1.28,0,0,1-1.73.21l-.3-.31c-1.63-.2-3.36-.3-5-.41C504,.2,503,.31,502-.61l-7.11-.2a5.2,5.2,0,0,1-1.12.4c-1.73.31-3.36-.4-5.19-.4h-.1c-2.64,0-5.39,0-8-.1h-1.63C474.38-1,470-1,465.54-.91c-1.94,0-3.87.2-5.8.3a4.48,4.48,0,0,1-2.85,0c-.1-.1-.2-.1-.3-.2h-.1c-2,.1-4,.1-6,0a.56.56,0,0,1-.41.2,2.14,2.14,0,0,1-2.44,0,.4.4,0,0,1-.31-.1l-4.88.3-.3.31h0a1.23,1.23,0,0,1-1.63,0l-.1-.1h-.1l-3.87.3c0,.1-.1.1-.2.21h0c-.61.5-1.12.4-1.83,0h0l-3.36.3-.3.31a.87.87,0,0,1-1.32,0h.2l-3.36.3c-.1.1-.1.2-.2.31a.87.87,0,0,1-1.32,0l-.31-.11c-.91.11-1.93.21-2.84.31-.11.1-.11.2-.21.3a.48.48,0,0,1-.71,0l-.1-.1-.1-.1c-.92.1-1.94.2-2.85.31-.1.1-.1.2-.2.3s0,.1-.11.1h0c-.1.21-.4.21-.61.1a.1.1,0,0,1-.1-.1l-.1-.1c-.71.1-1.52.2-2.24.31-.1.1-.2.2-.2.3h0a.79.79,0,0,1-1.12,0h0a.1.1,0,0,1-.1-.1,19.12,19.12,0,0,1-2.34.41l-.3.3a.45.45,0,0,1-.61.1l-.11-.1h0l-.1-.1c-.71.1-1.32.2-1.93.31-.1.1-.1.2-.2.3l-.1.1c-.21.21-.41.21-.72-.1h0c-.71.1-1.32.2-1.93.31a.35.35,0,0,1-.1.2h0c-.2.3-.51.41-.81,0h-.11c-1.62.3-3.25.51-4.88.81a.35.35,0,0,0-.1.21c-.2.4-.41.5-.81.1l-.1-.1-1.83.3a.34.34,0,0,0-.11.2.49.49,0,0,1-.71.21c-.1,0-.1-.1-.2-.1a.1.1,0,0,1-.1-.11c-2.24.41-4.58.92-6.82,1.33a.35.35,0,0,1-.1.2.63.63,0,0,1-.81.1l-.1-.1h-.1c-3.36.71-6.92,1.42-10.38,2.14,0,.1-.1.2-.2.3a.58.58,0,0,1-.71.2l-.1-.1s-.11,0-.11-.1c-1.11.31-2.23.51-3.35.81,0,.11-.1.11-.21.21a.48.48,0,0,1-.81.1l-.1-.1c-.31.1-.61.1-.92.2a.35.35,0,0,0-.1.2c-.2.31-.51.51-.81.21a.1.1,0,0,1-.1-.1c-.92.3-1.93.5-2.85.71a.31.31,0,0,1-.1.2.73.73,0,0,1-.92.51.1.1,0,0,1-.1-.1h-.1a13.61,13.61,0,0,0-2.24.51.1.1,0,0,1-.1.1c-.3.3-.51.61-.91.3l-.11-.1c-.3.1-.61.1-.91.2l-.1.11c-.21.3-.41.5-.82.3a.31.31,0,0,1-.2-.1,3,3,0,0,0-.92.2.35.35,0,0,0-.1.21.68.68,0,0,1-.81.3.8.8,0,0,1-.41-.1l-2.13.61a.1.1,0,0,1-.1.1.77.77,0,0,1-.92.41h0a.37.37,0,0,1-.3-.1l-2.14.61-.1.1c-.21.3-.51.51-.82.3l-.1-.1c-.81.21-1.62.51-2.44.71,0,0,0,.11-.1.11a.69.69,0,0,1-.81.4.39.39,0,0,1-.31-.1c-1.22.41-2.44.71-3.66,1.12l-.1.1a2.36,2.36,0,0,1-2.34.81h-.3c-5.19,1.43-10.17,3.16-15.16,5a.1.1,0,0,1-.1.1c-.2.41-.51.61-.91.41a.36.36,0,0,1-.31-.11c-1.42.51-2.74,1-4.17,1.53a.1.1,0,0,1-.1.1h0a2.42,2.42,0,0,1-2.24.92h-.3c-1.73.61-3.36,1.32-5.19,1.93h0a.72.72,0,0,1-.91.51h-.31c-.41.2-.81.3-1.22.51h0a.72.72,0,0,1-.91.5h-.31c-.41.11-.81.31-1.22.41,0,.1,0,.1-.1.2a.69.69,0,0,1-.81.41h-.31c-2.64,1.22-5.39,2.34-8.14,3.36,0,.1,0,.2-.1.2a.74.74,0,0,1-1,.41h-.11c-3.25,1.52-6.4,3-9.66,4.47a428.57,428.57,0,0,0-51.05,27.66c-20.13,12.92-39.45,26.75-57.15,43-13.93,12.91-27.76,25.83-40.27,40A485.55,485.55,0,0,0,97,205.63a461.55,461.55,0,0,0-47.79,95.28c-4.78,13.53-8.85,27.26-12.31,41.29A409.76,409.76,0,0,0,22.67,443.39a451,451,0,0,0,82.67,270.1,516.91,516.91,0,0,0,52.17,62.13,391.85,391.85,0,0,0,35.69,31.83,455.78,455.78,0,0,0,411.45,80.14,470.1,470.1,0,0,0,72-28.07,448.06,448.06,0,0,0,71.49-44,436.75,436.75,0,0,0,53.79-47.89c28.78-30.31,53.49-63.46,73.12-100.27,19.73-37,34.48-75.66,43.32-116.65A451.07,451.07,0,0,0,927.42,413.39ZM832.85,681.55a11.32,11.32,0,0,1-.81,1.53c-2.55,3.66-5,7.42-7.53,11-.1.1-.1.1-.2.1h0c-.1,0-.21.11-.41.11-.2-4.68-.2-4.68-4.78-4.38H696.38c-3.26,0-3.26,0-3.26,3.15v17.19c0,4.58-2.13,6.81-6.81,6.81H598.25c-3.67,0-3.16-.4-3.16,3.26,0,45.56,0,91.32.1,137a4.25,4.25,0,0,1-.1,1.12c-.2,1.63-1,2.44-3,2.85-2.23.5-4.47,1.22-6.71,1.83-1,.3-1.52,0-1.52-1.12v-2.24q0-83.44.1-167a6.78,6.78,0,0,0-2.24-5.49c-7.93-7.73-15.56-15.56-23.39-23.29a7.83,7.83,0,0,1-2.44-6c.1-25.22,0-50.64.1-75.86,0-2.24-.51-3.05-2.84-3-3.87.2-7.83.1-11.7,0-2-.1-2.54.51-2.54,2.44V630.3c0,4.58-3.36,7.32-7.43,6.1a8,8,0,0,1-2.84-1.93c-16-15.87-31.83-31.83-47.7-47.7-5.49-5.59-5.39-5.59-10.67.21-.92,1-1.83,2-2.85,3q-38.89,38.75-77.9,77.59c-6.71,6.71-13.42,13.42-20.23,20a5.6,5.6,0,0,0-1.94,4.58V862.47c-.1,1.12-.71.81-3.15.1-2.64-.71-6.2-.61-7.52-2.65a.71.71,0,0,1-.21-.4c-1.62-.41-3.25-.92-4.88-1.43-10.27-3.05-20.44-6.4-30.3-10.27-.41.41-1,.31-2.14-.3a12.29,12.29,0,0,0-2-.82c-1.73-.81-3.56-1.42-5.29-2.13a1.65,1.65,0,0,1-1.32-1.12c-1.53-.61-3.15-1.32-4.68-2A429.57,429.57,0,0,1,103.51,662.13c-2-3.36-4-6.92-5.79-10.37Q88.56,635,80.94,617.28A427.38,427.38,0,0,1,57,544.67c-.1-.3-.1-.61-.2-.91A421.47,421.47,0,0,1,46,447.25C46,211.22,236.53,19.63,472,18.51h2.24c236.64-.2,428.43,191.79,428.43,428.54A427,427,0,0,1,832.85,681.55ZM57,544.47c.81,3.56,1.52,7.12,2.44,10.68,2.64,11.29,6,22.27,9.66,33.25,3,9.26,6.61,18.31,10.17,27.36.41,1.12.91,1.52,1.63,1.32A430.72,430.72,0,0,1,57,544.47Z"/><path class="cls-1" d="M450.08-.61a2.32,2.32,0,0,1-3.05.2A3.25,3.25,0,0,1,450.08-.61Z"/><path class="cls-1" d="M504.69-.41a2.32,2.32,0,0,1-3.05-.2A3.23,3.23,0,0,1,504.69-.41Z"/><path class="cls-1" d="M318.9,26.54a2.9,2.9,0,0,1-2.75,1A3,3,0,0,1,318.9,26.54Z"/><path class="cls-1" d="M625.7,24A2.88,2.88,0,0,1,623,23,3.84,3.84,0,0,1,625.7,24Z"/><path class="cls-1" d="M615.23,20.54a2.82,2.82,0,0,1-2.75-.91A3.77,3.77,0,0,1,615.23,20.54Z"/><path class="cls-1" d="M342.29,18.61a2.86,2.86,0,0,1-2.75.92A3.36,3.36,0,0,1,342.29,18.61Z"/><path class="cls-1" d="M587.16,12.41c-1.12.51-1.83-.1-2.54-.71A3.24,3.24,0,0,1,587.16,12.41Z"/><path class="cls-1" d="M442.15-.1a1.33,1.33,0,0,1-1.93.3c-.11,0-.11-.1-.21-.1A1.59,1.59,0,0,1,442.15-.1Z"/><path class="cls-1" d="M511.7.1a1.29,1.29,0,0,1-1.83.1l-.2-.2A1.67,1.67,0,0,1,511.7.1Z"/><path class="cls-1" d="M436.25.31a1.32,1.32,0,0,1-1.83.4c-.1-.1-.2-.1-.31-.2A1.84,1.84,0,0,1,436.25.31Z"/><path class="cls-1" d="M517.6.61a1.54,1.54,0,0,1-2,0c-.1-.1-.1-.1-.1-.2A1.58,1.58,0,0,1,517.6.61Z"/><path class="cls-1" d="M430.76.92c-.51.61-1,.81-1.63.2a1.12,1.12,0,0,1,1.63-.2Z"/><path class="cls-1" d="M522.59,1c-.61.61-1.12.51-1.63-.21A1.39,1.39,0,0,1,522.59,1Z"/><path class="cls-1" d="M425.78,1.42a.94.94,0,0,1-1.33.41c-.1-.1-.2-.1-.2-.2.2-.51.91-.61,1.53-.21Z"/><path class="cls-1" d="M531.53,2c-.61.61-1.11.41-1.62-.2A1.39,1.39,0,0,1,531.53,2Z"/><path class="cls-1" d="M535.5,2.54c-.61.61-1.12.41-1.63-.2A1.39,1.39,0,0,1,535.5,2.54Z"/><path class="cls-1" d="M413.78,2.85a.9.9,0,0,1-1.22.51,1.32,1.32,0,0,1-.41-.31A1.39,1.39,0,0,1,413.78,2.85Z"/><path class="cls-1" d="M397.91,5.29c-.3.51-.61.81-1.12.2A1,1,0,0,1,397.91,5.29Z"/><path class="cls-1" d="M554.92,5.49c-.5.51-.81.31-1.11-.2A.83.83,0,0,1,554.92,5.49Z"/><path class="cls-1" d="M395,5.8c-.3.51-.61.81-1.12.2A.9.9,0,0,1,395,5.8Z"/><path class="cls-1" d="M560.31,6.51c-.5.51-.81.3-1.11-.2A.81.81,0,0,1,560.31,6.51Z"/><path class="cls-1" d="M562.86,6.92c-.51.61-.82.3-1.12-.31a.82.82,0,0,1,1.12.31Z"/><path class="cls-1" d="M387,7.32c-.3.51-.61.71-1.12.21C386.12,7.12,386.62,7.12,387,7.32Z"/><path class="cls-1" d="M570.28,8.54c-.51.51-.81.21-1.12-.3.31-.31.81-.21,1.12.3Z"/><path class="cls-1" d="M572.82,9.05c-.51.51-.81.21-1.12-.2A.81.81,0,0,1,572.82,9.05Z"/><path class="cls-1" d="M375.54,9.76c-.31.51-.61.82-1.12.31C374.83,9.66,375.13,9.56,375.54,9.76Z"/><path class="cls-1" d="M579.23,10.48c-.51.5-.81.2-1.12-.31A1,1,0,0,1,579.23,10.48Z"/><path class="cls-1" d="M551.87,5c-.51.61-.81.31-1.12-.2A.84.84,0,0,1,551.87,5Z"/><path class="cls-1" d="M369.13,11.09c-.2.5-.51.81-1.12.3A1.09,1.09,0,0,1,369.13,11.09Z"/><path class="cls-1" d="M548.92,4.58c-.5.61-.81.3-1.11-.21a.74.74,0,0,1,1.11.21Z"/><path class="cls-1" d="M365.17,12.1a.91.91,0,0,1-1,.61c-.1,0-.1-.1-.2-.1C364.05,12.2,364.66,12,365.17,12.1Z"/><path class="cls-1" d="M589.19,12.92c-.5.5-.81.1-1.11-.31a.81.81,0,0,1,1.11.31Z"/><path class="cls-1" d="M361.71,13.12c-.31.41-.51.81-1.12.3a.83.83,0,0,1,1.12-.3Z"/><path class="cls-1" d="M591.13,13.53c-.51.5-.82.1-1.12-.31C590.52,12.92,590.92,13,591.13,13.53Z"/><path class="cls-1" d="M359.68,13.63c-.31.4-.51.81-1.12.3A.92.92,0,0,1,359.68,13.63Z"/><path class="cls-1" d="M593.36,14a.85.85,0,0,1-1.22-.3.1.1,0,0,0-.1-.1A1.1,1.1,0,0,1,593.36,14Z"/><path class="cls-1" d="M357.74,14.24a1,1,0,0,1-1.22.51.1.1,0,0,1-.1-.11C356.73,14.14,357,13.83,357.74,14.24Z"/><path class="cls-1" d="M596.62,15c-.51.51-.82.1-1.12-.31C596,14.44,596.41,14.54,596.62,15Z"/><path class="cls-1" d="M354.18,15.15a.81.81,0,0,1-1.11.51c-.11,0-.11-.1-.21-.1C353.27,15.15,353.68,14.85,354.18,15.15Z"/><path class="cls-1" d="M598.86,15.56a.86.86,0,0,1-1.23-.2c0-.1-.1-.1-.1-.21C598.14,14.85,598.45,15.15,598.86,15.56Z"/><path class="cls-1" d="M350.73,16.17c-.31.41-.51.81-1.12.31C349.91,16.07,350.22,15.87,350.73,16.17Z"/><path class="cls-1" d="M602.31,16.58a.79.79,0,0,1-1.22-.31l-.1-.1A1.11,1.11,0,0,1,602.31,16.58Z"/><path class="cls-1" d="M347.27,17.19a.9.9,0,0,1-1.22.51.1.1,0,0,1-.1-.11,1,1,0,0,1,1.22-.5C347.17,17.19,347.17,17.19,347.27,17.19Z"/><path class="cls-1" d="M607.3,18.1a.82.82,0,0,1-1.22-.2.34.34,0,0,1-.11-.2.84.84,0,0,1,1.22.3A.1.1,0,0,1,607.3,18.1Z"/><path class="cls-1" d="M403.91,4.27c-.3.51-.61.82-1.12.21A.9.9,0,0,1,403.91,4.27Z"/><path class="cls-1" d="M546,4.07c-.51.51-.82.3-1.12-.2a.74.74,0,0,1,1.12.2C545.87,4,546,4,546,4.07Z"/><path class="cls-1" d="M406.86,3.87c-.3.5-.61.81-1.12.2C406.15,3.66,406.45,3.56,406.86,3.87Z"/><path class="cls-1" d="M324.39,24.61a1,1,0,0,1-1.32.51h0C323.47,24.61,323.78,24.31,324.39,24.61Z"/><path class="cls-1" d="M632.62,26.54c-.61.31-1,0-1.32-.51A1,1,0,0,1,632.62,26.54Z"/><path class="cls-1" d="M542.52,3.56c-.51.61-.82.31-1.12-.2C541.81,3.05,542.11,3.15,542.52,3.56Z"/><path class="cls-1" d="M636.58,28.07c-.61.3-1,0-1.32-.51C635.87,27.25,636.28,27.56,636.58,28.07Z"/><path class="cls-1" d="M640.55,29.49c-.61.31-1,0-1.32-.51A1,1,0,0,1,640.55,29.49Z"/><path class="cls-1" d="M311,29.49c-.3.51-.71.82-1.22.51C310.05,29.59,310.35,29.29,311,29.49Z"/><path class="cls-1" d="M308.52,30.51c-.3.51-.71.81-1.22.51A.9.9,0,0,1,308.52,30.51Z"/><path class="cls-1" d="M306,31.53c-.3.5-.71.81-1.22.5a.89.89,0,0,1,1.22-.5Z"/><path class="cls-1" d="M650.51,33.56a1,1,0,0,1-1.22-.41v-.1C649.8,32.75,650.21,33.05,650.51,33.56Z"/><path class="cls-1" d="M296.42,35.49a.83.83,0,0,1-1,.71c-.11,0-.21,0-.21-.1C295.61,35.49,295.91,35.29,296.42,35.49Z"/><path class="cls-1" d="M657.43,36.51a.86.86,0,0,1-1.12-.41c0-.1-.1-.1-.1-.2A1,1,0,0,1,657.43,36.51Z"/><path class="cls-1" d="M409.91,3.46c-.3.41-.61.71-1.12.1C409,3.15,409.5,3.15,409.91,3.46Z"/><path class="cls-1" d="M539,3.05c-.51.61-.82.31-1.12-.2a.76.76,0,0,1,1,0C538.86,3,539,3,539,3.05Z"/><path class="cls-1" d="M417.33,2.34c-.3.51-.61.71-1.11.2A.9.9,0,0,1,417.33,2.34Z"/><path class="cls-1" d="M421.3,1.93c-.3.41-.61.71-1.12.1C420.59,1.73,420.89,1.63,421.3,1.93Z"/><path class="cls-1" d="M527.06,1.53c-.41.4-.71.4-1-.11C526.45,1,526.76,1.12,527.06,1.53Z"/><path class="cls-1" d="M371.06,10.68c-.3.51-.61.81-1.11.2C370.15,10.58,370.66,10.58,371.06,10.68Z"/><path class="cls-1" d="M527.57,616.88c-2-1.12-3.05-2.75-4.27-4-14.14-14.14-28.37-28.27-42.51-42.51-3.56-3.56-6.41-3.56-10,0C455,586.16,439,602.23,423.33,617.89c-.61.61-1.32,1.22-2,1.83V379.32c0-6.2-1.63-7.73-7.83-7.73h-73c-2.24,0-2.95-.51-2.95-2.85.1-23.08.1-46.27,0-69.35a5,5,0,0,1,1.93-4.27q19.21-16.94,38.23-33.87c14.85-13.12,29.6-26.44,44.44-39.66,4.78-4.27,9.77-8.54,14.55-12.81,1.32-1.22,2.13-1.43,3.66-.1,11.9,10.67,23.79,21.25,35.79,31.83,15.87,14,31.83,28.06,47.59,42,4.58,4.06,9.06,8.23,13.73,12.2a6.3,6.3,0,0,1,2.34,5.29q-.15,120.66,0,241.42v23.9c0,1.83-.51,2.54-2.34,2.44-8.64-.61-10,2-9.76,9.86.2,12.1.1,24.1.1,36.21A10,10,0,0,0,527.57,616.88Z"/><path class="cls-1" d="M642.38,361.12v209c0,3.35,0,3.35-3.36,3.35H621.63c-4.06,0-6.1,1.93-6.4,6a14.54,14.54,0,0,0,0,2.95V702.71c0,2.33-.51,3.15-3,3-4.78-.21-9.66-.21-14.44,0-2.44.1-2.85-.82-2.75-3,.1-5,0-10,.1-14.85a7.55,7.55,0,0,0-2.33-5.69c-8-8-16.07-16-24.11-23.9a5.57,5.57,0,0,1-1.83-4.38V575.18c0-5.79-1.72-7.52-7.62-7.52-2.24,0-4.48-.11-6.71,0-1.43.1-1.94-.51-1.84-1.83a3.59,3.59,0,0,0,0-1.53V151.73c0-3.26,0-3.26,3.36-3.26,28.37,0,56.85,0,85.22-.1,2.44,0,2.95.71,2.95,3Q642.43,256.53,642.38,361.12Z"/><path class="cls-1" d="M388.25,652.57V635.38c0-3.86-.1-7.83,0-11.69a7.38,7.38,0,0,0-3.86-7.12q-23-14.19-46-28.47c-18.51-11.49-36.91-23-55.42-34.48a5.66,5.66,0,0,1-3.05-5.39q.15-81.15.1-162.5c0-3.16,0-3.16,3.25-3.16q61.93,0,124-.1c2.44,0,3,.71,3,3q-.17,121.28,0,242.75a5.72,5.72,0,0,1-1.94,4.57C401.67,639.35,395.17,645.86,388.25,652.57Z"/><path class="cls-2" d="M57,544.47c.81,3.56,1.52,7.12,2.44,10.68,2.64,11.29,6,22.27,9.66,33.25,3,9.26,6.61,18.31,10.17,27.36.41,1.12.91,1.52,1.63,1.32A430.72,430.72,0,0,1,57,544.47Zm0,0c.81,3.56,1.52,7.12,2.44,10.68,2.64,11.29,6,22.27,9.66,33.25,3,9.26,6.61,18.31,10.17,27.36.41,1.12.91,1.52,1.63,1.32A430.72,430.72,0,0,1,57,544.47Z"/><path class="cls-2" d="M865,685.21A461.06,461.06,0,0,1,802,767.48a437.65,437.65,0,0,1-53.8,47.9,448.78,448.78,0,0,1-71.49,44,460.09,460.09,0,0,1-72,28.17c-5,1.42-9.86,2.84-14.84,4.16V861.86c.81-.21,1.52-.41,2.34-.61,1.93-.41,2.74-1.12,2.94-2.85a3.88,3.88,0,0,0,.11-1.12c-.11-45.56-.11-91.32-.11-137,0-3.66-.5-3.26,3.16-3.26h88c4.68,0,6.81-2.23,6.81-6.81V693c0-3.15,0-3.15,3.26-3.15H819.22c4.58-.3,4.58-.3,4.78,4.38.1-.11.21-.11.41-.11h0c.1,0,.1-.1.2-.1,2-2.85,4.07-5.9,6-8.85Z"/><path class="cls-3" d="M450.08-.61a2.32,2.32,0,0,1-3.05.2A3.25,3.25,0,0,1,450.08-.61Z"/><path class="cls-3" d="M504.69-.41a2.32,2.32,0,0,1-3.05-.2A3.23,3.23,0,0,1,504.69-.41Z"/><path class="cls-3" d="M318.9,26.54a2.9,2.9,0,0,1-2.75,1A3,3,0,0,1,318.9,26.54Z"/><path class="cls-3" d="M625.7,24A2.88,2.88,0,0,1,623,23,3.84,3.84,0,0,1,625.7,24Z"/><path class="cls-3" d="M615.23,20.54a2.82,2.82,0,0,1-2.75-.91A3.77,3.77,0,0,1,615.23,20.54Z"/><path class="cls-3" d="M342.29,18.61a2.86,2.86,0,0,1-2.75.92A3.36,3.36,0,0,1,342.29,18.61Z"/><path class="cls-3" d="M587.16,12.41c-1.12.51-1.83-.1-2.54-.71A3.24,3.24,0,0,1,587.16,12.41Z"/><path class="cls-3" d="M442.15-.1a1.33,1.33,0,0,1-1.93.3c-.11,0-.11-.1-.21-.1A1.59,1.59,0,0,1,442.15-.1Z"/><path class="cls-3" d="M511.7.1a1.29,1.29,0,0,1-1.83.1l-.2-.2A1.67,1.67,0,0,1,511.7.1Z"/><path class="cls-3" d="M436.25.31a1.32,1.32,0,0,1-1.83.4c-.1-.1-.2-.1-.31-.2A1.84,1.84,0,0,1,436.25.31Z"/><path class="cls-3" d="M517.6.61a1.54,1.54,0,0,1-2,0c-.1-.1-.1-.1-.1-.2A1.58,1.58,0,0,1,517.6.61Z"/><path class="cls-3" d="M430.76.92c-.51.61-1,.81-1.63.2a1.12,1.12,0,0,1,1.63-.2Z"/><path class="cls-3" d="M522.59,1c-.61.61-1.12.51-1.63-.21A1.39,1.39,0,0,1,522.59,1Z"/><path class="cls-3" d="M425.78,1.42a.94.94,0,0,1-1.33.41c-.1-.1-.2-.1-.2-.2.2-.51.91-.61,1.53-.21Z"/><path class="cls-3" d="M531.53,2c-.61.61-1.11.41-1.62-.2A1.39,1.39,0,0,1,531.53,2Z"/><path class="cls-3" d="M535.5,2.54c-.61.61-1.12.41-1.63-.2A1.39,1.39,0,0,1,535.5,2.54Z"/><path class="cls-3" d="M413.78,2.85a.9.9,0,0,1-1.22.51,1.32,1.32,0,0,1-.41-.31A1.39,1.39,0,0,1,413.78,2.85Z"/><path class="cls-3" d="M397.91,5.29c-.3.51-.61.81-1.12.2A1,1,0,0,1,397.91,5.29Z"/><path class="cls-3" d="M554.92,5.49c-.5.51-.81.31-1.11-.2A.83.83,0,0,1,554.92,5.49Z"/><path class="cls-3" d="M395,5.8c-.3.51-.61.81-1.12.2A.9.9,0,0,1,395,5.8Z"/><path class="cls-3" d="M560.31,6.51c-.5.51-.81.3-1.11-.2A.81.81,0,0,1,560.31,6.51Z"/><path class="cls-3" d="M562.86,6.92c-.51.61-.82.3-1.12-.31a.82.82,0,0,1,1.12.31Z"/><path class="cls-3" d="M387,7.32c-.3.51-.61.71-1.12.21C386.12,7.12,386.62,7.12,387,7.32Z"/><path class="cls-3" d="M570.28,8.54c-.51.51-.81.21-1.12-.3.31-.31.81-.21,1.12.3Z"/><path class="cls-3" d="M572.82,9.05c-.51.51-.81.21-1.12-.2A.81.81,0,0,1,572.82,9.05Z"/><path class="cls-3" d="M375.54,9.76c-.31.51-.61.82-1.12.31C374.83,9.66,375.13,9.56,375.54,9.76Z"/><path class="cls-3" d="M579.23,10.48c-.51.5-.81.2-1.12-.31A1,1,0,0,1,579.23,10.48Z"/><path class="cls-3" d="M551.87,5c-.51.61-.81.31-1.12-.2A.84.84,0,0,1,551.87,5Z"/><path class="cls-3" d="M369.13,11.09c-.2.5-.51.81-1.12.3A1.09,1.09,0,0,1,369.13,11.09Z"/><path class="cls-3" d="M548.92,4.58c-.5.61-.81.3-1.11-.21a.74.74,0,0,1,1.11.21Z"/><path class="cls-3" d="M365.17,12.1a.91.91,0,0,1-1,.61c-.1,0-.1-.1-.2-.1C364.05,12.2,364.66,12,365.17,12.1Z"/><path class="cls-3" d="M589.19,12.92c-.5.5-.81.1-1.11-.31a.81.81,0,0,1,1.11.31Z"/><path class="cls-3" d="M361.71,13.12c-.31.41-.51.81-1.12.3a.83.83,0,0,1,1.12-.3Z"/><path class="cls-3" d="M591.13,13.53c-.51.5-.82.1-1.12-.31C590.52,12.92,590.92,13,591.13,13.53Z"/><path class="cls-3" d="M359.68,13.63c-.31.4-.51.81-1.12.3A.92.92,0,0,1,359.68,13.63Z"/><path class="cls-3" d="M593.36,14a.85.85,0,0,1-1.22-.3.1.1,0,0,0-.1-.1A1.1,1.1,0,0,1,593.36,14Z"/><path class="cls-3" d="M357.74,14.24a1,1,0,0,1-1.22.51.1.1,0,0,1-.1-.11C356.73,14.14,357,13.83,357.74,14.24Z"/><path class="cls-3" d="M596.62,15c-.51.51-.82.1-1.12-.31C596,14.44,596.41,14.54,596.62,15Z"/><path class="cls-3" d="M354.18,15.15a.81.81,0,0,1-1.11.51c-.11,0-.11-.1-.21-.1C353.27,15.15,353.68,14.85,354.18,15.15Z"/><path class="cls-3" d="M598.86,15.56a.86.86,0,0,1-1.23-.2c0-.1-.1-.1-.1-.21C598.14,14.85,598.45,15.15,598.86,15.56Z"/><path class="cls-3" d="M350.73,16.17c-.31.41-.51.81-1.12.31C349.91,16.07,350.22,15.87,350.73,16.17Z"/><path class="cls-3" d="M602.31,16.58a.79.79,0,0,1-1.22-.31l-.1-.1A1.11,1.11,0,0,1,602.31,16.58Z"/><path class="cls-3" d="M347.27,17.19a.9.9,0,0,1-1.22.51.1.1,0,0,1-.1-.11,1,1,0,0,1,1.22-.5C347.17,17.19,347.17,17.19,347.27,17.19Z"/><path class="cls-3" d="M607.3,18.1a.82.82,0,0,1-1.22-.2.34.34,0,0,1-.11-.2.84.84,0,0,1,1.22.3A.1.1,0,0,1,607.3,18.1Z"/><path class="cls-3" d="M403.91,4.27c-.3.51-.61.82-1.12.21A.9.9,0,0,1,403.91,4.27Z"/><path class="cls-3" d="M546,4.07c-.51.51-.82.3-1.12-.2a.74.74,0,0,1,1.12.2C545.87,4,546,4,546,4.07Z"/><path class="cls-3" d="M406.86,3.87c-.3.5-.61.81-1.12.2C406.15,3.66,406.45,3.56,406.86,3.87Z"/><path class="cls-3" d="M324.39,24.61a1,1,0,0,1-1.32.51h0C323.47,24.61,323.78,24.31,324.39,24.61Z"/><path class="cls-3" d="M632.62,26.54c-.61.31-1,0-1.32-.51A1,1,0,0,1,632.62,26.54Z"/><path class="cls-3" d="M542.52,3.56c-.51.61-.82.31-1.12-.2C541.81,3.05,542.11,3.15,542.52,3.56Z"/><path class="cls-3" d="M636.58,28.07c-.61.3-1,0-1.32-.51C635.87,27.25,636.28,27.56,636.58,28.07Z"/><path class="cls-3" d="M640.55,29.49c-.61.31-1,0-1.32-.51A1,1,0,0,1,640.55,29.49Z"/><path class="cls-3" d="M311,29.49c-.3.51-.71.82-1.22.51C310.05,29.59,310.35,29.29,311,29.49Z"/><path class="cls-3" d="M308.52,30.51c-.3.51-.71.81-1.22.51A.9.9,0,0,1,308.52,30.51Z"/><path class="cls-3" d="M306,31.53c-.3.5-.71.81-1.22.5a.89.89,0,0,1,1.22-.5Z"/><path class="cls-3" d="M650.51,33.56a1,1,0,0,1-1.22-.41v-.1C649.8,32.75,650.21,33.05,650.51,33.56Z"/><path class="cls-3" d="M296.42,35.49a.83.83,0,0,1-1,.71c-.11,0-.21,0-.21-.1C295.61,35.49,295.91,35.29,296.42,35.49Z"/><path class="cls-3" d="M657.43,36.51a.86.86,0,0,1-1.12-.41c0-.1-.1-.1-.1-.2A1,1,0,0,1,657.43,36.51Z"/><path class="cls-3" d="M409.91,3.46c-.3.41-.61.71-1.12.1C409,3.15,409.5,3.15,409.91,3.46Z"/><path class="cls-3" d="M539,3.05c-.51.61-.82.31-1.12-.2a.76.76,0,0,1,1,0C538.86,3,539,3,539,3.05Z"/><path class="cls-3" d="M417.33,2.34c-.3.51-.61.71-1.11.2A.9.9,0,0,1,417.33,2.34Z"/><path class="cls-3" d="M421.3,1.93c-.3.41-.61.71-1.12.1C420.59,1.73,420.89,1.63,421.3,1.93Z"/><path class="cls-3" d="M527.06,1.53c-.41.4-.71.4-1-.11C526.45,1,526.76,1.12,527.06,1.53Z"/><path class="cls-3" d="M371.06,10.68c-.3.51-.61.81-1.11.2C370.15,10.58,370.66,10.58,371.06,10.68Z"/><path class="cls-4" d="M527.57,616.88c-2-1.12-3.05-2.75-4.27-4-14.14-14.14-28.37-28.27-42.51-42.51-3.56-3.56-6.41-3.56-10,0C455,586.16,439,602.23,423.33,617.89c-.61.61-1.32,1.22-2,1.83V379.32c0-6.2-1.63-7.73-7.83-7.73h-73c-2.24,0-2.95-.51-2.95-2.85.1-23.08.1-46.27,0-69.35a5,5,0,0,1,1.93-4.27q19.21-16.94,38.23-33.87c14.85-13.12,29.6-26.44,44.44-39.66,4.78-4.27,9.77-8.54,14.55-12.81,1.32-1.22,2.13-1.43,3.66-.1,11.9,10.67,23.79,21.25,35.79,31.83,15.87,14,31.83,28.06,47.59,42,4.58,4.06,9.06,8.23,13.73,12.2a6.3,6.3,0,0,1,2.34,5.29q-.15,120.66,0,241.42v23.9c0,1.83-.51,2.54-2.34,2.44-8.64-.61-10,2-9.76,9.86.2,12.1.1,24.1.1,36.21A10,10,0,0,0,527.57,616.88Z"/><path class="cls-5" d="M642.38,361.12v209c0,3.35,0,3.35-3.36,3.35H621.63c-4.06,0-6.1,1.93-6.4,6a14.54,14.54,0,0,0,0,2.95V702.71c0,2.33-.51,3.15-3,3-4.78-.21-9.66-.21-14.44,0-2.44.1-2.85-.82-2.75-3,.1-5,0-10,.1-14.85a7.55,7.55,0,0,0-2.33-5.69c-8-8-16.07-16-24.11-23.9a5.57,5.57,0,0,1-1.83-4.38V575.18c0-5.79-1.72-7.52-7.62-7.52-2.24,0-4.48-.11-6.71,0-1.43.1-1.94-.51-1.84-1.83a3.59,3.59,0,0,0,0-1.53V151.73c0-3.26,0-3.26,3.36-3.26,28.37,0,56.85,0,85.22-.1,2.44,0,2.95.71,2.95,3Q642.43,256.53,642.38,361.12Z"/><path class="cls-6" d="M388.25,652.57V635.38c0-3.86-.1-7.83,0-11.69a7.38,7.38,0,0,0-3.86-7.12q-23-14.19-46-28.47c-18.51-11.49-36.91-23-55.42-34.48a5.66,5.66,0,0,1-3.05-5.39q.15-81.15.1-162.5c0-3.16,0-3.16,3.25-3.16q61.93,0,124-.1c2.44,0,3,.71,3,3q-.17,121.28,0,242.75a5.72,5.72,0,0,1-1.94,4.57C401.67,639.35,395.17,645.86,388.25,652.57Z"/><path class="cls-7" d="M372.28,627.66c-.1,11.49-.1,22.88,0,34.47a4.76,4.76,0,0,1-1.62,3.86c-5.29,5.19-10.48,10.58-15.87,15.67a8.91,8.91,0,0,0-3.05,7.42c.1,54.3,0,108.71.1,163a37.47,37.47,0,0,0-.1,5.8c-10.27-3-20.44-6.41-30.3-10.27-.41.41-1,.3-2.14-.31a12.27,12.27,0,0,0-2-.81V770.74c0-24.71,0-49.32.1-74a5,5,0,0,0-3.05-5.19,343.26,343.26,0,0,0-54.3-23.7,354.14,354.14,0,0,0-96.2-19.52,320.08,320.08,0,0,0-65.39,3.15.77.77,0,0,0-.51.1q-9.15-16.77-16.78-34.47a3.25,3.25,0,0,0,1-.51c1.62-1.12,3.35-2.13,5-3.15,14.75-9,29.49-17.9,44.34-26.95,21.05-12.92,42.3-25.22,62.84-38.75a7.32,7.32,0,0,0,3.77-6.71c-.11-24.61,0-49.12-.11-73.83a7,7,0,0,1,1-3.76c6.92-9.66,13.83-19.32,20.64-29.08,1.33-1.94,1.94-1.53,3.06.1,6.5,9.35,13.11,18.81,19.83,28.17a8.2,8.2,0,0,1,1.62,5.28c-.1,24.31,0,48.72-.1,73,0,2.75.71,4.78,3,6.31,7,4.47,13.93,9,21,13.42,14.54,9.05,29.19,18.2,43.83,27.25C331.51,600,350.93,612,370.45,624A3.81,3.81,0,0,1,372.28,627.66Z"/><path class="cls-8" d="M351.74,857.89a3.12,3.12,0,0,0,.31,1.42C340.15,856,328.35,852,317,847.52a2.09,2.09,0,0,0,.41-1.12,17.16,17.16,0,0,1,2,.81c1.12.61,1.84.61,2.14.31A294.87,294.87,0,0,0,351.74,857.89Z"/><path class="cls-9" d="M305.88,840.2v1.11A429.53,429.53,0,0,1,103.61,661.93h.72A302.8,302.8,0,0,1,143.88,659a313.07,313.07,0,0,1,81.76,10.47c26.75,7,52.68,16.17,77.29,28.88,2.14,1.12,3.05,2.24,3.05,4.88C305.88,748.87,305.78,794.43,305.88,840.2Z"/><path class="cls-10" d="M876.07,581.18c-8.34-.2-16.78-.1-25.12-.1-4.78,0-6.81-2-6.81-6.81V461.89c0-3.66,0-3.66-3.77-3.66-9.15,0-18.4.11-27.55,0-2.24-.1-3,.51-3,2.85V573.45a14.53,14.53,0,0,1-.21,3.66c-.61,2.55-2.95,3.87-6.2,3.87H748.24c-4.88,0-6.91-2-6.91-7V513.25c0-17.49,0-35,.1-52.47,0-2.24-.61-2.75-2.75-2.75-9.56.1-19,.2-28.57,0-2.44-.1-2.85.81-2.85,3q0,56.13.1,112.17c0,4.88-2,7.83-7.93,7.83-23.49-.21-46.88,0-70.37-.1-2.14,0-2.85.3-2.85,2.64q.15,58.13,0,115.93c0,2.24.61,2.75,2.75,2.75,16.67-.1,33.25-.1,49.93,0,2,0,2.64-.41,2.64-2.55-.1-6,0-12.1,0-18,0-4.37,2.14-6.5,6.61-6.5H837.32a3.59,3.59,0,0,1,1.53,0l.51.1c35-15.76,49.72-58.07,45.15-94.37C883.9,582.2,878,581.18,876.07,581.18Z"/><path class="cls-10" d="M474.28-2.13C224-2.13,21,201.05,21,451.62S224,905.38,474.28,905.38,927.52,702.2,927.52,451.62,724.65-2.13,474.28-2.13Zm0,880.46C238.86,878.33,48,687.25,48,451.62S238.86,24.81,474.28,24.81s426.4,191.09,426.4,426.81S709.8,878.33,474.28,878.33Z"/><path class="cls-11" d="M280,975.38v32.08a6.07,6.07,0,0,1-6.25,6c-2.75,0-5.19-2.12-5.19-6V958.55a5.8,5.8,0,0,1,5.19-6c2.54,0,4,1.49,5.5,3.18l19.06,25.83,19.79-26.78a5.6,5.6,0,0,1,9.85,3.81v48.91c0,3.81-2.44,6-5.19,6-3.17,0-5.5-2.12-5.5-6V975.38l-14.4,18.21c-3.18,3.81-7,3.81-9.84,0Z"/><path class="cls-11" d="M340.67,958.65c0-7.09,11.43-7.41,11.43,0v49.55c0,7.19-11.43,7.41-11.43,0Z"/><path class="cls-11" d="M364,966.49c2-16.83,27.42-19.9,39.38-10.69,5.93,4.76-.32,12.28-5.5,8.46-6.46-4.12-21-6-22.87,3.07-2.33,14.19,35.46,6,34.83,29.22-.64,22-32.61,22.55-44.57,12.7a6.33,6.33,0,0,1-1.16-8.46c2.22-2.23,4.76-3.07,7.72-.64,7.1,4.87,25.41,8.47,26.79-3.81C397.31,983.43,361.21,991.15,364,966.49Z"/><path class="cls-11" d="M418.69,966.49c2-16.83,27.42-19.9,39.38-10.69,5.93,4.76-.32,12.28-5.51,8.46-6.45-4.12-21-6-22.86,3.07-2.33,14.19,35.46,6,34.83,29.22-.64,22-32.61,22.55-44.57,12.7a6.33,6.33,0,0,1-1.16-8.46c2.22-2.23,4.76-3.07,7.72-.64,7.1,4.87,25.41,8.47,26.79-3.81C452.14,983.43,416,991.15,418.69,966.49Z"/><path class="cls-11" d="M475.11,958.65c0-7.09,11.44-7.41,11.44,0v49.55c0,7.19-11.44,7.41-11.44,0Z"/><path class="cls-11" d="M530,1014.34c-16.09.74-32.71-10-32.71-31.23s16.62-31.87,32.71-31.87c15.13.75,31.12,11.33,31.12,31.87S545.19,1014.34,530,1014.34Zm-1-51.77c-9.73,0-20.32,6.88-20.32,20.54s10.59,20.53,20.32,20.53c10,0,20.65-7,20.65-20.53S539.05,962.57,529,962.57Z"/><path class="cls-11" d="M571.76,959.5c0-3.17.74-6.14,5.19-6.14,3.17,0,3.81.74,6.14,3.07l28.69,35.89V958.65c0-2.85,2.54-6,5.5-6a6.59,6.59,0,0,1,6.14,6v48.91c0,3.81-2.33,5.29-4.55,6-3.07,0-4.55-.75-7-3.07l-28.69-36.42v33.56c0,3.81-2.32,6-5.5,6a5.69,5.69,0,0,1-5.93-6V959.5Z"/><path class="cls-11" d="M634.54,966.49c2-16.83,27.41-19.9,39.37-10.69,5.93,4.76-.31,12.28-5.5,8.46-6.46-4.12-21-6-22.87,3.07-2.32,14.19,35.47,6,34.83,29.22-.63,22-32.6,22.55-44.56,12.7a6.33,6.33,0,0,1-1.17-8.46c2.22-2.23,4.76-3.07,7.73-.64,7.09,4.87,25.4,8.47,26.78-3.81C667.88,983.43,631.78,991.15,634.54,966.49Z"/></svg>