<svg id="Layer_18" data-name="Layer 18" xmlns="http://www.w3.org/2000/svg" viewBox="0 0 1080 215.83"><defs><style>.cls-1,.cls-5{fill:#fff;}.cls-2,.cls-4{fill:#2e3192;}.cls-3{fill:#5bb951;}.cls-4,.cls-5{stroke:#2e3192;stroke-miterlimit:10;}</style></defs><rect class="cls-1" y="141.57" width="1080" height="23.04"/><rect class="cls-2" width="1080" height="141.12"/><circle class="cls-1" cx="952.93" cy="117.12" r="98.7"/><path class="cls-1" d="M951.38,93a23.38,23.38,0,1,0,23.38,23.37A23.37,23.37,0,0,0,951.38,93Zm.17,45.89a22.69,22.69,0,1,1,22.69-22.69A22.68,22.68,0,0,1,951.55,138.89Z" transform="translate(0.2 -0.25)"/><path class="cls-1" d="M83.57,97.71c-14.8.64-30.16-9.21-30.16-28.81S68.77,39.54,83.57,39.54c14,.72,28.64,10.4,28.64,29.36S97.57,97.71,83.57,97.71Zm-.88-47.77c-9,0-18.72,6.32-18.72,19s9.76,19,18.72,19c9.2,0,19-6.41,19-19S91.89,49.94,82.69,49.94Z" transform="translate(0.2 -0.25)"/><path class="cls-1" d="M126.77,96.91a4.77,4.77,0,0,1-4.88-5V46.5a4.73,4.73,0,0,1,4.88-5h22.48c10.48,0,16.16,7.12,16.16,15.28A12.69,12.69,0,0,1,161,66.9c6.32,2.48,9.12,7.36,9.12,13.29,0,9.2-6.24,16.72-18.24,16.72ZM149.25,51.3H132.37V63.22h16.88c3.44,0,5.6-2.16,5.6-6.4A5.59,5.59,0,0,0,149.25,51.3ZM132.37,87.15h19.52c9.28,0,9.28-14.17,0-14.17H132.37Z" transform="translate(0.2 -0.25)"/><path class="cls-1" d="M179.65,46.34a5.5,5.5,0,0,1,5.44-5.52h18.48c10.4,0,19.76,7,19.76,20.32,0,12.64-9.36,19.68-19.76,19.68H190.21V91.39c0,3.52-2.24,5.52-5.12,5.52a5.4,5.4,0,0,1-5.44-5.52Zm10.56,4.56V70.82h13.36a9.86,9.86,0,0,0,9.6-9.68c0-5.6-4.24-10.24-9.6-10.24Z" transform="translate(0.2 -0.25)"/><ellipse class="cls-1" cx="952.19" cy="116.76" rx="83.83" ry="84.2"/><path class="cls-3" d="M952.77,31.11a85.94,85.94,0,1,0,85.93,85.94A85.93,85.93,0,0,0,952.77,31.11Zm0,166.76a80.83,80.83,0,1,1,80.82-80.82A80.83,80.83,0,0,1,952.77,197.87Z" transform="translate(0.2 -0.25)"/><path class="cls-4" d="M1005.11,163l0,1h-30.2l.18-1.07a5.09,5.09,0,0,1,3.72-1.5c7.53-.24,15.06-.27,22.59,0A5.89,5.89,0,0,1,1005.11,163Z" transform="translate(0.2 -0.25)"/><path class="cls-4" d="M945.73,70.05V97.92c3.22-.13,5.7-2.72,9-2.83,10.09-.34,19.54,7.47,21.19,17.82,2.92,18.39-12.11,33.19-31.52,31-15.31-1.7-15.38-1.79-15.38-17,0-14.26,0-28.51,0-42.77,0-3.43-.2-6.38-4.56-6.61-1.29-.07-1.76-.74-1.77-2,0-1.94,1.27-2.07,2.74-2.35,5.37-1,10.94-1,16.1-3.14Z" transform="translate(0.2 -0.25)"/><path class="cls-4" d="M877.8,113.91c.58-2.37,2.82-10.16,10.23-15a23,23,0,0,1,8-3.27c9.8-2,20.31,1.51,25.32,9.37,5.72,9,5.76,18.47.53,27.67-4.57,8-15.27,12.43-24.67,11.2-10.78-1.42-17.35-7.77-19.42-17.41a30,30,0,0,1,0-12.54Z" transform="translate(0.2 -0.25)"/><path class="cls-4" d="M1005.11,163l-30.05,0c-.35-1.66-.46-3,1.89-3.31,3.54-.38,4.25-2.8,4.23-6q-.1-22.94,0-45.88c0-3.08-.88-5.1-4.19-5.32-1.44-.09-2.29-.54-2.17-2.16s1.29-1.74,2.52-2c4.74-1,9.51-1.84,14.18-3.09,4.07-1.08,7.28-1.53,6.12,4.31,1.46.52,2.12-.48,2.93-1,11.22-7,24.74-1,27.33,12.07,3.32,16.82-10.74,33.45-28,32.93-1.47,0-2.37-.13-2.35,1.59,0,3.65,0,7.3.15,10.94.12,2.77,2.46,3.17,4.48,3.45S1006.07,160.23,1005.11,163Z" transform="translate(0.2 -0.25)"/><path class="cls-5" d="M945.33,119.14c0-4.17.16-8.35-.05-12.51-.16-3.31,1.5-3.78,4.16-3.46,3.95.49,6.26,3.08,7.42,6.48a35.23,35.23,0,0,1,.12,23c-1.09,3.26-3.2,6.12-7.13,5.65s-4.32-4-4.41-7.18c-.12-4,0-8,0-12Z" transform="translate(0.2 -0.25)"/><path class="cls-5" d="M907.3,122.78c0,4.15.32,8.35-1.26,12.32-.72,1.83-1.78,3.5-4,3.63a4.17,4.17,0,0,1-4-2.79,45.91,45.91,0,0,1-2-32.38,4.07,4.07,0,0,1,3.72-3.19c2.44-.05,3.71,1.62,4.58,3.6C907,110,907.27,116.37,907.3,122.78Z" transform="translate(0.2 -0.25)"/><path class="cls-5" d="M997.58,120.06c0-3.47,0-6.94,0-10.41,0-1.83-.58-4,1.82-4.91a6.81,6.81,0,0,1,6.45.55,11.23,11.23,0,0,1,4.86,7.7,36.73,36.73,0,0,1-1,19.48c-1.06,3.07-2.86,5.68-6.83,4.8-3.6-.8-5.83-2.56-5.43-6.81C997.84,127,997.58,123.53,997.58,120.06Z" transform="translate(0.2 -0.25)"/></svg>