<svg id="OCS" xmlns="http://www.w3.org/2000/svg" viewBox="0 0 1080 215.83"><defs><style>.cls-1{fill:#fff;}.cls-2{fill:#5bb951;}.cls-3{fill:#fefefe;}.cls-4{fill:#828385;}.cls-5{fill:#373434;}.cls-6{fill:#818284;}.cls-7{fill:#858688;}.cls-8{fill:#848587;}</style></defs><rect class="cls-1" y="141.57" width="1080" height="23.04"/><rect width="1080" height="141.12"/><circle class="cls-1" cx="952.93" cy="117.12" r="98.7"/><ellipse class="cls-1" cx="952.99" cy="117.91" rx="83.83" ry="84.2"/><path class="cls-2" d="M953.24,31a85.94,85.94,0,1,0,85.93,85.94A85.94,85.94,0,0,0,953.24,31Zm0,166.76a80.83,80.83,0,1,1,80.82-80.82A80.82,80.82,0,0,1,953.24,197.72Z" transform="translate(-0.39 -0.14)"/><path d="M953.59,46.1c41.72,1.74,71.73,34,69.86,75-1.71,37.79-35,67.63-73.75,66.07-38.27-1.55-69.21-34.56-67.53-72.41C884,74.07,916.41,45.92,953.59,46.1Z" transform="translate(-0.39 -0.14)"/><path class="cls-3" d="M947.88,56.59a9.46,9.46,0,0,0,2.37-6.65c0-.9.58-1.91,1.55-1.88s1.46.94,1.51,1.95c.18,4.27,2.89,6.7,6,9.24,9.25,7.63,14,18.2,18.21,29.06.73,1.13.48,2.54-.66,2.63-5,.37-2.86,3.35-2.17,5.62,1.13,3.71,3.49,1.29,5.26.74a56.94,56.94,0,0,1,13.13-2c-2-4-4.82-4.76-8.41-3.78-2.19.6-4.43,1.12-4.81-2.24-4.21-12.59-10.05-24.18-20.62-33,22.8.8,44.55,14,54.4,40.2-5.17-.2-10.17-.08-14.32,3.33-.42.35-1.66-.25-2.5-.46a24.92,24.92,0,0,0-18,2.09c-4.1,2.17-7.79,1.89-11.93.93-12.45-2.9-12.42-2.83-12.48,10,0,6.9-.44,13.83,2.93,20.16a34.51,34.51,0,0,1,5.05-1.31c3.58-.41,4.56-1.43,1.32-4-3-2.33-.92-4.67.2-6.76,1.9-3.51,4.48-6.38,9-5.61,2.73.47,4.41,1.81,4.55,5.08.17,3.91,5.14,8.43-2.47,10.77,2.31,3,6.76,2.86,7.19,6.83.44.46.69,1.21,1.56,1a7.85,7.85,0,0,0-.35-.91c-1.43-8.06,1.91-12.77,8.39-11.83a7.59,7.59,0,0,1,1.08.14c3.43,1,9.93,11.89,8.25,14.9-2,3.51-.41,5.11,2.17,6.42,4.11,2.08,3.5,4.21,1.11,7.44-26.24,35.39-80.37,34.22-104.62-2.31-1.69-2.55-2.29-4.27,1.13-5.68,1.84-.76,3.4-2.17,5.23-3,4.28-1.84,7.48-3.84,7.14-9.63-.22-3.75,3.5-5.42,7.14-4.91,3.48.48,4,3.29,3.57,6.27-.25,1.78-.17,3.61-1.14,5.29s.42,2.22,1.61,2.79c2.33,1.13,1.74-1.11,2.09-2a7.63,7.63,0,0,0,.48-3.22c-.26-5.32,2-9.21,6.71-11.5,3.13-1.52,4-3.31,1.87-6.37-1.73-2.43-1.15-5.41-.63-7.94.63-3.11,3.42-3.92,6.44-3.74,4.63.27,4.44,4.16,5.21,7.14.34,1.3-.36,2.84-.36,4.27A2.69,2.69,0,0,0,949,123c2,0,1.12-1.93,1.15-3,.11-4.74-.13-9.5.1-14.23.2-3.92-.23-6.47-5.08-4.42a8.89,8.89,0,0,1-2.71.21c-1.13.47-1.38-.19-1.45-1.11.93-1.55,2.54-2,4.12-2.38a4,4,0,0,0,3.43-4.24c0-1.47.07-3.1-1.63-3.69a6.22,6.22,0,0,0-5.74.63c-1.21.82-1.77,2.3-3,3.15a1.46,1.46,0,0,1-1.9-.76c-.25-2-1.33-1.9-3-1.53-2.52.57-4.93,2.31-7.72,1.09a3.1,3.1,0,0,1-.31-3.11c4.81-10.53,9.28-21.27,17.76-29.59C944.5,58.61,945.87,57.15,947.88,56.59Z" transform="translate(-0.39 -0.14)"/><path class="cls-3" d="M910.58,101.3c-1.84,1.21-3.38.24-5.07-.51-3-1.33-5.93-3-9.32-2.57-4.39.54-3.74-1.69-2.61-4.34,8.58-20.25,24.36-31.82,45.15-37.26,2.24-.59,4.46-1.64,6.9-1,.56,1.48-.35,2.45-1.27,3.33-9.89,9.47-14.82,21.85-20.08,34.05-2.64,2.46-6,.78-8.94,1.58-2-.35-3.82-2.09-6.06-.9a64.79,64.79,0,0,0-7.22,2c2.44,1,4.56,1.66,6.59,2.58C909.81,98.93,911,99.63,910.58,101.3Z" transform="translate(-0.39 -0.14)"/><path class="cls-4" d="M979.84,89.28c.86,1.3,1.84,2,3.5,1.18,6.34-3,9.69.55,12.75,6.36-7.7-.49-14.68.59-21.39,4.45l-3.38-11.12c1.4-3,5.34,3.42,6.18-1.84l1.92,2.51Z" transform="translate(-0.39 -0.14)"/><path class="cls-3" d="M910.58,101.3l-2.1-2a3.68,3.68,0,0,1,1.68-4.57c3.14-2-1.23-1.33-.68-2.27,2.34-1.91,3.89-.55,5.32,1.28,1.14,1.89-.68,2.67-1.29,3.79a23.38,23.38,0,0,1,14.18.55c3.67,1.31,5.76.9,6.43-3.29a2.78,2.78,0,0,1,2.59-2.39l1,1.36c1.07,2.33-.91,6.28,3.6,6.78l1.19,1c-4.33,2.27-8.58,2.85-13.32.67C923.22,99.46,916.86,100.05,910.58,101.3Z" transform="translate(-0.39 -0.14)"/><path class="cls-5" d="M923.61,92.6c5-13.74,11.57-26.54,22-37,1-1,1.42-.79,2.25,1C937.47,66.72,930.64,79,926.09,92.69,924.32,94.47,924.28,94.46,923.61,92.6Z" transform="translate(-0.39 -0.14)"/><path d="M983.36,137.6c1.26.4,3.12.17,2.94,2.25a1.79,1.79,0,0,1-2,1.53c-2.1-.39-1.53-2.53-2.18-3.88Z" transform="translate(-0.39 -0.14)"/><path class="cls-6" d="M961.14,88.15c2.73.6,6.5-1.13,8.25,3,1.25,3,3.55,6.43,2,9.07-1,1.7-4.87-.29-7.44-.8a35.47,35.47,0,0,0-6.44-.93c-2.66,0-3.22-1.27-3.37-3.68C953.71,87.84,953.6,87.84,961.14,88.15Z" transform="translate(-0.39 -0.14)"/><path class="cls-4" d="M923.61,92.6c.76,1.75,1.64.34,2.48.09,2.93-.93,5.88-1.79,8.79-2.8,3.58-1.24,1.78,1.29,1.83,2.53-2.18,2.35-1,7.1-3.75,8-2.45.8-5.79-1.31-8.79-1.84a29.5,29.5,0,0,0-6.51-.3,56,56,0,0,0-6,.89c-.19-2.65,2.62-3.37,3.16-5.4C917.45,91.21,920.84,94.26,923.61,92.6Z" transform="translate(-0.39 -0.14)"/><path class="cls-4" d="M941.31,100.56c-5.87,1.18-5.87,1.18-3.6-6.78,1.19-2.54,1.75-5.37,5.67-5.53,6.22-.26,8.94,3.22,6.66,9.07-.57,1.47-1.7,1.64-2.95,1.9C945.15,99.62,943.24,100.11,941.31,100.56Z" transform="translate(-0.39 -0.14)"/><path class="cls-7" d="M1009.32,93.76c-10.27,3-10.27,3-14.85-3.66C999.92,88.93,1002.57,89.55,1009.32,93.76Z" transform="translate(-0.39 -0.14)"/><path class="cls-8" d="M909.48,92.48c.76.71,4.31-1,2,2.32l-3,4.52L898.31,96A28.35,28.35,0,0,1,909.48,92.48Z" transform="translate(-0.39 -0.14)"/><path d="M961,167.09l-.75-.7,3.49-2.8C964,166,962.32,166.44,961,167.09Z" transform="translate(-0.39 -0.14)"/><path d="M982.72,166.69c1.48-.52,3.1-1.08,3.18-2.91.08-2-1.65-2.79-3.14-3.45-2.71-1.19-5.54-2.09-8.22-3.31s-5.36-2.67-4.81-6.2,3.23-4.67,6.39-5.06c.79-.31.92.09.81.75-1.24.66-2.8,1.16-2.61,3,.15,1.46,1.48,2.12,2.66,2.62,2.72,1.14,5.55,2,8.24,3.25s5.85,2.55,5.59,6.45c-.19,2.89-2.89,4.87-7.26,5.6C982.82,167.7,982.64,167.35,982.72,166.69Z" transform="translate(-0.39 -0.14)"/><path d="M961,167.09c-6,2.66-12.76,1.66-16.45-2.42a10.5,10.5,0,0,1-1.39-12c2.19-4.27,7.57-7.15,12.43-6.88,2.68.15,5,1.81,8,1.34,1.07-.16.41,2.7.55,4.64a32.32,32.32,0,0,0-4.24-3.59,7.37,7.37,0,0,0-7.17-.26c-4.26,2-6,8.91-3.78,14.58,1.66,4.2,5.12,5.58,10.31,4.11.35-.1.69-.17,1-.26C960.88,166.16,961,166.52,961,167.09Z" transform="translate(-0.39 -0.14)"/><path d="M928,147.15c-4.2-.21-5.92.91-6.87,4.86a22.41,22.41,0,0,0,0,10.49c1,3.95,2.67,5.07,6.87,4.86h.11c.06,0,.17-.31.22-.28a1.88,1.88,0,0,1,.54.95A10.77,10.77,0,0,1,917,164a12.26,12.26,0,0,1,0-13.41,10.78,10.78,0,0,1,11.86-4.08,1.89,1.89,0,0,1-.55.94" transform="translate(-0.39 -0.14)"/><path d="M928,147.15l.87-.68c5.52,1,8.94,5.24,8.83,11s-3.42,9.64-8.83,10.61l-.87-.68h.11c.06,0,.17-.31.22-.28,5.3-4.34,5.3-15.35,0-19.68" transform="translate(-0.39 -0.14)"/><path d="M976.93,146.51l-.81-.75c3-.25,6-.66,9,.57,1.25.52,2.55.3,3.73-1.56v7.87C986,147.5,982,145.73,976.93,146.51Z" transform="translate(-0.39 -0.14)"/><path d="M976.81,167.34c-2.26.18-4.61-2-7,1.06v-9c1.85,4.32,4.4,6.38,7.84,7.33C977.69,167.34,977.53,167.71,976.81,167.34Z" transform="translate(-0.39 -0.14)"/><path d="M976.81,167.34l.84-.64a14.39,14.39,0,0,0,5.07,0l.83.69A8.41,8.41,0,0,1,976.81,167.34Z" transform="translate(-0.39 -0.14)"/><path d="M928.32,167.09l-.33.27" transform="translate(-0.39 -0.14)"/><path class="cls-1" d="M84.14,97.6C69.34,98.24,54,88.4,54,68.8S69.34,39.44,84.14,39.44c14,.72,28.64,10.4,28.64,29.36S98.14,97.6,84.14,97.6Zm-.88-47.76c-9,0-18.72,6.32-18.72,19s9.76,19,18.72,19c9.2,0,19-6.4,19-19S92.46,49.84,83.26,49.84Z" transform="translate(-0.39 -0.14)"/><path class="cls-1" d="M120.54,68.72c0-15.44,9.68-28.72,28.08-28.72,7,0,12.48,2.08,18.32,7.12a5.19,5.19,0,1,1-7.12,7.52c-3.28-3.44-6.64-4.4-11.2-4.4-12.32,0-18.24,8.72-18.24,18.48,0,9.92,5.84,19,18.24,19a18.63,18.63,0,0,0,12.48-5.12,5.39,5.39,0,0,1,7.36,1c1.28,1.76,1.92,4.72-.88,7.52-5.6,5.2-12.32,6.24-19,6.24C129.26,97.36,120.54,84.16,120.54,68.72Z" transform="translate(-0.39 -0.14)"/><path class="cls-1" d="M177.9,53.44c1.84-15.52,25.28-18.32,36.32-9.84,5.44,4.4-.32,11.36-5.12,7.84-5.92-3.76-19.36-5.52-21,2.8-2.16,13.12,32.64,5.6,32.08,26.88-.56,20.32-30,20.8-41,11.68A5.92,5.92,0,0,1,178,85c2.08-2.08,4.4-2.8,7.12-.56,6.56,4.48,23.44,7.84,24.64-3.52C208.7,69,175.42,76.16,177.9,53.44Z" transform="translate(-0.39 -0.14)"/></svg>