<svg id="Layer_17" data-name="Layer 17" xmlns="http://www.w3.org/2000/svg" viewBox="0 0 1080 215.83"><defs><style>.cls-1{fill:#fff;}.cls-2{fill:#bfd62d;}.cls-3{fill:#5bb951;}.cls-4{fill:#56585a;}.cls-5{fill:#c0d62d;}.cls-6{fill:#575859;}.cls-7{fill:#c0d630;}.cls-8{fill:#bfd62e;}.cls-9{fill:#565859;}.cls-10{fill:#c1d62d;}.cls-11{fill:#575858;}.cls-12{fill:#bfd72b;}.cls-13{fill:#c1d52d;}.cls-14{fill:#c0d62f;}.cls-15{fill:#bfd729;}.cls-16{fill:#c1d62e;}.cls-17{fill:#c1d52e;}.cls-18{fill:#c0d62e;}.cls-19{fill:#c1d434;}.cls-20{fill:#bfd62b;}.cls-21{fill:#c0d52f;}.cls-22{fill:#c0d72b;}.cls-23{fill:#c1d62b;}.cls-24{fill:#58575b;}.cls-25{fill:#565857;}.cls-26{fill:#57585b;}.cls-27{fill:#595957;}.cls-28{fill:#585a54;}.cls-29{fill:#585b56;}.cls-30{fill:#585958;}.cls-31{fill:#5a5a59;}.cls-32{fill:#5a5a5a;}.cls-33{fill:#5b5b5d;}.cls-34{fill:#5a5b52;}.cls-35{fill:#eef2bd;}.cls-36{fill:#fefefd;}.cls-37{fill:#fdfdfc;}.cls-38{fill:#fdfcfa;}.cls-39{fill:#fefefe;}.cls-40{fill:#c0d62a;}.cls-41{fill:#c0d729;}.cls-42{fill:#fdfdfd;}.cls-43{fill:#fbfbfa;}.cls-44{fill:#f8f9f9;}.cls-45{fill:#fbfaf4;}.cls-46{fill:#f5f6f3;}.cls-47{fill:#f8f8f6;}.cls-48{fill:#f8f8f2;}.cls-49{fill:#f3f2ee;}.cls-50{fill:#ecece6;}.cls-51{fill:#a0a1a7;}.cls-52{fill:#f1f6bc;}.cls-53{fill:#f7f7ee;}.cls-54{fill:#fefdfb;}.cls-55{fill:#fdfdf7;}.cls-56{fill:#595a54;}.cls-57{fill:#5b5b54;}.cls-58{fill:#e5eaac;}.cls-59{fill:#fdfbf5;}.cls-60{fill:#f7f7f0;}.cls-61{fill:#5f6052;}.cls-62{fill:#e1e3d2;}.cls-63{fill:#d9dbcd;}.cls-64{fill:#fcfcfc;}.cls-65{fill:#fdfdfb;}.cls-66{fill:#58575d;}.cls-67{fill:#fafaf3;}.cls-68{fill:#eceee1;}.cls-69{fill:#fdfdf9;}.cls-70{fill:#575959;}.cls-71{fill:#fafaf5;}.cls-72{fill:#fafafa;}.cls-73{fill:#f9f9f8;}.cls-74{fill:#f8f8f5;}.cls-75{fill:#fcfcf8;}.cls-76{fill:#fbfbf8;}.cls-77{fill:#57585a;}.cls-78{fill:#c1d62a;}.cls-79{fill:#fafbf4;}.cls-80{fill:#e8e7cf;}.cls-81{fill:#c0d530;}.cls-82{fill:#f5f6f5;}.cls-83{fill:#e8e8e3;}.cls-84{fill:#e4e5e7;}.cls-85{fill:#e7e8e3;}.cls-86{fill:#bfd62c;}.cls-87{fill:#e1ea8f;}.cls-88{fill:#59595c;}.cls-89{fill:#74746f;}</style></defs><rect class="cls-1" y="141.57" width="1080" height="23.04"/><rect class="cls-2" width="1080" height="141.12"/><circle class="cls-1" cx="952.93" cy="117.12" r="98.7"/><path class="cls-1" d="M951.31,93.73a23.38,23.38,0,1,0,23.37,23.38A23.38,23.38,0,0,0,951.31,93.73Zm.17,45.89a22.69,22.69,0,1,1,22.69-22.69A22.69,22.69,0,0,1,951.48,139.62Z" transform="translate(0.28 -0.98)"/><path class="cls-1" d="M83.5,98.44c-14.8.64-30.16-9.2-30.16-28.8S68.7,40.28,83.5,40.28c14,.72,28.64,10.4,28.64,29.36S97.5,98.44,83.5,98.44Zm-.88-47.76c-9,0-18.72,6.32-18.72,19s9.76,19,18.72,19c9.2,0,19-6.4,19-19S91.82,50.68,82.62,50.68Z" transform="translate(0.28 -0.98)"/><path class="cls-1" d="M126.78,97.64a4.88,4.88,0,0,1-5-5V47.24a4.84,4.84,0,0,1,5-5H155.5c7.36,0,7.2,10.4,0,10.4h-23v12h20.16c7.12,0,7.12,10.48,0,10.48H132.46v12h24.4c7.28,0,7.84,10.48,0,10.48Z" transform="translate(0.28 -0.98)"/><path class="cls-1" d="M169.1,69.56c0-15.44,9.68-28.72,28.08-28.72,7,0,12.48,2.08,18.32,7.12a5.19,5.19,0,1,1-7.12,7.52c-3.28-3.44-6.64-4.4-11.2-4.4-12.32,0-18.24,8.72-18.24,18.48,0,9.92,5.84,19,18.24,19a18.63,18.63,0,0,0,12.48-5.12,5.39,5.39,0,0,1,7.36,1c1.28,1.76,1.92,4.72-.88,7.52-5.6,5.2-12.32,6.24-19,6.24C177.82,98.2,169.1,85,169.1,69.56Z" transform="translate(0.28 -0.98)"/><path class="cls-1" d="M225.42,69.56c0-15.44,9.68-28.72,28.08-28.72,7,0,12.48,2.08,18.32,7.12a5.19,5.19,0,1,1-7.12,7.52c-3.28-3.44-6.64-4.4-11.2-4.4-12.32,0-18.24,8.72-18.24,18.48,0,9.92,5.84,19,18.24,19A18.63,18.63,0,0,0,266,83.48a5.39,5.39,0,0,1,7.36,1c1.28,1.76,1.92,4.72-.88,7.52-5.6,5.2-12.32,6.24-19,6.24C234.14,98.2,225.42,85,225.42,69.56Z" transform="translate(0.28 -0.98)"/><ellipse class="cls-1" cx="952.22" cy="117.63" rx="83.83" ry="84.2"/><path class="cls-3" d="M952.39,32.07A85.94,85.94,0,1,0,1038.33,118,85.93,85.93,0,0,0,952.39,32.07Zm0,166.76A80.83,80.83,0,1,1,1033.21,118,80.83,80.83,0,0,1,952.39,198.83Z" transform="translate(0.28 -0.98)"/><path class="cls-2" d="M956.41,63.54c0,.44.36.69.53,1.05a3.9,3.9,0,0,1,0,3.43,7.57,7.57,0,0,1-3.76,3.43.49.49,0,0,1-.67-.17,4.16,4.16,0,0,1-.51-4.19,7,7,0,0,1,3.62-3.31c.13-.06.28-.09.34-.24Z" transform="translate(0.28 -0.98)"/><path class="cls-4" d="M976.59,132.7a2.67,2.67,0,0,0-1.17,1.11c-.25.33-.48.68-.72,1s-.4.29-.64.34c-.86.2-.86.2-.7,1a1.25,1.25,0,0,1-.93.27,4.06,4.06,0,0,0-1.93,0,4.78,4.78,0,0,0-1.54-.7c-.17,0-.37,0-.47-.23.1-.46.53-.58.86-.76a3.42,3.42,0,0,0,2-2.06c-1,1-2.13,1.66-3.11,2.49a2.14,2.14,0,0,1-.52.32c-.61.18-1.26.22-1.87.44a4.78,4.78,0,0,0-1.67,1c-.35.32-.32.49.14.65a6,6,0,0,0,3.37.18c.17,0,.34-.16.52,0a2.81,2.81,0,0,1-3.08,1.21,2,2,0,0,0-2.18.51,16.27,16.27,0,0,1-1.26,1.23,1.17,1.17,0,0,0-.44,1,9.32,9.32,0,0,1-.62,3.83,13.09,13.09,0,0,0-.46,3.44c-.19,1.73.46,3.3.81,4.92a7.21,7.21,0,0,1,.19,2.18,10.87,10.87,0,0,0,.19,2.19,21.51,21.51,0,0,1,.1,3.31,2.64,2.64,0,0,0,.1.93,6.21,6.21,0,0,1,.36,1.71,1.44,1.44,0,0,0,.35.8c.27.38.67.68.75,1.2,0,.12.21.25.35.32a6.1,6.1,0,0,0,1.86.79,1.6,1.6,0,0,1,1,.6,5.64,5.64,0,0,0,4.26,2.14,4.4,4.4,0,0,1,2.84,1l1.64,1.42c-1.32-.18-2.49-.33-3.66-.5-2.37-.32-4.74-.54-7.12-.72-3.44-.27-6.89-.38-10.34-.38-3.78,0-7.56.12-11.33.43-1.61.13-3.22.24-4.82.48a.33.33,0,0,1-.43-.28c-.23-.81-.23-.8.57-1.1a5.33,5.33,0,0,1,2-.35,11.32,11.32,0,0,0,2.42-.5c.8-.18,1.58-.48,2.38-.65a4.79,4.79,0,0,0,2.93-2.32,11.32,11.32,0,0,0,1-3.17,23.74,23.74,0,0,0,.91-7.31c0-1.7.13-3.39.28-5.08a5,5,0,0,0-.73-3c-.08-.14-.18-.31-.32-.36-.71-.28-1-1-1.52-1.46a4.92,4.92,0,0,0-2.36-1.45,2.19,2.19,0,0,0-1-.09,7.92,7.92,0,0,1-2.69-.46c-.27-.05-.53-.15-.8-.22a.31.31,0,0,1,.25-.27,12.17,12.17,0,0,0,2.57-1.36,1,1,0,0,1,.3-.12,6.29,6.29,0,0,1,2.73-.14,15.78,15.78,0,0,0,3.07.11,8.27,8.27,0,0,0,1.39-.33c.29-.05.2-.26.13-.43a7.83,7.83,0,0,0-.79-1.52c-.42-.63-.74-1.31-1.12-2a.54.54,0,0,1-.1-.41,2.47,2.47,0,0,0,.87-2.31,4.35,4.35,0,0,0-1.72-3.43c-.45-.36-.58-.32-.75.24a4.12,4.12,0,0,0-.19,2.33c.06.2.16.43-.08.6a3.55,3.55,0,0,1-1.23-1.48.67.67,0,0,1,.05-.37c.25-.68.25-.68-.48-.69a2,2,0,0,1-.49,0,10.8,10.8,0,0,1-1.27-1.26.34.34,0,0,1-.1-.35.6.6,0,0,1,.65-.16,4.93,4.93,0,0,0,2-.16c.48-.1.54-.3.2-.68a5,5,0,0,0-3.44-1.65,8,8,0,0,0-2.29.14,2.11,2.11,0,0,1-.82-.72.92.92,0,0,1,0-.69,3.38,3.38,0,0,0-1.6-3.23c-.28-.15-.45-.08-.56.2a2.34,2.34,0,0,0-.13.7c0,.2,0,.41-.16.56L934.69,123c.4-.27.89-.13,1.32-.27.24-.08.59,0,.66-.31s-.25-.43-.44-.57a3.7,3.7,0,0,0-2.18-.81,6.17,6.17,0,0,0-2.6.31.38.38,0,0,1-.37,0l-.69-.17c.26-.32.67-.23,1-.39s.39-.14.26-.42,0-.36.2-.32a4.93,4.93,0,0,0,1.84-.22.3.3,0,0,1,.26,0,21.11,21.11,0,0,1,3.63,2.36c.65.56,1.27,1.15,2,1.77l.1-1.08c.25-.21.44-.06.6.13s.18.23.35.22a4.86,4.86,0,0,0,4.09-2.26c.33-.55.31-.57-.34-.65a.61.61,0,0,1-.26-.08,8.66,8.66,0,0,0-.47-.91c-.12-.21-.29-.44-.1-.7.19-.05.31.08.43.19a6.3,6.3,0,0,0,3.62,1.53c.5.07.56,0,.46-.55s-.5-.85-.59-1.35a2.34,2.34,0,0,1,.59-1.27,2,2,0,0,1,1.23,1.12,4.9,4.9,0,0,1-.4,1.13,1.16,1.16,0,0,0-.12.76,2.34,2.34,0,0,1,1-.95c.47-.22.6-.17.82.34a8.42,8.42,0,0,1-.29,1.48.54.54,0,0,1-.11.18c-.28.22-.08.3.1.39a.71.71,0,0,1,.11.25c.15.55.17,1.2.92,1.34a2.86,2.86,0,0,1-.07.83,4.8,4.8,0,0,1-.79,1.06,5.71,5.71,0,0,0-1.09,2.57c-.08.49-.28.75-.81.78a4.16,4.16,0,0,0-.92.13c-.21,0-.47,0-.52.32s.16.35.3.49a6.83,6.83,0,0,1,1.25,1.15c-.06.51-.1,1,.38,1.34,0-.34-.24-.72-.07-1.12,0-.06.13-.12.19-.08.6.41,1.36.26,2,.56a.72.72,0,0,1,.11.41,1.43,1.43,0,0,1-.33.91,3.29,3.29,0,0,0-.26.49c-.12.31-.07.5.31.5a1,1,0,0,1,.49.08c.39,1.11,1.33,1.88,1.75,3a3.6,3.6,0,0,0,.34.75,22,22,0,0,0,.51-2.64c0-.27,0-.56.29-.75,0,0,.08,0,.11,0a10.67,10.67,0,0,0,3.5.54c.46.34,0,.79.15,1.21.35-.42.53-.94.84-1.37a1.12,1.12,0,0,1,.2-.18c.21-.16.55-.15.65-.37s-.33-.36-.29-.65a42.66,42.66,0,0,0,.67-4.37c.14-.17.3-.11.42,0a11.24,11.24,0,0,1,1.17,1.12c.13.26-.1.68.16.8s.42-.33.71-.41a7.77,7.77,0,0,1,1.51.23c.27.2.09.4,0,.57a5.12,5.12,0,0,1-1.84,1.8,1.39,1.39,0,0,0-.63.66c-.54,1.09-1.15,2.15-1.69,3.24,1.33-1.36,3-2.25,4.36-3.64a9.74,9.74,0,0,0,1.32-1.69c.11-.17.18-.37.42-.4a1.68,1.68,0,0,1,.7.14,8.67,8.67,0,0,0,6.92-.62c.22-.12.42-.32.71-.19l-1.32,3.17c.25,0,.31-.22.43-.35a15.79,15.79,0,0,1,1.59-1.68,2.11,2.11,0,0,1,1.49-.61,1.44,1.44,0,0,0,.88-.41c.61-.44,1.21-.9,1.81-1.35.35,0,.49.14.5.46a3.31,3.31,0,0,1-.34,1.2,1.19,1.19,0,0,1-.76.26,11.14,11.14,0,0,0-2.14.52c-.32.12-.5.23-.17.55A.55.55,0,0,1,976.59,132.7Z" transform="translate(0.28 -0.98)"/><path class="cls-2" d="M995.68,121.54a9,9,0,0,1,3.4-.4,3.32,3.32,0,0,0,2.14-.48,11.1,11.1,0,0,1,6.1-.92,13.2,13.2,0,0,1,6.35,2.48c.29.21.34.3,0,.52a12.13,12.13,0,0,1-7.39,1.53,14.06,14.06,0,0,1-4.75-1.23.93.93,0,0,0-1.28.26,6.61,6.61,0,0,1-4.39,1.67,6.44,6.44,0,0,1-1.75-.09c-.13,0-.32-.1-.39.08s.11.22.18.31c.29.38.6.74.88,1.12s.17.4-.18.5a7.25,7.25,0,0,1-1.74.19,10,10,0,0,1-6.28-1.74,7.54,7.54,0,0,1-2.38-2.39,8.12,8.12,0,0,1,4.33-.4,9.22,9.22,0,0,1,3.93,1.53c.16.11.28.14.41-.06.29-.45.6-.89.91-1.34A3.61,3.61,0,0,1,995.68,121.54Z" transform="translate(0.28 -0.98)"/><path class="cls-2" d="M961.73,130l-1.42-1.24a.76.76,0,0,1-.32-.86c.07-.3.4-.26.64-.32a5.45,5.45,0,0,1,1.78.3A1.88,1.88,0,0,0,961.2,126a5.23,5.23,0,0,1-1.84-4.46c.2-.49.19-1.1.74-1.41a4.56,4.56,0,0,1,2.59,2.63c.06.13,0,.29.22.41.21-.21.4-.46.61-.68s.5-.24.8,0a3.71,3.71,0,0,1,0-1.9c.09-.3,0-.43-.32-.48a6.83,6.83,0,0,0-1.62-.25.5.5,0,0,1-.43-.21c-.33-.39-.76-.69-1.1-1.08-.14-.11-.24-.26-.37-.35a.17.17,0,0,0-.11.08c-.58,1-.82,1-1.63.18a.63.63,0,0,1-.12-.18c-.37-.54-.72-1.09-1.11-1.62-.19-.25-.41,0-.57.08-.79.47-.79.56-1.05-.42a4.19,4.19,0,0,1,.91-3.94,6.36,6.36,0,0,1,2.12-1.66c.4-.21.67,0,.78.51a5,5,0,0,1,0,2.35c-.07.26-.08.47.15.64s.45.46.58.77a4.81,4.81,0,0,1,.34,1.5c0,.33.17.47.48.44s.45-.19.53-.46a4.73,4.73,0,0,1,2.34-2.67c.49-.28.78-.16,1,.37a4,4,0,0,1-.25,3.46c-.17.31-.36.61,0,.94s.38.24.58,0a4.38,4.38,0,0,1,1.42-1.11c.27-.14.56-.18.72.13a.65.65,0,0,0,.91.33,1.69,1.69,0,0,1,.59-.09,1.88,1.88,0,0,1,.78.08c.3.29.17.61.05.92a4.49,4.49,0,0,1-1.71,2,3.58,3.58,0,0,0-.93.93,5,5,0,0,1-1.55,1.55.65.65,0,0,0-.35,1,4.91,4.91,0,0,1,.19,2.66,6.66,6.66,0,0,1-1,1.94c-.36.44.13.63.3.91a1.58,1.58,0,0,1,.09.36c.09.54-.14.7-.68.5a10.45,10.45,0,0,1-1.68-.23C962.27,130.29,961.93,130.25,961.73,130Z" transform="translate(0.28 -0.98)"/><path class="cls-2" d="M993.62,112.15c.13.33.44.43.71.59a3.11,3.11,0,0,1,1,1.07c.24.36.15.47-.27.62s-.57-.14-.85,0h0a8.07,8.07,0,0,1-4.16-.33c-.5-.14-1-.49-1.53-.33-.14,0-.21-.06-.24-.17a.86.86,0,0,0-.51-.54,5.89,5.89,0,0,1-1.64-1.29c-.23-.24-.42-.28-.6,0a2.55,2.55,0,0,0-.5.67,10.46,10.46,0,0,1-1.59,1.53,9.16,9.16,0,0,0-1.42.66,2.84,2.84,0,0,0-.42.09,3.16,3.16,0,0,0-.5.22c-.63.08-1.25.25-1.9.27s-1.09,0-.82-1.12a5,5,0,0,1,.27-.83,9.57,9.57,0,0,1,1.56-1.86,7.79,7.79,0,0,1,5.65-1.53.27.27,0,0,1,.17.26c0,.46.26.38.53.34s.21-.12.11-.26-.35-.42-.52-.64a6,6,0,0,1-.63-1.68c-.24-.06-.29.14-.39.26a7,7,0,0,1-3,2.07c-.41.15-.8.16-1-.33a4.93,4.93,0,0,1-.12-2.77,1.07,1.07,0,0,1,.38-.71,6.09,6.09,0,0,1,2.59-2.56,11.75,11.75,0,0,1,1.15-.5c.49-.18.69,0,.86.57,0,.14,0,.36.16.38s.27-.14.36-.29.18-.34.42-.18a6.86,6.86,0,0,1,2.28,2.33,4.81,4.81,0,0,1,.5,3.92c-.13.41,0,.5.38.57a10.14,10.14,0,0,1,2.33.78A2.56,2.56,0,0,1,993.62,112.15Z" transform="translate(0.28 -0.98)"/><path class="cls-2" d="M929.74,142.06c-.92.24-1.71.82-2.64,1.05A9.7,9.7,0,0,1,919,141.9c-.64-.43-.62-.54,0-1a8.88,8.88,0,0,1,4.47-1.66c.31,0,.4-.24.47-.46a6.24,6.24,0,0,1,3.94-4.11c.36-.14.73-.24,1.1-.36,0,0,0-.08,0-.09-.69-.61-.58-.61.2-1a7.85,7.85,0,0,1,5.55-.64c.27-.21.52-.05.77,0a10.83,10.83,0,0,1,2,1c.29.31.63.56.91.87s.34.63-.14.89a6.14,6.14,0,0,1-.7.3,6.85,6.85,0,0,1-1.95.46,8,8,0,0,1-4-.32c-.37-.11-.67-.36-1-.49s-.37-.05-.46.2a8.84,8.84,0,0,1-1.06,1.93c-.4.32-.73.71-1.12,1l-.24.18a5.87,5.87,0,0,1-1,.6c.7.23,1.25.49,1.82.71a4.33,4.33,0,0,1,1.49,1.08c.42.42.4.53-.12.83A.12.12,0,0,0,929.74,142.06Z" transform="translate(0.28 -0.98)"/><path class="cls-2" d="M927.5,98.76a10.06,10.06,0,0,1-4.26-.86c-.13-.07-.32-.07-.33-.24s.2-.31.34-.4a19.07,19.07,0,0,1,3.9-1.64c.88-.31,1.73.1,2.65-.27a6.32,6.32,0,0,1-1.68-1.66,4.59,4.59,0,0,1-.12-4.6c.1-.18.25-.39.53-.28a7.35,7.35,0,0,1,2.92,1.67,4.2,4.2,0,0,1,1.35,3c0,.34.14.4.43.38a6.86,6.86,0,0,1,2.8.41,4,4,0,0,1,2.23,1.9c.1.2.36.58-.18.67-.51.31-1.05.09-1.57.08a5.17,5.17,0,0,1-3.62-2.16c-.18.1-.17.29-.22.44-.21.61-.19.66.44.72.45,0,.56.38.71.68s-.08.39-.26.53c-.45.26-.9.53-1.37.75a2.4,2.4,0,0,0-.82.31,12.51,12.51,0,0,1-3.19.67A.82.82,0,0,1,927.5,98.76Z" transform="translate(0.28 -0.98)"/><path class="cls-2" d="M967.21,95.43A1.63,1.63,0,0,0,968.6,94a5.38,5.38,0,0,1,3.32-3.41,1.42,1.42,0,0,0,.92-1c.6-2,2.17-3,4-3.7a11,11,0,0,1,3.83-.6c.46,0,.59.17.47.61A5.24,5.24,0,0,1,978.62,89a10.48,10.48,0,0,1-5,1.4c-.71,0-.71,0-.49.67A4.83,4.83,0,0,1,972.8,95c-.08.15.07.37-.14.48-.21-.07-.23.13-.31.23a6.84,6.84,0,0,1-2.8,2c-.29.11-.55.12-.74-.16s-.44-.24-.68,0a5.45,5.45,0,0,1-1.84,1,4.19,4.19,0,0,1-1.27.23c-.59,0-.78-.15-.67-.73a2.18,2.18,0,0,1,1-1.53,1.15,1.15,0,0,0,.45-.3.78.78,0,0,1,.71-.3A.82.82,0,0,0,967.21,95.43Z" transform="translate(0.28 -0.98)"/><path class="cls-4" d="M960.17,120.21c-.47.29-.42.87-.68,1.27a3.51,3.51,0,0,1-.89,1.51,4.64,4.64,0,0,0-1,4.09c.16,1.34.6,2.62.75,4a3.18,3.18,0,0,1,0,1.47.45.45,0,0,1-.42,0,6.12,6.12,0,0,0-2.16-.32c-.18,0-.4,0-.5-.15s.06-.34.16-.49.37-.51.52-.78c.26-.45.17-.61-.36-.67a5.23,5.23,0,0,0-1.19.13c-.24,0-.48.11-.67-.11a8.38,8.38,0,0,1-.31-3,9.06,9.06,0,0,1,.08-1.47,7.48,7.48,0,0,0-.35-2.48,9.28,9.28,0,0,1-.31-1.57,4.07,4.07,0,0,1,.45-.94,4.15,4.15,0,0,0,.37-3.3c-.14-.49-.24-.51-.71-.32-.31.13-.53.48-.92.44a5.27,5.27,0,0,1-.64-1.62.33.33,0,0,1,0-.15c.64.15,1-.28,1.4-.66.15-.15.22-.39.49-.36a11.37,11.37,0,0,0,1.61,2.67,7.23,7.23,0,0,1,.66,1.23c.25.16.1.35,0,.54a3.19,3.19,0,0,0,.47,3.08c.33.47.39.46.76,0a3.25,3.25,0,0,0,.7-2.21c0-.21-.07-.45.19-.58l.8-1.14a2.07,2.07,0,0,1,.7.51c.35.28.57.22.74-.18l.33-.67.53.49A2.55,2.55,0,0,1,960.17,120.21Z" transform="translate(0.28 -0.98)"/><path class="cls-4" d="M979.27,115.13a14.79,14.79,0,0,1,1.89-.24c.28.19.35-.12.52-.21a.32.32,0,0,1,.3,0c.47.09.61.2.87.7a5,5,0,0,0,.53-1.38l1.61-1.49c.35-.09.27-.44.4-.67.34-.62.34-.63.86-.1a7,7,0,0,0,1.87,1.41c.24.12.45.25.26.64.42-.36.75-.12,1.11,0a11.7,11.7,0,0,0,4.73.68,3.64,3.64,0,0,1-1.23.65,2,2,0,0,0-1.1,1.32,2.58,2.58,0,0,1-1.7-.23c-.19-.2,0-.33.09-.47s.29-.27.41-.44a1.46,1.46,0,0,0-1.46.11,6.68,6.68,0,0,1-1,.72c-.74.11-1.48.18-2.22.31a.64.64,0,0,1-.57-.09,1,1,0,0,1-.05-.74,1.39,1.39,0,0,0-.18-1.08,4.59,4.59,0,0,1-.83,2.2,8.28,8.28,0,0,1-1.73,1c-.35.21-.6.61-1.05.63a.73.73,0,0,1-.25-.79,1.64,1.64,0,0,0-.13-1,27.55,27.55,0,0,1-.93,4.16,1.2,1.2,0,0,0,1.14-1c.07-.29,0-.64.3-.86a15.43,15.43,0,0,1,1.63.66q.74.3,1.5.54c.2.07.45.07.5.36a21.67,21.67,0,0,0-3.47,2.4,10.06,10.06,0,0,1-2.39-.1c-.53-.09-1.07-.22-1.6-.34-.17,0-.42,0-.46-.22s.16-.31.29-.43a4.79,4.79,0,0,0,.94-1.07,2.27,2.27,0,0,0,.23-.5c.1-.31.12-.55-.33-.53a.32.32,0,0,1-.31-.19,17.48,17.48,0,0,1,.78-4.05C979.12,115.28,979.15,115.17,979.27,115.13Z" transform="translate(0.28 -0.98)"/><path class="cls-5" d="M991,94.78a3.55,3.55,0,0,1-1.73,1.67A22.61,22.61,0,0,1,986.49,98c.59-.06,1.17-.06,1.76-.08.79,0,.87,0,.64.77a5.52,5.52,0,0,1-2.93,3.14,9.89,9.89,0,0,1-4.5,1c-.37,0-.53-.12-.43-.54a5.33,5.33,0,0,1,3.12-3.55c.08,0,.17,0,.25-.09s.22-.14.34-.22a17.16,17.16,0,0,1-3.2.08,10.72,10.72,0,0,1-3.33-.83c-.35-.12-.39-.25-.08-.5a8,8,0,0,1,4.35-1.77,16.34,16.34,0,0,1,3.28.08c.3,0,.4-.09.41-.36a1.68,1.68,0,0,1,.41-1l0,0c.15-.12,0-.46.32-.43s.21.33.3.51a1.29,1.29,0,0,0,.65.71,4.58,4.58,0,0,1,.9.69c.28.3.88,0,1-.47a1.33,1.33,0,0,1,.52-.81c.22-.17.47-.37.73-.16S991.13,94.55,991,94.78Z" transform="translate(0.28 -0.98)"/><path class="cls-2" d="M908.61,94.76c.14.42.47.68.61,1.06.64,1.78-.07,3.19-1.22,4.45-.57.63-.62.62-1.15,0a3.22,3.22,0,0,1-.58-3.14,5.58,5.58,0,0,1,1.68-2.5,15.52,15.52,0,0,1-2-.58.23.23,0,0,0-.25,0,6.56,6.56,0,0,1-3.54,1.29,6.65,6.65,0,0,1-3.71-.39,2.29,2.29,0,0,1-.82-.52,8.23,8.23,0,0,1,6.92-1,8.94,8.94,0,0,1-1.44-1.77c-.15-.27-.15-.41.2-.5a10.31,10.31,0,0,1,6.05.16,5.56,5.56,0,0,1,3,2.21c.08.12.15.25.22.38.21.42.05.58-.38.64a17.53,17.53,0,0,1-3.23.2Z" transform="translate(0.28 -0.98)"/><path class="cls-2" d="M953.34,76.4A6.9,6.9,0,0,1,952,80.68a14.69,14.69,0,0,1-3.56,3.52c-.27.2-.42.1-.59-.11a5.79,5.79,0,0,1-1-6.25,10.22,10.22,0,0,1,3.84-4.59l.14-.09c1-.66,1.22-.62,1.8.48A4.65,4.65,0,0,1,953.34,76.4Z" transform="translate(0.28 -0.98)"/><path class="cls-2" d="M940.37,96.49c0-.57-.61-.69-1-1a4.71,4.71,0,0,1-1.74-4.16,4,4,0,0,1,.31-1.16c.45-1,.58-1,1.57-.51a9.39,9.39,0,0,1,1.9,1.36,5.75,5.75,0,0,1-.27-2,5.2,5.2,0,0,1,1.89-3.4c.18-.16.35,0,.49,0a4.58,4.58,0,0,1,1.7,5.63,7.59,7.59,0,0,1-1.35,1.91.43.43,0,0,1-.73,0,4.92,4.92,0,0,0-.56-.48.19.19,0,0,0-.09.26,3.78,3.78,0,0,1-.36,3.13c0,.1-.13.19,0,.3-.28.51-.41.56-.91.35A3.22,3.22,0,0,0,940.37,96.49Z" transform="translate(0.28 -0.98)"/><path class="cls-2" d="M985.45,116.26c.63.16,1.23-.15,1.85-.16.36,0,.72-.07,1.08-.1a2.22,2.22,0,0,1,1.75.11l1.76.32,2.55.91a6.43,6.43,0,0,1,1.75.94c.14.11.43.24.12.49L994.22,120a8.6,8.6,0,0,1-3.85.9,2.14,2.14,0,0,0-.43-.07,15.85,15.85,0,0,1-4.39-.42s-.1,0-.15,0c-.92-.37-1.88-.63-2.77-1.08l-.88-.42a.38.38,0,0,1-.44-.31.28.28,0,0,1,.35-.29,10,10,0,0,1,2.36-1.43,1.54,1.54,0,0,0,.3-.22A7.59,7.59,0,0,1,985.45,116.26Z" transform="translate(0.28 -0.98)"/><path class="cls-4" d="M927.5,98.76a13,13,0,0,0,3.65-.65,1.72,1.72,0,0,1,.32,0c.37,0,.47.31.62.56s.07.36.21.42a1.44,1.44,0,0,1-.2-1.22,9.94,9.94,0,0,1,1.35-.76,3.8,3.8,0,0,1,.52,2,15.31,15.31,0,0,1-.12,1.91c0,.55-.38.93-.6,1.38-.13.25-.41.53-.21.79s.51.09.77.08.77-.24,1.18-.12a4.78,4.78,0,0,1,1.28,2.39,3.64,3.64,0,0,0,.93,1.83c.36.24.32.67.48,1s.25.7.75.58c0,0,.08.07.1.12a1.7,1.7,0,0,1,0,1.09.88.88,0,0,1-.66.2c-.53,0-1,.28-1.55.28-.58-1.23-1.55-1.26-2.67-.89a3.93,3.93,0,0,1-1.67.12.44.44,0,0,1-.35-.13,5.1,5.1,0,0,0-3-1.32.27.27,0,0,1-.23-.14c-.52-.33-1-.7-1.56-1a1.93,1.93,0,0,1-1-1.39,1.5,1.5,0,0,1,1.58,0,15.47,15.47,0,0,0,2.07,1.31c.08-1.1.78-1.89,1.18-2.94.22.92-.07,1.8.52,2.5-.46.54-.46.56.2,1a4.22,4.22,0,0,0,2,.7,6.26,6.26,0,0,0,2.72-.17c.13,0,.31,0,.34-.23s-.13-.25-.24-.34a4.81,4.81,0,0,0-1.17-.71c-.18-.08-.4-.12-.45-.36a2.88,2.88,0,0,0-1.17-2.27,6.45,6.45,0,0,0-2.14-1.51c0-.3.27-.31.46-.39a3.11,3.11,0,0,0,.61-.23,4.62,4.62,0,0,0-2.6-1.19,4.44,4.44,0,0,1-1.39-.26,5.93,5.93,0,0,1-.87-1.17A.71.71,0,0,1,927.5,98.76Z" transform="translate(0.28 -0.98)"/><path class="cls-5" d="M927.42,105.81a8.35,8.35,0,0,0-1.58,0,9.38,9.38,0,0,1-4.43-.82c-.35-.18-.41,0-.4.31a4.65,4.65,0,0,1-.4,2c-.14.33-.32.37-.62.27a5.69,5.69,0,0,1-3.81-3.35,4.37,4.37,0,0,1,.19-3.38c.09-.23.29-.26.51-.2a5.47,5.47,0,0,1,3.23,2.09c.27.39.51.42,1,.29a9.15,9.15,0,0,1,8.06,1.08c.26.18.7.4.58.78s-.55.36-.88.46S927.83,105.47,927.42,105.81Z" transform="translate(0.28 -0.98)"/><path class="cls-2" d="M910,121.76a6.35,6.35,0,0,1,4.22,1.3c.53.41.5.41-.06.76a7,7,0,0,1-2.24.84.72.72,0,0,0-.46.36c-.1.15-.17.32-.28.47-.48.63-.48.64.27.88a7.06,7.06,0,0,1,1.8.9c.38.26.27.45,0,.61a8.7,8.7,0,0,1-7,1,7.22,7.22,0,0,1-1.81-.88c-.2-.13-.2-.22,0-.36a7.34,7.34,0,0,1,2.28-1.16c.41-.12.76-.24.92-.67a1.42,1.42,0,0,1,.21-.33c.47-.61.47-.61-.26-.78a6.72,6.72,0,0,1-2.22-1c-.32-.22-.34-.38,0-.59A8.48,8.48,0,0,1,910,121.76Z" transform="translate(0.28 -0.98)"/><path class="cls-2" d="M1006,111.59c.67-.09,1.29-.39,1.94-.54s1.13-.13,1.68-.25c.32-.07.49.09.52.4a6.23,6.23,0,0,1-.4,3.13,7.75,7.75,0,0,1-4,3.82,18.19,18.19,0,0,1-3.38.92c-.26.06-.39,0-.44-.34a5.88,5.88,0,0,1,0-2.29c0-.15.1-.28,0-.41.09-.53.43-1,.52-1.49a12.69,12.69,0,0,0,1.13-1.39A8.08,8.08,0,0,1,1006,111.59Z" transform="translate(0.28 -0.98)"/><path class="cls-2" d="M926,85.54a15.65,15.65,0,0,1-3.82-.08,7.71,7.71,0,0,1-4.94-2.41c-.05-.06-.12-.1-.15-.16-.19-.29-.53-.58-.42-.91s.56-.24.87-.29a11.71,11.71,0,0,1,4.75.22,6.27,6.27,0,0,1,3.9,2.6c.26.41.44.38.75.07a6.83,6.83,0,0,1,2-1.27c.15-.08.29-.11.41.1a3.34,3.34,0,0,1,.1,3.16,6.41,6.41,0,0,1-3,2.86c-.34.19-.52.1-.71-.29A4.11,4.11,0,0,1,926,85.54Z" transform="translate(0.28 -0.98)"/><path class="cls-2" d="M976.59,132.7a2.86,2.86,0,0,0-.28-.4c-.47-.57-.46-.57.2-.83a13.55,13.55,0,0,1,2.94-.64,11.49,11.49,0,0,1,5.54,1.32,9.63,9.63,0,0,1,3.39,3.11c.27.39.08.51-.24.6a9.26,9.26,0,0,1-1.27.27,11.74,11.74,0,0,1-7.14-1.11,9.44,9.44,0,0,1-2.83-2.11A.56.56,0,0,0,976.59,132.7Z" transform="translate(0.28 -0.98)"/><path class="cls-2" d="M894.35,104.08a5.78,5.78,0,0,1,2.11,2.23c.07.12.11.24.18.35.33.58.28.85-.34,1.09a3.6,3.6,0,0,1-4.16-.94,8,8,0,0,1-1.1-1.62c-.33-.58-.26-.8.34-1.06a2.46,2.46,0,0,0,.84-.37,9.9,9.9,0,0,1-1.78-.81c-.57-.36-.57-.39,0-.7a11.29,11.29,0,0,1,7.33-1.26,7.21,7.21,0,0,1,3.14,1.35c.23.17.2.27-.08.4a12.84,12.84,0,0,1-6.05,1.34C894.63,104.07,894.49,104.08,894.35,104.08Z" transform="translate(0.28 -0.98)"/><path class="cls-2" d="M902.33,127.52a9.52,9.52,0,0,1-5.7-1.56,6.68,6.68,0,0,1-2.81-3.83c-.08-.26,0-.5.28-.54,2.72-.33,5.34-.16,7.63,1.57A6.37,6.37,0,0,1,904.2,127c.1.44-.08.52-.44.52Z" transform="translate(0.28 -0.98)"/><path class="cls-2" d="M995.08,100.7a8.1,8.1,0,0,1,2.6-1.2c.34-.08.5,0,.62.32a4.63,4.63,0,0,1-2.27,5.52,6.16,6.16,0,0,1-1.79.81l0,0a3.58,3.58,0,0,0-2.16.73.34.34,0,0,1-.51-.15,4.76,4.76,0,0,1,.77-6.1A8.39,8.39,0,0,1,994,99.53c.29-.14.4,0,.52.18S994.89,100.35,995.08,100.7Z" transform="translate(0.28 -0.98)"/><path class="cls-2" d="M901.43,134.4a8.92,8.92,0,0,1-4.32-.9c-.57-.26-.56-.35-.07-.76a11.78,11.78,0,0,1,5.75-2.73,9.65,9.65,0,0,1,5.39.47,8.63,8.63,0,0,1,1.36.68c.28.19.22.35,0,.51a13,13,0,0,1-4.46,2.27A11.26,11.26,0,0,1,901.43,134.4Z" transform="translate(0.28 -0.98)"/><path class="cls-2" d="M943.42,142.34a15.81,15.81,0,0,1-3.1,1.63c-.68.23-1.51.08-2.06.74-.07-.09-.17-.27-.24-.26-.93.11-.55-.53-.56-.95a2.36,2.36,0,0,1,0-.38,8.29,8.29,0,0,1,1.13-2.71,11.9,11.9,0,0,1,2.58-2.38,8.84,8.84,0,0,1,5.1-1.46c.55,0,.68.2.58.75a6.53,6.53,0,0,1-.93,2.23A7.36,7.36,0,0,1,943.42,142.34Z" transform="translate(0.28 -0.98)"/><path class="cls-2" d="M905.38,140.77a8.23,8.23,0,0,1,2.1-5.41,11.12,11.12,0,0,1,5.27-3.35c.31-.11.43,0,.43.32a8.73,8.73,0,0,1-1.16,4.24,10.88,10.88,0,0,1-3.91,4.06,15.82,15.82,0,0,1-2.1,1.05c-.54.21-.63.14-.63-.46Z" transform="translate(0.28 -0.98)"/><path class="cls-2" d="M920.91,132.25a7.74,7.74,0,0,1,2.9-5.41c.08-.07.14-.16.22-.24.26-.27.56-.31.77,0a7.05,7.05,0,0,1,1.1,4.61,8.81,8.81,0,0,1-1.92,4.57,7.07,7.07,0,0,1-1.32,1.3c-.18.14-.28.15-.42-.07A7.94,7.94,0,0,1,920.91,132.25Z" transform="translate(0.28 -0.98)"/><path class="cls-2" d="M960.29,101.83c-.31-.23-.7-.17-1-.26s-.24.2-.27.32c-.39,2-1.78,3.06-3.39,4-.43.24-.55.06-.68-.26a4,4,0,0,1,.64-4.19,1,1,0,0,0,.2-1.31c-.81-1.63-.1-3,1.2-4,.23-.17.39-.06.56.13a3,3,0,0,1,.57,2.82c-.05.2-.16.43.21.37s.39.24.48.43.28.32.53.22a3.78,3.78,0,0,1,1.29-.24,3.44,3.44,0,0,1,1.56-.13,6.1,6.1,0,0,1,2.31.79c.35.18.33.4,0,.66a5,5,0,0,1-2.3.79A3.25,3.25,0,0,1,960.29,101.83Z" transform="translate(0.28 -0.98)"/><path class="cls-5" d="M991,94.78c-.1-.21.2-.52-.09-.64s-.5.15-.69.34a.74.74,0,0,0-.32.66c0,.45-.44.45-.69.65a.32.32,0,0,1-.49-.07c-.23-.52-.8-.6-1.17-.93a1,1,0,0,1-.42-.59l.05-.06a.84.84,0,0,0,.64-.54.7.7,0,0,1,.49-.42c.14,0,.29-.09.28-.28a.14.14,0,0,0-.13-.15.39.39,0,0,0-.36.21.86.86,0,0,1-.24.3c-.28.17-.49.11-.6-.21a.19.19,0,0,1,0-.07l.28-.43a10.07,10.07,0,0,1-6.06,1.77c-.31,0-.49,0-.42-.44a7.24,7.24,0,0,1,.48-1.33A3.13,3.13,0,0,1,982.87,91a9.24,9.24,0,0,1,6-1.62c.39,0,.49.11.44.51-.07.75-.61,1.25-1,2,.67-.14,1.14-.67,1.78-.67.08.09.4.08.15.32s-.23.26-.08.43a.21.21,0,0,0,.25.06c.22-.07.13-.22.11-.36,0-.36.22-.35.44-.27s.36.34.39.61a6.09,6.09,0,0,1,0,1,1.62,1.62,0,0,0,0-1.17c-.11-.36-.28-.49-.62-.47a1.09,1.09,0,0,1-.64-.12c.36-.32.84-.21,1.24-.35.18,0,.28.14.32.31a4.51,4.51,0,0,1-.55,3.58A.3.3,0,0,1,991,94.78Z" transform="translate(0.28 -0.98)"/><path class="cls-2" d="M935,103.18a14,14,0,0,1-2,.22c-.26,0-.34-.07-.27-.36a5.25,5.25,0,0,1,.68-1.36,1.49,1.49,0,0,0,.28-.58,8.42,8.42,0,0,1,3.5-2.48,4.65,4.65,0,0,1,2.13-.55,4,4,0,0,0,1.27-.21,1.51,1.51,0,0,1,1.21-.11c.43.08.35.42.23.7a6.86,6.86,0,0,1-1.09,1.72c-.11.14-.28.23-.31.47.43.1.87.06,1.29.16a6.37,6.37,0,0,1,2.23.89,1.69,1.69,0,0,1,.61.69,3.23,3.23,0,0,1,.6,1.09c.07.27,0,.42-.3.4s-.59,0-.88,0c-.37.24-.74,0-1.1,0a5.45,5.45,0,0,1-1.82-.83,4.18,4.18,0,0,0-.59-.6l-.12-.11a2.57,2.57,0,0,1-.4-.52c-.32-.56-.32-.56-.87-.19a11.22,11.22,0,0,1-3.86,1.66A.49.49,0,0,1,935,103.18Z" transform="translate(0.28 -0.98)"/><path class="cls-5" d="M981.29,92.3a15,15,0,0,1-3.56,2.08c-.39.15-.79.29-1.19.4s-.4.27-.26.53a3,3,0,0,1-.26,3.48,3.31,3.31,0,0,1-1.09.87c-.2.12-.34,0-.46-.15a2.9,2.9,0,0,1,.52-4.14c.49-.38.56-1,.77-1.49A8.5,8.5,0,0,1,978,90.81a11.65,11.65,0,0,1,3.8-2.31,19.16,19.16,0,0,1,2.1-.57c.37-.1.35.13.26.38a7.58,7.58,0,0,1-1.12,2.1.66.66,0,0,0-.18.34A6,6,0,0,1,981.29,92.3Z" transform="translate(0.28 -0.98)"/><path class="cls-5" d="M913.2,118.55a7.78,7.78,0,0,1-4.6-1.24,5.22,5.22,0,0,1-1.34-1.27c-.18-.26-.33-.24-.6-.16a7.13,7.13,0,0,1-3.94.14c-.22-.06-.49-.08-.52-.32s.2-.33.36-.45a7.41,7.41,0,0,1,5.09-1.78,5.78,5.78,0,0,1,1.88.34c.31.11.49.24.09.48-.09.06-.21.13-.16.26s.21.11.33.11a6.56,6.56,0,0,1,3.35.91,5.23,5.23,0,0,1,2.11,2.21c.26.5,0,.59-.37.64C914.26,118.49,913.63,118.52,913.2,118.55Z" transform="translate(0.28 -0.98)"/><path class="cls-2" d="M902.89,87.1a10.24,10.24,0,0,1-3.34-.37,6.67,6.67,0,0,1-1.79-.75c-.36-.21-.3-.33,0-.51A15.46,15.46,0,0,1,902,83.76a12.9,12.9,0,0,1,5.6-.17,9,9,0,0,1,2.95,1.12c.36.24.36.34,0,.54a14.39,14.39,0,0,1-3.2,1.26A13.93,13.93,0,0,1,902.89,87.1Z" transform="translate(0.28 -0.98)"/><path class="cls-5" d="M978.39,119.45l.05,0c.87,0,.95.16.54,1a4.51,4.51,0,0,1-1.44,1.63,26.39,26.39,0,0,0,4.39.7,5.23,5.23,0,0,1,2.33,1.45c.26.33.28.53-.22.61a5.55,5.55,0,0,1-4-.65.65.65,0,0,0-.88,0c-.42.36-1,.45-1.4.82a7.46,7.46,0,0,1-4.36.27,6.76,6.76,0,0,1-1.26-.37c-.48-.2-.54-.52-.17-.87a6.08,6.08,0,0,1,1.31-1.07l.24-.12a2,2,0,0,0,1.41-1.42,4.33,4.33,0,0,1,2.9-2A1.19,1.19,0,0,1,978.39,119.45Z" transform="translate(0.28 -0.98)"/><path class="cls-2" d="M948.68,91.52c0-.58.2-.79,1.05-.39.55.26,1.07.59,1.65.91a3.61,3.61,0,0,1,2.11-3.79c.36-.2.5,0,.64.19a3,3,0,0,1-.57,3.57,3.76,3.76,0,0,1-.77.68c-.49.25-.36.47-.14.82a4.31,4.31,0,0,1,.29,4.47c-.17.33-.3.35-.59.2s-.78-.38-1.17-.58a.25.25,0,0,0-.25,0,.32.32,0,0,1-.17-.19.53.53,0,0,0-.25-.41,4.65,4.65,0,0,1-1.85-2.49,2.8,2.8,0,0,1-.15-2C948.63,92.22,948.58,91.86,948.68,91.52Z" transform="translate(0.28 -0.98)"/><path class="cls-6" d="M972.65,95.41l.15-.44c.25,1.13.45,2.27.75,3.39a14,14,0,0,1,.22,4.38c0,1.1-.1,2.2-.15,3.42a4.72,4.72,0,0,0,1.3-1.92,5.39,5.39,0,0,1,.37-1.09A1,1,0,0,1,976,103c.38,0,.58.17.53.58s0,.8-.06,1.2a8.55,8.55,0,0,1-1.78,2.48,3,3,0,0,0-1.66,3.84,2.77,2.77,0,0,1,.16.81,15.24,15.24,0,0,1-.05,2.34c-.1.27-.34.36-.58.46a6.46,6.46,0,0,0-.84.4c-.38.23-.58.14-.61-.31a21.7,21.7,0,0,1,.26-2.9c.11-1.24.29-2.48.28-3.73a15.89,15.89,0,0,1,.15-2.58,4.92,4.92,0,0,1,.48-1.38,2.32,2.32,0,0,0-.11-2.43,2.87,2.87,0,0,1,0-1.27,11.75,11.75,0,0,0,.17-2.58c-.06-.69.11-1.37.11-2A.5.5,0,0,1,972.65,95.41Z" transform="translate(0.28 -0.98)"/><path class="cls-2" d="M926.23,111.8h1.82a9,9,0,0,1,6.06,2.38c.3.26.39.39-.1.56a4.51,4.51,0,0,1-1.8.38,17.93,17.93,0,0,0-2.32.29,11.61,11.61,0,0,1-3.81-.26,2.83,2.83,0,0,1-1.79-.47c-.61-.57-1.44-.82-2-1.45.38-.35.93-.43,1.33-.76A4.25,4.25,0,0,1,926.23,111.8Z" transform="translate(0.28 -0.98)"/><path class="cls-2" d="M967.25,74.18c-1.22,0-1.34-.17-.82-1.29a5.74,5.74,0,0,1,2.33-2.52,13.19,13.19,0,0,1,6.51-1.71c.57,0,.7.23.48.84a5.11,5.11,0,0,1-1.65,2.27A11.37,11.37,0,0,1,968.5,74,5.37,5.37,0,0,1,967.25,74.18Z" transform="translate(0.28 -0.98)"/><path class="cls-2" d="M925.61,94.53c-.09,1.2-.15,1.22-1.1,1a12.15,12.15,0,0,1-3.11-1A5.55,5.55,0,0,1,918.08,90c-.08-.88,0-1,.91-.89A8.53,8.53,0,0,1,923.76,91,4.57,4.57,0,0,1,925.61,94.53Z" transform="translate(0.28 -0.98)"/><path class="cls-4" d="M939.57,120.69a3.52,3.52,0,0,0-.15-.81,10.44,10.44,0,0,1-.63-4,2.88,2.88,0,0,0-.6-1.66,16.15,16.15,0,0,1-1.13-2.19c-.12-.24-.27-.47-.4-.71.1-.21.26-.09.36,0a7,7,0,0,0,2.16.87.55.55,0,0,1,.18.13,17,17,0,0,1,.83,1.82c.41-.61.42-1.36.86-1.92.27-.13.57-.09.85-.2s.25-.19.09-.37-.48-.4-.57-.73a.7.7,0,0,1,.11-.47,20,20,0,0,0,1.78-1.41c.1-.11.26-.23.39,0a16.94,16.94,0,0,1-.49,3.82c-.23.35-.66.36-1,.54-.17.09-.43.12-.46.33s.24.29.4.39a.64.64,0,0,1,.36.45,19.2,19.2,0,0,1-.59,2,5.57,5.57,0,0,0-.1,3.26,2.22,2.22,0,0,1,.12,1.09c-.09.23-.23.47-.49.45A3.24,3.24,0,0,1,939.57,120.69Z" transform="translate(0.28 -0.98)"/><path class="cls-2" d="M967.8,66.92a5.19,5.19,0,0,1-2.36,4.41c-.12.09-.25.15-.38.23-1,.7-1.09.72-1.83-.28a4.07,4.07,0,0,1,.24-5.54,10.37,10.37,0,0,1,2.15-1.64c.26-.18.46-.06.64.1A4.64,4.64,0,0,1,967.8,66.92Z" transform="translate(0.28 -0.98)"/><path class="cls-2" d="M944.27,70a5,5,0,0,1,2.11-3.74,10.46,10.46,0,0,1,2-1.24.62.62,0,0,1,.93.23c1.21,1.85.94,3.67-.54,5.38a8.53,8.53,0,0,1-3,2.12c-.34.15-.54.17-.78-.24A4.47,4.47,0,0,1,944.27,70Z" transform="translate(0.28 -0.98)"/><path class="cls-2" d="M943,69a3.76,3.76,0,0,1-.85,2.41.49.49,0,0,1-.7.17A8.32,8.32,0,0,1,937.86,69a4.08,4.08,0,0,1,.13-4.85.47.47,0,0,1,.59-.13,8.07,8.07,0,0,1,3.51,2.33A4,4,0,0,1,943,69Z" transform="translate(0.28 -0.98)"/><path class="cls-2" d="M938.47,74.15a13,13,0,0,1-6.75-1.71,5.17,5.17,0,0,1-2.18-2.37c-.15-.34-.08-.42.23-.46a11.91,11.91,0,0,1,2.86-.06,12.61,12.61,0,0,1,3.72.83,7.16,7.16,0,0,1,3.41,2.7,3,3,0,0,1,.28.72c.09.23,0,.35-.25.35Z" transform="translate(0.28 -0.98)"/><path class="cls-2" d="M985.25,78c0-1.89,1.3-3.11,3-4a10.67,10.67,0,0,1,2.7-.88c.43-.09.56.12.67.43a4.33,4.33,0,0,1-1.18,4.38,9.09,9.09,0,0,1-4.39,2c-.32,0-.44,0-.57-.33A4.55,4.55,0,0,1,985.25,78Z" transform="translate(0.28 -0.98)"/><path class="cls-2" d="M921.8,76.84a11.06,11.06,0,0,1-6.43-2A5.17,5.17,0,0,1,913.93,73c-.11-.25,0-.33.23-.37a11.84,11.84,0,0,1,7.35.86,5.24,5.24,0,0,1,2.59,2.56c.2.47.12.61-.37.65Z" transform="translate(0.28 -0.98)"/><path class="cls-2" d="M967.93,80.46c-.42,0-.32-.3-.23-.5a9.79,9.79,0,0,1,1.49-2.53,13.92,13.92,0,0,1,7.61-4.55c.27-.06.65-.2.81,0s-.09.49-.22.74a12.29,12.29,0,0,1-3.85,4.26,15.87,15.87,0,0,1-5.45,2.53Z" transform="translate(0.28 -0.98)"/><path class="cls-5" d="M898.47,97.62a6.11,6.11,0,0,1,3.6,1c.24.2.33.07.4-.17.21-.73.23-.77,1-.58a4,4,0,0,1,3.06,2.43,4,4,0,0,1,0,2.13c0,.21-.23.33-.51.3-1.44-.18-3.31-1.39-3.52-2.87-.08-.53-.28-.52-.71-.35a8.78,8.78,0,0,1-5.85.32,4,4,0,0,1-1.28-.73c-.24-.18-.25-.3.05-.46A9.77,9.77,0,0,1,898.47,97.62Z" transform="translate(0.28 -0.98)"/><path class="cls-5" d="M914.07,79.14a7.73,7.73,0,0,1,2.35-.93,13,13,0,0,1,4.55-.49,8.54,8.54,0,0,1,4.92,1.75c.38.32.38.44-.09.61a14.79,14.79,0,0,1-4.31,1,14,14,0,0,1-4.73-.44A7.85,7.85,0,0,1,914.07,79.14Z" transform="translate(0.28 -0.98)"/><path class="cls-2" d="M976.92,78.61h-1.26c-.24,0-.3-.09-.24-.35a5.47,5.47,0,0,1,3.31-3.68,11.4,11.4,0,0,1,5.28-1c.84,0,.86.11.55,1a5.14,5.14,0,0,1-2.42,2.63A10.49,10.49,0,0,1,976.92,78.61Z" transform="translate(0.28 -0.98)"/><path class="cls-2" d="M997.66,87.38a4.31,4.31,0,0,1-2,3.87,5.79,5.79,0,0,1-1.51.86.54.54,0,0,1-.71-.21,4.51,4.51,0,0,1,1.21-6.66,15.38,15.38,0,0,1,1.47-.72c.33-.18.5-.06.66.21A4.59,4.59,0,0,1,997.66,87.38Z" transform="translate(0.28 -0.98)"/><path class="cls-2" d="M1003.4,93.85a15.11,15.11,0,0,1-6.24-1.43c-.17-.08-.44-.09-.45-.35s.25-.26.38-.34a8,8,0,0,1,3.6-1.19,13.15,13.15,0,0,1,4.2.25,14.38,14.38,0,0,1,3.56,1.36c.35.19.22.34-.05.49a9.53,9.53,0,0,1-3.52,1.11A7.32,7.32,0,0,1,1003.4,93.85Z" transform="translate(0.28 -0.98)"/><path class="cls-2" d="M988.27,82.05a4.61,4.61,0,0,1-2,3.79,8.62,8.62,0,0,1-2.67,1.35c-.58.2-.71.11-.92-.46a4.54,4.54,0,0,1,2.07-5.52,10.79,10.79,0,0,1,2.49-1.08c.36-.12.52,0,.66.32A3.78,3.78,0,0,1,988.27,82.05Z" transform="translate(0.28 -0.98)"/><path class="cls-2" d="M941.39,80.37a6.24,6.24,0,0,1,1.45-3.83l.07-.08c.73-.92.75-.94,1.66-.14a3.92,3.92,0,0,1,1.33,4,8.41,8.41,0,0,1-1.81,3.57c-.15.18-.23.26-.49.12A3.74,3.74,0,0,1,941.39,80.37Z" transform="translate(0.28 -0.98)"/><path class="cls-2" d="M915.9,88.66a10,10,0,0,1-5-1.31c-.16-.1-.43-.16-.44-.38s.29-.24.45-.31a12.51,12.51,0,0,1,8.44-1,7.63,7.63,0,0,1,2.79,1.36c.28.21,0,.3-.13.36a16.16,16.16,0,0,1-2.6.86A15.74,15.74,0,0,1,915.9,88.66Z" transform="translate(0.28 -0.98)"/><path class="cls-2" d="M954,75.56a4.92,4.92,0,0,1,1.92-2.94,11.23,11.23,0,0,1,6.19-2.2c.41,0,.38.21.33.49a5.26,5.26,0,0,1-2.14,3.25,11.44,11.44,0,0,1-4.41,2c-.43.1-.87.11-1.3.21S954,76.4,954,75.56Z" transform="translate(0.28 -0.98)"/><path class="cls-2" d="M930.18,77.78a4.39,4.39,0,0,1-.48,2,.53.53,0,0,1-.74.34,6.19,6.19,0,0,1-4-3.07,3.9,3.9,0,0,1,.17-3.73.52.52,0,0,1,.7-.24,7,7,0,0,1,3.51,2.3A3.89,3.89,0,0,1,930.18,77.78Z" transform="translate(0.28 -0.98)"/><path class="cls-2" d="M936.13,78.64a5.16,5.16,0,0,1-1.77,3.85,9.27,9.27,0,0,1-1.61,1.23c-.33.23-.52.19-.77-.12a4.24,4.24,0,0,1,.06-5.43A9.26,9.26,0,0,1,934.62,76c.24-.16.41,0,.55.16A3.61,3.61,0,0,1,936.13,78.64Z" transform="translate(0.28 -0.98)"/><path class="cls-7" d="M958.66,79.45a20.22,20.22,0,0,1-3.31-.41c-.44-.11-.32-.28-.1-.51A8.37,8.37,0,0,1,959,76.4a14.1,14.1,0,0,1,5.33-.41,12.27,12.27,0,0,1,2,.43c.29.07.41.17.1.46a8.9,8.9,0,0,1-3.2,1.83A16.65,16.65,0,0,1,958.66,79.45Z" transform="translate(0.28 -0.98)"/><path class="cls-2" d="M976.32,104.94c0-.51,0-1,.09-1.53,0-.25-.11-.23-.25-.23l-.87,0c-.22-.9.86-2.24,1.92-2.64a6.64,6.64,0,0,0,1.86-.74c.11-.09.22-.16.33,0a.83.83,0,0,0,.74.36c.21,0,.22.19.17.32a2.07,2.07,0,0,0,.09,1.23,4.77,4.77,0,0,1-1.11,4.43c-.25.29-.59.49-.75.86s-.53.6-1,.52-.14.4-.4.39a.38.38,0,0,1-.19-.38,3.39,3.39,0,0,0-.43-1.46A2.64,2.64,0,0,1,976.32,104.94Z" transform="translate(0.28 -0.98)"/><path class="cls-2" d="M1005.54,105.83a11.49,11.49,0,0,1,6.49,2.11,7.3,7.3,0,0,1,2,2.1c.28.46.23.58-.33.61a12.11,12.11,0,0,1-3-.27,12.25,12.25,0,0,1-4.45-1.84,9.66,9.66,0,0,1-2.38-2.22c-.2-.26-.11-.33.16-.4A6.57,6.57,0,0,1,1005.54,105.83Z" transform="translate(0.28 -0.98)"/><path class="cls-6" d="M960.29,101.83h1.81c.37.47.16,1,.12,1.47-.08.35,0,.77-.49.94-.18.06,0,.25,0,.36a1.74,1.74,0,0,1,.38.77,23.91,23.91,0,0,1,0,2.54c-.07.11.08.08,0,.07s0,0,0,0a7.18,7.18,0,0,1,1.39-1.62,2.39,2.39,0,0,1,1.49.54c0,.46-.38.73-.64,1a2.57,2.57,0,0,1-.78.38,3.89,3.89,0,0,0-2.42,2.32c-.2.62-.14.71.5.65a.57.57,0,0,1,.47.08.49.49,0,0,1,.05.39c-.16.36-.53.5-.78.77s-.4.42.09.54a.49.49,0,0,1,.39.41,17.15,17.15,0,0,1-.5,3.35.62.62,0,0,1-.17.28c-.52.14-.69,0-.69-.6a4.14,4.14,0,0,0-.75-2.24,19.57,19.57,0,0,0,.42-3.5c.06-1.89,0-3.78,0-5.67C960.19,104,960.26,102.91,960.29,101.83Z" transform="translate(0.28 -0.98)"/><path class="cls-2" d="M941,82.83A5.74,5.74,0,0,1,938.52,87c-.24.19-.52.34-.76.54-.43.36-.7.18-1-.22a4.33,4.33,0,0,1,.31-5.44A7.35,7.35,0,0,1,939.37,80c.27-.14.42-.15.64.12A4.47,4.47,0,0,1,941,82.83Z" transform="translate(0.28 -0.98)"/><path class="cls-2" d="M974.41,130.4a11.66,11.66,0,0,1-3,1.21,9.2,9.2,0,0,1-4.77-.26,1.43,1.43,0,0,0-.68-.17c-.26-.13-.3-.32-.13-.53a6.46,6.46,0,0,1,.54-.75,21.46,21.46,0,0,1,1.86-1.24A5.79,5.79,0,0,1,970,128a5.35,5.35,0,0,1,2-.22,7.07,7.07,0,0,1,3.35.7c.27.11.63.24.4.68Z" transform="translate(0.28 -0.98)"/><path class="cls-2" d="M973,84.15c0,2-1.15,3.19-2.66,4.17a9.55,9.55,0,0,1-2,.92c-.38.14-.57.05-.71-.32a4.4,4.4,0,0,1,1.52-5.2,8.06,8.06,0,0,1,2.89-1.46c.37-.12.52,0,.67.33A3.77,3.77,0,0,1,973,84.15Z" transform="translate(0.28 -0.98)"/><path class="cls-2" d="M981.79,79.81a5.12,5.12,0,0,1-1.44,2.73,10.58,10.58,0,0,1-5.87,2.79c-.43.08-.58,0-.52-.53a5.68,5.68,0,0,1,3.14-4.26,11.07,11.07,0,0,1,4.3-1.37C982,79.1,981.72,79.52,981.79,79.81Z" transform="translate(0.28 -0.98)"/><path class="cls-2" d="M930.84,86.5c-.13-.5.17-1,.24-1.51a.4.4,0,0,1,.55-.31c2,.54,3.71,1.46,4.59,3.44a4,4,0,0,1-.06,3.26.36.36,0,0,1-.49.23,8,8,0,0,1-3.78-2.28A3.88,3.88,0,0,1,930.84,86.5Z" transform="translate(0.28 -0.98)"/><path class="cls-2" d="M961.56,85.84A4.75,4.75,0,0,1,963.85,82c.08,0,.17-.08.24-.13.74-.52.84-.51,1.34.24a4.29,4.29,0,0,1-.55,5.84,11.41,11.41,0,0,1-1.26,1c-.36.28-.64.35-1-.12A4.86,4.86,0,0,1,961.56,85.84Z" transform="translate(0.28 -0.98)"/><path class="cls-2" d="M951.3,85.47a4.87,4.87,0,0,1,2.25-4.18,14.46,14.46,0,0,1,1.24-.79c.46-.29.68-.22.92.24,1.22,2.33.42,4.2-1.16,5.8a9.57,9.57,0,0,1-1.78,1.26c-.45.28-.69.15-.9-.28A3.7,3.7,0,0,1,951.3,85.47Z" transform="translate(0.28 -0.98)"/><path class="cls-2" d="M915,114.08c-.33.25-.46-.11-.66-.22a3,3,0,0,1-.89-1.64c0-.33,0-.66,0-1-.1-2.39,1.2-4,2.93-5.4.21-.16.4-.16.59.12a5,5,0,0,1,.26,5.44c-.28.58-.77,1-1,1.61A3.77,3.77,0,0,1,915,114.08Z" transform="translate(0.28 -0.98)"/><path class="cls-2" d="M960.57,95a5.11,5.11,0,0,1-1.18.2c-.44,0-.55-.16-.48-.57a5,5,0,0,1,1.63-2.81,9.25,9.25,0,0,1,5.92-2.17c.47,0,.56.12.44.57A6.18,6.18,0,0,1,963,94.31l-.79.34A1.86,1.86,0,0,1,960.57,95Z" transform="translate(0.28 -0.98)"/><path class="cls-2" d="M916.94,94.3a7.36,7.36,0,0,1,4.24,1.12,2.32,2.32,0,0,1,.44.31c.19.19.61.25.57.53s-.49.34-.75.45a12.61,12.61,0,0,1-6.05.69A8.19,8.19,0,0,1,911.74,96c-.15-.11-.39-.2-.37-.44s.27-.22.43-.28A10.86,10.86,0,0,1,916.94,94.3Z" transform="translate(0.28 -0.98)"/><path class="cls-2" d="M935.45,141.7a9.48,9.48,0,0,1-3.29,1.26c-.71.1-.75.09-.67-.64a.42.42,0,0,0-.1-.36,7,7,0,0,1,.45-1.36c.21-.42.5-.79.74-1.19A19.57,19.57,0,0,1,934,138c.6-.34,1.17-.75,1.8-1a9.62,9.62,0,0,1,2-.52l.38,0c.63,0,.78.21.61.83-.1.38-.23.74-.34,1.11a8,8,0,0,1-2.45,3.12A.89.89,0,0,1,935.45,141.7Z" transform="translate(0.28 -0.98)"/><path class="cls-5" d="M960.29,89.12A5.2,5.2,0,0,1,958.18,93a11.43,11.43,0,0,1-1.5,1c-.24.14-.36.11-.53-.13a4.44,4.44,0,0,1,.06-5,7,7,0,0,1,2.8-2.27.44.44,0,0,1,.67.22A4.65,4.65,0,0,1,960.29,89.12Z" transform="translate(0.28 -0.98)"/><path class="cls-8" d="M1006.59,97.22a4.7,4.7,0,0,1-2.84,4.19l-.31.13c-1.08.51-1.28.39-1.61-.8-.84-3,1-5.11,3.49-6,.36-.13.6-.1.77.33A5.36,5.36,0,0,1,1006.59,97.22Z" transform="translate(0.28 -0.98)"/><path class="cls-2" d="M997.23,94.64a10.57,10.57,0,0,1,1.37.07c.37.07.39.23.27.53A5.34,5.34,0,0,1,996.43,98a9.32,9.32,0,0,1-5.59,1.13c-.52,0-.62-.25-.4-.76a5.21,5.21,0,0,1,1.77-2.25A8,8,0,0,1,997.23,94.64Z" transform="translate(0.28 -0.98)"/><path class="cls-2" d="M1012.31,103.5c-.66,0-1.43-.08-2.19-.2-.49-.08-.49-.38-.32-.7a5.12,5.12,0,0,1,2.5-2.34,10.05,10.05,0,0,1,6.13-.4c.43.08.41.31.23.64a5.61,5.61,0,0,1-3.53,2.64A9.77,9.77,0,0,1,1012.31,103.5Z" transform="translate(0.28 -0.98)"/><path class="cls-2" d="M1013.75,104.72a10.82,10.82,0,0,1,6.49,2c.32.21.34.32,0,.53a7,7,0,0,1-2.88.77,11.82,11.82,0,0,1-7.14-1.79c-.16-.1-.42-.15-.41-.39s.25-.24.41-.32A6.56,6.56,0,0,1,1013.75,104.72Z" transform="translate(0.28 -0.98)"/><path class="cls-9" d="M941.33,102.84a6.2,6.2,0,0,0,2.91,1,1,1,0,0,0,0,.1c-.35.84-.36.76.45,1a4.82,4.82,0,0,0,2,.52c.24,0,.29.26.39.43a4.14,4.14,0,0,0,1.26,1.34c.75.48.76.49,1.3-.14l.34.74a1.44,1.44,0,0,1,.58-1.25,2.68,2.68,0,0,0,.71-1.26A4.85,4.85,0,0,0,953,104c.09-.11.18-.24.36-.19l-.72,2.4c0,.24-.18.34-.35.46a6.42,6.42,0,0,0-2,2c-.3.5-.74.9-1.07,1.38a.23.23,0,0,1-.25.08,5.88,5.88,0,0,1-.85-1.65,1.49,1.49,0,0,0-1.24-1c-.78-.11-1.56-.19-2.34-.33-.25-.05-.42,0-.48.29a.59.59,0,0,1-.2.38,6.54,6.54,0,0,1-1.92.15c-.26-.18-.22-.45-.19-.7s.11-.69.16-1a1.29,1.29,0,0,0-.4-1.34.53.53,0,0,1-.19-.33c-.06-.51,0-1-.11-1.53A.24.24,0,0,1,941.33,102.84Z" transform="translate(0.28 -0.98)"/><path class="cls-2" d="M907.24,106.47a8.84,8.84,0,0,1-4.1-1c-.15-.09-.38-.11-.37-.34s.21-.28.36-.37a10.46,10.46,0,0,1,4.19-1.44,8.46,8.46,0,0,1,5.12.77,3.72,3.72,0,0,1,.48.27c.6.41.61.43,0,.74A13.73,13.73,0,0,1,907.24,106.47Z" transform="translate(0.28 -0.98)"/><path class="cls-2" d="M1019.25,114.9a4.29,4.29,0,0,1-2.07,3.17,7.62,7.62,0,0,1-3.82,1.15c-.43,0-.52-.13-.53-.53a4.65,4.65,0,0,1,3.58-4.67,6.81,6.81,0,0,1,2-.33C1019.35,113.7,1019.24,113.55,1019.25,114.9Z" transform="translate(0.28 -0.98)"/><path class="cls-2" d="M1002.84,126a9.49,9.49,0,0,1,3.48.57c.35.11.4.24.18.58a5.33,5.33,0,0,1-3.42,2.28,9.61,9.61,0,0,1-5.18-.26c-.36-.11-.36-.26-.21-.54a4.66,4.66,0,0,1,2.41-2.12A5.55,5.55,0,0,1,1002.84,126Z" transform="translate(0.28 -0.98)"/><path class="cls-2" d="M997.12,107.82c-.33,0-.66,0-1,0-.5.05-.58-.21-.45-.6a5,5,0,0,1,2.55-2.92,8.71,8.71,0,0,1,4.74-.89h.11c.9.06,1,.38.56,1.2a6.15,6.15,0,0,1-3.46,2.74A8,8,0,0,1,997.12,107.82Z" transform="translate(0.28 -0.98)"/><path class="cls-2" d="M899.15,110.81a7.44,7.44,0,0,1-4-1.14c-.36-.25-.29-.33,0-.5a9.38,9.38,0,0,1,3.14-1.34,9.94,9.94,0,0,1,4.57,0,6.91,6.91,0,0,1,2.12,1c.32.21.25.44-.08.61a12.13,12.13,0,0,1-2.73,1.08A12.74,12.74,0,0,1,899.15,110.81Z" transform="translate(0.28 -0.98)"/><path class="cls-2" d="M997.87,112.1a9.67,9.67,0,0,1-2.71-1c-.47-.23-.48-.35,0-.66a7,7,0,0,1,3.71-1.31,10.18,10.18,0,0,1,6.28,1.62,3.26,3.26,0,0,1-1.31.85c-.13.07-.28.11-.35.25a2.6,2.6,0,0,1-1.28.45,10.38,10.38,0,0,1-3.77,0A.62.62,0,0,1,997.87,112.1Z" transform="translate(0.28 -0.98)"/><path class="cls-2" d="M923.29,112c-.66.13-1.21.53-1.86.7a12.45,12.45,0,0,1-2.08.45c-.45,0-.48-.12-.39-.45a6.54,6.54,0,0,1,2.53-3.54,9.72,9.72,0,0,1,4.87-1.79c.52-.06.54,0,.41.54-.09.33-.36.6-.34,1a6.43,6.43,0,0,1-1.57,2.08,2.59,2.59,0,0,0-.42.32A7.94,7.94,0,0,1,923.29,112Z" transform="translate(0.28 -0.98)"/><path class="cls-2" d="M924.22,118.29a10.93,10.93,0,0,1-5.22.58,7.22,7.22,0,0,1-3.63-1.62c-.38-.31,0-.45.16-.52a8.25,8.25,0,0,1,2.11-.73.32.32,0,0,0,.3-.19.64.64,0,0,1,.41-.14,8.62,8.62,0,0,1,5.36,1,4.3,4.3,0,0,1,.85.68c.18.18.44.35.35.64S924.49,118.27,924.22,118.29Z" transform="translate(0.28 -0.98)"/><path class="cls-10" d="M918.75,120.3a6.72,6.72,0,0,1,4.65,1.64c.48.43.47.5-.13.75a8.64,8.64,0,0,1-7.84-.2,8,8,0,0,1-.86-.57c-.3-.23-.35-.41.07-.62A8.79,8.79,0,0,1,918.75,120.3Z" transform="translate(0.28 -0.98)"/><path class="cls-2" d="M931.34,126.39a11.81,11.81,0,0,0-2,.39,8.27,8.27,0,0,1-5-.82c-.33-.17-.18-.33,0-.49a8,8,0,0,1,1.94-1.18,7.86,7.86,0,0,1,6.73.24c.61.31.59.38,0,.79l-.31.23A2.67,2.67,0,0,1,931.34,126.39Z" transform="translate(0.28 -0.98)"/><path class="cls-6" d="M924.22,118.29c.77-.43.78-.44.1-1a6.36,6.36,0,0,0-3.81-1.48c-.85,0-1.71,0-2.57,0l-1.71-.82a3.91,3.91,0,0,1-1.26-.91,5.37,5.37,0,0,1,1.2-1.08,7.34,7.34,0,0,0,2.62,1.55,40.8,40.8,0,0,0,5.49,1.87c.53.16.56.11.4-.44s-.26-.88-.39-1.31c.62,0,1.17.38,1.79.47a15.77,15.77,0,0,1,.76,2,1.8,1.8,0,0,0,1.06.92,8.34,8.34,0,0,0,2.4.68c.16.11.1.22,0,.3a1.34,1.34,0,0,1-.81.29,7.72,7.72,0,0,0-2.83.23.41.41,0,0,1-.37-.06A11.24,11.24,0,0,0,924.22,118.29Z" transform="translate(0.28 -0.98)"/><path class="cls-2" d="M919.8,129.74a4.11,4.11,0,0,1-.19,1.4c-.12.36-.29.46-.6.33-2.65-1.09-4.34-3.43-3.54-6.56.08-.32.19-.42.53-.31A5.26,5.26,0,0,1,919.8,129.74Z" transform="translate(0.28 -0.98)"/><path class="cls-2" d="M949,110.17c1-1.37,1.84-2.9,3.41-3.76.08,0,.12-.13.18-.2l0,0c.66-.36.79.1.93.59a4.57,4.57,0,0,1-1.28,4.5c-.13.15-.35.23-.34.47-.63.57-1.44.88-2.11,1.39-.56.22-.71.16-.93-.36a3.33,3.33,0,0,1-.17-2.2A.58.58,0,0,1,949,110.17Z" transform="translate(0.28 -0.98)"/><path class="cls-2" d="M917,139.92a7,7,0,0,1-3.87-1.14c-.49-.31-.48-.46,0-.77a7.82,7.82,0,0,1,5.76-1.17,5.59,5.59,0,0,1,2.58,1.24c.28.24.25.37-.07.56A8.31,8.31,0,0,1,917,139.92Z" transform="translate(0.28 -0.98)"/><path class="cls-8" d="M979.79,129.63a1,1,0,0,0-.5-.46c-.34-.36-.7-.69-1-1.06s-.36-.51.16-.66a8.37,8.37,0,0,1,2.82-.21,7.39,7.39,0,0,1,4.27,1.9,5.37,5.37,0,0,1,.83.94c.31.4.22.65-.3.72a8.08,8.08,0,0,1-4.92-.55Z" transform="translate(0.28 -0.98)"/><path class="cls-9" d="M950.9,97.39l0,.22-.14.35a1.11,1.11,0,0,0-1,.3,3.64,3.64,0,0,0-1.47,2.25,3.13,3.13,0,0,0,.15,1.46.92.92,0,0,1,.08.54,2.69,2.69,0,0,1,.13,1.56c-.18.11-.31,0-.44-.1a7.46,7.46,0,0,0-1.39-.75,19.88,19.88,0,0,1-.47-4.48,5.85,5.85,0,0,0-.38-2,1.59,1.59,0,0,1,0-1.23c.24-.06.37.13.53.24.33.2.64.43,1,.6s.55.06.66-.31,0-.6.32-.64.51.29.72.51.13.39.49.49A2.23,2.23,0,0,1,950.9,97.39Z" transform="translate(0.28 -0.98)"/><path class="cls-11" d="M977.19,107.74l.06-.55c.58.54.84-.22,1.29-.26a1.25,1.25,0,0,0,.19.65c.94-1.14,1.38-2.66,2.76-3.49a8.35,8.35,0,0,1-.15,2.39,5.46,5.46,0,0,0-.11,3.57c.08.39-.24.58-.42.83s-.45.43-.57.73l-1.43,1.64c-.22-.09-.26-.34-.42-.52-.3.41-.24.94-.45,1.38a.44.44,0,0,1-.52.21c-.47-.11-1-.11-1.44-.23-.18-.14-.09-.3,0-.44.2-.39.31-.82.55-1.2a1.22,1.22,0,0,1,.77-.35,4.2,4.2,0,0,0,2.94-2c.4-.69.37-.77-.26-1.12-.05-.38.25-.63.35-.92a4.37,4.37,0,0,1-.77,1.08,15.6,15.6,0,0,0-1.77.65.29.29,0,0,1-.4,0A2.85,2.85,0,0,1,977.19,107.74Z" transform="translate(0.28 -0.98)"/><path class="cls-2" d="M1004.91,85.68a3.19,3.19,0,0,1-1.73,2.79,7.56,7.56,0,0,1-3.2,1c-.49.06-.64-.14-.66-.54a3.27,3.27,0,0,1,1.29-2.93,6.39,6.39,0,0,1,3.87-1.29c.28,0,.47.07.44.4A5.23,5.23,0,0,0,1004.91,85.68Z" transform="translate(0.28 -0.98)"/><path class="cls-2" d="M997.22,80.19a3.53,3.53,0,0,1-1.8,3.06c-.25.17-.44.06-.62-.13a4.39,4.39,0,0,1-1.48-3.46,3.63,3.63,0,0,1,1.92-2.77c.15-.09.27,0,.38.09A4.54,4.54,0,0,1,997.22,80.19Z" transform="translate(0.28 -0.98)"/><path class="cls-2" d="M991.89,83.25a5.43,5.43,0,0,1-.66,3,3.8,3.8,0,0,1-1.66,1.61c-.17.1-.27.09-.34-.16a8.84,8.84,0,0,1,.08-5.68,3.67,3.67,0,0,1,1.61-2c.29-.18.46-.2.59.2A7.82,7.82,0,0,1,991.89,83.25Z" transform="translate(0.28 -0.98)"/><path class="cls-2" d="M973.36,136.14c-.53-.74-.48-.85.46-1.07a3,3,0,0,0,.88-.24,7.31,7.31,0,0,1,3.74.66,5.81,5.81,0,0,1,2.32,1.94c.2.29.11.41-.2.49a7.08,7.08,0,0,1-6.9-1.54A3.5,3.5,0,0,0,973.36,136.14Z" transform="translate(0.28 -0.98)"/><path class="cls-2" d="M891.15,98.88c-.12,1.44-.1,1.38-1.3,1.22a5.82,5.82,0,0,1-2.73-1.18,3.71,3.71,0,0,1-.91-3.39.39.39,0,0,1,.4-.23,4.63,4.63,0,0,1,3.92,1.78A3.71,3.71,0,0,1,891.15,98.88Z" transform="translate(0.28 -0.98)"/><path class="cls-9" d="M997.87,112.1A10.44,10.44,0,0,0,1003,112a2.53,2.53,0,0,1,.48-.08,2.65,2.65,0,0,0,2.18-.45c.25-.17.39-.16.41.17l-2.43,1.62a2.5,2.5,0,0,1-1.86-.37,1.29,1.29,0,0,0-1-.17,1.9,1.9,0,0,1,.91,1.08,1.13,1.13,0,0,0,.85.76,2.57,2.57,0,0,1-.59,1.52,2,2,0,0,1-1.47-1.26,1.94,1.94,0,0,0-2.18-1.27c-.18,0-.28.15-.41.25a5.75,5.75,0,0,1-2.25,1,2.61,2.61,0,0,1-1.39-.26c.35-.21.79-.09,1.16-.31-.21-.57-.77-.89-1-1.42l.65-.46c-.09.76.34.61.72.5C996.43,112.57,997.15,112.33,997.87,112.1Z" transform="translate(0.28 -0.98)"/><path class="cls-12" d="M941.93,108a7.16,7.16,0,0,1,1.9-.17c.34-.06.33.16.25.36a1.44,1.44,0,0,1-.47.78,9.52,9.52,0,0,1-2,1.55c-.21.11-.33.25-.11.46l.67.65c.26.23.29.4-.1.51a3.59,3.59,0,0,1-1,.17,1.88,1.88,0,0,1-1.78.08,12.23,12.23,0,0,1-2.64-1,1.75,1.75,0,0,1-.37-.73,5.38,5.38,0,0,1,2.16-.5,1.84,1.84,0,0,0,.81-.6A4.12,4.12,0,0,1,941.93,108Z" transform="translate(0.28 -0.98)"/><path class="cls-2" d="M898.76,90.53a5,5,0,0,1-1.2,3.4c-.18.23-.33.18-.52.08a3.44,3.44,0,0,1-1.77-4.52,5.24,5.24,0,0,1,.9-1.55.45.45,0,0,1,.66-.14A3.33,3.33,0,0,1,898.76,90.53Z" transform="translate(0.28 -0.98)"/><path class="cls-2" d="M891.36,91.84a3.15,3.15,0,0,1,2.89,1.55,7.09,7.09,0,0,1,1,2.45c.12.49,0,.67-.49.77a3.59,3.59,0,0,1-4.09-2.09,10.5,10.5,0,0,1-.61-1.79c-.16-.67,0-.82.66-.86Z" transform="translate(0.28 -0.98)"/><path class="cls-2" d="M911.85,89.34a6.44,6.44,0,0,1,4.87,1.77,3.06,3.06,0,0,1,.69,1.23c.09.27,0,.39-.27.43a8.11,8.11,0,0,1-5.34-1,3.56,3.56,0,0,1-1.6-2c-.09-.29,0-.37.26-.39Z" transform="translate(0.28 -0.98)"/><path class="cls-2" d="M890,108.07a5,5,0,0,1-3.51-1.54,3.42,3.42,0,0,1-.82-2.65c0-.25.15-.3.36-.3a4.85,4.85,0,0,1,4.27,1.77,3.51,3.51,0,0,1,.66,2.31c0,.28-.12.56-.53.43A1.54,1.54,0,0,0,890,108.07Z" transform="translate(0.28 -0.98)"/><path class="cls-10" d="M906.28,81.57a10,10,0,0,1,6.34-1,6.69,6.69,0,0,1,2.33.86c.32.21.34.38,0,.52a10.79,10.79,0,0,1-6.07.72A7.47,7.47,0,0,1,906.28,81.57Z" transform="translate(0.28 -0.98)"/><path class="cls-13" d="M939.57,120.69c.54.26,1.16.27,1.71.52.27.12.42-.13.56-.32a3.78,3.78,0,0,1,1.71-.79.49.49,0,0,1,.5.1c.36,0,.9-.17,1,.11s-.23.73-.46,1a5,5,0,0,1-3.26,2,4.9,4.9,0,0,1-.77.08c-.19,0-.44.09-.46-.29,0-.21-.31-.17-.49-.2a4.78,4.78,0,0,1-2.38-1.35c-.23-.24-.24-.36.11-.48a5.53,5.53,0,0,1,1.89-.29C939.37,120.79,939.5,120.86,939.57,120.69Z" transform="translate(0.28 -0.98)"/><path class="cls-8" d="M914,99.65a4.62,4.62,0,0,1-1.71,3.41c-.21.19-.4.15-.62-.06a3.63,3.63,0,0,1-.27-4.6,8,8,0,0,1,.94-1.07c.31-.31.55-.27.82.06A3.35,3.35,0,0,1,914,99.65Z" transform="translate(0.28 -0.98)"/><path class="cls-2" d="M891.87,112a5.09,5.09,0,0,1-2.94-.74,3.6,3.6,0,0,1-1-1c-.18-.21-.13-.42.18-.56a5,5,0,0,1,1.69-.4,7.18,7.18,0,0,1,2.88.21,4.24,4.24,0,0,1,2.17,1.6c.22.31,0,.42-.27.5A7.17,7.17,0,0,1,891.87,112Z" transform="translate(0.28 -0.98)"/><path class="cls-14" d="M912.53,110.53c0,1.34,0,1.39-1.22,1a4.4,4.4,0,0,1-3-2.42,4.64,4.64,0,0,1-.16-2c0-.23.17-.24.35-.22a5.08,5.08,0,0,1,3.09,1.38A2.54,2.54,0,0,1,912.53,110.53Z" transform="translate(0.28 -0.98)"/><path class="cls-2" d="M891.41,114.68a5.42,5.42,0,0,1,2.74.62c.41.22.44.4.07.64a9.06,9.06,0,0,1-2.82,1.17,7.25,7.25,0,0,1-3.21,0,5,5,0,0,1-1.27-.51c-.42-.21,0-.43.12-.51a9.91,9.91,0,0,1,1.39-.76A7.34,7.34,0,0,1,891.41,114.68Z" transform="translate(0.28 -0.98)"/><path class="cls-14" d="M900,114.14a5.58,5.58,0,0,1-2.94-.66c-.47-.24-.48-.38,0-.65a7.07,7.07,0,0,1,6.89-.56c.21.1.48.24.49.47s-.26.31-.47.38a12.49,12.49,0,0,1-1.55.67A8.28,8.28,0,0,1,900,114.14Z" transform="translate(0.28 -0.98)"/><path class="cls-8" d="M889,120.65a5.24,5.24,0,0,1-2.34-.45c-.14,0-.29-.12-.32-.28s.12-.26.24-.34a7.15,7.15,0,0,1,6.7-1.12c.23.08.57.15.6.42s-.3.34-.49.45A8,8,0,0,1,889,120.65Z" transform="translate(0.28 -0.98)"/><path class="cls-7" d="M926.27,119.45a7.56,7.56,0,0,1,3.24-.32.75.75,0,0,0,.79-.44l1.68,0a3,3,0,0,1,2,.87c.19.16.09.22,0,.31a4.09,4.09,0,0,1-2.25.27c.36.59.36.6-.3.78l-1,.26a5.55,5.55,0,0,1-4-1C926.18,120,925.75,119.8,926.27,119.45Z" transform="translate(0.28 -0.98)"/><path class="cls-15" d="M895.35,117.55c0-1.47,0-1.47,1.65-.9a3.7,3.7,0,0,1,2.2,4.29c-.09.32-.22.39-.51.3a4.3,4.3,0,0,1-3.23-2.66,1.74,1.74,0,0,1-.11-.25C895.34,118.07,895.35,117.81,895.35,117.55Z" transform="translate(0.28 -0.98)"/><path class="cls-2" d="M935.81,130.5l1.58-.32a4.57,4.57,0,0,1,1.43,0,5.91,5.91,0,0,1,2.67,1.21,2.43,2.43,0,0,1,.3.24c.24.25.57.5.45.88s-.52.37-.83.47a5.79,5.79,0,0,1-3.35,0,4.91,4.91,0,0,1-2.27-1.12c-.12-.11-.26-.2-.37-.32s-.4-.38-.29-.66A.6.6,0,0,1,935.81,130.5Z" transform="translate(0.28 -0.98)"/><path class="cls-16" d="M892.12,128.86a6.86,6.86,0,0,1-2.71-.64c-.42-.22-.29-.37,0-.58a6.68,6.68,0,0,1,3.14-1.32,5.55,5.55,0,0,1,3.51.54c.56.32.58.38,0,.73A8.09,8.09,0,0,1,892.12,128.86Z" transform="translate(0.28 -0.98)"/><path class="cls-4" d="M975.78,129.19c.08-.34-.18-.44-.41-.53A7.73,7.73,0,0,0,972,128a.34.34,0,0,1,.07-.36,5.74,5.74,0,0,0,1.29-2.34,14.66,14.66,0,0,0,2.89.07,4.89,4.89,0,0,1,1.52-.25c-.38.52-.77,1-1.12,1.57a.54.54,0,0,0,0,.77.79.79,0,0,1,0,1.1A2.25,2.25,0,0,1,975.78,129.19Z" transform="translate(0.28 -0.98)"/><path class="cls-8" d="M968.24,137.72a5.78,5.78,0,0,1-4.23-.14c-.4-.16-.33-.35-.09-.6a5.32,5.32,0,0,1,3.34-1.59c.16,0,.32-.07.48-.1s.55-.07.78.14a6,6,0,0,1,1.65.54c.16.09.34.16.33.39a9.85,9.85,0,0,1-1.9,1.24A.77.77,0,0,1,968.24,137.72Z" transform="translate(0.28 -0.98)"/><path class="cls-8" d="M921.23,101.19a7,7,0,0,1-3.4-1.06c-.36-.24-.4-.38,0-.58A8.09,8.09,0,0,1,922,98.9a5.61,5.61,0,0,1,2.76,1.06c.11.08.3.14.25.32s-.17.17-.29.22A9,9,0,0,1,921.23,101.19Z" transform="translate(0.28 -0.98)"/><path class="cls-17" d="M950.9,97.39c-.34-.28-.7-.53-1-.83s-.29-.1-.36.19c-.24-.55-.44-1.06-1-1.28-.33,1.39-.46,1.44-1.67.64-.27-.18-.53-.39-.8-.58a3.24,3.24,0,0,1-.9-2.55,4.12,4.12,0,0,1,.12-.53c.14-.5.43-.52.82-.33a4.37,4.37,0,0,1,2.14,1.95l.25.51a5,5,0,0,1,.2-3.06,5.08,5.08,0,0,1-.16,1.39,2.41,2.41,0,0,0,.44,1.81c0,.07.14.13.15.21a3.11,3.11,0,0,0,1.47,1.93A.6.6,0,0,1,950.9,97.39Z" transform="translate(0.28 -0.98)"/><path class="cls-18" d="M905.43,121.23a5.26,5.26,0,0,1-2.87-.73c-.26-.16-.33-.31-.06-.49,1.67-1.11,4.42-1.6,6.33-.37.58.38.58.38,0,.7A6.46,6.46,0,0,1,905.43,121.23Z" transform="translate(0.28 -0.98)"/><path class="cls-7" d="M967.21,95.43c.07.6-.65.63-.73.59-.38-.2-.47.1-.66.25s-.2.28-.41.24-.47.27-.74.33-.36.16-.55.22a7.48,7.48,0,0,1-2.7.29,1,1,0,0,1-.62-.14,4.53,4.53,0,0,1-1.28-.24c-.11,0-.24,0-.25-.16a.38.38,0,0,1,.16-.31,14.07,14.07,0,0,1,1.17-.86,2.44,2.44,0,0,1,1.68-.54,9.46,9.46,0,0,1,2.81.07,3.15,3.15,0,0,1,1.26.43C966.67,95.82,966.89,95.34,967.21,95.43Z" transform="translate(0.28 -0.98)"/><path class="cls-9" d="M944.82,102.38a5.72,5.72,0,0,0-4.1-1.53c-.13,0-.28,0-.34-.12s.09-.23.18-.31a7.27,7.27,0,0,0,1.41-2c.18-.38.1-.55-.34-.53s-.65,0-1,0a4.52,4.52,0,0,1-.28-1.37c0-.1.09-.21.23-.14a2.3,2.3,0,0,1,.44.23.7.7,0,0,0,1.1-.1,4.46,4.46,0,0,1,.37,2,.51.51,0,0,0,.37.57c.49.18.87.59,1.4.74a.52.52,0,0,1,.34.4A4.26,4.26,0,0,1,944.82,102.38Z" transform="translate(0.28 -0.98)"/><path class="cls-5" d="M958.17,84a3.32,3.32,0,0,1,1.66-2.73.38.38,0,0,1,.54.08,3,3,0,0,1,.08,3.87,4.53,4.53,0,0,1-.57.59c-.63.56-.79.53-1.24-.2A2.7,2.7,0,0,1,958.17,84Z" transform="translate(0.28 -0.98)"/><path class="cls-8" d="M947.48,88.66a3.53,3.53,0,0,1,2.28-3.32c.46-.22.58.37.69.69.54,1.5-.13,2.6-1.21,3.56l0,0c-.38.21-.7.77-1.17.48a1.57,1.57,0,0,1-.55-1.37Z" transform="translate(0.28 -0.98)"/><path class="cls-2" d="M955.19,109.84a3.56,3.56,0,0,1,1.5-3c.46-.34.63.19.76.42a4.42,4.42,0,0,1-.63,4.7c-.26.27-.4.35-.71,0A3.6,3.6,0,0,1,955.19,109.84Z" transform="translate(0.28 -0.98)"/><path class="cls-8" d="M948.56,102.51c-1-2,0-3.67,1.6-4.67a.4.4,0,0,1,.63.12,3.28,3.28,0,0,1-.34,3.42,6,6,0,0,1-1.38,1.22C948.84,102.76,948.72,102.59,948.56,102.51Z" transform="translate(0.28 -0.98)"/><path class="cls-19" d="M953.34,103.81a6.69,6.69,0,0,1-1.56,1.44.68.68,0,0,1-.51.12,5.15,5.15,0,0,1-.46-1.93,3.12,3.12,0,0,1,1-2.11c.15-.16.28-.33.42-.49a1.3,1.3,0,0,1,.32-.3c.51-.37.89-.23,1,.4.06.28.12,0,.15,0s0,0,0,0,0,0,0,.05A5.35,5.35,0,0,1,953.34,103.81Z" transform="translate(0.28 -0.98)"/><path class="cls-20" d="M928.36,100.73a6.18,6.18,0,0,1,3.69,1,1.84,1.84,0,0,1,.22.17c.32.24.29.4-.09.54s-.66.08-.9.36a10.71,10.71,0,0,0-1.79,0,5.58,5.58,0,0,1-3.12-1c-.15-.1-.38-.19-.33-.37s.26-.23.42-.29A12.59,12.59,0,0,1,928.36,100.73Z" transform="translate(0.28 -0.98)"/><path class="cls-2" d="M946.86,103.22c.55-.07.92.31,1.34.55.17.09.27.29.49.3.22.34.45.66.65,1a3.21,3.21,0,0,1,.3,2.07c-.24.81-.38.86-1.12.42a4.39,4.39,0,0,1-1.83-2A3.47,3.47,0,0,1,946.86,103.22Z" transform="translate(0.28 -0.98)"/><path class="cls-21" d="M934.59,106.58a7.06,7.06,0,0,1,1.92,1.14c.28.27.31.44-.09.56a6,6,0,0,1-5.29-.6c-.76-.52-.74-.62.06-1A9.48,9.48,0,0,1,934.59,106.58Z" transform="translate(0.28 -0.98)"/><path class="cls-17" d="M928.38,108.24a5,5,0,0,1,3.57,1.59c.16.3.32.6.47.91s.08.43-.24.45a4.91,4.91,0,0,1-4.68-2.13c-.39-.7-.34-.79.44-.81Z" transform="translate(0.28 -0.98)"/><path class="cls-20" d="M953.4,114.68a8.48,8.48,0,0,1-1.09,1.07c-.3.23-.53.23-.75-.08A3,3,0,0,1,952,112c.4-.11.57-.5.89-.72s.65-.16.79.22a3.08,3.08,0,0,1-.12,2.83C953.52,114.41,953.47,114.55,953.4,114.68Z" transform="translate(0.28 -0.98)"/><path class="cls-14" d="M938.32,116c.13.4-.16.79-.25,1.21s-.27.47-.66.24a3.41,3.41,0,0,1-1.71-4.11c.16-.51.37-.6.84-.33A3.43,3.43,0,0,1,938.32,116Z" transform="translate(0.28 -0.98)"/><path class="cls-8" d="M957.82,119.45c-.18.35,0,.72-.06,1.08a3.66,3.66,0,0,1-1,2.1c-.16.18-.26.21-.47,0a3.47,3.47,0,0,1-.76-3.6.58.58,0,0,0,.09-.46,3,3,0,0,0,.68-.69c.21-.22.34-.24.52,0a2.35,2.35,0,0,1,.66,1.1A.57.57,0,0,0,957.82,119.45Z" transform="translate(0.28 -0.98)"/><path class="cls-8" d="M931.08,121.33a5.44,5.44,0,0,1,4.95.18,3.63,3.63,0,0,1,.86.75c.17.18.15.3-.11.4a6.22,6.22,0,0,1-2.09.33A4.57,4.57,0,0,1,931.08,121.33Z" transform="translate(0.28 -0.98)"/><path class="cls-8" d="M937.2,125.08a3.73,3.73,0,0,1,.18-1.41c.16-.37.35-.46.71-.21a3.45,3.45,0,0,1,1.65,3.7,1.71,1.71,0,0,0,0,.32.68.68,0,0,1-.38.74,3.66,3.66,0,0,1-1.45-1c0-.47-.43-.75-.52-1.19A4.73,4.73,0,0,1,937.2,125.08Z" transform="translate(0.28 -0.98)"/><path class="cls-22" d="M936.82,117.32a2.84,2.84,0,0,1,1.11,1.57c.16.46-.3.4-.51.39a7.53,7.53,0,0,1-1.57-.23,4.22,4.22,0,0,1-2.71-2.21c-.24-.47-.14-.61.39-.61a4,4,0,0,1,2.16.43A1.06,1.06,0,0,0,936.82,117.32Z" transform="translate(0.28 -0.98)"/><path class="cls-14" d="M933.59,129.3a4.77,4.77,0,0,1-2.92-1c-.44-.34-.39-.47.07-.77s.94,0,1.32-.38a3.37,3.37,0,0,1,2.1.21c.39.39,1,.53,1.35,1s.49.51-.11.79l-.19.09A1.52,1.52,0,0,1,933.59,129.3Z" transform="translate(0.28 -0.98)"/><path class="cls-23" d="M927.88,123.34a4.41,4.41,0,0,1-3.27-1.1c-.26-.23-.34-.34,0-.53a4.91,4.91,0,0,1,5.05.65c.14.12.32.25.28.44s-.27.2-.43.28A4.33,4.33,0,0,1,927.88,123.34Z" transform="translate(0.28 -0.98)"/><path class="cls-14" d="M884.29,114.38a4.8,4.8,0,0,1,2.11-1.2,4.56,4.56,0,0,1,3.07,0c.21.07.48.12.52.35s-.23.25-.38.35a5.48,5.48,0,0,1-4.58.82A6.9,6.9,0,0,1,884.29,114.38Z" transform="translate(0.28 -0.98)"/><path class="cls-9" d="M990.37,120.85a7.43,7.43,0,0,1,1.81-.35,16.64,16.64,0,0,1,2-.55,6.55,6.55,0,0,0,.75.55,1.32,1.32,0,0,1,.71,1l-1.92,1.14a3.28,3.28,0,0,1-1.21-1,1.15,1.15,0,0,0-1-.48A2.23,2.23,0,0,1,990.37,120.85Z" transform="translate(0.28 -0.98)"/><path class="cls-6" d="M933.59,129.3a8.08,8.08,0,0,0,1.62-.15l.6,1.35c-.77.41-.78.48-.09,1.07a4.36,4.36,0,0,0,1.91,1.09c.13,0,.3.05.37.21a.89.89,0,0,1-.56.87c-.62-.23-1.13-.66-1.76-.86a3.1,3.1,0,0,0-.93-.27A15.48,15.48,0,0,0,933.59,129.3Z" transform="translate(0.28 -0.98)"/><path class="cls-24" d="M932,140.58a3.69,3.69,0,0,1-.56,1.38c-.13-.05-.27-.13-.38.06a.2.2,0,0,1-.32.07c-.32-.24-.63-.09-1,0-.06-.06-.08-.15,0-.18.63-.27.31-.52,0-.79a4.5,4.5,0,0,0-1.31-.94,2.44,2.44,0,0,1-.8-1.57.26.26,0,0,1,.24-.1,3.09,3.09,0,0,1,2.29,1,1.93,1.93,0,0,0,1.29.73A.48.48,0,0,1,932,140.58Z" transform="translate(0.28 -0.98)"/><path class="cls-25" d="M935.45,141.7a9.76,9.76,0,0,0,2.87-3.35c.07,0,.15.07.16.13a5.44,5.44,0,0,1,.23,2c-.48.84-.83,1.75-1.23,2.64a.72.72,0,0,0-.56-.53A3.6,3.6,0,0,1,935.45,141.7Z" transform="translate(0.28 -0.98)"/><path class="cls-26" d="M960.8,97.21a14.33,14.33,0,0,0,3.4-.26c.16.43-.24.64-.39,1a1.38,1.38,0,0,1-.44.49,2.49,2.49,0,0,0-1.15,1.45l-1.64,0A8.5,8.5,0,0,0,960.8,97.21Z" transform="translate(0.28 -0.98)"/><path class="cls-27" d="M924.76,110.92a18.73,18.73,0,0,0,1.67-2,6.44,6.44,0,0,1-.2,2.89l-2.64.66-.3-.43a3,3,0,0,1,1.13-.8C924.65,111.25,924.67,111.05,924.76,110.92Z" transform="translate(0.28 -0.98)"/><path class="cls-26" d="M937.9,127.18l1.47,1a3.54,3.54,0,0,1-.49,2.09,3.94,3.94,0,0,1-1.49-.08A21.86,21.86,0,0,0,937.9,127.18Z" transform="translate(0.28 -0.98)"/><path class="cls-6" d="M939.38,98.07l-2.16.65a1.78,1.78,0,0,1-.81-1.92l1.67.06C938.19,97.61,938.74,97.89,939.38,98.07Z" transform="translate(0.28 -0.98)"/><path class="cls-28" d="M952,112a10,10,0,0,0-.71,1.52,4.43,4.43,0,0,0,.24,2.2v.13s-.09,0-.1,0a26.2,26.2,0,0,0-1.53-2.48.27.27,0,0,1,0-.26,8.66,8.66,0,0,1,2.06-1.25Z" transform="translate(0.28 -0.98)"/><path class="cls-29" d="M934.16,127.32l-2.1-.21-.72-.72a13.3,13.3,0,0,1,1.47-.84A18,18,0,0,1,934.16,127.32Z" transform="translate(0.28 -0.98)"/><path class="cls-30" d="M996.31,118.77c.09-.2,0-.28-.17-.38-.58-.34-1.13-.7-1.7-1a4.15,4.15,0,0,1,1.53,0c.3.07.51-.17.76-.26s.33-.23.55-.2C997.26,118.19,997,118.75,996.31,118.77Z" transform="translate(0.28 -0.98)"/><path class="cls-31" d="M953.71,101l-.09.26s-.06,0-.07-.06c-.31-.91-.32-.91-1.13-.48l-.21.08a6.61,6.61,0,0,1,1.41-2.25Z" transform="translate(0.28 -0.98)"/><path class="cls-32" d="M913.42,112.22c.29.55.59,1.09.89,1.64-.29-.07-.58-.11-.85-.2s-.65-.29-.66-.71A.74.74,0,0,1,913.42,112.22Z" transform="translate(0.28 -0.98)"/><path class="cls-33" d="M993.62,112.15a5,5,0,0,1-1.25-.65,6.25,6.25,0,0,1,1.28-.69A6,6,0,0,1,993.62,112.15Z" transform="translate(0.28 -0.98)"/><path class="cls-34" d="M962.28,95.1l-1.68.54,0-.63a15.49,15.49,0,0,0,1.67-.36Z" transform="translate(0.28 -0.98)"/><path class="cls-35" d="M981.29,92.3a12,12,0,0,1,1.55-1.55l0,.27-1.32,1.53A.26.26,0,0,0,981.29,92.3Z" transform="translate(0.28 -0.98)"/><path class="cls-14" d="M936.82,117.32c-.62.28-1.09,0-1.13-.66A1.49,1.49,0,0,1,936.82,117.32Z" transform="translate(0.28 -0.98)"/><path class="cls-5" d="M987.16,94.2c-.18-.11,0-.34-.18-.49-.24,0-.09.45-.4.37,0-.52.44-.75.69-1.1v0c.26.43.39.85-.12,1.2Z" transform="translate(0.28 -0.98)"/><path class="cls-36" d="M938.88,130.26c.16-.7.33-1.39.49-2.09l.36-.69.69.69c-.43.43-.43.45,0,.88a6.89,6.89,0,0,0,2.5,1.41c.18.07.41,0,.43.33l1.36,1.51c0,.27-.29.25-.46.31a5,5,0,0,0-2.26,1.77.67.67,0,0,0-.09.14c-.1.23-.28.48-.11.71s.44.1.67.05a4.91,4.91,0,0,0,2.86-1.61.37.37,0,0,1,.37-.19l1.17,1.51s.11,0,.13.09a10.6,10.6,0,0,0,1.72,2.17.25.25,0,0,1,.06.25c.59,1,1.19,2.06,1.76,3.09.22.39.55.82.51,1.2s-.69.26-1.06.38a6.87,6.87,0,0,1-3.31.11,9.38,9.38,0,0,0-3.26.06,15.17,15.17,0,0,0,2-2.13,9.57,9.57,0,0,0,1.38-3c.1-.42-.06-.49-.39-.49a9.11,9.11,0,0,0-5.88,2c-.67.52-1.15,1.21-1.77,1.77l-.39-2.13c.1-.39.19-.78.31-1.17.17-.59.11-.66-.51-.64-.11,0-.21,0-.32,0a.86.86,0,0,1-.29-.91l0,0c1.09-.48,1.51-.34.2-1.45-.11-.1-.28-.18-.3-.36l.56-.87c.45-.11.86.13,1.29.16a6.66,6.66,0,0,0,2.57-.37c.46-.15.34-.35.14-.58a5.17,5.17,0,0,0-2.17-1.48A3.84,3.84,0,0,1,938.88,130.26Z" transform="translate(0.28 -0.98)"/><path class="cls-2" d="M953.87,130.16c.6,0,1.18-.22,1.79-.19.81.05.91.21.5.91a4.7,4.7,0,0,1-.4.59l-.45.6a7.38,7.38,0,0,1,3.06.41,1.58,1.58,0,0,1,1.21.77c.6.56.6.56-.16.92a2.85,2.85,0,0,0-.37.23c-.32.1-.6.4-1,.22a7.89,7.89,0,0,1-3.75-.57A.41.41,0,0,1,954,134a1.37,1.37,0,0,0-1.58-.28,1.17,1.17,0,0,1-.9,0l-.27,0c-.92,0-1-.17-.53-1a2.46,2.46,0,0,0,.48-.92c.39-.24.15-.37-.1-.5-.58-.11-1.23.07-1.74-.4a.26.26,0,0,0-.35,0,.38.38,0,0,1-.31-.21,18.76,18.76,0,0,0-1.49-1.21.65.65,0,0,1-.28-.6c0-.26.27-.26.45-.29.48-.09,1-.16,1.46-.22.17,0,.31,0,.34-.27a6.68,6.68,0,0,1,2-3.95,4.24,4.24,0,0,1,1.68-1.26c.27-.15.44,0,.54.27a7.94,7.94,0,0,1,.26,3.93,6.65,6.65,0,0,1-1,1.95.4.4,0,0,0,.06.62C953,129.88,953.31,130.33,953.87,130.16Z" transform="translate(0.28 -0.98)"/><path class="cls-37" d="M966.4,130a1.36,1.36,0,0,1-.39.69c-.2.18-.15.34,0,.52a10.14,10.14,0,0,1-3.18,3.52,35.16,35.16,0,0,0-3.09,2.54,2.26,2.26,0,0,1,.33-.9c.53-1,1.1-2.07,1.63-3.12.11-.22.29-.27.45-.37a5,5,0,0,0,2.13-2.23c.88.12.47-.5.49-.88a2.62,2.62,0,0,1,.36-1.46,2.37,2.37,0,0,0,.33-1.34c-.15-.2,0-.39,0-.58a4.82,4.82,0,0,0-.34-2.32c-.14-.31-.1-.51.2-.67a5.37,5.37,0,0,0,2-2c.31-.54,1-.67,1.4-1.11a3.13,3.13,0,0,0,1.14-2.23.18.18,0,0,1,0-.27,1.18,1.18,0,0,1,1.25.1,5.71,5.71,0,0,1-.4,3.08c-.16.2-.3.07-.41,0s-.38-.15-.59,0a3.44,3.44,0,0,0-1.68,3.7c.14.61.51.33.83.33a.51.51,0,0,1-.06.52c-.75,1.47-1.56,2.91-2.22,4.41A.37.37,0,0,1,966.4,130Z" transform="translate(0.28 -0.98)"/><path class="cls-38" d="M949.91,113a15.94,15.94,0,0,1,1.64,2.76l.57,1.62c0,.14,0,.22-.11.29a5.38,5.38,0,0,0-1.2,1.64c-.07.14-.13.32-.36.22,0-.32-.16-.46-.5-.26s-.84.36-1,.88c0,.13-.17.23-.36.29-.26-.84.37-1.44.55-2.15,0-.09.11-.19.2-.16.63.16.66-.31.71-.7a3,3,0,0,0-1.38-3A7.36,7.36,0,0,0,945.5,113a11.19,11.19,0,0,0-1.92,0c-.18,0-.36.1-.51-.08a19.52,19.52,0,0,0,.43-3,9.24,9.24,0,0,0,.11-.92l.36-.8c.09-.18.12-.31-.14-.34.15-.85.15-.85,1-.73l2.18.32a1.33,1.33,0,0,1,1.2,1c.23.63.57,1.22.86,1.83a3.64,3.64,0,0,0,0,2.52C949.22,113.24,949.48,113.26,949.91,113Z" transform="translate(0.28 -0.98)"/><path class="cls-39" d="M959.58,133.25c-.41-.25-.81-.51-1.21-.77a28.86,28.86,0,0,0-.8-4.7,8.52,8.52,0,0,1-.17-2.36,3.58,3.58,0,0,1,.8-2.17,20.53,20.53,0,0,0,1.29-1.77,5.11,5.11,0,0,0,1.65,4.24.38.38,0,0,1,.13.23,2.7,2.7,0,0,1-.56,1.68.6.6,0,0,1-.2.07c-.51,0-.49.26-.35.61.06.13.1.27.15.4-.1.9-.19,1.8-.28,2.69A7.25,7.25,0,0,1,959.58,133.25Z" transform="translate(0.28 -0.98)"/><path class="cls-36" d="M944.05,120.2a4.27,4.27,0,0,0-1.8.57.56.56,0,0,1-.41.12,5.31,5.31,0,0,0-.16-1.14,5.67,5.67,0,0,1,.23-3.7c.16-.54.37-1.07.56-1.6a.43.43,0,0,1,.46-.08,6.78,6.78,0,0,0,3.84-.1c.67-.18.74-.11.7.58a3.16,3.16,0,0,0,.42,1.8c.1.18.29.35.15.6l-.55,1.19c-.34,0-.45-.26-.65-.43a5.13,5.13,0,0,0-3.65-1.41c-.51,0-.56.1-.38.56a7,7,0,0,0,.51,1c.09.17.28.31.2.54a1.88,1.88,0,0,0,.46,1C944.09,119.85,944.24,120,944.05,120.2Z" transform="translate(0.28 -0.98)"/><path class="cls-10" d="M948,117.25a5.33,5.33,0,0,1-.74-1.85,3.61,3.61,0,0,1,0-.81c0-.2,0-.38-.28-.27a6.41,6.41,0,0,1-4.32.14,1.22,1.22,0,0,0-.27,0c-.22-.24-.55-.28-.79-.46s-.27-.34,0-.48l1.38-.62a6.65,6.65,0,0,1,2.88,0c1.73.59,3.49,1.22,4.17,3.22a3.37,3.37,0,0,1-.13,2.15c-.07.22-.28.15-.4,0a.31.31,0,0,0-.44,0C948.93,117.82,948.41,117.61,948,117.25Z" transform="translate(0.28 -0.98)"/><path class="cls-2" d="M950.45,119.57c.29-.19.33-.54.5-.81a6.77,6.77,0,0,1,1.17-1.33l1.08-.64c.31-.19.45-.14.59.23a4.71,4.71,0,0,1-.81,4.54c-.08.42-.43.62-.7.87a4.9,4.9,0,0,1-1.1.76c-.55.14-.69-.22-.78-.64l-.18-.9c-.18-.18,0-.39-.07-.59Z" transform="translate(0.28 -0.98)"/><path class="cls-8" d="M943.52,118.68a7.07,7.07,0,0,1-.92-1.6c-.21-.54-.13-.66.43-.67a5.73,5.73,0,0,1,4.46,2,7.21,7.21,0,0,1,.69,1.49c.12.57.08.66-.5.6a6.18,6.18,0,0,1-4-1.72A1.18,1.18,0,0,0,943.52,118.68Z" transform="translate(0.28 -0.98)"/><path class="cls-40" d="M943.36,130.79c-.29-.25-.67-.24-1-.38a6.27,6.27,0,0,1-2.15-1.41c-.51-.55-.51-.57.21-.83a6,6,0,0,1,5.14.8,4.36,4.36,0,0,1,1,1c.22.3.17.47-.18.55a6,6,0,0,1-2.39.24A.88.88,0,0,0,943.36,130.79Z" transform="translate(0.28 -0.98)"/><path class="cls-8" d="M948.78,137.5a8.37,8.37,0,0,1-1.91-2.51c.11-.19,0-.36,0-.53a4.51,4.51,0,0,1,.33-2.85c.12-.29.25-.34.53-.16a4.61,4.61,0,0,1,1.63,5.78C949.2,137.49,949.05,137.59,948.78,137.5Z" transform="translate(0.28 -0.98)"/><path class="cls-21" d="M943.58,125.05a1.43,1.43,0,0,0-.61-.42c-.16-.09-.38-.15-.4-.34s.22-.26.37-.35a5,5,0,0,1,2.55-.65.6.6,0,0,1,.77,0,6.23,6.23,0,0,1,1.85.76c.13.09.32.16.33.34s-.22.21-.36.27l-1.26.62s-.07,0-.12,0h-1.87A2.1,2.1,0,0,1,943.58,125.05Z" transform="translate(0.28 -0.98)"/><path class="cls-41" d="M945.7,133.48a5.3,5.3,0,0,1-2.24,1.67,5.8,5.8,0,0,1-1.54.33c-.33,0-.41-.12-.34-.43a3.78,3.78,0,0,1,1.85-2.2,8.2,8.2,0,0,1,1.29-.55c.31,0,.61,0,.92,0,.49,0,.51.19.35.55C945.89,133,945.8,133.26,945.7,133.48Z" transform="translate(0.28 -0.98)"/><path class="cls-42" d="M951.48,133.72a8.38,8.38,0,0,0,1.63-.38c.2-.1.33.09.47.19s.5.34.74.52c-.2,1.24-.4,2.48-.6,3.74-.29-.06-.31-.33-.39-.53a6.94,6.94,0,0,0-1.5-2.46C951.56,134.54,951.57,134.09,951.48,133.72Z" transform="translate(0.28 -0.98)"/><path class="cls-43" d="M943.58,125.05c.46-.09.83.2,1.25.26.18.62.34,1.23-.32,1.7-.13.1-.18.31-.28.5A2,2,0,0,1,943.58,125.05Z" transform="translate(0.28 -0.98)"/><path class="cls-44" d="M968.52,135.43a.94.94,0,0,1-.78-.15c1.29-.95,2.6-1.88,3.82-3a3.37,3.37,0,0,1-1.88,2.34A3.08,3.08,0,0,0,968.52,135.43Z" transform="translate(0.28 -0.98)"/><path class="cls-45" d="M951.18,123.19c.16-.36.53-.48.82-.7a7.16,7.16,0,0,0,1-.93l.36,1.54a.37.37,0,0,0-.6-.11l-1.62,1.1Z" transform="translate(0.28 -0.98)"/><path class="cls-46" d="M949.28,122a3.6,3.6,0,0,1-.18,3.5c-.07.09-.16.2-.26.1a.39.39,0,0,1-.05-.46,3.43,3.43,0,0,0,.35-1A16.65,16.65,0,0,0,949.28,122Z" transform="translate(0.28 -0.98)"/><path class="cls-47" d="M946.26,123.31l-.77,0c-.15-.25-.28-.51-.45-.74a.35.35,0,0,1,.05-.52c.4-.42.5-.41.74.11A3.51,3.51,0,0,1,946.26,123.31Z" transform="translate(0.28 -0.98)"/><path class="cls-48" d="M958.07,134.62c.33-.07.62-.3,1-.22a13,13,0,0,1-1,1.81A4.63,4.63,0,0,1,958.07,134.62Z" transform="translate(0.28 -0.98)"/><path class="cls-49" d="M948.66,130.63c.19-.06.25.08.31.21l.28,1.48C948.43,131.65,948.32,131.31,948.66,130.63Z" transform="translate(0.28 -0.98)"/><path class="cls-50" d="M961.73,130c.28.15.65.12.84.44-.21.27-.47.68-.76.61s0-.54-.09-.83A.85.85,0,0,1,961.73,130Z" transform="translate(0.28 -0.98)"/><path class="cls-51" d="M946.7,125.3h.12s.08.1.06.14c-.15.51,0,1.06-.26,1.55A11.89,11.89,0,0,0,946.7,125.3Z" transform="translate(0.28 -0.98)"/><path class="cls-52" d="M951.06,131.28c.2,0,.5-.13.55.14a.33.33,0,0,1-.45.36C951.13,131.62,951.1,131.45,951.06,131.28Z" transform="translate(0.28 -0.98)"/><path class="cls-53" d="M950.15,121.06c.14.18.07.39.07.59h-.55Z" transform="translate(0.28 -0.98)"/><path class="cls-54" d="M962.11,111.82l.06-.46a2.92,2.92,0,0,1,1.16-.69,4,4,0,0,0,1.78-1.73,1.46,1.46,0,0,0,.16-.41c.09-.43,0-.56-.47-.56-.16,0-.37.14-.46-.12l.69-.91c.42-.29.88-.12,1.32-.15s.55-.08.32-.53a7.74,7.74,0,0,1-.52-.83.58.58,0,0,1,.2-.43,8.79,8.79,0,0,0,1.24-2,8.73,8.73,0,0,1,.54-.7,2.83,2.83,0,0,0,.42-2.36c-.11-.57-.3-.63-.79-.33a4.75,4.75,0,0,0-1,.66c-.15.14-.34.31-.56.07a12.4,12.4,0,0,1,0-2,5.84,5.84,0,0,0,1.85-1c.22-.21.54-.42.72.1.11.29.33.3.58.19a7.52,7.52,0,0,0,2.8-2c.1-.11.12-.41.4-.2-.06.84-.11,1.68-.16,2.52-.73-.43-1.24.06-1.75.45a2.88,2.88,0,0,0-1.18,2.84c.09.75.38.9,1,.51a5,5,0,0,0,1.35-1.2c.1-.13.19-.43.43-.12l-.08,1.43c-.17.26-.47.33-.72.47a3.45,3.45,0,0,0-1.93,2.47c-.08.47-.13,1,.23,1.29s.8-.17,1.18-.36.43-.35.66-.5.32,0,.32.21a20.12,20.12,0,0,0-.14,2.69c-.07,2.3-.45,4.58-.63,6.88a.71.71,0,0,1-.32.69c-.44.3-.73.75-1.13,1.08a.59.59,0,0,0-.36.67c.06.43-.13.52-.46.56a2.21,2.21,0,0,0-.59.12c-.48.23-.78.16-.93-.4-.1-.36-.39-.21-.58-.1a4.31,4.31,0,0,0-1.44,1.14c-.1.14-.24.42-.45.2s-.75-.41-.53-.88a6.82,6.82,0,0,0,.71-1.82,4.41,4.41,0,0,0-.27-2.1c-.12-.35-.33-.45-.67-.24a4.78,4.78,0,0,0-2.39,2.79c-.07.27-.2.53-.57.39.2-1.25.39-2.5.59-3.76a1.91,1.91,0,0,1,1.18-.12,5.4,5.4,0,0,0,3.38-1.09c.15-.11.37-.2.35-.4s-.31-.23-.49-.27a5.35,5.35,0,0,0-3.59.3C962.5,111.83,962.32,112,962.11,111.82Z" transform="translate(0.28 -0.98)"/><path class="cls-55" d="M960.17,120.21l.75-1.75c.34.47.94.69,1.21,1.23a.22.22,0,0,0,.18.1c.69-.22,1.31.25,2,.21.21,0,.32.08.25.3a4.06,4.06,0,0,0,0,2.6c-.74-.65-1-.55-1.72.7A5.56,5.56,0,0,0,960.17,120.21Z" transform="translate(0.28 -0.98)"/><path class="cls-56" d="M960.71,127.63c.18-.56.37-1.12.56-1.68.57.19,1.07.42,1.12,1.15a4.89,4.89,0,0,0,.31,1A12.89,12.89,0,0,0,960.71,127.63Z" transform="translate(0.28 -0.98)"/><path class="cls-57" d="M965.43,126.94a.68.68,0,0,1,.08.9,8,8,0,0,0-.77,1.9c-.61-.39-.65-.53-.25-1.05a4.57,4.57,0,0,0,.7-1.35C965.25,127.19,965.27,127,965.43,126.94Z" transform="translate(0.28 -0.98)"/><path class="cls-58" d="M969,118c.12-.15.55-.08.29-.52-.07-.12,0-.75.48-.8a.21.21,0,0,1,0,.25.71.71,0,0,0,.09.82V118Z" transform="translate(0.28 -0.98)"/><path class="cls-42" d="M977.87,114.05a2.9,2.9,0,0,1,.52-1.54,2.48,2.48,0,0,1,.42.74,4.35,4.35,0,0,1-.3,1c-.24.65-.08.87.6.88h.16a9.69,9.69,0,0,1-.55,2,.91.91,0,0,0-.1.47,3.79,3.79,0,0,1-.23,1.89,5.23,5.23,0,0,0-2.57,1.18,9.39,9.39,0,0,0-.76.91c-.22-.18-.18-.43-.16-.65a1.28,1.28,0,0,0-.44-1.11.53.53,0,0,1-.12-.22,7.87,7.87,0,0,1,1.18-2c.3-.43.63-.85,1-1.26s.57-.71.91-1A1.16,1.16,0,0,0,977.87,114.05Z" transform="translate(0.28 -0.98)"/><path class="cls-59" d="M980.24,111.61c0-.41.3-.63.52-.91a6,6,0,0,0,.47-.65c.16.29.4.27.66.18a6.89,6.89,0,0,0,3.3-2.32c.08-.12.15-.31.31-.27s.2.25.21.41a4.66,4.66,0,0,0,.61,1.56c-.05.21-.09.44-.38.45A8.34,8.34,0,0,0,980.24,111.61Z" transform="translate(0.28 -0.98)"/><path class="cls-60" d="M983.38,114a2.5,2.5,0,0,1-.45,1.58,2.28,2.28,0,0,0-.95-.9A3,3,0,0,1,983.38,114Z" transform="translate(0.28 -0.98)"/><path class="cls-61" d="M985.94,110.06l.38-.45a5.5,5.5,0,0,1,.66.92c-.27.25-.63.12-.93.23s-.22-.08-.17-.22A1,1,0,0,0,985.94,110.06Z" transform="translate(0.28 -0.98)"/><path class="cls-62" d="M981.68,114.68l-.31.64c-.23-.08-.14-.29-.21-.43C981.26,114.65,981.47,114.66,981.68,114.68Z" transform="translate(0.28 -0.98)"/><path class="cls-63" d="M985.39,111.81c0,.14,0,.28,0,.42,0,.34-.13.41-.41.25A1,1,0,0,1,985.39,111.81Z" transform="translate(0.28 -0.98)"/><path class="cls-4" d="M934,138.08a11.38,11.38,0,0,0-1.31,1.38.21.21,0,0,1-.26,0c-.49-.54-1.22-.81-1.68-1.38a1,1,0,0,0-.83-.33c-.36,0-.74.06-1-.28a12.16,12.16,0,0,0,1.12-2.22c.05-.18.16-.16.29-.1a6.51,6.51,0,0,1,1.12.56,10,10,0,0,0,2.26,2C933.85,137.81,934,137.9,934,138.08Z" transform="translate(0.28 -0.98)"/><path class="cls-64" d="M928.94,137.45a3.33,3.33,0,0,0,1.4.16.37.37,0,0,1,.38.14c.51.76,1.41,1.05,2,1.71l-.77,1.12a1.8,1.8,0,0,0-1.07-.37.34.34,0,0,1-.29-.12,4.49,4.49,0,0,0-2.72-1.61A3.51,3.51,0,0,1,928.94,137.45Z" transform="translate(0.28 -0.98)"/><path class="cls-65" d="M934,138.08a11.28,11.28,0,0,1-2.15-1.69,1.42,1.42,0,0,1-.41-.7l1.76.35a6.75,6.75,0,0,0,2.33,0,1.14,1.14,0,0,1,.23,1Z" transform="translate(0.28 -0.98)"/><path class="cls-66" d="M935.79,137a3.75,3.75,0,0,1-.23-1,14.15,14.15,0,0,0,2-.45l.29.91Z" transform="translate(0.28 -0.98)"/><path class="cls-67" d="M927.63,138.58l.8,1.57c-.67-.2-1.29-.57-2.06-.73C926.73,139,927.27,138.9,927.63,138.58Z" transform="translate(0.28 -0.98)"/><path class="cls-36" d="M936.41,96.8a3.59,3.59,0,0,0,.81,1.92c-.54.31-1.12.55-1.64.91a11.94,11.94,0,0,0-1.53,1.3c-.09.08-.13.24-.3.17a1.49,1.49,0,0,1,0-.55,7.13,7.13,0,0,0-.26-3.46c.07-.16.46-.21.31-.36s-.19-.61-.6-.66c-.83-.09-.83-.11-.59-.95.06-.22.06-.47.31-.66A4.94,4.94,0,0,0,936.41,96.8Z" transform="translate(0.28 -0.98)"/><path class="cls-68" d="M932.1,97.85l.27,1.41c-.41-.38-.47-.92-.9-1.17A.52.52,0,0,1,932.1,97.85Z" transform="translate(0.28 -0.98)"/><path class="cls-69" d="M962.22,99.84a1.22,1.22,0,0,1,.62-1.22A3.44,3.44,0,0,0,964.2,97c.37-.21.73-.43,1.11-.61.13-.06.11.08.1.17a2.26,2.26,0,0,0-1,1.65c-.08.48.23.45.54.39.29.35.18.77.15,1.16A11.29,11.29,0,0,1,965,101a4,4,0,0,0,0,1.79,2.07,2.07,0,0,1-.15,1.7c-.17.12-.35,0-.53,0a13.84,13.84,0,0,0-1.56-.3c-.66,0-.66,0-.67-.71l0-1.66a8.22,8.22,0,0,0,2.2-.77c.11-.07.32-.08.3-.27s-.16-.19-.28-.24A8.15,8.15,0,0,0,962.22,99.84Z" transform="translate(0.28 -0.98)"/><path class="cls-70" d="M964.81,104.5a4.41,4.41,0,0,0-.06-2,6.3,6.3,0,0,1,.18-2.4,6.63,6.63,0,0,0,.06-1.54l1.31-.23a6.31,6.31,0,0,1,.05,2.08c.13.31-.12.52-.24.74a2.84,2.84,0,0,0-.25,2.08c.12.53.29.6.77.36.23-.12.43-.27.65-.41s.22-.22.37-.07a6.85,6.85,0,0,1-1.44,2.27s-.06.07-.08.06A2.88,2.88,0,0,1,964.81,104.5Z" transform="translate(0.28 -0.98)"/><path class="cls-71" d="M953.87,130.16c-.37.3-.66.25-.94-.16-.18-.26-.64-.39-.65-.69s.33-.5.48-.77a6.2,6.2,0,0,0,.64-1.32c0-.12.06-.21.2-.19A25.43,25.43,0,0,0,953.87,130.16Z" transform="translate(0.28 -0.98)"/><path class="cls-72" d="M981.66,118.31c-.42.26-.15.43.09.6a.32.32,0,0,0-.06.24,1.68,1.68,0,0,1-1.63,1.82c.69-1.47.7-3.07,1.18-4.56.25.4.48.76.26,1.23C981.39,117.88,981.61,118.08,981.66,118.31Z" transform="translate(0.28 -0.98)"/><path class="cls-73" d="M990.13,116.11l-1.75-.11a2,2,0,0,1,2.57-.82C990.78,115.59,990.35,115.76,990.13,116.11Z" transform="translate(0.28 -0.98)"/><path class="cls-74" d="M985.45,116.26a1.4,1.4,0,0,1-1.13.4,4.47,4.47,0,0,0,.79-2.47C985.88,114.78,985.57,115.54,985.45,116.26Z" transform="translate(0.28 -0.98)"/><path class="cls-2" d="M938.44,108.94c-.4.31-.64.19-.78-.28s-.32-.88-.48-1.33a2.89,2.89,0,0,1,.24-2,4,4,0,0,1,.68-1.18c.32-.33.56-.73.89-1.05s.77-.54,1.17-.77c.2-.12.39-.21.6,0h0a1.83,1.83,0,0,1,.48.91c.59,2.43-.42,4.22-2.38,5.61A.52.52,0,0,1,938.44,108.94Z" transform="translate(0.28 -0.98)"/><path class="cls-65" d="M940.76,102.29c-.47,0-.77.34-1.12.56s-.38.34-.65.36c-.56,0-.62.51-.77.9a6.15,6.15,0,0,0-1,3.22c-.1.15-.19.16-.27,0a6.28,6.28,0,0,1-.79-1.84,6.14,6.14,0,0,0-1.11-2.3,11.38,11.38,0,0,0,4.56-2c.29-.22.47-.3.62.15A5.59,5.59,0,0,0,940.76,102.29Z" transform="translate(0.28 -0.98)"/><path class="cls-75" d="M938.44,108.94a10.57,10.57,0,0,0,1.49-1.26,4.51,4.51,0,0,0,.82-5.4,1.17,1.17,0,0,1,.58.56c0,.55.06,1.11.08,1.67a.37.37,0,0,0,.23.35c.48.26.51.69.45,1.18a5.18,5.18,0,0,0-.16,1.92,5.56,5.56,0,0,0-2.85,2,.5.5,0,0,1-.63.16C938.45,109.71,938.44,109.33,938.44,108.94Z" transform="translate(0.28 -0.98)"/><path class="cls-76" d="M1002.5,114.51c-.39.12-.72,0-.84-.37a3.15,3.15,0,0,0-1.12-1.52,1.13,1.13,0,0,1,1.19,0,4,4,0,0,0,1.87.55A2.9,2.9,0,0,1,1002.5,114.51Z" transform="translate(0.28 -0.98)"/><path class="cls-5" d="M990.12,91.2a1.67,1.67,0,0,1,.39,0c.33.12.91-.36,1,.46,0,.39.35.74,0,1.18-.12.17-.08.47-.11.72h-.17c0-.51,0-1,0-1.53s-.09-.55-.58-.57c-.09.22.39.28.15.54a.52.52,0,0,1-.43.19c-.19,0-.4,0-.44-.24s-.14-.44.19-.53,0-.16,0-.24Z" transform="translate(0.28 -0.98)"/><path class="cls-5" d="M987.16,94.2a1.45,1.45,0,0,0,.12-1.2c.3.3.54.36.74-.12a.48.48,0,0,1,.52-.33.3.3,0,0,1,.27.3.35.35,0,0,1-.31.44c-.27,0-.5.12-.57.42S987.56,94.25,987.16,94.2Z" transform="translate(0.28 -0.98)"/><path class="cls-5" d="M989.91,93.32c.25,0,.46.05.44.35a.43.43,0,0,1-.86,0C989.46,93.39,989.66,93.31,989.91,93.32Z" transform="translate(0.28 -0.98)"/><path class="cls-5" d="M989.29,94.32c.21,0,.39.15.38.38s-.14.46-.37.47-.37-.21-.37-.46S989,94.32,989.29,94.32Z" transform="translate(0.28 -0.98)"/><path class="cls-5" d="M989.52,92.23a.17.17,0,0,1-.21.18c-.17,0-.25-.12-.27-.28s0-.21.12-.21A.37.37,0,0,1,989.52,92.23Z" transform="translate(0.28 -0.98)"/><path class="cls-37" d="M973.38,125.25a2.2,2.2,0,0,1-.63,1.68c-.27.32-.49.68-.73,1a7.79,7.79,0,0,0-2,.21.55.55,0,0,1,0-.53c.69-1.57,1.46-3.1,2.06-4.71a.89.89,0,0,1,.27-.34l.54-.36c.18-.1.37-.17.54,0a.81.81,0,0,1-.05.82c-.44.37-.89.74-1.32,1.12s-.3.49.13.66Z" transform="translate(0.28 -0.98)"/><path class="cls-77" d="M973.4,123.07l0-.9c-.14-.19,0-.34.07-.49a3.53,3.53,0,0,0,.69-1.7c0-.17,0-.38.3-.36a1.09,1.09,0,0,1,.6,1.21,3.41,3.41,0,0,0,0,.71C974.92,122.5,974.21,122.84,973.4,123.07Z" transform="translate(0.28 -0.98)"/><path class="cls-2" d="M974.43,119.62s-.09,0-.09.06a5.61,5.61,0,0,1-1,2.49c-.41,0-.56.5-1,.48a2.45,2.45,0,0,1-.78-2.28,3.21,3.21,0,0,1,.76-1.91.88.88,0,0,0,.29-.47c-.51-.18-1,.06-1.52-.16l-1.3-.09c-.78-.28-.16-.7-.11-1.07a5.19,5.19,0,0,1,1.19-1.15.66.66,0,0,0,.31-.53c0,.07.06.23.17.15.5-.37,1.13-.49,1.64-.83a4,4,0,0,1,2.88-.31,4.91,4.91,0,0,1,1.53.19.32.32,0,0,0,.41-.14.68.68,0,0,1-.09,1c-.4.4-.78.84-1.18,1.26a5.86,5.86,0,0,1-2.89,1.32c-.05,0,0,.08,0,0a2.15,2.15,0,0,1,.65,1.83s0,0,0,.06Z" transform="translate(0.28 -0.98)"/><path class="cls-65" d="M975.93,114a14,14,0,0,0-2.88.31c0-.84,0-1.67,0-2.5a1.11,1.11,0,0,0,1.16-.32,3.13,3.13,0,0,0,.53-3.94c-.07-.11-.22-.23,0-.38l1.59-2.23a8.86,8.86,0,0,1,.87,2.8,9.65,9.65,0,0,0,.29,2.06c0,.21-.16.31-.3.43a3.67,3.67,0,0,0-1,1.31c-.15.35-.2.65.29.74a.19.19,0,0,1,.12.17Z" transform="translate(0.28 -0.98)"/><path class="cls-18" d="M972.35,100.41c-.41,0-.47.46-.71.67a5.24,5.24,0,0,1-1.52,1c-.28.11-.38,0-.5-.22a3,3,0,0,1,1.27-3.81c.14-.1.29-.17.42-.26.43-.3.84-.45,1.18.11A8.59,8.59,0,0,1,972.35,100.41Z" transform="translate(0.28 -0.98)"/><path class="cls-78" d="M972,105.42c-.06-.23-.14-.25-.31-.08a4.06,4.06,0,0,1-1.4.92c-.5.21-.66.13-.76-.39a3.24,3.24,0,0,1,1.74-3.58,3.55,3.55,0,0,1,1-.45c.4.06.38.43.42.68a2.72,2.72,0,0,1-.39,2A1.67,1.67,0,0,0,972,105.42Z" transform="translate(0.28 -0.98)"/><path class="cls-12" d="M974.73,107.17a3.76,3.76,0,0,1,.66,2.21,3.47,3.47,0,0,1-1.64,2.68c-.37.27-.4-.3-.66-.25a7.47,7.47,0,0,1-.37-1.87,3.4,3.4,0,0,1,1.74-2.75C974.53,107.15,974.64,107.18,974.73,107.17Z" transform="translate(0.28 -0.98)"/><path class="cls-79" d="M939.3,112.35a17.67,17.67,0,0,0,1.78-.08l-.86,2.27Z" transform="translate(0.28 -0.98)"/><path class="cls-80" d="M941.48,110.94c-.16,0-.37,0-.36-.23s.27-.24.47-.23Z" transform="translate(0.28 -0.98)"/><path class="cls-81" d="M964.81,104.5l1.4.87c.25.34.51.67.73,1s.17.58-.32.56-1.06,0-1.59,0a8.17,8.17,0,0,0-1.45-.55,2.58,2.58,0,0,1-1.5-1c-.19-.31-.39-.61-.57-.92-.07-.13-.18-.38.09-.37.48,0,.45-.28.48-.58,0,.43.14.59.6.57A7.14,7.14,0,0,1,964.81,104.5Z" transform="translate(0.28 -0.98)"/><path class="cls-13" d="M964.34,107.85c.16.15.31,0,.46,0,.68,0,.85.12.62.77a3.77,3.77,0,0,1-1.71,2c-.49.28-1,.49-1.54.72a2.18,2.18,0,0,0-.76.1c-.4.06-.53-.09-.45-.49a3.68,3.68,0,0,1,2.08-2.55C963.46,108.2,963.9,108,964.34,107.85Z" transform="translate(0.28 -0.98)"/><path class="cls-8" d="M962.11,111.82a6.41,6.41,0,0,1,3.16-.69,10.59,10.59,0,0,1,1.51.27c.44.09.26.41,0,.6a5.92,5.92,0,0,1-2.09,1.14,9.63,9.63,0,0,1-2.88.19.87.87,0,0,0-.18-.11c-.84-.33-.85-.33-.17-.94C961.69,112.11,961.91,112,962.11,111.82Z" transform="translate(0.28 -0.98)"/><path class="cls-82" d="M962.08,105.37l1.5,1-1.5,1.81Z" transform="translate(0.28 -0.98)"/><path class="cls-4" d="M971.15,117.83l1.43,0c.14,0,.33-.06.4.1s-.12.24-.21.34a3.4,3.4,0,0,0-.93,3.24,4.79,4.79,0,0,0,.56,1.19q-1.2,2.75-2.41,5.51a7.84,7.84,0,0,0-3.19,1.64c-.12.1-.18.3-.4.17a40.71,40.71,0,0,1,2.13-4.35c.13-.24.24-.5.35-.74s.19-.31.32-.43a3.57,3.57,0,0,0,1.28-2.81,1,1,0,0,1,.11-.64A15.49,15.49,0,0,0,971.15,117.83Z" transform="translate(0.28 -0.98)"/><path class="cls-83" d="M924.76,110.92c0,.18.1.41-.09.53s-.18-.12-.25-.22A.43.43,0,0,1,924.76,110.92Z" transform="translate(0.28 -0.98)"/><path class="cls-84" d="M948,99a9.83,9.83,0,0,1-.22-2A2.49,2.49,0,0,1,948,99Z" transform="translate(0.28 -0.98)"/><path class="cls-8" d="M976.62,112.45c-.82-.26-.82-.29-.43-1.17a3.85,3.85,0,0,1,1.29-1.48,6.24,6.24,0,0,1,2.08-.78c.15,0,.26-.18.42-.09a.89.89,0,0,0,.2.06c.52,0,.58.11.41.61a4,4,0,0,1-2.11,2.25C977.89,112.16,977.21,112.15,976.62,112.45Z" transform="translate(0.28 -0.98)"/><path class="cls-85" d="M980,108.93c-.14,0-.23.31-.42.09a4.18,4.18,0,0,1,.88-1.23C980.43,108.28,980.13,108.57,980,108.93Z" transform="translate(0.28 -0.98)"/><path class="cls-86" d="M970.59,121a3.8,3.8,0,0,1-1.71,3.88c-.73.42-.89.33-1-.53a3.46,3.46,0,0,1,1.6-3.54C970.14,120.35,970.16,120.35,970.59,121Z" transform="translate(0.28 -0.98)"/><path class="cls-5" d="M947.81,111.06a3,3,0,0,1-.15,1c-.31.86-.29.87-1,.38a3.34,3.34,0,0,1-1.47-3.94c.22-.58.37-.67.9-.32A3.38,3.38,0,0,1,947.81,111.06Z" transform="translate(0.28 -0.98)"/><path class="cls-2" d="M970.94,109.6a2.81,2.81,0,0,1,.46,2.44,6.86,6.86,0,0,1-1.63,3,7.75,7.75,0,0,1-2.13,1.5c-.24.13-.34,0-.44-.19a5,5,0,0,1,.46-5c.12-.19.37-.25.44-.48a4.11,4.11,0,0,1,2.19-1.56h0A.42.42,0,0,1,970.94,109.6Z" transform="translate(0.28 -0.98)"/><path class="cls-8" d="M967.65,103.1l-1.21.73c-.29.17-.48.09-.6-.22a3,3,0,0,1,.3-2.83,1.19,1.19,0,0,0,.21-.38c.5-.31.92-.73,1.46-1s.63-.28.8.25a3,3,0,0,1-.59,3.06C967.9,102.84,967.77,103,967.65,103.1Z" transform="translate(0.28 -0.98)"/><path class="cls-5" d="M969.87,109.27a.29.29,0,0,1,0,.09,4.23,4.23,0,0,1-2.32,1.33,7.57,7.57,0,0,1-1.17.23c-.3,0-.37-.09-.33-.39a3.2,3.2,0,0,1,1.17-2,5,5,0,0,1,3-1.19c.46,0,.48.18.36.51s-.22.54-.32.81A3.88,3.88,0,0,0,969.87,109.27Z" transform="translate(0.28 -0.98)"/><path class="cls-87" d="M967.53,110.69a9.9,9.9,0,0,0,2.32-1.33h.44a12.45,12.45,0,0,0-2.19,1.56C968,110.52,967.72,110.78,967.53,110.69Z" transform="translate(0.28 -0.98)"/><path class="cls-87" d="M969.87,109.27c-.06-.33.19-.45.42-.58A.73.73,0,0,1,969.87,109.27Z" transform="translate(0.28 -0.98)"/><path class="cls-87" d="M970.94,109.6a.75.75,0,0,0-.65-.24C970.66,109,970.85,109.16,970.94,109.6Z" transform="translate(0.28 -0.98)"/><path class="cls-88" d="M974.34,119.56a4.63,4.63,0,0,0-.76-1.94,11.49,11.49,0,0,0,3-1.28A36.42,36.42,0,0,0,974.34,119.56Z" transform="translate(0.28 -0.98)"/><path class="cls-89" d="M938.22,104.11v-.17c0-.74,0-.74.77-.73A2.17,2.17,0,0,1,938.22,104.11Z" transform="translate(0.28 -0.98)"/></svg>