<svg xmlns="http://www.w3.org/2000/svg" viewBox="0 0 1080 216.08"><defs><style>.cls-1{fill:#fff;}.cls-2{fill:#c8353b;}.cls-3{fill:#5bb951;}.cls-4{fill:#2b3040;}.cls-5{fill:#2a3044;}.cls-6{fill:#d12a08;}.cls-7{fill:#cf2808;}.cls-8{fill:#070707;}.cls-9{fill:#0b0b0b;}.cls-10{fill:#c42d0b;}.cls-11{fill:#bb360c;}.cls-12{fill:#603526;}.cls-13{fill:#cd310a;}.cls-14{fill:#6b5a56;}.cls-15{fill:#d09b94;}.cls-16{fill:#1f2228;}.cls-17{fill:#d22507;}.cls-18{fill:#ead3da;}.cls-19{fill:#dac1c8;}</style></defs><g id="OPS"><rect class="cls-1" y="141.57" width="1080" height="23.04"/><rect class="cls-2" y="0.45" width="1080" height="141.12"/><circle class="cls-1" cx="953.64" cy="117.38" r="98.7"/><path class="cls-3" d="M953.64,30.32a85.94,85.94,0,1,0,85.94,85.94A85.94,85.94,0,0,0,953.64,30.32Zm0,166.77a80.83,80.83,0,1,1,80.83-80.83A80.82,80.82,0,0,1,953.64,197.09Z"/><path class="cls-4" d="M932.42,57.56h21.52V47.77H928.83L904.74,71.46V160L929,184.76h24.93v-9.28H933.65l-19.17-19.6V75.58Z"/><path class="cls-1" d="M934,60.65h20V57.56H932.42l-17.94,18v80.3l19.17,19.6h20.29v-3.6H934.08L917.55,155V76.61Z"/><path class="cls-2" d="M942.67,72.49h11.27V60.65H934l-16.41,16V155l16.53,16.85h19.86V160H943.27l-9.83-9.84V81.76Z"/><path class="cls-1" d="M944,75.32h10V72.49H942.67l-9.23,9.27v68.43l9.83,9.84h10.67V157.2h-9.28l-8.4-8.66V83Z"/><path class="cls-5" d="M953.94,84.34v-9H944L936.26,83v65.5l8.4,8.66h9.28v-9.41l-8.71-.12V84.34Z"/><polygon class="cls-1" points="953.94 84.34 953.94 147.79 945.23 147.67 945.23 84.34 953.94 84.34"/><path class="cls-4" d="M992.81,75.58v80.3l-19.17,19.6h-20.3v9.28h24.93L1002.55,160V71.46L978.46,47.77H953.34v9.79h21.52Z"/><path class="cls-1" d="M989.74,76.61V155L973.2,171.88H953.34v3.6h20.3l19.17-19.6V75.58l-17.95-18H953.34v3.09h20Z"/><path class="cls-2" d="M973.84,81.76v68.43L964,160H953.34v11.85H973.2L989.74,155V76.61l-16.42-16h-20V72.49h11.27Z"/><path class="cls-1" d="M971,83v65.5l-8.4,8.66h-9.28V160H964l9.82-9.84V81.76l-9.23-9.27H953.34v2.83h10Z"/><path class="cls-5" d="M962.05,84.34v63.33l-8.71.12v9.41h9.28l8.4-8.66V83l-7.69-7.72h-10v9Z"/><text/><path class="cls-1" d="M80.54,99.47c-14.8.64-30.16-9.2-30.16-28.8S65.74,41.31,80.54,41.31c14,.72,28.64,10.4,28.64,29.36S94.54,99.47,80.54,99.47Zm-.88-47.76c-9,0-18.72,6.32-18.72,19s9.76,19,18.72,19c9.2,0,19-6.4,19-19S88.86,51.71,79.66,51.71Z"/><path class="cls-1" d="M119,48.11a5.5,5.5,0,0,1,5.44-5.52h18.48c10.4,0,19.76,7,19.76,20.32,0,12.64-9.36,19.68-19.76,19.68H129.58V93.15c0,3.52-2.24,5.52-5.12,5.52A5.4,5.4,0,0,1,119,93.15Zm10.56,4.56V72.59h13.36a9.86,9.86,0,0,0,9.6-9.68c0-5.6-4.24-10.24-9.6-10.24Z"/><path class="cls-1" d="M170.22,55.31c1.84-15.52,25.28-18.32,36.32-9.84,5.44,4.4-.32,11.36-5.12,7.84-5.92-3.76-19.36-5.52-21,2.8C178.22,69.23,213,61.71,212.46,83c-.56,20.32-30,20.8-41,11.68a5.92,5.92,0,0,1-1.12-7.84c2.08-2.08,4.4-2.8,7.12-.56,6.56,4.48,23.44,7.84,24.64-3.52C201,70.91,167.74,78,170.22,55.31Z"/></g><g id="Library"><rect class="cls-1" y="141.57" width="1080" height="23.04"/><rect class="cls-6" width="1080" height="141.12"/><path class="cls-1" d="M50.38,47.77a5,5,0,0,1,5-4.88,4.87,4.87,0,0,1,4.72,4.88V87.86H81.9c7.84,0,8,10.48,0,10.48H55.42a4.84,4.84,0,0,1-5-4.88Z"/><path class="cls-1" d="M96.62,47.77c0-6.56,10.56-6.8,10.56,0V93.46c0,6.64-10.56,6.8-10.56,0Z"/><path class="cls-1" d="M123.82,98.34a4.77,4.77,0,0,1-4.88-5V47.93a4.73,4.73,0,0,1,4.88-5H146.3c10.48,0,16.16,7.12,16.16,15.28a12.72,12.72,0,0,1-4.4,10.09c6.32,2.48,9.12,7.35,9.12,13.28,0,9.2-6.24,16.72-18.24,16.72ZM146.3,52.73H129.42V64.65H146.3c3.44,0,5.6-2.16,5.6-6.4A5.59,5.59,0,0,0,146.3,52.73ZM129.42,88.58h19.52c9.28,0,9.28-14.16,0-14.16H129.42Z"/><path class="cls-1" d="M187.26,93.14c0,7-10.64,7.2-10.64.16V47.85a4.78,4.78,0,0,1,4.8-4.88H202.7c20.32,0,24.48,27.2,7.52,34l10.64,13c4.16,6.16-4.16,12.08-9,6L199.82,78.65H187.26Zm0-23.69H202.7c10.4,0,11-16.8,0-16.8H187.26Z"/><path class="cls-1" d="M229.58,98.34A5.64,5.64,0,0,1,227,90.66l23-44.89c2.16-4.24,7.92-4.4,9.92,0l22.56,44.89c3.28,6.24-6.4,11.2-9.28,5l-3.52-7H240.14l-3.44,7C235.42,98.34,232.46,98.9,229.58,98.34ZM264,78l-9-19.77L245.1,78Z"/><path class="cls-1" d="M300.38,93.14c0,7-10.64,7.2-10.64.16V47.85a4.78,4.78,0,0,1,4.8-4.88h21.28c20.32,0,24.48,27.2,7.52,34l10.64,13c4.16,6.16-4.16,12.08-9,6L312.94,78.65H300.38Zm0-23.69h15.44c10.4,0,11-16.8,0-16.8H300.38Z"/><path class="cls-1" d="M340.46,50.65c-3.84-5.12,4.8-11.6,9-5.36l14,20.88,14.16-20.88c4.24-5.84,13.12,0,9,5.36L368.46,76.82V93.38c0,7-10.56,6.88-10.56-.08V76.82Z"/><circle class="cls-1" cx="952.93" cy="117.12" r="98.7"/><ellipse class="cls-1" cx="951.19" cy="116.15" rx="83.18" ry="83.55"/><path class="cls-3" d="M952.88,30.44a85.94,85.94,0,1,0,85.94,85.94A85.94,85.94,0,0,0,952.88,30.44Zm0,166.76a80.83,80.83,0,1,1,80.82-80.82A80.83,80.83,0,0,1,952.88,197.2Z"/><path class="cls-7" d="M983.44,132c-.86.11-1.59.84-2.53.57-.24-.23-.45-.06-.7,0-1.45.42-2.7,1.38-4.2,1.67-1.54-1.22-2.82-.11-4.12.51-1.87.89-1.86.94-.95,2.64h0c-.58.15-1.37-.7-1.69.07s-1.07,1.47-.84,2.45h0c-2.79-.19-3.17.2-2.49,2.56h0c-.5,0-.67.24-.63.7l-.09.53a4.79,4.79,0,0,0-3.71,3.81h0c-1.39-.9-1.36,0-1.24,1a.65.65,0,0,1,0,.24c-1-.13-1.43.3-1.23,1.31h0c-.86-.11-1.06-1.2-1.92-1.3.77-1.67,1.25-3.65,3.72-3.5.42,0,.86-.29.54-.65-.8-.91,0-1.35.45-1.8a21.79,21.79,0,0,1,3.82-3.61c.45-.29.81-.94.51-1.37-1.29-1.81.4-2.59,1.18-3.66.27-.37.91-.64.71-1.12-.62-1.56.55-2.18,1.42-3,.39-.34,1-.66.77-1.23-.45-1.05.12-1.59.83-2.09s.55-.94-.14-1.23a2.93,2.93,0,0,1-1.19-1.2c-.61-.87,0-.82.59-.85.84.42,1.52,2.42,2.65.28a.68.68,0,0,1,.53-.26c1.25-.06,2.45-1.24,3.79-.08a1.62,1.62,0,0,0,1.51,0c2.65-1.69,5.19.6,7.79.14a.2.2,0,0,1,.14,0c1.17,1.15,2.89,1.66,3.71,3.2a.77.77,0,0,0,1.3.27c1.33-1.32,3.1-2.26,3.74-4.21a23.43,23.43,0,0,1,2.46-1.22.86.86,0,0,0,.67-1c-.16-1.08.57-1.78.93-2.67.66.44,1.29,1,.91,1.58-1.08,1.7,1.34,2.41.94,3.86,3,1.31,1.65,4.9,3.46,6.85,0,.06,0,.33-.13.42-.84.75-.22,1.55-.11,2.33-.61.23.24.93-.45,1.2-.46-.63-1.22-1.22-1.34-1.93a6.88,6.88,0,0,0-3.15-4.7,2.28,2.28,0,0,1-1.06-2.29.92.92,0,0,0-1-1.11c-.67,0-1.13.21-1.17,1,0,.43,0,.84-.61.93-.84.13-.59.66-.42,1.18.44,1.3,2,2.38.86,4-.05.06.27.41.45.59a15.1,15.1,0,0,1,3.25,4.42c.12.27.48.45.58.72.45,1.17,1.69,1.74,2.14,2.84a12.51,12.51,0,0,0,2.87,3.9c0,.16-.07.38,0,.46,2.17,2.43.91,5.59,1.71,8.35.58,2,1.13,4,1.78,6,.4,1.22,2,2.28,1,4-.31.48.2,1.5-.11,2-.84,1.25-.33,1.94.68,2.6-1.12.34-1.91,2.27-3.43.74,0-.2-.05-.4-.07-.6a3.14,3.14,0,0,1-.52-.94c-.42-3.15-1.86-6-2.94-8.86-.73-2-1.67-3.85-2.51-5.76a9,9,0,0,0-1.9-4.42,36.34,36.34,0,0,0-1.85-5,2.23,2.23,0,0,1,.42-1.12c.41-.77-.15-1.5-.31-2.25-1.21.3-1.77-1-1.82-1.45-.2-1.52-1.17-1.16-2-1.2h0c0-.5.22-1.19-.68-1.23-.57,0-.64-.62-1-.91C989.21,131.67,986.39,129.93,983.44,132Zm-4.71-6.34c-.63-.32-.81,0-1.06.29a2.4,2.4,0,0,0-.47,1.77c0,1.18.2,2.5-1.52,2.78-.38.07-.39.47-.21.77s.51.19.89,0a12.29,12.29,0,0,0,4.69-2.86c.54-.6,1.24-1.12.28-2.27S979.35,126.21,978.73,125.68Z"/><path class="cls-8" d="M896.22,74.36c.13-4,.38-7.89,2.46-11.41a13.18,13.18,0,0,1,18.75-4.16c3.34,2.25,4.7,5.57,5.54,9.31a24.47,24.47,0,0,1-.15,11.26c-1.31,5.41-4.45,9.35-10,10.66-7.45,1.76-14-2.56-15.8-10A30.26,30.26,0,0,1,896.22,74.36Zm4.06-.8a26,26,0,0,0,1.24,7.11c1.69,5.14,7.31,8.19,12.23,5.36a9.66,9.66,0,0,0,4.44-5.28A21.6,21.6,0,0,0,918,65.84a8,8,0,0,0-2.53-4.06,8.88,8.88,0,0,0-13.3,3C900.86,67.3,900.46,70.1,900.28,73.56Z"/><path class="cls-9" d="M901.88,113.6q0-4.57-.1-9.15c0-3.35-.7-4-4-3.68a2.44,2.44,0,0,1-1.53-.21,1.61,1.61,0,0,1,.13-2.65,2.59,2.59,0,0,1,1.82-.33c4.34.87,8.68.17,13,0,3-.1,6.12-.11,8.87,1.46a8.57,8.57,0,0,1,4,8.92,8,8,0,0,1-6,6.92c-3.22,1-6.52.88-9.82.85-2.22,0-2.46.21-2.4,2.43.06,2,0,4,.16,6,.13,2.15.8,2.64,2.92,2.41a12.27,12.27,0,0,1,1.71-.11,1.22,1.22,0,0,1,1.31,1.27,1.49,1.49,0,0,1-1,1.76,4.2,4.2,0,0,1-2.48.06,20.88,20.88,0,0,0-9.5,0,3.31,3.31,0,0,1-2.45-.16,1.45,1.45,0,0,1-.81-1.7,1.42,1.42,0,0,1,1.43-1.22,7.64,7.64,0,0,1,1.25.11c2.29.31,3.35-.55,3.41-2.9.08-3.15.1-6.31.14-9.47l1.34-.08A1.48,1.48,0,0,0,901.88,113.6Zm18.91-9.22c-.53-.46-1.16.07-1.43-.74a3.86,3.86,0,0,0-2.64-2.29c-3.17-1.13-6.39-.83-9.6-.24-.62.11-1.2.42-1.21,1.23-.06,2.88-.13,5.75-.18,8.63,0,1.07.55,1.54,1.62,1.7a27.57,27.57,0,0,0,7.91-.34c3.26-.43,5-2.59,4.8-5.89A2.13,2.13,0,0,1,920.79,104.38Zm-18.21,12.26c-.12.51-.29.93.23,1.28C903.15,117.41,902.78,117.09,902.58,116.64Z"/><path class="cls-10" d="M985.86,60.31l1,.36a2.92,2.92,0,0,0,1.13,1c1.2.7,2.48,1.23,3.65,2a25.72,25.72,0,0,1,4.89,4.28c2,2.23,4.58,3.94,5.83,6.81.43,1.75-1.11,2.94-1.29,4.52-.13.2-.39.33-.52.17-.79-1-1.94-1.23-3.1-1.6s-2.77-.92-3.16-2c-.53-1.45-1-1.26-2-.51,0-1.46.28-3-1.44-3.57a.41.41,0,0,1-.21-.64c.84-1.17.08-.93-.65-.77a.77.77,0,0,1-.8-.4,5.9,5.9,0,0,0-2.51-2c-.48-.26-.55-.3-.28-.87.64-1.35-.67-3.41-2.17-3.64-1-.16-2-.19-2.22-1.64-.07-.52-1-1.48-1.63-.49s-1.31.87-2.14.87c-1.26,0-2.52.07-3.77,0-.88-.06-1.41,1-2.34.61-1.65-.66-3.4.09-5.14-.51-1.48-.51-2.7.89-4,1.42a6.38,6.38,0,0,0-3.69,3.54c-.19.4-.47.75-.1,1.1s.68.06.92-.25.42-.61.73-.47c1.25.52,2.75.11,3.84.75.75.45,2.57.92,1.8,2.17s-1.35,2.64-2.63,3.25a3.88,3.88,0,0,0-2,2.46c-.34.95-.9.86-1.59.48-.2-.47.94-1.88-.45-1.36-1.59.6-3.11-.11-4.58.42a.67.67,0,0,0-.68-.31l-.65-.78a2.36,2.36,0,0,0-1.9-.93c-.71,0-.47-.52-.59-.86h0c.72,0,.66-.51.62-1-.08-.69.48-1,.85-1.4a27.37,27.37,0,0,0,3.47-3.69,11.9,11.9,0,0,1,2.94-2.74c1.61.36,2.25-.74,2.83-1.92a20.14,20.14,0,0,1,5.36-3.13c.86-.34,1.9-.33,2.51-1.2l1-.06,6.94-.07c1.69.16,3.1,1.37,4.84,1.34A3.23,3.23,0,0,0,985.86,60.31ZM994,71.79A1.12,1.12,0,0,0,993,73c0,.82.69,1,1.3,1.08s1.18-.18,1.14-1S995,71.83,994,71.79Zm-35.51,1.53c-.06-.33-.31-.35-.58-.34s-.5.16-.48.48.25.43.55.37A.59.59,0,0,0,958.52,73.32Zm43.55,3c-.35-.1-.48-.19-.58-.15s-.17.18-.26.28c.12.05.23.16.34.15S1001.81,76.48,1002.07,76.33Z"/><path class="cls-11" d="M1004.58,133c-.11-.78-.73-1.58.11-2.33.09-.09.18-.36.13-.42-1.81-2-.41-5.54-3.46-6.85.4-1.45-2-2.16-.94-3.86.38-.61-.25-1.14-.91-1.58-.36.89-1.09,1.59-.93,2.67a.86.86,0,0,1-.67,1,23.43,23.43,0,0,0-2.46,1.22c-1.24-.15-1.81.87-2.59,1.5-.31.24-.6.5-.88,0-.16-.27-.38-.69,0-.78,1.08-.22,1.26-1.86,2.69-1.41a1.83,1.83,0,0,0-1.37-1.34c.62-.47,1.28-.9,1.86-1.41,1.42-1.26,3.36-2,4.16-3.89l.26.09-.11-.5c3.19-1.26,4.31-6.1,2.15-9.2,1.51-.38,2,.8,2.57,1.76.42.73.58,1.29,1.7.76,1.3-.62,1.92,0,2.1,1.52a3.78,3.78,0,0,0,3.08,2.57,2.41,2.41,0,0,1-.18-2.92,2.32,2.32,0,0,0,0-2.4,2.31,2.31,0,0,1-.37-1.62c.2-1.5-.9-2.75-.77-4.23,0-.08-.33-.2-.5-.29V98.86c.77-.54,1.07-.46,1.51.55s.12,2.46,1.71,2.64c-.13.71,0,1.17.88.89.39.73-.16,1.48,0,2.21a7.76,7.76,0,0,0,.09,1.37c.16,2.51.82,5.07-.48,7.49a16.4,16.4,0,0,1-5.25,1.56c-.41-1.74-.81-3.48-2.26-4.71a.11.11,0,0,1,0-.18c0-.46.12-1-.62-1s-.6.48-.61.91a14.73,14.73,0,0,0,.63,5.07l0,1.63c.6,1.31.43,2.74.64,4.12a12.77,12.77,0,0,0,1.22,4.63c-.35,2.6.91,5.07.67,7.67,0,.38.4.21.55.4a17,17,0,0,1,.86,3.73c.31,1.29.46,2.63.8,3.91a48.24,48.24,0,0,1,.64,5.47c-1,.89.27,1.57.2,2.38-.28,3.3.83,6.51.68,9.8,0,.5-.3,1.22.57,1.39,0,.56,0,1.13,0,1.69a9.44,9.44,0,0,0-.09,1.5c0,1.13.5,2.57-1.18,3.08-1-.66-1.52-1.35-.68-2.6.31-.48-.2-1.5.11-2,1.08-1.7-.55-2.76-1-4-.65-2-1.2-4-1.78-6-.8-2.76.46-5.92-1.71-8.35-.08-.08,0-.3,0-.46a15.26,15.26,0,0,0-.15-4.07,2.09,2.09,0,0,1,.36-2.2A3,3,0,0,0,1004.58,133Z"/><path class="cls-9" d="M904.76,159.15a11.78,11.78,0,0,1,1.14,4.78c.14,2,.66,2.47,2.63,2.47,2.56,0,5.13,0,7.69,0,2.88-.09,3.81-1,3.94-3.94.05-1.37-.08-2.74-.08-4.1s.31-2.22,1.85-2.14c1.28.07,2,.92,1.78,2.41a33,33,0,0,0-.29,8.48c.18,1.79-.8,2.67-2.55,2.54a149.3,149.3,0,0,0-22.58.1,3.47,3.47,0,0,1-1.69-.24c-.84-.36-.87-1.06-.78-1.86a1.23,1.23,0,0,1,1.36-1.2,4.44,4.44,0,0,1,.63,0c3.23.38,3.54.15,4.06-2.93,1.12.45.75-.51.91-1h0c.67,0,.94-.45,1.23-.9a3.94,3.94,0,0,0-2-.41q0-7.35-.07-14.69a14.15,14.15,0,0,0-.27-4.15,2.14,2.14,0,0,0-2.67-1.77c-.51.07-1,.13-1.55.15a1.41,1.41,0,0,1-1.61-1.51,1.36,1.36,0,0,1,1.46-1.63,19.68,19.68,0,0,1,3,.21,27.62,27.62,0,0,0,7.81-.1,5.75,5.75,0,0,1,2.64-.09,1.56,1.56,0,0,1,1.27,1.88c-.15,1-.81,1.27-1.71,1.22l-.31,0c-3.6-.18-3.93.13-4.07,3.76-.4,0-1-.27-1.06.42a.87.87,0,0,0,.92,1,19.4,19.4,0,0,1,.13,4.31c-.17,0-.4,0-.36.25,0,.06.24.09.37.14,0,2.44,0,4.89-.08,7.34,0,.43.21,1.31-.77.63.07-.36.22-.8-.22-.94a1,1,0,0,0-.82.29c-.43.48.3.51.4.81S904.61,159,904.76,159.15Zm-1.31,1.59c.18-.35,0-.35-.16-.38s-.43,0-.48.23c0,.1.14.33.2.32A1.44,1.44,0,0,0,903.45,160.74Z"/><path class="cls-11" d="M951.37,72.92c.12.34-.12.88.59.86a2.36,2.36,0,0,1,1.9.93,1.36,1.36,0,0,0-1.4,1.3,1.8,1.8,0,0,1-.2.19c1.28.94,1.7.8,2.25-.71a.67.67,0,0,1,.68.31c-.05.46.06,1-.18,1.36a14.91,14.91,0,0,1-6.33,4.57c-.81.33-1.1.55-1,1.33-1.53.5-1.51,2.25-2.51,3.16a1.61,1.61,0,0,0-1.24,1.23,16,16,0,0,0-.65,5.72,3.56,3.56,0,0,1-.63,2.53c-1.66-.2-1.19,1-1.26,1.89h0c-.59.45-1.64.4-1.81,1.19-.29,1.27-1.06,2.48-.7,3.87,0,.54.65.87.13,1.66s-.29,1.88-.85,2.9c-1,1.84-.5,4.09-.55,6.17-1.32.19-2.18,2.81-1.12,4.07.81,1,1.37,1.61.56,2.89-.42.67.19,1.39.88,1.78.32.18.59,0,.91-.3a27.26,27.26,0,0,1,3.83-3.37,2.49,2.49,0,0,1-.44,1.4,10.38,10.38,0,0,0-1.5,3,3.41,3.41,0,0,1-2.37.66c-.13-.3-.29-.56-.66-.59-2.74-.15-2.61-.7-2.65-3.56,0-2.44.45-4.9-.29-7.31-.19-1.3,1-2.34.66-3.66a.9.9,0,0,0,.89-.72c.69-2.09,1.31-4.2,1.85-6.31A111.35,111.35,0,0,1,943,87.63a84.72,84.72,0,0,1,6.32-11.76C949.91,74.84,950.05,73.45,951.37,72.92Z"/><path class="cls-12" d="M951.37,72.92c-1.32.53-1.46,1.92-2.08,3A84.72,84.72,0,0,0,943,87.63a111.35,111.35,0,0,0-4.85,13.7c-.54,2.11-1.16,4.22-1.85,6.31a.9.9,0,0,1-.89.72c.44-3.15,1.62-6.1,2.52-9.12a104.31,104.31,0,0,1,11.62-25.41,39.69,39.69,0,0,1,15.64-14.51c1.44-.75,3-1.78,4.81-1.47-.61.87-1.65.86-2.51,1.2a20.14,20.14,0,0,0-5.36,3.13c-1.29.13-2,1.13-2.83,1.92a11.9,11.9,0,0,0-2.94,2.74,27.37,27.37,0,0,1-3.47,3.69c-.37.4-.93.71-.85,1.4-.56.12-.66.52-.62,1Z"/><path class="cls-10" d="M1012.51,102.05c-1.59-.18-1.32-1.73-1.71-2.64s-.74-1.09-1.51-.55c-.28-.71-1-1.32-.2-2.23a2,2,0,0,0-.1-1.74,12.33,12.33,0,0,1-1.65-4.71c-.22-1.48-2.24-2.43-1.36-4.33,0-.07-.32-.4-.54-.49a3.92,3.92,0,0,1-1.81-2c.89-.35,1.67.62,2.57.22,1.1,1.23,1.2,2.9,1.84,4.33a19.45,19.45,0,0,0,2.47,4.66c.1,1.35,0,2.79,1.26,3.73,0,.21.05.42.07.63,0,.92,0,1.84,0,2.76-.22.82.18.93.84.73C1012.72,101,1013,101.56,1012.51,102.05Z"/><path class="cls-12" d="M1002.4,74.75c-1.25-2.87-3.85-4.58-5.83-6.81a25.72,25.72,0,0,0-4.89-4.28c-1.17-.78-2.45-1.31-3.65-2a2.92,2.92,0,0,1-1.13-1,2.61,2.61,0,0,1,2.07.44,42.4,42.4,0,0,1,14.77,14.12,16.48,16.48,0,0,1,2.72,6.86c-.63-.06-.76-.49-.94-1-.35-1-.41-2.21-1.2-3.08-.11-.49.1-1.14-.65-1.32l-.22-.59-.43-.62A.67.67,0,0,0,1002.4,74.75Z"/><path class="cls-12" d="M960.23,148.76a.65.65,0,0,0,0-.24,1.51,1.51,0,0,0,1.24-1h0c1-.4,1.37-1.67,2.49-2,.29.68-.34,1-.65,1.27a74.7,74.7,0,0,0-8.09,10.4c-1.73,2.52-3.71,4.88-5.51,7.36-.78,1.08-1.36,2.31-2.1,3.42-1,1.54-2.36,1.52-3.73,0l1.78.3c1,.15,1.46-.2,1.36-1.23h0a.55.55,0,0,0,.58-.66.41.41,0,0,0,0-.27,1.12,1.12,0,0,0,.64-1c.57,0,.6-.47.63-.89,1.89-2.43,3.79-4.86,5.66-7.31,1.39-1.84,2.29-4,4-5.67a1.58,1.58,0,0,0,.43-1.27h0A1.53,1.53,0,0,0,960.23,148.76Z"/><path class="cls-10" d="M947,167.11c.1,1-.41,1.38-1.36,1.23l-1.78-.3-.36,0c-.56-.43-1-1-1.87-.94s-.91-.54-1-1.15l.12-.81a7.35,7.35,0,0,0,1.06-4.43c-.08-2.35.57-4.61.82-6.92h.54v2.53a.93.93,0,0,0-.61.84,37.8,37.8,0,0,0,.08,5.93,2.6,2.6,0,0,0,2.31,2.06c2,.14,2,.12,1,1.91-.11.19-.23.34.07.52Z"/><path class="cls-12" d="M997.32,142.15a36.34,36.34,0,0,1,1.85,5c-.29.25.29.78-.3,1a.92.92,0,0,1-.33-.87l-.18-.42a81.47,81.47,0,0,0-6.26-11.12,7.91,7.91,0,0,0-7.52-3.45,2,2,0,0,1-1.14-.27c2.95-2.09,5.77-.35,8.46,2,.34.29.41.88,1,.91,0,.52.12,1,.68,1.23h0A36.29,36.29,0,0,0,997.32,142.15Z"/><path class="cls-13" d="M1002.4,74.75a.67.67,0,0,1,.62.69c0,.31.05.58.43.62.08.2.15.4.22.59,0,.56-.81,1.5.65,1.32.79.87.85,2,1.2,3.08.18.55.31,1,.94,1v.45a1.17,1.17,0,0,0-.26,1.06c-.9.4-1.68-.57-2.57-.22-1-1-2.15-1.86-1.92-3.53,0-.37-.26-.53-.6-.58C1001.29,77.69,1002.83,76.5,1002.4,74.75Z"/><path class="cls-12" d="M965.2,143.71l.09-.53c.38-.08.65-.26.63-.7h0c1.2-.49,1.68-1.69,2.49-2.56h0a10.27,10.27,0,0,0,2.53-2.52h0a17.88,17.88,0,0,0,5.07-3.15c1.5-.29,2.75-1.25,4.2-1.67.25-.07.46-.24.7,0a4.19,4.19,0,0,1-2,1.31,30.89,30.89,0,0,0-12.1,9c-.44.53-.82,1.07-1.56,1.14Z"/><path class="cls-11" d="M943.24,153.82h-.55V152.4c.84-2.3.4-4.75.84-7.1,0-.31,0-.63,0-.94,1.08-.82.8-2.07,1-3.18v0l.58-1.31.06,3.19v1.27a8.82,8.82,0,0,1-.32,3.15.64.64,0,0,0-.31.63,2.69,2.69,0,0,1-.32,1.58c-.67,1.11-.15,2.33-.31,3.48A.57.57,0,0,0,943.24,153.82Z"/><path class="cls-12" d="M1001.07,151.62c.84,1.91,1.78,3.8,2.51,5.76,1.08,2.91,2.52,5.71,2.94,8.86a3.14,3.14,0,0,0,.52.94c-1.39-1.34-1.87-3.22-2.38-4.92-1.07-3.51-2.79-6.73-4.1-10.12,0-.15-.08-.31-.12-.46l.11-.82Z"/><path class="cls-12" d="M934.72,112c.74,2.41.25,4.87.29,7.31,0,2.86-.09,3.41,2.65,3.56.37,0,.53.29.66.59l-.89.11-.7,0-.42,0c-1.51-.21-2.3-.82-2.2-2.61A85.07,85.07,0,0,1,934.72,112Z"/><path class="cls-12" d="M1011.77,160.77c-.87-.17-.6-.89-.57-1.39.15-3.29-1-6.5-.68-9.8.07-.81-1.22-1.49-.2-2.38,1.06,1.94.84,4.11,1.07,6.19a37.12,37.12,0,0,1,.08,5.48C1011.44,159.56,1011.88,160.11,1011.77,160.77Z"/><path class="cls-12" d="M1010.54,167c1.68-.51,1.17-1.95,1.18-3.08a9.44,9.44,0,0,1,.09-1.5,7.28,7.28,0,0,1,.65,3.76.74.74,0,0,1-.25.53,32.38,32.38,0,0,1-3.47,2.28c-1.16.6-1.82.14-1.63-1.25C1008.63,169.31,1009.42,167.38,1010.54,167Z"/><path class="cls-12" d="M1006.2,83.6a1.17,1.17,0,0,1,.26-1.06c1.17,1.31,1.46,3.06,2,4.61s1.58,3.06,2.11,4.7l-.07.74a19.45,19.45,0,0,1-2.47-4.66C1007.4,86.5,1007.3,84.83,1006.2,83.6Z"/><path class="cls-12" d="M945.12,135.85a41.54,41.54,0,0,1,1.1-6c.23-1.06.33-2.15.49-3.22a1.05,1.05,0,0,0,.22-1.06l0-.49.58-.34.06,1.21a1.25,1.25,0,0,0-.23.4c-.55,3.17-1.1,6.34-1.62,9.51-.08.45-.17.81-.62,1Z"/><path class="cls-12" d="M947.57,119c.1-1.46.23-2.92.28-4.39,0-.41.29-1-.36-1.21s-.48.58-.82.78a4.72,4.72,0,0,1-.56.24,1.81,1.81,0,0,1,1.52-2c1.28,1.45.38,3.21.66,4.8l0,1.89,0,1v2.21c0,.19,0,.37,0,.55a.63.63,0,0,1-.27,0Z"/><path class="cls-14" d="M1013,114c1.3-2.42.64-5,.48-7.49a7.76,7.76,0,0,1-.09-1.37c.25,0,.53,0,.58.37a20.47,20.47,0,0,1,.23,7.08C1014,113.6,1013.78,113.82,1013,114Z"/><path class="cls-11" d="M947.63,112.38a1.81,1.81,0,0,0-1.52,2v-.05c-.23,0-.31.19-.32.4l-1,1.44-.87.36c-.34-1.87,1.43-3.09,1.36-5.37C946,112.47,947,111.82,947.63,112.38Z"/><path class="cls-12" d="M1006.8,126a12.77,12.77,0,0,1-1.22-4.63c-.21-1.38,0-2.81-.64-4.12l.46-.08c.49,3,1.36,5.85,1.64,8.84A1,1,0,0,0,1006.8,126Z"/><path class="cls-14" d="M1006.8,126a1,1,0,0,1,.24,0c.38,2.68,1.46,5.28,1,8.06-.15-.19-.58,0-.55-.4C1007.71,131.09,1006.45,128.62,1006.8,126Z"/><path class="cls-14" d="M1011.86,99.71c0-.92,0-1.84,0-2.76.34,0,.66,0,.73.41.35,1.85,1.22,3.62.82,5.58-.88.28-1-.18-.88-.89.45-.49.21-1.06.19-1.61S1012.12,100,1011.86,99.71Z"/><path class="cls-12" d="M943.87,116.55l.87-.36c-.9,2.41-2.42,4.49-3.62,6.73l-.43-.1a10.38,10.38,0,0,1,1.5-3,2.49,2.49,0,0,0,.44-1.4C943,117.82,943.45,117.18,943.87,116.55Z"/><path class="cls-12" d="M942.69,152.4v1.42c-.24,2.31-.89,4.57-.81,6.92l-.54,0a15.46,15.46,0,0,1,.31-4.51,23,23,0,0,0,.68-5C942.77,151.57,942.61,152,942.69,152.4Z"/><path class="cls-14" d="M942.69,152.4c-.08-.37.08-.83-.36-1.08.21-1.81.42-3.62.6-5.44.05-.4.28-.51.6-.58C943.09,147.65,943.53,150.1,942.69,152.4Z"/><path class="cls-12" d="M977.94,57.72l-6.94.07c1.21-1,2.72-.63,4.1-.79a14.2,14.2,0,0,1,2.74.19C977.87,57.37,977.9,57.55,977.94,57.72Z"/><path class="cls-13" d="M965.2,143.71l.07.38c-.06.82-1.11.77-1.29,1.48-1.12.28-1.47,1.55-2.49,2A4.79,4.79,0,0,1,965.2,143.71Z"/><path class="cls-14" d="M1001.07,151.62l-.52-.76-.11.82c-.52-1.18-1-2.35-1.57-3.53.59-.17,0-.7.3-1A9,9,0,0,1,1001.07,151.62Z"/><path class="cls-14" d="M977.94,57.72c0-.17-.07-.35-.1-.53,1.83.52,3.88.35,5.4,1.81l-.46.06C981,59.09,979.63,57.88,977.94,57.72Z"/><path class="cls-12" d="M1004.9,115.64a14.73,14.73,0,0,1-.63-5.07c0-.43,0-.9.61-.91s.6.56.62,1c-.35-.39-.57-.38-.61.2v2C1004.9,113.8,1004.9,114.72,1004.9,115.64Z"/><path class="cls-14" d="M940.7,166c.06.61.25,1.18,1,1.15s1.31.51,1.87.94c-1,.38-1.9-.14-2.84-.18C940.31,167.87,940,166.65,940.7,166Z"/><path class="cls-14" d="M947.57,119l.39,3.84c-.54.56-.21,1.32-.41,2l-.58.34A36,36,0,0,1,947.57,119Z"/><path class="cls-14" d="M941.34,160.78l.54,0a7.35,7.35,0,0,1-1.06,4.43C940.41,163.63,941.07,162.23,941.34,160.78Z"/><path class="cls-14" d="M1010.51,92.59l.07-.74c.37,1.5,1.6,2.76,1.19,4.47C1010.47,95.38,1010.61,93.94,1010.51,92.59Z"/><path class="cls-12" d="M1005.53,110.86c1.45,1.23,1.85,3,2.26,4.71-.25.07-.66.11-.69-.12C1006.94,113.79,1005.88,112.45,1005.53,110.86Z"/><path class="cls-15" d="M944.5,141.18c-.18,1.11.1,2.36-1,3.18a3.65,3.65,0,0,1,.29-3.17Z"/><path class="cls-14" d="M944.5,141.18h-.69a23.29,23.29,0,0,1,1.31-5.34c0,.34,0,.67,0,1,0,.61,0,1.22,0,1.83-.87.67-.45,1.66-.6,2.51Z"/><path class="cls-14" d="M902.78,162.56c-.16.46.21,1.42-.91,1,.21-.75-.26-1.52.07-2.27a3.94,3.94,0,0,1,2,.41c-.29.45-.56.94-1.23.9l-.06-.72s-.11,0-.13.08A.46.46,0,0,0,902.78,162.56Z"/><path class="cls-14" d="M940.69,122.82l.43.1c-.64,1.67-1.91,1.9-3.69.67l.89-.11A3.41,3.41,0,0,0,940.69,122.82Z"/><path class="cls-12" d="M982.78,59.06l.46-.06c.8.59,2,.41,2.62,1.31A3.23,3.23,0,0,1,982.78,59.06Z"/><path class="cls-14" d="M1004.9,115.64c0-.92,0-1.84,0-2.77.13,1.45.77,2.83.51,4.32l-.46.08C1004.92,116.73,1004.91,116.19,1004.9,115.64Z"/><path class="cls-14" d="M905.69,145.9a.87.87,0,0,1-.92-1c0-.69.66-.37,1.06-.42C905.92,145,906.08,145.47,905.69,145.9Z"/><path class="cls-14" d="M904.76,159.15c-.15-.14-.37-.25-.42-.42s-.83-.33-.4-.81a1,1,0,0,1,.82-.29c.44.14.29.58.22.94Z"/><path class="cls-16" d="M901.88,113.6a1.48,1.48,0,0,1,1.37.56l-1.34.08Z"/><path class="cls-14" d="M946.93,125.6a1.05,1.05,0,0,1-.22,1.06A1,1,0,0,1,946.93,125.6Z"/><path class="cls-14" d="M905.83,150.6c-.13,0-.36-.08-.37-.14,0-.26.19-.24.36-.25Z"/><path class="cls-14" d="M1004.89,111.39v0Z"/><path class="cls-14" d="M998.36,146.86l.18.42Z"/><path class="cls-14" d="M936.31,123.51l.42,0A.28.28,0,0,1,936.31,123.51Z"/><path class="cls-12" d="M945.79,114.75c0-.21.09-.37.32-.4Z"/><path class="cls-17" d="M943.87,153.19c.16-1.15-.36-2.37.31-3.48a3.11,3.11,0,0,0,.67.36c.67.22,1.62.71,1.94-.06s-.61-1.15-1.31-1.43c-.33-.14-.58-.45-1-.45a.64.64,0,0,1,.31-.63c.8.25,1.6.48,2.39.75a1.75,1.75,0,0,0,2.2-.66,1.7,1.7,0,0,0-.17-2.4c-.7-.67-.29-1.89-.24-2.8.07-1.1.68.28,1.13,0s.39-.61.52-.92a22.1,22.1,0,0,1,1.83-4.47,8.14,8.14,0,0,0,1.55-3,2.07,2.07,0,0,1,2-1.88c.66,0,1.15.1,1.27-.66s.35-1.51-.57-1.9c-.39-.17-.64-.36-.57-.81s.47-.46.84-.51c1-.15,1.22-.64.64-1.51-.36-.54-1-1.25-.17-1.78,1.71-1.1,2.31-2.89,3.06-4.6.45,0,.91,0,.94-.64l.94-1.89c.05-2,.1-2,1.82-1.49.38.11.57.11.7-.27.36-1.09,1.07-.75,1.72-.37s1.16.78,1.74,1.18c0,1.84,1.26,3,2.42,4.12s1.17,1.73-.53,2.52c-.56,0-1.2,0-.59.85a2.93,2.93,0,0,0,1.19,1.2c.69.29.9.69.14,1.23s-1.28,1-.83,2.09c.24.57-.38.89-.77,1.23-.87.78-2,1.4-1.42,3,.2.48-.44.75-.71,1.12-.78,1.07-2.47,1.85-1.18,3.66.3.43-.06,1.08-.51,1.37a21.79,21.79,0,0,0-3.82,3.61c-.44.45-1.25.89-.45,1.8.32.36-.12.68-.54.65-2.47-.15-2.95,1.83-3.72,3.5-.54.81-.75,1.92-1.27,2.55a11.11,11.11,0,0,1-2.47,2.51,2.66,2.66,0,0,0-1.49,2.66c0,.24-.43.46-.56.73-1,2.28-2.58,4.4-2.36,7.1,0,.42-.06.85-.63.89s-.67.48-.64,1a.41.41,0,0,1,0,.27.56.56,0,0,0-.58.66h0l-.91.5c-.3-.18-.18-.33-.07-.52.93-1.79.92-1.77-1-1.91a2.6,2.6,0,0,1-2.31-2.06,37.8,37.8,0,0,1-.08-5.93.93.93,0,0,1,.61-.84c.9.91,2.11.54,3,.27s.4-1.47.38-2.26c-.62-.17-.44.72-.86.53s-.25-.72-.11-1.08a.72.72,0,0,0-.53-1.08c-.72-.19-.51.43-.59.78s-.07.61-.43.39C943.91,153.8,943.93,153.43,943.87,153.19Zm11.57-17.07c.79,0,1.65-.48,1.56-.91-.11-.58-.58-.67-1.07-.65a1.16,1.16,0,0,0-1.29,1.08C954.6,136.14,955.08,136.11,955.44,136.12Zm-5.67,16.49a1,1,0,0,0-.94-.61c-.38-.05-.53.22-.52.57,0,.59.43.62.86.6S949.78,153.07,949.77,152.61Zm1.51-6.49c.21-.17.65-.15.7-.62a.4.4,0,0,0-.46-.47.69.69,0,0,0-.68.7C950.82,145.94,950.93,146.12,951.28,146.12Zm-2.77,4.72c.07-.12.23-.27.25-.44s-.2-.32-.41-.3-.34.21-.34.43S948.18,150.87,948.51,150.84Z"/><path class="cls-10" d="M970.29,123.5c1.7-.79,1.77-1.27.53-2.52s-2.41-2.28-2.42-4.12c.24-1.24-.5-2.38-.54-4,.78.9,1.69.83,2.38,1.32.26.18.88.68,1.2.06.24-.46-.19-.76-.63-.89s-.57-.37-.32-.69c1.42-1.82.52-4.26,1.67-6.15.23-.37.44-.88-.2-1.19s-.77-1.14-1.55-.49c-.25.21-.75.39-.82.13-.55-1.86-2.07-.81-3.12-1.13,1.12-.69,2.37-.53,3.6-.6,2-.12,4,.32,5.92-.66l.47,0a13.17,13.17,0,0,0,1.4,0l12.88-1.21-.18.25c-1,1.44-2.88,2.53-2,4.77l-.35.7-1.55-.69a7.81,7.81,0,0,0-3.77-1.24,6.24,6.24,0,0,0-4.8.7c-2,1.42-1.8,3.47-1.4,5.53l-.71.68c0-.23,0-.49-.38-.47,0,0-.09.06-.1.09,0,.35.25.34.47.39.15.86.79.58,1.32.58h0c-.21.35.28,1.12-.5,1.07-1.51-.1-.73.61-.32,1,1,.9,1.51,2.3,2.82,2.95a3.56,3.56,0,0,1,1,1.14c.62.81.38,2.79,2.36,1.7,0,0,.19.09.25.16,1.38,1.66,3.32,2.19,5.29,2.68a4,4,0,0,0,1.86,0c.3-.07.32-.37.27-.65h0c.44.14.65-.06.7-.48l2.29-1.45a1.83,1.83,0,0,1,1.37,1.34c-1.43-.45-1.61,1.19-2.69,1.41-.42.09-.2.51,0,.78.28.5.57.24.88,0,.78-.63,1.35-1.65,2.59-1.5-.64,2-2.41,2.89-3.74,4.21a.77.77,0,0,1-1.3-.27c-.82-1.54-2.54-2-3.71-3.2a.2.2,0,0,0-.14,0c-2.6.46-5.14-1.83-7.79-.14a1.62,1.62,0,0,1-1.51,0c-1.34-1.16-2.54,0-3.79.08a.68.68,0,0,0-.53.26C971.81,125.92,971.13,123.92,970.29,123.5Z"/><path class="cls-13" d="M1004.58,133a3,3,0,0,1,1.15,4.48,2.09,2.09,0,0,0-.36,2.2,15.26,15.26,0,0,1,.15,4.07,12.51,12.51,0,0,1-2.87-3.9c-.45-1.1-1.69-1.67-2.14-2.84-.1-.27-.46-.45-.58-.72a15.1,15.1,0,0,0-3.25-4.42c-.18-.18-.5-.53-.45-.59,1.1-1.66-.42-2.74-.86-4-.17-.52-.42-1,.42-1.18.57-.09.59-.5.61-.93,0-.75.5-1,1.17-1a.92.92,0,0,1,1,1.11,2.28,2.28,0,0,0,1.06,2.29,6.88,6.88,0,0,1,3.15,4.7c.12.71.88,1.3,1.34,1.93C1004.82,133.89,1004,133.19,1004.58,133Z"/><path class="cls-13" d="M948.93,164.32c-.22-2.7,1.32-4.82,2.36-7.1.13-.27.57-.49.56-.73a2.66,2.66,0,0,1,1.49-2.66,11.11,11.11,0,0,0,2.47-2.51c.52-.63.73-1.74,1.27-2.55.86.1,1.06,1.19,1.92,1.3a1.58,1.58,0,0,1-.43,1.27c-1.69,1.63-2.59,3.83-4,5.67C952.72,159.46,950.82,161.89,948.93,164.32Z"/><path class="cls-10" d="M978.73,125.68c.62.53,1.64-.63,2.6.51s.26,1.67-.28,2.27a12.29,12.29,0,0,1-4.69,2.86c-.38.16-.62.39-.89,0s-.17-.7.21-.77c1.72-.28,1.5-1.6,1.52-2.78a2.4,2.4,0,0,1,.47-1.77C977.92,125.69,978.1,125.36,978.73,125.68Z"/><path class="cls-10" d="M976,134.27a17.88,17.88,0,0,1-5.07,3.15c-.91-1.7-.92-1.75.95-2.64C973.19,134.16,974.47,133.05,976,134.27Z"/><path class="cls-11" d="M997.32,142.15a36.29,36.29,0,0,1-3.75-6c.87,0,1.84-.32,2,1.2,0,.43.61,1.75,1.82,1.45.16.75.72,1.48.31,2.25A2.23,2.23,0,0,0,997.32,142.15Z"/><path class="cls-13" d="M968.41,139.93c-.81.87-1.29,2.07-2.49,2.56C965.24,140.13,965.62,139.74,968.41,139.93Z"/><path class="cls-10" d="M970.94,137.42a10.27,10.27,0,0,1-2.53,2.52c-.23-1,.52-1.67.84-2.45S970.36,137.57,970.94,137.42Z"/><path class="cls-13" d="M961.49,147.52a1.51,1.51,0,0,1-1.24,1C960.13,147.52,960.1,146.62,961.49,147.52Z"/><path class="cls-13" d="M960.23,148.76a1.53,1.53,0,0,1-1.23,1.31C958.8,149.06,959.22,148.63,960.23,148.76Z"/><path class="cls-11" d="M993.56,136.12c-.56-.22-.65-.71-.68-1.23C993.78,134.93,993.51,135.62,993.56,136.12Z"/><path class="cls-13" d="M965.92,142.48c0,.44-.25.62-.63.7C965.25,142.72,965.42,142.46,965.92,142.48Z"/><path class="cls-16" d="M902.58,116.64c.2.45.57.77.23,1.28C902.29,117.57,902.46,117.15,902.58,116.64Z"/><path class="cls-6" d="M966.47,103.88c1,.32,2.57-.73,3.12,1.13.07.26.57.08.82-.13.78-.65,1.06.25,1.55.49s.43.82.2,1.19c-1.15,1.89-.25,4.33-1.67,6.15-.25.32-.06.58.32.69s.87.43.63.89c-.32.62-.94.12-1.2-.06-.69-.49-1.6-.42-2.38-1.32,0,1.57.78,2.71.54,4-.58-.4-1.14-.83-1.74-1.18s-1.36-.72-1.72.37c-.13.38-.32.38-.7.27-1.72-.54-1.77-.48-1.82,1.49-1.09-.31-.47-1.21-.62-1.84-.1-.43.19-1-.41-1.23s-.79.23-.91.74-.69.34-1,.53c-.66.36-1.71.6-1.62,1.43a4.26,4.26,0,0,1-.31,2.08c-.31.9-.25,1.57,1,1.16a13,13,0,0,1,2-.34c-.75,1.71-1.35,3.5-3.06,4.6-.83.53-.19,1.24.17,1.78.58.87.4,1.36-.64,1.51-.37.05-.76,0-.84.51s.18.64.57.81c.92.39.68,1.2.57,1.9s-.61.69-1.27.66a2.07,2.07,0,0,0-2,1.88,8.14,8.14,0,0,1-1.55,3,22.1,22.1,0,0,0-1.83,4.47c-.13.31-.14.68-.52.92s-1.06-1.1-1.13,0c0,.91-.46,2.13.24,2.8a1.7,1.7,0,0,1,.17,2.4,1.75,1.75,0,0,1-2.2.66c-.79-.27-1.59-.5-2.39-.75a8.82,8.82,0,0,0,.32-3.15c.16-.09.44-.14.46-.25.08-.34-.23-.34-.46-.39v-.63a2.11,2.11,0,0,0,1.52-.55c1.27-1,.49-2.43,1-3.56,2-.06,1-1.59,1.26-2.53-.16-1.06.45-2.27-.63-3.15.1-.48-.29-1.27.31-1.4,1.89-.4.73-1.58.69-2.44,0-.3-.54-.65.05-.86.95-.33,1-1.39,1.65-2,.23-.19.48-.46.29-.81s-.56-.32-1-.23-1.33.38-1.34-.46-.59-1.54-.74-2.35c0-.18,0-.36,0-.55.23,0,.56,0,.49-.38,0-.11-.31-.17-.48-.25,0-.53,0-1,0-1.58.33,0,.65-.11.6-.54s-.33-.37-.58-.41l0-1.89c.88-.17.55-.87.6-1.39s.09-.85.55-1a.52.52,0,0,1,.68.21c.25.42.46.79,0,1.28-.71.86-.12,1.6.22,2.49,1.08-.77.51-2.79,2.38-2.67.28.39-.36,1.22.52,1.37.7.12.76-.62,1.14-.93.78-.65.3-1.36,0-2a4.55,4.55,0,0,0-3-2.14c-1.43-.41-2.59-1.7-4.29-.91a.4.4,0,0,1-.57-.36c0-.15.2-.36.36-.46a8.16,8.16,0,0,1,1.12-.53c1.1-.41,1.1-.4.55-1.51-.64,1-2.31.36-2.81,1.62h0a3,3,0,0,0-2.62-.72,2.4,2.4,0,0,0-1.8,2.55c.19,1.43-1,2-2,2.43s-1.19-.71-1.77-1.11c0-2.08-.44-4.33.55-6.17.56-1,.34-2.12.85-2.9s-.13-1.12-.13-1.66a.71.71,0,0,0,.63-.56c.27-.81.41-2,1-2.29,1-.6.88-1.37.9-2.21h0c.85-.34.79-1.29,1.26-1.89a3.56,3.56,0,0,0,.63-2.53.64.64,0,0,0,.59-.42,16.24,16.24,0,0,0,1.3-6.53c1-.91,1-2.66,2.51-3.16.76-.08,1.58.23,2.28-.27a1.38,1.38,0,0,1,1.31-.26,3.27,3.27,0,0,0,4.26-2.22,5.38,5.38,0,0,1,4.73-3.57c.69.38,1.25.47,1.59-.48a3.88,3.88,0,0,1,2-2.46c1.28-.61,1.92-2.11,2.63-3.25s-1.05-1.72-1.8-2.17c-1.09-.64-2.59-.23-3.84-.75-.31-.14-.54.22-.73.47s-.58.58-.92.25-.09-.7.1-1.1A6.38,6.38,0,0,1,963,63.71c1.35-.53,2.57-1.93,4-1.42,1.74.6,3.49-.15,5.14.51.93.37,1.46-.67,2.34-.61,1.25.09,2.51,0,3.77,0,.83,0,1.54.06,2.14-.87s1.56,0,1.63.49c.21,1.45,1.21,1.48,2.22,1.64,1.5.23,2.81,2.29,2.17,3.64-.27.57-.2.61.28.87a5.9,5.9,0,0,1,2.51,2,.77.77,0,0,0,.8.4c.73-.16,1.49-.4.65.77a.41.41,0,0,0,.21.64c1.72.61,1.45,2.11,1.44,3.57,1-.75,1.48-.94,2,.51.39,1,2,1.6,3.16,2s2.31.55,3.1,1.6c.13.16.39,0,.52-.17.34,0,.65.21.6.58-.23,1.67.95,2.54,1.92,3.53a3.92,3.92,0,0,0,1.81,2c.22.09.57.42.54.49-.88,1.9,1.14,2.85,1.36,4.33a12.33,12.33,0,0,0,1.65,4.71,2,2,0,0,1,.1,1.74c-.78.91-.08,1.52.2,2.23v2.21c-.16,1.14.46,2.45-.7,3.38-.54.43-.94.66-1.22-.3s-.81-2-1.17-3c-.23-.66-.92-1-1.1-.46-.54,1.46-2.09,2.53-1.69,4.5-.78-.54-1.26-1.48-2.3-1.24h-.63c.09-.58-.27-1-.51-1.45a1.25,1.25,0,0,1,.29-1.45c.38-.44.73-.13,1.08.13,1.72,1.28,2.13,1.3,2.56-.81s-.37-4.43-.58-6.65c-.07-.65-.5-1.55-.67-2.39-.25-1.22-.21-2.79-1.83-3.12-.82-.17-.91-.38-.71-1.1.14-.46,0-1.07-.61-1-1.23.11-1.24.18-1.64-1-.33-1-.79-1.51-1.81-.76a7.5,7.5,0,0,0-1.71-1.76,22.83,22.83,0,0,0-12.09-3.85c-1.58,0-3.21-.45-4.77.22L974,79c-2.62-.22-5.07.84-7.63,1-.49,0-.7.38-.74.85a.92.92,0,0,1-.29,0,4.27,4.27,0,0,0-4.14,2c-.49.66-1.21,1.18-1.3,2.09-1.25.42-1.31,1.53-1.5,2.58a1.5,1.5,0,0,0-.61,1.19c0,1.39,0,2.78,0,4.16-1.08,1.76-.77,3.58-.25,5.41-.35.27-.16.61-.13.93-.68,2.39-.12,3.23,2.29,3.44A13.15,13.15,0,0,0,966.47,103.88Z"/><path class="cls-13" d="M960.22,76.74a5.38,5.38,0,0,0-4.73,3.57,3.27,3.27,0,0,1-4.26,2.22,1.38,1.38,0,0,0-1.31.26c-.7.5-1.52.19-2.28.27-.06-.78.23-1,1-1.33A14.91,14.91,0,0,0,955,77.16c.24-.31.13-.9.18-1.36,1.47-.53,3,.18,4.58-.42C961.16,74.86,960,76.27,960.22,76.74Z"/><path class="cls-16" d="M994,71.79c1,0,1.37.52,1.4,1.31s-.54,1-1.14,1S993,73.79,993,73A1.12,1.12,0,0,1,994,71.79Z"/><path class="cls-16" d="M954.51,75.49c-.55,1.51-1,1.65-2.25.71.07.07.18.2.2.19.18-.11.13-.25,0-.38a1.36,1.36,0,0,1,1.4-1.3Z"/><path class="cls-11" d="M959.27,64.1c.84-.79,1.54-1.79,2.83-1.92C961.52,63.36,960.88,64.46,959.27,64.1Z"/><path class="cls-13" d="M958.52,73.32a.59.59,0,0,1-.51.51c-.3.06-.53,0-.55-.37s.19-.46.48-.48S958.46,73,958.52,73.32Z"/><path class="cls-11" d="M951.39,72.93c0-.48.06-.88.62-1C952.05,72.42,952.11,72.92,951.39,72.93Z"/><path class="cls-13" d="M1002.07,76.33c-.26.15-.37.27-.5.28s-.22-.1-.34-.15c.09-.1.15-.25.26-.28S1001.72,76.23,1002.07,76.33Z"/><path class="cls-16" d="M999.51,115.12l.11.5-.26-.08a1.73,1.73,0,0,0-1.53.61c-2,1.78-4.34,3.06-6.45,4.66a2.57,2.57,0,0,1-3.8-.17c.42-.19-.16-1.12.45-.92,2,.64,2.47-1.2,3.52-2,.42-.33.08-1-.16-1.44a.81.81,0,0,0-1.15-.45,4.49,4.49,0,0,1-1.35.31,3.79,3.79,0,0,0-3.82,2.87l-1-.8c-.24-1.36-1.25-1.76-2.43-1.94a6,6,0,0,1-2.58-2.82l1.3,0c0,.27.13.53.47.49s.45-.38.43-.69c0-.62-.38-1.53-.1-1.79,1.41-1.33-.45-1.75-.29-2.86-1.07.88.77,1.75-.5,2.32-1-.07-1.86,0-1.27,1.41a2.7,2.7,0,0,1,0,1.09,4.67,4.67,0,0,1-1.64-2.74,3.63,3.63,0,0,1,1.87-4.51,9.31,9.31,0,0,1,3.56-.44l3.17,1,3.11,1.84c1.16,1.08,1.89-.21,2.71-.58,2.08-.93,4-2.25,6.42-2.26,1.51,0,2.58.34,3.21,1.8a3.74,3.74,0,0,1-.68,4.6,5.46,5.46,0,0,0-.2-.91c-.53-1.41-2.28-2-2.44-3.74-.08-.93-1.24-.56-1.85-.24-.83.45-.07.94.14,1.4a1.55,1.55,0,0,0,0,.21c1.25.93-1.17,3,1.14,3.65.32.09-.43,1.14.57.84a1,1,0,0,0,.62-1.38c-.15-.52-.36-1.19.41-1.18.6,0,.2.76.3,1.16a2.43,2.43,0,0,1,0,.47l-.08.11.06-.13,1.29-.28C1001.13,113.47,999.61,114,999.51,115.12ZM985,110.56c1.34,0,1-1.81,2.21-1.93-.1-.17-.17-.4-.32-.5-.31-.2-.74-.92-.94-.46-.39.91-2.06,1.07-1.46,2.51-2-.13-2.78,1.41-2,3.52a1.71,1.71,0,0,0,3.32-.53A3.22,3.22,0,0,0,985,110.56Zm3.6,1.54c0,.79,0,1.36,0,1.94s.34.6.72.61.53-.22.43-.5c-.45-1.25.36-1.45,1.26-1.77s1.18-1.43.49-1.83a3.23,3.23,0,0,0-2.55-.52c-.78.26-.24,1.19-.36,1.81C988.51,112,988.55,112.16,988.55,112.1Zm8.76,1.47c-2.25.55-2.34-.74-2.2-2.26a2.32,2.32,0,0,0-.07-.78c-.06-.3-.14-.67-.54-.64s-.38.42-.34.72c.08.73.2,1.46.3,2.19C994.72,114.72,995.5,115,997.31,113.57Zm-4.28,2.8c-.62-1,.39-3.05-2.18-2.89C992,114.27,992.29,115.47,993,116.37Zm2-.74c0-.31-.25-.33-.47-.27a.77.77,0,0,0-.57.67c0,.24.12.45.36.37A1,1,0,0,0,995,115.63Z"/><path class="cls-13" d="M1001.11,103.91c1-.24,1.52.7,2.3,1.24-.4-2,1.15-3,1.69-4.5.18-.49.87-.2,1.1.46.36,1,.87,2,1.17,3s.68.73,1.22.3c1.16-.93.54-2.24.7-3.38.17.09.51.21.5.29-.13,1.48,1,2.73.77,4.23a2.31,2.31,0,0,0,.37,1.62,2.32,2.32,0,0,1,0,2.4,2.41,2.41,0,0,0,.18,2.92A3.78,3.78,0,0,1,1008,110c-.18-1.57-.8-2.14-2.1-1.52-1.12.53-1.28,0-1.7-.76-.56-1-1.06-2.14-2.57-1.76v0C1001.67,105.17,1000.84,104.7,1001.11,103.91Z"/><path class="cls-18" d="M984.07,118.17l1,.8a6.26,6.26,0,0,0,2.51,1.67,2.57,2.57,0,0,0,3.8.17c2.11-1.6,4.46-2.88,6.45-4.66a1.73,1.73,0,0,1,1.53-.61c-.8,1.92-2.74,2.62-4.16,3.88-.58.51-1.24.94-1.86,1.41l-2.29,1.45c-.32,0-.59.13-.7.48h0c-.31-.14-.48.38-.82.17-4.56-2.83-9.25-5.5-12.24-10.22h0a1.93,1.93,0,0,0-.6-1.27c-.4-2.06-.6-4.11,1.4-5.53a6.24,6.24,0,0,1,4.8-.7v.52a9.31,9.31,0,0,0-3.56.44,3.63,3.63,0,0,0-1.87,4.51,4.67,4.67,0,0,0,1.64,2.74h0a6,6,0,0,0,2.58,2.82A5.69,5.69,0,0,0,984.07,118.17Z"/><path class="cls-19" d="M1000.8,112.17a3.74,3.74,0,0,0,.68-4.6c-.63-1.46-1.7-1.81-3.21-1.8-2.45,0-4.34,1.33-6.42,2.26-.82.37-1.55,1.66-2.71.58l.41-.36c.87,0,1.32-.67,1.89-1.15a19.59,19.59,0,0,1,4.65-2,8.31,8.31,0,0,1,5.58.78v0c2.16,3.1,1,7.94-2.15,9.2.1-1.14,1.62-1.65,1.31-3Z"/><path class="cls-14" d="M903.45,160.74a1.44,1.44,0,0,1-.44.17c-.06,0-.21-.22-.2-.32.05-.25.27-.27.48-.23S903.63,160.39,903.45,160.74Z"/><path class="cls-13" d="M937.57,113.38c.58.4.74,1.6,1.77,1.11s2.18-1,2-2.43a2.4,2.4,0,0,1,1.8-2.55,3,3,0,0,1,2.62.72c-.28.06-.64.07-.47.51,0,.1.22.13.34.19l.13-.7c.5-1.26,2.17-.61,2.81-1.62.55,1.11.55,1.1-.55,1.51a8.16,8.16,0,0,0-1.12.53c-.16.1-.36.31-.36.46a.4.4,0,0,0,.57.36c1.7-.79,2.86.5,4.29.91a4.55,4.55,0,0,1,3,2.14c.34.62.82,1.33,0,2-.38.31-.44,1-1.14.93-.88-.15-.24-1-.52-1.37-1.87-.12-1.3,1.9-2.38,2.67-.34-.89-.93-1.63-.22-2.49.41-.49.2-.86,0-1.28a.52.52,0,0,0-.68-.21c-.46.19-.51.6-.55,1s.28,1.22-.6,1.39c-.28-1.59.62-3.35-.66-4.8-.66-.56-1.67.09-2.4-1.2.07,2.28-1.7,3.5-1.36,5.37-.42.63-.83,1.27-1.24,1.9a27.26,27.26,0,0,0-3.83,3.37c-.32.29-.59.48-.91.3-.69-.39-1.3-1.11-.88-1.78.81-1.28.25-1.92-.56-2.89C935.39,116.19,936.25,113.57,937.57,113.38Z"/><path class="cls-10" d="M945.13,86.22a16.24,16.24,0,0,1-1.3,6.53.64.64,0,0,1-.59.42,16,16,0,0,1,.65-5.72A1.61,1.61,0,0,1,945.13,86.22Z"/><path class="cls-10" d="M941.35,97.59c0,.84.13,1.61-.9,2.21-.57.34-.71,1.48-1,2.29a.71.71,0,0,1-.63.56c-.36-1.39.41-2.6.7-3.87C939.71,98,940.76,98,941.35,97.59Z"/><path class="cls-10" d="M942.61,95.7c-.47.6-.41,1.55-1.26,1.89C941.42,96.73,941,95.5,942.61,95.7Z"/><path class="cls-11" d="M1011.86,99.71c.26.26.72.31.84.73C1012,100.64,1011.64,100.53,1011.86,99.71Z"/><path class="cls-10" d="M1004.32,78c-1.46.18-.67-.76-.65-1.32C1004.42,76.83,1004.21,77.48,1004.32,78Z"/><path class="cls-10" d="M1003.45,76.06c-.38,0-.44-.31-.43-.62Z"/><path class="cls-10" d="M947.66,166.18c0-.49,0-1,.64-1A1.12,1.12,0,0,1,947.66,166.18Z"/><path class="cls-10" d="M947,167.11a.56.56,0,0,1,.58-.66A.55.55,0,0,1,947,167.11Z"/><path class="cls-6" d="M943.87,153.19c.06.24,0,.61.19.71.36.22.37-.16.43-.39s-.13-1,.59-.78a.72.72,0,0,1,.53,1.08c-.14.36-.4.84.11,1.08s.24-.7.86-.53c0,.79.61,1.95-.38,2.26s-2.06.64-3-.27v-2.53A.57.57,0,0,1,943.87,153.19Z"/><path class="cls-10" d="M947.64,139c-.5,1.13.28,2.59-1,3.56a2.11,2.11,0,0,1-1.52.55l-.06-3.19h0c2-.8,3.1-4,2.24-6.6h.94c1.08.88.47,2.09.63,3.15A2.56,2.56,0,0,0,947.64,139Z"/><path class="cls-6" d="M944.5,148.13c.4,0,.65.31,1,.45.7.28,1.64.65,1.31,1.43s-1.27.28-1.94.06a3.11,3.11,0,0,1-.67-.36A2.69,2.69,0,0,0,944.5,148.13Z"/><path class="cls-15" d="M944.49,141.2c.15-.85-.27-1.84.6-2.51v1.2h0C944.88,140.33,944.68,140.76,944.49,141.2Z"/><path class="cls-10" d="M945.13,143.71c.23,0,.54,0,.46.39,0,.11-.3.16-.46.25Z"/><path class="cls-11" d="M945.09,139.89v-1.2c0-.61,0-1.22,0-1.83.45-.16.54-.52.62-1,.52-3.17,1.07-6.34,1.62-9.51a1.25,1.25,0,0,1,.23-.4,4,4,0,0,1,.54,3.52,5.66,5.66,0,0,0-.51,2.21c-.87.23-.75.7-.31,1.26v.32C948.19,135.88,947.11,139.09,945.09,139.89Z"/><path class="cls-13" d="M947.33,133.29V133a2.14,2.14,0,0,0,.31-1.26,5.66,5.66,0,0,1,.51-2.21,4,4,0,0,0-.54-3.52l-.06-1.21c.2-.63-.13-1.39.41-2a.63.63,0,0,0,.27,0c.15.81.73,1.44.74,2.35s.81.59,1.34.46.72-.19,1,.23-.06.62-.29.81c-.66.57-.7,1.63-1.65,2-.59.21-.07.56-.05.86,0,.86,1.2,2-.69,2.44-.6.13-.21.92-.31,1.4Z"/><path class="cls-13" d="M948.26,119.07c.25,0,.54.07.58.41s-.27.5-.6.54C948.25,119.71,948.25,119.39,948.26,119.07Z"/><path class="cls-13" d="M948.25,121.6c.17.08.46.14.48.25.07.36-.26.34-.49.38C948.24,122,948.25,121.81,948.25,121.6Z"/><path class="cls-9" d="M902.78,162.56a.46.46,0,0,1-.21-.63s.09-.05.13-.08l.06.72Z"/><path class="cls-7" d="M960.54,120.34a13,13,0,0,0-2,.34c-1.29.41-1.35-.26-1-1.16a4.26,4.26,0,0,0,.31-2.08c-.09-.83,1-1.07,1.62-1.43.34-.19.9,0,1-.53s.28-1,.91-.74.31.8.41,1.23c.15.63-.47,1.53.62,1.84l-.94,1.89C961,119.7,960.57,119.7,960.54,120.34Z"/><path class="cls-6" d="M955.44,136.12c-.36,0-.84,0-.8-.48a1.16,1.16,0,0,1,1.29-1.08c.49,0,1,.07,1.07.65C957.09,135.64,956.23,136.12,955.44,136.12Z"/><path class="cls-6" d="M949.77,152.61c0,.46-.27.55-.6.56s-.85,0-.86-.6c0-.35.14-.62.52-.57A1,1,0,0,1,949.77,152.61Z"/><path class="cls-6" d="M951.28,146.12c-.35,0-.46-.18-.44-.39a.69.69,0,0,1,.68-.7.4.4,0,0,1,.46.47C951.93,146,951.49,146,951.28,146.12Z"/><path class="cls-6" d="M948.51,150.84c-.33,0-.5-.06-.5-.31s.09-.41.34-.43.45,0,.41.3S948.58,150.72,948.51,150.84Z"/><path class="cls-6" d="M960.54,120.34c0-.64.48-.64.94-.64C961.45,120.34,961,120.34,960.54,120.34Z"/><path class="cls-13" d="M996.09,105.09a19.59,19.59,0,0,0-4.65,2c-1.09.31-1.85-.83-2.91-.66-.85-2.24,1-3.33,2-4.77l.18-.25a16,16,0,0,1,5.33-.7c2.09.07,3-1.19,3.13-3.22a24.12,24.12,0,0,0-3.15-13.17c1-.75,1.48-.2,1.81.76.4,1.14.41,1.07,1.64,1,.65,0,.75.56.61,1-.2.72-.11.93.71,1.1,1.62.33,1.58,1.9,1.83,3.12.17.84.6,1.74.67,2.39.21,2.22,1,4.48.58,6.65s-.84,2.09-2.56.81c-.35-.26-.7-.57-1.08-.13a1.25,1.25,0,0,0-.29,1.45c.24.47.6.87.51,1.45A8.36,8.36,0,0,0,996.09,105.09Z"/><path class="cls-12" d="M996.05,84.33A24.12,24.12,0,0,1,999.2,97.5c-.09,2-1,3.29-3.13,3.22a16,16,0,0,0-5.33.7l-12.88,1.21a13.17,13.17,0,0,1-1.4,0c.15-.18.3-.37.46-.55,1.66-.27,3.39.4,5-.36l.11,0h.12c.37,0,.75.12,1-.26.24-1.18-.51-2.29-.29-3.47l.44-.14c.47.68.28,1.5.47,2.25.13.51.24,1,1,1,1.08,0,2.17,0,3.25,0,.68,0,.74-.4.81-.88l.49-.1c.18.38.33.77.89.64,1.35-.3,2.7-.57,4.06-.85h.57c.46.47.8.2,1.12-.18l1.07-.16a2.11,2.11,0,0,0,1.51-2.33c-.06-1.12-.23-2.24-.35-3.36-.37-1.78-.69-3.59-1.13-5.36a7.64,7.64,0,0,0-3.75-5.18c-.1-1.17-.75-.77-1.36-.48a5.14,5.14,0,0,0-4.35-2.26l0,0c0-.25-.12-.27-.29-.28l-.74-.31a16.75,16.75,0,0,0-5.56-.25.7.7,0,0,0-.74-.35,6.35,6.35,0,0,1-2.64,0l-.16-.43c1.56-.67,3.19-.26,4.77-.22a22.83,22.83,0,0,1,12.09,3.85A7.5,7.5,0,0,1,996.05,84.33Z"/><path class="cls-11" d="M977.25,112.72c3,4.72,7.68,7.39,12.24,10.22.34.21.51-.31.82-.17.05.28,0,.58-.27.65a4,4,0,0,1-1.86,0c-2-.49-3.91-1-5.29-2.68-.06-.07-.21-.19-.25-.16-2,1.09-1.74-.89-2.36-1.7a3.56,3.56,0,0,0-1-1.14c-1.31-.65-1.8-2-2.82-2.95-.41-.36-1.19-1.07.32-1C977.53,113.84,977,113.07,977.25,112.72Z"/><path class="cls-12" d="M966.47,103.88a13.15,13.15,0,0,1-6.85-1.25c-.4-1.18-2.08-1.55-2-3.07.63-.34.64.32.9.56a2.89,2.89,0,0,0,1.95,1.92h0c2.14,1.18,2.56,1.08,3.1-.73.57.24.53.84.78,1.27.43.74,4.94.52,5.58-.23a9.91,9.91,0,0,0,3.47.29H976c-1.89,1-3.94.54-5.92.66C968.84,103.35,967.59,103.19,966.47,103.88Z"/><path class="cls-11" d="M988.53,106.44c1.06-.17,1.82,1,2.91.66-.57.48-1,1.15-1.89,1.15l-1.37-1.11Z"/><path class="cls-19" d="M982.86,105.73v-.52a7.81,7.81,0,0,1,3.77,1.24c-.1.29-.37.28-.6.32Z"/><path class="cls-15" d="M986,106.77c.23,0,.5,0,.6-.32l1.55.69,1.37,1.11-.41.36Z"/><path class="cls-14" d="M976,102.62h-2.54l3.37-.68.1.09c-.16.18-.31.37-.46.55Z"/><path class="cls-11" d="M976.66,111.44a1.93,1.93,0,0,1,.6,1.27c-.53,0-1.17.28-1.32-.58h0Z"/><path class="cls-11" d="M975.94,112.13c-.22,0-.49,0-.47-.39,0,0,.07-.09.1-.09.34,0,.34.24.38.47Z"/><path class="cls-11" d="M990.35,122.76c.11-.35.38-.44.7-.48C991,122.7,990.79,122.9,990.35,122.76Z"/><path class="cls-15" d="M970,102.34c-.64.75-5.15,1-5.58.23-.25-.43-.21-1-.78-1.27-1.14-.24-1.92,1.12-3.1.73h0a2.61,2.61,0,0,0-1.95-1.92c-.26-.24-.27-.9-.9-.56-.11-.13-.23-.25-.34-.37,0-.32-.22-.66.13-.93.83-1.19.11-2.52.32-3.77a6.75,6.75,0,0,0,.24-.72c.48-2.07.06-4.27.9-6.29a7.84,7.84,0,0,0,1-2.56c.09-.91.81-1.43,1.3-2.1.74.34,1.73-1.34,2.29.6.12-1.56.13-1.58,1.23-2,.31-.11.58-.22.62-.6a.92.92,0,0,0,.29,0,4.84,4.84,0,0,0,1.52,0c2.06-.16,3.91-1.23,6-1.26a6.93,6.93,0,0,1-2.94,4.34.7.7,0,0,0-.17.56c.16,2.66-1.9,5.29-.16,8,0,.07-.11.28-.18.42v8.87Zm-6.37-15.76c0-.86.48-1.77-.36-2.64a6.39,6.39,0,0,0-.17,2.61l.06,1.56.13.43v7.51h.34Z"/><path class="cls-12" d="M973.11,79.57c-2.08,0-3.93,1.1-6,1.26a4.84,4.84,0,0,1-1.52,0c0-.47.25-.82.74-.85,2.56-.16,5-1.22,7.63-1-.08.2-.15.41-.22.61Z"/><path class="cls-11" d="M996.09,105.09a8.36,8.36,0,0,1,4.39-1.18h.63c-.27.79.56,1.26.56,2A8.31,8.31,0,0,0,996.09,105.09Z"/><path class="cls-14" d="M958.92,87.48c-.84,2-.42,4.22-.9,6.29a6.75,6.75,0,0,1-.24.72c0-.55,0-1.09-.07-1.64,0-1.38,0-2.77,0-4.16a1.5,1.5,0,0,1,.61-1.19Z"/><path class="cls-12" d="M965.31,80.86c0,.38-.31.49-.62.6-1.1.38-1.11.4-1.23,2-.56-1.94-1.55-.26-2.29-.6A4.28,4.28,0,0,1,965.31,80.86Z"/><path class="cls-11" d="M957.33,99.19c.11.12.23.24.34.37-.13,1.52,1.55,1.89,2,3.07C957.21,102.42,956.65,101.58,957.33,99.19Z"/><path class="cls-15" d="M973.75,79.58c.07-.2.14-.41.22-.61l3.51,0c0,.14.1.29.16.43l-.43.27c-.41-.1-.82-.35-1.26-.06-1.43,0-.31,1.14-.69,1.6A3.06,3.06,0,0,1,973.75,79.58Z"/><path class="cls-12" d="M957.71,92.85c0,.55,0,1.09.07,1.64-.21,1.25.51,2.58-.32,3.77C956.94,96.43,956.63,94.61,957.71,92.85Z"/><path class="cls-13" d="M947.64,139a2.56,2.56,0,0,1,1.26-2.53C948.66,137.38,949.61,138.91,947.64,139Z"/><path class="cls-12" d="M958.92,87.48l-.55,0c.19-1,.25-2.16,1.5-2.58A7.84,7.84,0,0,1,958.92,87.48Z"/><path class="cls-11" d="M952.46,76c.13.13.18.27,0,.38,0,0-.13-.12-.2-.19A1.8,1.8,0,0,0,952.46,76Z"/><path class="cls-14" d="M987.58,120.64a6.26,6.26,0,0,1-2.51-1.67,3.79,3.79,0,0,1,3.82-2.87,4.49,4.49,0,0,0,1.35-.31.81.81,0,0,1,1.15.45c.24.47.58,1.11.16,1.44-1,.84-1.53,2.68-3.52,2C987.42,119.52,988,120.45,987.58,120.64Z"/><path class="cls-14" d="M1000.82,112.15l-1.29.28,0,0a2.43,2.43,0,0,0,0-.47c-.1-.4.3-1.14-.3-1.16-.77,0-.56.66-.41,1.18a1,1,0,0,1-.62,1.38c-1,.3-.25-.75-.57-.84-2.31-.63.11-2.72-1.14-3.65l1.35-.07c-.58-.66-1-.39-1.39-.14-.21-.46-1-1-.14-1.4.61-.32,1.77-.69,1.85.24.16,1.79,1.91,2.33,2.44,3.74a5.46,5.46,0,0,1,.2.91Z"/><path class="cls-19" d="M985,110.56a3.22,3.22,0,0,1,.82,2.61,1.71,1.71,0,0,1-3.32.53c-.79-2.11,0-3.65,2-3.52Zm-1.88,1.79c0,.75.22,1.51,1.06,1.47s.87-.8.84-1.44-.12-1.51-1-1.52S983.18,111.73,983.07,112.35Z"/><path class="cls-19" d="M988.55,112.1c0,.06,0-.11,0-.26.12-.62-.42-1.55.36-1.81a3.23,3.23,0,0,1,2.55.52c.69.4.42,1.51-.49,1.83s-1.71.52-1.26,1.77c.1.28-.11.51-.43.5s-.73-.1-.72-.61S988.55,112.89,988.55,112.1Zm2.12-.89a.75.75,0,0,0-.81-.6c-.49,0-.49.47-.45.84s.15.64.58.5S990.66,111.66,990.67,111.21Z"/><path class="cls-19" d="M997.31,113.57c-1.81,1.43-2.59,1.15-2.85-.77-.1-.73-.22-1.46-.3-2.19,0-.3-.11-.68.34-.72s.48.34.54.64a2.32,2.32,0,0,1,.07.78C995,112.83,995.06,114.12,997.31,113.57Z"/><path class="cls-14" d="M985,110.56l-.51-.38c-.6-1.44,1.07-1.6,1.46-2.51.2-.46.63.26.94.46.15.1.22.33.32.5C986,108.75,986.29,110.6,985,110.56Z"/><path class="cls-12" d="M980.37,110.92c1.27-.57-.57-1.44.5-2.32-.16,1.11,1.7,1.53.29,2.86-.28.26.07,1.17.1,1.79,0,.31,0,.65-.43.69s-.42-.22-.47-.49C980.36,112.61,980.36,111.77,980.37,110.92Z"/><path class="cls-14" d="M980.37,110.92c0,.85,0,1.69,0,2.53l-1.3,0h0a2.7,2.7,0,0,0,0-1.09C978.51,110.89,979.35,110.85,980.37,110.92Z"/><path class="cls-14" d="M993,116.37c-.74-.9-1-2.1-2.18-2.89C993.42,113.32,992.41,115.39,993,116.37Z"/><path class="cls-14" d="M984.07,118.17a5.69,5.69,0,0,1-2.43-1.94C982.82,116.41,983.83,116.81,984.07,118.17Z"/><path class="cls-14" d="M995,115.63a1,1,0,0,1-.68.77c-.24.08-.39-.13-.36-.37a.77.77,0,0,1,.57-.67C994.74,115.3,994.94,115.32,995,115.63Z"/><path class="cls-15" d="M996.45,108.68c.41-.25.81-.52,1.39.14l-1.35.07A1.55,1.55,0,0,1,996.45,108.68Z"/><path class="cls-14" d="M999.53,112.43l-.06.13.08-.11Z"/><path class="cls-6" d="M945.75,110.23l-.13.7c-.12-.06-.3-.09-.34-.19-.17-.44.19-.45.47-.51Z"/><path class="cls-10" d="M947.64,131.71a2.14,2.14,0,0,1-.31,1.26C946.89,132.41,946.77,131.94,947.64,131.71Z"/><path class="cls-18" d="M977.21,79.65l.43-.28a6.35,6.35,0,0,0,2.64,0c0,.36.09.71.13,1.07l.18.44c.29,2.74.27,5.53,1,8.22-.6.57.29.61.34,1-.33.77.11,1.53.17,2.27.14,1.61,0,3.31.76,4.84l0,.37,0,.43c-.22,1.18.53,2.29.29,3.47h-.94a1.16,1.16,0,0,0-1.88.22h-1.88c-.25-1.1,0-2.41-1.22-3.11l.1-.57c.12-.1.36-.21.34-.28a46.78,46.78,0,0,1-.34-8.2c0-2.19-.57-4.4.17-6.59.42-1.24-.12-1.58-1.25-1.4l-.18-.92A1.87,1.87,0,0,0,977.21,79.65Zm3.11,3.72c0-.21,0-.45-.29-.45s-.28.24-.28.45,0,.44.28.45S980.3,83.57,980.32,83.37Zm-1.14,1.88-.34-.46c-.11.07-.27.13-.3.23s0,.42.26.41C978.92,85.42,979,85.31,979.18,85.25Zm-.83,2c0-.09-.05-.23-.11-.26s-.18.06-.26.09,0,.23.11.26S978.26,87.29,978.35,87.26Z"/><path class="cls-19" d="M994.26,99.82c-1.36.28-2.71.55-4.06.85-.56.13-.71-.26-.89-.64a20.55,20.55,0,0,0-.87-5.56.48.48,0,0,0-.16-.62c-.12-1.4-.32-2.8-.37-4.21-.1-3-.67-6.07-.32-9.13a5.14,5.14,0,0,1,4.35,2.26l.33,2.19c-1.11.08-2-.06-1.89-1.55.06-.9-.81-.6-1.3-.71-.76-.17-.49.46-.55.8a25.16,25.16,0,0,0,0,4.51,5.59,5.59,0,0,0,1,3.34,1.65,1.65,0,0,1,.45,2.24,1.23,1.23,0,0,0,.53,1.62c.67.38,1.17-.09,1.54-.66s.72-1.12,1.09-1.68C994.11,95.09,993.78,97.52,994.26,99.82Z"/><path class="cls-18" d="M993.3,83.25a7.64,7.64,0,0,1,3.75,5.18c.44,1.77.76,3.58,1.13,5.36-.59,1.86-1.44,3.66-1.16,5.69l-1.07.16c-.18-.16-.47-.28-.32-.6.42-1,0-1.46-.86-1.8l-.25-1.58a1.22,1.22,0,0,0,0-.27h0c1.18-.9.68-1.59-.27-2.22l0-.64c.28-.59.51-1.17-.27-1.58l-.11-.6c.55-.45.48-.77-.18-1l0-1.58c.4-.59.57-1.14-.2-1.58l-.14-.63,0-.34a6.3,6.3,0,0,0-.4-1.18C992.43,83.42,992.9,83.38,993.3,83.25Z"/><path class="cls-19" d="M981.93,90c0-.34-.94-.38-.34-1s.25-1.5.46-2.23c1.28.54,1.5,2,1.86,3,.65,1.63.34,3.66.37,5.53,0,1.26.28,2.5.18,3.78-.06.92.79.69,1.61,1-.53-.79-.87-1.35-.6-2a3.34,3.34,0,0,0,0-2.65c-.23-.64-.6-1.78.81-2.12.58-.13.75-.8.53-1.45s-.38-1.15.51-1.3l1.49,9.5c-.07.48-.13.91-.81.88-1.08,0-2.17,0-3.25,0-.72,0-.83-.47-1-1-.19-.75,0-1.57-.47-2.25-.16-.1-.32-.2-.49-.29l0-.37c1-.59.32-1.5.27-2.18C983,93.26,983.21,91.44,981.93,90Z"/><path class="cls-14" d="M976.1,80.56l.18.92c.11,4.12.23,8.25.32,12.37a12.67,12.67,0,0,0,.76,4.1c0,.19-.07.38-.1.57a2.68,2.68,0,0,0,0,1.81c.17.62.08,1.58,1.24,1.3h1.88l1.57.05c-1.62.76-3.35.09-5,.36l-.1-.09a17.94,17.94,0,0,1-.44-2.3c-.33-5.63-.48-11.28-1-16.9.33-.31.4-.62,0-1l-.1-.62c.38-.46-.74-1.59.69-1.6Z"/><path class="cls-14" d="M988.82,100.13c-.5-3.17-1-6.34-1.49-9.5l-.09-3.14a.72.72,0,0,0-.24-1l-.19-2.18a.58.58,0,0,0-.09-.67l-.09-1.25,0-2.49.74.31c0,.17.06.32.29.28l0,0c-.35,3.06.22,6.09.32,9.13.05,1.41.25,2.81.37,4.21a.54.54,0,0,0,.16.62,20.55,20.55,0,0,1,.87,5.56Z"/><path class="cls-14" d="M993.59,87.79c0,.53,0,1,0,1.58a.93.93,0,0,0,.18,1c0,.2.08.4.11.6.09.53-.53,1.18.27,1.58,0,.21,0,.42,0,.64-.59.82.57,1.43.27,2.22h0l-.23.14.24.13c.08.53.16,1.06.25,1.58-.34.87.32,1.71.06,2.58h-.57c-.48-2.3-.15-4.73-1.09-6.95,0-.32,0-.63-.07-1a1.14,1.14,0,0,0,.08-1,20.61,20.61,0,0,0-.91-6l-.33-2.19c.61-.29,1.26-.69,1.36.48-.4.13-.87.17-.48.81a6.3,6.3,0,0,1,.4,1.18c-.26.13-.31.25,0,.34l.14.63C993.32,86.75,992.94,87.34,993.59,87.79Z"/><path class="cls-19" d="M986.58,79.94c0,.83,0,1.66,0,2.49-.93-.37-.75-1.62-1.56-2-.89.41-1.28,2.8-2.77.61-.13-.2-.68-.11-1-.16L981,79.69A16.75,16.75,0,0,1,986.58,79.94Z"/><path class="cls-14" d="M981,79.69l.24,1.15.12.65a1.89,1.89,0,0,0,.19,1.34l.48,4c-.21.73.27,1.61-.46,2.23-.73-2.69-.71-5.48-1-8.22l-.18-.44c0-.36-.09-.71-.13-1.07A.7.7,0,0,1,981,79.69Z"/><path class="cls-19" d="M997,99.48c-.28-2,.57-3.83,1.16-5.69.12,1.12.29,2.24.35,3.36A2.11,2.11,0,0,1,997,99.48Z"/><path class="cls-19" d="M994.83,99.82c.26-.87-.4-1.71-.06-2.58.82.34,1.28.85.86,1.8-.15.32.14.44.32.6C995.63,100,995.29,100.29,994.83,99.82Z"/><path class="cls-19" d="M981.93,101.68l-1.57-.05a1.16,1.16,0,0,1,1.88-.22.38.38,0,0,1-.08.25H982Z"/><path class="cls-14" d="M982.16,101.66a.38.38,0,0,0,.08-.25h.94C982.91,101.78,982.53,101.7,982.16,101.66Z"/><path class="cls-14" d="M982.84,97.5c.17.09.33.19.49.29l-.44.14Z"/><path class="cls-19" d="M987.61,80.53c-.23,0-.27-.11-.29-.28C987.49,80.26,987.66,80.28,987.61,80.53Z"/><path class="cls-19" d="M975.26,81.18c0,.21.06.42.1.62-.47.31.06.64,0,1,.56,5.62.71,11.27,1,16.9a17.94,17.94,0,0,0,.44,2.3l-3.37.68a9.91,9.91,0,0,1-3.47-.29l-.33-.6c1-.33.87-1.23.79-1.95a34.74,34.74,0,0,1-.14-4.56,3.68,3.68,0,0,0-.64-2.36c.07-.14.23-.35.18-.42-1.74-2.69.32-5.32.16-8a.7.7,0,0,1,.17-.56,6.93,6.93,0,0,0,2.94-4.34h.64A3.06,3.06,0,0,0,975.26,81.18Z"/><path class="cls-18" d="M960.52,102c1.18.39,2-1,3.1-.73C963.08,103.11,962.66,103.21,960.52,102Z"/><path class="cls-18" d="M958.57,100.12a2.61,2.61,0,0,1,1.95,1.92A2.89,2.89,0,0,1,958.57,100.12Z"/><path class="cls-14" d="M969.66,92.87a3.68,3.68,0,0,1,.64,2.36,34.74,34.74,0,0,0,.14,4.56c.08.72.24,1.62-.79,1.95C969.65,98.78,969.66,95.83,969.66,92.87Z"/><path class="cls-12" d="M963.14,88.11l-.06-1.56.53,0V96h-.34V88.54C963.23,88.39,963.18,88.25,963.14,88.11Z"/><path class="cls-14" d="M963.61,86.58l-.53,0a6.39,6.39,0,0,1,.17-2.61C964.09,84.81,963.65,85.72,963.61,86.58Z"/><path class="cls-14" d="M963.14,88.11c0,.14.09.28.13.43C963.23,88.39,963.18,88.25,963.14,88.11Z"/><path class="cls-19" d="M976.1,80.56l-.15-1c.44-.29.85,0,1.26.06A1.85,1.85,0,0,1,976.1,80.56Z"/><path class="cls-12" d="M983.07,112.35c.11-.62.06-1.5.95-1.49s.93.85,1,1.52-.09,1.4-.84,1.44S983.12,113.1,983.07,112.35Z"/><path class="cls-14" d="M990.67,111.21c0,.45-.33.63-.68.74s-.55-.16-.58-.5,0-.79.45-.84A.75.75,0,0,1,990.67,111.21Z"/><path class="cls-19" d="M977.36,98a12.67,12.67,0,0,1-.76-4.1c-.09-4.12-.21-8.25-.32-12.37,1.13-.18,1.67.16,1.25,1.4-.74,2.19-.12,4.4-.17,6.59a46.78,46.78,0,0,0,.34,8.2C977.72,97.74,977.48,97.85,977.36,98Z"/><path class="cls-14" d="M981.93,90c1.28,1.42,1.08,3.24,1.2,4.93,0,.68.76,1.59-.27,2.18-.78-1.53-.62-3.23-.76-4.84C982,91.55,981.6,90.79,981.93,90Z"/><path class="cls-19" d="M978.48,101.63c-1.16.28-1.07-.68-1.24-1.3a2.68,2.68,0,0,1,0-1.81C978.52,99.22,978.23,100.53,978.48,101.63Z"/><path class="cls-19" d="M980.32,83.37c0,.2,0,.45-.29.45s-.28-.25-.28-.45,0-.46.28-.45S980.31,83.16,980.32,83.37Z"/><path class="cls-19" d="M979.18,85.25c-.14.06-.26.17-.38.18-.28,0-.31-.21-.26-.41s.19-.16.3-.23Z"/><path class="cls-19" d="M978.35,87.26c-.09,0-.2.11-.26.09s-.08-.17-.11-.26.2-.12.26-.09S978.31,87.17,978.35,87.26Z"/><path class="cls-19" d="M980.41,80.41l.18.44Z"/><path class="cls-18" d="M992.27,85a20.61,20.61,0,0,1,.91,6c-.72.27-.79.59-.08,1,0,.32,0,.63.07,1-.37.56-.73,1.12-1.09,1.68s-.87,1-1.54.66a1.23,1.23,0,0,1-.53-1.62,1.65,1.65,0,0,0-.45-2.24,5.59,5.59,0,0,1-1-3.34,25.16,25.16,0,0,1,0-4.51c.06-.34-.21-1,.55-.8.49.11,1.36-.19,1.3.71C990.29,84.9,991.16,85,992.27,85Z"/><path class="cls-15" d="M988.44,94.47a.54.54,0,0,1-.16-.62A.48.48,0,0,1,988.44,94.47Z"/><path class="cls-19" d="M994.52,95.39c.3-.79-.86-1.4-.27-2.22C995.2,93.8,995.7,94.49,994.52,95.39Z"/><path class="cls-19" d="M993.59,87.79c-.65-.45-.27-1-.2-1.58C994.16,86.65,994,87.2,993.59,87.79Z"/><path class="cls-19" d="M994.2,92.53c-.8-.4-.18-1-.27-1.58C994.71,91.36,994.48,91.94,994.2,92.53Z"/><path class="cls-19" d="M993.82,90.35a.93.93,0,0,1-.18-1C994.3,89.58,994.37,89.9,993.82,90.35Z"/><path class="cls-19" d="M994.52,95.66l-.24-.13.23-.14A1.22,1.22,0,0,1,994.52,95.66Z"/><path class="cls-19" d="M993.25,85.58c-.34-.09-.29-.21,0-.34Z"/><path class="cls-18" d="M981.38,81.49l-.12-.65c.36,0,.91,0,1,.16,1.49,2.19,1.88-.2,2.77-.61.81.42.63,1.67,1.56,2l.09,1.25c-.25,0-.6,0-.55.38s.39.26.64.29c.07.73.13,1.45.19,2.18-.5.47-.45.8.24,1l.09,3.14c-.89.15-.71.73-.51,1.3s0,1.32-.53,1.45c-1.41.34-1,1.48-.81,2.12a3.34,3.34,0,0,1,0,2.65c-.27.63.07,1.19.6,2-.82-.32-1.67-.09-1.61-1,.1-1.28-.16-2.52-.18-3.78,0-1.87.28-3.9-.37-5.53-.36-.92-.58-2.43-1.86-3l-.48-4C981.6,82.37,981.74,81.9,981.38,81.49Z"/><path class="cls-15" d="M975.34,82.75c.08-.31-.45-.64,0-1C975.74,82.13,975.67,82.44,975.34,82.75Z"/><path class="cls-15" d="M987.24,87.49c-.69-.16-.74-.49-.24-1A.72.72,0,0,1,987.24,87.49Z"/><path class="cls-19" d="M986.81,84.35c-.25,0-.6,0-.64-.29s.3-.34.55-.38A.58.58,0,0,1,986.81,84.35Z"/><path class="cls-19" d="M993.1,91.92c-.71-.38-.64-.7.08-1A1.14,1.14,0,0,1,993.1,91.92Z"/><path class="cls-19" d="M981.38,81.49c.36.41.22.88.19,1.34A1.89,1.89,0,0,1,981.38,81.49Z"/></g></svg>