<?xml version="1.0" encoding="utf-8"?>
<!-- Generator: Adobe Illustrator 25.3.1, SVG Export Plug-In . SVG Version: 6.00 Build 0)  -->
<svg version="1.1" id="OPS" xmlns="http://www.w3.org/2000/svg" xmlns:xlink="http://www.w3.org/1999/xlink" x="0px" y="0px"
	 viewBox="0 0 1080 215.6" style="enable-background:new 0 0 1080 215.6;" xml:space="preserve">
<style type="text/css">
	.st0{fill:#FFFFFF;}
	.st1{fill:#C8353B;}
	.st2{fill:#5BB951;}
	.st3{fill:#2B3040;}
	.st4{fill:#2A3044;}
</style>
<rect y="141.1" class="st0" width="1080" height="23"/>
<rect class="st1" width="1080" height="141.1"/>
<ellipse transform="matrix(0.7071 -0.7071 0.7071 0.7071 196.6398 708.5704)" class="st0" cx="953.6" cy="116.9" rx="98.7" ry="98.7"/>
<path class="st2" d="M953.6,29.9c-47.5,0-85.9,38.5-85.9,85.9s38.5,85.9,85.9,85.9c47.5,0,85.9-38.5,85.9-85.9
	S1001.1,29.9,953.6,29.9L953.6,29.9z M953.6,196.6c-44.6,0-80.8-36.2-80.8-80.8c0-44.6,36.2-80.8,80.8-80.8
	c44.6,0,80.8,36.2,80.8,80.8c0,0,0,0,0,0C1034.5,160.4,998.3,196.6,953.6,196.6C953.7,196.6,953.6,196.6,953.6,196.6z"/>
<path class="st3" d="M932.4,57.1h21.5v-9.8h-25.1L904.7,71v88.5l24.3,24.8h24.9V175h-20.3l-19.2-19.6V75.1L932.4,57.1z"/>
<path class="st0" d="M934,60.2h20v-3.1h-21.6l-17.9,18v80.3l19.2,19.6h20.3v-3.6h-19.9l-16.5-16.9V76.2L934,60.2z"/>
<path class="st1" d="M942.7,72h11.3V60.2H934l-16.4,16v78.3l16.5,16.9H954v-11.9h-10.7l-9.8-9.8V81.3L942.7,72z"/>
<path class="st0" d="M944,74.9h10V72h-11.3l-9.2,9.3v68.4l9.8,9.8h10.7v-2.8h-9.3l-8.4-8.7V82.6L944,74.9z"/>
<path class="st4" d="M953.9,83.9v-9H944l-7.7,7.7v65.5l8.4,8.7h9.3v-9.4l-8.7-0.1V83.9H953.9z"/>
<polygon class="st0" points="953.9,83.9 953.9,147.3 945.2,147.2 945.2,83.9 "/>
<path class="st3" d="M992.8,75.1v80.3L973.6,175h-20.3v9.3h24.9l24.3-24.8V71l-24.1-23.7h-25.1v9.8h21.5L992.8,75.1z"/>
<path class="st0" d="M989.7,76.2v78.4l-16.5,16.9h-19.9v3.6h20.3l19.2-19.6V75.1l-18-18h-21.5v3.1h20L989.7,76.2z"/>
<path class="st1" d="M973.8,81.3v68.4l-9.8,9.8h-10.7v11.9h19.9l16.5-16.9V76.2l-16.4-16h-20V72h11.3L973.8,81.3z"/>
<path class="st0" d="M971,82.6v65.5l-8.4,8.7h-9.3v2.8H964l9.8-9.8V81.3l-9.2-9.3h-11.2v2.8h10L971,82.6z"/>
<path class="st4" d="M962,83.9v63.3l-8.7,0.1v9.4h9.3l8.4-8.7V82.6l-7.7-7.7h-10v9L962,83.9z"/>
<g>
	<path class="st0" d="M50.4,46.9c0-2.7,2.3-5,5.2-5c2.6,0,4.8,2.3,4.8,5V88h22.3c8,0,8.2,10.7,0,10.7H55.5c-2.9,0-5.2-2-5.2-5V46.9z
		"/>
	<path class="st0" d="M96.1,98.8c-2.6-1.5-4.3-4.4-2.6-7.9l23.5-46c2.2-4.3,8.1-4.5,10.2,0l23.1,46c3.4,6.4-6.6,11.5-9.5,5.1
		l-3.6-7.2h-30.3l-3.5,7.2C102,98.8,99,99.3,96.1,98.8z M131.3,77.9L122,57.7L112,77.9H131.3z"/>
	<path class="st0" d="M157.8,47.8c0-3,0.7-5.8,4.9-5.8c3,0,3.6,0.7,5.8,2.9l27.1,33.9V46.9c0-2.7,2.4-5.7,5.2-5.7c3,0,5.8,3,5.8,5.7
		v46.2c0,3.6-2.2,5-4.3,5.7c-2.9,0-4.3-0.7-6.6-2.9l-27.1-34.4v31.7c0,3.6-2.2,5.7-5.2,5.7c-3,0-5.6-2-5.6-5.7V47.8z"/>
	<path class="st0" d="M266.4,92.5c-5.8,4.8-13,6.9-20.2,6.9c-17.2,0-29.4-9.8-29.4-29.4c0-16.6,12.9-29.4,30.2-29.4
		c6.5,0,13.6,2.2,18.7,7.2c5,4.9-2.2,12.2-7.1,7.9c-3-3-7.3-5.2-11.6-5.2c-9.9,0-19.5,8-19.5,19.5c0,12.1,8,19.5,18.8,19.5
		c5,0,9.3-1.5,12.3-3.7V75.7h-12.3c-7.3,0-6.6-10,0-10h16.4c3,0,5.8,2.3,5.8,4.8V88C268.5,89.5,267.8,90.9,266.4,92.5z"/>
	<path class="st0" d="M279.4,54.3c1.9-15.9,25.9-18.8,37.2-10.1c5.6,4.5-0.3,11.6-5.2,8c-6.1-3.9-19.8-5.7-21.6,2.9
		c-2.2,13.4,33.5,5.7,32.9,27.6c-0.6,20.8-30.8,21.3-42.1,12c-2.7-2.2-2.6-5.8-1.1-8c2.1-2.1,4.5-2.9,7.3-0.6c6.7,4.6,24,8,25.3-3.6
		C311,70.3,276.9,77.6,279.4,54.3z"/>
	<path class="st0" d="M347.5,52.3h-14.4c-7.1,0-7.1-10.5,0-10.5H372c7.3,0,7.3,10.5,0,10.5h-13.6v41.4c0,7.1-10.8,7.3-10.8,0V52.3z"
		/>
	<path class="st0" d="M410.9,99.6c-15.2,0.7-30.9-9.4-30.9-29.5c0-20.2,15.7-30.1,30.9-30.1c14.3,0.7,29.4,10.7,29.4,30.1
		S425.3,99.6,410.9,99.6z M410,50.6c-9.2,0-19.2,6.5-19.2,19.4c0,12.9,10,19.4,19.2,19.4c9.4,0,19.5-6.6,19.5-19.4
		C429.5,57.1,419.5,50.6,410,50.6z"/>
	<path class="st0" d="M450.4,47.8c0-3,0.7-5.8,4.9-5.8c3,0,3.6,0.7,5.8,2.9l27.1,33.9V46.9c0-2.7,2.4-5.7,5.2-5.7c3,0,5.8,3,5.8,5.7
		v46.2c0,3.6-2.2,5-4.3,5.7c-2.9,0-4.3-0.7-6.6-2.9l-27.1-34.4v31.7c0,3.6-2.2,5.7-5.2,5.7s-5.6-2-5.6-5.7V47.8z"/>
</g>
</svg>
