<svg id="Layer_1" data-name="Layer 1" xmlns="http://www.w3.org/2000/svg" viewBox="0 0 1080 215.62"><defs><style>.cls-1{fill:#fff;}.cls-2{fill:#c8353b;}.cls-3{fill:#5bb951;}.cls-4{fill:#2b3040;}.cls-5{fill:#2a3044;}</style></defs><rect class="cls-1" y="141.12" width="1080" height="23.04"/><rect class="cls-2" width="1080" height="141.12"/><circle class="cls-1" cx="888.64" cy="548.87" r="98.7" transform="translate(-62.83 357.18) rotate(-45)"/><path class="cls-3" d="M888.64,461.82a85.94,85.94,0,1,0,85.94,85.94,85.94,85.94,0,0,0-85.94-85.94Zm0,166.77a80.83,80.83,0,1,1,80.83-80.83h0a80.82,80.82,0,0,1-80.81,80.83Z" transform="translate(65 -431.95)"/><path class="cls-4" d="M867.42,489.06h21.52v-9.79H863.83L839.74,503V591.5L864,616.26h24.93V607H868.65l-19.17-19.6v-80.3Z" transform="translate(65 -431.95)"/><path class="cls-1" d="M869,492.15h20v-3.09H867.42l-17.94,18v80.3L868.65,607h20.29v-3.6H869.08L852.55,586.5V508.11Z" transform="translate(65 -431.95)"/><path class="cls-2" d="M877.67,504h11.27V492.15H869l-16.41,16V586.5l16.53,16.85H889V591.5H878.27l-9.83-9.84v-68.4Z" transform="translate(65 -431.95)"/><path class="cls-1" d="M879,506.82h10V504H877.67l-9.23,9.27v68.43l9.83,9.84h10.67V588.7h-9.28l-8.4-8.66V514.5Z" transform="translate(65 -431.95)"/><path class="cls-5" d="M888.94,515.84v-9H879l-7.74,7.66V580l8.4,8.66h9.28v-9.41l-8.71-.12V515.84Z" transform="translate(65 -431.95)"/><polygon class="cls-1" points="953.94 83.88 953.94 147.34 945.23 147.22 945.23 83.88 953.94 83.88"/><path class="cls-4" d="M927.81,507.08v80.3L908.64,607h-20.3v9.28h24.93l24.28-24.76V503l-24.09-23.69H888.34v9.79h21.52Z" transform="translate(65 -431.95)"/><path class="cls-1" d="M924.74,508.11V586.5L908.2,603.38H888.34V607h20.3l19.17-19.6v-80.3l-17.95-18H888.34v3.09h20Z" transform="translate(65 -431.95)"/><path class="cls-2" d="M908.84,513.26v68.43L899,591.5H888.34v11.85H908.2l16.54-16.85V508.11l-16.42-16h-20V504h11.27Z" transform="translate(65 -431.95)"/><path class="cls-1" d="M906,514.5V580l-8.4,8.66h-9.28v2.84H899l9.82-9.84v-68.4L899.59,504H888.34v2.83h10Z" transform="translate(65 -431.95)"/><path class="cls-5" d="M897.05,515.84v63.33l-8.71.12v9.41h9.28L906,580V514.5l-7.69-7.72h-10v9Z" transform="translate(65 -431.95)"/><path class="cls-1" d="M15.54,531c-14.8.64-30.16-9.2-30.16-28.8S.74,472.81,15.54,472.81c14,.72,28.64,10.4,28.64,29.36S29.54,531,15.54,531Zm-.88-47.76c-9,0-18.72,6.32-18.72,19s9.76,19,18.72,19c9.2,0,19-6.4,19-19S23.86,483.21,14.66,483.21Z" transform="translate(65 -431.95)"/><path class="cls-1" d="M54,479.61a5.5,5.5,0,0,1,5.44-5.52H77.92c10.4,0,19.76,7,19.76,20.32,0,12.64-9.36,19.68-19.76,19.68H64.58v10.56c0,3.52-2.24,5.52-5.12,5.52A5.4,5.4,0,0,1,54,524.83V479.61Zm10.56,4.56v19.92H77.92a9.87,9.87,0,0,0,9.6-9.68c0-5.6-4.24-10.24-9.6-10.24Z" transform="translate(65 -431.95)"/><path class="cls-1" d="M105.22,486.81c1.84-15.52,25.28-18.32,36.32-9.84,5.44,4.4-.32,11.36-5.12,7.84-5.92-3.76-19.36-5.52-21,2.8-2.2,13.12,32.58,5.6,32,26.89-.56,20.32-30,20.8-41,11.68a5.92,5.92,0,0,1-1.12-7.84c2.08-2.08,4.4-2.8,7.12-.56,6.56,4.48,23.44,7.84,24.64-3.52C136,502.41,102.74,509.5,105.22,486.81Z" transform="translate(65 -431.95)"/><path class="cls-1" d="M178.07,507.69c-6.72,0-6.64-9.68,0-9.68h20.16c6.4,0,6.08,9.68,0,9.68Z" transform="translate(65 -431.95)"/><path class="cls-1" d="M240.79,530a4.88,4.88,0,0,1-5-5V479.61a4.84,4.84,0,0,1,5-5h28.72c7.36,0,7.2,10.4,0,10.4h-23v12h20.16c7.12,0,7.12,10.48,0,10.48H246.47v12h24.4c7.28,0,7.84,10.48,0,10.48Z" transform="translate(65 -431.95)"/><path class="cls-1" d="M285.11,479.45a5,5,0,0,1,5-4.88,4.87,4.87,0,0,1,4.72,4.88v40.08h21.76c7.84,0,8,10.48,0,10.48H290.15a4.84,4.84,0,0,1-5-4.88Z" transform="translate(65 -431.95)"/><path class="cls-1" d="M335.67,530a4.88,4.88,0,0,1-5-5V479.61a4.84,4.84,0,0,1,5-5h28.72c7.36,0,7.2,10.4,0,10.4h-23v12h20.16c7.12,0,7.12,10.48,0,10.48H341.35v12h24.4c7.28,0,7.84,10.48,0,10.48Z" transform="translate(65 -431.95)"/><path class="cls-1" d="M390.63,494.89v29.6a5.53,5.53,0,0,1-5.76,5.52c-2.56,0-4.8-2-4.8-5.52v-45a5.32,5.32,0,0,1,4.8-5.52c2.32,0,3.68,1.36,5,2.88l17.6,23.76,18.24-24.64a5.19,5.19,0,0,1,9.12,3.52v45c0,3.52-2.24,5.52-4.8,5.52-2.88,0-5.12-2-5.12-5.52v-29.6l-13.28,16.8c-2.88,3.52-6.48,3.52-9.12,0Z" transform="translate(65 -431.95)"/><path class="cls-1" d="M450.87,530a4.88,4.88,0,0,1-5-5V479.61a4.84,4.84,0,0,1,5-5h28.72c7.36,0,7.2,10.4,0,10.4h-23v12h20.16c7.12,0,7.12,10.48,0,10.48H456.55v12H481c7.28,0,7.84,10.48,0,10.48Z" transform="translate(65 -431.95)"/><path class="cls-1" d="M495.27,480.25c0-2.88.64-5.68,4.8-5.68,2.88,0,3.52.72,5.68,2.8l26.48,33.12v-31c0-2.64,2.32-5.52,5-5.52a6.09,6.09,0,0,1,5.68,5.52v45c0,3.52-2.16,4.88-4.24,5.52-2.8,0-4.16-.64-6.48-2.8l-26.48-33.6v30.88c0,3.52-2.16,5.52-5,5.52a5.27,5.27,0,0,1-5.44-5.52Z" transform="translate(65 -431.95)"/><path class="cls-1" d="M569.11,484.65h-14c-7,0-7-10.24,0-10.24H593a5.12,5.12,0,1,1,0,10.24H579.67v40.4c0,7-10.56,7.12-10.56,0Z" transform="translate(65 -431.95)"/><path class="cls-1" d="M597.91,530a5.64,5.64,0,0,1-2.56-7.68l23-44.88c2.16-4.24,7.92-4.4,9.92,0l22.56,44.88c3.28,6.24-6.4,11.2-9.28,5l-3.52-7H608.47l-3.44,7C603.75,530,600.79,530.57,597.91,530Zm34.4-20.32-9-19.76-9.84,19.76Z" transform="translate(65 -431.95)"/><path class="cls-1" d="M668.71,524.81c0,7-10.64,7.2-10.64.16V479.53a4.78,4.78,0,0,1,4.8-4.88h21.28c20.32,0,24.48,27.2,7.52,34l10.64,13c4.16,6.16-4.16,12.08-9,6l-12.08-17.28H668.71Zm0-23.68h15.44c10.4,0,11-16.8,0-16.8H668.71Z" transform="translate(65 -431.95)"/><path class="cls-1" d="M708.79,482.17c-4.33-5.36,4.71-11.52,9-5.68l14.72,21.92,15-21.92c4.24-5.84,13,0,8.8,5.36l-18.72,26.64V525c.72,7-10.56,7-10.56,0V508.49Z" transform="translate(65 -431.95)"/></svg>