<svg id="OPS" xmlns="http://www.w3.org/2000/svg" viewBox="0 0 1080 215.63"><defs><style>.cls-1{fill:#fff;}.cls-2{fill:#c8353b;}.cls-3{fill:#5bb951;}.cls-4{fill:#2b3040;}.cls-5{fill:#2a3044;}</style></defs><rect class="cls-1" y="141.12" width="1080" height="23.04"/><rect class="cls-2" width="1080" height="141.12"/><circle class="cls-1" cx="953.64" cy="116.92" r="98.7"/><path class="cls-3" d="M953.64,30.32a85.94,85.94,0,1,0,85.94,85.94A85.94,85.94,0,0,0,953.64,30.32Zm0,166.77a80.83,80.83,0,1,1,80.83-80.83A80.82,80.82,0,0,1,953.64,197.09Z" transform="translate(0 -0.45)"/><path class="cls-4" d="M932.42,57.56h21.52V47.77H928.83L904.74,71.46V160L929,184.76h24.93v-9.28H933.65l-19.17-19.6V75.58Z" transform="translate(0 -0.45)"/><path class="cls-1" d="M934,60.65h20V57.56H932.42l-17.94,18v80.3l19.17,19.6h20.29v-3.6H934.08L917.55,155V76.61Z" transform="translate(0 -0.45)"/><path class="cls-2" d="M942.67,72.49h11.27V60.65H934l-16.41,16V155l16.53,16.85h19.86V160H943.27l-9.83-9.84V81.76Z" transform="translate(0 -0.45)"/><path class="cls-1" d="M944,75.32h10V72.49H942.67l-9.23,9.27v68.43l9.83,9.84h10.67V157.2h-9.28l-8.4-8.66V83Z" transform="translate(0 -0.45)"/><path class="cls-5" d="M953.94,84.34v-9H944L936.26,83v65.5l8.4,8.66h9.28v-9.41l-8.71-.12V84.34Z" transform="translate(0 -0.45)"/><polygon class="cls-1" points="953.94 83.88 953.94 147.34 945.23 147.22 945.23 83.88 953.94 83.88"/><path class="cls-4" d="M992.81,75.58v80.3l-19.17,19.6h-20.3v9.28h24.93L1002.55,160V71.46L978.46,47.77H953.34v9.79h21.52Z" transform="translate(0 -0.45)"/><path class="cls-1" d="M989.74,76.61V155L973.2,171.88H953.34v3.6h20.3l19.17-19.6V75.58l-17.95-18H953.34v3.09h20Z" transform="translate(0 -0.45)"/><path class="cls-2" d="M973.84,81.76v68.43L964,160H953.34v11.85H973.2L989.74,155V76.61l-16.42-16h-20V72.49h11.27Z" transform="translate(0 -0.45)"/><path class="cls-1" d="M971,83v65.5l-8.4,8.66h-9.28V160H964l9.82-9.84V81.76l-9.23-9.27H953.34v2.83h10Z" transform="translate(0 -0.45)"/><path class="cls-5" d="M962.05,84.34v63.33l-8.71.12v9.41h9.28l8.4-8.66V83l-7.69-7.72h-10v9Z" transform="translate(0 -0.45)"/><text y="-0.45"/><path class="cls-1" d="M80.54,99.47c-14.8.64-30.16-9.2-30.16-28.8S65.74,41.31,80.54,41.31c14,.72,28.64,10.4,28.64,29.36S94.54,99.47,80.54,99.47Zm-.88-47.76c-9,0-18.72,6.32-18.72,19s9.76,19,18.72,19c9.2,0,19-6.4,19-19S88.86,51.71,79.66,51.71Z" transform="translate(0 -0.45)"/><path class="cls-1" d="M119,48.11a5.5,5.5,0,0,1,5.44-5.52h18.48c10.4,0,19.76,7,19.76,20.32,0,12.64-9.36,19.68-19.76,19.68H129.58V93.15c0,3.52-2.24,5.52-5.12,5.52A5.4,5.4,0,0,1,119,93.15Zm10.56,4.56V72.59h13.36a9.86,9.86,0,0,0,9.6-9.68c0-5.6-4.24-10.24-9.6-10.24Z" transform="translate(0 -0.45)"/><path class="cls-1" d="M170.22,55.31c1.84-15.52,25.28-18.32,36.32-9.84,5.44,4.4-.32,11.36-5.12,7.84-5.92-3.76-19.36-5.52-21,2.8C178.22,69.23,213,61.71,212.46,83c-.56,20.32-30,20.8-41,11.68a5.92,5.92,0,0,1-1.12-7.84c2.08-2.08,4.4-2.8,7.12-.56,6.56,4.48,23.44,7.84,24.64-3.52C201,70.91,167.74,78,170.22,55.31Z" transform="translate(0 -0.45)"/></svg>