<svg id="Layer_1" data-name="Layer 1" xmlns="http://www.w3.org/2000/svg" viewBox="0 0 1080 215.62"><defs><style>.cls-1{fill:#fff;}.cls-2{fill:#c8353b;}.cls-3{fill:#5bb951;}.cls-4{fill:#2b3040;}.cls-5{fill:#2a3044;}</style></defs><rect class="cls-1" y="141.12" width="1080" height="23.04"/><rect class="cls-2" width="1080" height="141.12"/><circle class="cls-1" cx="888.64" cy="548.87" r="98.7" transform="translate(-62.83 357.18) rotate(-45)"/><path class="cls-3" d="M888.64,461.82a85.94,85.94,0,1,0,85.94,85.94,85.94,85.94,0,0,0-85.94-85.94Zm0,166.77a80.83,80.83,0,1,1,80.83-80.83h0a80.82,80.82,0,0,1-80.81,80.83Z" transform="translate(65 -431.95)"/><path class="cls-4" d="M867.42,489.06h21.52v-9.79H863.83L839.74,503V591.5L864,616.26h24.93V607H868.65l-19.17-19.6v-80.3Z" transform="translate(65 -431.95)"/><path class="cls-1" d="M869,492.15h20v-3.09H867.42l-17.94,18v80.3L868.65,607h20.29v-3.6H869.08L852.55,586.5V508.11Z" transform="translate(65 -431.95)"/><path class="cls-2" d="M877.67,504h11.27V492.15H869l-16.41,16V586.5l16.53,16.85H889V591.5H878.27l-9.83-9.84v-68.4Z" transform="translate(65 -431.95)"/><path class="cls-1" d="M879,506.82h10V504H877.67l-9.23,9.27v68.43l9.83,9.84h10.67V588.7h-9.28l-8.4-8.66V514.5Z" transform="translate(65 -431.95)"/><path class="cls-5" d="M888.94,515.84v-9H879l-7.74,7.66V580l8.4,8.66h9.28v-9.41l-8.71-.12V515.84Z" transform="translate(65 -431.95)"/><polygon class="cls-1" points="953.94 83.88 953.94 147.34 945.23 147.22 945.23 83.88 953.94 83.88"/><path class="cls-4" d="M927.81,507.08v80.3L908.64,607h-20.3v9.28h24.93l24.28-24.76V503l-24.09-23.69H888.34v9.79h21.52Z" transform="translate(65 -431.95)"/><path class="cls-1" d="M924.74,508.11V586.5L908.2,603.38H888.34V607h20.3l19.17-19.6v-80.3l-17.95-18H888.34v3.09h20Z" transform="translate(65 -431.95)"/><path class="cls-2" d="M908.84,513.26v68.43L899,591.5H888.34v11.85H908.2l16.54-16.85V508.11l-16.42-16h-20V504h11.27Z" transform="translate(65 -431.95)"/><path class="cls-1" d="M906,514.5V580l-8.4,8.66h-9.28v2.84H899l9.82-9.84v-68.4L899.59,504H888.34v2.83h10Z" transform="translate(65 -431.95)"/><path class="cls-5" d="M897.05,515.84v63.33l-8.71.12v9.41h9.28L906,580V514.5l-7.69-7.72h-10v9Z" transform="translate(65 -431.95)"/><path class="cls-1" d="M15.54,531c-14.8.64-30.16-9.2-30.16-28.8S.74,472.81,15.54,472.81c14,.72,28.64,10.4,28.64,29.36S29.54,531,15.54,531Zm-.88-47.76c-9,0-18.72,6.32-18.72,19s9.76,19,18.72,19c9.2,0,19-6.4,19-19S23.86,483.21,14.66,483.21Z" transform="translate(65 -431.95)"/><path class="cls-1" d="M54,479.61a5.5,5.5,0,0,1,5.44-5.52H77.92c10.4,0,19.76,7,19.76,20.32,0,12.64-9.36,19.68-19.76,19.68H64.58v10.56c0,3.52-2.24,5.52-5.12,5.52A5.4,5.4,0,0,1,54,524.83V479.61Zm10.56,4.56v19.92H77.92a9.87,9.87,0,0,0,9.6-9.68c0-5.6-4.24-10.24-9.6-10.24Z" transform="translate(65 -431.95)"/><path class="cls-1" d="M105.22,486.81c1.84-15.52,25.28-18.32,36.32-9.84,5.44,4.4-.32,11.36-5.12,7.84-5.92-3.76-19.36-5.52-21,2.8-2.2,13.12,32.58,5.6,32,26.89-.56,20.32-30,20.8-41,11.68a5.92,5.92,0,0,1-1.12-7.84c2.08-2.08,4.4-2.8,7.12-.56,6.56,4.48,23.44,7.84,24.64-3.52C136,502.41,102.74,509.5,105.22,486.81Z" transform="translate(65 -431.95)"/><path class="cls-1" d="M175.72,507.7c-6.55,0-6.47-9.42,0-9.42h19.62c6.23,0,5.91,9.42,0,9.42Z" transform="translate(65 -431.95)"/><path class="cls-1" d="M232.09,524.59V480.37c0-2.81,2-4.83,5.52-4.83a4.64,4.64,0,0,1,4.75,4.83v17h25.39v-17a5.06,5.06,0,0,1,5.29-4.83,4.7,4.7,0,0,1,4.83,4.83v44.22a4.75,4.75,0,0,1-4.83,4.83,5.11,5.11,0,0,1-5.29-4.83V507.54H242.36v17.05a4.69,4.69,0,0,1-4.75,4.83C234.11,529.42,232.09,527.32,232.09,524.59Z" transform="translate(65 -431.95)"/><path class="cls-1" d="M289.24,480.21c0-6.38,10.28-6.62,10.28,0v44.46c0,6.47-10.28,6.62-10.28,0Z" transform="translate(65 -431.95)"/><path class="cls-1" d="M357,523.43A29.53,29.53,0,0,1,337.82,530c-16.35,0-27.95-9.35-27.95-27.88,0-15.73,12.22-27.95,28.65-27.95A25.53,25.53,0,0,1,356.28,481c4.75,4.67-2.11,11.6-6.78,7.48a16.42,16.42,0,0,0-11-4.91A18.56,18.56,0,0,0,320,502.09c0,11.53,7.63,18.53,17.83,18.53a19.83,19.83,0,0,0,11.68-3.5v-9.58H337.82c-6.93,0-6.23-9.5,0-9.5H353.4c2.88,0,5.52,2.18,5.52,4.6v16.58A6.31,6.31,0,0,1,357,523.43Z" transform="translate(65 -431.95)"/><path class="cls-1" d="M370.29,524.59V480.37c0-2.81,2-4.83,5.53-4.83a4.65,4.65,0,0,1,4.75,4.83v17H406v-17a5.06,5.06,0,0,1,5.3-4.83,4.7,4.7,0,0,1,4.82,4.83v44.22a4.75,4.75,0,0,1-4.82,4.83,5.11,5.11,0,0,1-5.3-4.83V507.54H380.57v17.05a4.69,4.69,0,0,1-4.75,4.83C372.31,529.42,370.29,527.32,370.29,524.59Z" transform="translate(65 -431.95)"/><path class="cls-1" d="M448.7,487.22c1.79-15.11,24.6-17.83,35.35-9.58,5.29,4.28-.31,11.06-5,7.63-5.76-3.66-18.84-5.37-20.47,2.73-2.11,12.77,31.76,5.45,31.22,26.16-.55,19.78-29.2,20.25-39.95,11.37a5.76,5.76,0,0,1-1.09-7.63c2-2,4.29-2.73,6.93-.55,6.39,4.36,22.82,7.63,24-3.42C478.67,502.4,446.28,509.33,448.7,487.22Z" transform="translate(65 -431.95)"/><path class="cls-1" d="M496.82,502.09c0-15,9.42-27.95,27.33-27.95,6.77,0,12.14,2,17.83,6.93a5,5,0,1,1-6.93,7.32c-3.2-3.35-6.47-4.28-10.9-4.28-12,0-17.76,8.48-17.76,18,0,9.66,5.69,18.53,17.76,18.53a18.13,18.13,0,0,0,12.14-5,5.26,5.26,0,0,1,7.17.93c1.24,1.72,1.87,4.6-.86,7.32-5.45,5.07-12,6.08-18.45,6.08C505.3,530,496.82,517.12,496.82,502.09Z" transform="translate(65 -431.95)"/><path class="cls-1" d="M553.65,524.59V480.37c0-2.81,2-4.83,5.53-4.83a4.64,4.64,0,0,1,4.75,4.83v17h25.39v-17a5.06,5.06,0,0,1,5.29-4.83,4.7,4.7,0,0,1,4.83,4.83v44.22a4.75,4.75,0,0,1-4.83,4.83,5.11,5.11,0,0,1-5.29-4.83V507.54H563.93v17.05a4.69,4.69,0,0,1-4.75,4.83C555.68,529.42,553.65,527.32,553.65,524.59Z" transform="translate(65 -431.95)"/><path class="cls-1" d="M637.67,530.2c-14.41.62-29.36-9-29.36-28s15-28.58,29.36-28.58c13.62.7,27.87,10.13,27.87,28.58S651.29,530.2,637.67,530.2Zm-.86-46.48c-8.72,0-18.22,6.15-18.22,18.45s9.5,18.45,18.22,18.45c9,0,18.53-6.23,18.53-18.45S645.77,483.72,636.81,483.72Z" transform="translate(65 -431.95)"/><path class="cls-1" d="M702.45,530.2c-14.41.62-29.36-9-29.36-28s14.95-28.58,29.36-28.58c13.62.7,27.87,10.13,27.87,28.58S716.07,530.2,702.45,530.2Zm-.86-46.48c-8.72,0-18.22,6.15-18.22,18.45s9.5,18.45,18.22,18.45c9,0,18.53-6.23,18.53-18.45S710.55,483.72,701.59,483.72Z" transform="translate(65 -431.95)"/><path class="cls-1" d="M739.82,480.21a4.85,4.85,0,0,1,4.91-4.75,4.74,4.74,0,0,1,4.59,4.75v39H770.5c7.63,0,7.79,10.2,0,10.2H744.73a4.71,4.71,0,0,1-4.91-4.75Z" transform="translate(65 -431.95)"/></svg>