<svg id="Layer_1" data-name="Layer 1" xmlns="http://www.w3.org/2000/svg" viewBox="0 0 1080 215.62"><defs><style>.cls-1{fill:#fff;}.cls-2{fill:#c8353b;}.cls-3{fill:#5bb951;}.cls-4{fill:#2b3040;}.cls-5{fill:#2a3044;}</style></defs><rect class="cls-1" y="141.12" width="1080" height="23.04"/><rect class="cls-2" width="1080" height="141.12"/><circle class="cls-1" cx="888.64" cy="548.87" r="98.7" transform="translate(-62.83 357.18) rotate(-45)"/><path class="cls-3" d="M888.64,461.82a85.94,85.94,0,1,0,85.94,85.94,85.94,85.94,0,0,0-85.94-85.94Zm0,166.77a80.83,80.83,0,1,1,80.83-80.83h0a80.82,80.82,0,0,1-80.81,80.83Z" transform="translate(65 -431.95)"/><path class="cls-4" d="M867.42,489.06h21.52v-9.79H863.83L839.74,503V591.5L864,616.26h24.93V607H868.65l-19.17-19.6v-80.3Z" transform="translate(65 -431.95)"/><path class="cls-1" d="M869,492.15h20v-3.09H867.42l-17.94,18v80.3L868.65,607h20.29v-3.6H869.08L852.55,586.5V508.11Z" transform="translate(65 -431.95)"/><path class="cls-2" d="M877.67,504h11.27V492.15H869l-16.41,16V586.5l16.53,16.85H889V591.5H878.27l-9.83-9.84v-68.4Z" transform="translate(65 -431.95)"/><path class="cls-1" d="M879,506.82h10V504H877.67l-9.23,9.27v68.43l9.83,9.84h10.67V588.7h-9.28l-8.4-8.66V514.5Z" transform="translate(65 -431.95)"/><path class="cls-5" d="M888.94,515.84v-9H879l-7.74,7.66V580l8.4,8.66h9.28v-9.41l-8.71-.12V515.84Z" transform="translate(65 -431.95)"/><polygon class="cls-1" points="953.94 83.88 953.94 147.34 945.23 147.22 945.23 83.88 953.94 83.88"/><path class="cls-4" d="M927.81,507.08v80.3L908.64,607h-20.3v9.28h24.93l24.28-24.76V503l-24.09-23.69H888.34v9.79h21.52Z" transform="translate(65 -431.95)"/><path class="cls-1" d="M924.74,508.11V586.5L908.2,603.38H888.34V607h20.3l19.17-19.6v-80.3l-17.95-18H888.34v3.09h20Z" transform="translate(65 -431.95)"/><path class="cls-2" d="M908.84,513.26v68.43L899,591.5H888.34v11.85H908.2l16.54-16.85V508.11l-16.42-16h-20V504h11.27Z" transform="translate(65 -431.95)"/><path class="cls-1" d="M906,514.5V580l-8.4,8.66h-9.28v2.84H899l9.82-9.84v-68.4L899.59,504H888.34v2.83h10Z" transform="translate(65 -431.95)"/><path class="cls-5" d="M897.05,515.84v63.33l-8.71.12v9.41h9.28L906,580V514.5l-7.69-7.72h-10v9Z" transform="translate(65 -431.95)"/><path class="cls-1" d="M15.54,531c-14.8.64-30.16-9.2-30.16-28.8S.74,472.81,15.54,472.81c14,.72,28.64,10.4,28.64,29.36S29.54,531,15.54,531Zm-.88-47.76c-9,0-18.72,6.32-18.72,19s9.76,19,18.72,19c9.2,0,19-6.4,19-19S23.86,483.21,14.66,483.21Z" transform="translate(65 -431.95)"/><path class="cls-1" d="M54,479.61a5.5,5.5,0,0,1,5.44-5.52H77.92c10.4,0,19.76,7,19.76,20.32,0,12.64-9.36,19.68-19.76,19.68H64.58v10.56c0,3.52-2.24,5.52-5.12,5.52A5.4,5.4,0,0,1,54,524.83V479.61Zm10.56,4.56v19.92H77.92a9.87,9.87,0,0,0,9.6-9.68c0-5.6-4.24-10.24-9.6-10.24Z" transform="translate(65 -431.95)"/><path class="cls-1" d="M105.22,486.81c1.84-15.52,25.28-18.32,36.32-9.84,5.44,4.4-.32,11.36-5.12,7.84-5.92-3.76-19.36-5.52-21,2.8-2.2,13.12,32.58,5.6,32,26.89-.56,20.32-30,20.8-41,11.68a5.92,5.92,0,0,1-1.12-7.84c2.08-2.08,4.4-2.8,7.12-.56,6.56,4.48,23.44,7.84,24.64-3.52C136,502.41,102.74,509.5,105.22,486.81Z" transform="translate(65 -431.95)"/><path class="cls-1" d="M183.11,507c-6.88,0-6.8-9.92,0-9.92h20.67c6.56,0,6.23,9.92,0,9.92Z" transform="translate(65 -431.95)"/><path class="cls-1" d="M248.06,529.88c-2.71,0-5.66-1.48-5.66-5.09V478.22c0-3,2.95-5.09,5.66-5.09h18.78c37.47,0,36.65,56.75.73,56.75Zm5.16-46.74v36.74h13.62c22.14,0,23.12-36.74,0-36.74Z" transform="translate(65 -431.95)"/><path class="cls-1" d="M304.88,478.05c0-6.72,10.83-7,10.83,0v46.83c0,6.8-10.83,7-10.83,0Z" transform="translate(65 -431.95)"/><path class="cls-1" d="M326.86,485.43c1.88-15.9,25.91-18.77,37.23-10.08,5.57,4.51-.33,11.64-5.25,8-6.07-3.85-19.85-5.65-21.57,2.87-2.21,13.45,33.46,5.74,32.88,27.56-.57,20.82-30.75,21.32-42.06,12a6.07,6.07,0,0,1-1.15-8c2.13-2.13,4.51-2.87,7.3-.57,6.72,4.59,24,8,25.25-3.61C358.43,501.42,324.32,508.72,326.86,485.43Z" transform="translate(65 -431.95)"/><path class="cls-1" d="M395,483.38H380.65c-7.13,0-7.13-10.49,0-10.49h38.79a5.25,5.25,0,1,1,0,10.49H405.82v41.41c0,7.14-10.82,7.3-10.82,0Z" transform="translate(65 -431.95)"/><path class="cls-1" d="M443.63,524.55c0,7.13-10.91,7.38-10.91.16V478.14a4.91,4.91,0,0,1,4.92-5h21.81c20.83,0,25.09,27.88,7.71,34.85l10.91,13.29c4.26,6.31-4.27,12.38-9.19,6.15L456.5,509.71H443.63Zm0-24.27h15.82c10.66,0,11.32-17.22,0-17.22H443.63Z" transform="translate(65 -431.95)"/><path class="cls-1" d="M488.73,478.05c0-6.72,10.82-7,10.82,0v46.83c0,6.8-10.82,7-10.82,0Z" transform="translate(65 -431.95)"/><path class="cls-1" d="M509.63,501.1c0-15.83,9.93-29.44,28.79-29.44,7.13,0,12.79,2.13,18.77,7.3a5.31,5.31,0,1,1-7.29,7.7c-3.36-3.52-6.81-4.51-11.48-4.51-12.63,0-18.7,8.94-18.7,19s6,19.51,18.7,19.51a19.06,19.06,0,0,0,12.79-5.25,5.52,5.52,0,0,1,7.54,1c1.31,1.8,2,4.84-.9,7.71-5.74,5.33-12.63,6.39-19.43,6.39C518.57,530.45,509.63,516.92,509.63,501.1Z" transform="translate(65 -431.95)"/><path class="cls-1" d="M584.83,483.38H570.48c-7.14,0-7.14-10.49,0-10.49h38.78a5.25,5.25,0,1,1,0,10.49H595.65v41.41c0,7.14-10.82,7.3-10.82,0Z" transform="translate(65 -431.95)"/></svg>