<?xml version="1.0" encoding="utf-8"?>
<!-- Generator: Adobe Illustrator 25.0.0, SVG Export Plug-In . SVG Version: 6.00 Build 0)  -->
<svg version="1.1" id="Layer_1" xmlns="http://www.w3.org/2000/svg" xmlns:xlink="http://www.w3.org/1999/xlink" x="0px" y="0px"
	 viewBox="0 0 543 537" style="enable-background:new 0 0 543 537;" xml:space="preserve">
<style type="text/css">
	.st0{fill:#58BA51;}
</style>
<path class="st0" d="M542.5,263.4C539.9,115.2,416.4-2.7,266.7,0C117,2.7-2.2,124.9,0.5,273.1s126.1,266.1,275.8,263.4
	C426,533.8,545.2,411.5,542.5,263.4z M276,520.2C134.9,522.7,18.4,412,15.9,272.9C13.4,133.8,125.8,19,267,16.5
	s257.6,108.2,260.1,247.3C529.6,402.9,417.2,517.7,276,520.2z"/>
<g>
	<g>
		<path class="st0" d="M177.1,200c-0.1-0.8-0.2-1.3-0.2-1.8c0-17.2-0.2-34.4,0.1-51.6c0.3-18.9,18.2-34.2,39.3-34.2
			c27.6,0,55.2,0,82.7,0c17.7,0,35.5,0,53.2,0c23.8,0,41.1,15.5,41.1,36.8c0,33.4,0,66.9,0,100.3c0,49.8,0,99.6,0,149.4
			c0,7.6,0.4,15.4-0.5,22.9c-2,17.7-18.8,31-38.6,31.1c-33.5,0.1-67.1,0-100.7,0c-11.9,0-23.9,0.1-35.9,0.1c-23.9,0-41-15.4-41-36.8
			c0-39.2,0.1-78.4,0.1-117.6c0-3.5-0.1-7.1,0-10.6c0-0.8,0.5-2,1.1-2.2c5.7-2.2,11.5-4.3,17.8-6.5c0,2,0,3.5,0,5.1
			c0,22.9,0,45.8,0,68.7c0,6.5,0.3,13-0.1,19.5c-0.6,11.8,9.6,20.4,22.5,20.3c32.6-0.3,65.3-0.1,97.9-0.1c12,0,23.9,0,35.9,0
			c13.7,0,22.3-7.7,22.3-20.1c0-32.7,0-65.4,0-98.1c0-35.7,0-71.5,0-107.2c0-9.7-6.7-17.4-16.8-18.9c-4.1-0.6-8.4-0.4-12.6-0.4
			c-27,0-54,0-81.1,0.1c-16.1,0-32.2-0.1-48.3,0.1c-10.5,0.1-19.4,8.1-19.7,17.6c-0.2,8.3-0.1,16.6,0,24.9c0,1.9-0.7,2.8-2.6,3.4
			C188,195.9,182.8,197.9,177.1,200z M285.3,441.2c11,0,20.1-8.1,20-17.8c-0.1-9.9-9-17.9-19.9-17.9c-11.2,0-20.2,8-20.1,18
			C265.3,433.3,274.2,441.2,285.3,441.2z M285.2,134c5,0,10.1,0,15.2,0c5.3,0,10.7,0,16,0c2.6,0,4.1-1.2,4.1-3.1
			c0-2.1-1.4-3.3-4.1-3.4c-0.3,0-0.5,0-0.8,0c-19.9,0-39.9,0-59.8,0c-1,0-2,0-3,0.2c-1.8,0.4-2.9,1.4-2.8,3.2s1.2,2.7,3,3
			c1.1,0.1,2.2,0.1,3.3,0.1C265.9,134,275.6,134,285.2,134z"/>
		<path class="st0" d="M163.4,424c-4.5-4.1-8.9-8.2-13.4-12.2c-16.8-15.1-33.6-30.1-50.4-45.2c-6.1-5.5-9.2-11.9-8.8-19.7
			c0.8-15.4,1.4-30.8,2.1-46.1c0.5-12.7,1.2-25.3,1.4-38c0.2-13.9,8.1-23.2,21.9-28.4c27.3-10.3,54.9-20.1,82.4-30.1
			c6.5-2.4,13.1-4.9,19.9-6.3c9.9-2,20.1-0.8,27.1,6.2c8.6,8.5,14,18.8,9.6,30.7c-3.3,9-10.9,14.7-20.4,18.2
			c-22.2,8.1-44.4,16.2-66.7,24.2c-3.1,1.1-4.1,2.4-4.1,5.3c0.1,32.9,0.1,65.7,0.2,98.5c0,13.3,0,26.7,0,40c0,0.9,0,1.7,0,2.6
			C163.8,423.8,163.6,423.9,163.4,424z M150.6,348.1c0.1,0.1,0.3,0.3,0.4,0.4c0.6-0.5,1.4-1,1.9-1.6c3.9-4.4,5.1-9.4,3.5-14.8
			c-2.2-7.6-8.9-12.6-17.8-13.3c-8.1-0.6-16.6,3.7-20.1,10.2c-3.1,5.9-1.7,14.1,3.4,18.6c4.1,3.5,11.5,6.2,19.6,2.6
			c7.2-3.2,10.3-10.3,6.8-16.8c-2-3.6-5.2-6.1-9.8-6.2c-4.4-0.1-8,1.6-10.2,5.3c-1.6,2.7-1.5,5.4,0.2,8c1.6,2.4,4.2,3.3,7.3,3.2
			c2.7-0.1,5.7-2.6,5.3-4.7c-0.2-0.8-1.2-1.4-1.9-2.1c-0.6,0.7-1.6,1.3-1.6,2c-0.1,1.4-0.2,2.8-1.9,2.7c-1.3-0.1-3-0.9-3.6-1.9
			c-2-3.1-0.6-6.5,2.7-7.9c3.8-1.5,8.3,0,10,3.4c2.8,5.7-1.2,11.9-8.1,12.6c-10.6,1.2-16.2-7.4-13.9-15.4c1.9-6.6,8.3-9.9,16.6-9.1
			c9.7,0.9,16.1,8.8,13.8,17.2C152.7,343.1,151.6,345.6,150.6,348.1z"/>
		<path class="st0" d="M407.9,361.7c0-41.4,0-82.1,0-122.9c10.4-0.1,22.3,8,25.5,17.3c1.3,3.8,2.4,7.6,3.2,11.5
			c2.1,10.3-3,18.2-11,24.9c-0.8,0.7-1.6,1.3-2.5,2c3.5,1.1,6.9,1.9,10,3.1c7.3,2.9,13,9.6,13.7,10.6c1.7,2.2,3.3,4.1,4.3,7.3
			c0.8,2.5,1,4.6,1.2,8.2c0.1,2.2,0.3,4.3,0,7c-0.3,2.9-0.6,6-2.3,9.3c-1.2,2.2-2.5,3.6-4.7,5.8c-3.3,3.4-6.3,5.4-7,5.8
			c-3.2,2.1-6,3.2-8.8,4.2C421.4,358.7,413.5,360.6,407.9,361.7z"/>
		<path class="st0" d="M286.7,74.3c13.1,0.1,25.5,4.3,36,12.7c1.3,1,2.6,2.2,3.4,3.5c1.7,2.9,0.7,6.4-2.3,8.4
			c-2.7,1.8-6.8,1.8-9.4-0.4c-4.1-3.4-8.5-6.3-13.7-8.1c-15.3-5.1-29.2-2.9-41.7,6.6c-1,0.8-2,1.7-3.2,2.3c-3.2,1.7-7.3,0.8-9.6-1.8
			c-2.4-2.8-2.1-6.3,0.8-8.9c4.8-4.3,10.3-7.7,16.5-10.1C270.6,75.8,278,74.3,286.7,74.3z"/>
		<path class="st0" d="M239.1,328.1c0-7.2,2.1-14,6.2-20.2c1.7-2.6,3-2.9,5.8-1.3c3.7,2.1,7.4,4.3,11.1,6.4c2,1.1,2.4,2.5,1.2,4.4
			c-4.6,7.1-4.5,14.2,0,21.4c1.3,2,0.8,3.4-1.3,4.5c-3.7,2.1-7.4,4.3-11.1,6.4c-2.7,1.5-3.9,1.2-5.6-1.3
			C241.2,342.1,239.2,335.4,239.1,328.1z"/>
		<path class="st0" d="M283.7,286.4c10.1,0,17.5,1.7,24.3,5.4c3.3,1.7,3.6,2.7,1.6,5.5c-2.4,3.3-4.8,6.6-7.2,10
			c-1.2,1.8-2.8,2-4.7,1c-8.1-4.2-16.2-4-24.3,0.1c-1.8,0.9-3.2,0.5-4.3-0.9c-2.7-3.7-5.4-7.5-8-11.2c-1.2-1.7-0.3-2.9,1.4-3.9
			C269.8,288.2,277.6,286.4,283.7,286.4z"/>
		<path class="st0" d="M407.9,187.5c4.6,3,8,6.5,9.5,11.1c1.6,4.9,3,9.8,3.9,14.9c1.4,8.1-5.2,19.4-13.4,23.6
			C407.9,220.6,407.9,204.2,407.9,187.5z"/>
		<path class="st0" d="M343.8,224.8c-0.1,6.3-5.4,10.8-12.7,10.7c-6.6-0.1-12-5.3-11.8-11.4c0.2-5.8,6.1-10.8,12.5-10.6
			C338.7,213.8,343.9,218.6,343.8,224.8z"/>
		<path class="st0" d="M285.9,235.5c-6.7,0.1-12.3-4.9-12.4-10.9c0-6.1,5.3-10.9,12.2-11.1c6.5-0.1,12.3,4.9,12.4,10.7
			C298.2,230.4,292.7,235.5,285.9,235.5z"/>
		<path class="st0" d="M343.9,261.5c0,6-5.5,10.9-12.4,10.9c-6.5,0-12.3-5.2-12.2-10.9c0.1-6.3,5.5-11.2,12.4-11.1
			C338.5,250.5,343.9,255.4,343.9,261.5z"/>
		<path class="st0" d="M298,261.7c0,5.5-5.9,10.7-12.1,10.7c-6.9,0-12.5-4.9-12.5-11.1c0-6,5.5-10.9,12.3-10.9
			C292.7,250.5,298.1,255.5,298,261.7z"/>
		<path class="st0" d="M249.1,192.3c-6.6-3.7-13.6-5.6-21-6.1c0.2-3.6,3-6.9,6.9-8.2c4.7-1.5,9.7-0.4,12.8,2.8
			C250.9,184.2,251.5,188.3,249.1,192.3z"/>
		<path class="st0" d="M229.9,267.1c6.7-2.8,13.4-5.5,20.1-8.2c1.9,4.2-0.7,9.6-5.7,11.8C239,273,232.7,271.4,229.9,267.1z"/>
		<path class="st0" d="M150.6,348.1c0.9-2.5,2-4.9,2.7-7.5c2.3-8.5-4.1-16.3-13.8-17.2c-8.3-0.8-14.7,2.5-16.6,9.1
			c-2.3,8.1,3.3,16.6,13.9,15.4c6.9-0.8,10.9-7,8.1-12.6c-1.7-3.3-6.2-4.9-10-3.4c-3.4,1.3-4.7,4.8-2.7,7.9c0.6,1,2.3,1.8,3.6,1.9
			c1.7,0.1,1.8-1.4,1.9-2.7c0.1-0.7,1.1-1.4,1.6-2c0.6,0.7,1.7,1.3,1.9,2.1c0.4,2.1-2.6,4.6-5.3,4.7c-3,0.1-5.6-0.8-7.3-3.2
			c-1.8-2.6-1.8-5.3-0.2-8c2.2-3.6,5.8-5.4,10.2-5.3c4.7,0.1,7.9,2.6,9.8,6.2c3.5,6.4,0.4,13.5-6.8,16.8c-8.1,3.6-15.6,1-19.6-2.6
			c-5.1-4.4-6.5-12.7-3.4-18.6c3.4-6.5,11.9-10.9,20.1-10.2c8.9,0.7,15.6,5.6,17.8,13.3c1.6,5.5,0.4,10.4-3.5,14.8
			c-0.5,0.6-1.3,1.1-1.9,1.6C150.9,348.4,150.8,348.2,150.6,348.1z"/>
	</g>
	<path class="st0" d="M287.3,46.7c19.5,0.2,37.9,4.6,53.6,13.5c1.9,1.1,3.8,2.3,5,3.7c2.6,3.1,1,6.8-3.4,8.9
		c-4.1,1.9-10.1,1.9-14-0.4c-6.1-3.6-12.6-6.7-20.5-8.5c-22.8-5.3-43.5-3-62.1,7c-1.6,0.8-3,1.8-4.8,2.5c-4.8,1.8-10.9,0.9-14.3-1.9
		c-3.5-2.9-3.1-6.7,1.2-9.5c7.1-4.5,15.3-8.1,24.6-10.7C263.3,48.2,274.4,46.7,287.3,46.7z"/>
	<path class="st0" d="M331.9,328.2c0-7.2-2.1-14-6.2-20.2c-1.7-2.6-3-2.9-5.8-1.3c-3.7,2.1-7.4,4.3-11.1,6.4c-2,1.1-2.4,2.5-1.2,4.4
		c4.6,7.1,4.5,14.2,0,21.4c-1.3,2-0.8,3.4,1.3,4.5c3.7,2.1,7.4,4.3,11.1,6.4c2.7,1.5,3.9,1.2,5.6-1.3
		C329.8,342.2,331.8,335.4,331.9,328.2z"/>
	<path class="st0" d="M284.1,370.4c10.1,0,17.5-1.7,24.3-5.4c3.3-1.7,3.6-2.7,1.6-5.5c-2.4-3.3-4.8-6.6-7.2-10c-1.2-1.8-2.8-2-4.7-1
		c-8.1,4.2-16.2,4-24.3-0.1c-1.8-0.9-3.2-0.5-4.3,0.9c-2.7,3.7-5.4,7.5-8,11.2c-1.2,1.7-0.3,2.9,1.4,3.9
		C270.1,368.5,277.9,370.3,284.1,370.4z"/>
	<path class="st0" d="M297.7,188c-0.1,6.3-5.4,10.8-12.7,10.7c-6.6-0.1-12-5.3-11.8-11.4c0.2-5.8,6.1-10.8,12.5-10.6
		C292.6,177,297.9,181.9,297.7,188z"/>
	<path class="st0" d="M297.7,328.5c-0.1,6.3-5.4,10.8-12.7,10.7c-6.6-0.1-12-5.3-11.8-11.4c0.2-5.8,6.1-10.8,12.5-10.5
		C292.6,317.5,297.9,322.4,297.7,328.5z"/>
	<path class="st0" d="M343.8,188c-0.1,6.3-5.4,10.8-12.7,10.7c-6.6-0.1-12-5.3-11.8-11.4c0.2-5.8,6.1-10.8,12.5-10.6
		C338.7,177,343.9,181.9,343.8,188z"/>
</g>
</svg>
