<svg id="Layer_1" data-name="Layer 1" xmlns="http://www.w3.org/2000/svg" viewBox="0 0 1080 164.16"><defs><style>.cls-1{fill:#5aba50;}.cls-2{fill:#a1cd54;}.cls-3{fill:#fff;}</style></defs><rect class="cls-1" y="141.12" width="1080" height="23.04"/><rect class="cls-2" width="1080" height="141.12"/><path class="cls-3" d="M197.13,61.55c2-16.76,27.3-19.79,39.22-10.63,5.87,4.75-.35,12.27-5.53,8.47-6.39-4.06-20.91-6-22.72,3-2.34,14.17,35.25,6,34.64,29-.6,22-32.4,22.46-44.32,12.61a6.39,6.39,0,0,1-1.21-8.46c2.25-2.25,4.75-3,7.69-.61,7.09,4.84,25.32,8.47,26.61-3.8C230.39,78.39,194.45,86.08,197.13,61.55Z"/><path class="cls-3" d="M258,108.37a5.28,5.28,0,0,1-5.36-5.35V54A5.23,5.23,0,0,1,258,48.59h31c7.94,0,7.77,11.23,0,11.23H264.08v13h21.78c7.69,0,7.69,11.32,0,11.32H264.08v13h26.36c7.86,0,8.46,11.31,0,11.31Z"/><path class="cls-3" d="M305.82,53.77a5.38,5.38,0,0,1,5.44-5.27,5.26,5.26,0,0,1,5.1,5.27V97.06h23.5c8.46,0,8.63,11.31,0,11.31h-28.6a5.22,5.22,0,0,1-5.44-5.27Z"/><path class="cls-3" d="M360.42,108.37a5.28,5.28,0,0,1-5.36-5.35V54a5.23,5.23,0,0,1,5.36-5.36h31c7.94,0,7.77,11.23,0,11.23H366.55v13h21.78c7.68,0,7.68,11.32,0,11.32H366.55v13H392.9c7.87,0,8.47,11.31,0,11.31Z"/><path class="cls-3" d="M406.12,78.05c0-16.67,10.46-31,30.33-31,7.52,0,13.48,2.25,19.78,7.69a5.6,5.6,0,1,1-7.68,8.12c-3.55-3.71-7.18-4.75-12.1-4.75-13.31,0-19.7,9.42-19.7,20,0,10.71,6.31,20.56,19.7,20.56a20.15,20.15,0,0,0,13.48-5.53,5.83,5.83,0,0,1,7.95,1c1.38,1.9,2.07,5.1-.95,8.12-6.05,5.62-13.31,6.74-20.48,6.74C415.54,109,406.12,94.72,406.12,78.05Z"/><path class="cls-3" d="M485.35,59.39H470.23c-7.51,0-7.51-11.06,0-11.06H511.1a5.53,5.53,0,1,1,0,11.06H496.76V103c0,7.51-11.41,7.69-11.41,0Z"/><path class="cls-3" d="M549.29,61.55c2-16.76,27.3-19.79,39.22-10.63,5.88,4.75-.34,12.27-5.53,8.47-6.39-4.06-20.91-6-22.72,3-2.33,14.17,35.25,6,34.65,29-.61,22-32.4,22.46-44.33,12.61a6.39,6.39,0,0,1-1.21-8.46c2.25-2.25,4.76-3,7.69-.61,7.09,4.84,25.32,8.47,26.61-3.8C582.55,78.39,546.61,86.08,549.29,61.55Z"/><path class="cls-3" d="M602.68,78.05c0-16.67,10.46-31,30.33-31,7.52,0,13.48,2.25,19.78,7.69a5.6,5.6,0,1,1-7.69,8.12c-3.54-3.71-7.17-4.75-12.09-4.75-13.31,0-19.7,9.42-19.7,20,0,10.71,6.31,20.56,19.7,20.56a20.15,20.15,0,0,0,13.48-5.53,5.82,5.82,0,0,1,7.94,1c1.39,1.9,2.08,5.1-.95,8.12-6,5.62-13.3,6.74-20.47,6.74C612.1,109,602.68,94.72,602.68,78.05Z"/><path class="cls-3" d="M677.16,102.76c0,7.52-11.49,7.77-11.49.17V53.86a5.16,5.16,0,0,1,5.18-5.27h23c21.95,0,26.44,29.37,8.12,36.72l11.5,14c4.49,6.66-4.5,13-9.68,6.48l-13-18.66H677.16Zm0-25.57h16.67c11.23,0,11.93-18.15,0-18.15H677.16Z"/><path class="cls-3" d="M729.34,108.37A5.27,5.27,0,0,1,724,103V54a5.22,5.22,0,0,1,5.35-5.36h31c7.95,0,7.78,11.23,0,11.23H735.48v13h21.77c7.69,0,7.69,11.32,0,11.32H735.48v13h26.35c7.86,0,8.47,11.31,0,11.31Z"/><path class="cls-3" d="M782.48,108.37a5.28,5.28,0,0,1-5.36-5.35V54a5.23,5.23,0,0,1,5.36-5.36h31c7.94,0,7.77,11.23,0,11.23H788.61v13h21.78c7.68,0,7.68,11.32,0,11.32H788.61v13H815c7.87,0,8.47,11.31,0,11.31Z"/><path class="cls-3" d="M830.43,54.64c0-3.11.69-6.14,5.18-6.14,3.11,0,3.81.78,6.14,3l28.6,35.76V53.77c0-2.85,2.5-6,5.44-6,3.11,0,6.13,3.11,6.13,6v48.64c0,3.8-2.33,5.27-4.58,6-3,0-4.49-.69-7-3l-28.6-36.29v33.35c0,3.8-2.33,6-5.44,6a5.69,5.69,0,0,1-5.88-6Z"/></svg>