<svg id="Layer_19" data-name="Layer 19" xmlns="http://www.w3.org/2000/svg" viewBox="0 0 1080 215.83"><defs><style>.cls-1{fill:#fff;}.cls-2{fill:#c6c6c6;}.cls-3{fill:#fbfbfb;}.cls-4{fill:#515151;}.cls-5{fill:#262626;}.cls-6{fill:#7e7e7e;}.cls-7{fill:#313131;}.cls-8{fill:#4e4e4e;}.cls-9{fill:#333;}.cls-10{fill:#2d2d2d;}.cls-11{fill:#454545;}.cls-12{fill:#999;}.cls-13{fill:#929292;}.cls-14{fill:#bbb;}.cls-15{fill:#ababab;}.cls-16{fill:#d1d1d1;}.cls-17{fill:#606060;}.cls-18{fill:#919191;}.cls-19{fill:#d7d7d7;}.cls-20{fill:#383838;}.cls-21{fill:#c8c8c8;}.cls-22{fill:#f9f9f9;}.cls-23{fill:#eee;}.cls-24{fill:#b3b3b3;}.cls-25{fill:#f2f2f2;}.cls-26{fill:#3a3a3a;}.cls-27{fill:#616161;}.cls-28{fill:#e3e3e3;}.cls-29{fill:#787878;}.cls-30{fill:#e1e1e1;}.cls-31{fill:#949494;}.cls-32{fill:#b6b6b6;}.cls-33{fill:#bababa;}.cls-34{fill:#b7b7b7;}.cls-35{fill:#e9e9e9;}.cls-36{fill:#fefefe;}.cls-37{fill:#777;}.cls-38{fill:#a3a3a3;}.cls-39{fill:#ebebeb;}.cls-40{fill:#5bb951;}</style></defs><rect class="cls-1" y="141.57" width="1080" height="23.04"/><rect class="cls-2" width="1080" height="141.12"/><circle class="cls-1" cx="952.93" cy="117.12" r="98.7"/><path class="cls-1" d="M951.86,93a23.38,23.38,0,1,0,23.38,23.38A23.37,23.37,0,0,0,951.86,93Zm.17,45.89a22.69,22.69,0,1,1,22.69-22.68A22.67,22.67,0,0,1,952,138.87Z" transform="translate(-0.28 -0.23)"/><path class="cls-1" d="M54.93,53.53C56.77,38,80.21,35.21,91.25,43.69c5.44,4.4-.32,11.36-5.12,7.84-5.92-3.76-19.36-5.52-21,2.8-2.16,13.12,32.64,5.6,32.08,26.88-.56,20.32-30,20.8-41,11.68A5.92,5.92,0,0,1,55,85.05c2.08-2.08,4.4-2.8,7.12-.56C68.69,89,85.57,92.33,86.77,81,85.73,69.13,52.45,76.25,54.93,53.53Z" transform="translate(-0.28 -0.23)"/><path class="cls-1" d="M106.37,46.33a5,5,0,0,1,5-4.88,4.87,4.87,0,0,1,4.72,4.88V86.41h21.76c7.84,0,8,10.48,0,10.48H111.41a4.84,4.84,0,0,1-5-4.88Z" transform="translate(-0.28 -0.23)"/><path class="cls-1" d="M178.29,97.69c-14.8.64-30.16-9.2-30.16-28.8s15.36-29.36,30.16-29.36c14,.72,28.65,10.4,28.65,29.36S192.3,97.69,178.29,97.69Zm-.87-47.76c-9,0-18.73,6.32-18.73,19s9.76,19,18.73,19c9.2,0,19-6.4,19-19S186.62,49.93,177.42,49.93Z" transform="translate(-0.28 -0.23)"/><path class="cls-1" d="M272.61,77.77l11.93-33c2.4-6.48,12.08-3.44,9.68,3.52l-15.84,43c-1.45,4.56-2.81,5.92-5.53,5.92-2.88,0-3.76-1.76-5.36-4.64L253.57,61,240.29,92.09c-1.44,3.36-2.8,5.28-5.68,5.28s-4.24-1.92-5.52-5.44l-15.52-43.6c-2.4-7.2,7.76-9.84,9.84-3.52l11.84,33,14.16-33c1.92-4.88,7-5.12,9-.24Z" transform="translate(-0.28 -0.23)"/><path class="cls-1" d="M340.21,51.53h-14c-7,0-7-10.24,0-10.24h37.84a5.12,5.12,0,1,1,0,10.24H350.77v40.4c0,7-10.56,7.12-10.56,0Z" transform="translate(-0.28 -0.23)"/><path class="cls-1" d="M387.65,91.69c0,7-10.64,7.2-10.64.16V46.41a4.78,4.78,0,0,1,4.8-4.88h21.28c20.32,0,24.48,27.2,7.52,34l10.64,13c4.16,6.16-4.16,12.08-9,6L400.21,77.21H387.65Zm0-23.68h15.44c10.4,0,11-16.8,0-16.8H387.65Z" transform="translate(-0.28 -0.23)"/><path class="cls-1" d="M430,96.89a5.64,5.64,0,0,1-2.56-7.68l23-44.88c2.16-4.24,7.92-4.4,9.92,0l22.56,44.88c3.28,6.24-6.4,11.2-9.28,5l-3.52-7H440.53l-3.44,7C435.81,96.89,432.85,97.45,430,96.89Zm34.4-20.32-9-19.76-9.84,19.76Z" transform="translate(-0.28 -0.23)"/><path class="cls-1" d="M490.69,46.33c0-6.56,10.56-6.8,10.56,0V92c0,6.64-10.56,6.8-10.56,0Z" transform="translate(-0.28 -0.23)"/><path class="cls-1" d="M513.17,47.13c0-2.88.64-5.68,4.8-5.68,2.88,0,3.52.72,5.68,2.8l26.48,33.12v-31c0-2.64,2.32-5.52,5-5.52a6.09,6.09,0,0,1,5.68,5.52v45c0,3.52-2.16,4.88-4.24,5.52-2.8,0-4.16-.64-6.48-2.8l-26.48-33.6V91.37c0,3.52-2.16,5.52-5,5.52a5.27,5.27,0,0,1-5.44-5.52Z" transform="translate(-0.28 -0.23)"/><path class="cls-3" d="M988.74,132.48a16.84,16.84,0,0,0-6.13-.07,7.05,7.05,0,0,1,3-.64A7.21,7.21,0,0,1,988.74,132.48Z" transform="translate(-0.28 -0.23)"/><ellipse class="cls-4" cx="965.95" cy="79.72" rx="5.3" ry="6.51"/><path class="cls-5" d="M1004.93,159.24c-2.45-1.21-5-4.83-4.29-6.19,4.28-8.46-5.14-11.51-6.22-17.58-.51-2.87-2.65-1.56-3.89-2.32-.22-2.59,0-5.26-1.45-7.62a1.64,1.64,0,0,0-1.92-.44l-.29.15.25.26a4.91,4.91,0,0,1-.53,1.16,7.27,7.27,0,0,0-.38-1.11c-1.44.65-3.06,1.17-3.66,2.38-3.78,7.76-8.82,6.33-14.24,3.08l-.11-.06,0,.15a9.43,9.43,0,0,0,.92,2.49,3.92,3.92,0,0,1-2.38-1.71l.54-1.48c-1.56-.54-2.78-2.35-4.54-2l-.35.08a3.86,3.86,0,0,0-1,.5c-3.32,3.37,2,9.07-3.19,12a6.79,6.79,0,0,1-2.11,0,3.94,3.94,0,0,1-1.49-.54,8,8,0,0,1-.79-.85s0,0,0,0-.25-.31-.37-.47a14.22,14.22,0,0,1-1-3.65,1.8,1.8,0,0,1-.06-.22,12,12,0,0,1,.23-6.6c0-.05,0-.12.06-.18.32-1.11.74-2.21,1.17-3.31,0,0,0-.07,0-.11a7.08,7.08,0,0,0,.53-3.82,3.63,3.63,0,0,1,.7-.32s.62.36.65.36a5.38,5.38,0,0,0,1.37.57h0a6.69,6.69,0,0,0,1.27.16,4.63,4.63,0,0,0,.74,0c2-.51,4.08.07,6-.48l.15,0a2.09,2.09,0,0,0,.35-.13,2.65,2.65,0,0,0,.42-.18,9.2,9.2,0,0,0,2.84-2.78,2.7,2.7,0,0,0,.2-.31,5.12,5.12,0,0,0,.3-.57,6.65,6.65,0,0,0,.27-.61,13.28,13.28,0,0,0,.35-1.38,13.9,13.9,0,0,0,.22-1.44v0c.34-2.87.06-5.83.83-8.67a6,6,0,0,0-.36-3.3c-.23-.18-.48-.34-.72-.5l-.49-.33c-2-1.34-3.93-2.67-3.75-5.55h0a1.51,1.51,0,0,1,0-.3,2.36,2.36,0,0,0-.22-.38,2.67,2.67,0,0,0-3.27-1.39c-.14,2.11-.28,4.21-.42,6.33a1.73,1.73,0,0,0-.17.21c-.33.6-.15,1.62-1.29,1.53-3.78-1.29-2.79-4.63-3.1-7.37-.12-1.1-.13-2.11-1.55-2.13S954,93,954,94.15c-.07,3.33,0,6.67,0,10.4-2.46-1.37-4.47-1.61-6.21-1.1h0c-2.76.8-4.81,3.49-6.79,6.63-1.11,1.75-1.16,4.93-4.5,4.71-9.58-.63-9.77,5.3-9.12,12.44,0,.62.1,1.25.13,1.87.1,2.38,0,4.78-.09,7.18,0,1.1-.1,2.2-.13,3.31,0,.93-.06,1.85-.07,2.77,0,2.28-.59,4.62,2.64,5.83a59.94,59.94,0,0,1,12.89,6.89c5.37,3.65,10.38,7.88,15.56,11.83,1.29,1,2.41,2,4.13,2.08a242.79,242.79,0,0,0,40.52-1.91c1.8-.24,3.93-.31,4.41-2.64S1007.4,160.45,1004.93,159.24Zm-14.63-25.7c0,.1,0,.21,0,.31C990.12,133.3,990.2,133.45,990.3,133.54Z" transform="translate(-0.28 -0.23)"/><path class="cls-5" d="M964.89,95.06l-2.51-1.56c-2.72-2.64,1.64-6.84-2-9.27-.83-1.86.17-2.12,1.69-1.91,2.68,2.51,5.77,3.64,9.44,2.76,1.87-.53,2.52.89,3.33,2.07,2.55,2.53.78,5.22.29,7.87a1.43,1.43,0,0,1-.7,1.17s.32.73.32.73.77,0,.81,0c.79.58,1.71.85,2.5,1.36,8.5,3.87,3.29,11.5,4.71,17.31-3.43,3.19-7.32,2.66-11.31,1.45-3.71-3.8-2.15-8.15-1.31-12.43v-3.13C967.65,100,967.91,96.18,964.89,95.06Z" transform="translate(-0.28 -0.23)"/><path class="cls-6" d="M907.46,91.56c-4.05,1-7.45,6-12.31,2-3.07-1.89-6.7-.87-9.95-1.9-.62-1-.67-2,.53-2.67l26.9-3.49c.87,3.08-1.55,3.93-3.46,5.12A10.15,10.15,0,0,1,907.46,91.56Z" transform="translate(-0.28 -0.23)"/><path class="cls-7" d="M923.61,80.61q11.17-6.52,22.36-13c4.08,1,1.59,2.27.18,3.52l-1.54,1.63c-.91.82-.38,2.48-1.76,3L934,79.27C930.82,82.11,927.52,83.74,923.61,80.61Z" transform="translate(-0.28 -0.23)"/><path class="cls-8" d="M984.48,119l-1.6-1.59a6.48,6.48,0,0,0-1.7-.63h0c-2.42-.54-4.93.18-7.37-.12a8,8,0,0,0-2.12.25l-.14,0-.16.05h0a7.36,7.36,0,0,0-1,.42,6.25,6.25,0,0,0-1,.59,2.92,2.92,0,0,0-.37.24c-1.16.82-2.17,1.86-3.26,2.79l-.35.3-.14.11c-.28.24-.57.45-.87.66-1.54,1.87-3.88,3.53-2,6.33a1.68,1.68,0,0,0,.2.29c1,1.59,1.7,3.52,4.15,3.14l.54-1.48.66-1.82c0-.49,0-1,0-1.47.62-3.76,2.29-5.88,5.6-6.6a9.08,9.08,0,0,1,3.86-.84,9.57,9.57,0,0,1,4.08.92,21.8,21.8,0,0,0-7.94-.08,9.41,9.41,0,0,0-5.59,8.61,8.54,8.54,0,0,0,.18,1.83l0,.15s.08,0,.08-.09a3,3,0,0,0,.7-2c-1.08-1.11-.58-1.88.53-2.52,3.08-5.32,8.5-4,13.19-4.72a3,3,0,0,0,.52-.08l-.58-.43a6.7,6.7,0,0,0-1.11-.62c.35,0,.71.1,1.08.16l.75.8C984.34,121,985.07,120.32,984.48,119Z" transform="translate(-0.28 -0.23)"/><path class="cls-9" d="M962,82.32l-1.69,1.91c-1.3-4.79,2.22-10.1-1.57-14.62a7.69,7.69,0,0,0-1.41-1.75h0c-.57-.35-.75-.67-.55-1s.4-.47.6-.47l7.66.17c1.3.84,1,2,.58,3.13C968.07,75,961.9,77.73,962,82.32Z" transform="translate(-0.28 -0.23)"/><path class="cls-10" d="M923.61,80.61,934,79.27c1,6.84-1.6,9-11.72,9.64a2.1,2.1,0,0,1-.4-1.88c1.35-1.36,3.73-2.64.29-4.34a1.23,1.23,0,0,1,.11-1.72A1.37,1.37,0,0,1,923.61,80.61Z" transform="translate(-0.28 -0.23)"/><path class="cls-11" d="M922.25,81c0,.54,0,1.09,0,1.63.92,1.65-4.28,3.34,0,5a3.18,3.18,0,0,1,0,1.34c-1.22,1.68-3.2.89-4.76,1.46A6.92,6.92,0,0,1,914,91.92a19.59,19.59,0,0,1-6.16-1.55c.89-2.32,4.36-2.09,4.79-4.87Z" transform="translate(-0.28 -0.23)"/><path class="cls-12" d="M957.41,66.4a7.93,7.93,0,0,0,0,1.46c-3.72,1.15-6.43,5.77-11.21,3.23-.47-1.16,3.31-2.53-.18-3.52C949.58,65.22,953.3,63.85,957.41,66.4Z" transform="translate(-0.28 -0.23)"/><path class="cls-13" d="M942.85,75.73c.06-1.31.24-2.55,1.76-3,4,3.43,8.09,1.1,12.3.66C952.78,76.78,948.22,78.09,942.85,75.73Z" transform="translate(-0.28 -0.23)"/><path class="cls-14" d="M880.59,95.08c-1.37-.27-3.24.14-3-2.26,1.92-3,5.23-3,8.17-3.83l-.45,2.56c-.07.35-.14.69-.2,1C884.11,94.37,881.89,93.89,880.59,95.08Z" transform="translate(-0.28 -0.23)"/><path class="cls-15" d="M914.1,90.59l3.39-.22c-.42,4.73-3.2,5.39-7.08,4.1-.12,0-.2-.45-.15-.65a2.62,2.62,0,0,1,.44-.64C911.82,92.3,913,91.55,914.1,90.59Z" transform="translate(-0.28 -0.23)"/><path class="cls-9" d="M885.28,91.55c3.62-1,7.07-1,9.87,2l-9.61.13c-.5-.39-.67-.78-.52-1.19s.3-.62.46-.62Z" transform="translate(-0.28 -0.23)"/><path class="cls-16" d="M982.88,117.43l-11.16.2a1,1,0,0,1-.31-1.06c.13-.33.26-.5.38-.5l10.94-.45Z" transform="translate(-0.28 -0.23)"/><path class="cls-17" d="M986.1,125.29a4.28,4.28,0,0,1-3.37-3.55c0-.17-.05-.33-.06-.51l.58.43h0A9.47,9.47,0,0,1,986.1,125.29Z" transform="translate(-0.28 -0.23)"/><path class="cls-17" d="M989.08,125.53l-2,0-.25-.26-3.48-3.67-.75-.8,1.84-1.75A8.25,8.25,0,0,1,989.08,125.53Z" transform="translate(-0.28 -0.23)"/><path class="cls-4" d="M978,98.31c-2.39,1.84-3.27-.71-4.72-1.63l0,0L975.09,95C977.19,95.11,977.78,96.55,978,98.31Z" transform="translate(-0.28 -0.23)"/><path class="cls-18" d="M971.27,87.15l-3.33-2.07c1-1.68,1.94-3.36,3.33-5.75Z" transform="translate(-0.28 -0.23)"/><path class="cls-19" d="M914.1,90.59c.08,2.45-1.34,2.94-3.4,2.59l-3.24-1.62c.13-.4.26-.79.38-1.19Z" transform="translate(-0.28 -0.23)"/><path class="cls-20" d="M885.48,91.88l.06,1.81L882.22,95l-1.63,0C881.68,93.18,883.58,92.52,885.48,91.88Z" transform="translate(-0.28 -0.23)"/><path class="cls-21" d="M962,99.83c-.13,1.42-.26,2.84-.4,4.27-1.41-.4-.68-1.7-1.06-2.53Z" transform="translate(-0.28 -0.23)"/><path class="cls-12" d="M965.65,69.7c-.19-1-.38-2.08-.58-3.13.62.27,1.56.38,1.78.84C967.35,68.48,966.71,69.28,965.65,69.7Z" transform="translate(-0.28 -0.23)"/><path class="cls-12" d="M957.36,67.86c1.09.08,1.49.73,1.41,1.75Z" transform="translate(-0.28 -0.23)"/><path class="cls-8" d="M969.15,133.59a3.92,3.92,0,0,1-2.38-1.71,2.7,2.7,0,0,0,1.46-.78A9.43,9.43,0,0,0,969.15,133.59Z" transform="translate(-0.28 -0.23)"/><path class="cls-8" d="M968.23,131.1a2.7,2.7,0,0,1-1.46.78l.54-1.48.05,0,.84.53Z" transform="translate(-0.28 -0.23)"/><path class="cls-8" d="M968,129.12a8.54,8.54,0,0,0,.18,1.83l-.84-.53-.05,0,.66-1.82c0-.49,0-1,0-1.47.62-3.76,2.29-5.88,5.6-6.6A9.41,9.41,0,0,0,968,129.12Z" transform="translate(-0.28 -0.23)"/><path class="cls-3" d="M968,127.11c0,.49,0,1,0,1.47A3.32,3.32,0,0,1,968,127.11Z" transform="translate(-0.28 -0.23)"/><path class="cls-8" d="M982.67,121.23a6.7,6.7,0,0,0-1.11-.62c.35,0,.71.1,1.08.16A3.44,3.44,0,0,0,982.67,121.23Z" transform="translate(-0.28 -0.23)"/><path class="cls-8" d="M983.39,121.57l-.13.09h0l-.58-.43a3.44,3.44,0,0,1,0-.46Z" transform="translate(-0.28 -0.23)"/><path class="cls-8" d="M986.87,125.24l-.31.16-.46-.11a9.47,9.47,0,0,0-2.84-3.63l.13-.09Z" transform="translate(-0.28 -0.23)"/><path class="cls-8" d="M987.12,125.5a4.91,4.91,0,0,1-.53,1.16,7.27,7.27,0,0,0-.38-1.11c.12,0,.23-.1.35-.15Z" transform="translate(-0.28 -0.23)"/><path class="cls-8" d="M986.56,125.4c-.12,0-.23.11-.35.15a.89.89,0,0,0-.11-.26Z" transform="translate(-0.28 -0.23)"/><path class="cls-3" d="M986.59,126.66c-1.74,3-5.79,4.26-6.24,8.78-.26,2.5-5.59,2.86-7.32.4-1-1.48-2.53-1.78-3.88-2.25a9.43,9.43,0,0,1-.92-2.49l0-.15a8.54,8.54,0,0,1-.18-1.83,9.41,9.41,0,0,1,5.59-8.61,21.8,21.8,0,0,1,7.94.08s0,0,0,0a6.7,6.7,0,0,1,1.11.62l.58.43h0a9.47,9.47,0,0,1,2.84,3.63.89.89,0,0,1,.11.26A7.27,7.27,0,0,1,986.59,126.66Z" transform="translate(-0.28 -0.23)"/><path class="cls-8" d="M987.12,125.5l-.56-.1.31-.16Z" transform="translate(-0.28 -0.23)"/><path class="cls-22" d="M942.72,144.46c-7.13-.66-11.47-2.24-11.54-11.22-.07-7.48,4.19-8.57,8.7-10.31,2.37-.92,2.74,1.88,2.78,3.57C942.81,132.29,942.72,138.09,942.72,144.46Z" transform="translate(-0.28 -0.23)"/><path class="cls-23" d="M965.31,122.26l-2.69,6.48c-.11,2.64-1.14,5.72-.13,7.82,2.73,5.73-.22,6.3-4.62,6.21-3.45-.86-5.38-4.68-4-6.32,3-3.44-1.35-5-.77-7.45.63-3.73,2.13-6.84,6-8.2l6-1A1.67,1.67,0,0,1,965.31,122.26Z" transform="translate(-0.28 -0.23)"/><path class="cls-24" d="M964.89,95.06c4.09-1,4.45-.54,5.22,6.45C963.44,103.36,962.62,100.47,964.89,95.06Z" transform="translate(-0.28 -0.23)"/><path class="cls-25" d="M947.09,114.9c3.46,2.19,5.17,4.67,2.47,7.94-.39.48-1.7.92-1.93.7C944.9,120.86,947,117.84,947.09,114.9Z" transform="translate(-0.28 -0.23)"/><path class="cls-26" d="M954.38,128.67c2.78,4.3-1.56,10.37,3.49,14.1-1.93.2-4,.91-5.37-1.24a1.85,1.85,0,0,0,.22-2.56,5.7,5.7,0,0,1-1-3.89c-.44-2.23-.77-4.44.49-6.53A2.06,2.06,0,0,1,954.38,128.67Z" transform="translate(-0.28 -0.23)"/><path class="cls-27" d="M954.38,128.67l-.7.14-.72-.06c-2.53-1.42,1.46-3.38-.4-4.86,2.4-1.65-1.91-5,1.64-6.39a16.2,16.2,0,0,0,1.44,1.43c.62,1.63,2,1.92,3.48,1.87Z" transform="translate(-0.28 -0.23)"/><path class="cls-28" d="M952.56,123.89c3.21,1.37-.27,3.29.4,4.86l-.64,7.9c-.48.76-1,.75-1.42,0C948.83,132.05,950.27,127.91,952.56,123.89Z" transform="translate(-0.28 -0.23)"/><path class="cls-29" d="M952.83,152.45l2.34-3.94c2.64,4.18-.72,6.63-2.19,9.53l-2.11-2.11C951.92,155,951.13,153,952.83,152.45Z" transform="translate(-0.28 -0.23)"/><path class="cls-30" d="M952.83,152.45c-.34,1.33.33,3.24-2,3.48-2.33-3.18.29-7.55-4.56-11.24C952.24,146.18,952.27,149.48,952.83,152.45Z" transform="translate(-0.28 -0.23)"/><path class="cls-31" d="M971.79,116.07a4.31,4.31,0,0,0-.07,1.56l.07-.13a2.42,2.42,0,0,1-3.45-.18c1.42-4.11-2.12-8.92,1.77-12.68C970.81,108.43,968.33,112.69,971.79,116.07Z" transform="translate(-0.28 -0.23)"/><path class="cls-16" d="M968.34,117.32l3.45.18-6.48,4.76c0-.81-.11-1.63-.17-2.45Z" transform="translate(-0.28 -0.23)"/><path class="cls-32" d="M982.14,166.44c-1.37-2-1.48-3.89-.24-6.46C983,162.39,983.81,164.27,982.14,166.44Z" transform="translate(-0.28 -0.23)"/><path class="cls-33" d="M988.8,165c-2-1-1.57-2.87-2-4.44C989.14,161.27,989.55,162.76,988.8,165Z" transform="translate(-0.28 -0.23)"/><path class="cls-34" d="M994.08,160.58a2.61,2.61,0,0,1,2.33,3,1.75,1.75,0,0,1-1.28.22c-1.43-.61-1.23-1.9-1.13-3.12Z" transform="translate(-0.28 -0.23)"/><path class="cls-35" d="M950.9,136.64h1.42l1.43,3.23a.83.83,0,0,1-1.44,0C950.61,139.35,950.81,138,950.9,136.64Z" transform="translate(-0.28 -0.23)"/><path class="cls-36" d="M990.38,133.05l.88,2.73-1.23.29c.18-1,.36-1.92.52-2.89Z" transform="translate(-0.28 -0.23)"/><path class="cls-37" d="M974.23,162.87a6.82,6.82,0,0,1,.45,1.34c0,.13-.35.33-.54.5a8.79,8.79,0,0,1-.45-1.34C973.67,163.24,974,163,974.23,162.87Z" transform="translate(-0.28 -0.23)"/><path class="cls-38" d="M994,160.64c-1.86-.37-1.64-1.83-1.63-3.17l.12-.13c1.83.44,1.71,1.84,1.59,3.24Z" transform="translate(-0.28 -0.23)"/><path class="cls-3" d="M952.31,139.9a8.66,8.66,0,0,0,1.44,0c.67,1.37-.13,1.63-1.25,1.65C952.44,141,952.38,140.44,952.31,139.9Z" transform="translate(-0.28 -0.23)"/><path class="cls-31" d="M992.37,157.47l-1.12-.83c1.17-1.11,1.09,0,1.24.7Z" transform="translate(-0.28 -0.23)"/><path class="cls-19" d="M955.64,118.93c-1,.08-1.53-.38-1.44-1.43C955.17,117.49,955.68,117.93,955.64,118.93Z" transform="translate(-0.28 -0.23)"/><path class="cls-39" d="M980.06,108.22c-.13,2.62-1.87,3.73-4.1,3.69a3.41,3.41,0,0,1-3.59-4.08c.25-2.29,1.62-3.84,4.09-3.79C979.09,104.1,979.85,106,980.06,108.22Z" transform="translate(-0.28 -0.23)"/><path class="cls-4" d="M973.3,96.68l-.6,2.07c-.2-.14-.57-.39-.57-.4.37-.58.76-1.13,1.15-1.69Z" transform="translate(-0.28 -0.23)"/><path class="cls-8" d="M968,127.11c0,.49,0,1,0,1.47a5.22,5.22,0,0,1-.38-1C967.56,127.43,967.86,127.25,968,127.11Z" transform="translate(-0.28 -0.23)"/><path class="cls-2" d="M922.27,87.57l-7.16,1.1c1-4.16,5-4,7.13-6.07,2,.16,4.1-.33,6.13,1.18C927.29,86.83,924.62,87,922.27,87.57Z" transform="translate(-0.28 -0.23)"/><path class="cls-3" d="M986.92,129.12a9.45,9.45,0,0,1-18.69,2l0-.15a8.54,8.54,0,0,1-.18-1.83,9.41,9.41,0,0,1,5.59-8.61,21.8,21.8,0,0,1,7.94.08s0,0,0,0a6.7,6.7,0,0,1,1.11.62l.58.43h0a9.47,9.47,0,0,1,2.84,3.63.89.89,0,0,1,.11.26,7.27,7.27,0,0,1,.38,1.11A9.13,9.13,0,0,1,986.92,129.12Z" transform="translate(-0.28 -0.23)"/><path class="cls-40" d="M952.84,31.55a85.94,85.94,0,1,0,85.93,85.93A85.94,85.94,0,0,0,952.84,31.55ZM872,117.48a80.83,80.83,0,1,1,80.84,80.83A80.83,80.83,0,0,1,872,117.48Z" transform="translate(-0.28 -0.23)"/></svg>