<svg id="Layer_19" data-name="Layer 19" xmlns="http://www.w3.org/2000/svg" viewBox="0 0 1080 215.82"><defs><style>.cls-1{fill:#fff;}.cls-2{fill:#7e7e7e;}.cls-3{fill:#fbfbfb;}.cls-4{fill:#515151;}.cls-5{fill:#262626;}.cls-6{fill:#313131;}.cls-7{fill:#4e4e4e;}.cls-8{fill:#333;}.cls-9{fill:#2d2d2d;}.cls-10{fill:#454545;}.cls-11{fill:#999;}.cls-12{fill:#929292;}.cls-13{fill:#bbb;}.cls-14{fill:#ababab;}.cls-15{fill:#d1d1d1;}.cls-16{fill:#606060;}.cls-17{fill:#919191;}.cls-18{fill:#d7d7d7;}.cls-19{fill:#383838;}.cls-20{fill:#c8c8c8;}.cls-21{fill:#f9f9f9;}.cls-22{fill:#eee;}.cls-23{fill:#b3b3b3;}.cls-24{fill:#f2f2f2;}.cls-25{fill:#3a3a3a;}.cls-26{fill:#616161;}.cls-27{fill:#e3e3e3;}.cls-28{fill:#787878;}.cls-29{fill:#e1e1e1;}.cls-30{fill:#949494;}.cls-31{fill:#b6b6b6;}.cls-32{fill:#bababa;}.cls-33{fill:#b7b7b7;}.cls-34{fill:#e9e9e9;}.cls-35{fill:#fefefe;}.cls-36{fill:#777;}.cls-37{fill:#a3a3a3;}.cls-38{fill:#ebebeb;}.cls-39{fill:#c6c6c6;}.cls-40{fill:#5bb951;}</style></defs><rect class="cls-1" y="141.57" width="1080" height="23.04"/><rect class="cls-2" width="1080" height="141.12"/><circle class="cls-1" cx="952.93" cy="117.12" r="98.7"/><path class="cls-1" d="M951.58,92.77A23.38,23.38,0,1,0,975,116.15a23.38,23.38,0,0,0-23.38-23.38Zm.17,45.89A22.69,22.69,0,1,1,974.44,116h0a22.67,22.67,0,0,1-22.68,22.66h0Z"/><path class="cls-1" d="M54.65,53.3C56.49,37.77,79.93,35,91,43.46c5.44,4.4-.32,11.36-5.12,7.84-5.92-3.76-19.36-5.52-21,2.8C62.69,67.22,97.49,59.7,96.93,81c-.56,20.32-30,20.8-41,11.68a5.92,5.92,0,0,1-1.21-7.84c2.08-2.08,4.4-2.8,7.12-.56,6.57,4.51,23.45,7.84,24.65-3.49C85.45,68.9,52.17,76,54.65,53.3Z"/><path class="cls-1" d="M106.09,46.1a5,5,0,0,1,5-4.88,4.87,4.87,0,0,1,4.72,4.88V86.18h21.76c7.84,0,8,10.48,0,10.48H111.13a4.85,4.85,0,0,1-5-4.68v-.2Z"/><path class="cls-1" d="M178,97.46c-14.8.64-30.16-9.2-30.16-28.8S163.21,39.3,178,39.3c14,.72,28.65,10.4,28.65,29.36S192,97.46,178,97.46Zm-.87-47.76c-9,0-18.73,6.32-18.73,19s9.76,19,18.73,19c9.2,0,19-6.4,19-19S186.34,49.7,177.14,49.7Z"/><path class="cls-1" d="M272.33,77.54l11.93-33c2.4-6.48,12.08-3.44,9.68,3.52l-15.84,43c-1.45,4.56-2.81,5.92-5.53,5.92-2.88,0-3.76-1.76-5.36-4.64L253.29,60.77,240,91.86c-1.44,3.36-2.8,5.28-5.68,5.28s-4.24-1.92-5.52-5.44L213.29,48.1c-2.4-7.2,7.76-9.84,9.84-3.52l11.84,33,14.16-33c1.92-4.88,7-5.12,9-.24Z"/><path class="cls-1" d="M339.93,51.3h-14c-7,0-7-10.24,0-10.24h37.84a5.12,5.12,0,0,1,0,10.24H350.49V91.7c0,7-10.56,7.12-10.56,0Z"/><path class="cls-1" d="M387.37,91.46c0,7-10.64,7.2-10.64.16V46.18a4.78,4.78,0,0,1,4.68-4.88h21.4c20.32,0,24.48,27.2,7.52,34L421,88.3c4.16,6.16-4.16,12.08-9,6L399.93,77H387.37Zm0-23.68h15.44c10.4,0,11-16.8,0-16.8H387.37Z"/><path class="cls-1" d="M429.72,96.66a5.64,5.64,0,0,1-2.64-7.53l.08-.15,23-44.88c2.16-4.24,7.92-4.4,9.92,0L482.64,89c3.28,6.24-6.4,11.2-9.28,5l-3.52-7H440.25l-3.44,7C435.53,96.66,432.57,97.22,429.72,96.66Zm34.4-20.32-9-19.76-9.84,19.76Z"/><path class="cls-1" d="M490.41,46.1c0-6.56,10.56-6.8,10.56,0V91.77c0,6.64-10.56,6.8-10.56,0Z"/><path class="cls-1" d="M512.89,46.9c0-2.88.64-5.68,4.8-5.68,2.88,0,3.52.72,5.68,2.8l26.48,33.12v-31c0-2.64,2.32-5.52,5-5.52a6.09,6.09,0,0,1,5.68,5.52v45c0,3.52-2.16,4.88-4.24,5.52-2.8,0-4.16-.64-6.48-2.8l-26.48-33.6V91.14c0,3.52-2.16,5.52-5,5.52a5.26,5.26,0,0,1-5.44-5.09,3.09,3.09,0,0,1,0-.43Z"/><path class="cls-3" d="M988.46,132.25a16.84,16.84,0,0,0-6.13-.07,7.07,7.07,0,0,1,3-.64A7.24,7.24,0,0,1,988.46,132.25Z"/><ellipse class="cls-4" cx="965.95" cy="79.72" rx="5.3" ry="6.51"/><path class="cls-5" d="M1004.65,159c-2.45-1.21-5-4.83-4.29-6.19,4.28-8.46-5.14-11.51-6.22-17.58-.51-2.87-2.65-1.56-3.89-2.32-.22-2.59,0-5.26-1.45-7.62a1.63,1.63,0,0,0-1.92-.44l-.29.15.25.26a4.87,4.87,0,0,1-.53,1.16,7.27,7.27,0,0,0-.38-1.11c-1.44.65-3.06,1.17-3.66,2.38-3.78,7.76-8.82,6.33-14.24,3.08l-.11-.06v.15a9.56,9.56,0,0,0,.92,2.49,3.91,3.91,0,0,1-2.38-1.71l.54-1.48c-1.56-.54-2.78-2.35-4.54-2l-.35.08a4.07,4.07,0,0,0-1,.5c-3.32,3.37,2,9.07-3.19,12a6.79,6.79,0,0,1-2.11,0,4,4,0,0,1-1.49-.54,8,8,0,0,1-.79-.85h0l-.37-.47a14.42,14.42,0,0,1-1-3.65l-.06-.22a12,12,0,0,1,.23-6.6.23.23,0,0,1,.06-.18c.32-1.11.74-2.21,1.17-3.31v-.11a7,7,0,0,0,.53-3.82,3.68,3.68,0,0,1,.7-.32s.62.36.65.36a5.67,5.67,0,0,0,1.37.57h0a6.79,6.79,0,0,0,1.27.16,4.57,4.57,0,0,0,.74,0c2-.51,4.08.07,6-.48H965a2.09,2.09,0,0,0,.35-.13,2.65,2.65,0,0,0,.42-.18,9.19,9.19,0,0,0,2.84-2.78,3.28,3.28,0,0,0,.2-.31,5.12,5.12,0,0,0,.3-.57,6.65,6.65,0,0,0,.27-.61,12.67,12.67,0,0,0,.35-1.38,14.32,14.32,0,0,0,.22-1.44h0c.34-2.87.06-5.83.83-8.67a6,6,0,0,0-.36-3.3c-.23-.18-.48-.34-.72-.5l-.49-.33c-2-1.34-3.93-2.67-3.75-5.55h0a1.5,1.5,0,0,1,0-.3,2.08,2.08,0,0,0-.22-.38,2.67,2.67,0,0,0-3.27-1.39c-.14,2.11-.28,4.21-.42,6.33l-.17.21c-.33.6-.15,1.62-1.29,1.53-3.78-1.29-2.79-4.63-3.1-7.37-.12-1.1-.13-2.11-1.55-2.13s-1.69.73-1.69,1.88c-.07,3.33,0,6.67,0,10.4-2.46-1.37-4.47-1.61-6.21-1.1h0c-2.76.8-4.81,3.49-6.79,6.63-1.11,1.75-1.16,4.93-4.5,4.71-9.58-.63-9.77,5.3-9.12,12.44,0,.62.1,1.25.13,1.87.1,2.38,0,4.78-.09,7.18,0,1.1-.1,2.2-.13,3.31,0,.93-.06,1.85-.07,2.77,0,2.28-.59,4.62,2.64,5.83a60.06,60.06,0,0,1,12.89,6.89c5.37,3.65,10.38,7.88,15.56,11.83,1.29,1,2.41,2,4.13,2.08a242.84,242.84,0,0,0,40.52-1.91c1.8-.24,3.93-.31,4.41-2.64S1007.12,160.22,1004.65,159ZM990,133.31v.31c-.18-.55-.1-.4,0-.31Z"/><path class="cls-5" d="M964.61,94.83l-2.51-1.56c-2.72-2.64,1.64-6.84-2-9.27-.83-1.86.17-2.12,1.69-1.91,2.68,2.51,5.77,3.64,9.44,2.76,1.87-.53,2.52.89,3.33,2.07,2.55,2.53.78,5.22.29,7.87a1.43,1.43,0,0,1-.7,1.17l.32.73h.81c.79.58,1.71.85,2.5,1.36,8.5,3.87,3.29,11.5,4.71,17.31-3.43,3.19-7.32,2.66-11.31,1.45-3.71-3.8-2.15-8.15-1.31-12.43v-3.13C967.37,99.77,967.63,96,964.61,94.83Z"/><path class="cls-2" d="M907.18,91.33c-4,1-7.45,6-12.31,2-3.07-1.89-6.7-.87-10-1.9-.62-1-.67-2,.53-2.67l26.9-3.49c.87,3.08-1.55,3.93-3.46,5.12A10.15,10.15,0,0,1,907.18,91.33Z"/><path class="cls-6" d="M923.33,80.38q11.17-6.52,22.36-13c4.08,1,1.59,2.27.18,3.52l-1.54,1.63c-.91.82-.38,2.48-1.76,3L933.72,79C930.54,81.88,927.24,83.51,923.33,80.38Z"/><path class="cls-7" d="M984.2,118.77l-1.6-1.59a6.44,6.44,0,0,0-1.7-.63h0c-2.42-.54-4.93.18-7.37-.12a8,8,0,0,0-2.12.25h-.14l-.16,0h0a8.8,8.8,0,0,0-1,.42,6.25,6.25,0,0,0-1,.59,2.92,2.92,0,0,0-.37.24c-1.16.82-2.17,1.86-3.26,2.79l-.35.3-.14.11c-.28.24-.57.45-.87.66-1.54,1.87-3.88,3.53-2,6.33a1.87,1.87,0,0,0,.2.29c1,1.59,1.7,3.52,4.15,3.14l.54-1.48.66-1.82v-1.47c.62-3.76,2.29-5.88,5.6-6.6a9,9,0,0,1,3.86-.84,9.61,9.61,0,0,1,4.08.92,21.85,21.85,0,0,0-7.94-.08,9.42,9.42,0,0,0-5.59,8.61,8.06,8.06,0,0,0,.18,1.83v.15a.08.08,0,0,0,.08-.09,3,3,0,0,0,.7-2c-1.08-1.11-.58-1.88.53-2.52,3.08-5.32,8.5-4,13.19-4.72a3,3,0,0,0,.52-.08l-.58-.43a6.7,6.7,0,0,0-1.11-.62,7.05,7.05,0,0,1,1.08.16l.75.8C984.06,120.77,984.79,120.09,984.2,118.77Z"/><path class="cls-8" d="M961.72,82.09,960,84c-1.3-4.79,2.22-10.1-1.57-14.62a7.69,7.69,0,0,0-1.41-1.75h0c-.57-.35-.75-.67-.55-1s.4-.47.6-.47l7.66.17c1.3.84,1,2,.58,3.13C967.79,74.77,961.62,77.5,961.72,82.09Z"/><path class="cls-9" d="M923.33,80.38,933.72,79c1,6.84-1.6,9-11.72,9.64a2.1,2.1,0,0,1-.4-1.88c1.35-1.36,3.73-2.64.29-4.34a1.23,1.23,0,0,1,.11-1.72A1.37,1.37,0,0,1,923.33,80.38Z"/><path class="cls-10" d="M922,80.77V82.4c.92,1.65-4.28,3.34,0,5a3,3,0,0,1,0,1.34c-1.22,1.68-3.2.89-4.76,1.46a6.91,6.91,0,0,1-3.49,1.49,19.66,19.66,0,0,1-6.16-1.55c.89-2.32,4.36-2.09,4.79-4.87Z"/><path class="cls-11" d="M957.13,66.17a8.9,8.9,0,0,0,0,1.46c-3.72,1.15-6.43,5.77-11.21,3.23-.47-1.16,3.31-2.53-.18-3.52C949.3,65,953,63.62,957.13,66.17Z"/><path class="cls-12" d="M942.57,75.5c.06-1.31.24-2.55,1.76-3,4,3.43,8.09,1.1,12.3.66C952.5,76.55,947.94,77.86,942.57,75.5Z"/><path class="cls-13" d="M880.31,94.85c-1.37-.27-3.24.14-3-2.26,1.92-3,5.23-3,8.17-3.83L885,91.32c-.07.35-.14.69-.2,1C883.83,94.14,881.61,93.66,880.31,94.85Z"/><path class="cls-14" d="M913.82,90.36l3.39-.22c-.42,4.73-3.2,5.39-7.08,4.1-.12,0-.2-.45-.15-.65a2.52,2.52,0,0,1,.44-.64C911.54,92.07,912.72,91.32,913.82,90.36Z"/><path class="cls-8" d="M885,91.32c3.62-1,7.07-1,9.87,2l-9.61.13c-.5-.39-.67-.78-.52-1.19s.3-.62.46-.62Z"/><path class="cls-15" d="M982.6,117.2l-11.16.2a1,1,0,0,1-.31-1.06c.13-.33.26-.5.38-.5l10.94-.45Z"/><path class="cls-16" d="M985.82,125.06a4.28,4.28,0,0,1-3.37-3.55c0-.17-.05-.33-.06-.51l.58.43h0A9.55,9.55,0,0,1,985.82,125.06Z"/><path class="cls-16" d="M988.8,125.3h-2l-.25-.26-3.48-3.67-.75-.8,1.84-1.75A8.24,8.24,0,0,1,988.8,125.3Z"/><path class="cls-4" d="M977.72,98.08c-2.39,1.84-3.27-.71-4.72-1.63h0l1.81-1.68C976.91,94.88,977.5,96.32,977.72,98.08Z"/><path class="cls-17" d="M971,86.92l-3.33-2.07c1-1.68,1.94-3.36,3.33-5.75Z"/><path class="cls-18" d="M913.82,90.36c.08,2.45-1.34,2.94-3.4,2.59l-3.24-1.62c.13-.4.26-.79.38-1.19Z"/><path class="cls-19" d="M885.2,91.65l.06,1.81-3.32,1.31h-1.63C881.4,93,883.3,92.29,885.2,91.65Z"/><path class="cls-20" d="M961.72,99.6c-.13,1.42-.26,2.84-.4,4.27-1.41-.4-.68-1.7-1.06-2.53Z"/><path class="cls-11" d="M965.37,69.47c-.19-1-.38-2.08-.58-3.13.62.27,1.56.38,1.78.84C967.07,68.25,966.43,69.05,965.37,69.47Z"/><path class="cls-11" d="M957.08,67.63c1.09.08,1.49.73,1.41,1.75Z"/><path class="cls-7" d="M968.87,133.36a3.91,3.91,0,0,1-2.38-1.71,2.65,2.65,0,0,0,1.46-.78A9.56,9.56,0,0,0,968.87,133.36Z"/><path class="cls-7" d="M968,130.87a2.65,2.65,0,0,1-1.46.78l.54-1.48h.05l.84.53Z"/><path class="cls-7" d="M967.72,128.89a8.06,8.06,0,0,0,.18,1.83l-.84-.53h0l.66-1.82V126.9c.62-3.76,2.29-5.88,5.6-6.6A9.41,9.41,0,0,0,967.72,128.89Z"/><path class="cls-3" d="M967.72,126.88v1.47A3.32,3.32,0,0,1,967.72,126.88Z"/><path class="cls-7" d="M982.39,121a6.7,6.7,0,0,0-1.11-.62,7.05,7.05,0,0,1,1.08.16A3.55,3.55,0,0,0,982.39,121Z"/><path class="cls-7" d="M983.11,121.34l-.13.09h0l-.58-.43a3.53,3.53,0,0,1,0-.46Z"/><path class="cls-7" d="M986.59,125l-.31.16-.46-.11a9.43,9.43,0,0,0-2.84-3.63l.13-.09Z"/><path class="cls-7" d="M986.84,125.27a4.87,4.87,0,0,1-.53,1.16,7.27,7.27,0,0,0-.38-1.11c.12,0,.23-.1.35-.15Z"/><path class="cls-7" d="M986.28,125.17c-.12,0-.23.11-.35.15a.85.85,0,0,0-.11-.26Z"/><path class="cls-3" d="M986.31,126.43c-1.74,3-5.79,4.26-6.24,8.78-.26,2.5-5.59,2.86-7.32.4-1-1.48-2.53-1.78-3.88-2.25a9.56,9.56,0,0,1-.92-2.49v-.15a8.06,8.06,0,0,1-.18-1.83,9.42,9.42,0,0,1,5.59-8.61,21.85,21.85,0,0,1,7.94.08h0a6.7,6.7,0,0,1,1.11.62l.58.43h0a9.43,9.43,0,0,1,2.84,3.63.85.85,0,0,1,.11.26A7.46,7.46,0,0,1,986.31,126.43Z"/><path class="cls-7" d="M986.84,125.27l-.56-.1.31-.16Z"/><path class="cls-21" d="M942.44,144.23C935.31,143.57,931,142,930.9,133c-.07-7.48,4.19-8.57,8.7-10.31,2.37-.92,2.74,1.88,2.78,3.57C942.53,132.06,942.44,137.86,942.44,144.23Z"/><path class="cls-22" d="M965,122l-2.69,6.48c-.11,2.64-1.14,5.72-.13,7.82,2.73,5.73-.22,6.3-4.62,6.21-3.45-.86-5.38-4.68-4-6.32,3-3.44-1.35-5-.77-7.45.63-3.73,2.13-6.84,6-8.2l6-1a1.67,1.67,0,0,1,.31,2.34Z"/><path class="cls-23" d="M964.61,94.83c4.09-1,4.45-.54,5.22,6.45C963.16,103.13,962.34,100.24,964.61,94.83Z"/><path class="cls-24" d="M946.81,114.67c3.46,2.19,5.17,4.67,2.47,7.94-.39.48-1.7.92-1.93.7C944.62,120.63,946.72,117.61,946.81,114.67Z"/><path class="cls-25" d="M954.1,128.44c2.78,4.3-1.56,10.37,3.49,14.1-1.93.2-4,.91-5.37-1.24a1.85,1.85,0,0,0,.22-2.56,5.71,5.71,0,0,1-1-3.89c-.44-2.23-.77-4.44.49-6.53A2,2,0,0,1,954.1,128.44Z"/><path class="cls-26" d="M954.1,128.44l-.7.14-.72-.06c-2.53-1.42,1.46-3.38-.4-4.86,2.4-1.65-1.91-5,1.64-6.39a16.2,16.2,0,0,0,1.44,1.43c.62,1.63,2,1.92,3.48,1.87Z"/><path class="cls-27" d="M952.28,123.66c3.21,1.37-.27,3.29.4,4.86l-.64,7.9c-.48.76-1,.75-1.42,0C948.55,131.82,950,127.68,952.28,123.66Z"/><path class="cls-28" d="M952.55,152.22l2.34-3.94c2.64,4.18-.72,6.63-2.19,9.53l-2.11-2.11C951.64,154.77,950.85,152.77,952.55,152.22Z"/><path class="cls-29" d="M952.55,152.22c-.34,1.33.33,3.24-2,3.48-2.33-3.18.29-7.55-4.56-11.24C952,146,952,149.25,952.55,152.22Z"/><path class="cls-30" d="M971.51,115.84a4.31,4.31,0,0,0-.07,1.56l.07-.13a2.42,2.42,0,0,1-3.42-.15l0,0c1.42-4.11-2.12-8.92,1.77-12.68C970.53,108.2,968.05,112.46,971.51,115.84Z"/><path class="cls-15" d="M968.06,117.09l3.45.18L965,122c0-.81-.11-1.63-.17-2.45Z"/><path class="cls-31" d="M981.86,166.21c-1.37-2-1.48-3.89-.24-6.46C982.72,162.16,983.53,164,981.86,166.21Z"/><path class="cls-32" d="M988.52,164.77c-2-1-1.57-2.87-2-4.44C988.86,161,989.27,162.53,988.52,164.77Z"/><path class="cls-33" d="M993.8,160.35a2.61,2.61,0,0,1,2.35,2.85c0,.05,0,.1,0,.15a1.79,1.79,0,0,1-1.28.22c-1.43-.61-1.23-1.9-1.13-3.12Z"/><path class="cls-34" d="M950.62,136.41H952l1.43,3.23a.83.83,0,0,1-1.13.31.84.84,0,0,1-.31-.31C950.33,139.12,950.53,137.77,950.62,136.41Z"/><path class="cls-35" d="M990.1,132.82l.88,2.73-1.23.29c.18-1,.36-1.92.52-2.89Z"/><path class="cls-36" d="M974,162.64a6.4,6.4,0,0,1,.45,1.34c0,.13-.35.33-.54.5a7.82,7.82,0,0,1-.45-1.34C973.39,163,973.72,162.77,974,162.64Z"/><path class="cls-37" d="M993.72,160.41c-1.86-.37-1.64-1.83-1.63-3.17l.12-.13c1.83.44,1.71,1.84,1.59,3.24Z"/><path class="cls-3" d="M952,139.67a8.65,8.65,0,0,0,1.44,0c.67,1.37-.13,1.63-1.25,1.65C952.16,140.77,952.1,140.21,952,139.67Z"/><path class="cls-30" d="M992.09,157.24l-1.12-.83c1.17-1.11,1.09,0,1.24.7Z"/><path class="cls-18" d="M955.36,118.7c-1,.08-1.53-.38-1.44-1.43C954.89,117.26,955.4,117.7,955.36,118.7Z"/><path class="cls-38" d="M979.78,108c-.13,2.62-1.87,3.73-4.1,3.69a3.41,3.41,0,0,1-3.65-3.15,3.61,3.61,0,0,1,.06-.93c.25-2.29,1.62-3.84,4.09-3.79C978.81,103.87,979.57,105.77,979.78,108Z"/><path class="cls-4" d="M973,96.45l-.6,2.07-.57-.4c.37-.58.76-1.13,1.15-1.69Z"/><path class="cls-7" d="M967.72,126.88v1.47a5,5,0,0,1-.38-1C967.28,127.2,967.58,127,967.72,126.88Z"/><path class="cls-39" d="M922,87.34l-7.16,1.1c1-4.16,5-4,7.13-6.07,2,.16,4.1-.33,6.13,1.18C927,86.6,924.34,86.77,922,87.34Z"/><path class="cls-3" d="M986.64,128.89a9.45,9.45,0,0,1-18.69,2v-.15a8.06,8.06,0,0,1-.18-1.83,9.42,9.42,0,0,1,5.59-8.61,21.85,21.85,0,0,1,7.94.08h0a6.7,6.7,0,0,1,1.11.62l.58.43h0a9.43,9.43,0,0,1,2.84,3.63.85.85,0,0,1,.11.26,7.27,7.27,0,0,1,.38,1.11A8.89,8.89,0,0,1,986.64,128.89Z"/><path class="cls-40" d="M952.56,31.32a85.94,85.94,0,1,0,85.93,85.95v0A85.94,85.94,0,0,0,952.56,31.32Zm-80.84,85.93a80.83,80.83,0,1,1,80.84,80.83,80.83,80.83,0,0,1-80.84-80.83Z"/></svg>