<?xml version="1.0" encoding="utf-8"?>
<!-- Generator: Adobe Illustrator 25.0.0, SVG Export Plug-In . SVG Version: 6.00 Build 0)  -->
<svg version="1.1" id="Layer_1" xmlns="http://www.w3.org/2000/svg" xmlns:xlink="http://www.w3.org/1999/xlink" x="0px" y="0px"
	 viewBox="0 0 744.4 843" style="enable-background:new 0 0 744.4 843;" xml:space="preserve">
<style type="text/css">
	.st0{fill:#59B955;}
	.st1{fill:#5ABA56;}
	.st2{fill:#5BBA57;}
	.st3{fill:#FEFEFE;}
	.st4{fill:#FFFFFF;}
</style>
<g>
	<path class="st0" d="M372.2,843c-121.1,0-242.3,0-363.4,0c-9.9,0-8.8,1.3-8.8-8.8c0-176,0-351.9,0-527.9c0-9.4-1.1-8.7,8.4-8.7
		c242.5,0,485,0,727.5,0c0.4,0,0.9,0,1.3,0c7.2,0.1,7.2,0.1,7.2,7.3c0,96,0,192,0,288.1c0,80.6,0,161.2,0,241.8
		c0,8.9,1.1,8.2-8.1,8.2C614.9,843,493.6,843,372.2,843z M196.3,480.4c2.6-1.2,4.4-1.9,6.1-2.8c11.5-5.8,23.5-9.9,36.2-12.1
		c13.2-2.4,26.3-2.6,39,2.3c10.7,4.2,17.6,11.8,18.3,23.6c0.7,11.5-5,19.7-14.7,25.4c-7.1,4.2-15,6.3-23.1,7.6
		c-10.5,1.7-21.1,1-31.6,1.2c-5.5,0.1-5.5,0.1-5.6,5.4c-0.1,11.7,0,23.3,0,35c0,6.1,0.1,6.1,6.1,6.1c11,0.1,22-0.5,33,1.1
		c11.7,1.7,22.8,5.1,31.8,13.2c16.9,15.1,15,41.5-3.9,54.1c-4.4,3-9.3,5.1-14.4,6.4c-9.5,2.4-19.1,3.2-28.8,2.3
		c-18-1.6-34.9-6.7-51.3-14c-1.9-0.8-3.6-2.6-6.3-1.8c-4.1,14.8-8.1,29.7-12.2,44.5c-0.7,2.5-0.1,4.1,2.3,5.4
		c5.2,2.8,10.6,5.4,16.2,7.3c33.5,11.5,67.6,13.8,102.2,6.5c20.6-4.4,39.4-12.8,54.3-28.3c18-18.8,25.2-41.4,20.1-66.8
		c-5.6-28.1-24.5-44.3-51.1-52.5c-2.2-0.7-4.4-1.3-6.8-2c1.8-2.3,4.1-2.5,6.1-3.4c7.1-3.1,13.8-6.8,19.9-11.6
		c32.1-25.3,32.4-73.7,0.6-99.5c-10.5-8.5-22.4-14.1-35.4-16.9c-39.2-8.5-77-3.1-113.4,13.2c-1.4,0.6-2.7,1.5-4.1,2.2
		c-2.2,1-2.6,2.6-2,4.9C188,450.8,192,465.2,196.3,480.4z M448.4,475.7c1.1,2.8,0.7,5.2,0.7,7.6c0,28,0,55.9,0,83.9
		c0,40.5,0,81,0,121.5c0,8.5-0.4,7.6,7.4,7.6c15.8,0,31.7,0,47.5,0c9,0,8,1,8-8.2c0-87.6,0-175.2,0-262.8c0-1.3-0.1-2.7,0-4
		c0.4-3.6-1.4-4.4-4.6-4.4c-15.6,0.1-31.3,0.1-46.9,0c-2.3,0-4.3,0.6-6.3,1.6c-21.9,10.2-43.9,20.5-65.8,30.6
		c-3.2,1.5-4.2,3.2-3.4,6.6c3,13.1,5.8,26.2,8.7,39.3c1.2,5.2,1.3,5.3,6.4,2.8c13.7-6.5,27.4-13.1,41.1-19.5
		C443.5,477.4,445.5,475.9,448.4,475.7z"/>
	<path class="st1" d="M372.5,253c-120.7,0-241.5,0-362.2,0c-10.2,0-9.2,1.1-9.2-9.2C1,185.9,1,127.9,1,70c0-9.5-1-8.6,8.4-8.7
		c21.7,0,43.3,0,65,0c1.3,0,2.7,0.1,4,0c2.7-0.1,4.2,0.8,4,3.8c-0.1,1.8,0,3.5,0,5.3c0,33.9,0,67.8,0,101.7c0,1.1,0,2.2,0,3.3
		c0.1,5.7,0.1,5.8,6,5.8c54.8,0,109.7,0,164.5,0c5.7,0,5.8-0.1,5.8-6.1c0-35.2,0-70.5,0-105.7c0-8.9-1-8.2,8.1-8.2
		c68.1,0,136.2,0,204.3,0c9.4,0,8.7-1.1,8.7,8.4c0,33.9,0,67.8,0,101.7c0,1.1,0,2.2,0,3.3c0.1,6.4,0.1,6.5,6.7,6.5
		c54.4,0,108.8,0,163.2,0c6.1,0,6.1-0.1,6.1-6.2c0-35.2,0-70.5,0-105.7c0-8.1-1.1-8,7.7-8c24.3,0,48.7,0,73,0c1.8,0,3.5,0,5.3,0.1
		c1.5,0.1,2.4,0.9,2.5,2.5c0,1.8,0.1,3.5,0.1,5.3c0,58.6,0,117.2,0,175.7c0,8.5,0.9,8-8.4,8C614.8,253,493.6,253,372.5,253z"/>
	<path class="st2" d="M202,63c0,18.3,0,36.5,0,54.8c0,6-0.1,6.1-6.2,6.1c-18,0-36.1,0-54.1,0c-6.1,0-6.2-0.1-6.2-6.2
		c0-36.7,0-73.5,0-110.2c0-6.1,0.1-6.2,6.2-6.2c18.3,0,36.5,0,54.8,0c5.4,0,5.5,0.1,5.5,5.6C202,25.6,202,44.3,202,63z"/>
	<path class="st1" d="M597.8,61.1c0,18.5,0,37,0,55.5c0,5.9-0.1,6-5.7,6c-18.5,0-37,0-55.5,0c-5,0-5.1-0.1-5.1-5.2
		c0-37.4,0-74.9,0-112.3c0-4.9,0.1-5,5.3-5c18.5,0,37-0.1,55.5,0c5.4,0,5.5,0.1,5.5,5.6C597.8,24.1,597.8,42.6,597.8,61.1z"/>
	<path class="st3" d="M196.3,480.4c-4.3-15.2-8.3-29.6-12.4-43.9c-0.6-2.3-0.2-3.8,2-4.9c1.4-0.7,2.7-1.6,4.1-2.2
		c36.4-16.3,74.1-21.7,113.4-13.2c13,2.8,25,8.5,35.4,16.9c31.8,25.8,31.5,74.1-0.6,99.5c-6.1,4.8-12.8,8.5-19.9,11.6
		c-2,0.9-4.3,1.1-6.1,3.4c2.4,0.7,4.6,1.3,6.8,2c26.6,8.2,45.5,24.4,51.1,52.5c5.1,25.4-2.1,48-20.1,66.8
		c-14.9,15.5-33.7,23.9-54.3,28.3c-34.6,7.3-68.7,5-102.2-6.5c-5.6-1.9-11-4.5-16.2-7.3c-2.4-1.3-3-2.9-2.3-5.4
		c4.1-14.8,8.1-29.7,12.2-44.5c2.7-0.8,4.4,0.9,6.3,1.8c16.4,7.3,33.4,12.4,51.3,14c9.8,0.8,19.4,0,28.8-2.3
		c5.1-1.3,10-3.4,14.4-6.4c18.9-12.6,20.8-39,3.9-54.1c-9-8.1-20.1-11.5-31.8-13.2c-11-1.6-22-0.9-33-1.1c-6.1-0.1-6.1-0.1-6.1-6.1
		c0-11.7,0-23.3,0-35c0-5.3,0.1-5.3,5.6-5.4c10.6-0.2,21.1,0.5,31.6-1.2c8.1-1.3,15.9-3.4,23.1-7.6c9.7-5.7,15.4-13.9,14.7-25.4
		c-0.7-11.8-7.6-19.4-18.3-23.6c-12.7-5-25.9-4.7-39-2.3c-12.6,2.3-24.7,6.3-36.2,12.1C200.7,478.4,198.9,479.2,196.3,480.4z"/>
	<path class="st4" d="M448.4,475.7c-2.9,0.2-4.9,1.7-7,2.7c-13.7,6.5-27.4,13.1-41.1,19.5c-5.1,2.4-5.3,2.4-6.4-2.8
		c-3-13.1-5.7-26.2-8.7-39.3c-0.8-3.4,0.2-5.2,3.4-6.6c22-10.1,43.9-20.3,65.8-30.6c2-0.9,4-1.6,6.3-1.6c15.6,0,31.3,0.1,46.9,0
		c3.2,0,5.1,0.8,4.6,4.4c-0.2,1.3,0,2.6,0,4c0,87.6,0,175.2,0,262.8c0,9.1,1,8.1-8,8.2c-15.8,0.1-31.7,0-47.5,0
		c-7.7,0-7.4,0.8-7.4-7.6c0-40.5,0-81,0-121.5c0-28,0-55.9,0-83.9C449.1,480.9,449.6,478.5,448.4,475.7z"/>
</g>
</svg>
