<svg xmlns="http://www.w3.org/2000/svg" xmlns:xlink="http://www.w3.org/1999/xlink" id="Layer_1" viewBox="0 0 344.97 190.53"><defs><style>.cls-1{fill:none;}.cls-2{letter-spacing:-.04em;}.cls-3{stroke:#000;stroke-linecap:round;stroke-linejoin:round;}.cls-3,.cls-4{fill:#53b34b;}.cls-5{font-size:16px;}.cls-6{clip-path:url(#clippath);}.cls-7{letter-spacing:-.09em;}.cls-8{stroke:#fff;stroke-width:3px;}.cls-8,.cls-9{stroke-miterlimit:10;}.cls-10,.cls-11{fill:#fff;}.cls-12{fill:#cacaca;}.cls-9{fill:#ec3833;stroke:#231f20;stroke-width:2px;}.cls-13{letter-spacing:-.09em;}.cls-14{letter-spacing:-.02em;}.cls-11{font-family:Multicolore, 'Multicolore ';}.cls-15{letter-spacing:0em;}.cls-16{font-size:14px;}</style><clipPath id="clippath"><rect class="cls-1" y="1" width="344.97" height="95.79"/></clipPath></defs><g class="cls-6"><g><g><ellipse class="cls-10" cx="180.48" cy="97.04" rx="92.7" ry="92.67" transform="translate(-.27 .5) rotate(-.16)"/><path class="cls-12" d="m273.18,96.23c.12,51.19-41.24,92.79-92.46,92.91-51.19.15-92.79-41.24-92.94-92.4-.03-7.52.87-14.83,2.52-21.83,9.91,40.61,46.6,70.71,90.3,70.62s80.24-30.43,89.91-71.1c1.74,6.98,2.64,14.29,2.67,21.8Z"/><path class="cls-4" d="m221.25,121.36c.24,2.43.12,4.82-.63,7.16-1.02,3.29-.96,6.71-1.11,10.09-.09,2.16-.21,4.31-.93,6.41-.78,2.28-2.4,3.71-4.37,4.85-1.35.78-2.7,1.53-4.01,2.37-1.86,1.2-2.16,3.17-2.31,5.15-.09,1.26-.09,2.55-.15,3.83-.09,1.62-.75,2.97-1.89,4.1-2.22,2.25-4.49,4.43-6.59,6.8-2.73,3.06-4.22,6.68-4.58,10.75-.03.39-.15.81-.24,1.2-.45,1.65-1.41,2.4-3.14,2.4-2.49-.03-4.55-1.05-6.11-2.88-1.68-2.01-3.23-4.1-4.61-6.32-3.68-5.81-6.5-12.04-9.08-18.39-.96-2.34-2.55-3.77-5-4.34s-4.91-1.02-7.31-1.8c-2.19-.72-4.37-1.62-6.35-2.76-4.61-2.64-6.77-6.86-6.77-12.04,0-2.91.48-5.84.81-8.75.27-2.37.36-4.7-.39-7.01-.48-1.5-1.05-2.01-2.55-1.86-3.56.3-6.5-.99-8.84-3.47-2.67-2.88-5.93-4.73-9.55-6.08-.66-.27-1.32-.54-1.95-.87-1.62-.9-3.32-1.11-5.18-.93-2.73.24-5.03-.96-7.1-2.67-2.88-2.37-4.37-5.54-5.12-9.05-.72-3.44-1.2-6.95-1.86-10.39-.75-3.98-1.56-7.97-2.43-11.95-.69-3.2-1.41-6.41-1.29-9.73.12-2.91,1.11-5.39,3.03-7.55.69-.81,1.38-1.62,2.01-2.46,1.53-1.98,1.86-4.25,1.5-6.65-.45-3.11.57-5.66,2.73-7.85,1.38-1.41,2.4-3,2.85-5.03.96-1.05,1.95-2.1,2.97-3.08,2.79-2.79,5.72-5.36,8.84-7.76.9-.69,1.8-1.38,2.7-2.01,1.38.72,1.68,1.95,1.89,3.23,0,.06,0,.12.03.15.48,2.31,1.44,2.82,3.62,1.92.51-.21.96-.51,1.47-.69.42-.15.96-.42,1.32-.3,1.02.33,1.29-.36,1.74-.96,1.14-1.44,2.19-3.03,3.56-4.22,1.02-.87,1.74-1.86,2.49-2.91,1.65-2.4,4.04-3.77,6.83-4.46.81-.21,1.8,0,2.64.27.75.24,1.11.09,1.56-.51.72-.9,1.47-1.83,2.37-2.58,1.77-1.5,3.77-2.04,5.99-.93,1.47.75,2.94,1.56,4.43,2.22,1.23.54,2.55.9,3.83,1.35.42.15.84.21,1.26.33,1.14.33,1.83,1.08,1.95,2.25.12.99.15,1.98.24,3.14,1.32-.36,2.58-.72,3.8-1.08.99-.3,1.98-.66,2.97-.96.33-.12.69-.21,1.05-.24,1.26-.15,2.16.24,2.52,1.05.36.81.03,1.8-.81,2.64-1.41,1.35-3.17,1.83-5.03,1.8-1.89-.03-3.8-.27-5.69-.51-1.53-.21-2.04-.03-2.58,1.38-.09.24-.18.51-.33.75-.84,1.32-1.14,2.76-1.14,4.25,0,1.71-.72,3-2.31,3.68-1.71.75-3.26.42-4.7-.69-1.65-1.26-2.52-3.03-3.2-4.91-.33-.96-.66-1.95-.96-2.94-.6-1.89-1.95-2.85-3.86-3.03-1.86-.18-3.71-.24-5.36-1.26-.12-.09-.54.06-.63.21-1.23,1.83-.45,4.07,1.65,4.76.39.12.78.24,1.17.36,2.4.72,3.23,1.86,2.7,4.28-.33,1.5-.99,3-1.77,4.34-.9,1.59-2.31,2.04-4.07,1.53-1.56-.45-3.11-.99-4.67-1.44-.39-.12-.81-.15-1.23-.24-.03.09-.06.18-.09.27.27.12.51.3.78.36.6.12,1.23.24,1.86.3,1.5.21,2.73.9,3.68,2.04.81.96,1.26.99,2.28.27.42-.3.78-.69,1.14-1.05,1.35-1.38,2.91-1.26,3.95.39.48.78.93,1.62,1.23,2.49.54,1.5,1.62,2.1,3.17,2.25.87.09,1.77.3,2.61.63,1.62.63,3.08,2.97,1.98,4.76-.09.15.09.6.27.75.78.6,1.62,1.11,2.37,1.74,1.44,1.2,1.23,2.58-.57,3.2-2.52.87-5.06.96-7.73,0,.57.78.75,1.59.27,2.28-.42.63-1.02,1.29-1.68,1.56-1.35.57-2.76,1.02-4.19,1.32-1.26.3-2.13.96-2.37,2.16-.42,2.13-1.59,3.56-3.47,4.61-1.53.87-2.7,2.19-3,3.98-.12.81,0,1.68.06,2.52.12,2.22-.69,4.1-2.13,5.72-.81.9-1.71,1.74-2.64,2.55-1.62,1.41-2.07,3.11-1.5,5.15.33,1.14.63,2.31.93,3.44.09.33.15.69.18,1.05.09,1.65-1.17,2.67-2.73,2.01-.78-.33-1.53-.96-2.04-1.65-.81-1.05-1.38-2.28-2.07-3.41-1.59-2.61-2.67-3-5.48-1.8-1.32.57-2.55,1.35-3.8,2.07-.93.54-1.86,1.05-2.73,1.65-.6.42-1.29.96-1.53,1.62-1.23,3.38-1.56,6.86-.81,10.42.12.63.45,1.23.69,1.8.3.69.81.93,1.59.78,1.74-.39,2.94-1.5,4.04-2.76.63-.72,1.2-1.5,1.8-2.25.99-1.23,2.1-1.62,3.26-1.2,1.56.57,2.46,1.8,2.34,3.35-.12,1.41-.39,2.79-.54,4.19-.09.81,0,1.62,0,2.55.57-.15,1.08-.3,1.59-.42.9-.24,1.77-.54,2.7-.72,3.06-.51,5.12,1.8,4.22,4.76-.24.84-.63,1.62-.96,2.43-.36.84-.15,1.5.48,2.13,1.44,1.47,3.08,2.01,4.7,1.14,1.86-1.02,3.53-.87,5.3.27.27-.57.54-1.11.78-1.62,1.65-3.68,4.52-5.42,8.57-5.27,1.89.06,3.77.15,5.63.03,1.23-.09,2.46-.48,3.65-.87,2.19-.69,4.25-.42,6.26.63,1.62.84,3.26,1.65,4.91,2.4,1.35.6,2.79.9,4.31.63,2.1-.36,3.89.36,5.42,1.74,1.32,1.17,2.58,2.43,3.77,3.74,1.35,1.5,2.82,1.95,4.82,1.38,2.55-.75,5.18-1.29,7.79-1.77,1.26-.24,2.58-.18,3.83-.15,2.49.06,4.97.18,7.46.33,2.91.18,4.4,1.71,4.67,4.61Z"/><path class="cls-4" d="m223.55,30.34c.03,2.61-.24,5.18-1.08,7.7-.54,1.59-1.23,2.88-3.06,3.08-2.04.24-3.8-.24-5.03-2.01-1.86-2.7-1.35-5.24,1.38-7.1.18-.12.33-.24.6-.45-.33-.42-.57-.9-.93-1.23-.96-.84-1.98-1.62-3-2.4-.36-.3-.66-.27-.96.12-1.23,1.53-2.88.87-3.65-.39-.84-1.29-.84-2.73-.33-4.07.6-1.56,1.38-3.06,2.25-4.49,1.38-2.31,1.23-3.86-.87-5.54-1.38-1.11-2.94-1.95-4.97-2.31.36.6.6,1.05.9,1.44.51.69,1.14,1.32,1.62,2.07.9,1.41.51,2.73-1.05,3.29-1.5.54-3.11.81-4.76,1.2.24.24.54.6.9.78.84.42,1.74.69,2.55,1.14.75.45,1.59.96,2.04,1.65,1.38,2.07.3,4.31-2.16,4.64-3.92.51-7.25-.87-10.09-3.44-.6-.54-1.02-1.47-1.23-2.31-.33-1.41.78-2.64,2.25-2.67.66,0,1.29.09,2.01.15-.3-1.74-.84-3.29-2.37-4.31-1.32-.87-2.7-1.68-4.01-2.55-1.92-1.26-3-3-2.76-5.36.06-.6-.09-1.02-.48-1.26.72.03,1.44.09,2.16.18,13.75,1.2,26.6,5.42,37.95,11.95.54.3,1.05.6,1.56.93-.15.09-.27.27-.36.54-.6,1.47-.54,2.97.03,4.43.24.66.54,1.29.81,1.95.54,1.44,0,2.52-1.5,2.85-.87.18-1.8.18-2.7.24-1.56.06-1.65.12-1.65,1.56Z"/><path class="cls-10" d="m255.45,150.98c2.19-3,4.22-6.08,6.02-9.28-3.2,5.69-7.01,11.02-11.32,15.87,1.86-2.1,3.62-4.28,5.3-6.59Z"/><path class="cls-3" d="m273.18,96.8c.03,6.68-.69,13.18-2.04,19.44-.21.12-.42.18-.6.18-.36-.06-.87-.51-.9-.84-.18-1.44-.39-2.91-.3-4.37.21-3.71.54-7.43.93-11.11.15-1.56.63-3.08.96-4.61.36-1.71-.36-3.11-1.44-4.31-1.23-1.38-2.61-2.67-3.83-4.01-.87-.93-1.74-1.89-2.46-2.94-1.35-1.86-1.56-3.89-.57-5.99.21-.42.36-.84.66-1.53-1.23.45-2.25.81-3.26,1.2-1.83.69-2.97,1.92-3.35,3.95-.27,1.53-1.29,2.7-2.64,3.5-2.79,1.68-5.87,2.55-9.11,2.97-2.4.33-4.64.12-6.65-1.32-.78-.57-1.47-1.29-2.25-1.92-1.56-1.29-3-2.73-4.7-3.77-3.35-2.07-5.24-4.94-5.96-8.72-.81-4.16-1.71-8.33-2.58-12.49-.84-4.01-.36-7.97.93-11.8,1.14-3.44,2.46-6.83,3.68-10.24.36-1.02.72-2.04,1.14-3.03.69-1.68,1.89-2.34,3.68-2.07.15.03.33.06.48.12,2.76,1.02,5.48.42,8.24-.03.3-.06.63-.39.75-.69.45-1.26.3-2.37-.57-3.5-1.29-1.68-2.73-2.94-5.03-3.03-3.35-.12-5.66-2.34-6.14-5.21-.06-.45-.3-.93-.57-1.32.87.54,1.71,1.08,2.55,1.65,1.53,1.02,3,2.07,4.46,3.17,2.58,1.95,5.06,4.01,7.4,6.23,12.07,11.29,21.12,25.76,25.67,42.08,2.22,7.7,3.38,15.9,3.41,24.35Z"/><g id="DqInqH.tif"><path d="m270.25,100.09c-.39,3.68-.69,7.4-.93,11.11-.09,1.44.12,2.94.3,4.37.06.33.57.78.9.84.18.03.39-.06.6-.18s.39-.27.54-.39c.21-.18.3-.51.39-.78,1.08-3.14,1.44-6.41,1.74-9.67.57-6.02.66-12.07.21-18.12-.48-6.59-1.59-13.06-3.65-19.35-4.13-12.61-10.6-23.9-19.56-33.72-13.3-14.65-29.71-24.17-49.06-28.69-2.61-.6-5.24-.99-7.88-1.47-.09-.03-.21-.03-.33-.03-.54-.03-.93.15-1.02.72-.09.6.24.93.81,1.02,1.26.21,2.55.36,3.8.6,8.42,1.56,16.5,4.13,24.17,7.88,2.07,1.02,4.1,2.13,6.17,3.2-.09.12-.15.24-.24.39-1.8,3.06-.81,5.96.54,8.84-.27.12-.42.21-.57.24-.72.06-1.41.12-2.13.15-2.58.12-3.29.84-3.29,3.38v.42c.12,2.55-.36,4.97-1.29,7.31-.18.42-.54.93-.96,1.11-1.56.63-3.29-.15-4.07-1.68-.84-1.68-.51-2.94,1.05-4.01.21-.15.45-.3.69-.45.84-.57,1.11-1.29.66-2.19-.39-.78-.87-1.53-1.5-2.1-.9-.84-1.89-1.56-2.91-2.25-1.23-.87-2.22-1.17-3.38.33-.09.09-.21.18-.3.24-.87-.63-1.08-1.53-.78-2.85.39-1.68,1.32-3.08,2.28-4.49.9-1.35,1.38-2.82.9-4.46-.75-2.64-5.45-5.93-8.21-5.78-1.17.06-1.95.96-1.68,2.1.15.63.45,1.23.78,1.77.45.69,1.08,1.29,1.59,1.98.51.69.48.93-.36,1.14-1.29.33-2.61.54-3.92.72-.78.12-1.65-.09-2.01,1.2-.48-2.49-1.56-4.25-3.5-5.42-.99-.6-1.95-1.2-2.94-1.8-1.83-1.05-2.82-2.52-2.67-4.73v-.69c-.12-1.11-.81-1.74-2.07-1.98-2.01-.36-4.04-.72-6.05-.78-5.75-.18-11.44.66-17.1,1.62-6.62,1.14-13.03,2.88-19.14,5.75-7.73,3.65-15.01,8.03-21.98,12.88-.84.6-1.71,1.2-2.52,1.83-.42.33-.66.78-.27,1.26.39.51.87.51,1.35.12.18-.12.33-.27.54-.39.84-.48,1.65-1.02,2.52-1.47.18-.09.36-.18.54-.27,1.29-.57,1.92-.15,2.22,1.23.15.72.27,1.44.54,2.13.72,1.89,2.25,2.73,4.22,2.25.78-.18,1.47-.57,2.22-.84.51-.18,1.08-.54,1.53-.42,1.26.33,1.98-.15,2.55-1.17.48-.81,1.08-1.59,1.71-2.52-.15,2.04-1.11,3.53-1.89,5.09-.33.66-.66,1.44-.63,2.13.06,1.32-.54,2.01-1.68,2.46-.81.3-1.65.6-2.43.96-.84.39-1.71.75-2.46,1.29-3.14,2.25-3.17,6.05-.06,8.15,4.07,2.79,8.3,1.53,10.9-2.25.42-.57.54-1.47.51-2.22-.06-1.56-.3-3.08-.48-4.58,2.43-.03,4.37.63,5.78,2.49.48.63,1.32.72,2.13.57,1.23-.24,2.16-.96,3-1.86.72-.78.96-.75,1.5.18.42.75.78,1.56,1.14,2.34.78,1.77,2.07,2.7,4.01,2.85.87.09,1.74.27,2.52.63.99.42,1.44,1.41,1.14,2.16-.69,1.8-.54,2.28,1.08,3.38.69.48,1.38.96,2.13,1.47-.18.12-.27.21-.36.24-1.65.51-3.32.66-5,.33-1.2-.24-2.28-.75-2.91-1.92-.87-1.62-2.16-2.04-3.8-1.2-1.59.78-1.86,2.55-.45,3.65.66.54,1.5.84,2.28,1.23.54.27,1.14.48,1.95.84-.54.42-.87.84-1.26.99-1.08.42-2.19.84-3.32,1.05-2.31.39-3.68,1.68-4.19,3.89-.3,1.32-.99,2.19-2.19,2.94-2.94,1.8-4.73,4.28-4.19,7.97.33,2.4-.84,4.16-2.49,5.75-.84.78-1.68,1.56-2.46,2.37-1.2,1.29-1.74,2.85-1.44,4.58.3,1.56.72,3.11,1.08,4.67.09.39.15.81.24,1.29-.87-.06-1.26-.54-1.62-1.05-.9-1.44-1.71-2.91-2.67-4.31-1.44-2.13-3.11-2.73-5.6-2.07-.84.24-1.68.51-2.43.93-1.83,1.02-3.56,2.25-5.42,3.2-1.53.81-2.46,1.95-2.91,3.53-.72,2.52-1.05,5.06-.99,7.64.03,1.92.48,3.77,1.47,5.45.57.99,1.38,1.5,2.55,1.44,1.8-.09,3.26-.9,4.49-2.1,1.2-1.2,2.25-2.52,3.32-3.8.42-.51.84-.6,1.41-.24.6.36.96.78.87,1.53-.15,1.05-.33,2.1-.42,3.14-.09,1.2-.27,2.4-.12,3.56.18,1.5,1.17,2.07,2.67,1.68.54-.15,1.05-.36,1.56-.48.84-.21,1.68-.48,2.55-.54,1.47-.09,2.25.9,1.89,2.31-.21.78-.54,1.53-.87,2.28-.72,1.74-.54,3.08.87,4.37,2.22,2.04,4.4,2.67,7.16,1.17.9-.48,1.68-.36,2.46.09.27.15.57.33.84.51.84.54,1.56.39,2.07-.51.33-.57.57-1.17.84-1.77,1.59-3.5,3.89-4.88,7.73-4.52,3.03.27,5.99.21,8.9-.84,1.89-.69,3.71-.48,5.45.51.87.51,1.8.96,2.7,1.41,2.28,1.14,4.61,2.16,7.28,1.74,1.74-.27,3.17.36,4.4,1.5,1.32,1.23,2.55,2.52,3.8,3.83,1.65,1.71,3.53,2.22,5.81,1.53,2.19-.63,4.4-1.29,6.65-1.65,4.22-.69,8.45-.09,12.67.12,1.44.06,2.04.66,2.37,2.07.54,2.4.36,4.76-.3,7.1-.75,2.61-1.08,5.24-1.17,7.94-.06,2.13-.15,4.22-.33,6.35-.24,2.67-1.38,4.82-3.86,6.11-1.17.63-2.31,1.32-3.47,1.98-2.46,1.41-3.8,3.53-3.95,6.35-.06.96-.18,1.92-.12,2.85.15,2.4-.72,4.28-2.61,5.81-2.43,1.95-4.49,4.28-6.35,6.77-1.77,2.34-3.14,4.88-3.71,7.79-.24,1.23-.39,2.46-.66,3.68-.24,1.11-.51,1.29-1.62,1.26-2.07-.06-3.62-1.08-4.94-2.55-3.06-3.41-5.3-7.4-7.34-11.44-2.1-4.22-3.98-8.57-5.9-12.88-1.11-2.49-2.85-4.13-5.51-4.79-.54-.15-1.05-.27-1.59-.42-2.79-.75-5.63-1.35-8.36-2.25-2.73-.9-5.18-2.34-7.04-4.58-2.52-3.08-2.97-6.74-2.61-10.54.27-2.76.69-5.48.9-8.24.18-2.16-.03-4.28-.99-6.29-.66-1.35-1.77-2.04-3.26-2.07-.48,0-.99-.03-1.47,0-1.83.03-3.53-.42-4.97-1.59-1.08-.9-2.19-1.8-3.17-2.82-1.47-1.47-3.11-2.64-5-3.47-2.25-.99-4.49-1.98-6.71-3-1.38-.63-2.76-.81-4.22-.54-.54.09-1.17.09-1.71-.03-3.23-.54-5.54-2.43-7.25-5.12-1.53-2.4-2.16-5.15-2.64-7.91-.6-3.35-.99-6.77-1.62-10.12-.84-4.31-1.89-8.57-2.79-12.88-.51-2.37-.72-4.76-.42-7.22.3-2.43,1.59-4.28,3.2-6.02,2.52-2.7,3.86-5.78,3.23-9.52-.39-2.37.18-4.4,1.86-6.14.21-.21.39-.45.6-.69,1.62-1.71,2.7-3.65,3.17-5.96.24-1.14.6-2.16,1.14-3.11.45-.81,1.02-1.56,1.74-2.25.09-.09.24-.21.24-.3,0-.36.09-.87-.12-1.08-.21-.21-.72-.15-1.08-.09-.18.03-.33.27-.48.42-4.97,4.82-9.34,10.12-13.18,15.87-9.55,14.26-14.95,29.8-16.14,46.75-.51,7.19-.09,14.32,1.14,21.42,1.8,10.36,5.27,20.13,10.45,29.29,8.69,15.42,20.82,27.47,36.33,36.12,12.64,7.04,26.21,10.93,40.64,11.8,6.77.42,13.51.03,20.19-1.05,10.18-1.65,19.86-4.79,28.99-9.58,14.2-7.43,25.76-17.76,34.62-31.03,4.67-6.95,8.48-14.35,10.87-22.4.72-2.46,1.41-4.94,2.1-7.43.15-.57-.03-.96-.57-1.17-.33-.12-.6-.03-.81.15-.12.12-.21.27-.27.45-.09.24-.15.45-.21.69-.96,3.29-1.74,6.62-2.88,9.82-1.26,3.47-2.73,6.86-4.43,10.12-.48.93-.99,1.86-1.5,2.76-1.8,3.2-3.8,6.29-6.02,9.28-1.68,2.28-3.44,4.49-5.3,6.59-.27.3-.54.6-.81.9-5.36,5.93-11.47,11.11-18.33,15.51-13.06,8.36-27.35,13.15-42.8,14.44-7.04.6-14.08.36-21.09-.69-11.41-1.74-22.16-5.39-32.2-11.11-13.78-7.85-24.86-18.45-33.13-31.93-8.03-12.97-12.52-27.11-13.33-42.32-.51-9.55.51-18.99,3.03-28.21,3.62-13.36,9.85-25.43,18.69-36.12.42-.51.84-1.02,1.26-1.5.42-.51.87-.96,1.38-1.56-.03.21-.06.42-.12.63-.45,2.04-1.47,3.62-2.85,5.03-2.16,2.19-3.17,4.73-2.73,7.85.36,2.37.06,4.67-1.5,6.65-.66.84-1.32,1.68-2.01,2.46-1.92,2.16-2.91,4.64-3.03,7.55-.12,3.32.57,6.53,1.29,9.73.87,3.95,1.68,7.94,2.43,11.95.66,3.44,1.14,6.95,1.86,10.39.75,3.53,2.25,6.68,5.12,9.05,2.04,1.71,4.37,2.91,7.1,2.67,1.89-.18,3.56.03,5.18.93.63.33,1.29.63,1.95.87,3.62,1.38,6.86,3.2,9.55,6.08,2.34,2.49,5.27,3.77,8.84,3.47,1.53-.12,2.07.39,2.55,1.86.75,2.31.63,4.64.39,7.01-.3,2.91-.81,5.81-.81,8.75.03,5.18,2.19,9.4,6.77,12.04,2.01,1.14,4.16,2.04,6.35,2.76,2.37.78,4.85,1.26,7.31,1.8,2.46.57,4.07,1.98,5,4.34,2.58,6.35,5.39,12.58,9.08,18.39,1.38,2.19,2.94,4.31,4.61,6.32,1.53,1.83,3.62,2.85,6.11,2.88,1.74.03,2.7-.72,3.14-2.4.09-.39.21-.81.24-1.2.36-4.07,1.86-7.7,4.58-10.75,2.1-2.34,4.37-4.55,6.59-6.8,1.14-1.14,1.83-2.49,1.89-4.1.06-1.26.09-2.55.15-3.83.12-1.98.45-3.95,2.31-5.15,1.29-.84,2.67-1.62,4.01-2.37,2.01-1.14,3.59-2.58,4.37-4.85.72-2.1.84-4.22.93-6.41.15-3.38.06-6.77,1.11-10.09.72-2.34.87-4.73.63-7.16-.27-2.91-1.77-4.43-4.64-4.58-2.49-.15-4.97-.27-7.46-.33-1.29-.03-2.61-.09-3.83.15-2.61.48-5.24,1.05-7.79,1.77-2.01.57-3.47.12-4.82-1.38-1.2-1.32-2.46-2.55-3.77-3.74-1.53-1.35-3.35-2.1-5.42-1.74-1.53.27-2.97-.03-4.31-.63-1.68-.75-3.29-1.59-4.91-2.4-2.01-1.02-4.04-1.32-6.26-.63-1.2.39-2.43.78-3.65.87-1.86.15-3.77.03-5.63-.03-4.07-.15-6.92,1.59-8.57,5.27-.24.54-.51,1.05-.78,1.62-1.77-1.14-3.41-1.29-5.3-.27-1.59.87-3.26.33-4.7-1.14-.6-.63-.84-1.29-.48-2.13.36-.78.72-1.59.96-2.43.9-2.97-1.17-5.27-4.22-4.76-.93.15-1.8.48-2.7.72-.51.15-1.02.27-1.59.42,0-.93-.06-1.77,0-2.55.12-1.41.42-2.79.54-4.19.12-1.56-.78-2.79-2.34-3.35-1.17-.42-2.28-.03-3.26,1.2-.6.75-1.17,1.53-1.8,2.25-1.11,1.26-2.34,2.37-4.04,2.76-.78.18-1.29-.06-1.59-.78-.27-.6-.57-1.2-.69-1.8-.78-3.53-.42-7.04.81-10.42.24-.63.93-1.17,1.53-1.62.84-.63,1.8-1.14,2.73-1.65,1.26-.72,2.49-1.5,3.8-2.07,2.79-1.23,3.89-.81,5.48,1.8.69,1.14,1.29,2.34,2.07,3.41.51.69,1.26,1.32,2.04,1.65,1.53.66,2.82-.36,2.73-2.01-.03-.36-.09-.72-.18-1.05-.3-1.17-.63-2.31-.93-3.44-.57-2.04-.12-3.74,1.5-5.15.93-.81,1.83-1.65,2.64-2.55,1.44-1.62,2.25-3.5,2.13-5.72-.03-.84-.18-1.71-.06-2.52.3-1.8,1.47-3.14,3-3.98,1.89-1.08,3.06-2.49,3.47-4.61.24-1.23,1.11-1.89,2.37-2.16,1.44-.33,2.85-.75,4.19-1.32.66-.3,1.26-.93,1.68-1.56.48-.69.3-1.53-.27-2.28,2.67.96,5.24.87,7.73,0,1.77-.63,2.01-2.01.57-3.2-.75-.63-1.62-1.11-2.37-1.74-.18-.15-.36-.6-.27-.75,1.11-1.8-.36-4.13-1.98-4.76-.84-.33-1.74-.54-2.61-.63-1.53-.15-2.61-.75-3.17-2.25-.3-.87-.75-1.71-1.23-2.49-1.02-1.65-2.58-1.77-3.95-.39-.36.36-.72.75-1.14,1.05-1.05.72-1.47.66-2.28-.27-.99-1.14-2.19-1.86-3.68-2.04-.63-.09-1.23-.18-1.86-.3-.27-.06-.54-.24-.78-.36.03-.09.06-.18.09-.27.42.09.81.12,1.23.24,1.56.48,3.11,1.02,4.67,1.44,1.8.51,3.17.06,4.07-1.53.78-1.35,1.41-2.82,1.77-4.34.54-2.43-.3-3.56-2.7-4.28-.39-.12-.78-.24-1.17-.36-2.1-.69-2.91-2.94-1.65-4.76.09-.15.51-.3.63-.21,1.65,1.05,3.5,1.11,5.36,1.26,1.92.18,3.26,1.14,3.86,3.03.33.99.63,1.98.96,2.94.69,1.89,1.56,3.65,3.2,4.91,1.41,1.11,3,1.44,4.7.69,1.62-.69,2.31-2.01,2.31-3.68,0-1.53.3-2.97,1.14-4.25.15-.24.21-.51.33-.75.57-1.41,1.05-1.59,2.58-1.38,1.89.24,3.77.48,5.69.51,1.86.03,3.62-.45,5.03-1.8.87-.84,1.17-1.83.81-2.64-.36-.84-1.26-1.2-2.52-1.05-.36.03-.69.12-1.05.24-.99.3-1.95.66-2.97.96-1.23.39-2.49.72-3.8,1.08-.09-1.17-.12-2.16-.24-3.14-.15-1.17-.81-1.92-1.95-2.25-.42-.12-.84-.18-1.26-.33-1.29-.42-2.61-.81-3.83-1.35-1.53-.66-2.97-1.5-4.43-2.25-2.22-1.11-4.22-.6-5.99.93-.87.75-1.65,1.68-2.37,2.58-.45.57-.81.75-1.56.51-.84-.27-1.83-.45-2.64-.27-2.76.69-5.15,2.07-6.83,4.46-.72,1.05-1.47,2.04-2.49,2.91-1.38,1.2-2.46,2.76-3.56,4.22-.48.6-.72,1.32-1.74.96-.36-.12-.9.15-1.32.3-.51.21-.96.48-1.47.69-2.16.9-3.14.39-3.62-1.92,0-.06-.03-.09-.03-.15-.21-1.29-.51-2.52-1.89-3.23l-.18-.09c1.71-1.05,3.32-2.1,4.94-3.11.03-.03.09-.06.12-.09.33-.21.63-.39.96-.57.18-.12.36-.21.54-.33.15-.09.27-.15.42-.24,5.75-3.5,11.71-6.65,18.15-8.9,4.55-1.59,9.25-2.49,13.99-3.26,5.33-.9,10.72-1.5,16.14-1.26,1.38.06,2.76.39,4.13.6.27.03.48.12.63.21.39.24.54.66.48,1.26-.21,2.37.84,4.1,2.76,5.36,1.32.87,2.7,1.68,4.01,2.55,1.53.99,2.07,2.55,2.37,4.31-.72-.06-1.35-.15-2.01-.15-1.47.03-2.58,1.26-2.25,2.67.21.84.6,1.77,1.23,2.31,2.85,2.61,6.17,3.95,10.09,3.44,2.46-.33,3.56-2.58,2.16-4.64-.48-.69-1.29-1.2-2.04-1.65-.78-.48-1.71-.72-2.55-1.14-.36-.18-.66-.54-.9-.78,1.65-.39,3.26-.66,4.76-1.2,1.56-.54,1.95-1.89,1.05-3.29-.45-.72-1.08-1.35-1.62-2.07-.3-.39-.51-.84-.9-1.44,2.04.36,3.59,1.2,4.97,2.31,2.1,1.68,2.25,3.23.87,5.54-.87,1.44-1.65,2.94-2.25,4.49-.51,1.35-.48,2.79.33,4.07.78,1.26,2.43,1.92,3.65.39.3-.39.6-.42.96-.12,1.02.78,2.04,1.56,3,2.4.36.33.63.78.93,1.23-.27.21-.45.33-.6.45-2.7,1.86-3.23,4.4-1.38,7.1,1.23,1.77,3,2.25,5.03,2.01,1.83-.21,2.52-1.5,3.06-3.08.87-2.52,1.11-5.06,1.08-7.7,0-1.44.12-1.5,1.53-1.59.9-.06,1.8-.06,2.7-.24,1.5-.33,2.04-1.41,1.5-2.85-.24-.66-.54-1.29-.81-1.95-.57-1.47-.63-2.97-.03-4.43.12-.27.24-.45.36-.54.21-.12.48,0,.75.36.06.06.09.12.15.21.27.39.48.87.57,1.32.48,2.88,2.79,5.09,6.14,5.21,2.31.09,3.74,1.35,5.03,3.03.87,1.11,1.02,2.25.57,3.5-.12.3-.45.63-.75.69-2.73.45-5.48,1.05-8.24.03-.15-.06-.3-.09-.48-.12-1.8-.27-3,.39-3.68,2.07-.42.99-.78,2.01-1.14,3.03-1.23,3.41-2.55,6.8-3.68,10.24-1.29,3.83-1.77,7.79-.93,11.8.87,4.16,1.77,8.33,2.58,12.49.72,3.77,2.61,6.68,5.96,8.72,1.71,1.05,3.14,2.49,4.7,3.77.75.63,1.44,1.35,2.25,1.92,2.01,1.44,4.28,1.65,6.65,1.32,3.23-.42,6.29-1.29,9.11-2.97,1.35-.81,2.37-1.98,2.64-3.5.36-2.01,1.5-3.23,3.35-3.95,1.02-.39,2.04-.75,3.26-1.2-.3.69-.48,1.11-.66,1.53-.99,2.1-.81,4.13.57,5.99.75,1.02,1.59,1.98,2.46,2.94,1.26,1.35,2.64,2.64,3.83,4.01,1.08,1.2,1.8,2.58,1.44,4.31-.24,1.53-.69,3.06-.87,4.61Zm-115.1-49.66c-.27-.12-.42-.45-.63-.69.27-.18.51-.45.78-.45.3,0,.72.15.9.36.48.54.84,1.17,1.32,1.86-.78-.36-1.59-.66-2.37-1.08Zm27.91-30.97c-.54,1.89-3.71,2.31-6.53,1.92,2.22-.48,4.19-1.74,6.53-1.92Zm-41.63,8.27c.66-1.8,1.23-3.65,2.01-5.39.96-2.19,2.34-4.04,4.58-5.12.78-.36,1.56-.81,2.43-.99.63-.12,1.35,0,1.98.21,1.56.51,2.16.33,3.2-.93.84-.99,1.71-1.98,2.7-2.82,1.02-.87,2.25-1.05,3.53-.45,1.5.75,3,1.41,4.43,2.25,1.53.9,3.2,1.23,4.88,1.59,1.2.27,1.38.48,1.44,1.71.06.99.09,1.98.15,3.03-.27.03-.69.06-1.08.12-1.14.15-1.89.81-2.34,1.83-.42.93-.9,1.8-1.23,2.73-.27.72-.39,1.53-.54,2.28-.06.33,0,.66-.03.99-.06,1.05-.24,2.01-1.38,2.49-1.11.45-2.19.21-2.94-.6-.87-.96-1.59-2.04-2.19-3.17-.51-.96-.72-2.04-1.05-3.06-1.08-3.29-2.94-4.76-6.38-4.94-1.41-.06-2.73-.33-3.98-1.05-1.2-.69-2.22-.33-2.91.87-.81,1.44-.96,2.97-.54,4.55.3,1.14,1.08,1.95,2.16,2.4.9.36,1.86.66,2.79.96.81.24,1.08.78,1.02,1.53-.15,1.53-.66,2.91-1.47,4.19-.63.99-1.17,1.2-2.28.87-1.47-.42-2.91-.93-4.37-1.35-.81-.24-1.68-.3-2.7-.48-.57-1.32-.45-2.79.09-4.22Zm-.87,13.15c.03.39-.03.9-.27,1.23-2.28,3.06-5.51,3.95-8.78,1.44-1.47-1.14-1.68-2.82-.42-4.13.78-.81,1.86-1.38,2.88-1.95.87-.45,1.83-.69,2.73-1.08,1.68-.75,2.79-1.92,2.52-3.92,0-.12.03-.24.06-.36.06,0,.12,0,.18-.03.21,1.29.48,2.58.63,3.86.24,1.65.36,3.29.48,4.94Zm61.37-18.69c.66.27,1.35.48,1.92.87.39.27.75.78.9,1.26.24.78-.06,1.26-.87,1.32-1.11.09-2.25.18-3.32,0-2.04-.36-3.86-1.35-5.42-2.7-.36-.33-.66-.81-.87-1.26-.24-.57.09-.96.72-.9.48.03.99.12,1.47.18,1.35.18,1.95-.24,2.16-1.59.63,1.53,1.92,2.25,3.32,2.82Zm34.77,1.89c-2.34-.15-3.92-1.29-4.46-3.17-.06-.18-.09-.36-.12-.54,1.77,1.26,3.44,2.43,5.27,3.74-.24,0-.48,0-.69-.03Zm29.62,60.95c-.33-.36-.63-.75-.96-1.11-1.44-1.68-1.74-3.5-.63-5.48.24-.42.42-.87.6-1.32.45-1.29-.18-2.28-1.5-2.01-1.68.36-3.32.99-4.94,1.62-1.92.75-3.08,2.19-3.47,4.22-.3,1.59-1.26,2.67-2.7,3.38-2.88,1.44-5.93,2.28-9.19,2.4-1.92.09-3.56-.57-4.91-1.86-2.28-2.19-4.67-4.16-7.31-5.9-2.04-1.35-3.14-3.29-3.65-5.57-.66-3-1.23-5.99-1.86-8.99-.39-1.86-.84-3.71-1.14-5.57-.57-3.35-.09-6.68.99-9.85,1.44-4.28,3-8.54,4.55-12.79.57-1.56,1.02-1.86,2.61-1.32,3.08,1.02,6.11.36,9.14-.15.84-.15,1.44-.69,1.65-1.53.21-.93.33-1.86.48-2.85.03-.18.06-.33.09-.51,12.61,12.34,21.44,26.39,25.61,42.56,1.59,6.17,2.52,12.64,2.7,19.44-1.62-2.7-4.07-4.58-6.14-6.83Zm6.02,13.36c.09,0,.21,0,.3.03-.42,4.34-.87,8.69-1.29,13.06-.12,0-.21-.03-.33-.03.3-4.37.42-8.75,1.32-13.06Z"/></g><path class="cls-10" d="m139.54,32.25c.12.63.33,1.62.57,2.85.33,1.59.45,1.98.57,2.85.24,1.62.33,2.46,0,3.38-.39,1.14-1.17,1.83-1.71,2.28-.6.54-2.01,1.74-3.98,1.71-1.74,0-4.07-.96-4.58-2.82-.33-1.29.36-2.49.57-2.85.66-1.14,1.68-1.68,2.85-2.28,1.53-.78,1.95-.63,2.85-1.14.93-.51,2.07-1.56,2.88-3.98Z"/></g><g><path class="cls-9" d="m144.9,55.41c-.03-.15-.03-.24-.03-.3h-.09c-.03.09-.03.21-.06.33-3.59,1.32-7.22,2.67-10.84,4.01,0,0,0-.03-.03-.03.18-.09.33-.21.51-.3,3.06-1.8,6.14-3.62,9.19-5.42,2.52-1.47,5-2.97,7.52-4.43.12-.06.12-.12.12-.24-.36-1.77-.18-3.5.54-5.18,1.83-4.34,6.74-6.5,11.17-4.88,1.83.66,3.29,1.77,4.37,3.41,1.77,2.73,2.01,5.57.72,8.54-1.77,4.01-6.08,6.05-10.33,4.97-1.14-.3-2.19-.81-3.11-1.5-.66-.51-1.23-1.05-1.71-1.74-.09-.12-.18-.15-.33-.09-2.49.93-4.97,1.83-7.43,2.76-.06,0-.09.03-.18.09Zm19.68-4.16c.78.42,1.77.15,2.22-.63s.15-1.8-.66-2.22c-.78-.42-1.8-.12-2.22.66s-.12,1.77.66,2.19Z"/><path class="cls-10" d="m164.58,51.24c-.78-.42-1.05-1.41-.63-2.19s1.44-1.08,2.22-.66c.78.42,1.08,1.44.66,2.22-.48.78-1.47,1.05-2.25.63Z"/></g></g></g></svg>