<?xml version="1.0" encoding="utf-8"?>
<!-- Generator: Adobe Illustrator 22.0.1, SVG Export Plug-In . SVG Version: 6.00 Build 0)  -->
<svg version="1.1" id="Layer_1" xmlns="http://www.w3.org/2000/svg" xmlns:xlink="http://www.w3.org/1999/xlink" x="0px" y="0px"
	 viewBox="0 0 504 504" style="enable-background:new 0 0 504 504;" xml:space="preserve">
<style type="text/css">
	@font-face {
	  font-family: 'Multicolore';
	  src: url(/fonts/multicolore/Multicolore.otf);
	  font-weight: normal;
	}
	.st0{fill:#8DD0ED;stroke:#000000;stroke-width:6;stroke-miterlimit:10;}
	.st1{fill:#A0CA54;stroke:#939598;stroke-width:3;stroke-miterlimit:10;}
	.st2{fill:#FFFFFF;}
	.st3{fill:#A0CA54;}
	.st4{font-family:'Multicolore', Arial, sans-serif;}
	.st5{font-size:132.7121px;}
</style>
<path class="st0" d="M491.7,502h-478c-6.6,0-12-5.4-12-12V12c0-6.6,5.4-12,12-12h478c6.6,0,12,5.4,12,12v478
	C503.7,496.6,498.3,502,491.7,502z"/>
<circle class="st1" cx="252.7" cy="246.8" r="234.9"/>
<g>
	<rect x="141.5" y="132.4" class="st2" width="228.7" height="59.1"/>
	<rect x="288.9" y="98.6" class="st3" width="54.2" height="70.9"/>
	<rect x="166.6" y="98.6" class="st3" width="54.2" height="70.9"/>
	<g>
		<rect x="141.5" y="205.4" class="st2" width="229.9" height="168.5"/>
		<g>
			<text transform="matrix(1 0 0 1 190.3315 328.6162)" class="st3 st4 st5">3</text>
			<text transform="matrix(1 0 0 1 248.9624 328.6182)" class="st3 st4 st5">1</text>
		</g>
	</g>
	<rect x="305.7" y="113.5" class="st2" width="20.5" height="37.8"/>
	<rect x="183.4" y="115.2" class="st2" width="20.5" height="37.8"/>
</g>
<image style="overflow:visible;" width="1316" height="1920" xlink:href="https://environmentaldashboard.org/images/squirrel.svg"  transform="matrix(0.1444 0 0 0.1444 0.2664 226.7002)">
</image>
</svg>
