<?xml version="1.0" encoding="utf-8"?>
<!-- Generator: Adobe Illustrator 22.0.1, SVG Export Plug-In . SVG Version: 6.00 Build 0)  -->
<svg version="1.1" id="Layer_1" xmlns="http://www.w3.org/2000/svg" xmlns:xlink="http://www.w3.org/1999/xlink" x="0px" y="0px"
	 viewBox="0 0 504 504" style="enable-background:new 0 0 504 504;" xml:space="preserve">
<style type="text/css">
	.st0{fill:none;}
	.st1{fill:none;stroke:#5CB854;stroke-width:12;stroke-miterlimit:10;}
	.st2{fill:#5CB854;}
	.st3{fill:#FFFFFF;}
	.st4{font-family:'Multicolore', Arial, sans-serif;}
	.st5{font-size:124.6673px;}
</style>
<circle class="st0" cx="457.7" cy="-450.2" r="132"/>
<g>
	<circle class="st1" cx="252" cy="252" r="223.2"/>
	<rect x="147.6" y="147.1" class="st2" width="214.8" height="55.6"/>
	<rect x="285.9" y="115.4" class="st3" width="50.9" height="66.6"/>
	<rect x="171.1" y="115.4" class="st3" width="50.9" height="66.6"/>
	<rect x="147.6" y="215.8" class="st2" width="215.9" height="158.3"/>
	<g>
		<text transform="matrix(1 0 0 1 193.3945 331.4846)" class="st3 st4 st5">3</text>
		<text transform="matrix(1 0 0 1 248.4707 331.4856)" class="st3 st4 st5">1</text>
	</g>
	<rect x="301.8" y="129.4" class="st2" width="19.2" height="35.5"/>
	<rect x="186.9" y="131" class="st2" width="19.2" height="35.5"/>
	<path class="st0" d="M464.4,470.2H39.6c-6.6,0-12-5.4-12-12V45.8c0-6.6,5.4-12,12-12h424.8c6.6,0,12,5.4,12,12v412.3
		C476.4,464.8,471,470.2,464.4,470.2z"/>
</g>
</svg>
