<?xml version="1.0" encoding="utf-8"?>
<!-- Generator: Adobe Illustrator 25.0.0, SVG Export Plug-In . SVG Version: 6.00 Build 0)  -->
<svg version="1.1" id="Layer_1" xmlns="http://www.w3.org/2000/svg" xmlns:xlink="http://www.w3.org/1999/xlink" x="0px" y="0px"
	 viewBox="0 0 511.5 347.1" style="enable-background:new 0 0 511.5 347.1;" xml:space="preserve">
<style type="text/css">
	.st0{fill:#100F14;}
	.st1{fill:none;stroke:#21A7DF;stroke-width:8;stroke-miterlimit:10;}
	.st2{fill:#21A7DF;}
</style>
<path class="st0" d="M216.1,347.1c-67,0-134,0-201,0c-1.5,0-3.1,0-4.6,0C0.9,346.9,0,346.1,0,336.4c0-78.9,0-157.7,0-236.6
	c0-2.5-0.8-5.7,2.2-7.1c2.6-1.2,4.5,1.1,6.5,2.3c54.8,34.2,109.5,68.4,164.3,102.5c11.4,7.1,23.2,13.7,37,14.8
	c14.1,1.1,27.1-2.9,38.9-10.1c35.7-21.7,71.1-43.7,106.6-65.6c8.5-5.2,8.5-5.2,15.4,1.7c15.2,15.5,33.3,25,55.1,26.6
	c6.4,0.5,6.6,4.4,6.6,9.1c0,33.2,0,66.3,0,99.5c0,21.1,0,42.2-0.1,63.3c0,9.4-0.8,10.1-10.2,10.1C353.6,347,284.9,347,216.1,347.1
	C216.1,347,216.1,347,216.1,347.1z M22.8,334.9c2.6,0.2,5.2-2,7.7-4.1c40.7-33.7,81.4-67.4,122.1-101.2c7.1-5.9,8.4-10.1,5.1-14.2
	c-3.5-4.3-8.1-3.6-15.4,2.4c-36,29.8-72,59.6-107.9,89.4c-5.6,4.6-11.1,9.3-16.5,14.1c-2.9,2.6-3.7,5.9-2.2,9.6
	C16.6,333.6,18.9,334.8,22.8,334.9z M415.1,327.4c-0.3-5.6-5.2-8-9-11.2c-34.6-28.9-69.2-57.6-103.8-86.3
	c-6.3-5.2-12.4-10.5-18.9-15.3c-3.8-2.8-8-2.8-11.1,1.3c-2.8,3.8-1.7,7.5,1.4,10.6c1.1,1.1,2.3,2,3.5,3
	c32.9,27.4,65.8,54.8,98.8,82.1c8.4,7,17,13.9,25.5,20.9c2.9,2.4,6.2,3.4,9.8,1.7C413.9,332.9,415,330.6,415.1,327.4z"/>
<path class="st0" d="M17,81.4c4.7-1.7,8.2-0.9,11.6-0.9c100.8-0.1,201.6-0.1,302.4-0.1c15.3,0,15.2,0,17.8,14.6
	c1,5.9,2.4,11.6,5.1,17c2,4,1.2,6.9-2.8,9.3c-36.5,22.4-73,44.8-109.4,67.3c-18.9,11.7-37.3,10.3-55.7-1.4
	c-38.3-24.1-76.7-47.9-115.1-71.9C55,105.5,39.2,95.6,23.4,85.7C21.5,84.6,19.8,83.3,17,81.4z"/>
<path class="st1" d="M506.5,79c1.5,42.2-32.7,74.6-74.2,75.3c-39.7,0.7-75.5-35.7-74.7-75.1c0.7-37.9,29.5-74.6,75.6-74.3
	C477.7,5,508.5,41.3,506.5,79z"/>
<path class="st2" d="M439.8,53.2c0.2,20.1-2,18.5,18.3,18.5c4.2,0,8.3,0.1,12.5,0.1c4.9,0.1,6.3,3,6.2,7.4c0,4.2-1.1,7.6-6,7.7
	c-7.4,0.2-14.9,0.4-22.4,0.2c-6.1-0.1-8.9,2.3-8.7,8.5c0.2,7.2,0,14.5,0,21.7c0,4.6-2,6.8-6.8,6.9c-4.8,0.1-8.4-1-8.5-6.6
	c-0.1-6.8-0.1-13.6-0.2-20.4c-0.1-8.9-1.1-10-9.7-10.1c-6.8-0.1-13.6-0.1-20.4-0.1c-5,0-7-2.4-7-7.4c0-4.9,1.3-8.1,7-8
	c6.8,0.1,13.6,0,20.4-0.1c8.8-0.1,9.6-1,9.7-10c0.1-6.6,0.2-13.2,0.1-19.7c-0.1-5.3,2.6-7.3,7.7-7.3c5.2,0,7.8,2,7.7,7.3
	C439.7,45.8,439.8,49.5,439.8,53.2z"/>
</svg>
